<svg width="104" height="104" viewBox="0 0 104 104" fill="none" xmlns="http://www.w3.org/2000/svg">
<rect width="104" height="104" rx="10" fill="white"/>
<path d="M51.043 55.0454L50.6569 53.5431L49.9967 55.9558L52.4434 56.1263L51.043 55.0454ZM51.043 55.0454L77.3648 37.2148M77.3648 37.2148L75.8297 36.6657L79.9824 32.7421L79.9824 35.1942L82.2063 36.1563L77.3648 38.6278L77.3648 37.2148Z" stroke="black" stroke-width="2" stroke-linecap="round" stroke-linejoin="round"/>
<path d="M72.8378 43.8378C75.6769 49.3922 76.2928 55.8197 74.5601 61.8121C72.8275 67.8045 68.8765 72.9116 63.5113 76.0938C58.1462 79.276 51.7701 80.2942 45.6807 78.9413C39.5913 77.5883 34.2462 73.9658 30.7334 68.811C27.2206 63.6563 25.804 57.3567 26.7719 51.1943C27.7399 45.032 31.0196 39.4701 35.9436 35.6405C40.8676 31.811 47.0659 30.0016 53.2768 30.5807C59.4878 31.1598 65.2447 34.0838 69.3759 38.7576" stroke="black" stroke-width="2" stroke-linecap="round" stroke-linejoin="round"/>
<path d="M55.9442 55.6594C55.7247 56.7795 55.1215 57.788 54.2384 58.5112C53.3554 59.2344 52.2477 59.627 51.1063 59.6214C49.9649 59.6157 48.8612 59.2121 47.9853 58.4802C47.1095 57.7483 46.5163 56.7338 46.308 55.6116C46.0997 54.4893 46.2893 53.3296 46.8441 52.3321C47.399 51.3346 48.2843 50.5618 49.3476 50.1469C50.411 49.732 51.5857 49.7009 52.6695 50.059" stroke="black" stroke-width="2" stroke-linecap="round" stroke-linejoin="round"/>
<path d="M60.2669 52.0019C60.9634 54.2592 60.8219 56.6921 59.8684 58.8534C58.915 61.0148 57.2136 62.7595 55.077 63.7671C52.9403 64.7746 50.5118 64.9773 48.2377 64.3379C45.9635 63.6985 43.9965 62.26 42.6979 60.2866C41.3994 58.3132 40.8565 55.9375 41.1691 53.596C41.4817 51.2544 42.6287 49.1043 44.3994 47.5406C46.1702 45.977 48.4457 45.1048 50.8079 45.0843C53.1701 45.0639 55.4604 45.8965 57.258 47.4293" stroke="black" stroke-width="2" stroke-linecap="round" stroke-linejoin="round"/>
<path d="M64.6696 49.2865C66.1398 52.6415 66.3059 56.4242 65.1354 59.895C63.9648 63.3659 61.5419 66.2755 58.3402 68.0549C55.1385 69.8343 51.3882 70.3556 47.8226 69.5169C44.2569 68.6782 41.1323 66.5398 39.0595 63.5198C36.9867 60.4997 36.1147 56.8152 36.6142 53.1864C37.1136 49.5577 38.9484 46.2457 41.76 43.8978C44.5716 41.55 48.1577 40.3352 51.8173 40.4909C55.477 40.6466 58.947 42.1616 61.549 44.7398" stroke="black" stroke-width="2" stroke-linecap="round" stroke-linejoin="round"/>
<path d="M68.82 46.8043C70.8803 51.2909 71.1733 56.3894 69.6407 61.0826C68.1081 65.7758 64.8625 69.7187 60.5513 72.1247C56.2401 74.5306 51.1803 75.2228 46.3814 74.0632C41.5824 72.9035 37.397 69.9772 34.6602 65.8681C31.9234 61.759 30.8364 56.7691 31.6159 51.8939C32.3955 47.0188 34.9844 42.6167 38.8661 39.5659C42.7478 36.5152 47.637 35.04 52.5583 35.4346C57.4796 35.8293 62.0712 38.0648 65.4172 41.6952" stroke="black" stroke-width="2" stroke-linecap="round" stroke-linejoin="round"/>
</svg>
