<svg width="104" height="104" viewBox="0 0 104 104" fill="none" xmlns="http://www.w3.org/2000/svg">
<rect width="104" height="104" rx="10" fill="white"/>
<path d="M38.1173 40.5319C34.6438 39.6852 30.9768 40.2302 27.8996 42.0506C24.8225 43.871 22.5791 46.8224 21.6486 50.2745C20.7181 53.7266 21.1742 57.4057 22.9196 60.526C24.665 63.6463 27.5613 65.9604 30.9899 66.9742C34.4184 67.9879 38.1075 67.6209 41.2691 65.9515C44.4307 64.2821 46.8143 61.4426 47.9106 58.0396C49.007 54.6365 48.7294 50.9397 47.1369 47.7386" stroke="black" stroke-width="2" stroke-linecap="round" stroke-linejoin="round"/>
<path d="M44.6502 44.2591C42.1448 41.7085 38.7414 40.2386 35.1669 40.1634C31.5924 40.0882 28.1301 41.4136 25.5197 43.8566C22.9092 46.2996 21.3574 49.6665 21.1958 53.2381C21.0341 56.8097 22.2754 60.303 24.6545 62.9718C27.0336 65.6406 30.362 67.2734 33.9286 67.5214C37.4953 67.7694 41.0176 66.613 43.7432 64.2992C46.4688 61.9853 48.1816 58.6975 48.5158 55.1378" stroke="black" stroke-width="2" stroke-linecap="round" stroke-linejoin="round"/>
<path d="M44.5128 44.5078L33.5552 54.5523" stroke="black" stroke-width="2" stroke-linecap="round" stroke-linejoin="round"/>
<path d="M47.0469 47.7832L28.0762 65.0525" stroke="black" stroke-width="2" stroke-linecap="round" stroke-linejoin="round"/>
<path d="M66.4245 40.5319C62.9509 39.6852 59.2839 40.2302 56.2067 42.0506C53.1296 43.871 50.8862 46.8224 49.9557 50.2745C49.0252 53.7266 49.4814 57.4057 51.2268 60.526C52.9722 63.6463 55.8685 65.9604 59.297 66.9742C62.7256 67.9879 66.4146 67.6209 69.5762 65.9515C72.7378 64.2821 75.1214 61.4426 76.2178 58.0396C77.3142 54.6365 77.0365 50.9397 75.4441 47.7386" stroke="black" stroke-width="2" stroke-linecap="round" stroke-linejoin="round"/>
<path d="M72.9573 44.2591C70.4519 41.7085 67.0485 40.2386 63.474 40.1634C59.8995 40.0882 56.4373 41.4136 53.8268 43.8566C51.2163 46.2996 49.6645 49.6665 49.5029 53.2381C49.3412 56.8097 50.5825 60.303 52.9616 62.9718C55.3408 65.6406 58.6691 67.2734 62.2358 67.5214C65.8024 67.7694 69.3247 66.613 72.0503 64.2992C74.7759 61.9853 76.4887 58.6975 76.8229 55.1378" stroke="black" stroke-width="2" stroke-linecap="round" stroke-linejoin="round"/>
<path d="M72.8199 44.5078L61.8623 54.5523" stroke="black" stroke-width="2" stroke-linecap="round" stroke-linejoin="round"/>
<path d="M75.354 47.7832L56.3833 65.0525" stroke="black" stroke-width="2" stroke-linecap="round" stroke-linejoin="round"/>
</svg>
