<svg width="104" height="104" viewBox="0 0 104 104" fill="none" xmlns="http://www.w3.org/2000/svg">
<rect width="104" height="104" rx="10" fill="white"/>
<path d="M81.1003 32.6367L15.4551 32.6367" stroke="black" stroke-width="2" stroke-linecap="round" stroke-linejoin="round"/>
<path d="M81.1002 35.6607V71.8252C81.1002 74.0343 79.3094 75.8252 77.1002 75.8252H16C13.7909 75.8252 12 74.0343 12 71.8252V28C12 25.7909 13.7909 24 16 24H77.1002C79.3094 24 81.1002 25.7909 81.1002 28V32.6375" stroke="black" stroke-width="2" stroke-linecap="round" stroke-linejoin="round"/>
<circle cx="72.4629" cy="28.3188" r="0.863753" fill="black"/>
<circle cx="67.2807" cy="28.3188" r="0.863753" fill="black"/>
<circle cx="62.0972" cy="28.3188" r="0.863753" fill="black"/>
<path d="M21.0698 41.707H72.895" stroke="black" stroke-width="2" stroke-linecap="round" stroke-linejoin="round"/>
<path d="M21.502 49.9141H73.3271" stroke="black" stroke-width="2" stroke-linecap="round" stroke-linejoin="round"/>
<path d="M21.502 58.5508L56.5353 58.6386" stroke="black" stroke-width="2" stroke-linecap="round" stroke-linejoin="round"/>
<path d="M21.502 67.1875L55.1857 67.1855" stroke="black" stroke-width="2" stroke-linecap="round" stroke-linejoin="round"/>
<path d="M79.1591 36.7058C80.2221 35.435 82.1142 35.2665 83.385 36.3296L88.2902 40.4327C89.561 41.4957 89.7295 43.3877 88.6664 44.6586L70.0941 66.8614C69.8146 67.1955 69.4656 67.4648 69.0715 67.6505L58.8685 72.4569C58.1147 72.812 57.2827 72.1435 57.4672 71.3309L60.0156 60.1056C60.1208 59.6418 60.3349 59.2097 60.64 58.845L79.1591 36.7058Z" fill="white" stroke="black" stroke-width="2"/>
<path d="M83.5245 46.4905L76.7769 40.6426" stroke="black" stroke-width="2" stroke-linecap="round" stroke-linejoin="round"/>
<path d="M69.1906 67.2573L62.0137 61.2539" stroke="black" stroke-width="2" stroke-linecap="round" stroke-linejoin="round"/>
</svg>
