<svg width="104" height="104" viewBox="0 0 104 104" fill="none" xmlns="http://www.w3.org/2000/svg">
<rect width="104" height="104" rx="10" fill="white"/>
<path d="M57.7721 57.69L80.587 74.7192C81.4861 75.3903 82.2516 76.2679 82.4256 77.3764C82.6442 78.7695 82.5387 80.8266 80.7516 82.6324C78.998 84.4044 77.0428 84.6623 75.6983 84.5616C74.5877 84.4785 73.6683 83.7762 72.9446 82.93L63.4261 71.8M53.7754 61.6099L60.8437 68.8815" stroke="black" stroke-width="2" stroke-linecap="round" stroke-linejoin="round"/>
<path d="M43.2962 65.4332C32.6972 66.5668 23.1861 58.8936 22.0525 48.2946C20.9189 37.6957 28.5922 28.1846 39.1911 27.051" stroke="black" stroke-width="2" stroke-linecap="round" stroke-linejoin="round"/>
<path d="M43.2958 65.4348C53.8947 64.3012 61.5679 54.7901 60.4344 44.1911C59.3008 33.5922 49.7897 25.9189 39.1907 27.0525" stroke="black" stroke-width="2" stroke-linecap="round" stroke-linejoin="round"/>
<path d="M42.9047 61.7789C34.3246 62.6966 26.6251 56.4849 25.7075 47.9048C24.7898 39.3247 31.0015 31.6252 39.5816 30.7076" stroke="black" stroke-width="2" stroke-linecap="round" stroke-linejoin="round"/>
<path d="M56.7794 44.5806C57.697 53.1608 51.4854 60.8602 42.9053 61.7779C34.3252 62.6955 26.6257 56.4839 25.7081 47.9038" stroke="black" stroke-width="2" stroke-linecap="round" stroke-linejoin="round"/>
<path d="M42.1328 44.5059L38.5902 51.8859C38.2049 52.6887 38.1376 53.6075 38.4019 54.4578V54.4578C38.5539 54.9468 39.0892 55.2038 39.5658 55.0165L39.9689 54.8581C40.5398 54.6338 41.0083 54.2075 41.2855 53.6603V53.6603M44.9973 45.8809L44.2177 47.3792" stroke="black" stroke-width="2" stroke-linecap="round" stroke-linejoin="round"/>
<path d="M45.0383 45.7967V45.7967C46.4906 46.0351 47.9262 45.2873 48.5631 43.9605L48.7104 43.6534C49.6112 41.777 48.8202 39.5257 46.9438 38.6249L46.5778 38.4493C44.7013 37.5485 42.45 38.3395 41.5493 40.2159L41.4019 40.523C40.765 41.8498 41.0794 43.4377 42.1738 44.4217V44.4217" stroke="black" stroke-width="2" stroke-linecap="round" stroke-linejoin="round"/>
<path d="M42.522 51.0364L42.8657 50.3203" stroke="black" stroke-width="2" stroke-linecap="round" stroke-linejoin="round"/>
</svg>
