<svg width="104" height="104" viewBox="0 0 104 104" fill="none" xmlns="http://www.w3.org/2000/svg">
<rect width="104" height="104" rx="10" fill="white"/>
<path d="M73.5706 55.5125L85.4402 70.8965C86.1256 71.7848 87.0222 72.5668 88.1438 72.604C89.0742 72.6348 90.2539 72.394 91.2968 71.3284C92.3134 70.2898 92.5939 69.165 92.6101 68.2747C92.6304 67.1612 91.8848 66.2436 91.0272 65.5335L83.5163 59.3148M76.2715 52.6694L81.4434 57.5388" stroke="black" stroke-width="2" stroke-linecap="round" stroke-linejoin="round"/>
<path d="M65.3399 57.2229C57.8733 57.2229 51.8203 51.1699 51.8203 43.7032C51.8203 36.2365 57.8733 30.1836 65.3399 30.1836" stroke="black" stroke-width="2" stroke-linecap="round" stroke-linejoin="round"/>
<path d="M65.3412 57.2229C72.8079 57.2229 78.8608 51.1699 78.8608 43.7032C78.8608 36.2365 72.8079 30.1836 65.3412 30.1836" stroke="black" stroke-width="2" stroke-linecap="round" stroke-linejoin="round"/>
<path d="M65.0189 52.8074C59.8114 52.8074 55.5898 48.5858 55.5898 43.3783C55.5898 38.1708 59.8114 33.9492 65.0189 33.9492" stroke="black" stroke-width="2" stroke-linecap="round" stroke-linejoin="round"/>
<path d="M74.448 43.3873C74.448 48.5949 70.2264 52.8164 65.0189 52.8164C59.8114 52.8164 55.5898 48.5949 55.5898 43.3873" stroke="black" stroke-width="2" stroke-linecap="round" stroke-linejoin="round"/>
<path d="M53.9613 28.3968C53.4105 28.8457 52.9536 29.3988 52.6167 30.0244L52.5078 30.2263C52.0761 31.006 51.4207 31.6386 50.6261 32.0425C49.8316 32.4463 48.9343 32.6028 48.0499 32.4919C47.1565 32.4368 46.3004 32.1142 45.5928 31.566C44.8852 31.0179 44.3588 30.2696 44.0822 29.4183L44.0124 29.1852C43.6012 27.8114 42.6611 26.6572 41.3989 25.9766C40.1367 25.2959 38.6558 25.1446 37.2821 25.5558C35.9083 25.967 34.7541 26.9071 34.0734 28.1693C33.3928 29.4315 33.2414 30.9123 33.6526 32.2861L33.7844 32.7264C34.0306 33.5608 34.0273 34.449 33.7751 35.2816C33.523 36.1142 33.0328 36.8549 32.3651 37.4125C31.6871 37.991 30.8513 38.3533 29.9656 38.4524C29.0798 38.5515 28.1847 38.3831 27.3956 37.9687L27.1936 37.8598C26.5684 37.5222 25.8828 37.3111 25.1759 37.2387C24.4691 37.1662 23.7549 37.2338 23.0742 37.4376C22.3934 37.6413 21.7595 37.9772 21.2087 38.4261C20.6579 38.875 20.201 39.4281 19.8641 40.0537C19.5265 40.6789 19.3154 41.3646 19.243 42.0714C19.1705 42.7783 19.2381 43.4925 19.4419 44.1732C19.6456 44.8539 19.9816 45.4878 20.4304 46.0386C20.8793 46.5894 21.4324 47.0463 22.058 47.3832L22.2599 47.4921C23.0397 47.9238 23.6723 48.5792 24.0761 49.3737C24.4799 50.1683 24.6365 51.0656 24.5255 51.95C24.4704 52.8434 24.1478 53.6995 23.5997 54.4071C23.0516 55.1147 22.3032 55.6411 21.4519 55.9177L21.2189 55.9875C19.8451 56.3987 18.6909 57.3388 18.0103 58.601C17.3296 59.8632 17.1782 61.344 17.5894 62.7178C18.0006 64.0916 18.9408 65.2458 20.2029 65.9264C21.4651 66.6071 22.946 66.7585 24.3198 66.3473L24.7601 66.2155C25.5945 65.9693 26.4826 65.9726 27.3152 66.2247C28.1478 66.4769 28.8885 66.9671 29.4461 67.6348C30.0247 68.3128 30.3869 69.1485 30.4861 70.0343C30.5852 70.9201 30.4167 71.8152 30.0023 72.6043L29.8935 72.8062C29.5559 73.4315 29.3448 74.1171 29.2723 74.824C29.1999 75.5308 29.2675 76.245 29.4712 76.9257C29.675 77.6065 30.0109 78.2403 30.4598 78.7912C30.9087 79.342 31.4618 79.7989 32.0874 80.1358C32.7126 80.4734 33.3982 80.6845 34.1051 80.7569C34.8119 80.8294 35.5261 80.7618 36.2069 80.558C36.8876 80.3543 37.5215 80.0183 38.0723 79.5695C38.6231 79.1206 39.08 78.5675 39.4169 77.9419L39.5258 77.74C39.9575 76.9602 40.6128 76.3276 41.4074 75.9238C42.202 75.52 43.0993 75.3634 43.9836 75.4744C44.8479 75.5734 45.6644 75.923 46.3326 76.4801C47.0007 77.0372 47.4914 77.7776 47.7442 78.61L47.814 78.8431C48.2252 80.2168 49.1653 81.371 50.4274 82.0517C51.6896 82.7323 53.1705 82.8837 54.5443 82.4725C55.9181 82.0613 57.0723 81.1212 57.7529 79.859C58.4336 78.5968 58.5849 77.1159 58.1737 75.7421L58.0419 75.3019C57.7958 74.4674 57.799 73.5793 58.0512 72.7467C58.3034 71.9141 58.7935 71.1734 59.4613 70.6158L59.6685 70.5538C60.3464 69.9752 61.1822 69.613 62.068 69.5138C62.9537 69.4147 63.8489 69.5832 64.638 69.9976L64.8399 70.1064C65.4651 70.444 66.1508 70.6551 66.8576 70.7276C67.5645 70.8 68.2787 70.7324 68.9594 70.5287C69.6401 70.3249 70.274 69.989 70.8248 69.5401C71.3756 69.0912 71.8325 68.5381 72.1694 67.9125C72.507 67.2873 72.7181 66.6017 72.7906 65.8948C72.863 65.188 72.7954 64.4738 72.5917 63.793C72.3879 63.1123 72.052 62.4784 71.6031 61.9276" stroke="black" stroke-width="2" stroke-linecap="round" stroke-linejoin="round"/>
<path d="M54.0627 57.7518C49.0118 65.959 39.9898 62.2226 37.9187 57.7519C35.8475 53.2811 37.9187 44.6326 47.3283 44.6331" stroke="black" stroke-width="2" stroke-linecap="round" stroke-linejoin="round"/>
</svg>
