<svg width="104" height="104" viewBox="0 0 104 104" fill="none" xmlns="http://www.w3.org/2000/svg">
<rect width="104" height="104" rx="10" fill="white"/>
<path d="M68.7143 78.5714V84C68.7143 86.2091 66.9234 88 64.7143 88H35C32.7909 88 31 86.2091 31 84V26C31 23.7909 32.7909 22 35 22H64.7143C66.9234 22 68.7143 23.7909 68.7143 26V47.9286" stroke="black" stroke-width="2" stroke-linecap="round" stroke-linejoin="round"/>
<path d="M31 29.543H68.7143" stroke="black" stroke-width="2" stroke-linecap="round"/>
<path d="M47.0286 24.7715C46.4763 24.7715 46.0286 25.2192 46.0286 25.7715C46.0286 26.3238 46.4763 26.7715 47.0286 26.7715V24.7715ZM52.6857 26.7715C53.238 26.7715 53.6857 26.3238 53.6857 25.7715C53.6857 25.2192 53.238 24.7715 52.6857 24.7715V26.7715ZM47.0286 26.7715H52.6857V24.7715H47.0286V26.7715Z" fill="black"/>
<path d="M34.7715 78.5723L68.7144 78.5723" stroke="black" stroke-width="2" stroke-linecap="round"/>
<circle cx="49.8572" cy="82.3427" r="1.88571" fill="black"/>
<path d="M66.3722 70.9167L76.7928 83.8324C77.835 85.1242 79.7572 85.2531 80.9626 84.1121V84.1121C82.1574 82.981 82.1465 81.0753 80.9389 79.9579L74.8308 74.3066M68.5696 68.4225L72.7521 72.4755" stroke="black" stroke-width="2" stroke-linecap="round" stroke-linejoin="round"/>
<path d="M66.372 70.9178C63.8884 72.4013 60.0721 73.2374 57.2321 72.686C54.3922 72.1345 51.8554 70.555 50.1074 68.2498C48.3594 65.9445 47.5231 63.0756 47.7585 60.1922C47.9939 57.3088 49.2845 54.6135 51.3833 52.6223C53.482 50.6312 56.2414 49.484 59.1332 49.4005C62.025 49.317 64.846 50.303 67.0562 52.1698C69.2663 54.0365 70.7103 56.6528 71.1117 59.5179C71.5131 62.3829 70.1814 66.0211 68.5693 68.4233" stroke="black" stroke-width="2" stroke-linecap="round" stroke-linejoin="round"/>
<path d="M51.5786 64.5801C50.8239 62.3854 50.9052 59.9896 51.8069 57.8511C52.7086 55.7127 54.4752 53.9108 56.5734 52.9191" stroke="black" stroke-width="2" stroke-linecap="round" stroke-linejoin="round"/>
<path d="M60.0264 58.5918L56.9897 64.918C56.6594 65.6061 56.6017 66.3937 56.8282 67.1225V67.1225C56.9585 67.5417 57.4174 67.762 57.826 67.6015L58.1715 67.4657C58.6608 67.2734 59.0625 66.908 59.3001 66.439V66.439M62.4818 59.7704L61.8136 61.0549" stroke="black" stroke-width="2" stroke-linecap="round" stroke-linejoin="round"/>
<path d="M62.5171 59.6962V59.6962C63.762 59.9006 64.9926 59.2595 65.5385 58.1222L65.6648 57.859C66.4369 56.2505 65.7589 54.3207 64.1504 53.5486L63.8367 53.398C62.2282 52.6259 60.2984 53.3039 59.5263 54.9124L59.4 55.1756C58.854 56.3129 59.1235 57.674 60.0617 58.5175V58.5175" stroke="black" stroke-width="2" stroke-linecap="round" stroke-linejoin="round"/>
<path d="M60.3596 64.19L60.6543 63.5762" stroke="black" stroke-width="2" stroke-linecap="round" stroke-linejoin="round"/>
</svg>
