<svg width="1067" height="700" viewBox="0 0 1067 700" fill="none" xmlns="http://www.w3.org/2000/svg">
<path d="M302.227 399.451H300.256V398.148H300.908V397.496H302.227V399.451Z" fill="#EBEBEB"/>
<path d="M297.649 399.451H295.042V398.147H297.649V399.451ZM292.435 399.451H289.828V398.147H292.435V399.451ZM287.205 399.451H284.598V398.147H287.205V399.451ZM281.991 399.451H279.384V398.147H281.991V399.451ZM276.777 399.451H274.154V398.147H276.777V399.451ZM271.547 399.451H268.94V398.147H271.547V399.451ZM266.333 399.451H263.726V398.147H266.333V399.451ZM261.103 399.451H258.496V398.147H261.103V399.451ZM255.889 399.451H253.282V398.147H255.889V399.451ZM250.675 399.451H248.051V398.147H250.675V399.451ZM245.444 399.451H242.838V398.147H245.444V399.451ZM240.231 399.451H237.624V398.147H240.231V399.451ZM235 399.451H232.393V398.147H235V399.451ZM229.786 399.451H227.18V398.147H229.786V399.451ZM224.573 399.451H221.949V398.147H224.573V399.451ZM219.342 399.451H216.735V398.147H219.342V399.451ZM214.128 399.451H211.521V398.147H214.128V399.451Z" fill="#EBEBEB"/>
<path d="M208.898 399.451H206.943V397.496H208.246V398.148H208.898V399.451Z" fill="#EBEBEB"/>
<path d="M208.246 394.889H206.943V392.282H208.246V394.889ZM208.246 389.658H206.943V387.052H208.246V389.658ZM208.246 384.445H206.943V381.838H208.246V384.445ZM208.246 379.231H206.943V376.607H208.246V379.231ZM208.246 374H206.943V371.393H208.246V374ZM208.246 368.787H206.943V366.18H208.246V368.787ZM208.246 363.556H206.943V360.949H208.246V363.556ZM208.246 358.342H206.943V355.735H208.246V358.342ZM208.246 353.129H206.943V350.505H208.246V353.129ZM208.246 347.898H206.943V345.291H208.246V347.898ZM208.246 342.684H206.943V340.077H208.246V342.684ZM208.246 337.454H206.943V334.847H208.246V337.454ZM208.246 332.24H206.943V329.633H208.246V332.24ZM208.246 327.026H206.943V324.403H208.246V327.026ZM208.246 321.796H206.943V319.189H208.246V321.796ZM208.246 316.582H206.943V313.91H208.246V316.582ZM208.246 311.352H206.943V308.745H208.246V311.352Z" fill="#EBEBEB"/>
<path d="M208.246 306.139H206.943V304.184H208.898V305.487H208.246V306.139Z" fill="#EBEBEB"/>
<path d="M297.649 305.486H295.042V304.134H297.649V305.486ZM292.435 305.486H289.828V304.134H292.435V305.486ZM287.205 305.486H284.598V304.134H287.205V305.486ZM281.991 305.486H279.384V304.134H281.991V305.486ZM276.777 305.486H274.154V304.134H276.777V305.486ZM271.547 305.486H268.94V304.134H271.547V305.486ZM266.333 305.486H263.726V304.134H266.333V305.486ZM261.103 305.486H258.496V304.134H261.103V305.486ZM255.889 305.486H253.282V304.134H255.889V305.486ZM250.675 305.486H248.051V304.134H250.675V305.486ZM245.444 305.486H242.838V304.134H245.444V305.486ZM240.231 305.486H237.624V304.134H240.231V305.486ZM235 305.486H232.393V304.134H235V305.486ZM229.786 305.486H227.18V304.134H229.786V305.486ZM224.573 305.486H221.949V304.134H224.573V305.486ZM219.342 305.486H216.735V304.134H219.342V305.486ZM214.128 305.486H211.521V304.134H214.128V305.486Z" fill="#EBEBEB"/>
<path d="M302.227 306.139H300.908V305.487H300.256V304.184H302.227V306.139Z" fill="#EBEBEB"/>
<path d="M302.227 394.889H300.907V392.282H302.227V394.889ZM302.227 389.658H300.907V387.052H302.227V389.658ZM302.227 384.445H300.907V381.838H302.227V384.445ZM302.227 379.231H300.907V376.607H302.227V379.231ZM302.227 374H300.907V371.393H302.227V374ZM302.227 368.787H300.907V366.18H302.227V368.787ZM302.227 363.556H300.907V360.949H302.227V363.556ZM302.227 358.342H300.907V355.735H302.227V358.342ZM302.227 353.129H300.907V350.505H302.227V353.129ZM302.227 347.898H300.907V345.291H302.227V347.898ZM302.227 342.684H300.907V340.077H302.227V342.684ZM302.227 337.454H300.907V334.847H302.227V337.454ZM302.227 332.24H300.907V329.633H302.227V332.24ZM302.227 327.026H300.907V324.403H302.227V327.026ZM302.227 321.796H300.907V319.189H302.227V321.796ZM302.227 316.582H300.907V313.91H302.227V316.582ZM302.227 311.368H300.907V308.745H302.227V311.368Z" fill="#EBEBEB"/>
<path d="M213.46 392.95H201.745V404.665H213.46V392.95Z" fill="white"/>
<path d="M214.047 405.3H201.012V392.266H214.047V405.3ZM202.332 403.997H212.743V393.602H202.332V403.997Z" fill="#EBEBEB"/>
<path d="M213.509 345.959H201.794V357.674H213.509V345.959Z" fill="white"/>
<path d="M214.047 358.326H201.012V345.291H214.047V358.326ZM202.332 357.022H212.743V346.611H202.332V357.022Z" fill="#EBEBEB"/>
<path d="M213.509 298.985H201.794V310.7H213.509V298.985Z" fill="white"/>
<path d="M214.047 311.336H201.012V298.301H214.047V311.336ZM202.332 310.032H212.743V299.637H202.332V310.032Z" fill="#EBEBEB"/>
<path d="M307.474 392.95H295.759V404.665H307.474V392.95Z" fill="white"/>
<path d="M308.077 405.3H295.042V392.266H308.077V405.3ZM296.362 403.997H306.773V393.602H296.362V403.997Z" fill="#EBEBEB"/>
<path d="M307.474 345.959H295.759V357.674H307.474V345.959Z" fill="white"/>
<path d="M308.077 358.326H295.042V345.291H308.077V358.326ZM296.362 357.022H306.773V346.611H296.362V357.022Z" fill="#EBEBEB"/>
<path d="M307.474 298.985H295.759V310.7H307.474V298.985Z" fill="white"/>
<path d="M308.077 311.336H295.042V298.301H308.077V311.336ZM296.362 310.032H306.773V299.637H296.362V310.032Z" fill="#EBEBEB"/>
<path d="M260.5 298.985H248.785V310.7H260.5V298.985Z" fill="white"/>
<path d="M261.087 311.336H248.052V298.301H261.087V311.336ZM249.388 310.032H259.783V299.637H249.388V310.032Z" fill="#EBEBEB"/>
<path d="M260.451 392.95H248.736V404.665H260.451V392.95Z" fill="white"/>
<path d="M261.087 405.3H248.052V392.266H261.087V405.3ZM249.388 403.997H259.783V393.602H249.388V403.997Z" fill="#EBEBEB"/>
<path d="M865.052 199.595H863.097V198.275H863.749V197.623H865.052V199.595Z" fill="#EBEBEB"/>
<path d="M860.49 199.594H857.867V198.226H860.49V199.594ZM855.26 199.594H852.653V198.226H855.26V199.594ZM850.046 199.594H847.439V198.226H850.046V199.594ZM844.816 199.594H842.209V198.226H844.816V199.594ZM839.602 199.594H836.995V198.226H839.602V199.594ZM834.388 199.594H831.765V198.226H834.388V199.594ZM829.158 199.594H826.551V198.226H829.158V199.594ZM823.944 199.594H821.337V198.226H823.944V199.594ZM818.714 199.594H816.107V198.226H818.714V199.594ZM813.5 199.594H810.893V198.226H813.5V199.594ZM808.286 199.594H805.663V198.226H808.286V199.594ZM803.056 199.594H800.449V198.226H803.056V199.594ZM797.842 199.594H795.235V198.226H797.842V199.594ZM792.612 199.594H790.005V198.226H792.612V199.594ZM787.398 199.594H784.791V198.226H787.398V199.594ZM782.184 199.594H779.561V198.226H782.184V199.594ZM776.954 199.594H774.347V198.226H776.954V199.594Z" fill="#EBEBEB"/>
<path d="M771.74 199.595H769.785V197.623H771.088V198.275H771.74V199.595Z" fill="#EBEBEB"/>
<path d="M771.088 194.967H769.785V192.36H771.088V194.967ZM771.088 189.753H769.785V187.146H771.088V189.753ZM771.088 184.523H769.785V181.932H771.088V184.523ZM771.088 179.309H769.785V176.702H771.088V179.309ZM771.088 174.095H769.785V171.472H771.088V174.095ZM771.088 168.865H769.785V166.258H771.088V168.865ZM771.088 163.651H769.785V161.044H771.088V163.651ZM771.088 158.421H769.785V155.863H771.088V158.421ZM771.088 153.207H769.785V150.6H771.088V153.207ZM771.088 147.993H769.785V145.37H771.088V147.993ZM771.088 142.763H769.785V140.156H771.088V142.763ZM771.088 137.549H769.785V134.942H771.088V137.549ZM771.088 132.335H769.785V129.793H771.088V132.335ZM771.088 127.105H769.785V124.498H771.088V127.105ZM771.088 121.891H769.785V119.284H771.088V121.891ZM771.088 116.661H769.785V114.054H771.088V116.661ZM771.088 111.447H769.785V108.84H771.088V111.447Z" fill="#EBEBEB"/>
<path d="M771.088 106.283H769.785V104.312H771.74V105.631H771.088V106.283Z" fill="#EBEBEB"/>
<path d="M860.49 105.615H857.867V104.312H860.49V105.615ZM855.26 105.615H852.653V104.312H855.26V105.615ZM850.046 105.615H847.439V104.312H850.046V105.615ZM844.816 105.615H842.209V104.312H844.816V105.615ZM839.602 105.615H836.995V104.312H839.602V105.615ZM834.388 105.615H831.765V104.312H834.388V105.615ZM829.158 105.615H826.551V104.312H829.158V105.615ZM823.944 105.615H821.337V104.312H823.944V105.615ZM818.714 105.615H816.107V104.312H818.714V105.615ZM813.5 105.615H810.893V104.312H813.5V105.615ZM808.286 105.615H805.663V104.312H808.286V105.615ZM803.056 105.615H800.449V104.312H803.056V105.615ZM797.842 105.615H795.235V104.312H797.842V105.615ZM792.612 105.615H790.005V104.312H792.612V105.615ZM787.398 105.615H784.791V104.312H787.398V105.615ZM782.184 105.615H779.561V104.312H782.184V105.615ZM776.954 105.615H774.347V104.312H776.954V105.615Z" fill="#EBEBEB"/>
<path d="M865.052 106.283H863.749V105.631H863.097V104.312H865.052V106.283Z" fill="#EBEBEB"/>
<path d="M865.052 194.967H863.749V192.36H865.052V194.967ZM865.052 189.753H863.749V187.146H865.052V189.753ZM865.052 184.523H863.749V181.932H865.052V184.523ZM865.052 179.309H863.749V176.702H865.052V179.309ZM865.052 174.095H863.749V171.472H865.052V174.095ZM865.052 168.865H863.749V166.258H865.052V168.865ZM865.052 163.651H863.749V161.044H865.052V163.651ZM865.052 158.421H863.749V155.863H865.052V158.421ZM865.052 153.207H863.749V150.6H865.052V153.207ZM865.052 147.993H863.749V145.37H865.052V147.993ZM865.052 142.763H863.749V140.156H865.052V142.763ZM865.052 137.549H863.749V134.942H865.052V137.549ZM865.052 132.335H863.749V129.793H865.052V132.335ZM865.052 127.105H863.749V124.498H865.052V127.105ZM865.052 121.891H863.749V119.284H865.052V121.891ZM865.052 116.661H863.749V114.054H865.052V116.661ZM865.052 111.447H863.749V108.84H865.052V111.447Z" fill="#EBEBEB"/>
<path d="M776.286 193.078H764.571V204.793H776.286V193.078Z" fill="white"/>
<path d="M776.937 205.444H763.903V192.409H776.937V205.444ZM765.222 204.14H775.634V193.729H765.222V204.14Z" fill="#EBEBEB"/>
<path d="M776.334 146.104H764.619V157.819H776.334V146.104Z" fill="white"/>
<path d="M776.937 158.454H763.903V145.419H776.937V158.454ZM765.222 157.15H775.634V146.755H765.222V157.15Z" fill="#EBEBEB"/>
<path d="M776.334 99.1133H764.619V110.828H776.334V99.1133Z" fill="white"/>
<path d="M776.937 111.48H763.903V98.4453H776.937V111.48ZM765.222 110.177H775.634V99.7651H765.222V110.177Z" fill="#EBEBEB"/>
<path d="M870.315 193.078H858.6V204.793H870.315V193.078Z" fill="white"/>
<path d="M870.902 205.444H857.867V192.409H870.902V205.444ZM859.203 204.14H869.598V193.729H859.268L859.203 204.14Z" fill="#EBEBEB"/>
<path d="M870.315 146.104H858.6V157.819H870.315V146.104Z" fill="white"/>
<path d="M870.902 158.454H857.867V145.419H870.902V158.454ZM859.203 157.15H869.598V146.755H859.268L859.203 157.15Z" fill="#EBEBEB"/>
<path d="M870.315 99.1133H858.6V110.828H870.315V99.1133Z" fill="white"/>
<path d="M870.902 111.48H857.867V98.4453H870.902V111.48ZM859.268 110.242H869.663V99.8303H859.268V110.242Z" fill="#EBEBEB"/>
<path d="M823.325 99.1133H811.61V110.828H823.325V99.1133Z" fill="white"/>
<path d="M823.928 111.48H810.893V98.4453H823.928V111.48ZM812.213 110.177H822.624V99.7651H812.213V110.177Z" fill="#EBEBEB"/>
<path d="M823.276 193.078H811.561V204.793H823.276V193.078Z" fill="white"/>
<path d="M823.928 205.444H810.893V192.409H823.928V205.444ZM812.213 204.14H822.624V193.729H812.213V204.14Z" fill="#EBEBEB"/>
<path d="M267.816 169.045H61.4753V27.8789H267.816V169.045ZM63.1047 167.416H266.186V29.5083H63.1047V167.416Z" fill="#EBEBEB"/>
<path d="M77.6057 36.9204C77.6057 37.7325 77.3649 38.5263 76.9137 39.2016C76.4626 39.8768 75.8213 40.403 75.071 40.7138C74.3208 41.0246 73.4952 41.1059 72.6987 40.9475C71.9023 40.789 71.1706 40.398 70.5964 39.8238C70.0222 39.2495 69.6311 38.5179 69.4727 37.7214C69.3143 36.925 69.3956 36.0994 69.7064 35.3491C70.0171 34.5989 70.5434 33.9576 71.2186 33.5064C71.8938 33.0553 72.6877 32.8145 73.4998 32.8145C74.5887 32.8145 75.6331 33.247 76.4031 34.0171C77.1731 34.7871 77.6057 35.8314 77.6057 36.9204Z" fill="#A6A6A6"/>
<path d="M94.3718 36.9207C94.3814 37.7327 94.15 38.5293 93.7069 39.2098C93.2638 39.8903 92.6288 40.4241 91.8823 40.7437C91.1358 41.0634 90.3113 41.1545 89.513 41.0055C88.7147 40.8566 87.9785 40.4743 87.3975 39.9069C86.8165 39.3396 86.4168 38.6127 86.2489 37.8182C86.081 37.0237 86.1524 36.1973 86.4542 35.4434C86.756 34.6895 87.2745 34.042 87.9443 33.5828C88.6141 33.1236 89.4049 32.8733 90.2169 32.8636C90.7562 32.8571 91.2914 32.9569 91.792 33.1573C92.2926 33.3577 92.7489 33.6548 93.1347 34.0315C93.5205 34.4083 93.8283 34.8573 94.0406 35.353C94.2529 35.8488 94.3654 36.3814 94.3718 36.9207Z" fill="#EBEBEB"/>
<path d="M111.154 36.9204C111.157 37.7371 110.918 38.5364 110.466 39.2167C110.014 39.8971 109.371 40.428 108.617 40.742C107.863 41.0561 107.033 41.1391 106.231 40.9805C105.43 40.822 104.694 40.4291 104.117 39.8516C103.539 39.2741 103.146 38.5381 102.988 37.7369C102.829 36.9358 102.912 36.1056 103.226 35.3517C103.54 34.5978 104.071 33.9541 104.752 33.5024C105.432 33.0507 106.231 32.8113 107.048 32.8145C108.137 32.8145 109.181 33.2471 109.951 34.0171C110.721 34.7871 111.154 35.8315 111.154 36.9204Z" fill="#1047F7"/>
<path d="M267.001 44.2041H62.2899V45.8334H267.001V44.2041Z" fill="#EBEBEB"/>
<path d="M215.481 269.396C216.033 269.053 216.671 268.871 217.322 268.871C217.973 268.871 218.611 269.053 219.163 269.396L220.092 269.918L221.069 270.423C221.657 270.689 222.159 271.113 222.519 271.649C222.878 272.184 223.082 272.809 223.106 273.453L223.253 277.95L237.917 277.494L237.77 272.997C237.755 272.349 237.919 271.71 238.244 271.149C238.568 270.589 239.042 270.129 239.611 269.82C240.257 269.475 240.882 269.094 241.485 268.679C242.01 268.303 242.63 268.08 243.275 268.037C243.92 267.994 244.564 268.132 245.135 268.435L249.094 270.569L256.052 257.535L252.076 255.417C251.511 255.104 251.042 254.643 250.72 254.083C250.398 253.523 250.236 252.885 250.251 252.239C250.292 251.512 250.292 250.783 250.251 250.056C250.196 249.415 250.319 248.772 250.606 248.197C250.894 247.622 251.335 247.137 251.88 246.797L255.709 244.418L247.97 231.938L244.108 234.316C243.56 234.655 242.928 234.835 242.284 234.835C241.639 234.835 241.007 234.655 240.459 234.316L239.53 233.795C239.204 233.621 238.878 233.458 238.552 233.306C237.965 233.036 237.463 232.608 237.104 232.07C236.744 231.533 236.541 230.906 236.516 230.259L236.369 225.746L221.705 226.202L221.835 230.699C221.872 231.362 221.718 232.021 221.392 232.598C221.065 233.176 220.58 233.648 219.994 233.958C219.353 234.307 218.732 234.693 218.137 235.115C217.608 235.485 216.988 235.703 216.344 235.743C215.7 235.783 215.057 235.645 214.487 235.343L210.511 233.225L203.57 246.26L207.53 248.378C208.109 248.695 208.587 249.169 208.91 249.745C209.233 250.321 209.387 250.977 209.354 251.636C209.314 252.369 209.314 253.103 209.354 253.836C209.41 254.477 209.287 255.12 208.999 255.695C208.712 256.27 208.271 256.755 207.725 257.095L203.896 259.457L211.636 271.954L215.481 269.396ZM219.163 246.194C220.291 244.096 222.015 242.378 224.119 241.26C226.223 240.142 228.611 239.673 230.981 239.912C233.352 240.152 235.598 241.089 237.435 242.606C239.273 244.122 240.619 246.15 241.304 248.432C241.988 250.714 241.981 253.148 241.281 255.426C240.582 257.703 239.223 259.722 237.376 261.227C235.529 262.732 233.277 263.655 230.905 263.879C228.533 264.104 226.148 263.62 224.051 262.488C221.245 260.973 219.154 258.407 218.238 255.352C217.321 252.297 217.654 249.004 219.163 246.194Z" fill="#EBEBEB"/>
<path d="M253.054 213.184C253.279 212.791 253.612 212.469 254.012 212.255C254.413 212.042 254.866 211.946 255.318 211.979H256.85C257.3 211.95 257.75 212.046 258.149 212.256C258.549 212.466 258.883 212.781 259.115 213.168L260.744 215.905L269.673 210.773L268.044 208.036C267.819 207.64 267.708 207.189 267.726 206.734C267.743 206.28 267.887 205.839 268.141 205.461C268.419 205.029 268.675 204.583 268.907 204.125C269.11 203.723 269.419 203.384 269.801 203.146C270.183 202.907 270.624 202.778 271.074 202.773H274.235V192.475H271.074C270.623 192.472 270.182 192.343 269.8 192.105C269.417 191.866 269.108 191.526 268.907 191.123C268.663 190.667 268.418 190.227 268.141 189.803C267.887 189.426 267.743 188.985 267.726 188.53C267.708 188.075 267.819 187.624 268.044 187.229L269.673 184.492L260.744 179.343L259.115 182.096C258.885 182.486 258.552 182.803 258.152 183.014C257.752 183.224 257.301 183.318 256.85 183.286H255.335C254.884 183.318 254.433 183.224 254.033 183.014C253.633 182.803 253.299 182.486 253.07 182.096L251.441 179.343L242.512 184.492L244.141 187.229C244.369 187.62 244.482 188.067 244.468 188.52C244.453 188.972 244.312 189.411 244.06 189.787C243.783 190.227 243.522 190.667 243.294 191.123C243.091 191.529 242.78 191.87 242.394 192.109C242.008 192.348 241.564 192.475 241.11 192.475H237.966V202.773H241.11C241.565 202.777 242.01 202.907 242.396 203.148C242.781 203.39 243.092 203.734 243.294 204.141C243.523 204.596 243.779 205.036 244.06 205.461C244.311 205.84 244.453 206.282 244.467 206.737C244.481 207.192 244.368 207.641 244.141 208.036L242.512 210.773L251.441 215.905L253.054 213.184ZM247.644 197.64C247.641 195.97 248.133 194.337 249.059 192.947C249.984 191.557 251.301 190.472 252.843 189.831C254.385 189.19 256.082 189.02 257.721 189.344C259.359 189.668 260.864 190.471 262.046 191.65C263.228 192.83 264.034 194.334 264.361 195.971C264.688 197.609 264.522 199.307 263.883 200.85C263.245 202.393 262.163 203.712 260.775 204.641C259.387 205.569 257.754 206.064 256.084 206.064C253.849 206.064 251.704 205.177 250.122 203.598C248.54 202.019 247.648 199.876 247.644 197.64Z" fill="#EBEBEB"/>
<path d="M839.716 487.044C839.322 486.814 839.001 486.479 838.787 486.076C838.574 485.673 838.478 485.218 838.51 484.763C838.51 484.519 838.51 484.274 838.51 484.014C838.51 483.753 838.51 483.508 838.51 483.248C838.478 482.797 838.572 482.346 838.782 481.946C838.993 481.546 839.31 481.212 839.7 480.983L842.437 479.354L837.304 470.441L834.567 472.07C834.17 472.292 833.72 472.4 833.266 472.383C832.812 472.365 832.372 472.224 831.993 471.973C831.564 471.689 831.118 471.433 830.657 471.207C830.253 471.001 829.914 470.689 829.675 470.304C829.437 469.919 829.309 469.476 829.304 469.024V465.879H819.023V469.024C819.023 469.477 818.896 469.922 818.657 470.307C818.418 470.693 818.077 471.004 817.671 471.207C817.216 471.437 816.776 471.692 816.351 471.973C815.972 472.224 815.532 472.365 815.078 472.383C814.624 472.4 814.173 472.292 813.777 472.07L811.039 470.441L805.891 479.354L808.644 480.983C809.031 481.211 809.347 481.542 809.557 481.939C809.767 482.336 809.863 482.783 809.834 483.231C809.834 483.492 809.834 483.737 809.834 483.997C809.834 484.258 809.834 484.502 809.834 484.747C809.863 485.199 809.768 485.652 809.558 486.054C809.349 486.456 809.032 486.793 808.644 487.028L805.891 488.657L811.039 497.57L813.777 495.94C814.17 495.719 814.618 495.61 815.07 495.628C815.521 495.645 815.959 495.787 816.335 496.038C816.775 496.315 817.215 496.576 817.671 496.804C818.077 497.007 818.418 497.318 818.657 497.704C818.896 498.089 819.023 498.534 819.023 498.987V502.132H829.321V499.004C829.325 498.549 829.455 498.104 829.696 497.718C829.938 497.333 830.282 497.022 830.689 496.82C831.144 496.591 831.584 496.335 832.009 496.054C832.388 495.804 832.828 495.662 833.283 495.644C833.737 495.627 834.187 495.735 834.583 495.957L837.321 497.586L842.453 488.673L839.716 487.044ZM824.172 492.454C822.502 492.457 820.869 491.965 819.478 491.039C818.088 490.114 817.004 488.797 816.363 487.255C815.721 485.713 815.552 484.015 815.876 482.377C816.2 480.739 817.002 479.233 818.182 478.051C819.362 476.869 820.865 476.064 822.503 475.737C824.141 475.41 825.839 475.576 827.382 476.214C828.925 476.853 830.244 477.935 831.172 479.323C832.1 480.711 832.596 482.344 832.596 484.014C832.596 486.246 831.711 488.388 830.135 489.97C828.559 491.552 826.421 492.445 824.188 492.454H824.172Z" fill="#EBEBEB"/>
<path d="M79.1699 364.257C80.129 363.662 81.235 363.347 82.3634 363.347C83.4918 363.347 84.5978 363.662 85.5569 364.257C86.0946 364.583 86.6486 364.892 87.1863 365.186C87.724 365.479 88.3105 365.772 88.8156 366.049C89.8377 366.515 90.7107 367.255 91.3377 368.187C91.9647 369.119 92.3212 370.206 92.3676 371.328L92.612 379.198L118.225 378.4L117.981 370.481C117.962 369.356 118.257 368.248 118.833 367.281C119.408 366.314 120.242 365.526 121.24 365.006C122.36 364.408 123.448 363.75 124.498 363.035C125.424 362.377 126.513 361.987 127.646 361.91C128.779 361.832 129.911 362.069 130.918 362.595L137.826 366.31L149.949 343.711L143.04 339.98C142.045 339.434 141.221 338.622 140.66 337.636C140.099 336.649 139.823 335.525 139.863 334.391C139.863 333.136 139.863 331.898 139.733 330.66C139.619 329.541 139.817 328.413 140.306 327.4C140.795 326.388 141.556 325.531 142.503 324.924L149.232 320.753L135.725 298.969L129.012 303.14C128.065 303.719 126.977 304.025 125.867 304.025C124.757 304.025 123.669 303.719 122.722 303.14C122.168 302.798 121.582 302.472 120.995 302.146L119.219 301.25C118.212 300.783 117.354 300.045 116.741 299.118C116.128 298.192 115.785 297.114 115.749 296.004L115.504 288.134L89.8747 288.916L90.1354 296.769C90.1723 297.878 89.901 298.975 89.3516 299.939C88.8022 300.902 87.9962 301.695 87.0233 302.228C85.8291 302.882 84.6706 303.6 83.5528 304.378C82.6459 305.014 81.5791 305.383 80.4734 305.443C79.3676 305.504 78.267 305.253 77.2961 304.721L70.3714 301.022L58.2654 323.686L65.1738 327.385C66.1856 327.922 67.027 328.732 67.6029 329.722C68.1787 330.713 68.4661 331.845 68.4325 332.99C68.4105 334.235 68.4541 335.48 68.5628 336.721C68.6753 337.841 68.4743 338.971 67.9823 339.983C67.4903 340.996 66.7267 341.852 65.7767 342.456L59.0638 346.611L72.571 368.395L79.1699 364.257ZM84.449 326.293C85.9936 322.184 88.7872 318.661 92.4371 316.222C96.087 313.782 100.41 312.547 104.797 312.691C109.185 312.835 113.418 314.351 116.9 317.025C120.382 319.699 122.938 323.396 124.21 327.598C125.482 331.8 125.405 336.295 123.99 340.451C122.575 344.607 119.894 348.215 116.322 350.768C112.751 353.321 108.469 354.691 104.079 354.685C99.6883 354.678 95.4104 353.297 91.8462 350.733C88.1011 348.037 85.3476 344.182 84.0108 339.765C82.6739 335.348 82.8279 330.614 84.449 326.293Z" fill="#EBEBEB"/>
<path d="M154.934 283.425C155.335 282.744 155.918 282.188 156.618 281.82C157.317 281.451 158.105 281.285 158.894 281.34H160.23H161.55C162.336 281.289 163.121 281.455 163.819 281.82C164.517 282.185 165.102 282.735 165.509 283.409L168.263 288.199L183.823 279.222L181.069 274.448C180.676 273.761 180.481 272.978 180.507 272.187C180.533 271.395 180.778 270.627 181.216 269.967C181.707 269.22 182.159 268.448 182.568 267.653C182.916 266.947 183.455 266.352 184.122 265.935C184.79 265.517 185.561 265.294 186.348 265.291H191.855V247.368H186.348C185.561 247.364 184.79 247.141 184.122 246.724C183.455 246.307 182.916 245.712 182.568 245.005C182.159 244.211 181.707 243.438 181.216 242.692C180.778 242.032 180.533 241.263 180.507 240.472C180.481 239.681 180.676 238.898 181.069 238.211L183.823 233.437L168.263 224.459L165.493 229.184C165.092 229.862 164.511 230.415 163.815 230.783C163.119 231.151 162.335 231.32 161.55 231.27H160.23H158.894C158.106 231.321 157.319 231.153 156.62 230.785C155.922 230.417 155.338 229.863 154.934 229.184L152.132 224.427L136.588 233.404L139.342 238.162C139.729 238.852 139.919 239.635 139.89 240.425C139.861 241.216 139.615 241.983 139.179 242.643C138.689 243.393 138.243 244.171 137.843 244.973C137.489 245.678 136.947 246.272 136.277 246.689C135.607 247.105 134.835 247.329 134.046 247.335H128.539V265.258H134.046C134.835 265.264 135.607 265.488 136.277 265.905C136.947 266.322 137.489 266.916 137.843 267.621C138.246 268.42 138.692 269.198 139.179 269.951C139.615 270.61 139.861 271.378 139.89 272.168C139.919 272.959 139.729 273.742 139.342 274.431L136.588 279.189L152.132 288.167L154.934 283.425ZM145.501 256.313C145.501 253.413 146.361 250.578 147.972 248.166C149.583 245.755 151.873 243.875 154.553 242.765C157.232 241.655 160.181 241.365 163.025 241.931C165.87 242.497 168.483 243.893 170.534 245.944C172.585 247.995 173.981 250.608 174.547 253.452C175.113 256.297 174.822 259.245 173.713 261.925C172.603 264.604 170.723 266.895 168.312 268.506C165.9 270.117 163.065 270.977 160.165 270.977C156.276 270.977 152.546 269.432 149.796 266.682C147.046 263.932 145.501 260.202 145.501 256.313Z" fill="#EBEBEB"/>
<path d="M1008.53 231.807L999.555 216.247L994.798 219C994.114 219.394 993.333 219.589 992.545 219.563C991.756 219.537 990.99 219.291 990.333 218.853C989.581 218.362 988.803 217.911 988.003 217.501C987.298 217.147 986.704 216.605 986.288 215.936C985.871 215.266 985.647 214.494 985.641 213.705V208.214H967.718V213.705C967.715 214.495 967.493 215.268 967.076 215.939C966.659 216.609 966.063 217.15 965.355 217.501C964.561 217.911 963.788 218.362 963.042 218.853C962.382 219.291 961.613 219.536 960.822 219.562C960.031 219.588 959.248 219.394 958.561 219L953.771 216.247L944.793 231.807L949.583 234.56C950.263 234.963 950.818 235.546 951.186 236.245C951.555 236.944 951.722 237.731 951.669 238.52C951.669 238.96 951.669 239.4 951.669 239.839C951.669 240.279 951.669 240.719 951.669 241.159C951.722 241.945 951.555 242.731 951.187 243.427C950.819 244.124 950.263 244.704 949.583 245.102L944.793 247.872L953.771 263.4L958.545 260.646C959.232 260.251 960.016 260.058 960.808 260.086C961.6 260.115 962.369 260.366 963.025 260.809C963.77 261.299 964.543 261.745 965.339 262.145C966.042 262.5 966.634 263.042 967.048 263.712C967.462 264.382 967.682 265.154 967.685 265.942V271.547H985.608V266.056C985.614 265.267 985.838 264.495 986.255 263.825C986.672 263.155 987.266 262.613 987.971 262.259C988.765 261.855 989.537 261.409 990.284 260.923C990.941 260.48 991.709 260.229 992.501 260.2C993.293 260.172 994.078 260.366 994.765 260.76L999.555 263.4L1008.53 247.84L1003.76 245.086C1003.08 244.685 1002.53 244.104 1002.16 243.409C1001.79 242.713 1001.62 241.929 1001.67 241.143C1001.67 240.703 1001.67 240.247 1001.67 239.807C1001.67 239.367 1001.67 238.927 1001.67 238.487C1001.62 237.697 1001.79 236.909 1002.16 236.209C1002.53 235.51 1003.09 234.928 1003.78 234.528L1008.53 231.807ZM991.376 239.839C991.376 242.74 990.516 245.575 988.905 247.986C987.293 250.398 985.003 252.277 982.324 253.387C979.644 254.497 976.696 254.788 973.851 254.222C971.006 253.656 968.394 252.259 966.343 250.209C964.292 248.158 962.895 245.545 962.33 242.7C961.764 239.856 962.054 236.907 963.164 234.228C964.274 231.548 966.153 229.258 968.565 227.647C970.976 226.035 973.812 225.175 976.712 225.175C980.601 225.175 984.331 226.72 987.081 229.47C989.831 232.22 991.376 235.95 991.376 239.839Z" fill="#EBEBEB"/>
<path d="M895.863 47.0879C891.35 58.5693 888.699 70.6976 888.01 83.015H856.172V82.1351C856.172 81.3205 856.352 80.5058 856.433 79.6911C856.832 75.4641 857.534 71.2713 858.535 67.1452C860.181 60.392 862.552 53.8366 865.606 47.593C865.658 47.4369 865.763 47.3039 865.903 47.2175C866.043 47.1312 866.209 47.0968 866.372 47.1205H895.863V47.0879Z" fill="#EBEBEB"/>
<path d="M894.902 127.35H865.671C865.517 127.369 865.362 127.334 865.231 127.251C865.1 127.168 865.002 127.041 864.954 126.894C861.56 119.881 859.101 112.453 857.639 104.8C856.933 101.102 856.454 97.3635 856.205 93.6065C856.221 93.4766 856.221 93.3454 856.205 93.2155V92.3193H856.677H887.456C888.026 92.3193 887.993 92.3193 888.026 92.8896C888.222 95.4477 888.401 98.0058 888.645 100.564C889.052 104.613 889.705 108.635 890.6 112.605C891.659 117.462 893.047 122.242 894.755 126.91C894.804 127.024 894.853 127.171 894.902 127.35Z" fill="#EBEBEB"/>
<path d="M1017.88 136.621L1017.64 137.061C1015.16 140.848 1012.38 144.438 1009.35 147.798C1005.69 151.935 1001.63 155.686 997.208 158.992C988.678 165.454 979.028 170.287 968.744 173.249C964.751 174.395 960.684 175.266 956.573 175.856C956.165 175.856 955.774 175.986 955.367 176.051H954.666L953.998 175.611L954.764 175.073C963.685 169 971.49 161.432 977.836 152.703C981.42 147.77 984.571 142.537 987.253 137.061C987.304 136.916 987.403 136.794 987.534 136.714C987.664 136.634 987.818 136.601 987.97 136.621H1017.88Z" fill="#EBEBEB"/>
<path d="M988.638 82.9987H947.562V47.1531H979.628C979.769 47.1355 979.912 47.1683 980.031 47.2458C980.151 47.3234 980.239 47.4406 980.28 47.5767C983.213 54.3295 985.399 61.3832 986.797 68.6116C987.545 72.3813 988.089 76.1887 988.427 80.017C988.459 80.9131 988.557 81.9396 988.638 82.9987Z" fill="#EBEBEB"/>
<path d="M988.394 92.5635C988.394 93.427 988.394 94.1928 988.264 95.1053C988.084 97.1093 987.954 99.1134 987.661 101.101C987.286 103.839 986.862 106.592 986.308 109.248C985.086 115.241 983.303 121.105 980.98 126.763C980.945 126.929 980.848 127.075 980.709 127.172C980.569 127.269 980.399 127.309 980.231 127.285H947.253V92.5635H988.394Z" fill="#EBEBEB"/>
<path d="M938.292 47.3158V83.2592H898.177C898.177 82.3468 898.275 81.4506 898.356 80.5708C898.568 78.5667 898.731 76.53 899.041 74.5422C899.546 71.4953 900.067 68.4484 900.67 65.4341C902.029 59.3568 903.989 53.4295 906.519 47.7394C906.561 47.5958 906.653 47.4722 906.779 47.3913C906.905 47.3104 907.056 47.2778 907.204 47.2995H938.292V47.3158Z" fill="#EBEBEB"/>
<path d="M938.341 93.0525C938.341 104.306 938.341 115.57 938.341 126.845V127.35H906.275C906.121 127.371 905.964 127.334 905.835 127.247C905.706 127.16 905.613 127.029 905.574 126.878C903.133 121.043 901.304 114.971 900.116 108.759C899.513 105.501 899.057 102.34 898.65 99.13C898.389 97.0281 898.324 94.8936 898.177 92.7755C898.177 92.7755 898.177 92.6614 898.177 92.5474H937.819C938.243 92.5311 938.341 92.6451 938.341 93.0525Z" fill="#EBEBEB"/>
<path d="M1032.19 83.2434H998.528C997.848 70.8525 995.203 58.6485 990.691 47.0882H1022.06C1022.21 47.0674 1022.37 47.0996 1022.5 47.1796C1022.63 47.2595 1022.74 47.3824 1022.79 47.5281C1026.39 54.6425 1029 62.2119 1030.56 70.0294C1031.38 74.1981 1031.93 78.4165 1032.19 82.6568C1032.21 82.8361 1032.19 83.0153 1032.19 83.2434Z" fill="#EBEBEB"/>
<path d="M1032.22 92.3194C1032.22 93.134 1032.22 93.9487 1032.11 94.6656C1031.88 97.7125 1031.52 100.743 1031 103.741C1029.76 110.701 1027.68 117.485 1024.81 123.945C1024.35 124.988 1023.86 126.031 1023.39 127.057C1023.36 127.162 1023.29 127.251 1023.2 127.311C1023.11 127.37 1023 127.396 1022.89 127.383H991.636L992.744 124.206C995.848 114.947 997.732 105.324 998.349 95.5781C998.349 94.6168 998.463 93.6391 998.512 92.6778C998.512 92.4171 998.512 92.2868 998.854 92.3194C998.957 92.3276 999.061 92.3276 999.164 92.3194H1032.22Z" fill="#EBEBEB"/>
<path d="M1016.97 37.9149C1016.97 37.9636 1016.97 38.0129 1016.97 38.0615H987.042C986.894 38.0808 986.744 38.0515 986.615 37.978C986.486 37.9045 986.384 37.7908 986.325 37.6542C982.401 29.8283 977.471 22.5487 971.66 16.0002C968.261 12.2032 964.507 8.73882 960.451 5.65383C958.446 4.02449 956.361 2.67213 954.308 1.17313L953.966 0.912436L954.373 0.635444C954.373 0.456216 954.259 0.260695 954.178 0C966.744 1.44741 978.853 5.58267 989.679 12.1249C1000.51 18.6671 1009.8 27.4629 1016.92 37.9149H1016.97Z" fill="#EBEBEB"/>
<path d="M932.589 175.643C932.312 175.721 932.028 175.77 931.741 175.79C928.507 175.362 925.302 174.736 922.145 173.916C916.241 172.417 910.511 170.298 905.053 167.594C898.819 164.499 892.977 160.67 887.651 156.189C883.853 153.023 880.346 149.522 877.175 145.729C874.81 142.852 872.633 139.826 870.657 136.669L870.527 136.393H898.372C898.521 136.381 898.669 136.42 898.793 136.503C898.917 136.585 899.01 136.707 899.057 136.849C901.917 142.613 905.287 148.109 909.126 153.273C912.69 157.942 916.642 162.302 920.939 166.307C924.491 169.653 928.305 172.71 932.344 175.448L932.589 175.643Z" fill="#EBEBEB"/>
<path d="M932.23 0.880307C930.976 1.79274 929.509 2.83552 928.075 3.92718C923.293 7.64934 918.849 11.7878 914.796 16.2939C909.305 22.2832 904.621 28.9661 900.865 36.172C900.621 36.6282 900.409 37.1007 900.148 37.5406C900.1 37.6117 900.038 37.6717 899.965 37.7167C899.892 37.7616 899.81 37.7905 899.725 37.8013C899.22 37.8013 898.731 37.8013 898.226 37.8013H871.423C886.364 16.7176 906.405 4.04124 931.921 0.179688C931.867 0.296995 931.808 0.411227 931.741 0.521849L932.23 0.880307Z" fill="#EBEBEB"/>
<path d="M976.386 136.653C972.599 143.281 968.043 149.439 962.813 155C958.189 159.982 952.987 164.396 947.318 168.149V136.653H976.386Z" fill="#EBEBEB"/>
<path d="M938.291 136.653V167.611C926.683 159.64 917.129 149.031 910.413 136.653H938.291Z" fill="#EBEBEB"/>
<path d="M975.457 37.7844H947.562V8.3584C953.285 12.0609 958.542 16.4371 963.22 21.3932C967.856 26.418 971.957 31.9112 975.457 37.7844Z" fill="#EBEBEB"/>
<path d="M938.292 9.22266V38.0295H911.521C918.067 26.4638 927.236 16.5967 938.292 9.22266Z" fill="#EBEBEB"/>
<path d="M637.808 700C794.987 700 922.406 687.723 922.406 672.578C922.406 657.433 794.987 645.156 637.808 645.156C480.629 645.156 353.21 657.433 353.21 672.578C353.21 687.723 480.629 700 637.808 700Z" fill="#EBEBEB"/>
<path d="M0 532.503L133.346 532.112L266.691 531.965L533.399 531.688L800.107 531.965L933.453 532.112L1066.8 532.503L933.453 532.91L800.107 533.041L533.399 533.318L266.691 533.041L133.346 532.894L0 532.503Z" fill="#263238"/>
<path d="M891.676 61.2646H172.401V542.394H891.676V61.2646Z" fill="#DBDBDB"/>
<path d="M886.43 67.1309H177.615V536.529H886.43V67.1309Z" fill="#263238"/>
<path d="M985.347 578.484H78.714V611.511H985.347V578.484Z" fill="#C7C7C7"/>
<path d="M78.714 578.484L172.401 542.41H891.66L985.347 578.484H78.714Z" fill="#DBDBDB"/>
<path d="M180.76 565.694L241.209 542.41H822.837L883.302 565.694H180.76Z" fill="#263238"/>
<path d="M846.381 102.796H217.681V500.878H846.381V102.796Z" fill="white"/>
<path d="M846.381 102.796H217.143V118.112H846.381V102.796Z" fill="#455A64"/>
<path d="M229.331 110.454C229.334 111.206 229.115 111.943 228.7 112.57C228.286 113.198 227.696 113.689 227.003 113.982C226.311 114.275 225.547 114.356 224.808 114.216C224.069 114.076 223.388 113.721 222.851 113.195C222.314 112.669 221.944 111.995 221.788 111.26C221.632 110.524 221.698 109.759 221.976 109.06C222.254 108.361 222.733 107.761 223.351 107.333C223.97 106.906 224.701 106.671 225.453 106.658C225.958 106.647 226.461 106.737 226.931 106.923C227.401 107.109 227.829 107.387 228.19 107.741C228.551 108.094 228.838 108.517 229.034 108.983C229.23 109.449 229.331 109.949 229.331 110.454Z" fill="#C7C7C7"/>
<path d="M244.842 110.454C244.845 111.208 244.624 111.947 244.207 112.576C243.791 113.205 243.196 113.697 242.5 113.988C241.803 114.279 241.036 114.357 240.296 114.211C239.555 114.066 238.874 113.704 238.339 113.172C237.804 112.639 237.44 111.96 237.291 111.22C237.143 110.48 237.217 109.712 237.505 109.015C237.794 108.317 238.282 107.721 238.91 107.301C239.537 106.881 240.275 106.657 241.029 106.657C241.529 106.655 242.025 106.752 242.487 106.942C242.95 107.131 243.37 107.411 243.724 107.763C244.079 108.116 244.36 108.535 244.552 108.997C244.743 109.459 244.842 109.954 244.842 110.454Z" fill="white"/>
<path d="M260.354 110.454C260.357 111.209 260.136 111.948 259.718 112.578C259.3 113.207 258.705 113.699 258.007 113.989C257.31 114.28 256.542 114.357 255.801 114.21C255.06 114.064 254.379 113.7 253.845 113.166C253.311 112.632 252.947 111.951 252.801 111.21C252.654 110.469 252.731 109.701 253.022 109.003C253.312 108.306 253.803 107.711 254.433 107.293C255.062 106.875 255.802 106.654 256.557 106.657C257.564 106.657 258.53 107.057 259.242 107.769C259.954 108.481 260.354 109.447 260.354 110.454Z" fill="#1047F7"/>
<path d="M687.356 257.487H379.442V299.492H687.356V257.487Z" fill="white"/>
<path d="M688.187 300.322H378.611V256.672H688.187V300.322ZM380.241 298.693H686.558V258.301H380.241V298.693Z" fill="#C7C7C7"/>
<path d="M687.372 257.487H645.352V299.492H687.372V257.487Z" fill="#1047F7"/>
<path d="M679.666 290.27L675.788 293.219L668.635 283.72L666.012 280.249C666.55 280.041 667.055 279.755 667.511 279.402C668.392 278.73 669.078 277.836 669.499 276.812L672.301 280.494L679.666 290.27Z" fill="white"/>
<path d="M672.04 267.932C670.812 266.327 669.151 265.108 667.252 264.417C665.354 263.726 663.297 263.592 661.325 264.032C659.353 264.472 657.548 265.467 656.123 266.899C654.698 268.331 653.712 270.142 653.282 272.116C652.852 274.09 652.996 276.146 653.697 278.041C654.397 279.936 655.625 281.591 657.236 282.811C658.846 284.031 660.772 284.765 662.786 284.926C664.8 285.087 666.819 284.669 668.603 283.72C669.114 283.442 669.604 283.126 670.069 282.775C670.91 282.127 671.652 281.359 672.269 280.494C673.576 278.65 674.26 276.436 674.219 274.175C674.178 271.915 673.414 269.727 672.04 267.932ZM667.478 279.337C667.022 279.691 666.517 279.976 665.979 280.185C664.62 280.73 663.115 280.788 661.718 280.349C660.321 279.91 659.119 279.001 658.317 277.776C657.514 276.552 657.16 275.087 657.316 273.631C657.471 272.175 658.125 270.817 659.168 269.789C660.211 268.761 661.577 268.126 663.035 267.991C664.493 267.857 665.953 268.231 667.166 269.051C668.38 269.87 669.272 271.085 669.691 272.488C670.11 273.891 670.031 275.396 669.466 276.747C669.055 277.795 668.368 278.713 667.478 279.402V279.337Z" fill="white"/>
<path d="M390.473 265.747H388.225V291.246H390.473V265.747Z" fill="#263238"/>
<path d="M450.563 315.882H379.442V338.416H450.563V315.882Z" fill="#C7C7C7"/>
<path d="M568.952 315.882H497.831V338.416H568.952V315.882Z" fill="#1047F7"/>
<path d="M688.236 315.882H617.115V338.416H688.236V315.882Z" fill="#C7C7C7"/>
<path d="M631.6 211.996H435.182V225.634H631.6V211.996Z" fill="#37474F"/>
<path d="M328.411 362.253H221.542V225.078H300.892L328.411 251.213V362.253Z" fill="#EBEBEB"/>
<path d="M300.891 225.078L328.411 251.213H300.891V225.078Z" fill="#DBDBDB"/>
<path d="M231.97 251.62H291.376V248.101H231.97V251.62Z" fill="#DBDBDB"/>
<path d="M231.97 260.517H291.376V256.997H231.97V260.517Z" fill="#DBDBDB"/>
<path d="M231.97 269.397H291.376V265.878H231.97V269.397Z" fill="#DBDBDB"/>
<path d="M231.97 278.292H319.026V274.773H231.97V278.292Z" fill="#DBDBDB"/>
<path d="M231.97 287.189H319.026V283.67H231.97V287.189Z" fill="#DBDBDB"/>
<path d="M231.97 296.069H319.026V292.55H231.97V296.069Z" fill="#DBDBDB"/>
<path d="M231.97 304.966H319.026V301.446H231.97V304.966Z" fill="#DBDBDB"/>
<path d="M231.97 313.861H319.026V310.342H231.97V313.861Z" fill="#DBDBDB"/>
<path d="M231.97 322.741H319.026V319.222H231.97V322.741Z" fill="#DBDBDB"/>
<path d="M231.97 331.638H319.026V328.118H231.97V331.638Z" fill="#DBDBDB"/>
<path d="M231.97 340.533H319.026V337.014H231.97V340.533Z" fill="#DBDBDB"/>
<path d="M231.97 349.413H319.026V345.894H231.97V349.413Z" fill="#DBDBDB"/>
<path d="M957.355 416.054V315.735H762.062V416.054H957.355Z" fill="white"/>
<path d="M957.762 416.444H761.654V315.327H957.762V416.444ZM762.469 415.63H957.029V316.142H762.469V415.63Z" fill="#DBDBDB"/>
<path d="M773.875 403.003H855.912V328.77H773.875V403.003Z" fill="#EBEBEB"/>
<path d="M784.465 344.997C784.096 346.845 784.33 348.762 785.133 350.466C785.937 352.17 787.267 353.571 788.928 354.461C790.588 355.351 792.491 355.684 794.355 355.409C796.219 355.135 797.946 354.269 799.279 352.938C800.613 351.607 801.484 349.883 801.762 348.02C802.041 346.156 801.713 344.253 800.827 342.59C799.941 340.927 798.543 339.594 796.841 338.786C795.139 337.979 793.222 337.74 791.374 338.105C789.671 338.444 788.106 339.279 786.877 340.506C785.647 341.732 784.808 343.295 784.465 344.997Z" fill="#DBDBDB"/>
<path d="M796.962 387.003H855.912L826.437 347.052L796.962 387.003Z" fill="#C7C7C7"/>
<path d="M773.875 387.035H822.544L798.201 361.03L773.875 387.035Z" fill="#DBDBDB"/>
<path d="M855.913 387.002H773.875V403.002H855.913V387.002Z" fill="#DBDBDB"/>
<path d="M939.53 328.77H869.648V333.853H939.53V328.77Z" fill="#EBEBEB"/>
<path d="M939.53 339.296H869.648V344.379H939.53V339.296Z" fill="#EBEBEB"/>
<path d="M939.53 349.821H869.648V354.905H939.53V349.821Z" fill="#EBEBEB"/>
<path d="M939.53 360.347H869.648V365.43H939.53V360.347Z" fill="#EBEBEB"/>
<path d="M939.53 370.873H869.648V375.957H939.53V370.873Z" fill="#EBEBEB"/>
<path d="M293.967 306.105H109.443V541.742H293.967V306.105Z" fill="white"/>
<path d="M294.781 542.556H108.629V305.291H294.781V542.556ZM110.258 540.927H293.152V306.92H110.258V540.927Z" fill="#EBEBEB"/>
<path d="M293.967 306.105H109.443V323.751H293.967V306.105Z" fill="#1047F7"/>
<path d="M294.781 324.566H108.629V305.291H294.781V324.566ZM110.258 322.937H293.152V306.92H110.258V322.937Z" fill="#EBEBEB"/>
<path d="M126.063 315.051C126.066 315.931 125.808 316.793 125.321 317.527C124.834 318.26 124.141 318.833 123.328 319.172C122.516 319.511 121.621 319.602 120.757 319.432C119.893 319.262 119.099 318.84 118.475 318.218C117.851 317.597 117.426 316.804 117.253 315.941C117.08 315.078 117.167 314.183 117.503 313.369C117.84 312.555 118.41 311.859 119.142 311.37C119.873 310.88 120.734 310.619 121.614 310.619C122.198 310.617 122.776 310.73 123.315 310.952C123.855 311.174 124.346 311.5 124.759 311.911C125.172 312.323 125.5 312.812 125.724 313.351C125.947 313.89 126.063 314.468 126.063 315.051Z" fill="#263238"/>
<path d="M144.116 315.051C144.119 315.932 143.861 316.794 143.373 317.528C142.886 318.262 142.191 318.835 141.378 319.174C140.564 319.512 139.668 319.602 138.804 319.431C137.94 319.26 137.146 318.836 136.523 318.213C135.899 317.589 135.476 316.795 135.304 315.931C135.133 315.067 135.223 314.171 135.561 313.358C135.9 312.544 136.473 311.85 137.207 311.362C137.941 310.874 138.803 310.616 139.684 310.619C140.86 310.619 141.987 311.086 142.818 311.917C143.649 312.748 144.116 313.876 144.116 315.051Z" fill="#EBEBEB"/>
<path d="M162.251 315.051C162.254 315.931 161.996 316.793 161.509 317.527C161.022 318.26 160.329 318.833 159.516 319.172C158.704 319.511 157.809 319.602 156.945 319.432C156.081 319.262 155.287 318.84 154.663 318.218C154.039 317.597 153.614 316.804 153.441 315.941C153.268 315.078 153.355 314.183 153.691 313.369C154.028 312.555 154.598 311.859 155.33 311.37C156.061 310.88 156.922 310.619 157.802 310.619C158.386 310.617 158.964 310.73 159.503 310.952C160.043 311.174 160.534 311.5 160.947 311.911C161.36 312.323 161.688 312.812 161.912 313.351C162.135 313.89 162.251 314.468 162.251 315.051Z" fill="#455A64"/>
<path d="M293.967 322.938H109.443V324.567H293.967V322.938Z" fill="#EBEBEB"/>
<path d="M212.809 488.152H122.299V496.609H212.809V488.152Z" fill="#C7C7C7"/>
<path d="M281.111 504.576H122.299V509.676H281.111V504.576Z" fill="#EBEBEB"/>
<path d="M281.111 514.287H122.299V519.387H281.111V514.287Z" fill="#EBEBEB"/>
<path d="M281.111 524.015H122.299V529.114H281.111V524.015Z" fill="#EBEBEB"/>
<path d="M122.429 477.725H280.965V334.277H122.429L122.429 477.725Z" fill="#EBEBEB"/>
<path d="M142.91 365.659C142.201 369.231 142.66 372.938 144.219 376.23C145.778 379.522 148.354 382.225 151.568 383.94C154.781 385.656 158.461 386.292 162.064 385.756C165.667 385.219 169.001 383.538 171.576 380.961C174.15 378.384 175.827 375.047 176.359 371.443C176.891 367.84 176.25 364.161 174.531 360.95C172.811 357.738 170.105 355.165 166.811 353.61C163.517 352.055 159.81 351.601 156.238 352.314C152.947 352.974 149.925 354.593 147.553 356.968C145.181 359.343 143.566 362.367 142.91 365.659Z" fill="#DBDBDB"/>
<path d="M167.057 446.816H280.965L224.019 369.617L167.057 446.816Z" fill="#C7C7C7"/>
<path d="M122.429 446.898H216.475L169.452 396.616L122.429 446.898Z" fill="#DBDBDB"/>
<path d="M280.965 446.815H122.429V477.724H280.965V446.815Z" fill="#DBDBDB"/>
<path d="M900.458 168.735H786.567V72.3759L843.513 36.2207L900.458 72.3759V168.735Z" fill="#1047F7"/>
<path opacity="0.2" d="M900.458 168.735H786.567V72.3759L843.513 36.2207L900.458 72.3759V168.735Z" fill="black"/>
<path d="M894.038 153.403H792.986V23.6748H868.018L894.038 48.392V153.403Z" fill="#EBEBEB"/>
<path d="M868.018 23.6748L894.039 48.392H868.018V23.6748Z" fill="#DBDBDB"/>
<path d="M802.86 48.7822L859.04 48.7822V45.4584L802.86 45.4584V48.7822Z" fill="#DBDBDB"/>
<path d="M802.86 57.1904L859.04 57.1904V53.8666L802.86 53.8666V57.1904Z" fill="#DBDBDB"/>
<path d="M802.86 65.5977H859.04V62.2738L802.86 62.2738V65.5977Z" fill="#DBDBDB"/>
<path d="M802.86 74.0049L885.175 74.0049V70.681L802.86 70.681V74.0049Z" fill="#DBDBDB"/>
<path d="M802.86 82.4121L885.175 82.4121V79.0882L802.86 79.0882V82.4121Z" fill="#DBDBDB"/>
<path d="M802.86 90.8203L885.175 90.8203V87.4964L802.86 87.4964V90.8203Z" fill="#DBDBDB"/>
<path d="M802.86 99.2275L885.175 99.2275V95.9037L802.86 95.9037V99.2275Z" fill="#DBDBDB"/>
<path d="M802.86 107.635L885.175 107.635V104.311L802.86 104.311V107.635Z" fill="#DBDBDB"/>
<path d="M802.86 116.042L885.175 116.042V112.718L802.86 112.718V116.042Z" fill="#DBDBDB"/>
<path d="M802.86 124.45L885.175 124.45V121.126L802.86 121.126V124.45Z" fill="#DBDBDB"/>
<path d="M802.86 132.857H885.175V129.534H802.86V132.857Z" fill="#DBDBDB"/>
<path d="M802.86 141.265H885.175V137.941H802.86V141.265Z" fill="#DBDBDB"/>
<path d="M900.458 96.4902V168.719H786.567V96.4902C791.455 99.2601 796.343 102.177 801.101 105.012C805.859 107.847 810.747 110.796 815.537 113.729C820.881 116.987 826.215 120.284 831.537 123.619L831.7 123.521L831.57 123.635C835.562 126.112 839.537 128.621 843.529 131.114C847.488 128.621 851.48 126.095 855.456 123.635L855.326 123.521H855.505C860.816 120.197 866.144 116.901 871.489 113.631C876.279 110.714 881.085 107.798 885.908 104.93C890.731 102.063 895.57 99.2601 900.458 96.4902Z" fill="#1047F7"/>
<path d="M900.458 96.4902C895.864 99.7489 891.171 102.828 886.544 106.006C881.916 109.183 877.191 112.23 872.482 115.309C867.774 118.389 862.706 121.713 857.721 124.873L857.281 125.183L844.246 133.542L843.594 133.933L842.959 133.542C838.614 130.761 834.269 127.969 829.924 125.167L829.451 124.873C824.52 121.713 819.594 118.519 814.673 115.293C809.997 112.23 805.305 109.118 800.628 106.006C795.952 102.894 791.308 99.7326 786.714 96.4902C791.602 99.2601 796.49 102.177 801.247 105.012C806.005 107.847 810.893 110.796 815.683 113.729C821.028 116.987 826.361 120.284 831.684 123.619C835.676 126.095 839.651 128.605 843.643 131.098C847.602 128.605 851.594 126.079 855.57 123.619C860.881 120.295 866.209 116.998 871.554 113.729C876.344 110.812 881.151 107.896 885.973 105.028C890.796 102.16 895.57 99.2601 900.458 96.4902Z" fill="white"/>
<path d="M831.7 123.521L831.57 123.636L829.777 125.167C826.91 127.579 823.993 129.876 821.011 132.124C817.394 134.894 813.679 137.55 809.948 140.173C806.217 142.797 802.437 145.322 798.543 147.799C794.649 150.275 790.803 152.687 786.795 154.87C790.249 151.84 793.834 149.021 797.467 146.267C801.101 143.514 804.816 140.841 808.531 138.218C812.246 135.595 816.058 133.053 819.936 130.577C822.999 128.621 826.111 126.682 829.288 124.874L831.521 123.619L831.7 123.521Z" fill="white"/>
<path d="M900.198 154.871C896.173 152.671 892.279 150.259 888.434 147.799C884.588 145.339 880.825 142.764 877.028 140.174C873.232 137.583 869.598 134.895 865.965 132.125C863.016 129.876 860.083 127.595 857.248 125.184L855.423 123.554L855.293 123.44H855.472L857.688 124.711C860.947 126.52 863.961 128.459 867.04 130.414C870.902 132.891 874.649 135.449 878.446 138.056C882.242 140.663 885.892 143.335 889.525 146.105C893.159 148.875 896.743 151.84 900.198 154.871Z" fill="white"/>
<path d="M647.323 681.931C650.745 683.039 748.343 681.768 752.09 679.357C753.508 678.477 754.143 664.236 754.436 646.998V646.46C754.436 642.908 754.55 639.258 754.55 635.543C754.55 635.038 754.55 634.533 754.55 634.028L749.809 583.355L684.489 584.007L691.006 634.207V636.195L691.413 646.574V647.649C691.413 647.649 654.248 664.855 650.484 667.919C646.72 670.982 643.902 680.839 647.323 681.931Z" fill="#AD6359"/>
<path d="M647.323 681.931C650.745 683.039 748.343 681.768 752.09 679.357C753.508 678.477 754.143 664.236 754.436 646.998V646.46C754.436 642.908 754.55 639.259 754.55 635.544C754.55 635.039 754.55 634.533 754.55 634.028L691.006 634.208V636.195L691.413 646.574V647.65C691.413 647.65 654.248 664.856 650.484 667.919C646.72 670.982 643.902 680.839 647.323 681.931Z" fill="#EBEBEB"/>
<path d="M647.307 681.93C649.083 682.5 675.608 682.435 701.531 681.93L716.88 681.571C735.373 681.066 750.656 680.3 752.074 679.372C753.491 678.443 754.127 664.708 754.404 647.73C754.404 647.502 754.404 647.257 754.404 647.013C754.404 646.769 754.404 646.638 754.404 646.459H754.322L691.397 646.589V647.665C691.397 647.665 654.215 664.854 650.451 667.934C646.688 671.013 643.885 680.838 647.307 681.93Z" fill="#1047F7"/>
<path d="M648.382 678.134C664.838 677.515 731.267 676.505 747.577 677.222C747.707 677.222 747.707 677.319 747.577 677.319C731.283 678.297 664.838 678.688 648.382 678.411C648.04 678.395 648.023 678.15 648.382 678.134Z" fill="#263238"/>
<path d="M684.407 646.85C690.924 645.546 698.81 646.443 703.812 650.989C704.008 651.168 703.812 651.445 703.552 651.38C697.338 649.46 690.936 648.214 684.456 647.665C684.348 647.671 684.241 647.634 684.161 647.563C684.08 647.491 684.03 647.39 684.024 647.282C684.017 647.174 684.054 647.068 684.126 646.987C684.198 646.906 684.299 646.856 684.407 646.85Z" fill="#263238"/>
<path d="M679.779 649.719C686.297 648.432 694.167 649.328 699.185 653.874C699.38 654.053 699.185 654.33 698.908 654.265C692.694 652.345 686.292 651.099 679.812 650.55C679.715 650.535 679.626 650.487 679.561 650.413C679.495 650.34 679.457 650.246 679.453 650.148C679.45 650.05 679.48 649.953 679.539 649.875C679.599 649.797 679.684 649.741 679.779 649.719Z" fill="#263238"/>
<path d="M675.152 652.602C681.67 651.315 689.556 652.195 694.558 656.757C694.753 656.936 694.558 657.197 694.281 657.132C688.055 655.216 681.643 653.97 675.152 653.417C675.044 653.417 674.941 653.374 674.864 653.298C674.788 653.221 674.745 653.118 674.745 653.01C674.745 652.902 674.788 652.798 674.864 652.722C674.941 652.645 675.044 652.602 675.152 652.602Z" fill="#263238"/>
<path d="M701.531 681.913L716.88 681.555C735.373 681.05 750.656 680.284 752.074 679.355C753.491 678.426 754.127 664.691 754.404 647.713C754.404 647.485 754.404 647.241 754.404 646.996C754.404 646.752 754.404 646.622 754.404 646.442H754.322C745.736 652.504 715.365 672.724 701.531 681.913Z" fill="#263238"/>
<path d="M687.144 646.785H757.467C757.467 646.785 743.308 482.531 743.862 479.663C744.563 475.981 770.811 373.218 775.846 353.78C783.406 324.679 789.304 302.048 789.304 302.048H729.703C729.703 302.048 722.746 324.077 713.996 352.721C699.723 399.287 680.676 463.369 678.786 478.962C675.739 504.119 687.144 646.785 687.144 646.785Z" fill="#455A64"/>
<path d="M690.256 634.793C700.994 634.564 697.914 634.483 708.652 634.385C713.914 634.385 748.457 634.027 753.361 634.841C753.382 634.85 753.4 634.864 753.413 634.883C753.426 634.902 753.433 634.925 753.433 634.947C753.433 634.97 753.426 634.992 753.413 635.011C753.4 635.03 753.382 635.045 753.361 635.053C748.473 635.868 713.914 635.575 708.652 635.526C697.914 635.412 700.994 635.33 690.256 635.102C690.232 635.11 690.206 635.112 690.18 635.108C690.155 635.104 690.131 635.094 690.11 635.079C690.089 635.064 690.072 635.044 690.06 635.021C690.049 634.998 690.042 634.973 690.042 634.947C690.042 634.922 690.049 634.896 690.06 634.873C690.072 634.85 690.089 634.83 690.11 634.815C690.131 634.8 690.155 634.79 690.18 634.786C690.206 634.782 690.232 634.784 690.256 634.793Z" fill="#263238"/>
<path d="M730.632 469.627C732.929 459.46 736.383 449.488 739.381 439.516C745.475 419.226 751.607 398.957 757.777 378.709C760.862 368.596 763.952 358.473 767.048 348.338C768.677 343.222 770.192 338.122 771.789 333.022C773.386 327.922 775.145 323.083 776.547 318.049C777.133 315.996 777.443 317.12 776.71 319.678C775.227 324.924 773.761 330.171 772.229 335.401C769.198 345.764 766.151 356.121 763.088 366.473C756.994 387.111 750.841 407.701 744.628 428.241C741.532 438.55 738.431 448.869 735.324 459.199C733.752 464.107 732.484 469.108 731.528 474.173C730.695 479.469 730.487 484.844 730.909 490.189C731.577 500.959 732.815 511.696 733.809 522.434C734.803 533.171 735.813 543.958 736.807 554.711C738.784 576.121 740.745 597.53 742.689 618.94C742.933 621.661 743.178 624.366 743.39 627.087C743.39 627.999 742.086 627.918 741.988 627.087C739.675 605.905 737.899 584.724 735.911 563.542C733.923 542.361 731.951 521.342 729.98 500.242C729.475 494.947 728.921 489.635 728.921 484.307C728.93 479.364 729.504 474.439 730.632 469.627Z" fill="#263238"/>
<path d="M720.774 681.931C724.196 683.039 821.793 681.768 825.525 679.357C826.942 678.477 827.594 664.236 827.887 646.998V646.46C827.887 642.908 828.001 639.258 828.001 635.543C828.001 635.038 828.001 634.533 828.001 634.028L823.26 583.355L757.939 584.007L764.457 634.207V636.195L764.864 646.574V647.649C764.864 647.649 727.731 664.855 724.033 667.919C720.334 670.982 717.32 680.839 720.774 681.931Z" fill="#AD6359"/>
<path d="M720.774 681.931C724.196 683.039 821.793 681.768 825.525 679.357C826.942 678.477 827.594 664.236 827.887 646.998V646.46C827.887 642.908 828.001 639.259 828.001 635.544C828.001 635.039 828.001 634.533 828.001 634.028L764.457 634.208V636.195L764.864 646.574V647.65C764.864 647.65 727.731 664.856 724.033 667.919C720.334 670.982 717.32 680.839 720.774 681.931Z" fill="#EBEBEB"/>
<path d="M720.774 681.93C722.534 682.5 749.076 682.435 774.999 681.93L790.347 681.571C808.84 681.066 824.123 680.3 825.541 679.372C826.958 678.443 827.594 664.708 827.871 647.73C827.871 647.502 827.871 647.257 827.871 647.013C827.871 646.769 827.871 646.638 827.871 646.459H827.789L764.864 646.589V647.665C764.864 647.665 727.715 664.838 724.033 667.917C720.35 670.997 717.32 680.838 720.774 681.93Z" fill="#1047F7"/>
<path d="M721.817 678.134C738.273 677.515 804.702 676.505 821.011 677.222C821.142 677.222 821.142 677.319 821.011 677.319C804.718 678.297 738.273 678.688 721.817 678.411C721.458 678.395 721.458 678.15 721.817 678.134Z" fill="#263238"/>
<path d="M757.842 646.85C764.359 645.546 772.245 646.443 777.247 650.989C777.443 651.168 777.247 651.445 776.987 651.38C770.768 649.458 764.36 648.212 757.874 647.665C757.766 647.669 757.661 647.63 757.582 647.557C757.502 647.483 757.455 647.382 757.451 647.274C757.446 647.166 757.485 647.06 757.559 646.981C757.632 646.901 757.734 646.854 757.842 646.85Z" fill="#263238"/>
<path d="M753.214 649.719C759.732 648.432 767.601 649.328 772.62 653.874C772.815 654.053 772.62 654.33 772.343 654.265C766.129 652.345 759.727 651.099 753.247 650.55C753.15 650.535 753.061 650.487 752.995 650.413C752.93 650.34 752.892 650.246 752.888 650.148C752.884 650.05 752.915 649.953 752.974 649.875C753.034 649.797 753.119 649.741 753.214 649.719Z" fill="#263238"/>
<path d="M748.571 652.602C755.088 651.315 762.958 652.195 767.976 656.757C768.172 656.936 767.976 657.197 767.699 657.132C761.484 655.22 755.082 653.974 748.603 653.417C748.495 653.421 748.39 653.383 748.311 653.309C748.231 653.236 748.184 653.134 748.18 653.026C748.175 652.918 748.214 652.813 748.288 652.733C748.361 652.654 748.463 652.607 748.571 652.602Z" fill="#263238"/>
<path d="M731.626 302.048C731.626 302.048 732.994 330.578 739.528 353.16C740.049 355.034 740.62 356.859 741.239 358.619C741.239 358.619 740.326 357.902 750.705 364.273C750.705 364.273 746.697 477.675 746.534 484.437C745.931 509.757 764.343 647.828 764.343 647.828L834.649 648.105C834.649 648.105 809.541 491.508 809.623 482.27C809.769 467.361 818.633 402.546 815.896 354.497C814.719 336.229 809.858 318.388 801.606 302.048H731.626Z" fill="#455A64"/>
<path d="M766.754 635.315C777.491 635.136 774.412 635.038 785.149 634.973C790.412 634.973 824.954 634.794 829.859 635.625C829.973 635.625 829.973 635.837 829.859 635.853C824.971 636.635 790.396 636.195 785.149 636.114C774.396 635.967 777.491 635.902 766.754 635.625C766.73 635.633 766.704 635.635 766.678 635.631C766.653 635.627 766.629 635.617 766.608 635.602C766.587 635.587 766.57 635.567 766.558 635.544C766.546 635.521 766.54 635.496 766.54 635.47C766.54 635.445 766.546 635.419 766.558 635.396C766.57 635.373 766.587 635.353 766.608 635.338C766.629 635.323 766.653 635.313 766.678 635.309C766.704 635.305 766.73 635.307 766.754 635.315Z" fill="#263238"/>
<path d="M797.353 306.302C806.25 323.41 809.557 342.864 810.274 361.927C811.056 382.653 808.645 403.313 806.396 423.843C804.115 445.464 802.127 467.134 803.773 488.87C805.402 510.85 809.345 532.634 812.49 554.435C815.635 576.235 819.007 598.003 821.663 619.853C822.005 622.623 822.348 625.376 822.673 628.146C822.673 628.177 822.661 628.206 822.64 628.227C822.619 628.248 822.59 628.26 822.559 628.26C822.529 628.26 822.5 628.248 822.479 628.227C822.457 628.206 822.445 628.177 822.445 628.146C818.584 606.623 815.423 584.969 812.132 563.347C808.84 541.726 805.158 520.267 802.926 498.597C800.694 476.927 801.639 455.436 803.822 433.83C805.907 413.024 808.71 392.233 808.71 371.28C808.71 351.809 806.82 331.882 799.912 313.52C798.999 311.075 798.005 308.631 796.979 306.236C796.914 305.959 797.239 305.943 797.353 306.302Z" fill="#263238"/>
<path d="M738.306 356.925C745.298 359.85 752.025 363.371 758.412 367.451C758.656 367.614 758.412 368.005 758.2 367.875C751.422 364.616 744.497 361.357 737.899 357.74C737.798 357.682 737.723 357.588 737.689 357.476C737.656 357.365 737.666 357.245 737.718 357.141C737.77 357.037 737.86 356.957 737.969 356.917C738.079 356.877 738.199 356.88 738.306 356.925Z" fill="#263238"/>
<path d="M737.915 332.729C738.371 335.238 738.99 337.715 739.544 340.191C740.098 342.668 740.424 344.9 741.027 347.198C741.53 349.429 742.66 351.47 744.285 353.08C745.198 353.927 746.208 354.709 747.186 355.458C747.707 355.882 748.277 356.289 748.815 356.713C748.815 356.387 748.701 356.045 748.636 355.703L748.147 352.868C747.788 350.75 747.463 348.648 747.137 346.53C746.501 342.391 745.915 338.204 745.051 334.098C745.051 334.063 745.065 334.03 745.089 334.006C745.114 333.981 745.147 333.967 745.182 333.967C745.216 333.967 745.249 333.981 745.274 334.006C745.298 334.03 745.312 334.063 745.312 334.098C746.338 338.155 747.479 342.244 748.391 346.285C748.831 348.306 750.395 358.245 750.477 358.945C750.558 359.646 750.607 360.395 750.624 361.129C750.729 361.869 750.729 362.62 750.624 363.361C750.624 363.54 750.363 363.507 750.298 363.361C749.995 362.668 749.782 361.94 749.662 361.194C749.483 360.493 749.32 359.776 749.19 359.043C749.19 358.782 749.108 358.522 749.076 358.261C748.098 357.658 747.186 356.876 746.273 356.208C745.361 355.54 744.285 354.807 743.357 354.025C741.631 352.571 740.387 350.628 739.788 348.452C739.177 346.109 738.785 343.715 738.615 341.299C738.289 338.481 738.061 335.646 737.67 332.827C737.638 332.631 737.882 332.566 737.915 332.729Z" fill="#263238"/>
<path d="M743.226 225.013C743.438 237.885 735.242 298.415 722.973 312.444C706.68 331.002 677.498 355.98 671.763 355.035C666.288 354.139 644.325 323.165 648.414 318.847C652.504 314.529 689.034 290.757 693.694 286.065C696.822 282.953 715.12 247.107 725.662 228.37C735.226 211.408 742.949 207.302 743.226 225.013Z" fill="#AD6359"/>
<path d="M739.609 262.145L702.753 260.141C702.753 260.141 723.576 225.289 732.603 216.768C742.754 207.171 745.442 214.471 745.165 227.733C744.888 240.996 739.609 262.145 739.609 262.145Z" fill="#1047F7"/>
<path d="M708.31 253.82C709.597 253.69 721.084 254.163 723.577 254.309C726.07 254.456 736.302 255.01 738.86 255.385C738.974 255.385 738.974 255.564 738.86 255.564C736.286 255.678 725.972 255.173 723.43 255.059C720.888 254.945 709.515 254.244 708.277 253.983C708.179 253.967 708.212 253.82 708.31 253.82Z" fill="#263238"/>
<path d="M745.214 227.668C744.953 240.931 739.658 262.145 739.658 262.145L718.069 260.94L737.963 212.89C743.731 210.365 745.377 217.143 745.214 227.668Z" fill="#263238"/>
<path d="M715.381 336.526C717.011 338.155 815.993 332.892 816.482 332.241C817.769 330.497 783.211 226.48 759.993 209.812C755.007 206.227 740.75 209.665 737.312 213.07C735.145 215.237 730.453 228.94 727.373 240.264C721.214 262.993 713.98 335.092 715.381 336.526Z" fill="#1047F7"/>
<path d="M775.666 231.855C775.228 230.871 774.937 229.828 774.803 228.76C774.795 228.695 774.795 228.629 774.803 228.564C775.112 229.102 775.422 229.656 775.764 230.193C775.798 230.749 775.765 231.307 775.666 231.855ZM744.709 301.917C744.556 302.998 744.556 304.095 744.709 305.176C744.845 306.244 745.136 307.287 745.572 308.272C745.732 307.191 745.732 306.093 745.572 305.013C745.436 303.95 745.145 302.912 744.709 301.933V301.917ZM772.408 284.451C772.256 285.532 772.256 286.628 772.408 287.709C772.544 288.772 772.835 289.81 773.271 290.789C773.53 288.65 773.221 286.481 772.375 284.499L772.408 284.451ZM774.249 327.107C774.012 329.245 774.32 331.409 775.145 333.396C775.305 332.316 775.305 331.218 775.145 330.137C774.982 329.093 774.669 328.078 774.216 327.123L774.249 327.107ZM804.392 308.614C804.232 309.694 804.232 310.792 804.392 311.872C804.528 312.936 804.819 313.973 805.255 314.952C805.417 313.872 805.417 312.773 805.255 311.693C805.104 310.635 804.802 309.603 804.359 308.63L804.392 308.614ZM738.224 250.43C737.965 252.569 738.274 254.738 739.12 256.719C739.28 255.639 739.28 254.541 739.12 253.46C738.957 252.416 738.644 251.401 738.191 250.446L738.224 250.43ZM738.224 217.484C737.965 219.623 738.274 221.792 739.12 223.774C739.28 222.693 739.28 221.595 739.12 220.515C738.957 219.471 738.644 218.456 738.191 217.501L738.224 217.484ZM788.734 261.151C788.582 262.232 788.582 263.329 788.734 264.41C788.867 265.472 789.152 266.509 789.581 267.489C789.843 265.35 789.534 263.18 788.685 261.2L788.734 261.151ZM759.878 242.316C760.959 242.469 762.056 242.469 763.137 242.316C764.199 242.185 765.237 241.899 766.216 241.468C764.083 241.208 761.918 241.517 759.943 242.365L759.878 242.316ZM746.974 210.495C748.054 210.656 749.152 210.656 750.232 210.495C751.299 210.362 752.342 210.077 753.328 209.647C752.248 209.487 751.15 209.487 750.069 209.647C749.002 209.777 747.959 210.062 746.974 210.495ZM727.601 239.513C727.519 239.774 727.454 240.051 727.373 240.312H727.698C728.762 240.186 729.8 239.901 730.778 239.464C729.722 239.324 728.652 239.34 727.601 239.513ZM733.939 272.882C735.019 273.044 736.117 273.044 737.198 272.882C738.265 272.75 739.307 272.464 740.293 272.035C739.213 271.875 738.115 271.875 737.035 272.035C735.967 272.165 734.924 272.45 733.939 272.882ZM764.457 270.324C766.595 270.561 768.759 270.253 770.746 269.428C769.665 269.268 768.567 269.268 767.487 269.428C766.439 269.579 765.418 269.881 764.457 270.324ZM756.733 319.84C758.867 320.1 761.031 319.791 763.006 318.944C760.873 318.683 758.709 318.993 756.733 319.84ZM787.577 297.762C788.657 297.922 789.755 297.922 790.836 297.762C791.899 297.626 792.936 297.335 793.915 296.899C791.777 296.662 789.613 296.97 787.626 297.795L787.577 297.762ZM723.055 332.581C724.135 332.741 725.233 332.741 726.313 332.581C727.377 332.445 728.414 332.154 729.393 331.718C728.313 331.556 727.215 331.556 726.134 331.718C725.046 331.858 723.982 332.148 722.973 332.581H723.055ZM720.741 306.61C721.822 306.761 722.919 306.761 724 306.61C725.062 306.479 726.1 306.193 727.079 305.762C724.941 305.504 722.771 305.813 720.79 306.659L720.741 306.61ZM760.709 220.14C759.025 221.481 757.712 223.231 756.896 225.224C758.581 223.883 759.894 222.133 760.709 220.14ZM724.032 256.54C723.935 257.078 723.837 257.615 723.755 258.169C724.039 257.869 724.305 257.554 724.554 257.224C725.226 256.377 725.775 255.439 726.183 254.438C725.371 255.034 724.647 255.742 724.032 256.54ZM779.023 250.723C777.334 252.053 776.02 253.799 775.21 255.79C776.063 255.14 776.82 254.372 777.459 253.509C778.105 252.657 778.632 251.719 779.023 250.723ZM752.579 280.328C750.89 281.658 749.576 283.405 748.766 285.396C749.619 284.745 750.376 283.977 751.014 283.115C751.661 282.262 752.187 281.324 752.579 280.328ZM736.383 316.304C734.698 317.645 733.386 319.395 732.57 321.388C734.255 320.047 735.567 318.297 736.383 316.304ZM779.577 306.707C777.888 308.038 776.574 309.784 775.764 311.775C777.453 310.445 778.767 308.698 779.577 306.707ZM810.534 324.63C808.85 325.971 807.537 327.721 806.722 329.714C808.419 328.385 809.734 326.631 810.534 324.63ZM720.774 278.487L720.676 279.269C721.193 279.576 721.739 279.832 722.305 280.035C721.855 279.462 721.342 278.943 720.774 278.487ZM791.015 281.192C790.353 280.348 789.58 279.597 788.717 278.96C787.873 278.284 786.934 277.735 785.931 277.33C787.26 279.027 789.014 280.343 791.015 281.143V281.192ZM793.54 324.19C792.888 323.343 792.12 322.592 791.259 321.958C790.416 321.28 789.477 320.731 788.473 320.329C789.12 321.18 789.889 321.932 790.754 322.561C791.589 323.233 792.517 323.782 793.508 324.19H793.54ZM748.277 239.057C747.62 238.209 746.847 237.457 745.98 236.825C745.135 236.149 744.197 235.6 743.194 235.195C743.851 236.048 744.624 236.805 745.491 237.444C746.326 238.112 747.254 238.655 748.244 239.057H748.277ZM763.039 301.135C761.721 299.434 759.971 298.118 757.972 297.322C758.624 298.17 759.392 298.921 760.253 299.555C761.095 300.204 762.021 300.735 763.006 301.135H763.039ZM716.277 321.062L716.081 320.932C716.081 321.241 716.081 321.567 716 321.877C716.787 322.459 717.647 322.936 718.558 323.294C717.892 322.448 717.113 321.697 716.244 321.062H716.277ZM757.239 260.63C756.588 259.776 755.82 259.02 754.957 258.381C754.109 257.712 753.171 257.163 752.171 256.752C753.501 258.44 755.247 259.754 757.239 260.564V260.63ZM735.161 293.216C733.82 291.532 732.07 290.219 730.077 289.404C731.396 291.11 733.153 292.428 735.161 293.216ZM750.33 333.021C749.678 332.174 748.91 331.423 748.049 330.789C747.196 330.117 746.253 329.568 745.246 329.16C745.9 330.012 746.674 330.764 747.544 331.392C748.381 332.045 749.308 332.571 750.297 332.956L750.33 333.021Z" fill="white"/>
<path d="M653.864 276.795L640.278 289.58L714.9 368.879L728.487 356.094L653.864 276.795Z" fill="#37474F"/>
<path d="M769.915 393.177L749.369 412.518L697.262 357.136L717.808 337.796L769.915 393.177Z" fill="#263238"/>
<path d="M602.011 309.707C585.3 311.594 568.405 308.482 553.463 300.765C538.521 293.049 526.203 281.075 518.067 266.357C509.931 251.639 506.342 234.839 507.755 218.082C509.168 201.324 515.519 185.362 526.004 172.214C536.49 159.067 550.639 149.324 566.662 144.218C582.685 139.112 599.862 138.873 616.021 143.531C632.18 148.189 646.595 157.534 657.442 170.385C668.29 183.236 675.082 199.015 676.961 215.726C679.453 238.122 672.962 260.592 658.912 278.209C644.862 295.826 624.4 307.154 602.011 309.707ZM584.088 150.406C569.294 152.068 555.324 158.08 543.946 167.681C532.568 177.282 524.293 190.042 520.166 204.346C516.04 218.65 516.247 233.857 520.763 248.044C525.279 262.23 533.9 274.759 545.536 284.045C557.172 293.332 571.3 298.96 586.135 300.218C600.969 301.475 615.843 298.306 628.876 291.11C641.91 283.914 652.516 273.015 659.355 259.791C666.195 246.568 668.959 231.613 667.299 216.818C665.048 196.99 655.026 178.864 639.43 166.414C623.835 153.965 603.938 148.208 584.105 150.406H584.088Z" fill="#263238"/>
<path d="M592.447 312.688C569.661 312.702 547.768 303.829 531.423 287.954C515.077 272.08 505.567 250.456 504.915 227.68C504.263 204.903 512.52 182.771 527.931 165.987C543.342 149.204 564.691 139.092 587.44 137.803C610.189 136.514 632.544 144.149 649.753 159.084C666.961 174.019 677.665 195.077 679.591 217.781C681.516 240.485 674.51 263.045 660.062 280.665C645.614 298.284 624.864 309.574 602.223 312.134C598.976 312.493 595.713 312.678 592.447 312.688ZM592.577 142.633C589.474 142.638 586.374 142.812 583.29 143.154C561.941 145.565 542.374 156.207 528.748 172.817C515.121 189.428 508.51 210.698 510.318 232.106C512.127 253.514 522.213 273.373 538.432 287.462C554.652 301.552 575.727 308.76 597.178 307.556C618.628 306.352 638.764 296.829 653.305 281.013C667.845 265.197 675.645 244.334 675.046 222.858C674.447 201.382 665.496 180.986 650.096 166.005C634.697 151.024 614.062 142.639 592.577 142.633ZM592.463 302.928C572.612 302.907 553.522 295.29 539.108 281.641C524.694 267.992 516.049 249.345 514.946 229.525C513.844 209.704 520.367 190.213 533.178 175.05C545.99 159.886 564.118 150.2 583.844 147.977C604.335 145.676 624.902 151.609 641.019 164.472C657.135 177.334 667.482 196.073 669.784 216.564C672.085 237.056 666.151 257.622 653.289 273.739C640.426 289.856 621.688 300.203 601.196 302.504C598.296 302.814 595.38 302.956 592.463 302.928ZM584.316 152.849C570.016 154.465 556.515 160.285 545.521 169.572C534.528 178.86 526.534 191.198 522.551 205.027C518.568 218.857 518.774 233.557 523.143 247.269C527.513 260.981 535.85 273.09 547.099 282.066C558.349 291.041 572.008 296.48 586.348 297.694C600.688 298.909 615.067 295.845 627.666 288.89C640.265 281.934 650.52 271.4 657.133 258.618C663.747 245.836 666.423 231.38 664.822 217.078C662.645 197.893 652.946 180.355 637.853 168.313C622.759 156.272 603.506 150.71 584.316 152.849Z" fill="#263238"/>
<g opacity="0.2">
<path opacity="0.2" d="M645.189 175.66C654.989 186.08 661.48 199.172 663.84 213.28C666.199 227.389 664.323 241.881 658.447 254.923C652.571 267.965 642.959 278.971 630.828 286.551C618.696 294.131 604.59 297.943 590.292 297.505C575.994 297.068 562.147 292.4 550.502 284.093C538.856 275.786 529.936 264.212 524.868 250.835C519.8 237.459 518.813 222.879 522.031 208.941C525.249 195.003 532.528 182.333 542.947 172.531C549.866 166.023 557.998 160.942 566.881 157.577C575.764 154.212 585.222 152.629 594.716 152.92C604.21 153.21 613.554 155.368 622.214 159.27C630.874 163.171 638.681 168.741 645.189 175.66Z" fill="white"/>
<path opacity="0.2" d="M656.985 192.394C665.652 209.402 667.249 229.146 661.43 247.327C655.611 265.508 642.846 280.655 625.913 289.47L656.985 192.394Z" fill="#EBEBEB"/>
<path opacity="0.2" d="M595.542 152.947L552.951 285.82C548.194 282.667 543.819 278.97 539.916 274.806C535.394 270.013 531.556 264.617 528.511 258.773L559.827 160.752C570.868 155.137 583.166 152.45 595.542 152.947Z" fill="#EBEBEB"/>
<path opacity="0.2" d="M639.991 170.658L599.469 297.209C594.745 297.674 589.986 297.674 585.261 297.209L628.423 162.381C632.55 164.74 636.426 167.513 639.991 170.658Z" fill="#EBEBEB"/>
<path opacity="0.2" d="M605.384 154.054L561.652 290.643C560.854 290.268 560.023 289.893 559.306 289.486L602.793 153.631C603.657 153.745 604.52 153.875 605.384 154.054Z" fill="#EBEBEB"/>
<path opacity="0.2" d="M540.357 175.09L520.951 235.702C520.625 233.551 520.413 231.4 520.299 229.184L536.088 179.88C537.424 178.283 538.841 176.654 540.357 175.09Z" fill="#EBEBEB"/>
</g>
<path d="M777.117 222.959C785.54 232.735 820.685 280.329 820.588 302.439C820.588 315.979 786.274 354.773 777.361 363.865C773.467 367.825 745.589 343.564 745.849 337.633C746.11 331.702 779.675 297.355 781.206 293.184C781.206 293.184 769.214 254.601 762.86 234.055C756.864 214.633 761.41 204.743 777.117 222.959Z" fill="#AD6359"/>
<path d="M724.782 364.712C719.666 369.405 709.059 371.36 711.291 376.02C713.263 380.175 720.481 378.105 720.481 378.105C720.481 378.105 713.1 383.075 716.505 386.936C719.91 390.798 727.357 386.936 727.357 386.936C727.357 386.936 721.018 390.782 724.701 394.399C728.383 398.016 735.291 395.849 735.291 395.849C735.291 395.849 734.232 398.195 737.98 399.58C743.324 401.552 753.817 395.116 758.51 390.439C763.202 385.763 776.889 365.233 778.925 362.04L749.239 331.718C749.239 331.718 737.084 336.182 731.186 339.18C725.287 342.178 708.652 357.51 712.171 361.893C715.69 366.276 727.259 355.278 730.68 353.193C734.102 351.107 735.177 351.563 734.363 353.698C733.809 355.066 727.031 362.626 724.782 364.712Z" fill="#AD6359"/>
<path d="M720.774 377.845C730.55 374.244 734.314 370.953 740.619 362.79C740.733 362.627 741.01 362.79 740.896 362.953C735.438 371.523 731.414 376.297 720.921 378.318C720.399 378.432 720.301 378.008 720.774 377.845Z" fill="#263238"/>
<path d="M726.9 386.954C736.807 382.326 740.831 378.807 748.082 370.66C748.18 370.546 748.392 370.66 748.294 370.823C741.858 379.345 737.736 384.021 727.226 387.345C726.737 387.573 726.444 387.231 726.9 386.954Z" fill="#263238"/>
<path d="M735.438 395.687C744.709 390.505 749.288 386.839 755.316 378.106C755.347 378.075 755.387 378.055 755.431 378.049C755.474 378.044 755.518 378.053 755.556 378.076C755.594 378.098 755.622 378.133 755.638 378.174C755.654 378.215 755.655 378.26 755.642 378.302C750.379 387.817 744.693 392.428 735.634 395.964C734.933 396.192 734.77 396.013 735.438 395.687Z" fill="#263238"/>
<path d="M768.546 262.195L805.044 256.655C805.044 256.655 781.06 223.922 771.284 216.296C760.286 207.693 758.249 215.205 759.878 228.402C761.508 241.6 768.546 262.195 768.546 262.195Z" fill="#1047F7"/>
<path d="M798.983 250.951C797.695 250.951 786.29 252.499 783.83 252.89C781.369 253.281 771.235 254.78 768.726 255.383C768.7 255.383 768.675 255.393 768.657 255.412C768.638 255.43 768.628 255.455 768.628 255.481C768.628 255.507 768.638 255.532 768.657 255.55C768.675 255.568 768.7 255.579 768.726 255.579C771.3 255.448 781.5 253.949 784.025 253.607C786.551 253.265 797.81 251.489 799.015 251.13C799.064 251.098 798.983 250.951 798.983 250.951Z" fill="#263238"/>
<path d="M771.43 261.771C770.323 261.853 768.595 262.064 768.595 262.064C767.129 258.024 761.589 237.005 760.155 231.954C760.155 231.873 760.025 231.954 760.041 231.954C760.66 234.854 761.301 237.755 761.964 240.655L761.524 239.612C761.003 238.374 760.449 237.168 759.895 235.914C759.895 235.892 759.886 235.871 759.871 235.856C759.856 235.841 759.835 235.832 759.813 235.832C759.792 235.832 759.771 235.841 759.756 235.856C759.74 235.871 759.732 235.892 759.732 235.914C760.085 237.216 760.521 238.495 761.035 239.742C761.41 240.606 761.834 241.453 762.29 242.284C762.681 243.914 763.056 245.543 763.479 247.254C764.815 252.321 766.005 257.616 767.732 262.57C768.977 262.475 770.21 262.262 771.414 261.934C771.435 261.913 771.448 261.885 771.451 261.856C771.454 261.826 771.447 261.796 771.43 261.771Z" fill="#263238"/>
<path d="M644.52 322.888C645.059 324.212 646.008 325.329 647.228 326.074C648.448 326.819 649.875 327.153 651.298 327.026C651.298 327.026 647.844 332.42 650.777 336.802C652.292 339.1 657.295 338.692 657.295 338.692C657.295 338.692 654.72 343.157 657.571 346.953C659.853 349.968 664.513 349.12 664.513 349.12C664.513 349.12 664.024 354.546 667.331 356.876C674.028 361.617 701.906 344.933 700.065 332.094C699.201 326.098 692.619 330.546 692.619 330.546C692.619 330.546 700.554 321.861 697.262 316.028C693.971 310.195 685.759 316.484 685.759 316.484C685.759 316.484 693.368 308.012 689.344 302.309C685.319 296.606 678.02 304.069 678.02 304.069C678.02 304.069 681.702 296.15 677.612 292.501C670.883 286.439 663.486 304.509 656.431 306.725L647.111 296.786C647.111 296.786 642.158 317.592 644.52 322.888Z" fill="#AD6359"/>
<path d="M665.229 349.153C665.208 349.153 665.187 349.161 665.172 349.177C665.157 349.192 665.148 349.213 665.148 349.234C665.148 349.256 665.157 349.277 665.172 349.292C665.187 349.307 665.208 349.316 665.229 349.316C676.165 345.969 685.825 339.378 692.928 330.415C693.14 330.122 692.765 329.633 692.472 329.91C684.371 337.609 675.194 344.091 665.229 349.153Z" fill="#263238"/>
<path d="M657.23 338.904C657.116 338.904 657.23 339.148 657.344 339.099C668.146 335.694 679.812 327.694 686.265 316.614C686.493 316.223 686.265 315.669 686.02 316.076C681.1 323.148 666.598 334.293 657.23 338.904Z" fill="#263238"/>
<path d="M678.199 303.173C671.6 313.584 662.329 320.835 651.738 326.896C651.608 326.977 651.738 327.173 651.869 327.124C657.848 325.495 664.203 320.998 668.83 317.022C673.226 313.417 676.597 308.719 678.606 303.401C678.639 303.189 678.411 302.945 678.199 303.173Z" fill="#263238"/>
<path d="M739.185 210.609C734.884 213.868 730.941 229.542 740.815 231.79C750.688 234.039 759.764 218.495 761.116 213.476C762.469 208.458 748.473 203.7 739.185 210.609Z" fill="#37474F"/>
<path d="M742.037 228.63C747.609 229.347 756.066 220.06 759.031 212.956C759.243 212.467 758.021 207.677 756.815 201.778C756.098 198.21 755.381 194.218 755.007 190.52L732.408 198.585C734.219 203.063 735.472 207.748 736.139 212.532C736.188 213.041 736.188 213.554 736.139 214.064C736.139 214.145 736.139 214.227 736.139 214.324C735.96 217.257 736.66 227.929 742.037 228.63Z" fill="#AD6359"/>
<path d="M753.931 190.894C753.687 195.586 751.911 212.499 738.518 214.21C737.729 214.309 736.934 214.348 736.139 214.324C736.131 214.237 736.131 214.15 736.139 214.063C736.188 213.554 736.188 213.041 736.139 212.531C735.469 207.747 734.216 203.063 732.408 198.584L753.931 190.894Z" fill="#263238"/>
<path d="M754.811 165.15C757.76 173.297 754.615 197.346 749.027 202.967C740.88 211.114 727.014 212.564 719.943 202.674C713.083 193.077 717.727 161.794 724.033 156.613C733.32 149.003 750.461 153.158 754.811 165.15Z" fill="#AD6359"/>
<path d="M733.646 180.434C733.646 180.434 733.76 180.531 733.76 180.597C733.499 182.226 733.483 184.1 734.884 184.817C734.884 184.817 734.884 184.931 734.884 184.914C733.092 184.442 733.141 181.933 733.646 180.434Z" fill="#263238"/>
<path d="M735.308 178.919C737.947 179.05 737.491 184.312 735.047 184.198C732.603 184.084 733.092 178.822 735.308 178.919Z" fill="#263238"/>
<path d="M724.277 179.685C724.277 179.685 724.13 179.685 724.13 179.815C724.049 181.444 723.674 183.302 722.143 183.725V183.807C724.033 183.709 724.456 181.249 724.277 179.685Z" fill="#263238"/>
<path d="M722.957 177.859C720.367 177.436 719.699 182.666 722.11 183.057C724.521 183.448 725.141 178.218 722.957 177.859Z" fill="#263238"/>
<path d="M737.589 176.702C736.917 176.437 736.259 176.138 735.617 175.806C734.874 175.591 734.226 175.132 733.776 174.502C733.667 174.282 733.636 174.031 733.689 173.791C733.743 173.551 733.877 173.336 734.069 173.183C734.493 172.93 734.977 172.797 735.471 172.797C735.964 172.797 736.448 172.93 736.872 173.183C737.814 173.546 738.59 174.242 739.055 175.138C739.136 175.347 739.156 175.574 739.114 175.794C739.071 176.014 738.967 176.218 738.814 176.381C738.661 176.545 738.464 176.661 738.248 176.718C738.031 176.775 737.803 176.769 737.589 176.702Z" fill="#263238"/>
<path d="M721.149 175.04C721.898 175.04 722.566 174.796 723.3 174.666C724.067 174.645 724.807 174.37 725.401 173.883C725.551 173.69 725.632 173.452 725.632 173.207C725.632 172.963 725.551 172.725 725.401 172.531C725.06 172.174 724.629 171.914 724.153 171.78C723.678 171.645 723.175 171.64 722.697 171.765C721.696 171.885 720.771 172.359 720.09 173.101C719.946 173.287 719.86 173.51 719.841 173.744C719.823 173.977 719.873 174.211 719.985 174.417C720.098 174.623 720.268 174.791 720.474 174.902C720.681 175.013 720.915 175.061 721.149 175.04Z" fill="#263238"/>
<path d="M727.715 192.491C728.399 193.385 729.303 194.087 730.338 194.528C730.912 194.74 731.537 194.774 732.131 194.626C733.434 194.284 733.45 193.094 733.222 192.084C733.089 191.547 732.892 191.027 732.636 190.536C731.244 191.693 729.521 192.378 727.715 192.491Z" fill="#263238"/>
<path d="M730.338 194.528C730.912 194.74 731.537 194.774 732.131 194.626C733.434 194.284 733.45 193.094 733.222 192.084C732.538 192.113 731.883 192.369 731.361 192.811C730.839 193.254 730.479 193.858 730.338 194.528Z" fill="#F392B9"/>
<path d="M755.658 187.424C751.178 186.136 748.962 171.13 748.962 171.13C748.962 171.13 748.962 177.501 747.789 177.338C746.615 177.175 741.727 168.523 741.271 162.332C737.723 164.648 733.889 166.493 729.866 167.823C724.212 169.452 717.939 169.093 717.939 168.132C717.939 165.264 720.579 157.786 724.456 155.097C727.303 152.956 730.664 151.605 734.201 151.181C737.738 150.758 741.324 151.277 744.595 152.686C753.833 156.254 756.245 162.218 757.63 166.829C759.015 171.44 757.304 187.896 755.658 187.424Z" fill="#263238"/>
<path d="M735.047 190.194C733.026 189.648 731.303 188.322 730.259 186.508C729.214 184.693 728.932 182.538 729.475 180.515C729.859 179.087 730.637 177.795 731.72 176.786C732.803 175.778 734.147 175.094 735.6 174.812C737.052 174.53 738.555 174.661 739.936 175.191C741.318 175.721 742.523 176.629 743.414 177.81C744.305 178.991 744.847 180.399 744.977 181.872C745.108 183.346 744.822 184.827 744.152 186.147C743.482 187.466 742.455 188.571 741.189 189.335C739.922 190.1 738.466 190.493 736.986 190.471C736.331 190.457 735.68 190.364 735.047 190.194ZM730.55 180.792C730.21 182.1 730.265 183.48 730.707 184.757C731.15 186.034 731.961 187.151 733.038 187.968C734.114 188.784 735.409 189.264 736.758 189.346C738.107 189.428 739.45 189.109 740.618 188.428C741.785 187.748 742.726 186.737 743.32 185.523C743.914 184.31 744.135 182.947 743.956 181.607C743.777 180.268 743.205 179.011 742.312 177.997C741.42 176.982 740.247 176.254 738.941 175.904C738.408 175.769 737.862 175.693 737.312 175.676C735.775 175.651 734.274 176.141 733.049 177.068C731.823 177.995 730.943 179.307 730.55 180.792Z" fill="#455A64"/>
<path d="M718.525 187.978C715.267 187.554 713.149 183.709 713.719 179.391C713.935 177.433 714.762 175.592 716.081 174.129C716.604 173.456 717.294 172.932 718.082 172.608C718.87 172.284 719.728 172.172 720.573 172.282C721.418 172.393 722.219 172.722 722.897 173.237C723.575 173.753 724.107 174.436 724.44 175.22C725.341 176.97 725.666 178.961 725.369 180.907C724.847 184.996 722.11 188.06 719.031 188.011L718.525 187.978ZM716.896 174.862C715.73 176.158 715.001 177.788 714.811 179.522C714.322 183.269 716.065 186.593 718.705 186.935C721.344 187.277 723.886 184.524 724.375 180.776C724.636 179.049 724.351 177.283 723.56 175.725C723.272 175.115 722.843 174.582 722.307 174.171C721.771 173.76 721.145 173.483 720.481 173.363H720.09C719.474 173.369 718.866 173.506 718.307 173.764C717.748 174.023 717.251 174.397 716.847 174.862H716.896Z" fill="#455A64"/>
<path d="M729.622 181.46L730.387 180.743C729.345 179.586 726.77 177.892 724.587 179.684L725.255 180.499C727.292 178.886 729.524 181.346 729.622 181.46Z" fill="#455A64"/>
<path d="M759.585 187.717L760.579 187.342C760.4 186.886 758.95 182.813 756.587 182.128C752.514 181.589 748.411 181.306 744.302 181.281V182.324C748.324 182.329 752.341 182.601 756.327 183.139C757.793 183.562 759.178 186.593 759.585 187.717Z" fill="#455A64"/>
<path d="M749.564 184.475C749.564 184.475 754.713 176.589 758.281 178.397C761.85 180.206 758.135 191.53 754.078 193.192C753.57 193.439 753.018 193.581 752.455 193.61C751.891 193.638 751.328 193.552 750.798 193.357C750.268 193.163 749.784 192.863 749.373 192.476C748.962 192.089 748.634 191.623 748.407 191.106L749.564 184.475Z" fill="#AD6359"/>
<path d="M757.141 181.606V181.72C754.306 182.975 752.872 185.696 751.894 188.499C752.054 188.205 752.275 187.95 752.543 187.75C752.81 187.55 753.118 187.41 753.445 187.341C753.771 187.271 754.109 187.273 754.435 187.346C754.761 187.42 755.067 187.563 755.332 187.765C755.332 187.765 755.332 187.945 755.251 187.928C754.74 187.78 754.196 187.794 753.693 187.969C753.191 188.144 752.756 188.472 752.448 188.906C751.943 189.638 751.512 190.419 751.161 191.236C751.047 191.497 750.575 191.383 750.656 191.073C750.509 187.342 753.198 182.112 757.141 181.606Z" fill="#263238"/>
<path d="M730.289 152.246C733.145 150.669 736.221 149.527 739.414 148.857C742.982 148.173 754.404 148.303 757.336 150.486C760.269 152.67 761.638 163.244 761.801 164.808C761.964 166.373 761.899 175.888 758.624 178.397C755.349 180.906 753.964 164.841 748.196 159.855C742.428 154.869 730.289 152.246 730.289 152.246Z" fill="#1047F7"/>
<path opacity="0.1" d="M730.289 152.246C730.289 152.246 742.379 154.787 748.212 159.773C754.045 164.759 755.365 180.824 758.64 178.315C759.387 177.657 759.996 176.857 760.432 175.962C760.868 175.067 761.123 174.095 761.182 173.101C760.155 168.458 757.776 161.288 753.524 156.482C749.548 152.001 743.063 149.964 736.269 149.688C734.207 150.37 732.207 151.226 730.289 152.246Z" fill="black"/>
<path d="M758.249 187.929C757.662 183.66 752.546 172.467 747.544 166.194C742.542 159.921 728.839 156.939 726.965 157.183C722.42 157.737 720.97 159.22 720.22 158.813C719.471 158.405 723.935 154.707 725.108 153.925C726.281 153.143 729.687 151.041 731.625 150.943C733.564 150.845 745.915 151.285 750.705 156.206C755.495 161.126 762.746 175.334 761.834 179.147C761.622 180.076 760.465 180.776 760.204 182.031C759.813 183.66 759.601 185.681 759.161 186.919C758.721 188.157 758.249 188.288 758.249 187.929Z" fill="#1047F7"/>
<path d="M746.322 163.309C747.323 162.592 748.266 161.797 749.141 160.93C750.038 160.07 750.831 159.107 751.503 158.062C751.503 158.063 751.666 158.062 751.617 158.062C751.105 159.259 750.395 160.361 749.516 161.321C748.636 162.252 747.584 163.004 746.42 163.537C746.306 163.57 746.208 163.374 746.322 163.309Z" fill="#263238"/>
<path d="M756.245 179.098C756.642 178.608 757.012 178.096 757.353 177.566C757.656 177.039 757.928 176.495 758.168 175.937C758.396 175.367 758.591 174.796 758.819 174.226C759.047 173.656 759.422 172.923 759.65 172.238C759.65 172.157 759.813 172.238 759.781 172.238C759.553 172.939 759.422 173.688 759.21 174.405C759.015 175.017 758.781 175.616 758.51 176.198C758.258 176.769 757.953 177.314 757.597 177.827C757.257 178.351 756.814 178.8 756.294 179.147C756.294 179.147 756.212 179.147 756.245 179.098Z" fill="#263238"/>
<path d="M754.404 175.008C755.282 174.175 756.029 173.213 756.619 172.156C757.173 171.146 757.679 170.103 758.167 169.061C758.167 169.061 758.33 169.061 758.298 169.061C758.018 170.226 757.597 171.354 757.043 172.417C756.759 172.925 756.42 173.4 756.033 173.835C755.593 174.283 755.1 174.677 754.566 175.008C754.566 175.008 754.338 175.073 754.404 175.008Z" fill="#263238"/>
<path d="M752.448 171.114C752.877 170.779 753.237 170.364 753.507 169.892C753.85 169.387 754.176 168.866 754.485 168.263C754.795 167.66 755.104 167.269 755.398 166.764C755.731 166.273 755.959 165.718 756.066 165.134C756.066 165.053 756.196 165.053 756.212 165.134C756.197 165.725 756.064 166.307 755.821 166.845C755.583 167.45 755.294 168.033 754.958 168.589C754.626 169.152 754.261 169.696 753.866 170.218C753.541 170.69 753.081 171.054 752.546 171.261C752.432 171.31 752.351 171.179 752.448 171.114Z" fill="#263238"/>
<path d="M742.868 161.077C743.259 160.523 743.634 159.986 744.074 159.448C744.522 158.926 745.001 158.431 745.507 157.965C746.47 157.028 747.536 156.203 748.685 155.505C748.685 155.505 748.848 155.505 748.782 155.603C746.876 157.476 744.872 159.269 742.982 161.159L742.868 161.077Z" fill="#263238"/>
<path d="M740.033 157.59C740.428 157.043 740.888 156.545 741.402 156.107C742.493 155.22 743.679 154.455 744.937 153.826C745.019 153.826 745.1 153.826 745.019 153.94C743.96 154.755 742.884 155.57 741.858 156.417C741.351 156.842 740.867 157.293 740.408 157.769C739.968 158.258 739.626 158.828 739.202 159.399C739.202 159.399 739.088 159.399 739.104 159.399C739.281 158.736 739.597 158.119 740.033 157.59Z" fill="#263238"/>
<path d="M736.351 156.14C736.72 155.612 737.14 155.121 737.605 154.674C738.487 153.825 739.506 153.13 740.619 152.621C740.701 152.621 740.75 152.703 740.619 152.751C739.622 153.455 738.68 154.234 737.801 155.081C737.377 155.521 736.953 155.961 736.546 156.417C736.139 156.874 735.78 157.411 735.324 157.802C735.324 157.802 735.243 157.802 735.324 157.802C735.613 157.217 735.957 156.661 736.351 156.14Z" fill="#263238"/>
<path d="M733.63 154.234L734.949 153.094C735.382 152.712 735.871 152.399 736.399 152.165C736.399 152.165 736.514 152.165 736.399 152.279C735.568 153.045 734.77 153.811 733.923 154.593C733.218 155.352 732.6 156.189 732.082 157.086H732C732.242 155.992 732.81 154.998 733.63 154.234Z" fill="#263238"/>
<path d="M730.371 153.68C731.152 152.854 732.087 152.19 733.124 151.725C733.124 151.725 733.255 151.725 733.124 151.839C732.194 152.419 731.359 153.139 730.648 153.973C729.924 154.793 729.29 155.689 728.758 156.645C728.758 156.645 728.644 156.645 728.66 156.645C728.997 155.539 729.582 154.525 730.371 153.68Z" fill="#263238"/>
<path d="M726.281 155.863C726.379 155.635 726.493 155.407 726.607 155.195C726.861 154.756 727.156 154.341 727.487 153.957C728.184 153.203 728.959 152.525 729.801 151.937C729.801 151.937 729.947 151.937 729.801 152.051C729.002 152.651 728.28 153.345 727.65 154.12C727.34 154.502 727.057 154.905 726.803 155.326C726.672 155.521 726.574 155.733 726.46 155.945C726.377 156.166 726.273 156.378 726.151 156.58H726.021C726.061 156.327 726.15 156.084 726.281 155.863Z" fill="#263238"/>
<path d="M723.723 156.287C723.943 155.932 724.183 155.589 724.44 155.261C724.701 154.951 724.978 154.641 725.271 154.348C725.564 154.055 725.907 153.778 726.2 153.468C726.493 153.159 726.363 153.468 726.298 153.566C725.989 153.863 725.706 154.184 725.45 154.527L724.701 155.489C724.456 155.798 724.196 156.108 723.951 156.434C723.725 156.773 723.481 157.099 723.218 157.411H723.12C723.271 157.012 723.474 156.634 723.723 156.287Z" fill="#263238"/>
<path d="M1028.05 399.077C1009.79 423.81 990.756 452.487 986.129 483.493C986.129 483.966 986.83 484.113 986.927 483.656C989.051 475.197 991.774 466.899 995.074 458.825C1007.07 455.566 1018.85 452.813 1025.15 440.902C1031.57 428.666 1030.76 412.698 1029.53 399.354C1029.39 398.637 1028.43 398.637 1028.05 399.077Z" fill="#1047F7"/>
<path d="M995.188 458.597C1003.34 440.201 1013.91 421.725 1027.29 406.588C1027.31 406.569 1027.33 406.558 1027.36 406.558C1027.39 406.558 1027.41 406.569 1027.43 406.588C1027.45 406.607 1027.46 406.634 1027.46 406.661C1027.46 406.689 1027.45 406.715 1027.43 406.735C1018.68 417.505 1012.02 429.252 1005.52 441.195C1011.56 435.053 1018.19 429.562 1023.91 423.044C1024.03 422.93 1024.21 423.044 1024.09 423.24C1018.41 430.051 1012.2 437.464 1004.8 442.515C1002.81 446.181 1000.81 449.863 998.773 453.529C999.278 453.252 999.783 453.008 1000.3 452.747C1000.39 452.747 1000.47 452.845 1000.39 452.894C999.816 453.171 999.262 453.481 998.675 453.725L995.775 458.939C995.547 459.33 995.009 458.923 995.188 458.597Z" fill="#263238"/>
<path d="M1001.28 452.177C1006.19 449.43 1010.87 446.303 1015.29 442.824C1015.41 442.726 1015.59 442.824 1015.47 442.987C1011.19 446.684 1006.5 449.882 1001.49 452.519C1001.27 452.633 1001.02 452.307 1001.28 452.177Z" fill="#263238"/>
<path d="M984.011 478.882C984.011 479.256 984.695 479.256 984.679 478.882C984.777 468.682 984.679 458.417 984.842 448.168C987.465 442.889 992.989 440.022 996.981 435.737C999.787 432.647 1002.23 429.247 1004.26 425.602C1008.96 416.882 1011.83 407.297 1012.7 397.431C1013.78 386.514 1009.64 350.489 1005.03 351.727C1002.65 352.379 994.928 370.237 992.875 376.168C989.551 385.899 987.119 395.911 985.608 406.082C981.877 430.034 982.186 454.702 984.011 478.882Z" fill="#1047F7"/>
<path d="M983.946 434.841C984.5 421.92 987.416 408.869 990.137 396.339C993.07 382.848 996.492 370.139 1003.45 358.098C1003.58 357.887 1003.91 358.098 1003.79 358.31C999.155 367.661 995.57 377.497 993.103 387.639C993.559 386.922 994.129 386.221 994.618 385.537C994.797 385.26 995.253 385.537 995.058 385.797C994.436 386.89 993.704 387.916 992.874 388.861H992.777C990.398 398.506 988.671 408.413 987.204 418.189L987.53 417.798C987.53 417.716 987.742 417.798 987.677 417.912C987.612 418.026 987.302 418.564 987.09 418.889C986.357 423.891 985.673 428.877 984.988 433.814C993.885 426.221 1001.48 417.26 1005.76 406.213C1005.76 406.213 1005.86 406.213 1005.76 406.213C1001.56 417.619 994.944 427.851 984.76 434.808C984.581 436.144 984.386 437.464 984.19 438.8C984.19 439.077 983.718 438.996 983.718 438.8C983.718 437.611 983.718 436.437 983.832 435.264C983.806 435.231 983.788 435.191 983.78 435.15C983.772 435.108 983.773 435.065 983.784 435.024C983.795 434.984 983.816 434.946 983.844 434.914C983.872 434.882 983.907 434.857 983.946 434.841Z" fill="#263238"/>
<path d="M988.133 416.135C994.928 405.984 1001.28 396.127 1006.25 384.917C1006.27 384.896 1006.29 384.882 1006.32 384.875C1006.35 384.869 1006.38 384.872 1006.4 384.883C1006.43 384.893 1006.45 384.912 1006.46 384.936C1006.48 384.96 1006.48 384.987 1006.48 385.015C1002.29 396.143 996.41 407.434 988.475 416.396C988.312 416.559 987.987 416.331 988.133 416.135Z" fill="#263238"/>
<path d="M997.16 382.343C999.979 377.357 1002.96 372.567 1005.6 367.435C1005.68 367.288 1005.88 367.435 1005.81 367.549C1003.67 372.856 1000.93 377.906 997.665 382.604C997.421 382.913 996.997 382.702 997.16 382.343Z" fill="#263238"/>
<path d="M977.103 449.357C976.973 456.126 976.176 462.866 974.724 469.479C974.822 470.196 974.936 470.929 975.033 471.679C977.114 464.374 978.323 456.848 978.634 449.259C978.694 449.152 978.726 449.032 978.726 448.909C978.726 448.786 978.694 448.666 978.634 448.559C978.931 438.386 978.188 428.209 976.418 418.188C973.258 399.417 966.349 381.413 953.249 367.352C953.143 367.257 953.016 367.189 952.879 367.152C952.742 367.115 952.598 367.11 952.459 367.139C952.319 367.167 952.189 367.228 952.077 367.316C951.965 367.404 951.876 367.517 951.815 367.645C946.536 381.071 948.377 397.087 952.874 410.481C955.316 417.737 958.813 424.594 963.253 430.831C967.734 437.121 973.453 442.465 977.103 449.357Z" fill="#1047F7"/>
<path d="M954.797 373.609C967.212 393.748 975.832 417.602 976.891 441.374C976.891 441.798 976.206 441.912 976.141 441.488C975.848 439.353 975.522 437.235 975.18 435.117C970.047 430.229 964.768 425.015 961.102 418.824C961.093 418.8 961.091 418.774 961.098 418.749C961.105 418.725 961.12 418.703 961.141 418.688C961.161 418.673 961.187 418.665 961.212 418.666C961.238 418.667 961.262 418.677 961.282 418.693C965.541 423.917 970.106 428.884 974.952 433.569C974.056 428.306 973.013 423.141 971.693 418.042L970.716 416.885C970.504 416.624 970.862 416.266 971.074 416.51L971.384 416.852C969.623 409.863 967.447 402.986 964.866 396.257C961.705 392.493 958.169 389.235 955.872 384.705C955.866 384.684 955.866 384.662 955.874 384.641C955.882 384.621 955.896 384.604 955.915 384.592C955.934 384.581 955.956 384.576 955.978 384.579C955.999 384.582 956.02 384.592 956.035 384.607C957.893 387.198 959.685 389.805 961.77 392.216C962.618 393.178 963.53 394.074 964.394 395.019C961.54 387.717 958.147 380.637 954.243 373.837C954.213 373.764 954.213 373.681 954.243 373.608C954.274 373.535 954.332 373.477 954.406 373.446C954.479 373.416 954.562 373.416 954.635 373.447C954.708 373.477 954.767 373.536 954.797 373.609Z" fill="#263238"/>
<path d="M957.306 398.44C961.314 403.834 965.892 408.982 969.607 414.555C969.721 414.718 969.493 414.881 969.347 414.766C964.594 409.916 960.457 404.498 957.029 398.636C956.931 398.424 957.192 398.294 957.306 398.44Z" fill="#263238"/>
<path d="M970.178 415.81L970.341 415.989C970.471 416.103 970.341 416.282 970.161 416.168L969.999 415.989C969.868 415.875 970.064 415.696 970.178 415.81Z" fill="#263238"/>
<path d="M935.375 412.306C936.815 423.542 941.325 434.164 948.41 443.003C951.33 446.476 954.942 449.3 959.017 451.296C963.628 453.561 968.434 456.184 973.192 458.042C975.45 463.803 977.131 469.774 978.21 475.867C978.373 475.345 978.52 474.808 978.683 474.238C975.62 448.021 958.658 425.618 936.955 411.231C936.784 411.123 936.584 411.067 936.381 411.07C936.178 411.074 935.981 411.137 935.813 411.251C935.645 411.365 935.514 411.526 935.437 411.713C935.359 411.901 935.337 412.107 935.375 412.306Z" fill="#1047F7"/>
<path d="M942.87 420.046C942.723 419.916 942.87 419.639 943.098 419.769C955.03 428.635 964.553 440.348 970.797 453.839C970.943 454.197 970.454 454.523 970.259 454.165C969.249 452.389 968.222 450.678 967.163 448.984C962.275 448.055 957.534 444.568 953.851 441.26C953.832 441.241 953.821 441.215 953.821 441.187C953.821 441.16 953.832 441.133 953.851 441.114C953.871 441.094 953.897 441.083 953.925 441.083C953.952 441.083 953.979 441.094 953.998 441.114C955.892 442.842 958.001 444.321 960.271 445.513C962.324 446.449 964.423 447.281 966.56 448.006C964.719 445.089 962.813 442.303 960.809 439.582C955.463 437.55 950.449 434.733 945.933 431.224C945.786 431.126 945.933 430.882 946.063 430.979C950.543 433.683 955.16 436.152 959.896 438.377C956.872 434.38 953.607 430.571 950.12 426.971C948.491 426.091 946.731 425.195 945.102 424.234C944.971 424.234 945.102 423.941 945.2 423.989C946.559 424.459 947.856 425.094 949.061 425.879C947.057 423.908 945.037 421.953 942.87 420.046Z" fill="#263238"/>
<path d="M943.326 429.106C943.625 429.282 943.909 429.484 944.173 429.709C944.173 429.709 944.173 429.871 944.059 429.839C943.763 429.692 943.475 429.529 943.196 429.35C943.049 429.252 943.18 429.008 943.326 429.106Z" fill="#263238"/>
<path d="M1012.57 532.634H953.118L957.909 478.491L958.968 466.548H1006.72L1007.77 478.491L1012.57 532.634Z" fill="#455A64"/>
<path d="M1007.77 478.491H957.909L958.968 466.548H1006.72L1007.77 478.491Z" fill="#263238"/>
<path d="M1009.56 458.188H956.117V470.001H1009.56V458.188Z" fill="#455A64"/>
</svg>
