<svg width="54" height="68" viewBox="0 0 54 68" fill="none" xmlns="http://www.w3.org/2000/svg">
<path d="M38.7143 57.5714V63C38.7143 65.2091 36.9234 67 34.7143 67H5C2.79087 67 1 65.2091 1 63V5C1 2.79086 2.79086 1 5 1H34.7143C36.9234 1 38.7143 2.79086 38.7143 5V26.9286" stroke="black" stroke-width="2" stroke-linecap="round" stroke-linejoin="round"/>
<path d="M1 8.54297H38.7143" stroke="black" stroke-width="2" stroke-linecap="round"/>
<path d="M17.0286 3.77148C16.4763 3.77148 16.0286 4.2192 16.0286 4.77148C16.0286 5.32377 16.4763 5.77148 17.0286 5.77148V3.77148ZM22.6857 5.77148C23.238 5.77148 23.6857 5.32377 23.6857 4.77148C23.6857 4.2192 23.238 3.77148 22.6857 3.77148V5.77148ZM17.0286 5.77148H22.6857V3.77148H17.0286V5.77148Z" fill="black"/>
<path d="M4.77148 57.5723L38.7144 57.5723" stroke="black" stroke-width="2" stroke-linecap="round"/>
<circle cx="19.8571" cy="61.3427" r="1.88571" fill="black"/>
<path d="M36.3722 49.9167L46.7928 62.8324C47.835 64.1242 49.7572 64.2531 50.9626 63.1121V63.1121C52.1574 61.981 52.1465 60.0753 50.9389 58.9579L44.8308 53.3066M38.5696 47.4225L42.7521 51.4755" stroke="black" stroke-width="2" stroke-linecap="round" stroke-linejoin="round"/>
<path d="M36.372 49.9178C33.8884 51.4013 30.0721 52.2374 27.2321 51.686C24.3922 51.1345 21.8554 49.555 20.1074 47.2498C18.3594 44.9445 17.5231 42.0756 17.7585 39.1922C17.9939 36.3088 19.2845 33.6135 21.3833 31.6223C23.482 29.6312 26.2414 28.484 29.1332 28.4005C32.025 28.317 34.846 29.303 37.0562 31.1698C39.2663 33.0365 40.7103 35.6528 41.1117 38.5179C41.5131 41.3829 40.1814 45.0211 38.5693 47.4233" stroke="black" stroke-width="2" stroke-linecap="round" stroke-linejoin="round"/>
<path d="M21.5786 43.5801C20.8239 41.3854 20.9052 38.9896 21.8069 36.8511C22.7086 34.7127 24.4752 32.9108 26.5734 31.9191" stroke="black" stroke-width="2" stroke-linecap="round" stroke-linejoin="round"/>
<path d="M30.0264 37.5918L26.9897 43.918C26.6594 44.6061 26.6017 45.3937 26.8282 46.1225V46.1225C26.9585 46.5417 27.4174 46.762 27.826 46.6015L28.1715 46.4657C28.6608 46.2734 29.0625 45.908 29.3001 45.439V45.439M32.4818 38.7704L31.8136 40.0549" stroke="black" stroke-width="2" stroke-linecap="round" stroke-linejoin="round"/>
<path d="M32.5171 38.6962V38.6962C33.762 38.9006 34.9926 38.2595 35.5385 37.1222L35.6648 36.859C36.4369 35.2505 35.7589 33.3207 34.1504 32.5486L33.8367 32.398C32.2282 31.6259 30.2984 32.3039 29.5263 33.9124L29.4 34.1756C28.854 35.3129 29.1235 36.674 30.0617 37.5175V37.5175" stroke="black" stroke-width="2" stroke-linecap="round" stroke-linejoin="round"/>
<path d="M30.3596 43.19L30.6543 42.5762" stroke="black" stroke-width="2" stroke-linecap="round" stroke-linejoin="round"/>
</svg>
