<svg width="104" height="104" viewBox="0 0 104 104" fill="none" xmlns="http://www.w3.org/2000/svg">
<rect width="104" height="104" rx="10" fill="white"/>
<path d="M88.7449 65.152V69.5135C88.7449 71.7226 86.9541 73.5135 84.7449 73.5135H20C17.7909 73.5135 16 71.7226 16 69.5135V24C16 21.7909 17.7909 20 20 20H84.7449C86.9541 20 88.7449 21.7909 88.7449 24V60.1351" stroke="black" stroke-width="2" stroke-linecap="round" stroke-linejoin="round"/>
<path d="M88.6892 64.5938L20.4595 64.5938" stroke="black" stroke-width="2" stroke-linecap="round" stroke-linejoin="round"/>
<path d="M57.0268 73.5137H48.1243L48.1092 84.9988C48.1085 85.5516 48.5564 86.0002 49.1092 86.0002H56.0268C56.5791 86.0002 57.0268 85.5524 57.0268 85.0002V77.4813" stroke="black" stroke-width="2" stroke-linecap="round" stroke-linejoin="round"/>
<circle cx="53.4596" cy="69.0533" r="1.78378" fill="black"/>
<path d="M39.189 86H66.8738" stroke="black" stroke-width="2" stroke-linecap="round" stroke-linejoin="round"/>
<path d="M57.4856 30.8425V30.5996C57.4856 28.3905 55.6948 26.5996 53.4856 26.5996H31.3142C29.1051 26.5996 27.3142 28.3905 27.3142 30.5996V49.9425C27.3142 52.1516 29.1051 53.9425 31.3142 53.9425H42.3999H50.4142" stroke="black" stroke-width="2" stroke-linecap="round" stroke-linejoin="round"/>
<path d="M57.4859 31.3145L31.0859 31.3145" stroke="black" stroke-width="2" stroke-linecap="round" stroke-linejoin="round"/>
<path d="M81.6099 49.6993V40.9707C81.6099 38.7616 79.8191 36.9707 77.6099 36.9707H57.7144C55.5052 36.9707 53.7144 38.7616 53.7144 40.9707V53.7136C53.7144 55.9227 55.5052 57.7136 57.7144 57.7136H67.6621H77.6099C79.8191 57.7136 81.6099 55.9227 81.6099 53.7136V53.4219" stroke="black" stroke-width="2" stroke-linecap="round" stroke-linejoin="round"/>
<path d="M81.1741 41.9785H56.3296" stroke="black" stroke-width="2" stroke-linecap="round" stroke-linejoin="round"/>
<circle cx="77.3183" cy="39.8325" r="0.715271" fill="black"/>
<circle cx="74.457" cy="39.8325" r="0.715271" fill="black"/>
<circle cx="71.5961" cy="39.8325" r="0.715271" fill="black"/>
<path d="M36.0764 38.6992L32.5 41.5603L36.0764 44.4214" stroke="black" stroke-width="2" stroke-linecap="round" stroke-linejoin="round"/>
<path d="M45.7003 38.6992L49.2766 41.5603L45.7003 44.4214" stroke="black" stroke-width="2" stroke-linecap="round" stroke-linejoin="round"/>
<path d="M41.6307 37.5996L40.2002 45.8252" stroke="black" stroke-width="2" stroke-linecap="round" stroke-linejoin="round"/>
</svg>
