<svg width="69" height="62" viewBox="0 0 69 62" fill="none" xmlns="http://www.w3.org/2000/svg">
<path d="M67.1315 42.0471V45.6485C67.1315 47.8576 65.3406 49.6485 63.1315 49.6485H5C2.79086 49.6485 1 47.8576 1 45.6485V5C1 2.79086 2.79086 1 5 1H63.1315C65.3407 1 67.1315 2.79086 67.1315 5V37.4863" stroke="black" stroke-width="2" stroke-linecap="round" stroke-linejoin="round"/>
<path d="M67.081 41.54L5.0542 41.54" stroke="black" stroke-width="2" stroke-linecap="round" stroke-linejoin="round"/>
<path d="M38.297 49.6484H30.2039L30.1903 59.9984C30.1896 60.5512 30.6375 60.9997 31.1903 60.9997H37.297C37.8493 60.9997 38.297 60.552 38.297 59.9997V53.2554" stroke="black" stroke-width="2" stroke-linecap="round" stroke-linejoin="round"/>
<circle cx="35.0537" cy="45.5943" r="1.62162" fill="black"/>
<path d="M22.0811 61H47.249" stroke="black" stroke-width="2" stroke-linecap="round" stroke-linejoin="round"/>
<path d="M15.5713 13H54.9997" stroke="black" stroke-width="2" stroke-linecap="round" stroke-linejoin="round"/>
<path d="M54.1429 29.2857C54.1429 29.2857 54.1429 13 35.2858 13C16.4287 13 16.4287 29.2857 16.4287 29.2857" stroke="black" stroke-width="2" stroke-linecap="round" stroke-linejoin="round"/>
<rect x="14" y="29.4287" width="4.85712" height="4.85712" rx="1" stroke="black" stroke-width="2"/>
<rect x="32.8569" y="10.5713" width="4.85712" height="4.85712" rx="1" fill="white" stroke="black" stroke-width="2"/>
<path d="M51.7144 30.4287C51.7144 29.8764 52.1621 29.4287 52.7144 29.4287H55.5715C56.1238 29.4287 56.5715 29.8764 56.5715 30.4287V33.2858C56.5715 33.8381 56.1238 34.2858 55.5715 34.2858H52.7144C52.1621 34.2858 51.7144 33.8381 51.7144 33.2858V30.4287Z" stroke="black" stroke-width="2"/>
<circle cx="14.7143" cy="12.9994" r="1.71428" fill="black"/>
<circle cx="54.9999" cy="12.9994" r="1.71428" fill="black"/>
</svg>
