<svg width="69" height="62" viewBox="0 0 69 62" fill="none" xmlns="http://www.w3.org/2000/svg">
<path d="M67.1315 42.0471V45.6485C67.1315 47.8576 65.3406 49.6485 63.1315 49.6485H5C2.79086 49.6485 1 47.8576 1 45.6485V5C1 2.79086 2.79086 1 5 1H63.1315C65.3407 1 67.1315 2.79086 67.1315 5V37.4863" stroke="black" stroke-width="2" stroke-linecap="round" stroke-linejoin="round"/>
<path d="M67.081 41.54L5.0542 41.54" stroke="black" stroke-width="2" stroke-linecap="round" stroke-linejoin="round"/>
<path d="M38.297 49.6484H30.2039L30.1903 59.9984C30.1896 60.5512 30.6375 60.9997 31.1903 60.9997H37.297C37.8493 60.9997 38.297 60.552 38.297 59.9997V53.2554" stroke="black" stroke-width="2" stroke-linecap="round" stroke-linejoin="round"/>
<circle cx="35.0537" cy="45.5943" r="1.62162" fill="black"/>
<path d="M22.0811 61H47.249" stroke="black" stroke-width="2" stroke-linecap="round" stroke-linejoin="round"/>
<path d="M38.7141 10.8571V10.8571C38.7141 8.72689 36.9872 7 34.857 7H15.2856C13.0765 7 11.2856 8.79086 11.2856 11V27.857C11.2856 30.0662 13.0765 31.857 15.2856 31.857H24.9999H32.2856" stroke="black" stroke-width="2" stroke-linecap="round" stroke-linejoin="round"/>
<path d="M38.7143 11.2861L14.7144 11.2861" stroke="black" stroke-width="2" stroke-linecap="round" stroke-linejoin="round"/>
<path d="M60.6452 28.0001V20.4287C60.6452 18.2196 58.8543 16.4287 56.6452 16.4287H39.2856C37.0765 16.4287 35.2856 18.2196 35.2856 20.4287V31.2858C35.2856 33.4949 37.0765 35.2858 39.2856 35.2858H47.9654H56.7437C58.8984 35.2858 60.6452 33.539 60.6452 31.3843V31.3843" stroke="black" stroke-width="2" stroke-linecap="round" stroke-linejoin="round"/>
<path d="M60.2489 20.9805H37.6631" stroke="black" stroke-width="2" stroke-linecap="round" stroke-linejoin="round"/>
<circle cx="56.7435" cy="19.0292" r="0.650244" fill="black"/>
<circle cx="54.1424" cy="19.0292" r="0.650244" fill="black"/>
<circle cx="51.5414" cy="19.0292" r="0.650244" fill="black"/>
<path d="M45.0393 25.5322L41.7881 28.1332L45.0393 30.7342" stroke="black" stroke-width="2" stroke-linecap="round" stroke-linejoin="round"/>
<path d="M52.1921 25.5322L55.4434 28.1332L52.1921 30.7342" stroke="black" stroke-width="2" stroke-linecap="round" stroke-linejoin="round"/>
<path d="M48.9406 24.5566L47.6401 32.0344" stroke="black" stroke-width="2" stroke-linecap="round" stroke-linejoin="round"/>
</svg>
