<svg width="104" height="104" viewBox="0 0 104 104" fill="none" xmlns="http://www.w3.org/2000/svg">
<rect width="104" height="104" rx="10" fill="white"/>
<path d="M29.425 78.9473V42.9175C29.425 40.7083 31.2159 38.9175 33.425 38.9175H75.75C77.9591 38.9175 79.75 40.7083 79.75 42.9175V66.5242V75.5879" stroke="black" stroke-width="2" stroke-linecap="round" stroke-linejoin="round"/>
<path d="M30.9521 48.849L31.6225 49.5911L30.9521 48.849C29.1607 50.4674 26.4495 50.515 24.6025 48.9603L23.208 47.7866C23.0761 47.6756 23 47.512 23 47.3396V33.6521C23 32.8929 23.2879 32.1619 23.8055 31.6065L31.8707 22.9544C32.4381 22.3457 33.2329 22 34.0651 22H74.9248C75.7466 22 76.5324 22.3371 77.0987 22.9326L85.3489 31.6079C85.8793 32.1655 86.175 32.9057 86.175 33.6752V40.0769V47.383C86.175 47.5426 86.1076 47.6948 85.9893 47.802L85.1511 48.5618C83.1603 50.3664 80.1562 50.4659 78.0503 48.7971C77.2288 48.1461 76.0709 48.1332 75.2352 48.7659L75.1231 48.8508L75.7267 49.6481L75.1231 48.8508C72.8568 50.5665 69.7285 50.5749 67.453 48.8713L66.8537 49.6718L67.453 48.8713L67.3587 48.8007C66.4784 48.1416 65.257 48.1879 64.4291 48.9117C62.5146 50.5855 59.7176 50.7737 57.5962 49.3713L56.6179 48.7246C55.7287 48.1368 54.573 48.1421 53.6891 48.738L53.368 48.9545C50.8503 50.6519 47.5124 50.5908 45.0377 48.8165C44.1349 48.1692 42.9099 48.1603 41.9997 48.8129L41.8503 48.92C39.4809 50.6188 36.2892 50.6067 33.9329 48.8899L33.6799 48.7056C32.8513 48.1019 31.7129 48.1618 30.9521 48.849Z" fill="white" stroke="black" stroke-width="2" stroke-linecap="round" stroke-linejoin="round"/>
<path d="M31.7729 48.0764C31.7729 48.6287 32.2207 49.0764 32.7729 49.0764C33.3252 49.0764 33.7729 48.6287 33.7729 48.0764H31.7729ZM33.2915 31.6877L32.4211 31.1953H32.4211L33.2915 31.6877ZM33.7729 48.0764V33.6574H31.7729V48.0764H33.7729ZM34.1619 32.1801L39.9101 22.0198L38.1694 21.0349L32.4211 31.1953L34.1619 32.1801ZM33.7729 33.6574C33.7729 33.1396 33.9069 32.6307 34.1619 32.1801L32.4211 31.1953C31.9963 31.9463 31.7729 32.7945 31.7729 33.6574H33.7729Z" fill="black"/>
<path d="M42.5161 48.0764C42.5161 48.6287 42.9638 49.0764 43.5161 49.0764C44.0684 49.0764 44.5161 48.6287 44.5161 48.0764H42.5161ZM43.8075 31.8832L42.8803 31.5086H42.8803L43.8075 31.8832ZM44.5161 48.0764V33.3819H42.5161V48.0764H44.5161ZM44.7346 32.2579L48.9196 21.902L47.0653 21.1527L42.8803 31.5086L44.7346 32.2579ZM44.5161 33.3819C44.5161 32.9967 44.5903 32.6151 44.7346 32.2579L42.8803 31.5086C42.6398 32.1038 42.5161 32.7399 42.5161 33.3819H44.5161Z" fill="black"/>
<path d="M64.8976 47.5825C64.8976 48.1348 65.3454 48.5825 65.8976 48.5825C66.4499 48.5825 66.8976 48.1348 66.8976 47.5825H64.8976ZM65.7321 32.0448L64.7735 32.3295H64.7735L65.7321 32.0448ZM66.8976 47.5825V33.1837H64.8976V47.5825H66.8976ZM66.6907 31.76L63.7228 21.768L61.8056 22.3375L64.7735 32.3295L66.6907 31.76ZM66.8976 33.1837C66.8976 32.7016 66.8279 32.2221 66.6907 31.76L64.7735 32.3295C64.8558 32.6067 64.8976 32.8945 64.8976 33.1837H66.8976Z" fill="black"/>
<path d="M75.6413 47.901C75.6413 48.4533 76.0891 48.901 76.6413 48.901C77.1936 48.901 77.6413 48.4533 77.6413 47.901H75.6413ZM76.1228 31.6877L75.2524 32.1801L76.1228 31.6877ZM77.6413 47.901V33.6573H75.6413V47.901H77.6413ZM76.9932 31.1953L71.2449 21.0349L69.5041 22.0198L75.2524 32.1801L76.9932 31.1953ZM77.6413 33.6573C77.6413 32.7945 77.418 31.9463 76.9932 31.1953L75.2524 32.1801C75.5074 32.6307 75.6413 33.1396 75.6413 33.6573H77.6413Z" fill="black"/>
<path d="M54.1543 47.3736C54.1543 47.9259 54.602 48.3736 55.1543 48.3736C55.7066 48.3736 56.1543 47.9259 56.1543 47.3736H54.1543ZM56.1543 47.3736V32.1581H54.1543V47.3736H56.1543ZM56.1543 32.1581V21H54.1543V32.1581H56.1543Z" fill="black"/>
<path d="M33.1729 78.9474H71.5H86C87.1046 78.9474 88 79.8428 88 80.9474V81.1172C88 82.2218 87.1046 83.1172 86 83.1172H24C22.8954 83.1172 22 82.2218 22 81.1172V80.9474C22 79.8428 22.8954 78.9474 24 78.9474H29.0125" stroke="black" stroke-width="2" stroke-linecap="round" stroke-linejoin="round"/>
<path d="M60.775 78.1146V63.4355C60.775 62.331 59.8796 61.4355 58.775 61.4355H52.875C51.7704 61.4355 50.875 62.331 50.875 63.4355V75.589" stroke="black" stroke-width="2" stroke-linecap="round" stroke-linejoin="round"/>
</svg>
