<svg width="104" height="104" viewBox="0 0 104 104" fill="none" xmlns="http://www.w3.org/2000/svg">
<rect width="104" height="104" rx="10" fill="white"/>
<path d="M87.2595 32.1719L13.8638 32.1719" stroke="black" stroke-width="2" stroke-linecap="round" stroke-linejoin="round"/>
<path d="M87.2587 55.4776V32.1707V27C87.2587 24.7909 85.4678 23 83.2586 23H14C11.7909 23 10 24.7909 10 27V74.0242C10 76.2334 11.7909 78.0242 14 78.0242H48.6293H57.7807" stroke="black" stroke-width="2" stroke-linecap="round" stroke-linejoin="round"/>
<ellipse cx="77.6" cy="27.585" rx="0.965733" ry="0.917071" fill="black"/>
<ellipse cx="71.807" cy="27.585" rx="0.965733" ry="0.917071" fill="black"/>
<ellipse cx="66.0107" cy="27.585" rx="0.965733" ry="0.917071" fill="black"/>
<path d="M39.6729 41.7988H78.0829" stroke="black" stroke-width="2" stroke-linecap="round" stroke-linejoin="round"/>
<path d="M39.6729 50.5137H78.5655" stroke="black" stroke-width="2" stroke-linecap="round" stroke-linejoin="round"/>
<path d="M20.6216 59.6816L65.324 60.228" stroke="black" stroke-width="2" stroke-linecap="round" stroke-linejoin="round"/>
<path d="M20.6216 68.8535L65.3236 68.8506" stroke="black" stroke-width="2" stroke-linecap="round" stroke-linejoin="round"/>
<path d="M77.1779 72.1806C76.8489 72.1414 76.515 72.1967 76.2194 72.3394C75.9237 72.482 75.6799 72.7056 75.5192 72.9811L75.4787 73.0524C75.3534 73.2735 75.1834 73.4689 74.9784 73.6275C74.7735 73.7861 74.5376 73.9048 74.2843 73.9768C74.0311 74.0488 73.7653 74.0727 73.5023 74.0471C73.2393 74.0215 72.9842 73.9469 72.7516 73.8276C72.5188 73.7086 72.313 73.5471 72.146 73.3525C71.9789 73.1579 71.854 72.9339 71.7781 72.6934C71.7023 72.4529 71.6772 72.2005 71.7041 71.9508C71.7311 71.701 71.8096 71.4587 71.9352 71.2378L71.9758 71.1665C72.1299 70.8877 72.1926 70.5714 72.1557 70.2584C72.1188 69.9455 71.9841 69.6502 71.7688 69.4106C71.5613 69.1747 71.2857 69.0015 70.9759 68.9124C70.6661 68.8233 70.3357 68.8221 70.0252 68.9091L69.8614 68.9557C69.3502 69.101 68.7992 69.0475 68.3296 68.807C67.86 68.5665 67.5102 68.1587 67.3572 67.6733C67.2042 67.1879 67.2605 66.6646 67.5137 66.2187C67.767 65.7727 68.1964 65.4405 68.7076 65.2952L68.7943 65.2706C69.1111 65.1728 69.3895 64.9869 69.5935 64.7369C69.7974 64.4868 69.9174 64.1843 69.9379 63.8687C69.9792 63.5562 69.921 63.2391 69.7707 62.9584C69.6205 62.6777 69.3851 62.4461 69.095 62.2936L69.0198 62.2551C68.7871 62.136 68.5813 61.9746 68.4142 61.78C68.2472 61.5854 68.1222 61.3614 68.0464 61.1209C67.9706 60.8804 67.9455 60.628 67.9724 60.3783C67.9994 60.1285 68.0779 59.8863 68.2035 59.6653C68.3289 59.4443 68.4989 59.2489 68.7038 59.0903C68.9088 58.9317 69.1446 58.813 69.3979 58.741C69.6512 58.669 69.9169 58.6451 70.1799 58.6707C70.443 58.6963 70.6981 58.7709 70.9307 58.8902L71.0058 58.9286C71.2994 59.075 71.6325 59.1346 71.9621 59.0995C72.2917 59.0645 72.6026 58.9365 72.8549 58.7321C73.1033 58.5351 73.2857 58.2734 73.3795 57.9792C73.4734 57.685 73.4746 57.3712 73.383 57.0764L73.334 56.9208C73.181 56.4354 73.2373 55.9122 73.4905 55.4662C73.7438 55.0202 74.1732 54.6881 74.6844 54.5428C75.1956 54.3975 75.7466 54.451 76.2162 54.6915C76.6858 54.9319 77.0356 55.3398 77.1886 55.8252L77.2146 55.9075C77.3175 56.2083 77.5134 56.4727 77.7766 56.6664C78.0399 56.8601 78.3585 56.974 78.6909 56.9935C79.02 57.0327 79.3538 56.9774 79.6495 56.8347C79.9451 56.692 80.189 56.4685 80.3496 56.193L80.3901 56.1217C80.5155 55.9006 80.6855 55.7052 80.8904 55.5466C81.0954 55.388 81.3312 55.2693 81.5845 55.1973C81.8378 55.1253 82.1035 55.1014 82.3665 55.127C82.6295 55.1526 82.8846 55.2272 83.1173 55.3465C83.35 55.4655 83.5558 55.627 83.7229 55.8216C83.8899 56.0162 84.0149 56.2402 84.0907 56.4807C84.1665 56.7212 84.1916 56.9736 84.1647 57.2233C84.1377 57.4731 84.0592 57.7153 83.9336 57.9362L83.8931 58.0076C83.7389 58.2864 83.6762 58.6027 83.7131 58.9156C83.75 59.2286 83.8848 59.5239 84.1 59.7635L84.1231 59.8367C84.3306 60.0726 84.6062 60.2458 84.916 60.3349C85.2258 60.424 85.5562 60.4251 85.8667 60.3382L86.0305 60.2916C86.5417 60.1463 87.0927 60.1998 87.5623 60.4403C88.0319 60.6808 88.3817 61.0886 88.5347 61.574C88.6877 62.0594 88.6314 62.5826 88.3782 63.0286C88.1249 63.4746 87.6955 63.8067 87.1843 63.952L87.0976 63.9767C86.7878 64.066 86.5124 64.2394 86.3051 64.4755C86.0978 64.7115 85.9677 65 85.9309 65.3054C85.8896 65.6179 85.9478 65.9349 86.0981 66.2157C86.2484 66.4964 86.4837 66.728 86.7739 66.8805L86.849 66.919C87.0818 67.038 87.2876 67.1995 87.4546 67.3941C87.6216 67.5887 87.7466 67.8127 87.8224 68.0532C87.8982 68.2937 87.9234 68.5461 87.8964 68.7958C87.8695 69.0456 87.7909 69.2878 87.6653 69.5087C87.5399 69.7298 87.3699 69.9252 87.165 70.0838C86.96 70.2424 86.7242 70.3611 86.4709 70.4331C86.2176 70.5051 85.9519 70.529 85.6889 70.5034C85.4259 70.4778 85.1708 70.4032 84.9381 70.2839L84.863 70.2454C84.5694 70.099 84.2363 70.0395 83.9067 70.0745C83.5772 70.1096 83.2662 70.2375 83.0139 70.442L82.9368 70.4639C82.6884 70.6609 82.506 70.9226 82.4122 71.2168C82.3184 71.511 82.3172 71.8248 82.4087 72.1196L82.4578 72.2752C82.6108 72.7606 82.5545 73.2838 82.3012 73.7298C82.0479 74.1758 81.6185 74.5079 81.1073 74.6532C80.5962 74.7985 80.0452 74.745 79.5755 74.5045C79.1059 74.264 78.7561 73.8562 78.6031 73.3708L78.5771 73.2885C78.4831 72.9944 78.3005 72.7328 78.0519 72.5359C77.8033 72.3391 77.4995 72.2156 77.1779 72.1806Z" fill="white" stroke="black" stroke-width="2" stroke-linecap="round" stroke-linejoin="round"/>
<path d="M74.9256 65.9126C75.6962 67.4923 77.6694 68.1796 79.3329 67.4478C80.9964 66.716 81.7202 64.8422 80.9496 63.2626C80.1789 61.6829 78.2057 60.9956 76.5422 61.7274C74.8787 62.4592 74.1549 64.333 74.9256 65.9126Z" stroke="black" stroke-width="2" stroke-linecap="round" stroke-linejoin="round"/>
<path d="M77.4516 80.7483C77.3421 80.984 77.3094 81.2455 77.3578 81.499C77.4062 81.7526 77.5335 81.9865 77.7232 82.1707L77.7726 82.2176C77.9256 82.3628 78.047 82.5351 78.1299 82.7249C78.2127 82.9147 78.2554 83.1181 78.2554 83.3235C78.2554 83.5289 78.2127 83.7323 78.1299 83.922C78.047 84.1118 77.9256 84.2842 77.7726 84.4294C77.6197 84.5747 77.4382 84.69 77.2384 84.7686C77.0385 84.8473 76.8243 84.8878 76.608 84.8878C76.3917 84.8878 76.1775 84.8473 75.9777 84.7686C75.7779 84.69 75.5963 84.5747 75.4435 84.4294L75.3941 84.3825C75.2001 84.2023 74.9537 84.0814 74.6868 84.0355C74.4198 83.9895 74.1444 84.0205 73.8962 84.1246C73.6528 84.2236 73.4452 84.3881 73.2989 84.5978C73.1527 84.8075 73.0742 85.0532 73.0732 85.3047V85.4376C73.0732 85.8521 72.8997 86.2497 72.5911 86.5428C72.2824 86.836 71.8637 87.0006 71.4271 87.0006C70.9906 87.0006 70.5719 86.836 70.2632 86.5428C69.9545 86.2497 69.7811 85.8521 69.7811 85.4376V85.3672C69.7747 85.1085 69.6865 84.8576 69.528 84.6472C69.3695 84.4367 69.148 84.2764 68.8922 84.1871C68.644 84.083 68.3686 84.052 68.1017 84.098C67.8347 84.144 67.5883 84.2648 67.3943 84.445L67.345 84.4919C67.1921 84.6372 67.0106 84.7525 66.8107 84.8312C66.6109 84.9098 66.3967 84.9503 66.1804 84.9503C65.9641 84.9503 65.7499 84.9098 65.5501 84.8312C65.3502 84.7525 65.1687 84.6372 65.0158 84.4919C64.8628 84.3467 64.7414 84.1743 64.6585 83.9846C64.5757 83.7948 64.5331 83.5914 64.5331 83.386C64.5331 83.1806 64.5757 82.9772 64.6585 82.7874C64.7414 82.5977 64.8628 82.4253 65.0158 82.2801L65.0652 82.2332C65.2549 82.049 65.3822 81.8151 65.4306 81.5615C65.479 81.308 65.4464 81.0465 65.3368 80.8108C65.2325 80.5796 65.0592 80.3825 64.8384 80.2436C64.6176 80.1048 64.3589 80.0303 64.0941 80.0293H63.9541C63.5176 80.0293 63.0989 79.8646 62.7902 79.5714C62.4815 79.2783 62.3081 78.8807 62.3081 78.4662C62.3081 78.0516 62.4815 77.654 62.7902 77.3609C63.0989 77.0678 63.5176 76.9031 63.9541 76.9031H64.0282C64.3006 76.897 64.5648 76.8133 64.7865 76.6628C65.0081 76.5122 65.1769 76.3019 65.271 76.059C65.3805 75.8233 65.4132 75.5618 65.3648 75.3083C65.3164 75.0547 65.1891 74.8208 64.9994 74.6366L64.95 74.5897C64.7969 74.4445 64.6755 74.2721 64.5927 74.0824C64.5099 73.8926 64.4672 73.6892 64.4672 73.4838C64.4672 73.2784 64.5099 73.075 64.5927 72.8852C64.6755 72.6955 64.7969 72.5231 64.95 72.3779C65.1029 72.2326 65.2844 72.1173 65.4842 72.0386C65.6841 71.96 65.8982 71.9195 66.1146 71.9195C66.3309 71.9195 66.5451 71.96 66.7449 72.0386C66.9447 72.1173 67.1263 72.2326 67.2791 72.3779L67.3285 72.4248C67.5225 72.605 67.7688 72.7259 68.0358 72.7718C68.3028 72.8178 68.5782 72.7868 68.8264 72.6827H68.8922C69.1357 72.5837 69.3433 72.4192 69.4895 72.2095C69.6357 71.9998 69.7142 71.7541 69.7153 71.5026V71.3697C69.7153 70.9552 69.8887 70.5576 70.1974 70.2645C70.5061 69.9713 70.9247 69.8066 71.3613 69.8066C71.7978 69.8066 72.2165 69.9713 72.5252 70.2645C72.8339 70.5576 73.0073 70.9552 73.0073 71.3697V71.4401C73.0084 71.6916 73.0869 71.9373 73.2331 72.147C73.3793 72.3566 73.5869 72.5211 73.8303 72.6202C74.0786 72.7242 74.3539 72.7553 74.6209 72.7093C74.8879 72.6633 75.1343 72.5425 75.3282 72.3623L75.3776 72.3154C75.5305 72.1701 75.712 72.0548 75.9118 71.9761C76.1117 71.8975 76.3259 71.857 76.5422 71.857C76.7585 71.857 76.9727 71.8975 77.1725 71.9761C77.3723 72.0548 77.5539 72.1701 77.7067 72.3154C77.8598 72.4606 77.9812 72.633 78.064 72.8227C78.1469 73.0125 78.1895 73.2159 78.1895 73.4213C78.1895 73.6267 78.1469 73.8301 78.064 74.0199C77.9812 74.2096 77.8598 74.382 77.7067 74.5272L77.6574 74.5741C77.4676 74.7583 77.3404 74.9922 77.2919 75.2457C77.2435 75.4993 77.2762 75.7608 77.3858 75.9965V76.059C77.4901 76.2902 77.6633 76.4873 77.8841 76.6262C78.1049 76.765 78.3637 76.8395 78.6285 76.8406H78.7684C79.205 76.8406 79.6237 77.0052 79.9324 77.2984C80.2411 77.5915 80.4145 77.9891 80.4145 78.4036C80.4145 78.8182 80.2411 79.2158 79.9324 79.5089C79.6237 79.8021 79.205 79.9667 78.7684 79.9667H78.6944C78.4295 79.9677 78.1708 80.0423 77.95 80.1811C77.7292 80.32 77.5559 80.5171 77.4516 80.7483Z" fill="white" stroke="black" stroke-width="2" stroke-linecap="round" stroke-linejoin="round"/>
<path d="M71.3619 80.5524C72.6119 80.5524 73.6252 79.5902 73.6252 78.4032C73.6252 77.2162 72.6119 76.2539 71.3619 76.2539C70.1119 76.2539 69.0986 77.2162 69.0986 78.4032C69.0986 79.5902 70.1119 80.5524 71.3619 80.5524Z" stroke="black" stroke-width="2" stroke-linecap="round" stroke-linejoin="round"/>
<path d="M22.064 42.2383C22.064 41.1337 22.9594 40.2383 24.064 40.2383H34.1585C35.2631 40.2383 36.1585 41.1337 36.1585 42.2383V51.5218C36.1585 52.6264 35.2631 53.5218 34.1585 53.5218H24.064C22.9594 53.5218 22.064 52.6264 22.064 51.5218V42.2383Z" stroke="black" stroke-width="2"/>
</svg>
