<svg width="60" height="70" viewBox="0 0 60 70" fill="none" xmlns="http://www.w3.org/2000/svg">
<path d="M30.1133 58.1562V68.4263" stroke="black" stroke-width="2" stroke-linecap="round" stroke-linejoin="round"/>
<path d="M35.2485 59.0137V65.0045" stroke="black" stroke-width="2" stroke-linecap="round" stroke-linejoin="round"/>
<path d="M24.9785 59.0137V65.0045" stroke="black" stroke-width="2" stroke-linecap="round" stroke-linejoin="round"/>
<mask id="path-4-inside-1" fill="white">
<path fill-rule="evenodd" clip-rule="evenodd" d="M23.1237 4.90914C25.5899 -1.6118 34.366 -1.64416 36.8784 4.85913C41.4743 16.7554 46.681 31.9335 46.7997 39.9089L51.4619 40.775C52.4481 40.9582 53.3294 41.5052 53.9313 42.3077L58.4655 48.3532C60.4432 50.9901 58.5617 54.7532 55.2655 54.7532L51.3847 54.7532C49.2359 54.7532 47.6023 52.8222 47.9585 50.7031C48.2766 48.8108 47.0148 47.1004 45.2591 46.7276C42.0067 52.5645 34.5124 53.3626 31.6657 53.4494C30.9139 53.4723 30.1644 53.471 29.4125 53.451C26.4485 53.3721 18.4352 52.5955 15.0108 46.6635C12.7674 46.4863 10.9385 48.4677 11.3142 50.7031C11.6704 52.8222 10.0369 54.7532 7.88809 54.7532L4.00726 54.7532C0.711071 54.7532 -1.17045 50.9901 0.807272 48.3532L5.34147 42.3077C5.94331 41.5052 6.82467 40.9582 7.81086 40.775L13.4295 39.7312C13.6174 31.721 18.6606 16.71 23.1237 4.90914Z"/>
</mask>
<path d="M36.8784 4.85913L38.7441 4.13839L36.8784 4.85913ZM23.1237 4.90914L21.253 4.20165L23.1237 4.90914ZM46.7997 39.9089L44.7999 39.9386L44.8243 41.5761L46.4344 41.8752L46.7997 39.9089ZM51.4619 40.775L51.0966 42.7413H51.0966L51.4619 40.775ZM53.9313 42.3077L52.3313 43.5077L53.9313 42.3077ZM58.4655 48.3532L60.0655 47.1532L58.4655 48.3532ZM55.2655 54.7532L55.2655 56.7532H55.2655L55.2655 54.7532ZM51.3847 54.7532L51.3847 56.7532L51.3847 54.7532ZM47.9585 50.7031L45.9862 50.3716V50.3716L47.9585 50.7031ZM45.2591 46.7276L45.6745 44.7712L44.2305 44.4645L43.512 45.7541L45.2591 46.7276ZM31.6657 53.4494L31.7267 55.4485H31.7267L31.6657 53.4494ZM29.4125 53.451L29.4657 51.4517H29.4657L29.4125 53.451ZM15.0108 46.6635L16.7429 45.6636L16.217 44.7526L15.1683 44.6698L15.0108 46.6635ZM11.3142 50.7031L9.34191 51.0347L11.3142 50.7031ZM7.88809 54.7532L7.88808 56.7532H7.88808L7.88809 54.7532ZM4.00726 54.7532L4.00725 56.7532H4.00725L4.00726 54.7532ZM0.807272 48.3532L-0.792722 47.1532H-0.792723L0.807272 48.3532ZM5.34147 42.3077L6.94146 43.5077H6.94146L5.34147 42.3077ZM7.81086 40.775L8.17616 42.7413H8.17616L7.81086 40.775ZM13.4295 39.7312L13.7948 41.6975L15.3909 41.401L15.429 39.7781L13.4295 39.7312ZM38.7441 4.13839C35.5699 -4.07784 24.3683 -4.03535 21.253 4.20165L24.9944 5.61664C26.8116 0.811738 33.1622 0.789519 35.0128 5.57988L38.7441 4.13839ZM48.7995 39.8791C48.7356 35.5881 47.327 29.566 45.433 23.2775C43.5215 16.931 41.0511 10.1101 38.7441 4.13839L35.0128 5.57988C37.3016 11.5044 39.7325 18.2207 41.603 24.4311C43.491 30.6996 44.7451 36.2542 44.7999 39.9386L48.7995 39.8791ZM51.8272 38.8086L47.165 37.9425L46.4344 41.8752L51.0966 42.7413L51.8272 38.8086ZM55.5313 41.1077C54.6285 39.904 53.3065 39.0834 51.8272 38.8086L51.0966 42.7413C51.5897 42.8329 52.0304 43.1065 52.3313 43.5077L55.5313 41.1077ZM60.0655 47.1532L55.5313 41.1077L52.3313 43.5077L56.8655 49.5532L60.0655 47.1532ZM55.2655 56.7532C60.2098 56.7532 63.032 51.1086 60.0655 47.1532L56.8655 49.5532C57.8543 50.8717 56.9136 52.7532 55.2655 52.7532L55.2655 56.7532ZM51.3847 56.7532L55.2655 56.7532L55.2655 52.7532L51.3847 52.7532L51.3847 56.7532ZM45.9862 50.3716C45.4249 53.7106 47.9989 56.7532 51.3847 56.7532L51.3847 52.7532C50.4729 52.7532 49.7797 51.9338 49.9308 51.0347L45.9862 50.3716ZM44.8436 48.6839C45.5913 48.8427 46.12 49.5756 45.9862 50.3716L49.9308 51.0347C50.4332 48.046 48.4383 45.3582 45.6745 44.7712L44.8436 48.6839ZM31.7267 55.4485C33.2592 55.4017 36.0742 55.1656 38.982 54.1286C41.8939 53.0902 45.0645 51.1856 47.0062 47.7011L43.512 45.7541C42.2012 48.1065 39.9986 49.5194 37.6385 50.361C35.2745 51.204 32.9189 51.4102 31.6047 51.4503L31.7267 55.4485ZM29.3593 55.4503C30.1441 55.4711 30.932 55.4727 31.7267 55.4485L31.6047 51.4503C30.8959 51.472 30.1847 51.4708 29.4657 51.4517L29.3593 55.4503ZM13.2787 47.6635C15.3233 51.2052 18.685 53.1146 21.7448 54.1472C24.8099 55.1815 27.7747 55.4081 29.3593 55.4503L29.4657 51.4517C28.0863 51.415 25.5626 51.2138 23.0238 50.3571C20.4799 49.4987 18.1227 48.0538 16.7429 45.6636L13.2787 47.6635ZM13.2866 50.3716C13.1272 49.4237 13.9032 48.5823 14.8533 48.6573L15.1683 44.6698C11.6316 44.3904 8.74975 47.5117 9.34191 51.0347L13.2866 50.3716ZM7.88808 56.7532C11.2739 56.7532 13.8478 53.7106 13.2866 50.3716L9.34191 51.0347C9.49305 51.9338 8.79989 52.7532 7.88809 52.7532L7.88808 56.7532ZM4.00725 56.7532L7.88808 56.7532L7.88809 52.7532L4.00726 52.7532L4.00725 56.7532ZM-0.792723 47.1532C-3.75931 51.1086 -0.937022 56.7532 4.00725 56.7532L4.00726 52.7532C2.35916 52.7532 1.41841 50.8717 2.40727 49.5532L-0.792723 47.1532ZM3.74147 41.1077L-0.792722 47.1532L2.40727 49.5532L6.94146 43.5077L3.74147 41.1077ZM7.44556 38.8086C5.96627 39.0834 4.64423 39.904 3.74147 41.1077L6.94146 43.5077C7.24238 43.1065 7.68306 42.8329 8.17616 42.7413L7.44556 38.8086ZM13.0642 37.7648L7.44556 38.8086L8.17616 42.7413L13.7948 41.6975L13.0642 37.7648ZM21.253 4.20165C19.0127 10.1254 16.6172 16.8793 14.7555 23.1745C12.9095 29.4165 11.5307 35.3924 11.4301 39.6843L15.429 39.7781C15.5162 36.0598 16.7529 30.5251 18.5913 24.3089C20.4139 18.1458 22.7716 11.4938 24.9944 5.61664L21.253 4.20165Z" fill="black" mask="url(#path-4-inside-1)"/>
<circle cx="30.1128" cy="25.6367" r="5.8467" stroke="black" stroke-width="2"/>
</svg>
