<svg width="69" height="62" viewBox="0 0 69 62" fill="none" xmlns="http://www.w3.org/2000/svg">
<path d="M67.1315 42.0471V45.6485C67.1315 47.8576 65.3406 49.6485 63.1315 49.6485H5C2.79086 49.6485 1 47.8576 1 45.6485V5C1 2.79086 2.79086 1 5 1H63.1315C65.3407 1 67.1315 2.79086 67.1315 5V37.4863" stroke="black" stroke-width="2" stroke-linecap="round" stroke-linejoin="round"/>
<path d="M67.081 41.54L5.0542 41.54" stroke="black" stroke-width="2" stroke-linecap="round" stroke-linejoin="round"/>
<path d="M38.297 49.6484H30.2039L30.1903 59.9984C30.1896 60.5512 30.6375 60.9997 31.1903 60.9997H37.297C37.8493 60.9997 38.297 60.552 38.297 59.9997V53.2554" stroke="black" stroke-width="2" stroke-linecap="round" stroke-linejoin="round"/>
<circle cx="35.0537" cy="45.5943" r="1.62162" fill="black"/>
<path d="M22.0811 61H47.249" stroke="black" stroke-width="2" stroke-linecap="round" stroke-linejoin="round"/>
<rect x="51.7144" y="32" width="3.14284" height="2.2857" rx="1" stroke="black" stroke-width="2"/>
<circle cx="25.8571" cy="33.571" r="0.85714" fill="black"/>
<circle cx="31.8571" cy="33.571" r="0.85714" fill="black"/>
<circle cx="37.8571" cy="33.571" r="0.85714" fill="black"/>
<circle cx="43.8571" cy="33.571" r="0.85714" fill="black"/>
<path d="M55.8571 21.9998L56.8493 17.0801C57.3216 14.7386 57.3641 12.0549 55.5573 10.4924C54.9413 9.95977 54.1842 9.57129 53.2857 9.57129C52.4048 9.57129 51.6598 9.9447 51.0505 10.4613C49.2055 12.0255 49.2619 14.7542 49.7563 17.122L52.1169 28.4284H53.2857H54.4545L55.4285 24.5712" stroke="black" stroke-width="2" stroke-linecap="round" stroke-linejoin="round"/>
<path d="M14.8572 28.8569H18.2449C19.1353 28.8569 19.8571 28.1221 19.8571 27.2316V27.2316C19.8571 26.8982 19.964 26.5693 20.162 26.301L22.7658 22.7733C26.1221 18.2261 23.9079 11.7264 18.4736 10.1737V10.1737C17.0928 9.7792 15.6316 9.75893 14.2403 10.1148V10.1148C8.704 11.5311 6.32887 18.077 9.67075 22.7125L12.2614 26.306C12.4527 26.5713 12.5556 26.8901 12.5556 27.2171V29.3772C12.5556 30.2733 13.282 30.9998 14.1782 30.9998H18.7857C19.3775 30.9998 19.8571 31.4795 19.8571 32.0712V32.0712C19.8571 32.6629 19.3775 33.1426 18.7857 33.1426H14.1429C13.5512 33.1426 13.0715 33.6223 13.0715 34.2141V34.2141C13.0715 34.8058 13.5512 35.2855 14.1429 35.2855H17.3572" stroke="black" stroke-width="2" stroke-linecap="round" stroke-linejoin="round"/>
<path d="M11.5 16.5C11.5 16.5 11.5 15.5 12.5 14.5C13.5 13.5 14 13.5 14 13.5" stroke="black" stroke-width="2" stroke-linecap="round" stroke-linejoin="round"/>
</svg>
