<svg width="104" height="104" viewBox="0 0 104 104" fill="none" xmlns="http://www.w3.org/2000/svg">
<rect width="104" height="104" rx="10" fill="white"/>
<path d="M97.3649 33.9219L21.9688 33.9219" stroke="black" stroke-width="2" stroke-linecap="round" stroke-linejoin="round"/>
<path d="M97.3644 37.3927V79.5233C97.3644 81.7324 95.5735 83.5233 93.3644 83.5233H22C19.7909 83.5233 18 81.7324 18 79.5233V28C18 25.7909 19.7909 24 22 24H93.3644C95.5735 24 97.3644 25.7909 97.3644 28V33.9205" stroke="black" stroke-width="2" stroke-linecap="round" stroke-linejoin="round"/>
<ellipse cx="87.4437" cy="28.9608" rx="0.992055" ry="0.992055" fill="black"/>
<ellipse cx="81.4916" cy="28.9608" rx="0.992055" ry="0.992055" fill="black"/>
<ellipse cx="75.5394" cy="28.9608" rx="0.992055" ry="0.992055" fill="black"/>
<path d="M74.4913 62.0154C74.1779 59.8636 76.1865 58.1035 78.2785 58.6968L91.1611 62.3503C91.6333 62.4842 92.0635 62.7368 92.4106 63.0839C94.1205 64.7939 93.0862 67.7224 90.6817 67.9793L87.145 68.3571C84.942 68.5924 83.1566 70.2494 82.7578 72.4287L82.1106 75.965C81.6876 78.2762 78.8003 79.1025 77.2186 77.365C76.8375 76.9464 76.5902 76.4233 76.5086 75.8631L74.4913 62.0154Z" fill="white" stroke="black" stroke-width="2"/>
<path d="M97.3649 33.9219L21.9688 33.9219" stroke="black" stroke-width="2" stroke-linecap="round" stroke-linejoin="round"/>
<path d="M97.3644 37.3927V79.5233C97.3644 81.7324 95.5735 83.5233 93.3644 83.5233H22C19.7909 83.5233 18 81.7324 18 79.5233V28C18 25.7909 19.7909 24 22 24H93.3644C95.5735 24 97.3644 25.7909 97.3644 28V33.9205" stroke="black" stroke-width="2" stroke-linecap="round" stroke-linejoin="round"/>
<ellipse cx="87.4437" cy="28.9608" rx="0.992055" ry="0.992055" fill="black"/>
<ellipse cx="81.4916" cy="28.9608" rx="0.992055" ry="0.992055" fill="black"/>
<ellipse cx="75.5394" cy="28.9608" rx="0.992055" ry="0.992055" fill="black"/>
<path d="M74.4913 62.0154C74.1779 59.8636 76.1865 58.1035 78.2785 58.6968L91.1611 62.3503C91.6333 62.4842 92.0635 62.7368 92.4106 63.0839C94.1205 64.7939 93.0862 67.7224 90.6817 67.9793L87.145 68.3571C84.942 68.5924 83.1566 70.2494 82.7578 72.4287L82.1106 75.965C81.6876 78.2762 78.8003 79.1025 77.2186 77.365C76.8375 76.9464 76.5902 76.4233 76.5086 75.8631L74.4913 62.0154Z" fill="white" stroke="black" stroke-width="2"/>
<path d="M48.942 55.0015C48.942 61.2975 43.8381 66.4014 37.5421 66.4014C31.2461 66.4014 26.1421 61.2975 26.1421 55.0015C26.1421 48.7055 31.2461 43.6016 37.5421 43.6016C43.8381 43.6016 48.942 48.7055 48.942 55.0015Z" stroke="black" stroke-width="2"/>
<path d="M37.6333 44.666V65.8492" stroke="black" stroke-width="2" stroke-linecap="round" stroke-linejoin="round"/>
<path d="M40.2163 44.1504L43.3348 51.4267C44.3199 53.7252 44.4081 56.3093 43.582 58.6695L41.2496 65.3333" stroke="black" stroke-width="2" stroke-linecap="round" stroke-linejoin="round"/>
<path d="M35.0494 44.1504L31.9308 51.427C30.9458 53.7254 30.8576 56.3095 31.6837 58.6697L34.0161 65.3336" stroke="black" stroke-width="2" stroke-linecap="round" stroke-linejoin="round"/>
<path d="M26.2666 55H47.9665" stroke="black" stroke-width="2" stroke-linecap="round" stroke-linejoin="round"/>
<path d="M46.9336 49.834L39.803 48.2494C38.3742 47.9319 36.8931 47.9319 35.4644 48.2494L28.3337 49.834" stroke="black" stroke-width="2" stroke-linecap="round" stroke-linejoin="round"/>
<path d="M46.9336 60.166L39.803 61.7506C38.3742 62.0681 36.8931 62.0681 35.4644 61.7506L28.3337 60.166" stroke="black" stroke-width="2" stroke-linecap="round" stroke-linejoin="round"/>
</svg>
