<svg width="678" height="700" viewBox="0 0 678 700" fill="none" xmlns="http://www.w3.org/2000/svg">
<path d="M492.696 516.501H666.794C666.794 516.501 658.133 505.233 648.597 503.82C648.597 503.82 630.098 448.557 598.951 448.17C570.075 447.8 558.487 482.142 558.487 482.142C558.487 482.142 545.033 466.737 532.319 473.733C519.604 480.729 512.289 500.944 512.289 500.944C512.289 500.944 497.909 508.748 492.696 516.501Z" fill="#EBEBEB"/>
<path d="M230.691 301.72H10.5283C10.5283 301.72 10.5283 287.661 40.8004 284.902C40.8004 284.902 68.4826 223.416 110.763 231.691C137.099 236.736 150.554 272.979 150.554 272.979C150.554 272.979 170.449 244.523 186.359 250.039C202.269 255.555 211.72 285.827 211.72 285.827C211.72 285.827 228.202 293.782 230.691 301.72Z" fill="#EBEBEB"/>
<path d="M657.258 254.227H507.58C507.58 254.227 521.707 241.076 527.98 241.076C534.253 241.076 552.584 196.929 575.995 198.813C599.405 200.696 611.833 233.558 611.833 233.558C611.833 233.558 640.289 224.645 657.258 254.227Z" fill="#EBEBEB"/>
<path d="M305.917 483.841H177.899C177.899 483.841 184.273 475.55 191.354 474.524C191.354 474.524 204.993 433.892 227.848 433.589C249.089 433.32 257.616 458.58 257.616 458.58C257.616 458.58 267.454 447.262 276.856 452.442C286.257 457.622 291.571 472.438 291.571 472.438C291.571 472.438 302.082 478.14 305.917 483.841Z" fill="#EBEBEB"/>
<path d="M134.879 101.168H308.978C308.978 101.168 300.316 89.8999 290.781 88.4872C290.781 88.4872 272.281 33.2238 241.151 32.837C212.258 32.467 200.755 66.8258 200.755 66.8258C200.755 66.8258 187.301 51.4207 174.586 58.4169C161.872 65.4131 154.556 85.6282 154.556 85.6282C154.556 85.6282 140.093 93.4148 134.879 101.168Z" fill="#EBEBEB"/>
<path d="M338.661 700C466.216 700 569.62 683.661 569.62 663.505C569.62 643.35 466.216 627.011 338.661 627.011C211.105 627.011 107.701 643.35 107.701 663.505C107.701 683.661 211.105 700 338.661 700Z" fill="#EBEBEB"/>
<path d="M0 622.049L84.6778 621.645L169.339 621.494L338.661 621.208L507.983 621.494L592.644 621.645L677.322 622.049L592.644 622.469L507.983 622.604L338.661 622.89L169.339 622.604L84.6778 622.453L0 622.049Z" fill="#263238"/>
<path d="M255.749 622.049H120.517C120.517 622.049 120.819 601.868 134.122 596.587C137.723 595.013 141.739 594.654 145.562 595.564C149.385 596.474 152.807 598.604 155.313 601.632C155.313 601.632 160.728 564.633 185.585 564.633C210.442 564.633 222.214 596.587 222.214 596.587C222.214 596.587 227.663 586.984 241.437 588.666C255.211 590.347 255.749 622.049 255.749 622.049Z" fill="#37474F"/>
<path d="M657.275 622.049C657.275 622.049 653.121 602.709 644.846 599.732C636.572 596.755 631.527 605.433 631.527 605.433C631.527 605.433 629.609 586.984 617.837 581.418C606.064 575.851 597.286 587.203 597.286 587.203C597.286 587.203 588.288 563.759 572.193 563.759C556.099 563.759 547.976 598.067 547.976 598.067C547.976 598.067 538.474 587.842 528.702 593.711C518.931 599.581 518.965 622.133 518.965 622.133L657.275 622.049Z" fill="#37474F"/>
<path d="M144.751 622.05H20.0469C20.0469 622.05 24.1673 604.475 32.4248 603.231C40.6824 601.986 44.5337 610.126 44.5337 610.126C44.5337 610.126 44.1637 585.606 59.6697 581.435C75.1758 577.264 88.075 598.925 88.075 598.925C88.075 598.925 97.7621 586.564 110.947 587.355C124.132 588.145 127.496 608.562 127.496 608.562C127.496 608.562 139.437 601.482 144.751 622.05Z" fill="#455A64"/>
<path d="M527.946 622.049H451.34C451.34 622.049 451.525 610.646 459.06 607.619C461.102 606.73 463.378 606.53 465.545 607.048C467.711 607.567 469.65 608.777 471.068 610.495C471.068 610.495 474.128 589.54 488.171 589.54C502.214 589.54 508.925 607.619 508.925 607.619C510.114 605.892 511.783 604.55 513.725 603.758C515.667 602.967 517.798 602.76 519.856 603.163C527.626 604.188 527.946 622.049 527.946 622.049Z" fill="#455A64"/>
<path d="M392.074 17.5819C411.65 51.2176 405.024 97.9207 364.358 129.454C327.359 158.145 271.86 153.941 251.242 130.194C229.378 104.967 237.787 70.0367 260.39 58.8024C282.17 47.9717 304.874 53.7571 319.152 40.74C325.98 34.5006 330.706 19.5832 340.393 9.91295C351.207 -0.85047 379.478 -3.9954 392.074 17.5819Z" fill="#263238"/>
<path d="M277.477 148.341C292.703 153.173 308.908 154.053 324.567 150.897C340.286 147.677 355.052 140.881 367.722 131.036C380.609 121.405 390.67 108.486 396.85 93.6327C402.732 78.7333 404.476 62.5203 401.895 46.7109C403.736 62.4614 401.525 78.4211 395.471 93.0777C392.378 100.317 388.322 107.105 383.413 113.259C378.478 119.378 372.8 124.858 366.511 129.572C360.282 134.368 353.568 138.5 346.481 141.9C332.208 148.661 316.56 152.018 300.77 151.705C292.893 151.595 285.063 150.464 277.477 148.341Z" fill="#263238"/>
<path d="M253.848 60.5859C257.723 57.5865 262.048 55.2195 266.663 53.5729C271.236 51.9024 275.989 50.7735 280.824 50.2093C285.701 49.6375 290.578 48.948 295.439 48.0735C300.367 47.2028 305.176 45.7578 309.767 43.7681C312.084 42.7778 314.302 41.5729 316.394 40.1691C318.448 38.68 320.297 36.9272 321.893 34.9555C324.921 31.0448 327.712 26.9564 330.252 22.7122C332.782 18.5513 335.834 14.7307 339.333 11.3433C342.878 7.97434 347.011 5.28385 351.526 3.40527C346.809 4.96699 342.44 7.42859 338.661 10.6538C334.965 13.9758 331.71 17.7568 328.973 21.9049C326.131 25.9412 323.659 30.1961 320.565 33.8792C319.049 35.7174 317.296 37.3462 315.351 38.7227C313.341 40.0396 311.213 41.1657 308.994 42.0863C300.148 46.0217 290.276 47.1317 280.622 48.6789C275.722 49.4205 270.928 50.7473 266.344 52.6311C261.756 54.5528 257.531 57.243 253.848 60.5859Z" fill="#263238"/>
<path d="M116.429 370.673C111.956 361.86 186.089 265.831 250.972 185.761C250.979 185.748 250.983 185.734 250.983 185.719C250.983 185.704 250.979 185.689 250.972 185.677C280.269 149.552 305.563 112.485 324.701 91.7827C336.861 78.6143 347.994 75.4189 351.257 75.4189C362.054 75.4189 390.611 82.7011 385.986 140.84C382.488 184.802 373.507 231.152 383.816 279.688C394.126 328.225 420.731 372.809 447.808 392.486C474.885 412.163 514.928 413.928 510.724 413.575C509.429 413.458 503.996 420.723 490.408 425.751C473.59 431.907 447.556 433.572 435.514 439.357C410.859 451.129 390.863 478.223 353.645 481.402C314.443 484.765 272.179 458.344 233.7 443.494C187.031 425.415 154.942 446.673 116.429 370.673Z" fill="#1047F7"/>
<g opacity="0.1">
<path opacity="0.1" d="M116.429 370.673C111.956 361.86 186.089 265.831 250.972 185.761C250.979 185.748 250.983 185.734 250.983 185.719C250.983 185.704 250.979 185.689 250.972 185.677C280.269 149.552 305.563 112.485 324.701 91.7827C336.861 78.6143 347.994 75.4189 351.257 75.4189C362.054 75.4189 390.611 82.7011 385.986 140.84C382.488 184.802 373.507 231.152 383.816 279.688C394.126 328.225 420.731 372.809 447.808 392.486C474.885 412.163 514.928 413.928 510.724 413.575C509.429 413.458 503.996 420.723 490.408 425.751C473.59 431.907 447.556 433.572 435.514 439.357C410.859 451.129 390.863 478.223 353.645 481.402C314.443 484.765 272.179 458.344 233.7 443.494C187.031 425.415 154.942 446.673 116.429 370.673Z" fill="black"/>
</g>
<path opacity="0.1" d="M250.871 450.575C245.103 448.052 239.402 445.63 233.768 443.461C222.793 439.451 211.43 436.599 199.863 434.951C199.863 434.951 248.635 334.044 278.991 318.185C295.607 309.49 266.562 351.535 250.871 450.575Z" fill="black"/>
<path opacity="0.1" d="M458.336 433.252C449.322 434.934 441.014 436.75 435.582 439.357C429.379 442.491 423.454 446.148 417.872 450.288C387.6 416.047 368.714 390.047 365.283 361.843C363.08 343.747 401.475 416.619 458.336 433.252Z" fill="black"/>
<path opacity="0.1" d="M282.859 464.836C277.629 462.6 272.415 460.262 267.218 457.924C278.755 421.934 282.018 386.045 285.903 388.837C290.141 391.897 285.903 437.491 282.859 464.836Z" fill="black"/>
<path d="M171.844 458.714C171.844 458.714 131.212 437.944 109.517 380.175C107.398 374.541 123.493 320.673 143.372 292.251C163.25 263.829 187.939 250.207 218.817 222.424C249.694 194.641 309.33 102.294 330.554 85.5937C345.135 74.1239 351.324 75.503 351.324 75.503C351.324 75.503 332.623 87.4941 324.618 97.4166C293 136.703 256.27 222.625 240.982 240.368C222.298 262.231 199.913 285.02 189.318 306.479C177.445 330.596 169.053 436.582 171.844 458.714Z" fill="#1047F7"/>
<path d="M512.524 664.565C508.285 665.944 383.85 664.817 379.276 661.841C377.594 660.747 386.692 542.787 386.692 542.787L465.871 543.292L457.63 622.302C457.63 622.302 503.795 643.391 508.521 647.192C513.247 650.993 516.778 663.186 512.524 664.565Z" fill="#EB9481"/>
<path d="M512.523 664.565C508.285 665.944 383.85 664.817 379.275 661.84C378.72 661.504 378.418 649.53 380.2 633.939C402.804 637.438 483.462 648.79 489.685 645.022C494.024 642.399 490.105 638.43 486.489 635.773C496.832 640.818 506.486 645.577 508.487 647.209C513.145 650.993 516.761 663.202 512.523 664.565Z" fill="#263238"/>
<path d="M463.802 603.247H376.568C376.568 603.247 392.999 417.527 392.309 413.962C391.435 409.404 386.288 388.735 379.427 361.826C377.274 353.418 374.97 344.353 372.548 334.918C366.057 309.573 358.875 281.875 352.636 257.758C343.268 221.65 335.953 193.598 335.953 193.598H409.867C409.867 193.598 418.495 220.91 429.342 256.446C447.035 314.198 470.68 393.679 473.069 413.003C476.802 444.301 463.802 603.247 463.802 603.247Z" fill="#37474F"/>
<path d="M459.934 588.363C446.614 588.094 450.449 587.977 437.112 587.859C430.603 587.859 387.752 587.422 381.613 588.431C381.577 588.431 381.543 588.445 381.518 588.47C381.493 588.495 381.479 588.53 381.479 588.565C381.479 588.601 381.493 588.635 381.518 588.66C381.543 588.686 381.577 588.7 381.613 588.7C387.701 589.709 430.553 589.339 437.112 589.272C450.449 589.137 446.614 589.036 459.934 588.75C459.975 588.738 460.012 588.712 460.038 588.677C460.064 588.643 460.078 588.6 460.078 588.557C460.078 588.513 460.064 588.471 460.038 588.436C460.012 588.401 459.975 588.376 459.934 588.363Z" fill="#263238"/>
<path d="M408.724 401.517C405.865 388.903 401.593 376.542 397.859 364.164C390.303 339.027 382.701 313.896 375.054 288.77C371.242 276.212 367.402 263.649 363.534 251.081C361.583 244.757 359.649 238.417 357.665 232.094C355.68 225.77 353.511 219.766 351.762 213.594C351.039 211.054 350.652 212.45 351.56 215.679C353.41 222.188 355.226 228.696 357.127 235.188C360.871 248.037 364.65 260.88 368.462 273.718C376.03 299.281 383.659 324.822 391.351 350.34C395.185 363.144 399.031 375.937 402.888 388.718C404.834 394.784 406.413 400.962 407.614 407.218C408.636 413.792 408.896 420.463 408.387 427.096C407.546 440.433 405.999 453.753 404.772 467.072C403.544 480.392 402.299 493.762 401.055 507.099C398.599 533.654 397.288 542.198 394.899 568.77C394.597 572.134 394.294 575.497 394.042 578.861C393.958 579.987 395.723 579.903 395.723 578.861C398.599 552.608 399.659 544.266 402.131 517.963C404.603 491.66 407.025 465.626 409.48 439.458C410.086 432.899 410.792 426.306 410.792 419.713C410.782 413.59 410.088 407.486 408.724 401.517Z" fill="#263238"/>
<path d="M401.475 193.682C396.346 233.389 386.558 307.841 379.427 361.86C362.76 296.422 335.953 193.682 335.953 193.682H401.475Z" fill="#263238"/>
<path d="M419.639 666.028C415.4 667.407 290.965 666.28 286.391 663.304C284.709 662.21 288.342 544.25 288.342 544.25L367.52 544.771L364.728 623.697C364.728 623.697 410.91 644.871 415.602 648.672C420.294 652.473 423.877 664.649 419.639 666.028Z" fill="#EB9481"/>
<path d="M419.638 666.028C415.4 667.407 290.965 666.28 286.39 663.303C285.835 662.967 285.819 651.312 286.054 635.402C308.657 638.9 390.577 650.252 396.8 646.485C401.139 643.862 397.22 639.893 393.604 637.235C403.947 642.281 413.601 647.04 415.602 648.672C420.26 652.439 423.876 664.649 419.638 666.028Z" fill="#263238"/>
<path d="M407.479 193.682C407.479 193.682 405.797 228.999 397.674 257.068C397.035 259.389 396.329 261.659 395.572 263.795C388.153 266.792 381.021 270.457 374.264 274.744C374.264 274.744 373.406 303.216 372.582 334.951C371.64 370.42 370.665 410.01 370.9 418.402C371.64 449.801 367.823 602.843 367.823 602.843L280.605 603.196C280.605 603.196 295.523 429.972 295.422 418.486C295.254 399.986 299.643 318.268 303.04 258.716C305.025 222.037 306.707 193.682 306.707 193.682H407.479Z" fill="#37474F"/>
<path d="M364.762 587.387C351.442 587.169 355.277 587.034 341.94 586.967C335.432 586.967 292.58 586.748 286.441 587.774C286.307 587.774 286.307 588.026 286.441 588.043C292.529 589.035 335.381 588.48 341.94 588.379C355.26 588.194 351.425 588.11 364.745 587.774C364.787 587.764 364.825 587.74 364.853 587.706C364.88 587.672 364.896 587.63 364.898 587.587C364.9 587.543 364.888 587.5 364.863 587.464C364.839 587.428 364.803 587.401 364.762 587.387Z" fill="#263238"/>
<path d="M314.073 206.329C312.475 254.983 310.709 303.637 308.59 352.274C306.471 400.912 303.461 449.818 299.374 498.59C297.104 525.784 295.792 544.418 292.866 571.546C292.866 571.73 293.118 571.798 293.152 571.546C299.492 523.278 302.183 483.235 305.311 434.665C308.439 386.095 310.541 337.458 312.206 288.821C313.148 261.307 313.888 233.793 314.678 206.279C314.695 205.892 314.09 205.942 314.073 206.329Z" fill="#263238"/>
<path d="M399.205 261.744C390.536 265.367 382.196 269.733 374.281 274.795C373.961 274.997 374.197 275.484 374.533 275.316C382.942 271.229 391.536 267.294 399.76 262.753C399.894 262.68 399.993 262.556 400.035 262.409C400.078 262.263 400.06 262.105 399.987 261.971C399.913 261.837 399.79 261.738 399.643 261.696C399.496 261.653 399.339 261.671 399.205 261.744Z" fill="#263238"/>
<path d="M399.676 231.74C399.104 234.835 398.347 237.896 397.691 240.99C397.035 244.085 396.598 246.826 395.824 249.685C395.205 252.449 393.804 254.977 391.788 256.967C390.645 258.027 389.4 258.952 388.189 259.927C387.533 260.448 386.827 260.953 386.154 261.474C386.238 261.071 386.306 260.65 386.39 260.23L386.995 256.698C387.432 254.091 387.853 251.468 388.24 248.861C389.03 243.715 389.753 238.518 390.83 233.422C390.832 233.383 390.821 233.344 390.798 233.312C390.776 233.281 390.742 233.258 390.705 233.248C390.667 233.238 390.627 233.241 390.591 233.258C390.556 233.274 390.527 233.303 390.51 233.338C389.232 238.383 387.819 243.429 386.692 248.474C386.154 250.963 384.203 263.291 384.102 264.165C384.001 265.04 383.951 265.965 383.917 266.873C383.791 267.788 383.791 268.716 383.917 269.631C383.917 269.849 384.237 269.816 384.338 269.631C384.718 268.778 384.983 267.879 385.128 266.957C385.347 266.065 385.549 265.174 385.717 264.283C385.717 263.963 385.818 263.627 385.851 263.307C387.062 262.567 388.206 261.626 389.333 260.768C390.46 259.91 391.805 259.086 392.965 258.043C395.098 256.234 396.639 253.826 397.389 251.131C398.13 248.225 398.614 245.259 398.835 242.268C399.222 238.77 399.508 235.255 400.012 231.757C400.029 231.606 399.726 231.522 399.676 231.74Z" fill="#263238"/>
<path d="M366.158 104.598C390.594 143.733 451.727 201.116 468.158 190.369C488.339 177.251 482.352 114.436 482.133 103.673C481.999 96.1385 426.634 105.523 429.494 113.074C431.175 117.649 432.588 123.619 431.461 123.064C427.929 121.382 420.462 111.745 386.911 88.9237C368.226 76.2598 349.979 78.6816 366.158 104.598Z" fill="#EB9481"/>
<path d="M465.265 38.5879C463.639 38.4054 461.995 38.727 460.558 39.509C459.12 40.2911 457.957 41.4959 457.226 42.9605C455.108 41.1717 452.431 40.1784 449.658 40.1519C444.747 40.3369 442.931 48.1068 442.931 48.1068C440.36 46.715 437.43 46.129 434.522 46.425C429.847 47.0641 426.87 54.6321 426.87 54.6321C423.773 54.6614 420.789 55.8012 418.461 57.8443C412.474 63.5456 415.013 75.9067 416.544 83.7774C418.074 91.6482 429.796 112.553 431.68 116.774L482.319 107.373C482.319 107.373 485.497 70.1045 482.319 61.0902C479.594 53.4885 471.521 39.4961 465.265 38.5879Z" fill="#EB9481"/>
<path d="M458.067 43.1622C462.793 50.562 465.08 58.9541 467.821 67.1949C467.835 67.2328 467.833 67.2745 467.815 67.3107C467.798 67.347 467.767 67.3749 467.729 67.3883C467.691 67.4017 467.649 67.3994 467.613 67.3821C467.577 67.3647 467.549 67.3337 467.536 67.2958C464.895 59.055 460.657 51.4534 457.697 43.3472C457.673 43.2981 457.669 43.2413 457.686 43.1893C457.703 43.1372 457.741 43.0942 457.79 43.0697C457.839 43.0452 457.896 43.0411 457.948 43.0585C458 43.0758 458.043 43.1131 458.067 43.1622Z" fill="#263238"/>
<path d="M443.57 48.1407C444.497 49.9456 445.171 51.8698 445.572 53.8588C446.143 55.9106 446.704 57.9624 447.253 60.0142C448.262 64.1289 449.165 68.2773 449.961 72.4593C449.961 72.6443 449.726 72.7452 449.675 72.4593C448.666 68.3558 447.59 64.2691 446.412 60.1991C445.824 58.1642 445.202 56.146 444.579 54.1111C443.873 52.2425 443.371 50.3027 443.083 48.3257C443.091 48.2738 443.114 48.2251 443.147 48.1845C443.181 48.1438 443.224 48.1126 443.274 48.0939C443.323 48.0752 443.376 48.0697 443.428 48.0779C443.48 48.0861 443.529 48.1078 443.57 48.1407Z" fill="#263238"/>
<path d="M426.803 54.8004C427.602 56.4222 428.12 58.1681 428.333 59.9635C428.754 61.8471 429.174 63.7475 429.611 65.6311C430.503 69.3983 431.377 73.1655 432.403 76.899C432.403 76.9392 432.387 76.9777 432.359 77.0061C432.33 77.0345 432.292 77.0504 432.252 77.0504C432.212 77.0504 432.173 77.0345 432.145 77.0061C432.116 76.9777 432.1 76.9392 432.1 76.899C431.058 73.115 429.965 69.331 428.955 65.547C428.451 63.6802 427.963 61.8134 427.492 59.9298C426.89 58.2698 426.588 56.5158 426.601 54.7499C426.615 54.734 426.634 54.7223 426.654 54.7161C426.675 54.7098 426.696 54.7093 426.717 54.7145C426.738 54.7196 426.757 54.7304 426.772 54.7455C426.787 54.7607 426.798 54.7796 426.803 54.8004Z" fill="#263238"/>
<path d="M429.14 116.656L485.177 106.447C485.177 106.447 490.492 193.732 463.651 193.732C442.107 193.732 386.087 139.259 367.335 108.886C348.583 78.513 365.367 74.3758 386.843 87.3256C404.351 97.8872 424.028 116.118 429.948 120.961L429.14 116.656Z" fill="#EBEBEB"/>
<path d="M429.746 120.945L489.382 115.63L487.633 103.757L427.879 115.008L429.746 120.945Z" fill="#EBEBEB"/>
<path d="M469.133 192.337C467.455 193.261 465.567 193.742 463.651 193.732C442.107 193.732 386.087 139.259 367.335 108.886C354.284 87.7633 358.438 79.3375 369.404 80.5148L469.133 192.337Z" fill="#DBDBDB"/>
<path d="M429.948 120.945L431.31 126.31L432.622 131.658L435.245 142.354C436.137 145.903 437.045 149.452 438.004 152.983C438.491 154.749 438.979 156.515 439.551 158.264C440.123 160.013 440.661 161.745 441.233 163.528C439.485 160.291 438.005 156.916 436.809 153.437C435.548 149.956 434.573 146.391 433.648 142.825C432.723 139.26 431.966 135.627 431.394 131.995C430.724 128.339 430.241 124.651 429.948 120.945Z" fill="#263238"/>
<path d="M484.085 115.614C475.407 116.169 466.745 117.296 458.101 118.288C453.812 118.793 449.507 119.314 445.218 119.869C440.93 120.424 436.507 121.147 432.117 121.551C431.966 121.551 431.966 121.837 432.117 121.82C436.541 121.349 440.997 121.13 445.437 120.727C449.877 120.323 454.031 119.903 458.336 119.415C466.93 118.439 475.592 117.464 484.101 115.833C484.27 115.85 484.219 115.597 484.085 115.614Z" fill="#263238"/>
<path d="M425.003 235.34L417.536 211.256L412.289 175.704C412.289 175.704 423.372 155.774 416.611 141.664C413.248 134.517 383.53 90.1512 371.203 81.406C359.599 73.1988 343.016 82.3478 336.878 88.9572C313.333 114.453 308.153 177.167 300.4 245.363L383.396 238.636L391.536 220.792L399.137 237.375L425.003 235.34Z" fill="#EBEBEB"/>
<path d="M418.663 145.751C417.708 142.768 416.332 139.936 414.576 137.342C413.988 136.384 412.676 134.382 411.112 132.028C410.658 130.901 410.153 129.774 409.598 128.664C408.676 127.079 407.84 125.445 407.092 123.77C407.079 123.737 407.053 123.71 407.02 123.696C406.987 123.682 406.949 123.681 406.916 123.695C406.882 123.708 406.855 123.734 406.841 123.767C406.827 123.8 406.827 123.838 406.84 123.871C407.635 125.477 408.347 127.121 408.976 128.799C406.335 124.897 403.544 120.878 402.35 119.23C402.249 119.095 402.03 119.23 402.131 119.364C404.67 122.593 412.995 136.787 415.013 140.386C416.973 143.947 418.008 147.943 418.024 152.008C418.031 156.211 417.534 160.401 416.544 164.486C416.443 164.84 416.796 165.008 416.931 164.671C418.098 161.691 418.834 158.559 419.117 155.371C419.539 152.163 419.385 148.905 418.663 145.751Z" fill="#263238"/>
<path d="M345.892 100.494C338.392 112.082 301.51 158.415 300.215 162.72C298.92 167.026 310.155 176.73 310.087 178.512C309.835 185.727 296.919 234.465 290.444 229.941C281.901 223.988 241.403 181.169 245.221 160.988C249.039 140.807 327.443 88.6713 340.057 83.8951C352.67 79.1188 353.292 89.075 345.892 100.494Z" fill="#EB9481"/>
<path d="M272.247 214.015L307.312 174.728C307.312 174.728 300.803 165.293 300.837 163.898C300.871 162.502 333.144 124.258 345.573 103.353C358.001 82.4487 352.922 75.9907 329.175 87.8977C305.428 99.8047 247.861 144.439 244.968 159.037C240.562 181.304 272.247 214.015 272.247 214.015Z" fill="#EBEBEB"/>
<path d="M266.562 212.972L275.964 222.39L309.398 176.359L305.546 171.045L266.562 212.972Z" fill="#EBEBEB"/>
<path d="M303.612 172.34C300.522 175.186 297.591 178.201 294.833 181.371C291.94 184.415 289.132 187.543 286.306 190.638C280.639 196.877 275.123 203.167 269.791 209.692C269.767 209.719 269.754 209.755 269.756 209.791C269.757 209.827 269.773 209.861 269.8 209.886C269.827 209.91 269.862 209.923 269.898 209.922C269.934 209.92 269.969 209.904 269.993 209.877C275.997 203.89 281.766 197.718 287.416 191.378C290.242 188.266 293.05 185.155 295.825 181.977C298.666 178.952 301.338 175.774 303.831 172.458C303.898 172.357 303.713 172.256 303.612 172.34Z" fill="#263238"/>
<path d="M331.244 127.319C329.848 128.564 328.452 129.791 327.039 130.968L326.535 131.406C328.99 128.042 331.401 124.679 333.767 121.315C333.767 121.315 333.682 121.147 333.632 121.214C326.366 129.624 319.583 138.439 313.316 147.618C313.308 147.644 313.309 147.673 313.317 147.699C313.326 147.725 313.342 147.748 313.364 147.764C313.386 147.78 313.413 147.79 313.44 147.791C313.468 147.792 313.495 147.784 313.518 147.769C317.47 143.296 321.187 138.604 324.769 133.811C325.66 133.037 326.451 132.23 327.359 131.406C328.688 130.077 330.05 128.782 331.429 127.504C331.563 127.386 331.362 127.218 331.244 127.319Z" fill="#263238"/>
<path d="M321.843 245.397C326.585 240.638 318.244 237.779 318.244 237.779C318.244 237.779 331.227 238.989 334.204 232.195C337.181 225.401 326.871 222.542 326.148 222.306C326.838 222.306 338.795 223.164 341.082 216.016C343.454 208.583 332.673 207.237 332.001 207.153C332.673 207.002 341.435 204.883 341.94 199.064C342.798 188.973 317.184 192.976 310.541 188.25C310.541 188.25 310.541 175.267 310.676 174.88C310.676 174.88 308.842 180.312 304.655 182.431C299.458 185.071 294.682 186.955 292.983 190.033C292.168 191.389 291.811 192.972 291.965 194.547C292.12 196.122 292.777 197.606 293.841 198.778C293.841 198.778 286.744 199.333 284.759 204.9C283.75 207.776 287.433 211.93 287.433 211.93C287.433 211.93 281.766 212.619 280.319 217.681C279.142 221.718 283.01 225.266 283.01 225.266C283.01 225.266 277.881 228.445 277.965 232.969C278.234 242.067 311.634 255.673 321.843 245.397Z" fill="#EB9481"/>
<path d="M283.481 225.922C283.364 225.922 283.28 226.006 283.38 226.073C293.667 233.544 305.988 237.698 318.698 237.98C319.102 237.98 319.287 237.324 318.832 237.24C306.562 235.202 294.654 231.389 283.481 225.922Z" fill="#263238"/>
<path d="M287.181 211.946C287.046 211.946 286.945 212.098 287.063 212.182C297.305 219.481 312.172 224.476 326.316 222.777C326.804 222.777 327.191 222.188 326.619 222.205C317.133 222.609 297.558 217.21 287.181 211.946Z" fill="#263238"/>
<path d="M332.875 206.699C319.253 207.809 306.639 204.429 294.194 199.098C294.043 199.098 293.959 199.266 294.076 199.367C299.458 203.638 307.749 206.195 314.376 207.658C320.48 209.101 326.855 208.933 332.875 207.17C333.161 207.103 333.178 206.683 332.875 206.699Z" fill="#263238"/>
<path d="M282.59 225.299C280.134 223.214 278.116 220.355 278.907 216.991C279.25 215.465 280.134 214.115 281.396 213.191C282.932 212.289 284.662 211.77 286.441 211.677C284.154 209.137 282.808 205.522 284.44 202.276C285.231 200.874 286.523 199.823 288.055 199.333C289.831 198.803 291.669 198.514 293.521 198.475C292.604 197.746 291.87 196.813 291.376 195.75C290.883 194.688 290.644 193.524 290.679 192.353C290.77 191.066 291.167 189.819 291.837 188.717C292.507 187.614 293.43 186.687 294.53 186.013C297.111 184.462 299.866 183.22 302.737 182.313C304.201 181.788 305.596 181.088 306.891 180.228C308.267 179.226 309.315 177.839 309.902 176.242C310.02 175.956 310.053 176.242 309.902 176.477C309.507 177.559 308.939 178.57 308.22 179.471C307.464 180.415 306.594 181.262 305.63 181.993C303.157 183.513 300.577 184.851 297.911 185.996C295.599 187.125 293.72 188.98 292.563 191.277C292.072 192.475 291.923 193.785 292.134 195.062C292.345 196.339 292.907 197.532 293.757 198.509C293.757 198.509 293.757 198.778 293.605 198.795C291.973 199.098 290.385 199.607 288.88 200.308C287.631 200.913 286.593 201.88 285.903 203.083C285.324 204.539 285.138 206.121 285.366 207.671C285.593 209.222 286.225 210.684 287.198 211.912C285.464 212.393 283.829 213.179 282.371 214.233C281.458 215.076 280.805 216.161 280.487 217.361C280.123 218.745 280.15 220.203 280.566 221.572C280.981 222.941 281.769 224.167 282.842 225.114C282.853 225.147 282.853 225.183 282.842 225.215C282.853 225.248 282.853 225.284 282.842 225.316C282.842 225.316 281.16 226.393 281.16 226.426C281.16 226.46 281.16 226.426 281.16 226.325C281.614 225.953 282.092 225.611 282.59 225.299Z" fill="#263238"/>
<path d="M346.245 81.2379C346.733 83.2056 361.247 95.5162 370.244 94.9949C373.171 94.8099 367.94 79.1525 367.94 79.1525L368.193 77.9752L371.708 61.3592L352.115 49.0822L349.273 47.4004C349.273 47.4004 348.617 52.0085 347.843 57.7602C347.843 58.0293 347.759 58.2983 347.725 58.5842C347.692 58.8701 347.624 59.2065 347.591 59.5092C347.473 60.3669 347.339 61.191 347.238 62.116C347.137 63.041 347.069 63.4278 347.002 64.1341C346.935 64.8405 346.851 65.53 346.784 66.2195C346.25 71.2067 346.07 76.2253 346.245 81.2379Z" fill="#EB9481"/>
<path d="M347.843 57.8106C349.569 62.449 352.283 66.6565 355.797 70.1413C359.31 73.6262 363.54 76.305 368.193 77.992L371.708 61.376L352.115 49.0822L349.273 47.4004C349.273 47.4004 348.617 52.0589 347.843 57.8106Z" fill="#263238"/>
<path d="M395.084 36.8893C399.171 66.4214 381.95 72.2067 375.576 73.0645C369.807 73.8717 350.013 75.8226 342.899 46.8791C335.785 17.9356 348.23 6.70127 361.398 4.19541C374.567 1.68955 390.998 7.35717 395.084 36.8893Z" fill="#EB9481"/>
<path d="M385.111 32.2643C384.428 32.2115 383.748 32.116 383.077 31.9784C382.347 31.9736 381.638 31.7316 381.058 31.2889C380.912 31.1046 380.833 30.8765 380.833 30.6414C380.833 30.4063 380.912 30.1782 381.058 29.9939C381.374 29.6493 381.776 29.3957 382.222 29.2596C382.669 29.1235 383.144 29.11 383.598 29.2203C384.555 29.2849 385.451 29.7119 386.104 30.4144C386.251 30.5869 386.343 30.7998 386.367 31.0253C386.391 31.2508 386.347 31.4784 386.239 31.6782C386.132 31.8781 385.967 32.041 385.766 32.1455C385.565 32.2501 385.337 32.2915 385.111 32.2643Z" fill="#263238"/>
<path d="M365.367 36.3341C366.057 36.4518 366.729 36.435 367.419 36.4854C368.132 36.6388 368.876 36.5562 369.538 36.25C369.729 36.113 369.869 35.9163 369.936 35.6911C370.003 35.4658 369.993 35.2246 369.908 35.0055C369.673 34.5986 369.335 34.2613 368.927 34.0279C368.519 33.7945 368.057 33.6734 367.587 33.6769C366.639 33.5385 365.673 33.7605 364.88 34.2991C364.703 34.4335 364.57 34.6162 364.495 34.825C364.421 35.0339 364.409 35.2599 364.46 35.4756C364.512 35.6912 364.625 35.8871 364.786 36.0396C364.947 36.192 365.149 36.2943 365.367 36.3341Z" fill="#263238"/>
<path d="M369.69 41.5312C369.69 41.5312 369.538 41.6322 369.538 41.7162C369.79 43.7344 369.74 46.0889 367.974 46.9298C367.974 46.9298 367.974 47.0475 367.974 47.0307C370.194 46.5262 370.245 43.398 369.69 41.5312Z" fill="#263238"/>
<path d="M367.688 39.5802C364.408 39.5802 364.745 46.1728 367.789 46.1223C370.833 46.0719 370.429 39.5466 367.688 39.5802Z" fill="#263238"/>
<path d="M366.427 40.001C365.872 40.3878 365.334 41.0774 364.661 41.1783C363.988 41.2792 363.231 40.6569 362.676 40.0178H362.559C362.559 41.2624 363.164 42.5237 364.509 42.6414C365.855 42.7592 366.561 41.5987 366.814 40.3206C366.864 40.1692 366.645 39.8329 366.427 40.001Z" fill="#263238"/>
<path d="M381.698 39.9502C381.698 39.9502 381.849 39.9502 381.866 40.1184C381.866 42.1533 382.253 44.4742 384.119 45.0628V45.1805C381.849 44.9619 381.395 41.8842 381.698 39.9502Z" fill="#263238"/>
<path d="M383.413 37.747C386.659 37.3602 387.214 43.8855 384.186 44.2555C381.159 44.6255 380.705 38.0834 383.413 37.747Z" fill="#263238"/>
<path d="M384.809 38.0664C385.347 38.3691 385.919 38.9577 386.491 38.9409C387.062 38.9241 387.668 38.1841 388.071 37.4609H388.172C388.324 38.7055 388.021 40.0341 386.827 40.3872C385.633 40.7404 384.859 39.6809 384.472 38.47C384.439 38.3186 384.59 37.9487 384.809 38.0664Z" fill="#263238"/>
<path d="M379.494 49.1658C379.494 49.1658 380.1 52.1594 380.201 53.5889C380.201 53.7235 379.864 53.8076 379.377 53.8748C378.169 54.1789 376.901 54.1417 375.713 53.7676C374.525 53.3935 373.465 52.697 372.65 51.7558C372.636 51.7276 372.632 51.6958 372.637 51.665C372.642 51.6341 372.657 51.6057 372.679 51.5835C372.701 51.5614 372.73 51.5467 372.761 51.5414C372.791 51.5361 372.823 51.5405 372.851 51.554C374.75 52.6804 376.962 53.164 379.158 52.933C379.242 52.5294 377.947 47.8877 378.166 47.8877C379.306 47.9029 380.438 48.0784 381.529 48.409C380.436 42.1192 378.351 36.0648 377.359 29.7917C377.359 29.5731 377.644 29.489 377.712 29.674C380.149 36.1008 381.94 42.7542 383.06 49.5358C383.077 50.259 380.083 49.3677 379.494 49.1658Z" fill="#263238"/>
<path d="M379.192 52.782C378.537 54.0524 377.564 55.1305 376.366 55.9101C375.705 56.3125 374.935 56.5005 374.163 56.4482C372.481 56.3137 372.162 54.7665 372.229 53.5219C372.27 52.8147 372.394 52.1148 372.599 51.4365C374.595 52.5825 376.906 53.0543 379.192 52.782Z" fill="#263238"/>
<path d="M376.366 55.9101C375.705 56.3125 374.935 56.5005 374.163 56.4482C372.481 56.3137 372.162 54.7665 372.229 53.5219C373.087 53.3932 373.963 53.5593 374.715 53.993C375.466 54.4268 376.048 55.1026 376.366 55.9101Z" fill="#E587B4"/>
<path d="M343.252 44.7769C350.349 44.4742 349.71 33.2903 349.71 33.2903C349.71 33.2903 357.732 32.1467 357.648 19.1297C359.347 21.6561 361.609 23.7544 364.255 25.26C366.902 26.7657 369.861 27.6377 372.901 27.8077C375.239 28.0263 367.183 22.4428 367.183 22.4428C367.183 22.4428 376.887 30.364 393.941 26.2941C395.151 25.9914 391.62 7.97947 377.795 2.48004C363.971 -3.01939 351.997 1.11779 344.16 10.0649C344.16 10.0649 334.506 15.1102 333.867 24.5619C333.228 34.0135 340.493 44.8778 343.252 44.7769Z" fill="#263238"/>
<path d="M347.944 46.4582C347.944 46.4582 340.964 37.4942 336.878 40.0169C332.791 42.5396 338.341 55.7752 343.386 57.3561C344.019 57.6043 344.695 57.7221 345.374 57.7025C346.054 57.6828 346.722 57.5262 347.339 57.2419C347.956 56.9576 348.51 56.5516 348.966 56.0481C349.423 55.5446 349.773 54.9542 349.996 54.3121L347.944 46.4582Z" fill="#EB9481"/>
<path d="M338.56 43.7676C338.56 43.7676 338.476 43.8853 338.56 43.9021C342.108 45.1298 344.093 48.2579 345.539 51.5374C345.321 51.2001 345.032 50.9142 344.693 50.6994C344.354 50.4846 343.972 50.346 343.574 50.2932C343.175 50.2404 342.77 50.2747 342.387 50.3937C342.003 50.5127 341.65 50.7136 341.352 50.9824C341.268 50.9824 341.352 51.1842 341.453 51.1674C342.053 50.9384 342.709 50.9028 343.33 51.0657C343.952 51.2285 344.506 51.5817 344.917 52.0756C345.57 52.9053 346.134 53.8016 346.599 54.7496C346.784 55.0523 347.339 54.8505 347.204 54.4974C347.07 49.9902 343.336 43.9694 338.56 43.7676Z" fill="#263238"/>
<path d="M366.881 95.9033C369.269 106.246 371.489 116.64 373.608 127.016C375.727 137.393 377.829 147.837 379.948 158.23C382.067 168.624 384.001 179.084 385.919 189.528L388.761 205.186C389.652 210.433 390.594 215.646 391.435 220.894C390.224 215.73 389.114 210.534 387.954 205.354L384.59 189.781C382.421 179.387 380.369 168.96 378.25 158.567C376.131 148.173 374.197 137.712 372.279 127.269C370.362 116.825 368.596 106.347 366.881 95.9033Z" fill="#263238"/>
<path d="M380.89 126.31C380.978 126.697 380.949 127.101 380.806 127.472C380.664 127.842 380.414 128.162 380.09 128.39C379.765 128.619 379.38 128.745 378.983 128.754C378.586 128.763 378.196 128.654 377.862 128.44C377.527 128.227 377.264 127.919 377.105 127.555C376.946 127.191 376.898 126.789 376.969 126.398C377.039 126.008 377.224 125.647 377.5 125.362C377.776 125.076 378.131 124.88 378.519 124.796C379.034 124.686 379.571 124.783 380.015 125.066C380.459 125.35 380.773 125.797 380.89 126.31Z" fill="#263238"/>
<path d="M384.439 146.508C384.523 146.892 384.492 147.292 384.349 147.658C384.206 148.024 383.957 148.339 383.634 148.563C383.312 148.788 382.93 148.912 382.537 148.919C382.144 148.926 381.758 148.817 381.427 148.604C381.097 148.392 380.837 148.086 380.68 147.725C380.524 147.365 380.478 146.966 380.548 146.579C380.618 146.193 380.802 145.836 381.076 145.554C381.349 145.271 381.7 145.077 382.084 144.994C382.597 144.884 383.133 144.982 383.574 145.265C384.015 145.549 384.326 145.996 384.439 146.508Z" fill="#263238"/>
<path d="M388.004 166.723C388.084 167.106 388.049 167.504 387.904 167.868C387.758 168.231 387.508 168.544 387.186 168.765C386.863 168.987 386.482 169.109 386.09 169.114C385.699 169.12 385.315 169.01 384.986 168.797C384.657 168.585 384.398 168.28 384.242 167.921C384.086 167.562 384.039 167.165 384.108 166.779C384.178 166.394 384.359 166.038 384.63 165.755C384.902 165.473 385.25 165.277 385.633 165.192C385.889 165.136 386.154 165.13 386.412 165.177C386.671 165.223 386.917 165.32 387.138 165.463C387.358 165.605 387.548 165.79 387.697 166.006C387.846 166.222 387.95 166.466 388.004 166.723Z" fill="#263238"/>
<path d="M391.569 186.922C391.654 187.309 391.622 187.713 391.477 188.081C391.332 188.45 391.08 188.768 390.755 188.993C390.429 189.219 390.044 189.343 389.647 189.35C389.251 189.357 388.862 189.245 388.529 189.031C388.196 188.816 387.934 188.507 387.777 188.143C387.62 187.779 387.574 187.377 387.646 186.987C387.717 186.597 387.903 186.238 388.18 185.954C388.456 185.669 388.81 185.474 389.198 185.391C389.715 185.281 390.255 185.381 390.699 185.667C391.144 185.954 391.456 186.405 391.569 186.922Z" fill="#263238"/>
<path d="M395.135 207.119C395.219 207.506 395.187 207.91 395.042 208.279C394.897 208.647 394.646 208.965 394.32 209.191C393.994 209.417 393.609 209.541 393.213 209.547C392.817 209.554 392.427 209.443 392.094 209.228C391.761 209.013 391.5 208.704 391.342 208.34C391.185 207.976 391.14 207.574 391.211 207.184C391.283 206.795 391.469 206.435 391.745 206.151C392.021 205.867 392.376 205.671 392.763 205.589C393.281 205.479 393.82 205.578 394.265 205.865C394.709 206.151 395.022 206.602 395.135 207.119Z" fill="#263238"/>
<path d="M368.108 79.6064L365.35 93.5316L346.178 80.1783L342.596 86.3C342.596 86.3 363.248 109.357 363.13 108.163L366.359 96.0038L375.525 102.311L371.236 82.9364L368.108 79.6064Z" fill="#EBEBEB"/>
<path d="M373.978 92.5394C373.171 89.3776 372.431 86.1486 371.472 83.0205C371.472 82.9028 371.254 82.8859 371.237 83.0205C371.237 86.2495 374.382 98.3752 374.92 101.335C374.533 101.066 366.511 95.8525 366.511 95.9702C365.687 97.9547 363.299 106.818 363.148 107.608C359.868 103.942 347.507 90.7903 343.824 87.4268C343.804 87.4022 343.775 87.3867 343.743 87.3835C343.712 87.3804 343.68 87.3899 343.656 87.4099C343.631 87.43 343.616 87.459 343.612 87.4906C343.609 87.5221 343.619 87.5536 343.639 87.5781C346.666 91.5303 363.114 109.441 363.299 109.29C364.645 105.069 365.768 100.78 366.662 96.4411C368.092 97.6352 376.35 103.673 376.282 103.168C375.71 99.5857 374.94 96.0374 373.978 92.5394Z" fill="#263238"/>
<path d="M346.145 76.0587C344.042 73.6201 341.722 79.8763 345.59 82.6345C351.324 86.7212 362.323 91.0434 364.19 90.8079C366.057 90.5725 369.488 83.4585 369.858 82.0458C370.228 80.6331 368.613 77.9927 368.176 78.3627C367.739 78.7327 364.392 86.0317 363.736 86.4521C363.08 86.8725 350.685 81.2722 346.145 76.0587Z" fill="#1047F7"/>
<path d="M364.913 550.708L374.298 552.995L364.88 554.677L362.761 564.616L360.659 554.677L351.241 552.995L360.625 550.708L362.761 541.324L364.913 550.708ZM151.663 484.042L149.511 493.426L140.21 495.714L149.628 497.395L151.747 507.318L153.85 497.395L163.268 495.714L153.883 493.426L151.663 484.042ZM551.238 386.246L549.102 376.879L546.95 386.246L537.565 388.534L546.983 390.215L549.102 400.138L551.205 390.215L560.623 388.534L551.238 386.246ZM192.026 193.346L189.873 202.713L180.573 205.017L189.991 206.699L192.093 216.622L194.196 206.699L203.614 205.017L194.229 202.713L192.026 193.346ZM563.179 444.991L561.985 450.238L556.738 451.516L562.002 452.492L563.179 458.059L564.356 452.492L569.62 451.533L564.373 450.238L563.179 444.991ZM273.071 474.12L271.877 479.35L266.63 480.628L271.894 481.62L273.071 487.17L274.248 481.62L279.512 480.645L274.282 479.35L273.071 474.12ZM443.604 511.573L442.393 516.82L437.163 518.098L442.427 519.074L443.604 524.624L444.781 519.074L450.045 518.098L444.798 516.82L443.604 511.573ZM310.625 581.468L309.431 586.715L304.184 587.993L309.448 588.969L310.625 594.518L311.803 588.969L317.067 587.993L311.836 586.715L310.625 581.468ZM122.114 461.052L120.92 466.299L115.673 467.577L120.937 468.553L122.114 474.12L123.292 468.553L128.556 467.594L123.308 466.299L122.114 461.052ZM104.371 321.464L103.177 326.711L97.9302 327.989L103.211 328.965L104.371 334.531L105.549 328.965L110.83 328.006L105.582 326.711L104.371 321.464ZM482.05 520.419C481.674 520.459 481.326 520.636 481.073 520.917C480.82 521.198 480.679 521.563 480.679 521.941C480.679 522.319 480.82 522.684 481.073 522.965C481.326 523.246 481.674 523.424 482.05 523.463C482.426 523.424 482.774 523.246 483.027 522.965C483.28 522.684 483.42 522.319 483.42 521.941C483.42 521.563 483.28 521.198 483.027 520.917C482.774 520.636 482.426 520.459 482.05 520.419ZM585.009 343.579C584.603 343.579 584.213 343.741 583.926 344.028C583.639 344.315 583.478 344.704 583.478 345.11C583.478 345.516 583.639 345.905 583.926 346.192C584.213 346.479 584.603 346.64 585.009 346.64C585.414 346.64 585.804 346.479 586.091 346.192C586.378 345.905 586.539 345.516 586.539 345.11C586.539 344.704 586.378 344.315 586.091 344.028C585.804 343.741 585.414 343.579 585.009 343.579ZM167.119 240.066C166.713 240.066 166.324 240.227 166.037 240.514C165.75 240.801 165.588 241.19 165.588 241.596C165.588 242.002 165.75 242.391 166.037 242.678C166.324 242.965 166.713 243.126 167.119 243.126C167.525 243.126 167.914 242.965 168.201 242.678C168.488 242.391 168.649 242.002 168.649 241.596C168.649 241.19 168.488 240.801 168.201 240.514C167.914 240.227 167.525 240.066 167.119 240.066ZM535.026 466.821C534.65 466.86 534.302 467.038 534.049 467.319C533.796 467.6 533.656 467.964 533.656 468.343C533.656 468.721 533.796 469.086 534.049 469.367C534.302 469.648 534.65 469.825 535.026 469.865C535.402 469.825 535.75 469.648 536.003 469.367C536.256 469.086 536.396 468.721 536.396 468.343C536.396 467.964 536.256 467.6 536.003 467.319C535.75 467.038 535.402 466.86 535.026 466.821ZM92.3131 436.851C91.937 436.891 91.5889 437.068 91.3359 437.349C91.0829 437.63 90.9429 437.995 90.9429 438.373C90.9429 438.751 91.0829 439.116 91.3359 439.397C91.5889 439.678 91.937 439.856 92.3131 439.895C92.6892 439.856 93.0373 439.678 93.2903 439.397C93.5433 439.116 93.6833 438.751 93.6833 438.373C93.6833 437.995 93.5433 437.63 93.2903 437.349C93.0373 437.068 92.6892 436.891 92.3131 436.851ZM123.207 299.399C123.493 299.399 123.767 299.286 123.969 299.084C124.17 298.882 124.284 298.608 124.284 298.323C124.284 298.037 124.17 297.763 123.969 297.562C123.767 297.36 123.493 297.246 123.207 297.246C122.922 297.246 122.648 297.36 122.446 297.562C122.245 297.763 122.131 298.037 122.131 298.323C122.131 298.608 122.245 298.882 122.446 299.084C122.648 299.286 122.922 299.399 123.207 299.399ZM299.593 521.933C299.329 521.966 299.085 522.094 298.909 522.294C298.732 522.494 298.635 522.751 298.635 523.017C298.635 523.284 298.732 523.541 298.909 523.741C299.085 523.941 299.329 524.069 299.593 524.102C299.857 524.069 300.101 523.941 300.277 523.741C300.453 523.541 300.551 523.284 300.551 523.017C300.551 522.751 300.453 522.494 300.277 522.294C300.101 522.094 299.857 521.966 299.593 521.933ZM563.633 303.503C563.919 303.503 564.192 303.389 564.394 303.187C564.596 302.985 564.709 302.712 564.709 302.426C564.709 302.141 564.596 301.867 564.394 301.665C564.192 301.463 563.919 301.35 563.633 301.35C563.348 301.361 563.078 301.485 562.884 301.695C562.69 301.905 562.588 302.183 562.599 302.468C562.61 302.754 562.734 303.023 562.944 303.217C563.154 303.411 563.432 303.514 563.717 303.503H563.633ZM193.069 518.031C192.804 518.064 192.561 518.192 192.385 518.392C192.208 518.592 192.111 518.849 192.111 519.116C192.111 519.382 192.208 519.639 192.385 519.839C192.561 520.039 192.804 520.167 193.069 520.2C193.333 520.167 193.576 520.039 193.753 519.839C193.929 519.639 194.027 519.382 194.027 519.116C194.027 518.849 193.929 518.592 193.753 518.392C193.576 518.192 193.333 518.064 193.069 518.031ZM379.881 509.151C379.105 509.151 378.361 509.459 377.812 510.008C377.263 510.557 376.955 511.301 376.955 512.077C376.955 512.853 377.263 513.598 377.812 514.147C378.361 514.695 379.105 515.004 379.881 515.004C380.573 514.898 381.203 514.548 381.659 514.017C382.115 513.487 382.365 512.81 382.365 512.111C382.365 511.412 382.115 510.735 381.659 510.205C381.203 509.674 380.573 509.324 379.881 509.218V509.151ZM206.893 508.108C206.117 508.108 205.373 508.417 204.824 508.965C204.275 509.514 203.967 510.259 203.967 511.035C203.967 511.811 204.275 512.555 204.824 513.104C205.373 513.653 206.117 513.961 206.893 513.961C207.584 513.855 208.215 513.505 208.671 512.975C209.126 512.444 209.377 511.768 209.377 511.068C209.377 510.369 209.126 509.693 208.671 509.162C208.215 508.631 207.584 508.281 206.893 508.176V508.108ZM151.663 236.837C152.439 236.837 153.184 236.528 153.732 235.98C154.281 235.431 154.59 234.686 154.59 233.91C154.59 233.134 154.281 232.39 153.732 231.841C153.184 231.292 152.439 230.984 151.663 230.984C150.878 230.984 150.125 231.296 149.57 231.851C149.015 232.406 148.703 233.159 148.703 233.944C148.703 234.729 149.015 235.482 149.57 236.037C150.125 236.592 150.878 236.904 151.663 236.904V236.837ZM569.62 392.99C568.844 392.99 568.1 393.299 567.551 393.847C567.002 394.396 566.694 395.141 566.694 395.917C566.694 396.693 567.002 397.437 567.551 397.986C568.1 398.535 568.844 398.843 569.62 398.843C570.312 398.737 570.942 398.387 571.398 397.857C571.854 397.326 572.104 396.65 572.104 395.95C572.104 395.251 571.854 394.574 571.398 394.044C570.942 393.513 570.312 393.163 569.62 393.058V392.99Z" fill="#1047F7"/>
</svg>
