<svg width="921" height="739" viewBox="0 0 921 739" fill="none" xmlns="http://www.w3.org/2000/svg">
<path d="M854.233 318.812H786.281V401.344H768.792V354.615H682.369V428.6H670.932V254.967H595.827V302.639H557.332V361.925H545.679V324.628H477.393V435.93H457.428V345.438H394.978V276.74H352.513V237.615H303.406V411.17H286.899V338.737H205.978V442.414H194.797V357.799H112.736V281.554H66.7533V636.641H854.233V318.812Z" fill="#EBEBEB"/>
<path d="M834.406 344.967H845.901V329.187H834.406V344.967Z" fill="white"/>
<path d="M814.48 344.967H825.976V329.187H814.48V344.967Z" fill="white"/>
<path d="M794.534 344.967H806.03V329.187H794.534V344.967Z" fill="white"/>
<path d="M834.406 368.705H845.901V352.926H834.406V368.705Z" fill="white"/>
<path d="M814.48 368.705H825.976V352.926H814.48V368.705Z" fill="white"/>
<path d="M794.534 368.705H806.03V352.926H794.534V368.705Z" fill="white"/>
<path d="M834.406 392.443H845.901V376.664H834.406V392.443Z" fill="white"/>
<path d="M814.48 392.443H825.976V376.664H814.48V392.443Z" fill="white"/>
<path d="M794.534 392.443H806.03V376.664H794.534V392.443Z" fill="white"/>
<path d="M834.406 416.201H845.901V400.422H834.406V416.201Z" fill="white"/>
<path d="M814.48 416.201H825.976V400.422H814.48V416.201Z" fill="white"/>
<path d="M794.534 416.201H806.03V400.422H794.534V416.201Z" fill="white"/>
<path d="M436.342 369.904H447.838V356.738H436.342V369.904Z" fill="white"/>
<path d="M416.417 369.904H427.913V356.738H416.417V369.904Z" fill="white"/>
<path d="M396.471 369.904H407.967V356.738H396.471V369.904Z" fill="white"/>
<path d="M436.342 389.692H447.838V376.526H436.342V389.692Z" fill="white"/>
<path d="M416.417 389.692H427.913V376.526H416.417V389.692Z" fill="white"/>
<path d="M396.471 389.692H407.967V376.526H396.471V389.692Z" fill="white"/>
<path d="M436.342 409.5H447.838V396.334H436.342V409.5Z" fill="white"/>
<path d="M416.417 409.5H427.913V396.334H416.417V409.5Z" fill="white"/>
<path d="M396.471 409.5H407.967V396.334H396.471V409.5Z" fill="white"/>
<path d="M436.342 429.308H447.838V416.142H436.342V429.308Z" fill="white"/>
<path d="M416.417 429.308H427.913V416.142H416.417V429.308Z" fill="white"/>
<path d="M396.471 429.308H407.967V416.142H396.471V429.308Z" fill="white"/>
<path d="M436.342 449.606H447.838V436.44H436.342V449.606Z" fill="white"/>
<path d="M416.417 449.606H427.913V436.44H416.417V449.606Z" fill="white"/>
<path d="M396.471 449.606H407.967V436.44H396.471V449.606Z" fill="white"/>
<path d="M436.342 469.906H447.838V456.74H436.342V469.906Z" fill="white"/>
<path d="M416.417 469.906H427.913V456.74H416.417V469.906Z" fill="white"/>
<path d="M396.471 469.906H407.967V456.74H396.471V469.906Z" fill="white"/>
<path d="M436.342 490.186H447.838V477.02H436.342V490.186Z" fill="white"/>
<path d="M416.417 490.186H427.913V477.02H416.417V490.186Z" fill="white"/>
<path d="M396.471 490.186H407.967V477.02H396.471V490.186Z" fill="white"/>
<path d="M436.342 510.484H447.838V497.318H436.342V510.484Z" fill="white"/>
<path d="M416.417 510.484H427.913V497.318H416.417V510.484Z" fill="white"/>
<path d="M396.471 510.484H407.967V497.318H396.471V510.484Z" fill="white"/>
<path d="M692.783 374.601H758.967V364.736H692.783V374.601Z" fill="white"/>
<path d="M692.783 393.76H758.967V383.895H692.783V393.76Z" fill="white"/>
<path d="M692.783 412.899H758.967V403.035H692.783V412.899Z" fill="white"/>
<path d="M692.783 432.039H758.967V422.174H692.783V432.039Z" fill="white"/>
<path d="M692.783 451.198H758.967V441.334H692.783V451.198Z" fill="white"/>
<path d="M692.783 470.338H758.967V460.473H692.783V470.338Z" fill="white"/>
<path d="M692.783 489.497H758.967V479.632H692.783V489.497Z" fill="white"/>
<path d="M692.783 508.618H758.967V498.754H692.783V508.618Z" fill="white"/>
<path d="M216.236 357.799H277.094V347.934H216.236V357.799Z" fill="white"/>
<path d="M216.236 376.959H277.094V367.094H216.236V376.959Z" fill="white"/>
<path d="M216.236 396.118H277.094V386.254H216.236V396.118Z" fill="white"/>
<path d="M216.236 415.258H277.094V405.393H216.236V415.258Z" fill="white"/>
<path d="M216.236 434.397H277.094V424.533H216.236V434.397Z" fill="white"/>
<path d="M216.236 453.557H277.094V443.692H216.236V453.557Z" fill="white"/>
<path d="M216.236 472.696H277.094V462.832H216.236V472.696Z" fill="white"/>
<path d="M216.236 491.855H277.094V481.991H216.236V491.855Z" fill="white"/>
<path d="M216.236 510.032H277.094V500.168H216.236V510.032Z" fill="white"/>
<path d="M216.236 528.229H277.094V518.365H216.236V528.229Z" fill="white"/>
<path d="M216.236 546.426H277.094V536.561H216.236V546.426Z" fill="white"/>
<path d="M216.236 564.603H277.094V554.738H216.236V564.603Z" fill="white"/>
<path d="M216.236 582.799H277.094V572.934H216.236V582.799Z" fill="white"/>
<path d="M117.865 380.928H182.142V371.063H117.865V380.928Z" fill="white"/>
<path d="M117.865 400.088H182.142V390.223H117.865V400.088Z" fill="white"/>
<path d="M117.865 419.247H182.142V409.382H117.865V419.247Z" fill="white"/>
<path d="M117.865 438.386H182.142V428.521H117.865V438.386Z" fill="white"/>
<path d="M117.865 457.526H182.142V447.662H117.865V457.526Z" fill="white"/>
<path d="M117.865 476.686H182.142V466.821H117.865V476.686Z" fill="white"/>
<path d="M117.865 495.825H182.142V485.961H117.865V495.825Z" fill="white"/>
<path d="M117.865 514.984H182.142V505.12H117.865V514.984Z" fill="white"/>
<path d="M117.865 532.12H182.142V522.256H117.865V532.12Z" fill="white"/>
<path d="M117.865 549.255H182.142V539.39H117.865V549.255Z" fill="white"/>
<path d="M117.865 566.391H182.142V556.526H117.865V566.391Z" fill="white"/>
<path d="M505.257 343.101H525.694V333.57H505.257V343.101Z" fill="white"/>
<path d="M505.257 361.592H525.694V352.061H505.257V361.592Z" fill="white"/>
<path d="M505.257 380.083H525.694V370.552H505.257V380.083Z" fill="white"/>
<path d="M505.257 398.574H525.694V389.044H505.257V398.574Z" fill="white"/>
<path d="M505.257 417.065H525.694V407.535H505.257V417.065Z" fill="white"/>
<path d="M505.257 435.557H525.694V426.026H505.257V435.557Z" fill="white"/>
<path d="M505.257 454.048H525.694V444.517H505.257V454.048Z" fill="white"/>
<path d="M505.257 472.539H525.694V463.009H505.257V472.539Z" fill="white"/>
<path d="M477.452 343.101H497.888V333.57H477.452V343.101Z" fill="white"/>
<path d="M477.452 361.592H497.888V352.061H477.452V361.592Z" fill="white"/>
<path d="M477.452 380.083H497.888V370.552H477.452V380.083Z" fill="white"/>
<path d="M477.452 398.574H497.888V389.044H477.452V398.574Z" fill="white"/>
<path d="M477.452 417.065H497.888V407.535H477.452V417.065Z" fill="white"/>
<path d="M477.452 435.557H497.888V426.026H477.452V435.557Z" fill="white"/>
<path d="M477.452 454.048H497.888V444.517H477.452V454.048Z" fill="white"/>
<path d="M477.452 472.539H497.888V463.009H477.452V472.539Z" fill="white"/>
<path d="M638.233 280.002H659.535V264.969H638.233V280.002Z" fill="white"/>
<path d="M606.497 280.002H627.799V264.969H606.497V280.002Z" fill="white"/>
<path d="M638.233 302.069H659.535V287.037H638.233V302.069Z" fill="white"/>
<path d="M606.497 302.069H627.799V287.037H606.497V302.069Z" fill="white"/>
<path d="M638.233 324.157H659.535V309.124H638.233V324.157Z" fill="white"/>
<path d="M606.497 324.157H627.799V309.124H606.497V324.157Z" fill="white"/>
<path d="M638.233 346.225H659.535V331.192H638.233V346.225Z" fill="white"/>
<path d="M606.497 346.225H627.799V331.192H606.497V346.225Z" fill="white"/>
<path d="M638.233 368.312H659.535V353.279H638.233V368.312Z" fill="white"/>
<path d="M606.497 368.312H627.799V353.279H606.497V368.312Z" fill="white"/>
<path d="M638.233 390.399H659.535V375.367H638.233V390.399Z" fill="white"/>
<path d="M606.497 390.399H627.799V375.367H606.497V390.399Z" fill="white"/>
<path d="M638.233 412.467H659.535V397.434H638.233V412.467Z" fill="white"/>
<path d="M606.497 412.467H627.799V397.434H606.497V412.467Z" fill="white"/>
<path d="M638.233 434.554H659.535V419.521H638.233V434.554Z" fill="white"/>
<path d="M606.497 434.554H627.799V419.521H606.497V434.554Z" fill="white"/>
<path d="M567.137 324.157H588.438V309.124H567.137V324.157Z" fill="white"/>
<path d="M567.137 346.225H588.438V331.192H567.137V346.225Z" fill="white"/>
<path d="M567.137 368.312H588.438V353.279H567.137V368.312Z" fill="white"/>
<path d="M567.137 390.399H588.438V375.367H567.137V390.399Z" fill="white"/>
<path d="M567.137 412.467H588.438V397.434H567.137V412.467Z" fill="white"/>
<path d="M567.137 434.554H588.438V419.521H567.137V434.554Z" fill="white"/>
<path d="M638.233 456.367H659.535V441.334H638.233V456.367Z" fill="white"/>
<path d="M606.497 456.367H627.799V441.334H606.497V456.367Z" fill="white"/>
<path d="M567.137 456.367H588.438V441.334H567.137V456.367Z" fill="white"/>
<path d="M638.233 478.159H659.535V463.126H638.233V478.159Z" fill="white"/>
<path d="M606.497 478.159H627.799V463.126H606.497V478.159Z" fill="white"/>
<path d="M567.137 478.159H588.438V463.126H567.137V478.159Z" fill="white"/>
<path d="M638.233 499.972H659.535V484.939H638.233V499.972Z" fill="white"/>
<path d="M606.497 499.972H627.799V484.939H606.497V499.972Z" fill="white"/>
<path d="M567.137 499.972H588.438V484.939H567.137V499.972Z" fill="white"/>
<path d="M638.233 521.783H659.535V506.75H638.233V521.783Z" fill="white"/>
<path d="M606.497 521.783H627.799V506.75H606.497V521.783Z" fill="white"/>
<path d="M567.137 521.783H588.438V506.75H567.137V521.783Z" fill="white"/>
<path d="M638.233 543.596H659.535V528.563H638.233V543.596Z" fill="white"/>
<path d="M606.497 543.596H627.799V528.563H606.497V543.596Z" fill="white"/>
<path d="M567.137 543.596H588.438V528.563H567.137V543.596Z" fill="white"/>
<path d="M374.816 299.574H386.312V286.408H374.816V299.574Z" fill="white"/>
<path d="M354.891 299.574H366.386V286.408H354.891V299.574Z" fill="white"/>
<path d="M374.816 319.382H386.312V306.216H374.816V319.382Z" fill="white"/>
<path d="M354.891 319.382H366.386V306.216H354.891V319.382Z" fill="white"/>
<path d="M374.816 339.189H386.312V326.024H374.816V339.189Z" fill="white"/>
<path d="M354.891 339.189H366.386V326.024H354.891V339.189Z" fill="white"/>
<path d="M374.816 359.018H386.312V345.852H374.816V359.018Z" fill="white"/>
<path d="M354.891 359.018H366.386V345.852H354.891V359.018Z" fill="white"/>
<path d="M374.816 379.316H386.312V366.15H374.816V379.316Z" fill="white"/>
<path d="M354.891 379.316H366.386V366.15H354.891V379.316Z" fill="white"/>
<path d="M374.816 399.596H386.312V386.43H374.816V399.596Z" fill="white"/>
<path d="M354.891 399.596H366.386V386.43H354.891V399.596Z" fill="white"/>
<path d="M374.816 419.895H386.312V406.729H374.816V419.895Z" fill="white"/>
<path d="M354.891 419.895H366.386V406.729H354.891V419.895Z" fill="white"/>
<path d="M374.816 440.194H386.312V427.028H374.816V440.194Z" fill="white"/>
<path d="M354.891 440.194H366.386V427.028H354.891V440.194Z" fill="white"/>
<path d="M374.816 460.71H386.312V447.544H374.816V460.71Z" fill="white"/>
<path d="M354.891 460.71H366.386V447.544H354.891V460.71Z" fill="white"/>
<path d="M374.816 481.205H386.312V468.039H374.816V481.205Z" fill="white"/>
<path d="M354.891 481.205H366.386V468.039H354.891V481.205Z" fill="white"/>
<path d="M374.816 501.72H386.312V488.554H374.816V501.72Z" fill="white"/>
<path d="M354.891 501.72H366.386V488.554H354.891V501.72Z" fill="white"/>
<path d="M374.816 522.255H386.312V509.089H374.816V522.255Z" fill="white"/>
<path d="M354.891 522.255H366.386V509.089H354.891V522.255Z" fill="white"/>
<path d="M94.0283 304.055H105.524V288.55H94.0283V304.055Z" fill="white"/>
<path d="M74.1222 304.055H85.6178V288.55H74.1222V304.055Z" fill="white"/>
<path d="M94.0283 327.399H105.524V311.895H94.0283V327.399Z" fill="white"/>
<path d="M74.1222 327.399H85.6178V311.895H74.1222V327.399Z" fill="white"/>
<path d="M94.0283 350.725H105.524V335.22H94.0283V350.725Z" fill="white"/>
<path d="M74.1222 350.725H85.6178V335.22H74.1222V350.725Z" fill="white"/>
<path d="M94.0283 374.069H105.524V358.565H94.0283V374.069Z" fill="white"/>
<path d="M74.1222 374.069H85.6178V358.565H74.1222V374.069Z" fill="white"/>
<path d="M94.0283 397.984H105.524V382.48H94.0283V397.984Z" fill="white"/>
<path d="M74.1222 397.984H85.6178V382.48H74.1222V397.984Z" fill="white"/>
<path d="M94.0283 421.899H105.524V406.395H94.0283V421.899Z" fill="white"/>
<path d="M74.1222 421.899H85.6178V406.395H74.1222V421.899Z" fill="white"/>
<path d="M94.0283 445.795H105.524V430.291H94.0283V445.795Z" fill="white"/>
<path d="M74.1222 445.795H85.6178V430.291H74.1222V445.795Z" fill="white"/>
<path d="M94.0283 469.729H105.524V454.224H94.0283V469.729Z" fill="white"/>
<path d="M74.1222 469.729H85.6178V454.224H74.1222V469.729Z" fill="white"/>
<path d="M94.0283 493.899H105.524V478.395H94.0283V493.899Z" fill="white"/>
<path d="M74.1222 493.899H85.6178V478.395H74.1222V493.899Z" fill="white"/>
<path d="M94.0283 518.05H105.524V502.545H94.0283V518.05Z" fill="white"/>
<path d="M74.1223 518.05H85.6179V502.545H74.1223V518.05Z" fill="white"/>
<path d="M94.0283 542.221H105.524V526.716H94.0283V542.221Z" fill="white"/>
<path d="M74.1223 542.221H85.6179V526.716H74.1223V542.221Z" fill="white"/>
<path d="M94.0283 566.391H105.524V550.886H94.0283V566.391Z" fill="white"/>
<path d="M74.1223 566.391H85.6179V550.886H74.1223V566.391Z" fill="white"/>
<path d="M332.175 299.574H343.67V286.408H332.175V299.574Z" fill="white"/>
<path d="M312.249 299.574H323.744V286.408H312.249V299.574Z" fill="white"/>
<path d="M332.175 279.275H343.67V266.109H332.175V279.275Z" fill="white"/>
<path d="M312.249 279.275H323.744V266.109H312.249V279.275Z" fill="white"/>
<path d="M332.175 258.977H343.67V245.811H332.175V258.977Z" fill="white"/>
<path d="M312.249 258.977H323.744V245.811H312.249V258.977Z" fill="white"/>
<path d="M332.175 319.382H343.67V306.216H332.175V319.382Z" fill="white"/>
<path d="M312.249 319.382H323.744V306.216H312.249V319.382Z" fill="white"/>
<path d="M332.175 339.189H343.67V326.024H332.175V339.189Z" fill="white"/>
<path d="M312.249 339.189H323.744V326.024H312.249V339.189Z" fill="white"/>
<path d="M332.175 359.018H343.67V345.852H332.175V359.018Z" fill="white"/>
<path d="M312.249 359.018H323.744V345.852H312.249V359.018Z" fill="white"/>
<path d="M332.175 379.316H343.67V366.15H332.175V379.316Z" fill="white"/>
<path d="M312.249 379.316H323.744V366.15H312.249V379.316Z" fill="white"/>
<path d="M332.175 399.596H343.67V386.43H332.175V399.596Z" fill="white"/>
<path d="M312.249 399.596H323.744V386.43H312.249V399.596Z" fill="white"/>
<path d="M332.175 419.895H343.67V406.729H332.175V419.895Z" fill="white"/>
<path d="M312.249 419.895H323.744V406.729H312.249V419.895Z" fill="white"/>
<path d="M332.175 440.194H343.67V427.028H332.175V440.194Z" fill="white"/>
<path d="M312.249 440.194H323.744V427.028H312.249V440.194Z" fill="white"/>
<path d="M332.175 460.71H343.67V447.544H332.175V460.71Z" fill="white"/>
<path d="M312.249 460.71H323.744V447.544H312.249V460.71Z" fill="white"/>
<path d="M332.175 481.205H343.67V468.039H332.175V481.205Z" fill="white"/>
<path d="M312.249 481.205H323.744V468.039H312.249V481.205Z" fill="white"/>
<path d="M332.175 501.72H343.67V488.554H332.175V501.72Z" fill="white"/>
<path d="M312.249 501.72H323.744V488.554H312.249V501.72Z" fill="white"/>
<path d="M332.175 522.255H343.67V509.089H332.175V522.255Z" fill="white"/>
<path d="M312.249 522.255H323.744V509.089H312.249V522.255Z" fill="white"/>
<path d="M845.862 209.319H634.283C634.283 209.319 655.27 152.018 687.556 152.018C719.842 152.018 729.943 191.574 729.943 191.574C729.943 191.574 751.735 170.077 769.637 170.077C787.539 170.077 803.043 198.472 803.043 198.472C803.043 198.472 828.373 183.203 845.862 209.319Z" fill="#EBEBEB"/>
<path d="M727.447 95.9933H628.565C628.565 95.9933 650.653 63.9824 668.063 63.9824C685.473 63.9824 690.622 85.323 690.622 85.323C690.622 85.323 702.904 75.3601 714.203 77.1483C725.502 78.9366 727.447 95.9933 727.447 95.9933Z" fill="#EBEBEB"/>
<path d="M267.72 192.263H75.144C75.144 192.263 101.515 133.311 129.734 129.695C157.952 126.079 171.432 173.437 171.432 173.437C171.432 173.437 189.629 156.675 203.934 156.675C218.24 156.675 229.303 178.763 229.303 178.763C229.303 178.763 257.895 163.632 267.72 192.263Z" fill="#EBEBEB"/>
<path d="M450.766 46.5132H320.659C320.659 46.5132 343.002 3.85161 367.251 3.28174C391.5 2.71187 404.233 35.5677 404.233 35.5677C404.233 35.5677 441.943 5.24681 450.766 46.5132Z" fill="#EBEBEB"/>
<path d="M539.607 738.766C716.55 738.766 859.991 729.273 859.991 717.563C859.991 705.853 716.55 696.36 539.607 696.36C362.664 696.36 219.223 705.853 219.223 717.563C219.223 729.273 362.664 738.766 539.607 738.766Z" fill="#EBEBEB"/>
<path d="M920.986 636.642L805.853 637.113L690.74 637.29L460.493 637.605L230.247 637.29L115.133 637.113L0 636.642L115.133 636.15L230.247 635.974L460.493 635.659L690.74 635.974L805.853 636.15L920.986 636.642Z" fill="#263238"/>
<path d="M446.128 332.705C479.377 367.291 579.262 521.214 587.043 525.812C587.043 525.812 587.043 626.483 531.412 606.38C475.781 586.277 424.788 405.668 413.901 348.092C408.163 317.692 418.971 304.487 446.128 332.705Z" fill="#D3766A"/>
<path d="M437.659 451.71L539.607 440.116C539.607 440.116 476.371 356.228 443.692 326.28C409.618 295.075 392.915 299.457 408.714 358.566C424.592 418.029 437.659 451.71 437.659 451.71Z" fill="#1047F7"/>
<path d="M432.864 396.177C431.744 398.989 431.029 401.947 430.742 404.961C434.299 400.046 436.513 394.289 437.168 388.258C435.349 390.67 433.899 393.339 432.864 396.177ZM490.126 398.476C487.321 397.353 484.37 396.639 481.362 396.354C486.267 399.914 492.019 402.13 498.045 402.78C495.636 400.957 492.966 399.506 490.126 398.476ZM474.936 438.131C473.736 435.359 472.148 432.772 470.22 430.448C470.671 433.432 471.545 436.336 472.814 439.074C473.975 441.863 475.552 444.46 477.491 446.777C477.05 443.789 476.19 440.879 474.936 438.131ZM415.12 310.402C414.609 309.321 414.098 308.26 413.508 307.199C412.809 307.13 412.105 307.13 411.406 307.199C411.877 308.633 412.408 310.009 412.997 311.384C414.178 314.168 415.76 316.763 417.694 319.087C417.251 316.085 416.385 313.161 415.12 310.402ZM532.611 430.939L530.646 431.725C527.865 432.922 525.265 434.503 522.923 436.421C525.919 435.977 528.837 435.11 531.589 433.847C532.375 433.493 533.141 433.12 533.908 432.707L532.611 430.939ZM454.008 349.959C451.234 351.149 448.641 352.723 446.305 354.635C449.302 354.206 452.221 353.345 454.971 352.081C457.749 350.889 460.342 349.307 462.674 347.384C459.663 347.817 456.731 348.684 453.969 349.959H454.008ZM447.17 350.135C447.054 350.214 446.942 350.3 446.836 350.391H447.19C447.19 350.391 447.131 350.194 447.131 350.135H447.17Z" fill="white"/>
<path d="M442.552 433.375C444.93 432.825 447.426 432.609 449.843 432.275L457.349 431.233C462.399 430.526 467.469 429.897 472.539 429.268C482.679 428.089 492.819 426.851 502.978 425.849C505.768 425.574 508.578 425.299 511.369 425.083C514.159 424.867 517.264 424.867 520.212 424.65C520.388 424.65 520.388 424.906 520.212 424.926C517.716 425.299 515.24 425.869 512.744 426.262C510.249 426.655 507.596 427.008 505.022 427.323C499.971 427.971 494.882 428.561 489.812 429.131C479.83 430.212 469.827 431.351 459.805 432.236L451.434 432.943C448.506 433.198 445.539 433.631 442.592 433.611C442.569 433.603 442.549 433.588 442.533 433.57C442.518 433.551 442.507 433.529 442.503 433.505C442.499 433.481 442.502 433.456 442.51 433.433C442.519 433.411 442.533 433.391 442.552 433.375Z" fill="#263238"/>
<path opacity="0.1" d="M487.12 446.09L437.679 451.71C437.679 451.71 424.611 418.029 408.714 358.566C402.013 333.492 401.168 318.262 405.019 311.404L487.12 446.09Z" fill="black"/>
<path d="M465.936 661.382H310.873C309.596 656.391 308.358 651.557 307.12 646.644C305.705 641.083 304.31 635.66 302.974 630.374C302.679 629.195 302.364 628.016 302.07 626.856C301.048 622.808 300.046 618.878 299.063 615.066C298.474 612.727 297.884 610.428 297.314 608.149C296.744 605.869 296.135 603.55 295.565 601.33C295.408 600.74 295.271 600.151 295.113 599.581L294.642 597.616L294.052 595.317C293.836 594.511 293.64 593.725 293.443 592.939C293.05 591.446 292.677 589.972 292.323 588.537C291.773 586.415 291.242 584.332 290.731 582.308C290.515 581.424 290.279 580.54 290.063 579.675C289.69 578.26 289.336 576.885 289.002 575.529C288.766 574.625 288.55 573.74 288.334 572.876C287.417 569.312 286.565 565.972 285.779 562.854C285.563 562.029 285.367 561.223 285.151 560.437C284.816 559.081 284.482 557.784 284.168 556.507C283.945 555.721 283.749 554.954 283.578 554.208C282.891 551.535 282.262 549.099 281.731 546.957C281.574 546.387 281.437 545.837 281.299 545.306C280.945 543.891 280.611 542.633 280.336 541.513C280.218 541.061 280.12 540.629 280.002 540.236L279.688 538.998C279.688 538.723 279.55 538.448 279.491 538.212L279.216 537.151C279.216 536.981 279.177 536.823 279.098 536.679L278.744 535.284H429.681C429.681 535.284 434.653 552.42 442.611 580.048C444.222 585.668 445.971 591.839 447.838 598.186C453.124 616.618 459.295 638.116 465.936 661.382Z" fill="#37474F"/>
<path d="M336.262 661.382H332.332C326.594 637.631 321.032 613.834 315.648 589.991C314.338 584.188 313.028 578.384 311.718 572.581L311.364 570.95C311.358 570.893 311.372 570.836 311.404 570.789C311.436 570.742 311.484 570.709 311.539 570.694C311.594 570.68 311.653 570.686 311.703 570.711C311.754 570.736 311.795 570.779 311.816 570.832C311.816 571.009 311.915 571.186 311.974 571.362C313.716 577.598 315.452 583.841 317.181 590.089C323.823 613.788 330.183 637.552 336.262 661.382Z" fill="#263238"/>
<path d="M424.788 535.304L418.126 568.71L412.664 596.064L403.369 642.675L402.406 647.45L400.814 655.409L399.576 661.382H310.854C309.596 656.371 308.338 651.557 307.12 646.644C305.705 641.083 304.31 635.66 302.974 630.374C302.679 629.195 302.364 628.016 302.07 626.856C301.048 622.808 300.046 618.878 299.063 615.066C298.474 612.727 297.884 610.428 297.314 608.149C296.744 605.869 296.135 603.55 295.565 601.33C295.408 600.74 295.271 600.151 295.113 599.581L294.642 597.616L294.052 595.317C293.836 594.511 293.64 593.725 293.443 592.939C293.05 591.446 292.677 589.972 292.323 588.537C291.773 586.415 291.242 584.332 290.731 582.308C290.495 581.404 290.279 580.54 290.063 579.675C289.69 578.26 289.336 576.885 289.002 575.529C288.766 574.625 288.55 573.74 288.334 572.876C287.417 569.312 286.565 565.972 285.779 562.854C285.563 562.029 285.367 561.223 285.151 560.437C284.816 559.081 284.482 557.784 284.168 556.507C283.945 555.721 283.749 554.954 283.578 554.208C282.891 551.535 282.262 549.099 281.731 546.957C281.574 546.387 281.437 545.837 281.299 545.306C280.945 543.891 280.611 542.633 280.336 541.513C280.218 541.061 280.12 540.629 280.002 540.236L279.688 538.998C279.688 538.723 279.55 538.448 279.491 538.212L279.216 537.151C279.216 536.981 279.177 536.823 279.098 536.679L278.744 535.284L424.788 535.304Z" fill="#263238"/>
<path d="M424.808 535.244C424.808 536.07 424.179 545.07 422.725 558.825C422.312 562.755 421.821 567.236 421.251 571.952C420.367 579.4 419.286 587.672 417.91 596.299C415.591 611.45 412.565 627.976 408.635 644.129C407.24 650.024 405.707 655.703 404.076 661.343H209.24C211.539 631.651 213.642 604.788 215.312 583.624C217.65 553.834 219.242 535.186 219.242 535.186H395.98L424.808 535.244Z" fill="#37474F"/>
<path d="M424.395 553.146C424.179 560.122 423.884 567.079 423.432 574.015C422.96 581.541 422.273 589.048 421.29 596.555C421.29 596.83 421.29 597.105 421.192 597.38C420.275 604.415 419.22 611.43 418.028 618.426C416.908 624.95 416.063 631.985 413.194 638.076C412.104 640.412 410.553 642.504 408.635 644.227C406.88 645.833 404.73 646.945 402.406 647.45C402.025 647.545 401.637 647.611 401.246 647.646H400.912C400.984 647.687 401.042 647.748 401.081 647.821C401.119 647.894 401.136 647.977 401.128 648.059C401.128 650.397 401.128 652.775 400.853 655.094C400.853 655.192 400.853 655.29 400.853 655.389C400.617 657.354 400.244 659.417 399.871 661.421H396.53V661.303C397.12 659.103 397.611 656.882 398.161 654.662C398.711 652.441 399.497 650.181 400.028 647.882C400.057 647.796 400.112 647.72 400.185 647.666C398.065 647.768 395.964 647.218 394.165 646.09C392.367 644.962 390.956 643.311 390.124 641.358C389.286 638.37 389.232 635.216 389.967 632.201C390.576 628.271 391.166 624.223 391.775 620.234C392.914 612.904 394.388 605.653 395.705 598.362L396.294 595.041C398.908 580.205 401.639 565.369 404.921 550.67C405.039 550.061 405.176 549.452 405.314 548.843C405.452 548.234 406.061 548.548 406.021 548.941C405.923 549.924 405.825 550.906 405.707 551.908C405.131 557.555 404.476 563.175 403.742 568.769C402.799 575.351 402.15 581.974 401.227 588.557C400.912 590.797 400.598 593.037 400.264 595.277C398.751 606.105 397.179 616.893 395.331 627.72C394.467 632.731 391.401 641.712 398.554 643.264C400.207 643.631 401.935 643.415 403.447 642.655C406.632 640.736 409.013 637.726 410.148 634.186C411.917 628.288 413.199 622.254 413.98 616.146C415.159 609.596 416.207 602.987 417.124 596.319C418.303 588.052 419.535 579.793 420.818 571.539C421.46 567.334 422.115 563.129 422.783 558.924L423.727 553.028C423.746 552.616 424.395 552.734 424.395 553.146Z" fill="#263238"/>
<path d="M251.98 604.945C260.094 604.861 268.167 603.772 276.013 601.703C279.629 600.779 283.205 599.62 286.762 598.461C290.286 597.488 293.584 595.832 296.469 593.587C301.932 588.871 304.467 581.463 306.845 574.86C309.426 567.426 311.52 559.831 313.113 552.124C313.113 551.751 313.742 551.888 313.762 552.242C313.951 560.958 312.845 569.653 310.48 578.043C308.515 585.177 305.882 593.116 300.124 598.107C294.367 603.098 285.858 605.22 278.096 606.164C269.392 607.176 260.594 607.057 251.921 605.81C251.807 605.802 251.7 605.749 251.624 605.662C251.549 605.576 251.511 605.463 251.518 605.348C251.526 605.233 251.579 605.127 251.666 605.051C251.752 604.975 251.865 604.937 251.98 604.945Z" fill="#263238"/>
<path d="M238.441 552.36C238.009 563.26 237.55 574.173 237.065 585.098C235.952 610.526 234.727 635.954 233.391 661.382H229.736C231.412 635.902 233.174 610.435 235.022 584.981C235.821 574.094 236.646 563.214 237.498 552.341C237.5 552.216 237.552 552.097 237.643 552.01C237.733 551.924 237.854 551.876 237.979 551.879C238.104 551.882 238.223 551.934 238.31 552.024C238.396 552.114 238.443 552.235 238.441 552.36Z" fill="#263238"/>
<path d="M458.351 615.95L194.03 595.906C194.03 595.906 247.205 385.153 352.198 307.67C379.041 287.882 408.419 300.576 421.644 315.373C455.246 353.063 459.137 615.105 458.351 615.95Z" fill="#1047F7"/>
<path d="M364.421 317.26C363.312 320.069 362.598 323.019 362.299 326.024C364.108 323.624 365.564 320.977 366.622 318.164C367.731 315.354 368.445 312.405 368.744 309.399C366.942 311.804 365.487 314.45 364.421 317.26ZM335.731 430.958C334.601 433.767 333.893 436.727 333.628 439.742C337.168 434.82 339.375 429.066 340.035 423.039C338.23 425.461 336.781 428.127 335.731 430.958ZM241.29 479.712C240.172 482.525 239.457 485.482 239.168 488.495C242.724 483.581 244.939 477.824 245.594 471.792C243.805 474.224 242.357 476.888 241.29 479.712ZM317.515 551.535C316.374 554.334 315.659 557.288 315.393 560.299C318.933 555.377 321.139 549.623 321.799 543.596C319.997 546.022 318.554 548.696 317.515 551.535ZM432.864 396.137C431.744 398.95 431.029 401.908 430.742 404.921C434.298 400.006 436.513 394.25 437.168 388.218C435.346 390.642 433.895 393.325 432.864 396.177V396.137ZM385.821 539.096C384.678 541.895 383.956 544.849 383.679 547.86C385.485 545.462 386.935 542.814 387.982 540C389.1 537.193 389.815 534.243 390.104 531.236C388.304 533.635 386.861 536.283 385.821 539.096ZM290.574 390.792C289.453 393.598 288.739 396.549 288.452 399.557C292.013 394.646 294.222 388.886 294.858 382.854C293.048 385.275 291.605 387.95 290.574 390.792ZM396.176 353.063C393.374 351.931 390.422 351.216 387.412 350.941C389.815 352.736 392.462 354.179 395.273 355.225C398.08 356.361 401.04 357.076 404.056 357.347C401.65 355.546 398.996 354.104 396.176 353.063ZM426.124 447.799C423.321 446.672 420.368 445.957 417.36 445.677C419.757 447.48 422.405 448.924 425.22 449.961C428.023 451.094 430.975 451.816 433.984 452.102C431.583 450.32 428.935 448.896 426.124 447.878V447.799ZM434.161 561.026C431.356 559.906 428.404 559.191 425.397 558.904C427.793 560.714 430.441 562.163 433.257 563.207C436.064 564.323 439.015 565.038 442.021 565.329C439.611 563.561 436.966 562.139 434.161 561.105V561.026ZM246.006 551.712C243.201 550.589 240.25 549.874 237.242 549.589C242.147 553.15 247.899 555.365 253.925 556.015C251.501 554.235 248.834 552.813 246.006 551.79V551.712ZM314.017 479.004C311.212 477.878 308.261 477.156 305.253 476.862C307.654 478.67 310.301 480.126 313.113 481.185C315.922 482.294 318.872 483.009 321.877 483.308C319.473 481.526 316.826 480.097 314.017 479.063V479.004ZM415.12 310.343C414.845 309.753 414.569 309.183 414.275 308.613C413.312 307.886 412.31 307.179 411.229 306.491C411.715 308.138 412.306 309.753 412.997 311.325C414.178 314.109 415.76 316.704 417.694 319.028C417.246 316.046 416.379 313.142 415.12 310.402V310.343ZM337.873 371.456C336.688 368.675 335.106 366.08 333.177 363.753C334.121 369.747 336.629 375.386 340.447 380.103C340.015 377.11 339.148 374.198 337.873 371.456ZM406.08 603.982C404.895 601.206 403.32 598.612 401.404 596.279C401.838 599.268 402.699 602.18 403.958 604.926C405.078 607.51 406.525 609.94 408.262 612.157H408.576C408.123 609.331 407.283 606.58 406.08 603.982ZM380.987 467.037C379.791 464.261 378.21 461.668 376.29 459.334C377.267 465.315 379.763 470.945 383.541 475.683C383.106 472.694 382.246 469.783 380.987 467.037ZM200.947 571.461C200.829 571.873 200.712 572.286 200.574 572.679C200.829 572.954 201.065 573.249 201.301 573.524C201.222 572.849 201.104 572.18 200.947 571.519V571.461ZM279.55 519.033C278.357 516.261 276.776 513.674 274.853 511.349C275.803 517.336 278.311 522.967 282.124 527.679C281.656 524.707 280.769 521.815 279.491 519.092L279.55 519.033ZM296.41 594.688C295.218 591.91 293.636 589.317 291.714 586.985C292.687 592.976 295.191 598.615 298.984 603.353C298.522 600.38 297.635 597.488 296.351 594.766L296.41 594.688ZM428.6 503.666C425.825 504.863 423.232 506.444 420.897 508.362C423.887 507.921 426.799 507.054 429.543 505.788C432.33 504.603 434.931 503.021 437.266 501.092C434.245 501.541 431.306 502.428 428.541 503.725L428.6 503.666ZM220.107 515.142L219.105 517.854C221.224 516.831 223.205 515.543 225 514.022C223.313 514.242 221.653 514.637 220.048 515.201L220.107 515.142ZM354.871 580.618C352.093 581.8 349.499 583.375 347.168 585.295C350.163 584.857 353.08 583.997 355.834 582.74C358.609 581.536 361.202 579.948 363.537 578.024C360.513 578.469 357.572 579.363 354.812 580.677L354.871 580.618ZM234.353 598.146L232.998 598.795L237.615 599.148C239.546 598.174 241.353 596.973 243 595.572C239.988 596.032 237.057 596.919 234.294 598.205L234.353 598.146ZM280.65 436.559C277.882 437.769 275.291 439.349 272.947 441.255C278.937 440.288 284.575 437.79 289.316 434.004C286.297 434.447 283.357 435.328 280.591 436.618L280.65 436.559ZM348.406 511.821C345.628 513.02 343.034 514.608 340.703 516.537C346.697 515.574 352.338 513.069 357.072 509.266C354.054 509.717 351.116 510.597 348.347 511.88L348.406 511.821ZM383.777 408.36C381.006 409.565 378.414 411.145 376.074 413.057C382.063 412.107 387.699 409.607 392.423 405.806C389.391 406.251 386.44 407.131 383.659 408.419L383.777 408.36Z" fill="white"/>
<path d="M406.67 359.411C391.421 357.151 375.936 326.378 373.264 305.391C373.087 303.937 396.845 258.603 400.559 249.151C401.325 247.186 454.303 287.195 454.303 287.195C454.303 287.195 440.548 304.723 434.122 321.289C433.67 322.664 421.408 361.572 406.67 359.411Z" fill="#D3766A"/>
<path d="M454.382 287.194C454.382 287.194 440.626 304.723 434.181 321.269C434.063 321.603 433.277 324.039 431.98 327.518C404.744 313.762 393.641 289.199 389.161 272.987C394.31 262.67 399.104 252.983 400.637 249.151C401.403 247.205 454.382 287.194 454.382 287.194Z" fill="#263238"/>
<path d="M412.801 175.52C397.297 193.461 381.792 258.171 390.655 278.057C403.526 306.865 437.816 324.177 465.563 305.764C492.543 287.902 511.251 203.208 500.109 183.793C483.72 155.182 435.674 149.031 412.801 175.52Z" fill="#D3766A"/>
<path d="M454.225 228.086C452.259 228.243 450.294 228.086 448.329 228.086C446.243 228.37 444.122 227.955 442.297 226.907C441.787 226.465 441.438 225.867 441.303 225.206C441.168 224.545 441.255 223.858 441.55 223.252C442.317 222.144 443.367 221.261 444.59 220.694C445.813 220.127 447.165 219.898 448.506 220.029C451.262 219.867 453.98 220.735 456.131 222.466C456.586 222.894 456.908 223.445 457.06 224.052C457.211 224.659 457.184 225.296 456.984 225.888C456.783 226.481 456.416 227.003 455.927 227.392C455.438 227.782 454.847 228.023 454.225 228.086Z" fill="#263238"/>
<path d="M452.495 237.576C452.495 237.4 452.102 237.714 452.063 237.911C451.336 242.332 449.744 247.284 445.48 247.952C445.343 247.952 445.303 248.188 445.48 248.207C450.452 248.483 452.495 241.9 452.495 237.576Z" fill="#263238"/>
<path d="M449.469 232.193C442.493 230.228 439.113 244.357 445.539 246.145C451.965 247.933 455.305 233.824 449.469 232.193Z" fill="#263238"/>
<path d="M477.845 243.02C477.845 242.863 478.139 243.315 478.1 243.492C476.921 247.815 476.292 252.983 479.888 255.282C480.006 255.282 479.888 255.577 479.79 255.518C475.133 253.789 476.037 246.95 477.845 243.02Z" fill="#263238"/>
<path d="M482.836 239.404C489.989 240.544 487.179 254.751 480.556 253.69C473.934 252.629 476.842 238.441 482.836 239.404Z" fill="#263238"/>
<path d="M490.087 232.409C488.281 231.57 486.523 230.632 484.82 229.599C482.823 228.861 481.129 227.478 480.006 225.669C479.76 225.036 479.731 224.34 479.923 223.69C480.115 223.039 480.517 222.47 481.067 222.073C483.484 220.501 486.275 221.228 488.751 222.446C491.275 223.596 493.284 225.64 494.39 228.184C494.623 228.782 494.675 229.436 494.54 230.063C494.404 230.69 494.088 231.265 493.63 231.714C493.172 232.164 492.593 232.469 491.963 232.593C491.333 232.716 490.681 232.652 490.087 232.409Z" fill="#263238"/>
<path d="M437.875 275.404C438.661 276.681 439.369 278.332 440.921 278.843C442.559 279.196 444.254 279.196 445.893 278.843C445.926 278.839 445.959 278.847 445.988 278.864C446.016 278.881 446.039 278.907 446.052 278.937C446.065 278.968 446.068 279.002 446.061 279.034C446.053 279.067 446.036 279.096 446.011 279.118C445.184 279.824 444.181 280.294 443.108 280.478C442.036 280.661 440.934 280.551 439.919 280.159C439.082 279.718 438.396 279.038 437.948 278.204C437.5 277.371 437.31 276.424 437.404 275.482C437.404 275.227 437.757 275.207 437.875 275.404Z" fill="#263238"/>
<path d="M445.578 263.437C446.279 265.427 447.383 267.252 448.819 268.797C450.256 270.342 451.996 271.574 453.93 272.418C455.61 273.176 457.39 273.692 459.216 273.95C459.558 274.027 459.907 274.067 460.257 274.068C460.591 274.089 460.926 274.089 461.259 274.068C461.502 274.083 461.743 274.015 461.943 273.876C462.143 273.737 462.29 273.535 462.36 273.302C462.369 273.145 462.369 272.987 462.36 272.83V272.437C463.244 269.097 464.148 263.909 464.148 263.909C465.229 264.813 470.81 269.136 471.144 267.348C473.757 252.61 476.646 236.221 476.135 220.992C476.135 220.882 476.092 220.777 476.014 220.7C475.937 220.623 475.832 220.579 475.722 220.579C475.613 220.579 475.508 220.623 475.431 220.7C475.353 220.777 475.31 220.882 475.31 220.992C472.244 235.062 471.674 249.583 468.805 263.771C466.883 262.192 464.746 260.895 462.458 259.92C461.947 259.92 460.906 269.981 460.375 271.435C460.38 271.487 460.38 271.54 460.375 271.592C454.48 270.963 450.707 268.232 446.128 263.142C445.834 262.808 445.401 263.024 445.578 263.437Z" fill="#263238"/>
<path d="M457.644 271.769C455.222 273.722 452.34 275.022 449.273 275.542C447.593 275.776 445.883 275.48 444.38 274.697C441.118 272.948 441.786 269.725 443.083 267.132C443.788 265.764 444.652 264.485 445.657 263.319C448.647 267.344 452.848 270.306 457.644 271.769Z" fill="#263238"/>
<path d="M449.273 275.541C447.593 275.775 445.883 275.48 444.38 274.696C441.118 272.947 441.786 269.725 443.083 267.131C446.738 268.408 449.823 271.847 449.273 275.541Z" fill="#FF97B8"/>
<path d="M506.043 208.985C478.532 220.5 450.707 188.646 450.707 188.646C447.554 193.481 442.925 197.167 437.507 199.157C432.089 201.147 426.174 201.334 420.642 199.69C420.642 199.69 407.436 239.522 396.668 237.124C380.299 233.627 386.842 176.915 394.251 167.05C401.659 157.186 416.2 157.225 416.2 157.225C416.2 157.225 418.971 148.952 430.722 143.312C443.692 137.063 479.849 156.655 479.849 156.655C483.131 151.948 487.472 148.078 492.524 145.356C493.743 144.671 495.089 144.24 496.48 144.09C497.87 143.94 499.277 144.074 500.615 144.484C501.952 144.893 503.193 145.57 504.261 146.473C505.329 147.377 506.203 148.487 506.829 149.738C504.145 152.32 502.082 155.478 500.797 158.974C496.375 170.528 506.141 172.552 508.323 161.686C509.27 157.653 508.741 153.413 506.829 149.738C513.117 143.646 521.469 142.978 525.458 147.773C532.788 156.557 528.936 199.434 506.043 208.985Z" fill="#263238"/>
<path d="M438.563 259.447C435.178 258.362 432.165 256.348 429.869 253.635C427.572 250.921 426.084 247.618 425.573 244.1C425.062 240.582 425.549 236.991 426.979 233.737C428.408 230.482 430.723 227.694 433.66 225.691C436.596 223.687 440.036 222.549 443.588 222.404C447.14 222.26 450.661 223.116 453.75 224.875C456.839 226.634 459.373 229.225 461.062 232.352C462.75 235.48 463.527 239.02 463.303 242.568C463.117 245.449 462.277 248.249 460.847 250.757C459.417 253.265 457.435 255.414 455.05 257.042C452.665 258.669 449.941 259.731 447.084 260.148C444.227 260.565 441.313 260.325 438.563 259.447ZM449.41 225.747C448.136 225.334 446.816 225.077 445.48 224.98C441.291 224.683 437.147 225.995 433.893 228.649C430.639 231.302 428.52 235.098 427.969 239.26C427.417 243.423 428.475 247.639 430.926 251.049C433.377 254.458 437.036 256.804 441.157 257.608C445.279 258.411 449.551 257.612 453.104 255.373C456.656 253.135 459.22 249.625 460.273 245.56C461.326 241.495 460.788 237.181 458.769 233.5C456.751 229.818 453.403 227.045 449.41 225.747Z" fill="#1047F7"/>
<path d="M480.439 267.387C473.64 264.832 470.102 255.596 472.578 245.948C473.633 241.332 476.116 237.165 479.672 234.039C481.109 232.591 482.897 231.54 484.862 230.99C486.827 230.439 488.9 230.408 490.881 230.899C492.861 231.391 494.68 232.387 496.16 233.792C497.639 235.196 498.729 236.961 499.323 238.913C500.988 243.347 501.229 248.19 500.011 252.767C497.495 262.906 489.301 269.646 481.736 267.76C481.293 267.675 480.859 267.55 480.439 267.387ZM491.07 233.686L490.146 233.411C488.559 233.09 486.917 233.156 485.361 233.604C483.804 234.053 482.379 234.869 481.205 235.985C478.066 238.771 475.875 242.466 474.936 246.557C472.755 255.36 475.998 263.771 482.227 265.304C488.456 266.836 495.255 260.941 497.436 252.157C498.53 248.103 498.324 243.807 496.847 239.876C496.372 238.496 495.612 237.232 494.617 236.166C493.622 235.099 492.413 234.254 491.07 233.686Z" fill="#1047F7"/>
<path d="M462.262 244.612L461.043 242.391C464.325 240.564 471.478 238.677 475.074 244.356L472.912 245.692C469.709 240.603 462.556 244.435 462.262 244.612Z" fill="#1047F7"/>
<path d="M378.393 233.018L376.428 231.446C377.174 230.522 383.797 222.407 389.515 222.603C394.88 222.8 427.618 232.428 429.013 232.92L428.286 235.356C418.893 232.566 393.583 225.276 389.436 225.138C385.624 225 380.181 230.778 378.393 233.018Z" fill="#1047F7"/>
<path d="M403.683 233.43C403.683 233.43 398.397 208.12 387.471 209.201C376.545 210.281 374.698 242.843 383.443 251.155C384.487 252.297 385.752 253.217 387.161 253.858C388.57 254.499 390.094 254.849 391.642 254.886C393.189 254.922 394.728 254.645 396.166 254.072C397.604 253.498 398.911 252.64 400.008 251.548L403.683 233.43Z" fill="#D3766A"/>
<path d="M387.177 218.555C387.019 218.457 386.882 218.673 387 218.811C393.032 224.863 393.956 233.254 393.661 241.389C392.639 237.773 390.321 235.022 385.605 236.064C385.369 236.064 385.428 236.476 385.605 236.535C387.059 236.67 388.436 237.255 389.542 238.21C390.649 239.165 391.429 240.441 391.775 241.861C392.351 244.23 392.674 246.654 392.738 249.092C392.738 249.898 394.113 250.055 394.192 249.092C394.182 249.027 394.182 248.961 394.192 248.896C398.397 239.817 396.746 223.743 387.177 218.555Z" fill="#263238"/>
<path d="M538.408 411.072C543.379 397.985 658.65 421.683 654.052 441.747C637.172 515.24 590.128 580.913 578.24 595.926C562.637 615.576 531.589 611.214 520.27 599.306C503.862 582.033 533.495 424.041 538.408 411.072Z" fill="#D3766A"/>
<path d="M530.292 447.151C527.73 454.194 525.7 461.42 524.22 468.767C522.55 476.038 521.096 483.348 519.917 490.697C517.586 505.564 516.273 520.573 515.986 535.618C515.77 544.029 515.986 552.42 515.986 560.83C515.986 561.027 516.301 561.007 516.301 560.83C516.301 553.383 516.753 545.876 517.362 538.448C517.971 531.02 518.718 523.455 519.681 516.007C521.548 501.367 523.611 486.747 526.264 472.226C526.997 468.151 527.764 464.09 528.563 460.042C529.408 455.837 530.371 451.651 530.921 447.387C530.921 447.073 530.43 446.798 530.292 447.151Z" fill="#263238"/>
<path d="M510.602 203.935C509.844 213.942 508.346 223.88 506.122 233.666C505.748 235.337 505.336 237.046 504.923 238.736C503.272 245.457 501.307 252.217 499.028 258.721C498.504 260.293 497.954 261.845 497.377 263.378C490.401 282.223 481.185 298.435 470.81 305.313C468.175 307.079 465.378 308.593 462.458 309.832C447.585 301.158 435.163 288.841 426.362 274.041C417.562 259.242 412.672 242.447 412.152 225.236L409.008 224.372C409.5 223.605 410.01 222.819 410.502 221.994C410.993 221.168 411.602 220.127 412.133 219.144C412.92 193.845 423.14 169.754 440.783 151.605C465.484 144.963 495.058 154.455 507.497 176.129C510.524 181.494 511.447 191.594 510.602 203.935Z" fill="#D3766A"/>
<path d="M458.823 223.035C456.735 223.143 454.642 223.143 452.554 223.035C450.137 223.035 448.212 223.212 446.148 221.777C445.593 221.307 445.213 220.663 445.07 219.949C444.927 219.236 445.03 218.495 445.362 217.847C446.875 215.175 449.823 214.487 452.731 214.428C455.649 214.255 458.528 215.172 460.808 217.002C461.313 217.45 461.676 218.036 461.852 218.688C462.028 219.34 462.01 220.029 461.799 220.671C461.588 221.313 461.193 221.878 460.665 222.298C460.136 222.718 459.495 222.974 458.823 223.035Z" fill="#263238"/>
<path d="M456.995 233.195C456.995 233.018 456.583 233.352 456.543 233.529C455.777 238.225 454.087 243.472 449.567 244.179C449.43 244.179 449.39 244.435 449.567 244.454C454.834 244.651 456.995 237.675 456.995 233.195Z" fill="#263238"/>
<path d="M453.792 227.398C446.403 225.335 442.827 240.269 449.665 242.176C456.504 244.082 459.982 229.128 453.792 227.398Z" fill="#263238"/>
<path d="M483.858 238.854C483.858 238.697 484.172 239.168 484.113 239.365C482.855 243.943 482.148 249.406 486.078 251.941C486.196 251.941 486.078 252.256 485.98 252.197C480.989 250.251 481.932 243.02 483.858 238.854Z" fill="#263238"/>
<path d="M489.144 235.022C496.709 236.241 493.722 251.293 486.707 250.173C479.692 249.053 482.796 234.001 489.144 235.022Z" fill="#263238"/>
<path d="M496.808 227.614C494.843 226.769 493.133 225.649 491.246 224.647C489.14 223.873 487.345 222.431 486.137 220.54C485.88 219.872 485.85 219.139 486.052 218.453C486.255 217.767 486.679 217.167 487.257 216.747C489.832 215.077 492.779 215.843 495.393 217.14C498.042 218.365 500.142 220.528 501.288 223.212C501.511 223.834 501.551 224.507 501.404 225.151C501.256 225.795 500.928 226.384 500.456 226.847C499.985 227.31 499.391 227.628 498.744 227.764C498.098 227.9 497.426 227.848 496.808 227.614Z" fill="#263238"/>
<path d="M441.511 273.164C442.356 274.5 443.102 276.249 444.753 276.8C446.481 277.182 448.272 277.182 450 276.8C450.034 276.798 450.069 276.807 450.098 276.826C450.128 276.844 450.151 276.87 450.166 276.902C450.18 276.933 450.186 276.968 450.18 277.002C450.175 277.036 450.16 277.068 450.137 277.094C449.26 277.845 448.195 278.344 447.057 278.538C445.918 278.732 444.749 278.613 443.672 278.195C442.789 277.725 442.066 277.003 441.594 276.122C441.121 275.24 440.922 274.238 441.019 273.243C441 272.968 441.373 272.968 441.511 273.164Z" fill="#263238"/>
<path d="M449.685 260.47C450.418 262.581 451.581 264.518 453.099 266.159C454.618 267.799 456.46 269.107 458.508 270C460.288 270.803 462.174 271.346 464.109 271.612C464.477 271.695 464.852 271.741 465.229 271.749C465.576 271.771 465.924 271.771 466.27 271.749C466.529 271.766 466.785 271.696 466.999 271.55C467.212 271.404 467.371 271.19 467.449 270.944C467.47 270.787 467.47 270.629 467.449 270.472V270.059C468.393 266.522 469.414 261.02 469.414 261.02C470.554 261.983 476.469 266.562 476.803 264.675C479.574 248.955 482.698 231.682 482.109 215.549C482.109 215.434 482.063 215.324 481.982 215.243C481.901 215.162 481.791 215.116 481.676 215.116C481.562 215.116 481.452 215.162 481.371 215.243C481.29 215.324 481.244 215.434 481.244 215.549C477.982 230.444 477.314 245.83 474.347 260.745C472.243 259.118 469.921 257.795 467.449 256.815C466.919 256.815 465.799 267.466 465.249 269.018C465.257 269.07 465.257 269.123 465.249 269.175C459.098 268.507 455.011 265.638 450.176 260.214C449.941 259.821 449.489 260.038 449.685 260.47Z" fill="#263238"/>
<path d="M462.458 269.313C459.892 271.364 456.839 272.718 453.596 273.243C451.821 273.497 450.011 273.181 448.428 272.339C444.949 270.492 445.676 267.072 447.052 264.341C447.793 262.89 448.704 261.531 449.764 260.293C452.923 264.579 457.372 267.74 462.458 269.313Z" fill="#263238"/>
<path d="M453.576 273.302C451.801 273.557 449.991 273.24 448.408 272.398C444.93 270.551 445.657 267.132 447.032 264.4C450.884 265.756 454.166 269.372 453.576 273.302Z" fill="#FF97B8"/>
<path d="M513.707 202.815C512.665 203.247 511.624 203.621 510.602 203.935C482.462 212.66 455.089 181.258 455.089 181.258C451.765 186.395 446.869 190.318 441.131 192.443C435.394 194.568 429.123 194.781 423.255 193.049C420.203 202.04 416.465 210.785 412.074 219.204C412.602 202.494 417.248 186.173 425.599 171.69C433.949 157.207 445.746 145.009 459.943 136.18C468.906 139.325 477.628 143.121 486.039 147.538C489.522 142.553 494.126 138.454 499.48 135.57C500.77 134.844 502.194 134.386 503.666 134.226C505.138 134.065 506.627 134.205 508.043 134.637C509.46 135.068 510.774 135.783 511.906 136.737C513.038 137.691 513.965 138.865 514.63 140.188C511.794 142.945 509.612 146.302 508.244 150.014C503.567 162.236 513.903 164.378 516.203 152.883C517.218 148.606 516.66 144.107 514.63 140.208C521.292 133.782 530.135 133.075 534.281 138.243C542.023 147.321 537.975 192.695 513.707 202.815Z" fill="#263238"/>
<path d="M461.22 221.679C457.95 218.954 453.895 217.343 449.646 217.081C448.367 216.998 447.084 217.044 445.814 217.219C442.629 217.63 439.589 218.8 436.95 220.629C434.31 222.458 432.148 224.894 430.644 227.732C430.209 228.525 429.841 229.353 429.543 230.208C428.861 232.023 428.457 233.931 428.345 235.867C428.07 240.326 429.286 244.75 431.801 248.443C434.316 252.135 437.988 254.887 442.238 256.264C443.833 256.766 445.482 257.076 447.15 257.188H448.408C453.225 257.197 457.886 255.479 461.546 252.346C465.205 249.213 467.62 244.873 468.353 240.112C468.353 239.542 468.491 238.972 468.53 238.382C468.57 237.793 468.53 237.518 468.53 237.105C468.524 234.154 467.865 231.241 466.601 228.574C465.338 225.907 463.5 223.553 461.22 221.679ZM447.308 254.496C443.083 254.225 439.101 252.425 436.108 249.431C433.114 246.437 431.315 242.455 431.045 238.23C430.775 234.005 432.054 229.827 434.642 226.477C437.23 223.127 440.951 220.834 445.107 220.029C446.549 219.749 448.022 219.656 449.489 219.754C450.931 219.848 452.357 220.118 453.733 220.559C455.488 221.123 457.14 221.966 458.626 223.055C461.681 225.266 463.933 228.41 465.045 232.014C466.157 235.617 466.068 239.484 464.79 243.032C463.513 246.58 461.117 249.616 457.964 251.684C454.811 253.752 451.071 254.739 447.308 254.496Z" fill="#1047F7"/>
<path d="M506.476 234.511L506.122 233.666C504.919 230.903 502.849 228.606 500.227 227.122C499.38 226.651 498.475 226.294 497.535 226.061C496.165 225.728 494.747 225.648 493.349 225.825C490.5 226.224 487.829 227.446 485.666 229.343C484.041 230.727 482.636 232.35 481.5 234.157C480.633 235.496 479.903 236.918 479.318 238.402C478.918 239.358 478.589 240.343 478.336 241.349C478.265 241.549 478.206 241.752 478.159 241.958C476.994 246.414 477.117 251.109 478.513 255.498C479.095 257.53 480.121 259.408 481.518 260.995C482.915 262.582 484.647 263.839 486.589 264.675C487.002 264.832 487.415 264.95 487.847 265.068C489.474 265.437 491.159 265.478 492.802 265.188C494.445 264.897 496.014 264.282 497.417 263.378C502.421 260.107 505.948 255.007 507.242 249.17C508.524 244.324 508.256 239.197 506.476 234.511ZM504.511 248.522C503.617 252.354 501.71 255.877 498.989 258.72C497.707 260.214 496.057 261.344 494.201 261.999C492.346 262.655 490.351 262.811 488.417 262.454C481.814 260.823 478.375 251.921 480.694 242.607C481.685 238.276 484 234.362 487.316 231.406C488.565 230.225 490.078 229.361 491.73 228.886C493.381 228.41 495.122 228.338 496.808 228.675C497.134 228.752 497.456 228.851 497.77 228.969C499.193 229.576 500.473 230.473 501.529 231.603C502.585 232.734 503.393 234.072 503.901 235.533C504.321 236.566 504.637 237.639 504.845 238.736C505.472 241.977 505.385 245.317 504.589 248.522H504.511Z" fill="#1047F7"/>
<path d="M467.331 240.544L466.054 238.186C469.532 236.221 477.118 234.256 480.91 240.348L478.631 241.762C475.231 236.3 467.666 240.367 467.331 240.544Z" fill="#1047F7"/>
<path d="M432.098 228.164L431.332 230.738L429.543 230.207C425.122 228.91 418.598 227.024 412.094 225.216L408.949 224.351C409.441 223.585 409.952 222.799 410.443 221.974L412.035 222.426C419.895 224.587 427.5 226.808 430.644 227.731L432.098 228.164Z" fill="#1047F7"/>
<g opacity="0.3">
<path opacity="0.3" d="M535.166 321.21C515.588 325.522 495.17 323.931 476.496 316.639C457.822 309.347 441.73 296.681 430.255 280.243C418.779 263.805 412.436 244.333 412.028 224.29C411.619 204.247 417.163 184.533 427.959 167.641C438.755 150.748 454.318 137.437 472.679 129.39C491.041 121.343 511.376 118.922 531.114 122.432C550.851 125.943 569.105 135.228 583.565 149.112C598.026 162.997 608.044 180.858 612.353 200.437C615.217 213.435 615.492 226.871 613.162 239.975C610.833 253.08 605.945 265.597 598.777 276.812C591.609 288.028 582.302 297.721 571.387 305.339C560.473 312.957 548.165 318.35 535.166 321.21Z" fill="white"/>
<path opacity="0.3" d="M424.473 270.885C437.313 294.322 458.884 311.744 484.498 319.365C510.112 326.985 537.698 324.188 561.262 311.581L424.473 270.885Z" fill="#EBEBEB"/>
<path opacity="0.3" d="M427.382 168.642L614.731 224.391C614.894 216.341 614.102 208.3 612.373 200.437C610.414 191.415 607.206 182.711 602.842 174.576L464.541 133.408C449.345 141.782 436.551 153.913 427.382 168.642Z" fill="#EBEBEB"/>
<path opacity="0.3" d="M412.762 234.06L591.209 287.116C595.462 282.01 599.206 276.501 602.39 270.669L412.369 214.114C411.821 220.759 411.953 227.442 412.762 234.06Z" fill="#EBEBEB"/>
<path opacity="0.3" d="M420.897 180.904L613.473 238.225C613.67 237.007 613.847 235.788 613.984 234.57L422.43 177.583C421.899 178.664 421.369 179.764 420.897 180.904Z" fill="#EBEBEB"/>
<path opacity="0.3" d="M496.611 122.286L582.091 147.714C579.871 145.651 577.532 143.784 575.115 141.819L505.69 121.186C502.647 121.396 499.616 121.764 496.611 122.286Z" fill="#EBEBEB"/>
</g>
<path d="M549.117 446.506L575.139 440.775L549.937 326.341L523.915 332.072L549.117 446.506Z" fill="#EBEBEB"/>
<path d="M623.436 198C618.644 176.237 607.505 156.383 591.429 140.949C575.353 125.516 555.062 115.196 533.121 111.295C511.18 107.393 488.575 110.086 468.164 119.032C447.753 127.978 430.454 142.775 418.453 161.553C406.452 180.331 400.289 202.246 400.742 224.526C401.196 246.807 408.247 268.452 421.002 286.726C433.758 304.999 451.646 319.08 472.404 327.187C493.162 335.295 515.858 337.065 537.622 332.273C566.802 325.838 592.233 308.08 608.325 282.901C624.417 257.723 629.852 227.185 623.436 198ZM535.166 321.21C515.588 325.526 495.17 323.939 476.494 316.65C457.818 309.36 441.723 296.697 430.245 280.26C418.766 263.823 412.42 244.351 412.009 224.308C411.598 204.264 417.14 184.548 427.934 167.654C438.729 150.761 454.29 137.447 472.652 129.398C491.013 121.349 511.349 118.926 531.087 122.435C550.826 125.944 569.08 135.228 583.542 149.112C598.004 162.997 608.023 180.858 612.334 200.437C615.197 213.434 615.473 226.868 613.145 239.971C610.817 253.075 605.93 265.592 598.764 276.807C591.598 288.022 582.294 297.715 571.381 305.334C560.469 312.953 548.163 318.347 535.166 321.21Z" fill="#455A64"/>
<path d="M559.866 527.03L599.227 518.364L576.904 416.908L537.524 425.574L559.866 527.03Z" fill="#263238"/>
<path d="M577.041 208.945C576.999 208.83 576.966 208.712 576.943 208.592C576.471 206.902 577.454 210.223 577.1 209.122C576.746 208.022 576.235 206.469 575.744 205.192C574.025 200.633 571.921 196.229 569.456 192.026C569.122 191.437 568.748 190.847 568.414 190.258C568.296 190.061 569.279 191.633 568.414 190.395L567.727 189.334C566.823 187.978 565.899 186.642 564.936 185.404C562.808 182.528 560.49 179.797 558 177.229L556.192 175.421C555.366 174.616 557.155 176.306 556.015 175.264L554.875 174.223C553.401 172.945 551.888 171.707 550.316 170.528C548.744 169.349 546.877 168.052 545.089 166.932C544.264 166.421 543.438 165.93 542.593 165.458C541.139 164.613 543.222 165.753 542.141 165.203L540.589 164.417C535.895 162.107 530.985 160.264 525.93 158.915H525.674L525.124 158.797L522.864 158.306C521.39 158.011 519.936 157.755 518.443 157.539C515.322 157.093 512.18 156.804 509.03 156.675C508.155 156.575 507.309 156.305 506.538 155.878C505.768 155.451 505.09 154.877 504.541 154.188C503.434 152.797 502.924 151.023 503.125 149.256C503.326 147.49 504.22 145.875 505.611 144.768C507.002 143.66 508.776 143.151 510.543 143.351C530.621 143.973 549.822 151.727 564.7 165.223C574.585 174.479 582.314 185.797 587.338 198.373C588.488 201.181 589.446 204.063 590.207 207C590.479 208.756 590.044 210.547 588.998 211.983C587.952 213.42 586.38 214.383 584.626 214.664C582.876 214.899 581.102 214.45 579.675 213.411C578.247 212.371 577.276 210.821 576.962 209.083L577.041 208.945Z" fill="white"/>
<path d="M579.792 228.695C579.991 229.987 580.57 231.191 581.454 232.154C582.338 233.117 583.489 233.796 584.759 234.105C586.03 234.413 587.363 234.338 588.591 233.888C589.818 233.437 590.884 232.633 591.654 231.576C592.424 230.519 592.863 229.258 592.915 227.951C592.967 226.645 592.63 225.353 591.947 224.238C591.263 223.123 590.264 222.236 589.077 221.69C587.889 221.144 586.566 220.962 585.275 221.169C583.552 221.444 582.008 222.391 580.981 223.801C579.953 225.211 579.526 226.971 579.792 228.695Z" fill="white"/>
<path d="M646.31 464.719C646.31 464.719 674.449 418.461 639.412 374.326C624.989 356.169 590.954 323.608 521.901 328.147C505.513 329.228 482.934 342.374 510.327 350.332C529.781 355.992 543.831 353.693 554.561 359.038C554.561 359.038 527.816 379.18 529.545 395.549C530.312 402.859 530.882 418.835 535.107 434.044C535.107 434.044 540.648 437.974 545.148 437.306C545.148 437.306 557.273 472.284 600.877 483.033L646.31 464.719Z" fill="#D3766A"/>
<path d="M624.615 368.391C613.336 363.891 589.244 354.773 566.941 354.144C542.161 353.457 494.233 358.821 493.939 377.116C493.703 390.537 512.174 390.085 512.174 390.085C512.174 390.085 492.838 396.472 495.294 408.636C497.515 419.719 511.781 418.461 511.781 418.461C511.781 418.461 500.718 424.356 504.923 434.614C509.973 446.954 532.316 432.649 548.155 440.666C551.81 442.553 624.615 368.391 624.615 368.391Z" fill="#D3766A"/>
<path d="M570.537 380.437C559.237 377.961 532.1 378.904 512.41 389.653C511.958 389.889 511.899 390.36 512.41 390.223C531.329 384.705 550.847 381.498 570.537 380.673C570.713 380.673 570.713 380.574 570.537 380.437Z" fill="#263238"/>
<path d="M569.161 405.433C559.179 404.293 531.255 406.514 511.683 418.088C511.231 418.343 511.211 418.815 511.683 418.658C530.303 412.168 549.599 407.811 569.201 405.669C569.232 405.663 569.26 405.646 569.278 405.62C569.297 405.594 569.304 405.562 569.299 405.531C569.294 405.5 569.276 405.472 569.25 405.453C569.225 405.435 569.192 405.428 569.161 405.433Z" fill="#263238"/>
<path d="M609.386 486.04C599.383 483.666 589.727 480.014 580.657 475.173C571.523 470.231 563.44 463.556 556.86 455.523C554.895 453.066 552.93 450.512 551.22 447.898C549.51 445.285 547.624 442.317 545.6 439.724C545.443 439.527 545.069 439.723 545.187 439.9C547.464 445.355 550.267 450.574 553.558 455.483C556.508 460.074 560.035 464.268 564.052 467.961C571.981 475.017 581.377 480.225 591.563 483.21C597.347 484.821 603.267 485.893 609.248 486.413C609.543 486.492 609.661 486.099 609.386 486.04Z" fill="#263238"/>
<path d="M322.545 338.011C271.925 405.982 187.447 583.133 175.028 609.19C166.598 626.875 259.015 673.447 262.925 660.596C267.956 644.129 350.587 426.753 362.161 347.502C368.489 304.054 340.054 314.489 322.545 338.011Z" fill="#D3766A"/>
<path d="M265.421 651.754C263.279 667.769 252.393 700.035 244.297 704.968C236.201 709.9 193.657 708.898 172.218 708.898C150.779 708.898 146.672 702.904 146.928 695.535C147.183 688.166 192.262 686.752 192.262 686.752C192.262 686.752 132.17 703.887 117.059 706.776C101.947 709.664 67.1462 718.369 62.037 705.852C59.7772 700.193 69.3077 694.474 69.3077 694.474C69.3077 694.474 54.7073 698.738 52.3689 691.487C49.7357 683.214 61.3492 678.675 61.3492 678.675C61.3492 678.675 52.2117 680.503 51.9955 673.763C51.6025 658.632 108.747 651.243 108.747 651.243C108.747 651.243 65.0042 672.544 63.5501 660.243C61.585 643.245 151.271 624.597 160.605 617.188C167.396 611.527 173.748 605.358 179.607 598.736L265.421 651.754Z" fill="#D3766A"/>
<path d="M147.242 699.189C147.091 698.146 147.19 697.081 147.532 696.083C147.873 695.085 148.448 694.183 149.207 693.451C150.748 692.04 152.515 690.898 154.434 690.072C158.399 688.387 162.51 687.071 166.716 686.141C175.166 684 183.832 682.486 192.458 680.246C183.566 680.113 174.692 681.103 166.048 683.194C161.631 684.207 157.378 685.834 153.413 688.028C151.36 689.156 149.56 690.695 148.127 692.548C147.422 693.486 146.97 694.59 146.815 695.753C146.66 696.916 146.807 698.1 147.242 699.189Z" fill="#263238"/>
<path d="M69.4453 694.396C75.6353 692.883 81.727 691.153 87.799 689.385C93.8711 687.616 99.9235 685.769 105.976 683.941L124.074 678.282C130.107 676.317 136.14 674.509 142.231 672.682C135.907 673.377 129.637 674.5 123.465 676.042C117.255 677.457 111.164 679.225 105.092 681.073C99.0195 682.92 93.0064 685.003 87.0719 687.203C81.1374 689.404 75.144 691.723 69.4453 694.396Z" fill="#263238"/>
<path d="M127.651 657.648C121.822 658.014 116.028 658.816 110.319 660.046C104.589 661.185 98.9279 662.641 93.3601 664.408C87.7788 666.139 82.3005 668.186 76.9519 670.539C71.584 672.833 66.3892 675.513 61.4082 678.557C66.93 676.592 72.3143 674.528 77.7968 672.662C83.2794 670.795 88.7423 668.948 94.2641 667.258C99.7859 665.568 105.308 663.897 110.869 662.266C116.43 660.635 122.011 659.22 127.651 657.648Z" fill="#263238"/>
<path d="M118.808 643.343C109.419 644.099 100.17 646.081 91.2967 649.238C82.3365 652.206 73.8067 656.342 65.9277 661.539C74.8098 658.376 83.4561 655.035 92.2792 652.087C101.102 649.14 109.847 646.231 118.808 643.343Z" fill="#263238"/>
<path d="M344.063 454.52L241.487 451.69C241.487 451.69 297.393 362.712 327.34 330.072C358.604 296.077 375.622 299.005 364.952 359.234C354.203 419.876 344.063 454.52 344.063 454.52Z" fill="#1047F7"/>
<path d="M280.591 436.618C277.823 437.828 275.232 439.408 272.888 441.315C278.878 440.347 284.516 437.85 289.257 434.064C286.261 434.494 283.342 435.354 280.591 436.618ZM337.873 371.457C336.688 368.675 335.106 366.081 333.177 363.754C334.121 369.748 336.629 375.387 340.447 380.103C340.015 377.111 339.148 374.198 337.873 371.457ZM290.574 390.793C289.454 393.599 288.739 396.55 288.452 399.557C292.013 394.647 294.223 388.887 294.858 382.854C293.048 385.276 291.605 387.951 290.574 390.793ZM335.77 430.959C334.641 433.767 333.932 436.727 333.668 439.743C337.208 434.82 339.415 429.067 340.074 423.04C338.256 425.459 336.794 428.125 335.731 430.959H335.77ZM365.836 314.136C365.345 315.158 364.893 316.199 364.46 317.26C363.351 320.069 362.637 323.019 362.338 326.024C364.148 323.624 365.603 320.977 366.661 318.164C366.76 317.909 366.838 317.673 366.917 317.417C366.636 316.294 366.262 315.196 365.797 314.136H365.836Z" fill="white"/>
<path d="M337.637 436.677C335.201 436.323 332.705 436.323 330.268 436.205L322.703 435.793C317.62 435.544 312.517 435.341 307.395 435.184C297.177 434.869 286.978 434.515 276.779 434.378C273.969 434.378 271.159 434.378 268.349 434.378C265.539 434.378 262.454 434.673 259.506 434.692C259.329 434.692 259.349 434.967 259.506 434.967C262.022 435.125 264.537 435.498 267.072 435.655C269.607 435.812 272.24 435.97 274.834 436.068C279.943 436.264 285.052 436.441 290.161 436.559C300.203 436.795 310.264 437.07 320.305 437.09H328.834C331.762 437.09 334.729 437.247 337.676 436.991C337.755 436.932 337.794 436.697 337.637 436.677Z" fill="#263238"/>
<path d="M363.949 387.806C363.949 387.609 363.714 387.491 363.615 387.688C361.713 391.192 360.083 394.839 358.742 398.594C359.096 396.806 359.508 395.017 359.842 393.21C360.963 387.432 361.984 381.616 363.124 375.838C363.112 375.804 363.089 375.774 363.06 375.752C363.03 375.731 362.994 375.72 362.957 375.72C362.92 375.72 362.885 375.731 362.855 375.752C362.825 375.774 362.802 375.804 362.79 375.838C360.137 385.782 357.052 395.627 354.694 405.649C352.336 415.67 349.958 425.692 347.757 435.753C346.559 441.314 345.478 448.251 344.259 453.793C341.292 454.146 337.48 453.793 334.277 454.205C334.002 454.205 334.08 454.697 334.277 454.697C337.657 454.795 341.685 455.561 345.242 455.345C345.694 455.345 354.301 419.6 357.877 402.485C360.078 397.611 362.122 392.738 363.949 387.806Z" fill="#263238"/>
<path d="M436.912 332.234C435.478 336.93 433.847 341.568 431.98 346.107C430.422 350.196 428.508 354.142 426.262 357.897C422.017 364.598 415.493 370.14 407.22 370.12C399.36 370.12 392.168 365.561 387.137 359.744C381.635 353.397 377.98 345.439 374.698 337.775C372.733 333.039 370.768 328.205 369.196 323.312C368.391 320.836 367.546 318.36 366.838 315.845C366.131 313.33 365.522 310.795 364.657 308.338C364.657 308.142 364.225 308.161 364.284 308.338C365.738 313.998 369.963 331.919 371.653 336.478C374.757 344.83 378.255 353.456 383.856 360.491C389.161 367.133 396.373 372.164 405 372.989C413.626 373.814 421.015 369.275 425.77 362.437C428.566 358.129 430.749 353.453 432.255 348.544C434.083 343.159 435.615 337.637 437.011 332.116C437.089 332.194 436.912 332.175 436.912 332.234Z" fill="#263238"/>
<path d="M758.908 713.653H617.993L611.705 589.775H758.908V713.653Z" fill="#DBDBDB"/>
<path d="M758.908 589.776L809.528 526.402L849.812 589.776L843.524 713.653H758.908V589.776Z" fill="#C7C7C7"/>
<path d="M660.891 506.28H811.316L865.572 594.787H848.102L811.316 533.516L768.891 602.097H599.286L660.891 506.28Z" fill="#A6A6A6"/>
<path d="M678.321 534.282H645.976L628.723 554.955H666.059L678.321 534.282Z" fill="#C7C7C7"/>
<path d="M653.816 551.417V576.59H635.816V551.417L644.816 540.157L653.816 551.417Z" fill="#DBDBDB"/>
<path d="M653.816 551.397H667.965L653.816 576.59V551.397Z" fill="#C7C7C7"/>
<path d="M649.474 551.81H639.236V569.082H649.474V551.81Z" fill="#FBFAFF"/>
<path d="M643.795 553.009H640.493V558.57H643.795V553.009Z" fill="#EBEBEB"/>
<path d="M648.196 553.009H644.895V558.57H648.196V553.009Z" fill="#EBEBEB"/>
<path d="M643.795 559.572H640.493V567.806H643.795V559.572Z" fill="#EBEBEB"/>
<path d="M648.196 559.572H644.895V567.806H648.196V559.572Z" fill="#EBEBEB"/>
<path d="M757.513 534.282H725.168L708.976 554.955H745.172L757.513 534.282Z" fill="#C7C7C7"/>
<path d="M733.009 551.417V576.59H715.009V551.417L724.009 540.157L733.009 551.417Z" fill="#DBDBDB"/>
<path d="M733.009 551.397H747.177L733.009 576.59V551.397Z" fill="#C7C7C7"/>
<path d="M728.666 551.81H718.428V569.082H728.666V551.81Z" fill="#FBFAFF"/>
<path d="M722.987 553.009H719.685V558.57H722.987V553.009Z" fill="#EBEBEB"/>
<path d="M727.408 553.009H724.107V558.57H727.408V553.009Z" fill="#EBEBEB"/>
<path d="M722.987 559.572H719.685V567.806H722.987V559.572Z" fill="#EBEBEB"/>
<path d="M727.408 559.572H724.107V567.806H727.408V559.572Z" fill="#EBEBEB"/>
<path d="M784.336 502.703H766.336V526.402H784.336V502.703Z" fill="#DBDBDB"/>
<path d="M784.336 502.703H798.484V506.515L784.336 526.402V502.703Z" fill="#C7C7C7"/>
<path d="M784.336 494.646H764.312V502.703H784.336V494.646Z" fill="#C7C7C7"/>
<path d="M800.037 494.646H784.336V502.703H800.037V494.646Z" fill="#A6A6A6"/>
<path d="M655.172 612.236H632.888V649.867H655.172V612.236Z" fill="#FBFAFF"/>
<path d="M642.812 614.85H635.64V626.974H642.812V614.85Z" fill="#EBEBEB"/>
<path d="M652.421 614.85H645.249V626.974H652.421V614.85Z" fill="#EBEBEB"/>
<path d="M642.812 629.155H635.64V647.116H642.812V629.155Z" fill="#EBEBEB"/>
<path d="M652.421 629.155H645.249V647.116H652.421V629.155Z" fill="#EBEBEB"/>
<path d="M737.941 612.236H715.657V649.867H737.941V612.236Z" fill="#FBFAFF"/>
<path d="M725.581 614.85H718.408V626.974H725.581V614.85Z" fill="#EBEBEB"/>
<path d="M735.19 614.85H728.017V626.974H735.19V614.85Z" fill="#EBEBEB"/>
<path d="M725.581 629.155H718.408V647.116H725.581V629.155Z" fill="#EBEBEB"/>
<path d="M735.19 629.155H728.017V647.116H735.19V629.155Z" fill="#EBEBEB"/>
<path d="M655.172 664.526H632.888V702.157H655.172V664.526Z" fill="#FBFAFF"/>
<path d="M642.812 667.14H635.64V679.264H642.812V667.14Z" fill="#EBEBEB"/>
<path d="M652.421 667.14H645.249V679.264H652.421V667.14Z" fill="#EBEBEB"/>
<path d="M642.812 681.445H635.64V699.406H642.812V681.445Z" fill="#EBEBEB"/>
<path d="M652.421 681.445H645.249V699.406H652.421V681.445Z" fill="#EBEBEB"/>
<path d="M737.941 664.526H715.657V702.157H737.941V664.526Z" fill="#FBFAFF"/>
<path d="M725.581 667.14H718.408V679.264H725.581V667.14Z" fill="#EBEBEB"/>
<path d="M735.19 667.14H728.017V679.264H735.19V667.14Z" fill="#EBEBEB"/>
<path d="M725.581 681.445H718.408V699.406H725.581V681.445Z" fill="#EBEBEB"/>
<path d="M735.19 681.445H728.017V699.406H735.19V681.445Z" fill="#EBEBEB"/>
<path d="M696.439 612.236H674.155V649.867H696.439V612.236Z" fill="#FBFAFF"/>
<path d="M684.078 614.85H676.906V626.974H684.078V614.85Z" fill="#EBEBEB"/>
<path d="M693.707 614.85H686.535V626.974H693.707V614.85Z" fill="#EBEBEB"/>
<path d="M684.078 629.155H676.906V647.116H684.078V629.155Z" fill="#EBEBEB"/>
<path d="M693.707 629.155H686.535V647.116H693.707V629.155Z" fill="#EBEBEB"/>
<path d="M696.439 664.781H674.155V702.412H696.439V664.781Z" fill="#FBFAFF"/>
<path d="M684.078 667.376H676.906V679.5H684.078V667.376Z" fill="#EBEBEB"/>
<path d="M693.707 667.376H686.535V679.5H693.707V667.376Z" fill="#EBEBEB"/>
<path d="M684.078 681.701H676.906V699.662H684.078V681.701Z" fill="#EBEBEB"/>
<path d="M693.707 681.701H686.535V699.662H693.707V681.701Z" fill="#EBEBEB"/>
<path d="M798.956 649.867H821.24V612.236H798.956V649.867Z" fill="#FBFAFF"/>
<path d="M818.489 614.85H811.316V626.974H818.489V614.85Z" fill="#EBEBEB"/>
<path d="M808.86 614.85H801.688V626.974H808.86V614.85Z" fill="#EBEBEB"/>
<path d="M818.489 629.155H811.316V647.116H818.489V629.155Z" fill="#EBEBEB"/>
<path d="M808.86 629.155H801.688V647.116H808.86V629.155Z" fill="#EBEBEB"/>
<path d="M798.956 591.701H821.24V559.847H798.956V591.701Z" fill="#FBFAFF"/>
<path d="M818.489 562.441H811.316V574.566H818.489V562.441Z" fill="#EBEBEB"/>
<path d="M808.86 562.441H801.688V574.566H808.86V562.441Z" fill="#EBEBEB"/>
<path d="M818.489 576.885H811.316V589.009H818.489V576.885Z" fill="#EBEBEB"/>
<path d="M808.86 576.885H801.688V589.009H808.86V576.885Z" fill="#EBEBEB"/>
<path d="M795.786 713.883L822.805 714.011L823.036 664.944L796.017 664.816L795.786 713.883Z" fill="#FBFAFF"/>
<path d="M806.579 668.213L806.544 675.562L812.361 675.59L812.396 668.241L806.579 668.213Z" fill="#EBEBEB"/>
<path d="M798.978 668.174L798.943 675.523L804.76 675.551L804.794 668.202L798.978 668.174Z" fill="#EBEBEB"/>
<path d="M803.204 702.246L815.486 702.304L815.494 700.535L803.213 700.477L803.204 702.246Z" fill="#EBEBEB"/>
<path d="M810.216 664.467V671.816H816.032V664.467H810.216Z" fill="#EBEBEB"/>
<path d="M806.559 677.494L806.525 684.843L812.341 684.87L812.376 677.521L806.559 677.494Z" fill="#EBEBEB"/>
<path d="M798.899 677.434L798.864 684.783L804.681 684.811L804.715 677.461L798.899 677.434Z" fill="#EBEBEB"/>
<path d="M814.18 677.533L814.146 684.882L819.962 684.909L819.997 677.56L814.18 677.533Z" fill="#EBEBEB"/>
<path d="M806.519 686.792L806.485 694.142L812.301 694.169L812.336 686.82L806.519 686.792Z" fill="#EBEBEB"/>
<path d="M798.879 686.753L798.844 694.103L804.661 694.13L804.695 686.781L798.879 686.753Z" fill="#EBEBEB"/>
<path d="M814.141 686.831L814.106 694.181L819.922 694.208L819.957 686.859L814.141 686.831Z" fill="#EBEBEB"/>
<path d="M371.083 713.987H245.908L240.308 653.325H371.083V713.987Z" fill="#DBDBDB"/>
<path d="M371.044 653.246L416.004 596.967L451.808 653.246L446.207 713.908H371.044V653.246Z" fill="#C7C7C7"/>
<path d="M283.264 579.164H419.227L469.592 664.271H455.856L417.38 600.21L380.417 664.271H229.775L283.264 579.164Z" fill="#A6A6A6"/>
<path d="M279.236 675.845H259.428V704.142H279.236V675.845Z" fill="#FBFAFF"/>
<path d="M268.231 678.164H261.865V688.933H268.231V678.164Z" fill="#DBDBDB"/>
<path d="M276.779 678.164H270.413V688.933H276.779V678.164Z" fill="#DBDBDB"/>
<path d="M268.231 690.976H261.865V701.744H268.231V690.976Z" fill="#DBDBDB"/>
<path d="M276.779 690.976H270.413V701.744H276.779V690.976Z" fill="#DBDBDB"/>
<path d="M351.982 675.845H332.175V704.142H351.982V675.845Z" fill="#FBFAFF"/>
<path d="M340.978 678.164H334.611V688.933H340.978V678.164Z" fill="#DBDBDB"/>
<path d="M349.526 678.164H343.159V688.933H349.526V678.164Z" fill="#DBDBDB"/>
<path d="M340.978 690.976H334.611V701.744H340.978V690.976Z" fill="#DBDBDB"/>
<path d="M349.526 690.976H343.159V701.744H349.526V690.976Z" fill="#DBDBDB"/>
<path d="M315.727 674.332H293.895V713.987H315.727V674.332Z" fill="#FBFAFF"/>
<path d="M307.159 677.063H302.463V682.998H307.159V677.063Z" fill="#DBDBDB"/>
<path d="M313.33 677.063H308.633V682.998H313.33V677.063Z" fill="#DBDBDB"/>
<path d="M309.773 703.101H299.849V704.535H309.773V703.101Z" fill="#DBDBDB"/>
<path d="M300.989 677.063H296.293V682.998H300.989V677.063Z" fill="#DBDBDB"/>
<path d="M307.159 684.57H302.463V690.505H307.159V684.57Z" fill="#DBDBDB"/>
<path d="M313.33 684.57H308.633V690.505H313.33V684.57Z" fill="#DBDBDB"/>
<path d="M300.989 684.57H296.293V690.505H300.989V684.57Z" fill="#DBDBDB"/>
<path d="M307.159 692.077H302.463V698.012H307.159V692.077Z" fill="#DBDBDB"/>
<path d="M313.33 692.077H308.633V698.012H313.33V692.077Z" fill="#DBDBDB"/>
<path d="M300.989 692.077H296.293V698.012H300.989V692.077Z" fill="#DBDBDB"/>
<path d="M312.033 575.765H296.037V596.811H312.033V575.765Z" fill="#DBDBDB"/>
<path d="M312.033 575.765H324.609V579.145L312.033 596.811V575.765Z" fill="#C7C7C7"/>
<path d="M312.033 568.592H294.249V575.745H312.033V568.592Z" fill="#C7C7C7"/>
<path d="M325.985 568.592H312.033V575.745H325.985V568.592Z" fill="#A6A6A6"/>
<path d="M420.563 714.007H461.161L465.033 672.171H420.563V714.007Z" fill="#C7C7C7"/>
<path d="M420.563 672.17L400.5 663.111L400.952 714.006H420.563V672.17Z" fill="#DBDBDB"/>
<path d="M451.651 682.998H434.574V713.987H451.651V682.998Z" fill="#FBFAFF"/>
<path d="M444.95 685.12H441.275V689.758H444.95V685.12Z" fill="#DBDBDB"/>
<path d="M449.764 685.12H446.089V689.758H449.764V685.12Z" fill="#DBDBDB"/>
<path d="M446.993 703.396H439.231V704.516H446.993V703.396Z" fill="#DBDBDB"/>
<path d="M440.135 685.12H436.461V689.758H440.135V685.12Z" fill="#DBDBDB"/>
<path d="M397.434 661.028H456.426L475.487 675.531H418.854L397.434 661.028Z" fill="#A6A6A6"/>
<path d="M418.854 675.531H397.434V661.028L418.854 675.531Z" fill="#C7C7C7"/>
<path d="M406.179 639.826C406.179 641.829 406.773 643.786 407.886 645.451C408.999 647.115 410.58 648.412 412.431 649.178C414.281 649.943 416.317 650.142 418.281 649.75C420.244 649.358 422.047 648.392 423.462 646.975C424.876 645.558 425.839 643.753 426.227 641.788C426.615 639.824 426.412 637.789 425.643 635.94C424.874 634.091 423.574 632.512 421.907 631.402C420.24 630.292 418.282 629.702 416.279 629.706C413.599 629.711 411.03 630.78 409.136 632.677C407.242 634.574 406.179 637.146 406.179 639.826Z" fill="#FBFAFF"/>
<path d="M408.439 639.825C408.439 641.91 409.267 643.909 410.741 645.383C412.215 646.857 414.214 647.685 416.299 647.685C416.963 647.69 417.624 647.604 418.264 647.43C420.094 646.933 421.683 645.791 422.738 644.215C423.793 642.638 424.242 640.734 424.002 638.852C423.763 636.971 422.851 635.239 421.436 633.977C420.02 632.715 418.195 632.007 416.299 631.984C415.635 631.981 414.975 632.067 414.334 632.24C413.419 632.462 412.558 632.863 411.799 633.419C410.767 634.14 409.923 635.098 409.338 636.212C408.753 637.327 408.445 638.566 408.439 639.825Z" fill="#C7C7C7"/>
<path d="M415.199 649.061H417.38V630.432H415.199V649.061Z" fill="#FBFAFF"/>
<path d="M425.614 640.828V638.646H406.985V640.828H425.614Z" fill="#FBFAFF"/>
<path d="M478.415 714.007H415.159L410.836 667.219H478.415V714.007Z" fill="#1047F7"/>
<path opacity="0.2" d="M478.415 714.007H415.159L410.836 667.219H478.415V714.007Z" fill="black"/>
<path d="M478.415 667.219L513.098 623.791L540.707 667.219L536.404 714.007H478.415V667.219Z" fill="#1047F7"/>
<path d="M482.6 672.937H396.766L448.978 607.284H513.452L552.203 672.937H542.358L513.452 627.957L482.6 672.937Z" fill="#1047F7"/>
<path opacity="0.4" d="M482.6 672.937H396.766L448.978 607.284H513.452L552.203 672.937H542.358L513.452 627.957L482.6 672.937Z" fill="black"/>
<path d="M569.22 549.217H551.338V572.758H569.22V549.217Z" fill="#1047F7"/>
<path opacity="0.2" d="M569.22 549.217H551.338V572.758H569.22V549.217Z" fill="black"/>
<path d="M583.29 549.217H569.22V572.758H583.29V549.217Z" fill="#1047F7"/>
<path d="M569.22 541.199H549.334V549.197H569.22V541.199Z" fill="#1047F7"/>
<path opacity="0.5" d="M569.22 541.199H549.334V549.197H569.22V541.199Z" fill="black"/>
<path d="M584.823 541.199H569.22V549.197H584.823V541.199Z" fill="#1047F7"/>
<path opacity="0.4" d="M584.823 541.199H569.22V549.197H584.823V541.199Z" fill="black"/>
<path d="M632.063 713.947H492.052L485.784 646.094H632.063V713.947Z" fill="#1047F7"/>
<path opacity="0.2" d="M632.063 713.947H492.052L485.784 646.094H632.063V713.947Z" fill="black"/>
<path d="M632.063 646.094L682.349 583.113L722.397 646.094L716.128 713.947H632.063V646.094Z" fill="#1047F7"/>
<path d="M681.74 587.103L723.085 651.046H737.528L682.978 563.129H534.046L458.587 658.336H640.493L681.74 587.103Z" fill="#1047F7"/>
<path opacity="0.5" d="M681.74 587.103L723.085 651.046H737.528L682.978 563.129H534.046L458.587 658.336H640.493L681.74 587.103Z" fill="black"/>
<path d="M669.281 655.625H691.428V623.968H669.281V655.625Z" fill="#FBFAFF"/>
<path d="M688.696 626.542H681.563V638.588H688.696V626.542Z" fill="#1047F7"/>
<path d="M679.146 626.542H672.013V638.588H679.146V626.542Z" fill="#1047F7"/>
<path d="M688.696 640.887H681.563V652.933H688.696V640.887Z" fill="#1047F7"/>
<path d="M679.146 640.887H672.013V652.933H679.146V640.887Z" fill="#1047F7"/>
<path d="M529.31 671.267H507.164V702.924H529.31V671.267Z" fill="#FBFAFF"/>
<path d="M517.028 673.86H509.895V685.906H517.028V673.86Z" fill="#1047F7"/>
<path d="M526.598 673.86H519.465V685.906H526.598V673.86Z" fill="#1047F7"/>
<path d="M517.028 688.205H509.895V700.251H517.028V688.205Z" fill="#1047F7"/>
<path d="M526.598 688.205H519.465V700.251H526.598V688.205Z" fill="#1047F7"/>
<path d="M570.006 671.267H547.86V702.924H570.006V671.267Z" fill="#FBFAFF"/>
<path d="M557.705 673.86H550.572V685.906H557.705V673.86Z" fill="#1047F7"/>
<path d="M567.275 673.86H560.142V685.906H567.275V673.86Z" fill="#1047F7"/>
<path d="M557.705 688.205H550.572V700.251H557.705V688.205Z" fill="#1047F7"/>
<path d="M567.275 688.205H560.142V700.251H567.275V688.205Z" fill="#1047F7"/>
<path d="M610.683 671.267H588.537V702.924H610.683V671.267Z" fill="#FBFAFF"/>
<path d="M598.402 673.86H591.268V685.906H598.402V673.86Z" fill="#1047F7"/>
<path d="M607.952 673.86H600.819V685.906H607.952V673.86Z" fill="#1047F7"/>
<path d="M598.402 688.205H591.268V700.251H598.402V688.205Z" fill="#1047F7"/>
<path d="M607.952 688.205H600.819V700.251H607.952V688.205Z" fill="#1047F7"/>
<path d="M668.142 713.929H692.567V669.577H668.142V713.929Z" fill="#FBFAFF"/>
<path d="M682.998 672.642H677.731V679.284H682.998V672.642Z" fill="#1047F7"/>
<path d="M676.1 672.642H670.834V679.284H676.1V672.642Z" fill="#1047F7"/>
<path d="M674.803 703.376H685.906V701.765H674.803V703.376Z" fill="#1047F7"/>
<path d="M689.875 672.642H684.609V679.284H689.875V672.642Z" fill="#1047F7"/>
<path d="M682.998 681.033H677.731V687.675H682.998V681.033Z" fill="#1047F7"/>
<path d="M676.1 681.033H670.834V687.675H676.1V681.033Z" fill="#1047F7"/>
<path d="M689.875 681.033H684.609V687.675H689.875V681.033Z" fill="#1047F7"/>
<path d="M682.998 689.424H677.731V696.066H682.998V689.424Z" fill="#1047F7"/>
<path d="M676.1 689.424H670.834V696.066H676.1V689.424Z" fill="#1047F7"/>
<path d="M689.875 689.424H684.609V696.066H689.875V689.424Z" fill="#1047F7"/>
<path d="M591.701 585.924H559.552L543.026 606.557H579.419L591.701 585.924Z" fill="#1047F7"/>
<path opacity="0.4" d="M591.701 585.924H559.552L543.026 606.557H579.419L591.701 585.924Z" fill="black"/>
<path d="M567.354 602.942V627.957H549.452V602.942L558.413 591.761L567.354 602.942Z" fill="#1047F7"/>
<path opacity="0.2" d="M567.354 602.942V627.957H549.452V602.942L558.413 591.761L567.354 602.942Z" fill="black"/>
<path d="M567.354 602.941H581.423L567.354 627.957V602.941Z" fill="#1047F7"/>
<path d="M563.011 603.334H552.852V620.489H563.011V603.334Z" fill="#FBFAFF"/>
<path d="M557.391 604.513H554.109V610.035H557.391V604.513Z" fill="#1047F7"/>
<path d="M561.773 604.513H558.491V610.035H561.773V604.513Z" fill="#1047F7"/>
<path d="M557.391 611.057H554.109V619.251H557.391V611.057Z" fill="#1047F7"/>
<path d="M561.773 611.057H558.491V619.251H561.773V611.057Z" fill="#1047F7"/>
<path d="M778.087 347.011C786.839 354.453 793.35 364.181 796.893 375.109C800.437 386.037 800.874 397.734 798.155 408.896C795.436 420.058 789.668 430.244 781.495 438.318C773.323 446.392 763.067 452.035 751.873 454.618L738.117 482.777L724.775 454.814C714.797 452.677 705.51 448.084 697.755 441.452C691.554 436.176 686.453 429.73 682.743 422.483C679.033 415.236 676.786 407.328 676.132 399.213C674.811 382.823 680.055 366.579 690.71 354.056C701.365 341.532 716.559 333.754 732.949 332.433C749.339 331.112 765.583 336.356 778.106 347.011H778.087Z" fill="white"/>
<path d="M778.087 347.011C786.837 354.455 793.359 364.173 796.932 375.091C797.827 377.807 798.549 380.577 799.093 383.384C799.564 386.206 799.859 389.054 799.978 391.912C800.245 397.644 799.709 403.386 798.386 408.969C797.085 414.566 795.015 419.956 792.235 424.984C790.829 427.491 789.247 429.895 787.499 432.177C785.812 434.505 783.946 436.7 781.919 438.74C773.724 446.994 763.385 452.793 752.069 455.482L752.678 455.011L739.08 483.249L738.098 485.312L737.115 483.249L723.674 455.345L724.499 455.993C712.79 453.455 702.052 447.616 693.556 439.167C685.061 430.717 679.163 420.012 676.56 408.316C673.958 396.62 674.76 384.424 678.871 373.17C682.982 361.915 690.231 352.074 699.759 344.81C707.318 339.145 716.045 335.238 725.305 333.373C734.561 331.499 744.122 331.753 753.266 334.116C762.41 336.478 770.897 340.888 778.087 347.011ZM778.087 347.011C770.946 340.914 762.5 336.539 753.401 334.222C744.302 331.905 734.793 331.708 725.606 333.647C716.419 335.585 707.799 339.607 700.412 345.403C693.025 351.198 687.067 358.612 682.997 367.074C678.94 375.439 676.843 384.619 676.866 393.917C676.981 403.169 679.099 412.287 683.076 420.642C687.107 428.955 692.973 436.245 700.231 441.963C707.502 447.653 715.956 451.641 724.971 453.635L725.561 453.773L725.796 454.303L739.061 482.305H737.096L751.067 454.244L751.244 453.851H751.657C762.765 451.42 772.974 445.934 781.133 438.013C783.159 436.036 785.031 433.908 786.733 431.646C788.492 429.426 790.088 427.081 791.508 424.631C794.357 419.715 796.5 414.423 797.875 408.91C799.3 403.396 799.909 397.702 799.683 392.011C799.581 389.168 799.312 386.333 798.877 383.522C798.346 380.724 797.643 377.961 796.775 375.249C793.273 364.291 786.805 354.516 778.087 347.011Z" fill="#263238"/>
<path d="M754.761 378.491C754.074 377.79 753.31 377.17 752.482 376.643C751.386 375.933 750.236 375.309 749.043 374.777C746.157 373.468 743.065 372.67 739.905 372.419V390.104L741.536 390.438C744.351 391.11 747.126 391.936 749.849 392.914C752.092 393.702 754.205 394.822 756.117 396.235C757.781 397.516 759.126 399.163 760.047 401.05C761.032 403.233 761.51 405.611 761.443 408.006C761.521 410.665 760.969 413.305 759.831 415.709C758.78 417.819 757.245 419.65 755.351 421.054C753.345 422.516 751.087 423.596 748.689 424.237C746.038 424.968 743.304 425.357 740.554 425.397V434.357H736.133V425.22C732.108 424.977 728.138 424.163 724.342 422.803C720.686 421.487 717.263 419.597 714.202 417.202L718.545 409.028C719.367 409.871 720.284 410.616 721.277 411.248C722.607 412.115 724 412.884 725.443 413.547C727.141 414.331 728.894 414.988 730.689 415.512C732.616 416.083 734.588 416.484 736.585 416.711V399.026C736.25 398.927 735.877 398.809 735.523 398.731C735.164 398.656 734.809 398.557 734.462 398.436C731.797 397.747 729.172 396.907 726.602 395.921C724.578 395.167 722.693 394.085 721.021 392.718C719.582 391.531 718.433 390.033 717.661 388.336C716.833 386.408 716.437 384.322 716.502 382.224C716.447 379.679 716.943 377.152 717.956 374.816C718.9 372.683 720.294 370.779 722.043 369.235C723.851 367.633 725.944 366.387 728.213 365.56C730.742 364.64 733.388 364.084 736.074 363.91V355.283H740.495V363.91C744.006 364.088 747.464 364.838 750.733 366.13C753.67 367.275 756.449 368.787 759.006 370.63L754.761 378.491ZM726.622 380.691C726.552 381.728 726.746 382.766 727.186 383.708C727.626 384.649 728.297 385.464 729.137 386.076C731.481 387.55 734.059 388.613 736.761 389.22V372.419C734 372.351 731.296 373.209 729.078 374.855C728.26 375.584 727.616 376.486 727.191 377.496C726.766 378.506 726.572 379.597 726.622 380.691ZM751.322 409.008C751.375 407.884 751.125 406.767 750.6 405.771C750.075 404.776 749.293 403.94 748.336 403.349C745.727 401.798 742.907 400.633 739.964 399.89V416.77C742.896 416.913 745.81 416.232 748.375 414.805C749.332 414.182 750.108 413.319 750.625 412.301C751.143 411.284 751.383 410.148 751.322 409.008Z" fill="#1047F7"/>
</svg>
