<svg width="725" height="700" viewBox="0 0 725 700" fill="none" xmlns="http://www.w3.org/2000/svg">
<path d="M589.52 112.83L717.337 112.649C717.337 112.649 710.96 104.433 703.96 103.348C703.96 103.348 690.271 62.8079 667.462 62.5614C646.247 62.3149 637.784 87.5561 637.784 87.5561C637.784 87.5561 627.924 76.2501 618.557 81.443C609.19 86.6358 603.883 101.442 603.883 101.442C603.883 101.442 593.332 107.144 589.52 112.83Z" fill="#EBEBEB"/>
<path d="M317.569 135.803L155.933 136.05C155.933 136.05 155.933 125.713 178.184 123.659C178.184 123.659 198.445 78.5009 229.488 84.5154C248.829 88.2622 258.738 114.785 258.738 114.785C258.738 114.785 273.315 93.8823 285.031 97.9084C296.748 101.934 303.683 124.201 303.683 124.201C303.683 124.201 315.728 130.052 317.569 135.803Z" fill="#EBEBEB"/>
<path d="M560.598 253.99L450.693 254.154C450.693 254.154 461.063 244.492 465.664 244.492C470.265 244.492 483.74 212.053 500.88 213.4C518.02 214.748 527.173 238.872 527.173 238.872C527.173 238.872 548.158 232.298 560.598 253.99Z" fill="#EBEBEB"/>
<path d="M101.589 223.72L7.5918 223.868C7.5918 223.868 12.2588 217.772 17.4516 217.016C17.4516 217.016 27.4101 187.173 44.1883 186.927C59.7833 186.713 66.0607 205.233 66.0607 205.233C66.0607 205.233 73.2748 196.918 80.1932 200.698C87.1115 204.477 91.0226 215.372 91.0226 215.372C91.0226 215.372 98.7625 219.481 101.589 223.72Z" fill="#EBEBEB"/>
<path d="M0 634.481L90.612 634.086L181.24 633.939L362.465 633.659L543.705 633.939L634.317 634.086L724.929 634.481L634.317 634.875L543.705 635.023L362.465 635.302L181.24 635.023L90.612 634.875L0 634.481Z" fill="#263238"/>
<path d="M412.536 700C578.604 700 713.229 686.926 713.229 670.798C713.229 654.671 578.604 641.597 412.536 641.597C246.468 641.597 111.844 654.671 111.844 670.798C111.844 686.926 246.468 700 412.536 700Z" fill="#EBEBEB"/>
<g opacity="0.3">
<path opacity="0.3" d="M182.572 70.7773C182.572 89.0823 175.3 106.637 162.356 119.581C149.413 132.525 131.858 139.796 113.553 139.796C75.4115 139.796 42.7754 108.886 42.7754 70.7773C42.7754 32.669 75.3786 0 113.52 0C151.661 0 182.572 32.6361 182.572 70.7773Z" fill="#1047F7"/>
</g>
<g opacity="0.3">
<path opacity="0.3" d="M111.942 127.175C96.9466 127.171 82.5664 121.212 71.9628 110.609C61.3593 100.005 55.4004 85.6249 55.396 70.6292C55.396 39.4064 80.7194 12.6533 111.942 12.6533C143.165 12.6533 169.918 39.3899 169.918 70.6292C169.918 101.869 143.182 127.175 111.942 127.175Z" fill="#1047F7"/>
</g>
<path d="M113.388 118.877C140.026 118.877 161.619 97.2834 161.619 70.6461C161.619 44.0088 140.026 22.415 113.388 22.415C86.751 22.415 65.1572 44.0088 65.1572 70.6461C65.1572 97.2834 86.751 118.877 113.388 118.877Z" fill="#1047F7"/>
<path d="M252.938 583.407L245.658 665.918H441.212C441.212 665.918 419.372 500.963 419.372 499.516C419.372 498.07 459.157 447.604 450.431 340.378C439.519 206.925 346.031 160.88 251.968 160.88C157.906 160.88 91.8774 247.827 82.7077 309.862L48.1982 449.543L93.3071 455.854C93.3071 455.854 95.2462 550.443 119.6 574.698C143.954 598.953 252.938 583.407 252.938 583.407Z" fill="white"/>
<path opacity="0.41" d="M252.938 583.407L245.658 665.918H441.212C441.212 665.918 419.372 500.963 419.372 499.516C419.372 498.07 459.157 447.604 450.431 340.378C439.519 206.925 346.031 160.88 251.968 160.88C157.906 160.88 91.8774 247.827 82.7077 309.862L48.1982 449.543L93.3071 455.854C93.3071 455.854 95.2462 550.443 119.6 574.698C143.954 598.953 252.938 583.407 252.938 583.407Z" fill="#1047F7"/>
<path d="M422.856 344.125C419.241 360.69 397.286 368.775 397.286 368.775C395.939 371.766 403.416 430.185 405.503 433.521C407.59 436.857 395.232 445.468 393.605 443.545C391.978 441.623 377.533 403.613 347.477 396.777C342.926 402.002 337.322 406.207 331.032 409.115C324.742 412.024 317.909 413.57 310.979 413.653C286.823 414.245 269.239 396.957 269.239 396.957C269.239 396.957 252.198 422.1 216.473 415.609C180.747 409.118 173.172 380.935 173.172 380.935C173.172 380.935 127.011 394.887 109.28 357.14C95.706 328.267 110.594 307.233 118.285 299C119.522 297.635 120.851 296.355 122.262 295.171C122.262 295.171 118.449 260.152 140.092 241.796C161.734 223.441 190.311 225.643 190.311 225.643C190.311 225.643 201.814 190.196 234.894 183.295C267.974 176.393 288.006 195.57 288.006 195.57C297.832 191.222 308.45 188.949 319.195 188.892C329.939 188.835 340.58 190.997 350.452 195.241C384.797 209.555 383.745 243.67 383.745 243.67C383.745 243.67 408.723 251.886 417.006 272.28C425.288 292.673 411.747 313.132 411.747 313.132C411.747 313.132 426.455 327.561 422.856 344.125Z" fill="#1047F7"/>
<g style="mix-blend-mode:multiply" opacity="0.1">
<g style="mix-blend-mode:multiply" opacity="0.1">
<path d="M347.477 396.76C342.926 401.986 337.322 406.19 331.032 409.099C324.742 412.007 317.909 413.554 310.979 413.637C286.823 414.228 269.239 396.941 269.239 396.941C269.239 396.941 252.198 422.083 216.473 415.592C180.747 409.101 173.172 380.919 173.172 380.919C173.172 380.919 127.011 394.87 109.28 357.123C95.706 328.251 110.594 307.216 118.285 298.983L122.262 295.154C122.048 295.746 109.411 330.946 131.826 352.982C154.241 375.019 186.63 360.673 186.63 360.673C186.63 360.673 190.771 395.511 218.543 403.481C249.388 412.339 269.387 388.889 269.387 388.889C269.387 388.889 305.458 428.18 347.477 396.76Z" fill="#222221"/>
</g>
</g>
<g style="mix-blend-mode:multiply" opacity="0.1">
<path d="M393.687 443.529C392.044 441.622 377.616 403.596 347.56 396.76C347.56 396.76 372.209 382.283 383.564 392.422C394.92 402.561 393.687 443.529 393.687 443.529Z" fill="#222221"/>
</g>
<path d="M360.821 168.735C362.579 167.749 365.455 166.335 367.526 166.73C367.873 166.828 368.194 167.004 368.464 167.244C368.734 167.484 368.947 167.781 369.086 168.115C369.225 168.448 369.287 168.808 369.267 169.169C369.247 169.53 369.146 169.881 368.972 170.197C367.813 172.269 366.054 173.942 363.927 174.996C362.828 175.533 361.643 175.873 360.427 175.998C359.112 176.5 357.707 176.724 356.302 176.655H356.039C355.998 176.671 355.955 176.677 355.911 176.674C355.867 176.672 355.825 176.66 355.786 176.64C355.748 176.62 355.713 176.592 355.686 176.558C355.659 176.523 355.639 176.484 355.628 176.442L355.398 176.36C352.029 174.897 359.539 169.491 360.821 168.735Z" fill="#1047F7"/>
<g style="mix-blend-mode:multiply" opacity="0.3">
<path d="M360.821 168.735C362.579 167.749 365.455 166.335 367.526 166.73C367.873 166.828 368.194 167.004 368.464 167.244C368.734 167.484 368.947 167.781 369.086 168.115C369.225 168.448 369.287 168.808 369.267 169.169C369.247 169.53 369.146 169.881 368.972 170.197C367.813 172.269 366.054 173.942 363.927 174.996C362.828 175.533 361.643 175.873 360.427 175.998C359.112 176.5 357.707 176.724 356.302 176.655H356.039C355.998 176.671 355.955 176.677 355.911 176.674C355.867 176.672 355.825 176.66 355.786 176.64C355.748 176.62 355.713 176.592 355.686 176.558C355.659 176.523 355.639 176.484 355.628 176.442L355.398 176.36C352.029 174.897 359.539 169.491 360.821 168.735Z" fill="#222221"/>
</g>
<path d="M324.816 175.572C323.995 177.774 322.664 181.57 324.258 183.788C324.349 183.926 324.478 184.034 324.63 184.098C324.782 184.162 324.95 184.18 325.112 184.15C326.064 183.857 326.88 183.233 327.413 182.391C329.437 180.34 330.99 177.873 331.965 175.161C332.655 173.271 331.653 170.445 329.237 170.461C326.821 170.477 325.49 173.715 324.816 175.572Z" fill="#1047F7"/>
<g style="mix-blend-mode:multiply" opacity="0.3">
<path d="M324.816 175.572C323.995 177.774 322.664 181.57 324.258 183.788C324.349 183.926 324.478 184.034 324.63 184.098C324.782 184.162 324.95 184.18 325.112 184.15C326.064 183.857 326.88 183.233 327.413 182.391C329.437 180.34 330.99 177.873 331.965 175.161C332.655 173.271 331.653 170.445 329.237 170.461C326.821 170.477 325.49 173.715 324.816 175.572Z" fill="#222221"/>
</g>
<path d="M306.592 193.828C307.184 195.669 309.172 197.904 310.404 195.143C310.441 195.069 310.46 194.987 310.46 194.905C310.46 194.822 310.441 194.74 310.404 194.666C312.048 191.38 313.691 187.847 312.048 184.166C311.012 181.766 308.482 181.668 306.789 183.558C304.373 186.236 305.622 190.854 306.592 193.828Z" fill="#1047F7"/>
<g style="mix-blend-mode:multiply" opacity="0.3">
<path d="M306.592 193.828C307.184 195.669 309.172 197.904 310.404 195.143C310.441 195.069 310.46 194.987 310.46 194.905C310.46 194.822 310.441 194.74 310.404 194.666C312.048 191.38 313.691 187.847 312.048 184.166C311.012 181.766 308.482 181.668 306.789 183.558C304.373 186.236 305.622 190.854 306.592 193.828Z" fill="#222221"/>
</g>
<path d="M357.222 176.672C354.379 178.693 348.694 179.959 346.837 180.221C346.13 180.698 334.545 186.433 330.305 189.966C327.48 192.331 324.879 194.949 322.532 197.788C327.394 194.681 332.572 192.097 337.979 190.081C342.909 188.241 348.661 187.485 353.656 189.654C353.656 189.818 347.182 192.678 344.405 194.124C341.627 195.57 339.475 197.197 336.829 198.314C331.846 200.2 326.447 200.706 321.201 199.777C321.136 199.763 321.074 199.735 321.02 199.695C317.646 203.975 314.957 208.754 313.05 213.86C308.35 227.006 308.613 240.367 310.47 252.823C310.322 252.593 310.142 252.396 309.961 252.165C309.452 251.487 308.904 250.839 308.318 250.226C307.766 246.355 307.459 242.453 307.397 238.542C307.405 238.482 307.405 238.422 307.397 238.362C302.974 236.053 299.417 232.375 297.258 227.877C295.159 222.389 293.51 216.74 292.328 210.984C297.708 213.941 301.934 218.624 304.324 224.279C305.703 227.464 306.803 230.763 307.611 234.138C307.693 232.281 307.808 230.441 308.022 228.6C307.395 222.046 307.296 215.451 307.726 208.881C307.922 206.003 308.284 203.139 308.811 200.303C308.108 198.528 307.601 196.682 307.299 194.798C307.254 194.142 307.379 193.485 307.66 192.891C307.912 192.236 308.404 191.702 309.036 191.397C309.668 191.092 310.392 191.038 311.062 191.248C311.182 191.28 311.289 191.35 311.366 191.448C311.443 191.546 311.486 191.666 311.489 191.79C311.489 192.135 311.489 192.497 311.489 192.858C311.136 195.347 310.586 197.803 309.846 200.204C309.134 203.952 308.7 207.747 308.548 211.559C308.383 215.585 308.548 219.579 308.745 223.588C309.35 220.548 310.191 217.559 311.259 214.649C312.17 208.877 313.919 203.268 316.452 198.002C318.079 194.786 319.896 191.669 321.891 188.668C322.207 186.393 322.757 184.157 323.535 181.996C324.126 180.55 324.964 179.482 326.098 179.548C327.889 179.548 327.939 180.862 327.331 182.358C326.417 184.21 325.304 185.957 324.011 187.567C320.467 192.59 317.49 197.992 315.137 203.671C314.493 205.381 313.944 207.126 313.494 208.897C317.595 200.626 323.612 193.454 331.044 187.978C336.051 184.578 341.34 181.615 346.853 179.12C349.302 177.313 351.586 175.39 354.001 173.418C354.734 172.62 355.681 172.049 356.729 171.775C357.009 171.757 357.289 171.811 357.542 171.932C357.795 172.053 358.013 172.236 358.175 172.465C359.49 174.207 358.783 175.554 357.222 176.672Z" fill="#455A64"/>
<g style="mix-blend-mode:multiply" opacity="0.1">
<g style="mix-blend-mode:multiply" opacity="0.1">
<path d="M270.439 244.985C274.765 243.067 279.404 241.953 284.128 241.698C286.523 241.526 288.928 241.592 291.309 241.895C293.714 242.217 296.078 242.795 298.359 243.621C300.639 244.53 302.793 245.729 304.768 247.187C306.691 248.653 308.434 250.34 309.961 252.215C312.999 255.874 315.238 260.129 316.534 264.704C314.232 260.731 311.444 257.061 308.236 253.776C305.152 250.581 301.428 248.072 297.308 246.414C293.088 244.893 288.646 244.082 284.161 244.015C279.567 243.9 274.972 244.224 270.439 244.985Z" fill="#222221"/>
</g>
<g style="mix-blend-mode:multiply" opacity="0.1">
<path d="M344.815 258.821C342.347 257.397 339.737 256.234 337.026 255.354C334.417 254.511 331.711 254.003 328.974 253.842C328.29 253.801 327.604 253.801 326.92 253.842C326.241 253.793 325.56 253.793 324.882 253.842L322.811 253.99C322.138 254.121 321.448 254.236 320.757 254.335L319.722 254.483L318.703 254.746L316.633 255.222C315.236 255.568 313.905 256.061 312.426 256.389C313.585 255.466 314.803 254.62 316.074 253.858C317.389 253.145 318.764 252.546 320.182 252.067C320.905 251.837 321.628 251.607 322.351 251.41L324.586 251.032C325.339 250.892 326.104 250.826 326.87 250.835C327.631 250.786 328.394 250.786 329.155 250.835C332.205 251.005 335.188 251.805 337.913 253.185C340.635 254.479 343.003 256.413 344.815 258.821Z" fill="#222221"/>
</g>
</g>
<path d="M409.168 252.297C404.404 255.028 399.463 257.438 394.378 259.511C391.962 260.681 389.456 261.653 386.884 262.42C385.471 262.806 383.974 262.748 382.595 262.255C381.814 262.107 381.114 261.681 380.623 261.056C380.503 260.924 380.428 260.757 380.41 260.579C378.257 258.64 377.616 255.518 376.959 252.626C375.603 246.859 374.86 240.965 374.74 235.042C374.74 232.889 374.296 230.112 375.282 228.042C375.89 226.809 376.646 226.694 377.6 226.004C379.867 224.361 379.933 222.241 381.576 220.203C381.952 219.62 382.479 219.15 383.102 218.843C383.724 218.536 384.418 218.404 385.109 218.461C388.56 219.151 388.199 225.856 388.396 228.321C388.823 233.395 388.823 238.497 388.396 243.571C388.111 248.155 387.413 252.703 386.309 257.161C390.931 250.18 396.532 243.899 402.939 238.51C405.24 236.554 408.921 233.35 412.24 234.516C413.588 234.993 413.44 236.012 414.311 236.735C416.152 238.263 418.156 236.735 420.079 237.655C427.277 241.27 411.649 250.884 409.168 252.297Z" fill="#1047F7"/>
<g style="mix-blend-mode:multiply" opacity="0.3">
<path d="M409.168 252.297C404.404 255.028 399.463 257.438 394.378 259.511C391.962 260.681 389.456 261.653 386.884 262.42C385.471 262.806 383.974 262.748 382.595 262.255C381.814 262.107 381.114 261.681 380.623 261.056C380.503 260.924 380.428 260.757 380.41 260.579C378.257 258.64 377.616 255.518 376.959 252.626C375.603 246.859 374.86 240.965 374.74 235.042C374.74 232.889 374.296 230.112 375.282 228.042C375.89 226.809 376.646 226.694 377.6 226.004C379.867 224.361 379.933 222.241 381.576 220.203C381.952 219.62 382.479 219.15 383.102 218.843C383.724 218.536 384.418 218.404 385.109 218.461C388.56 219.151 388.199 225.856 388.396 228.321C388.823 233.395 388.823 238.497 388.396 243.571C388.111 248.155 387.413 252.703 386.309 257.161C390.931 250.18 396.532 243.899 402.939 238.51C405.24 236.554 408.921 233.35 412.24 234.516C413.588 234.993 413.44 236.012 414.311 236.735C416.152 238.263 418.156 236.735 420.079 237.655C427.277 241.27 411.649 250.884 409.168 252.297Z" fill="#222221"/>
</g>
<path d="M404.073 226.514C398.913 236.932 393.129 247.006 388.149 257.506C388.018 257.769 387.574 257.506 387.689 257.309C391.567 247.696 396.793 238.723 401.526 229.521C404.015 225.007 405.925 220.199 407.212 215.208C408.001 211.806 408.198 208.634 410.498 206.021C410.591 205.904 410.714 205.814 410.853 205.758C410.992 205.703 411.143 205.686 411.291 205.707C411.439 205.729 411.579 205.789 411.697 205.882C411.814 205.974 411.905 206.096 411.961 206.235C413.341 209.522 409.414 214.304 407.343 217.442C406.563 220.569 405.468 223.608 404.073 226.514Z" fill="#263238"/>
<path d="M383.647 225.084C379.917 234.665 379.079 245.067 377.863 255.157C377.863 255.205 377.843 255.251 377.81 255.285C377.776 255.319 377.73 255.338 377.682 255.338C377.634 255.338 377.588 255.319 377.554 255.285C377.52 255.251 377.501 255.205 377.501 255.157C377.6 241.715 380.788 226.793 387.887 215.241C388.511 214.206 392.652 207.862 394.328 209.982C395.216 211.116 393.244 212.94 392.603 213.581C390.549 215.75 388.002 217.246 386.128 219.629C385.126 221.502 384.321 223.375 383.647 225.084Z" fill="#263238"/>
<path d="M421.311 228.404C420.369 232.977 418.55 237.324 415.954 241.205C410.696 249.586 403.169 256.274 395.199 262.009C395.019 262.157 394.788 261.829 394.953 261.697C402.561 255.584 410.071 249.175 415.313 240.827C416.684 238.656 417.871 236.375 418.863 234.007L419.093 233.449C419.081 233.429 419.075 233.406 419.075 233.383C419.075 233.36 419.081 233.337 419.093 233.317C419.457 230.516 419.501 227.682 419.224 224.871C418.975 223.677 419.167 222.433 419.767 221.37C419.793 221.326 419.833 221.291 419.88 221.271C419.927 221.25 419.979 221.245 420.03 221.255C422.363 221.863 421.624 226.728 421.311 228.404Z" fill="#263238"/>
<path d="M416.562 260.399C406.439 266.019 394.328 267.876 383.696 272.231C381.264 273.217 378.865 274.318 376.482 275.517C375.752 275.915 375 276.272 374.231 276.586C373.75 276.772 373.227 276.823 372.719 276.733C372.504 276.703 372.297 276.631 372.111 276.52C371.768 276.325 371.478 276.05 371.266 275.718C371.054 275.386 370.926 275.006 370.895 274.614C370.703 272.969 370.775 271.305 371.108 269.684C370.96 267.942 370.665 266.2 370.484 264.655C370.254 262.387 369.958 260.153 369.613 257.901C368.841 253.136 367.641 248.469 366.458 243.785C365.299 239.849 364.745 235.76 364.814 231.658C364.814 229.472 365.192 225.397 367.131 223.967C369.071 222.537 370.122 223.852 370.813 225.479C371.503 227.106 371.453 228.765 371.963 230.277C372.752 232.627 374.148 232.857 375.693 234.32C376.614 235.358 377.304 236.582 377.714 237.908C378.125 239.234 378.249 240.633 378.076 242.01C377.944 244.229 377.698 246.464 377.402 248.666C378.059 246.677 378.799 244.705 379.555 242.783C380.919 239.315 382.266 234.993 384.863 232.216C385.686 231.284 386.716 230.558 387.87 230.096C390.364 229.413 392.632 228.08 394.443 226.235C396.218 224.263 398.519 220.697 401.657 221.173C404.796 221.65 404.467 224.805 404.665 227.155C405.043 231.526 408.609 233.892 407.803 238.658C407.146 242.536 404.435 245.872 402.035 248.847C400.167 251.169 398.147 253.365 395.988 255.42C398.887 253.665 402.01 252.311 405.273 251.394C406.673 250.872 408.187 250.731 409.66 250.983C411.78 251.542 411.895 252.889 414.59 252.626C416.595 252.396 420.983 250.983 422.067 253.76C423.152 256.537 418.551 259.282 416.562 260.399Z" fill="#1047F7"/>
<g style="mix-blend-mode:multiply" opacity="0.1">
<path d="M416.562 260.399C406.439 266.019 394.328 267.876 383.696 272.231C381.264 273.217 378.865 274.318 376.482 275.517C375.752 275.915 375 276.272 374.231 276.586C373.75 276.772 373.227 276.823 372.719 276.733C372.504 276.703 372.297 276.631 372.111 276.52C371.768 276.325 371.478 276.05 371.266 275.718C371.054 275.386 370.926 275.006 370.895 274.614C370.703 272.969 370.775 271.305 371.108 269.684C370.96 267.942 370.665 266.2 370.484 264.655C370.254 262.387 369.958 260.153 369.613 257.901C368.841 253.136 367.641 248.469 366.458 243.785C365.299 239.849 364.745 235.76 364.814 231.658C364.814 229.472 365.192 225.397 367.131 223.967C369.071 222.537 370.122 223.852 370.813 225.479C371.503 227.106 371.453 228.765 371.963 230.277C372.752 232.627 374.148 232.857 375.693 234.32C376.614 235.358 377.304 236.582 377.714 237.908C378.125 239.234 378.249 240.633 378.076 242.01C377.944 244.229 377.698 246.464 377.402 248.666C378.059 246.677 378.799 244.705 379.555 242.783C380.919 239.315 382.266 234.993 384.863 232.216C385.686 231.284 386.716 230.558 387.87 230.096C390.364 229.413 392.632 228.08 394.443 226.235C396.218 224.263 398.519 220.697 401.657 221.173C404.796 221.65 404.467 224.805 404.665 227.155C405.043 231.526 408.609 233.892 407.803 238.658C407.146 242.536 404.435 245.872 402.035 248.847C400.167 251.169 398.147 253.365 395.988 255.42C398.887 253.665 402.01 252.311 405.273 251.394C406.673 250.872 408.187 250.731 409.66 250.983C411.78 251.542 411.895 252.889 414.59 252.626C416.595 252.396 420.983 250.983 422.067 253.76C423.152 256.537 418.551 259.282 416.562 260.399Z" fill="#222221"/>
</g>
<path d="M369.958 243.588V243.703C370.057 243.686 370.024 243.571 369.958 243.588Z" fill="#F1D1C5"/>
<path d="M408.247 260.021C398.256 266.397 380.903 265.164 374.198 276.01V276.536C373.717 276.722 373.194 276.773 372.686 276.684C371.174 272.904 371.897 268.681 372.045 264.638C372.397 258.529 371.972 252.4 370.78 246.398C370.78 246.233 370.977 246.184 371.043 246.398C372.411 251.025 373.125 255.82 373.163 260.645C373.278 265.575 371.947 271.475 373.376 276.273L373.475 275.78C373.475 270.242 375.71 264.671 377.977 259.741C380.903 253.382 384.551 247.449 388.084 241.386C388.215 241.139 388.56 241.386 388.429 241.632C385.405 247.597 382.266 253.546 379.44 259.61C377.609 263.297 376.129 267.148 375.02 271.113C380.541 258.23 395.577 250.851 400.261 237.475C400.283 237.411 400.329 237.359 400.389 237.33C400.449 237.301 400.518 237.297 400.581 237.318C400.644 237.34 400.696 237.386 400.726 237.446C400.755 237.506 400.759 237.576 400.737 237.639C396.005 251.854 380.788 259.741 375.085 273.299C375.999 272.194 377.061 271.221 378.24 270.406C380.669 268.004 383.437 265.972 386.457 264.376C391.387 261.796 396.777 260.53 401.543 257.589C401.723 257.49 401.904 257.769 401.756 257.901C398.092 261.04 393.293 262.223 388.971 264.178C386.373 265.342 383.91 266.786 381.626 268.484C383.023 267.826 384.455 267.245 385.915 266.742C393.293 264.129 400.934 262.913 408.066 259.577C408.121 259.569 408.177 259.579 408.225 259.607C408.273 259.634 408.31 259.677 408.331 259.728C408.352 259.779 408.355 259.836 408.34 259.889C408.325 259.942 408.292 259.988 408.247 260.021Z" fill="white"/>
<path d="M369.268 235.864C368.981 237.376 369.077 238.935 369.547 240.4C369.555 240.421 369.57 240.44 369.589 240.452C369.608 240.465 369.631 240.472 369.654 240.472C369.677 240.472 369.699 240.465 369.718 240.452C369.737 240.44 369.752 240.421 369.761 240.4C369.596 238.931 369.596 237.448 369.761 235.979C369.695 235.716 369.333 235.618 369.268 235.864Z" fill="white"/>
<path d="M401.099 232.759C400.918 233.58 400.935 234.402 400.787 235.289C400.787 235.569 401.132 235.602 401.23 235.388C401.619 234.581 401.745 233.673 401.592 232.791C401.526 232.578 401.148 232.496 401.099 232.759Z" fill="white"/>
<path d="M412.142 256.915C411.715 257.137 411.308 257.396 410.926 257.687C410.902 257.714 410.885 257.746 410.878 257.781C410.87 257.816 410.873 257.852 410.885 257.886C410.896 257.92 410.917 257.95 410.945 257.973C410.972 257.996 411.005 258.01 411.041 258.016C411.577 257.978 412.08 257.744 412.454 257.359C412.668 257.161 412.421 256.751 412.142 256.915Z" fill="white"/>
<path d="M369.185 270.044C369.53 273.89 370.418 278.014 368.512 281.811C368.347 282.139 368.66 282.435 368.906 282.188C370.796 280.151 383.252 275.27 382.693 273.167C382.348 271.885 378.897 273.479 378.421 271.704C378.437 270.654 378.655 269.616 379.062 268.648C379.325 267.629 379.555 266.577 379.719 265.542C379.883 264.506 379.85 263.356 379.012 262.995C378.174 262.633 376.958 263.816 376.301 264.638C375.644 265.46 375.249 266.068 374.74 266.791C374.23 267.514 373.392 269.075 372.669 267.777C371.946 266.478 371.831 265.262 370.862 264.408C368.66 262.469 369.037 268.894 369.185 270.044Z" fill="#455A64"/>
<path d="M364.634 320.856C364.157 319.755 363.615 318.654 362.99 317.569C362.5 316.679 361.951 315.823 361.347 315.006C361.347 314.299 361.462 313.576 361.528 312.869C361.889 308.893 362.399 304.932 363.089 301.005C363.27 299.904 363.483 298.803 363.697 297.718C364.19 295.171 364.749 292.64 365.34 290.11C366.179 286.39 367.494 282.795 369.251 279.412C369.874 278.268 370.577 277.17 371.355 276.125L372.029 275.27L372.768 274.383L373.393 273.693L373.491 273.594C373.541 273.538 373.612 273.503 373.687 273.499C373.763 273.494 373.837 273.52 373.894 273.57C373.95 273.62 373.985 273.69 373.99 273.766C373.994 273.841 373.969 273.916 373.918 273.972L373.327 274.728C373.191 274.908 373.065 275.094 372.949 275.287C372.735 275.583 372.522 275.911 372.308 276.224C372.094 276.536 372.144 276.503 372.078 276.651C371.154 278.182 370.383 279.8 369.777 281.482C367.526 287.53 366.951 294.366 366.162 300.577C365.768 303.656 365.45 306.729 365.209 309.796C365.184 310.053 365.184 310.312 365.209 310.569C364.962 313.938 364.749 317.388 364.634 320.856Z" fill="#455A64"/>
<path d="M363.779 301.531C363.779 301.531 364.239 288.204 361.709 281.45C359.178 274.696 351.126 265.986 351.126 265.986C349.708 272.502 350.141 279.284 352.378 285.565C354.614 291.847 358.563 297.377 363.779 301.531Z" fill="#455A64"/>
<path d="M364.962 310.585C364.962 310.585 369.81 298.145 374.822 292.953C379.834 287.76 390.631 282.896 390.631 282.896C389.365 289.448 386.29 295.514 381.753 300.408C377.217 305.302 371.4 308.828 364.962 310.585Z" fill="#455A64"/>
<g style="mix-blend-mode:multiply" opacity="0.1">
<g style="mix-blend-mode:multiply" opacity="0.1">
<path d="M318.555 300.282C324.025 298.984 329.693 298.749 335.251 299.592C340.905 300.4 346.337 302.339 351.224 305.294C353.669 306.813 355.925 308.617 357.945 310.668C359.928 312.744 361.639 315.063 363.04 317.57C365.812 322.501 367.341 328.035 367.493 333.69C366.208 328.392 364.03 323.352 361.051 318.786C358.108 314.343 354.219 310.605 349.663 307.841C348.529 307.135 347.362 306.51 346.179 305.869C344.996 305.228 343.78 304.719 342.515 304.226C340.016 303.232 337.445 302.43 334.824 301.827C329.484 300.65 324.021 300.131 318.555 300.282Z" fill="#222221"/>
</g>
<g style="mix-blend-mode:multiply" opacity="0.1">
<path d="M398.617 316.436C395.683 315.726 392.7 315.232 389.694 314.957C386.783 314.719 383.853 314.829 380.968 315.285C379.54 315.5 378.129 315.813 376.745 316.222C375.362 316.679 374.012 317.228 372.702 317.865C369.992 319.191 367.407 320.759 364.979 322.549C366.653 319.861 368.897 317.572 371.552 315.844C372.891 314.943 374.324 314.188 375.824 313.593C377.338 313.042 378.901 312.635 380.491 312.377C383.667 311.882 386.908 311.999 390.039 312.722C393.122 313.36 396.042 314.624 398.617 316.436Z" fill="#222221"/>
</g>
</g>
<path d="M127.472 227.45C133.749 232.577 141.752 234.632 149.344 236.916C151.48 237.557 153.567 238.23 155.654 238.97C157.094 239.623 158.685 239.873 160.256 239.693C162.984 239.134 163.246 236.686 163.279 234.319C163.337 233.564 163.337 232.806 163.279 232.052V231.542C163.289 231.492 163.287 231.441 163.273 231.392C163.259 231.344 163.233 231.299 163.197 231.263C163.197 230.343 163.049 229.439 162.984 228.584C162.589 223.654 162.145 218.724 161.718 213.893C161.565 209.913 161.065 205.954 160.223 202.061C159.861 200.697 159.467 198.873 158.086 198.167C157.278 197.887 156.455 197.651 155.622 197.46C154.91 197.155 154.275 196.694 153.765 196.112C152.417 194.699 150.018 190.427 147.504 191.791C146.222 192.497 145.86 194.14 145.581 195.422C144.895 197.055 143.883 198.532 142.607 199.761C140.717 202.226 141.193 205.397 142.229 208.109C143.708 211.625 145.63 214.938 147.947 217.968C150.231 221.156 152.729 224.18 155.046 227.352C156.335 229.095 157.531 230.905 158.629 232.775C159.171 233.695 159.664 234.615 160.124 235.568C160.487 236.216 160.769 236.906 160.962 237.622C158.169 234.141 155.15 230.848 151.924 227.763C148.637 224.476 145.712 220.581 141.966 217.722C139.198 215.482 135.779 214.202 132.221 214.074C130.228 214.177 128.233 213.938 126.321 213.367C124.634 212.66 122.884 212.11 121.096 211.724C117.135 211.165 119.107 215.832 119.962 217.722C121.661 221.512 124.235 224.846 127.472 227.45Z" fill="#1047F7"/>
<g style="mix-blend-mode:multiply" opacity="0.3">
<path d="M127.472 227.45C133.749 232.577 141.752 234.632 149.344 236.916C151.48 237.557 153.567 238.23 155.654 238.97C157.094 239.623 158.685 239.873 160.256 239.693C162.984 239.134 163.246 236.686 163.279 234.319C163.337 233.564 163.337 232.806 163.279 232.052V231.542C163.289 231.492 163.287 231.441 163.273 231.392C163.259 231.344 163.233 231.299 163.197 231.263C163.197 230.343 163.049 229.439 162.984 228.584C162.589 223.654 162.145 218.724 161.718 213.893C161.565 209.913 161.065 205.954 160.223 202.061C159.861 200.697 159.467 198.873 158.086 198.167C157.278 197.887 156.455 197.651 155.622 197.46C154.91 197.155 154.275 196.694 153.765 196.112C152.417 194.699 150.018 190.427 147.504 191.791C146.222 192.497 145.86 194.14 145.581 195.422C144.895 197.055 143.883 198.532 142.607 199.761C140.717 202.226 141.193 205.397 142.229 208.109C143.708 211.625 145.63 214.938 147.947 217.968C150.231 221.156 152.729 224.18 155.046 227.352C156.335 229.095 157.531 230.905 158.629 232.775C159.171 233.695 159.664 234.615 160.124 235.568C160.487 236.216 160.769 236.906 160.962 237.622C158.169 234.141 155.15 230.848 151.924 227.763C148.637 224.476 145.712 220.581 141.966 217.722C139.198 215.482 135.779 214.202 132.221 214.074C130.228 214.177 128.233 213.938 126.321 213.367C124.634 212.66 122.884 212.11 121.096 211.724C117.135 211.165 119.107 215.832 119.962 217.722C121.661 221.512 124.235 224.846 127.472 227.45Z" fill="#222221"/>
</g>
<path d="M158.875 233.712C159.672 228.329 159.672 222.859 158.875 217.476C157.075 207.116 153.43 197.164 148.111 188.094C147.089 186.072 145.783 184.208 144.233 182.556C143.543 181.898 141.998 181.175 142.048 182.786C142.357 184.322 143.253 185.678 144.545 186.565C145.977 187.624 147.314 188.806 148.539 190.098C149.41 191.742 150.182 193.385 151.036 195.028C153.047 199.178 154.755 203.467 156.147 207.863C158.921 216.185 159.819 225.018 158.776 233.728L158.875 233.712Z" fill="#263238"/>
<path d="M157.725 236.111C152.339 235.314 147.1 233.724 142.179 231.394C132.78 226.683 124.307 220.314 117.168 212.595C115.517 211.046 114.11 209.256 112.994 207.287C112.55 206.449 112.304 204.756 113.832 205.266C115.36 205.775 116.182 207.484 116.741 208.749C117.328 210.457 118.07 212.108 118.959 213.679C120.257 214.978 121.572 216.243 122.936 217.492C126.328 220.614 129.942 223.487 133.749 226.086C140.911 231.147 149.104 234.559 157.741 236.078C157.741 236.078 157.807 236.127 157.725 236.111Z" fill="#263238"/>
<path d="M130.758 200.089C133.585 203.858 136.51 207.544 139.533 211.149C145.565 218.298 151.967 225.127 158.711 231.608C158.711 231.608 158.842 231.608 158.711 231.509C152.138 224.936 145.909 217.919 139.961 210.787C136.981 207.227 134.099 203.6 131.317 199.908C130.758 199.136 130.183 198.38 129.674 197.591C128.737 195.143 128.03 192.875 126.913 190.492C126.354 189.375 125.023 186.778 123.758 187.699C122.164 188.915 127.997 196.359 130.758 200.089Z" fill="#263238"/>
<path d="M118.137 227.105C119.922 229.848 122.175 232.257 124.793 234.221C130.403 238.444 136.808 241.49 143.625 243.177C150.111 245.116 156.942 245.615 163.641 244.639H163.887C163.91 244.658 163.939 244.668 163.969 244.668C163.999 244.668 164.028 244.658 164.051 244.639C164.227 244.614 164.399 244.564 164.561 244.491C164.561 244.491 165.202 244.376 165.054 244.311C165.333 243.926 165.635 243.558 165.958 243.209C167.147 241.879 168.215 240.443 169.146 238.92C170.14 236.918 170.79 234.763 171.068 232.544C171.808 227.467 171.068 222.29 171.693 217.196C172.169 212.759 173.845 208.519 173.698 204.049C173.698 203.063 173.533 201.469 172.153 201.732C170.395 202.077 170.148 204.51 168.998 205.528C168.916 205.791 168.702 205.874 168.39 205.775C167.995 205.972 167.749 205.857 167.634 205.413C167.473 205.155 167.341 204.879 167.239 204.592C166.983 203.996 166.758 203.387 166.566 202.768C166.204 201.683 165.925 200.566 165.629 199.481C165.325 197.477 164.572 195.567 163.427 193.894C163.254 193.655 163.02 193.468 162.75 193.35C162.479 193.233 162.182 193.191 161.89 193.228C161.598 193.265 161.321 193.38 161.088 193.56C160.855 193.741 160.676 193.981 160.568 194.255C159.93 196.073 159.7 198.008 159.894 199.925C159.894 201.256 159.614 203.211 157.807 202.801C157.067 202.653 156.394 202.209 155.654 202.061C154.991 201.948 154.31 202.073 153.73 202.412C153.15 202.752 152.709 203.285 152.482 203.918C151.71 205.791 152.367 208.174 152.762 210.08C153.309 212.531 154.006 214.946 154.849 217.311C156.492 221.814 160.107 230.326 161.981 234.714C163 237.129 151.562 212.2 147.191 207.172C146.12 206.152 144.709 205.566 143.231 205.528C142.277 205.528 141.39 205.906 140.437 205.89C139.461 205.804 138.511 205.525 137.643 205.068C135.277 204.017 131.234 202.768 130.577 206.432C130.265 208.076 131.037 209.719 131.07 211.362C130.852 212.928 130.327 214.436 129.525 215.799C128.161 219.299 131.432 222.372 133.716 224.706C136.557 227.591 139.648 230.219 142.951 232.561C144.989 234.04 152.811 239.134 154.931 240.449C152.22 239.068 143.822 233.876 141.176 232.331C139.435 231.328 137.726 230.277 136.049 229.192C134.373 228.107 133.042 227.023 131.448 226.152C130.156 225.512 128.709 225.25 127.274 225.396C125.323 225.217 123.392 224.859 121.506 224.328C120.487 224.164 118.597 223.523 117.858 224.558C117.233 225.215 117.611 226.366 118.137 227.105Z" fill="#1047F7"/>
<g style="mix-blend-mode:multiply" opacity="0.09">
<path d="M118.137 227.105C119.922 229.848 122.175 232.257 124.793 234.221C130.403 238.444 136.808 241.49 143.625 243.177C150.111 245.116 156.942 245.615 163.641 244.639H163.887C163.91 244.658 163.939 244.668 163.969 244.668C163.999 244.668 164.028 244.658 164.051 244.639C164.227 244.614 164.399 244.564 164.561 244.491C164.561 244.491 165.202 244.376 165.054 244.311C165.333 243.926 165.635 243.558 165.958 243.209C167.147 241.879 168.215 240.443 169.146 238.92C170.14 236.918 170.79 234.763 171.068 232.544C171.808 227.467 171.068 222.29 171.693 217.196C172.169 212.759 173.845 208.519 173.698 204.049C173.698 203.063 173.533 201.469 172.153 201.732C170.395 202.077 170.148 204.51 168.998 205.528C168.916 205.791 168.702 205.874 168.39 205.775C167.995 205.972 167.749 205.857 167.634 205.413C167.473 205.155 167.341 204.879 167.239 204.592C166.983 203.996 166.758 203.387 166.566 202.768C166.204 201.683 165.925 200.566 165.629 199.481C165.325 197.477 164.572 195.567 163.427 193.894C163.254 193.655 163.02 193.468 162.75 193.35C162.479 193.233 162.182 193.191 161.89 193.228C161.598 193.265 161.321 193.38 161.088 193.56C160.855 193.741 160.676 193.981 160.568 194.255C159.93 196.073 159.7 198.008 159.894 199.925C159.894 201.256 159.614 203.211 157.807 202.801C157.067 202.653 156.394 202.209 155.654 202.061C154.991 201.948 154.31 202.073 153.73 202.412C153.15 202.752 152.709 203.285 152.482 203.918C151.71 205.791 152.367 208.174 152.762 210.08C153.309 212.531 154.006 214.946 154.849 217.311C156.492 221.814 160.107 230.326 161.981 234.714C163 237.129 151.562 212.2 147.191 207.172C146.12 206.152 144.709 205.566 143.231 205.528C142.277 205.528 141.39 205.906 140.437 205.89C139.461 205.804 138.511 205.525 137.643 205.068C135.277 204.017 131.234 202.768 130.577 206.432C130.265 208.076 131.037 209.719 131.07 211.362C130.852 212.928 130.327 214.436 129.525 215.799C128.161 219.299 131.432 222.372 133.716 224.706C136.557 227.591 139.648 230.219 142.951 232.561C144.989 234.04 152.811 239.134 154.931 240.449C152.22 239.068 143.822 233.876 141.176 232.331C139.435 231.328 137.726 230.277 136.049 229.192C134.373 228.107 133.042 227.023 131.448 226.152C130.156 225.512 128.709 225.25 127.274 225.396C125.323 225.217 123.392 224.859 121.506 224.328C120.487 224.164 118.597 223.523 117.858 224.558C117.233 225.215 117.611 226.366 118.137 227.105Z" fill="#222221"/>
</g>
<path d="M162.671 204.855C162.671 204.707 162.917 204.707 162.901 204.855C162.753 207.734 162.753 210.619 162.901 213.499C162.89 213.532 162.869 213.56 162.841 213.581C162.813 213.601 162.779 213.612 162.745 213.612C162.71 213.612 162.676 213.601 162.648 213.581C162.62 213.56 162.599 213.532 162.589 213.499C162.12 210.634 162.148 207.71 162.671 204.855Z" fill="white"/>
<path d="M137.496 216.506C138.26 217.086 138.969 217.735 139.616 218.445C139.616 218.543 139.616 218.724 139.451 218.642C138.696 218.032 137.998 217.356 137.364 216.621C137.331 216.539 137.331 216.424 137.496 216.506Z" fill="white"/>
<path d="M131.153 230.293L132.303 231.082C132.467 231.18 132.303 231.427 132.171 231.312L131.07 230.457C130.972 230.424 131.054 230.293 131.153 230.293Z" fill="white"/>
<path d="M159.434 246.727C162.868 247.992 166.878 248.83 168.916 252.199C168.952 252.258 169.008 252.303 169.074 252.325C169.14 252.348 169.212 252.346 169.277 252.32C169.342 252.295 169.395 252.247 169.428 252.186C169.462 252.125 169.472 252.054 169.458 251.985C168.899 249.356 172.284 235.552 170.165 235.256C168.883 235.059 168.16 238.97 166.369 238.691C165.613 238.576 164.725 237.343 164.183 236.834C163.489 236.143 162.754 235.496 161.981 234.895C161.258 234.353 160.206 233.86 159.401 234.517C158.596 235.174 158.859 236.785 159.154 237.804C159.45 238.822 159.73 239.447 160.025 240.154C160.321 240.86 161.143 242.372 159.615 242.52C158.296 242.407 156.968 242.518 155.687 242.849C152.746 244.081 158.399 246.299 159.434 246.727Z" fill="#455A64"/>
<path d="M195.718 292.081H195.586L193.236 291.736C192.809 291.736 192.365 291.736 191.938 291.736C191.33 290.093 190.656 288.647 189.933 287.151C189.555 286.33 189.145 285.508 188.734 284.687C187.353 281.991 185.863 279.384 184.264 276.864C179.104 268.648 173.648 260.793 169.113 252.363C167.677 249.7 166.352 246.962 165.136 244.146C165.037 243.949 164.971 243.752 164.889 243.571C164.561 242.766 164.216 241.928 163.903 241.106C163.903 240.909 164.133 240.777 164.232 240.975C164.478 241.583 164.741 242.174 165.037 242.782C165.037 242.946 165.185 243.111 165.251 243.259C165.317 243.407 165.251 243.259 165.251 243.259C165.251 243.259 165.382 243.555 165.464 243.702C166.634 246.138 167.946 248.503 169.392 250.785C173.303 257.095 177.986 262.995 182.423 269.026C182.752 269.469 183.081 269.913 183.393 270.373C186.278 274.229 188.907 278.269 191.264 282.468C192.977 285.562 194.465 288.775 195.718 292.081Z" fill="#455A64"/>
<path d="M191.314 286.856C191.314 286.856 181.454 277.818 174.716 275.353C167.979 272.888 156.098 273.299 156.098 273.299C160.118 278.619 165.547 282.708 171.771 285.104C177.994 287.5 184.764 288.107 191.314 286.856Z" fill="#455A64"/>
<path d="M182.769 271.08C182.769 271.08 180.468 257.934 182.046 250.917C183.624 243.9 190.361 234.122 190.361 234.122C192.674 240.377 193.189 247.154 191.848 253.686C190.506 260.218 187.361 266.244 182.769 271.08Z" fill="#455A64"/>
<path d="M191.708 187.995C193.812 187.485 195.209 191.906 195.587 193.27C196.448 196.898 196.006 200.714 194.338 204.05C194.272 204.308 194.161 204.553 194.009 204.773C194.009 204.773 194.009 204.773 194.009 204.872C194.009 204.97 194.009 204.872 194.009 204.872L193.795 205.085C193.699 205.172 193.581 205.232 193.454 205.258C193.327 205.284 193.195 205.276 193.072 205.233C190.361 204.05 190.492 200.172 190.525 197.772C190.46 196.293 189.227 188.603 191.708 187.995Z" fill="#1047F7"/>
<g style="mix-blend-mode:multiply" opacity="0.2">
<path d="M191.708 187.995C193.812 187.485 195.209 191.906 195.587 193.27C196.448 196.898 196.006 200.714 194.338 204.05C194.272 204.308 194.161 204.553 194.009 204.773C194.009 204.773 194.009 204.773 194.009 204.872C194.009 204.97 194.009 204.872 194.009 204.872L193.795 205.085C193.699 205.172 193.581 205.232 193.454 205.258C193.327 205.284 193.195 205.276 193.072 205.233C190.361 204.05 190.492 200.172 190.525 197.772C190.46 196.293 189.227 188.603 191.708 187.995Z" fill="#222221"/>
</g>
<path d="M177.674 211.461C176.393 215.06 178.792 218.544 180.961 221.107C181.799 222.093 184.346 224.887 185.431 223.457C185.515 223.473 185.603 223.456 185.676 223.41C185.749 223.365 185.802 223.294 185.825 223.211C186.154 221.768 185.986 220.257 185.349 218.922C184.511 216.654 183.705 214.304 182.637 212.102C181.569 209.9 178.825 208.306 177.674 211.461Z" fill="#1047F7"/>
<g style="mix-blend-mode:multiply" opacity="0.2">
<path d="M177.674 211.461C176.393 215.06 178.792 218.544 180.961 221.107C181.799 222.093 184.346 224.887 185.431 223.457C185.515 223.473 185.603 223.456 185.676 223.41C185.749 223.365 185.802 223.294 185.825 223.211C186.154 221.768 185.986 220.257 185.349 218.922C184.511 216.654 183.705 214.304 182.637 212.102C181.569 209.9 178.825 208.306 177.674 211.461Z" fill="#222221"/>
</g>
<path d="M220.663 249.454C219.344 254.782 216.27 259.511 211.937 262.88C212.148 268.425 211.696 273.975 210.59 279.412C209.932 279.888 209.324 280.414 208.733 280.94C209.029 279.527 209.275 278.13 209.489 276.7C209.494 276.657 209.494 276.613 209.489 276.569C200.598 271.885 196.622 262.831 193.286 253.678C193.549 253.678 207.352 259.462 209.9 274.252C210.68 267.249 210.498 260.171 209.357 253.217C205.611 242.273 196.211 234.467 187.107 227.27C185.454 226.174 184.058 224.733 183.015 223.046C182.947 222.932 182.892 222.811 182.851 222.685C182.489 221.814 182.046 219.924 183.212 219.398C184.379 218.872 185.316 220.335 185.891 221.14C185.982 221.26 186.065 221.386 186.137 221.518C187.781 223.786 189.243 226.169 190.689 228.535C194.129 231.104 197.375 233.921 200.401 236.965C203.54 240.127 206.182 243.745 208.24 247.696C208.092 247.104 207.977 246.513 207.829 245.905C205.54 237.486 202.228 229.379 197.969 221.765C196.068 218.499 194.42 215.093 193.039 211.576C192.066 209.097 191.537 206.466 191.478 203.803C191.499 203.161 191.61 202.525 191.807 201.913C192.25 200.549 193.45 199.925 194.387 201.289C194.721 201.848 194.918 202.479 194.962 203.129C195.093 204.395 194.962 205.808 194.962 206.745C195.11 209.16 195.225 211.593 195.307 214.025C196.096 215.668 196.95 217.163 197.838 218.708C202.768 226.806 206.634 235.505 209.341 244.59C210.416 248.513 211.19 252.513 211.658 256.553C212.01 253.37 212.62 250.221 213.482 247.137C214.747 242.552 220.137 234.566 220.187 234.533C221.643 239.38 221.808 244.524 220.663 249.454Z" fill="#455A64"/>
<g style="mix-blend-mode:multiply" opacity="0.1">
<g style="mix-blend-mode:multiply" opacity="0.1">
<path d="M159.188 317.553C160.344 311.492 163.38 305.949 167.864 301.711C171.174 298.463 175.08 295.885 179.367 294.119L181.504 293.232L183.771 292.558C186.823 291.713 190.002 291.429 193.155 291.72L195.505 292.048C196.277 292.163 197.033 292.426 197.789 292.607L198.923 292.919L200.024 293.33C200.73 293.626 201.486 293.872 202.176 294.234C207.714 296.891 212.445 300.975 215.882 306.066C211.69 301.906 206.72 298.611 201.256 296.37C195.941 294.249 190.079 293.921 184.56 295.434C178.979 296.986 173.791 299.708 169.343 303.42C164.844 307.221 161.355 312.076 159.188 317.553Z" fill="#222221"/>
</g>
<g style="mix-blend-mode:multiply" opacity="0.1">
<path d="M243.555 276.125C239.328 275.507 235.049 275.336 230.786 275.616C226.633 275.867 222.543 276.754 218.659 278.245C214.808 279.79 211.268 282.017 208.207 284.818C205.119 287.77 202.394 291.08 200.089 294.678C201.395 290.426 203.597 286.503 206.548 283.175C208.058 281.503 209.75 280.003 211.593 278.705C213.47 277.447 215.469 276.379 217.558 275.517C225.987 272.393 235.294 272.628 243.555 276.174V276.125Z" fill="#222221"/>
</g>
<g style="mix-blend-mode:multiply" opacity="0.1">
<path d="M143.905 296.14C145.814 294.74 148.037 293.826 150.379 293.478C152.769 293.062 155.222 293.18 157.561 293.823C159.915 294.444 162.085 295.622 163.887 297.258C164.787 298.039 165.587 298.927 166.27 299.904C166.913 300.874 167.463 301.903 167.914 302.977C166.911 302.319 166.106 301.547 165.186 300.922C164.314 300.278 163.409 299.68 162.474 299.131C160.686 298.055 158.755 297.237 156.739 296.699C154.707 296.146 152.616 295.842 150.511 295.795C148.304 295.76 146.096 295.876 143.905 296.14Z" fill="#222221"/>
</g>
</g>
<g style="mix-blend-mode:multiply" opacity="0.1">
<g style="mix-blend-mode:multiply" opacity="0.1">
<path d="M245.116 350.386C248.54 348.281 252.322 346.822 256.274 346.081C260.267 345.29 264.362 345.145 268.401 345.654C270.417 345.936 272.41 346.359 274.367 346.919C276.301 347.56 278.181 348.357 279.987 349.302C283.557 351.161 286.745 353.675 289.386 356.713C286.088 354.655 282.619 352.885 279.017 351.422C277.246 350.724 275.435 350.132 273.594 349.647C271.76 349.188 269.9 348.842 268.023 348.612C264.241 348.124 260.418 348.047 256.619 348.382C252.736 348.731 248.888 349.402 245.116 350.386Z" fill="#222221"/>
</g>
<g style="mix-blend-mode:multiply" opacity="0.1">
<path d="M275.468 373.262C277.72 366.857 281.764 361.233 287.119 357.059C292.526 352.801 298.959 350.041 305.77 349.056C312.585 347.93 319.578 348.768 325.934 351.471C329.067 352.839 331.958 354.703 334.495 356.993C337.025 359.213 339.144 361.861 340.756 364.815C338.684 362.264 336.267 360.013 333.575 358.127C330.959 356.24 328.094 354.725 325.063 353.624C322.06 352.55 318.926 351.887 315.745 351.652C314.955 351.556 314.158 351.518 313.362 351.537H310.98C309.336 351.718 307.792 351.784 306.214 352.047L303.848 352.457C303.453 352.457 303.059 352.589 302.665 352.687L301.514 353L299.214 353.641C298.458 353.903 297.718 354.216 296.962 354.479C295.467 355.042 294.008 355.695 292.591 356.434C291.227 357.272 289.781 357.995 288.499 358.948C283.133 362.678 278.679 367.57 275.468 373.262Z" fill="#222221"/>
</g>
<g style="mix-blend-mode:multiply" opacity="0.1">
<path d="M340.756 364.781C338.684 362.23 336.267 359.979 333.575 358.093C330.962 356.206 328.097 354.695 325.063 353.607C322.068 352.522 318.938 351.853 315.762 351.618C314.966 351.523 314.164 351.485 313.362 351.503H310.98C309.336 351.684 307.792 351.717 306.214 351.996L303.848 352.407C303.453 352.407 303.059 352.539 302.665 352.637L301.514 352.966L299.197 353.607C298.458 353.837 297.718 354.166 296.962 354.445C295.675 354.9 294.423 355.45 293.216 356.088L292.591 356.384L291.096 357.238C290.203 357.742 289.336 358.29 288.499 358.882C283.13 362.62 278.675 367.525 275.468 373.228C277.715 366.825 281.76 361.205 287.119 357.041C288.069 356.246 289.068 355.51 290.11 354.839C290.767 354.428 291.441 354.018 292.114 353.64C296.366 351.327 300.986 349.77 305.77 349.038C312.583 347.895 319.58 348.728 325.934 351.438C329.06 352.807 331.946 354.671 334.479 356.959C337.017 359.175 339.143 361.823 340.756 364.781Z" fill="#222221"/>
</g>
</g>
<path d="M251.771 305.442C255.414 308.489 259.257 311.288 263.274 313.823C265.154 315.176 267.138 316.379 269.206 317.421C270.356 317.97 271.648 318.148 272.904 317.931C273.591 317.929 274.253 317.672 274.761 317.208C274.875 317.113 274.961 316.988 275.007 316.846C277.144 315.499 278.162 312.952 279.165 310.585C281.177 305.868 282.696 300.956 283.7 295.927C284.062 294.103 284.818 291.753 284.292 289.88C283.947 288.746 283.339 288.532 282.649 287.793C281.005 286.067 281.219 284.243 280.134 282.255C279.906 281.699 279.529 281.217 279.045 280.86C278.561 280.504 277.989 280.287 277.39 280.233C274.35 280.233 273.643 286.084 273.101 288.138C271.964 292.391 271.195 296.735 270.8 301.12C270.359 305.07 270.271 309.052 270.538 313.017C267.639 306.372 263.798 300.179 259.133 294.629C257.49 292.624 254.828 289.337 251.82 289.83C250.604 290.028 250.571 290.915 249.717 291.474C247.909 292.492 246.43 290.849 244.655 291.391C238 293.314 249.865 303.864 251.771 305.442Z" fill="#1047F7"/>
<g style="mix-blend-mode:multiply" opacity="0.3">
<path d="M251.771 305.442C255.414 308.489 259.257 311.288 263.274 313.823C265.154 315.176 267.138 316.379 269.206 317.421C270.356 317.97 271.648 318.148 272.904 317.931C273.591 317.929 274.253 317.672 274.761 317.208C274.875 317.113 274.961 316.988 275.007 316.846C277.144 315.499 278.162 312.952 279.165 310.585C281.177 305.868 282.696 300.956 283.7 295.927C284.062 294.103 284.818 291.753 284.292 289.88C283.947 288.746 283.339 288.532 282.649 287.793C281.005 286.067 281.219 284.243 280.134 282.255C279.906 281.699 279.529 281.217 279.045 280.86C278.561 280.504 277.989 280.287 277.39 280.233C274.35 280.233 273.643 286.084 273.101 288.138C271.964 292.391 271.195 296.735 270.8 301.12C270.359 305.07 270.271 309.052 270.538 313.017C267.639 306.372 263.798 300.179 259.133 294.629C257.49 292.624 254.828 289.337 251.82 289.83C250.604 290.028 250.571 290.915 249.717 291.474C247.909 292.492 246.43 290.849 244.655 291.391C238 293.314 249.865 303.864 251.771 305.442Z" fill="#222221"/>
</g>
<path d="M260.004 284.243C262.831 293.89 266.232 303.355 268.894 313.051C268.977 313.281 269.387 313.182 269.322 312.952C267.465 304.16 264.392 295.73 261.713 287.168C260.276 282.949 259.376 278.565 259.035 274.121C258.887 271.097 259.182 268.385 257.556 265.789C257.493 265.676 257.401 265.582 257.29 265.516C257.179 265.451 257.052 265.416 256.923 265.416C256.794 265.416 256.667 265.451 256.556 265.516C256.444 265.582 256.353 265.676 256.29 265.789C254.647 268.451 257.227 273.052 258.542 276.027C258.743 278.809 259.233 281.563 260.004 284.243Z" fill="#263238"/>
<path d="M277.62 286.166C279.362 294.875 278.508 303.864 278.015 312.656C278.015 312.7 278.032 312.741 278.063 312.772C278.094 312.803 278.135 312.82 278.179 312.82C278.223 312.82 278.264 312.803 278.295 312.772C278.326 312.741 278.343 312.7 278.343 312.656C280.282 301.153 279.773 288.006 275.5 277.062C275.122 276.092 272.542 270.061 270.801 271.606C269.88 272.444 271.277 274.301 271.721 274.893C273.367 276.853 274.908 278.899 276.339 281.022C276.914 282.879 277.308 284.523 277.62 286.166Z" fill="#263238"/>
<path d="M245.017 283.241C245.136 287.28 246.034 291.259 247.663 294.957C251.127 302.787 256.071 309.873 262.223 315.827C262.354 315.959 262.6 315.729 262.469 315.581C256.915 309.221 251.475 302.648 248.271 294.727C247.421 292.676 246.755 290.553 246.282 288.384C246.282 288.236 246.2 288.055 246.151 287.875C246.102 287.694 246.151 287.875 246.151 287.76C246.268 285.324 246.659 282.91 247.318 280.562C247.597 279.461 247.991 277.555 247.17 277.275C245.116 277.505 245.034 281.778 245.017 283.241Z" fill="#263238"/>
<path d="M244.245 311.227C252.034 317.537 262.075 320.955 270.538 326.263C272.46 327.479 274.334 328.777 276.191 330.108C276.751 330.565 277.338 330.987 277.949 331.374C278.33 331.606 278.768 331.725 279.214 331.719C279.404 331.732 279.595 331.704 279.773 331.637C280.091 331.516 280.376 331.323 280.604 331.071C280.832 330.82 280.998 330.518 281.088 330.19C281.502 328.834 281.691 327.418 281.646 326C282.041 324.537 282.55 323.091 282.928 321.81C283.476 319.914 284.068 318.041 284.703 316.189C286.067 312.229 287.792 308.449 289.518 304.686C291.112 301.506 292.22 298.105 292.805 294.596C293.051 292.723 293.413 289.206 291.983 287.694C290.553 286.183 289.436 287.152 288.696 288.418C287.957 289.683 287.661 291.113 287.053 292.345C286.034 294.235 284.818 294.218 283.273 295.237C282.333 295.984 281.562 296.923 281.012 297.992C280.463 299.06 280.147 300.233 280.085 301.433C279.855 303.339 279.74 305.278 279.658 307.201C279.395 305.393 279.066 303.618 278.705 301.86C278.064 298.705 277.571 294.81 275.78 292C275.218 291.088 274.453 290.317 273.545 289.749C271.556 288.78 269.857 287.307 268.615 285.476C267.383 283.52 265.969 280.135 263.225 280.07C260.481 280.004 260.283 282.748 259.758 284.72C258.772 288.385 255.37 289.864 255.354 294.038C255.354 297.439 257.128 300.693 258.722 303.585C259.966 305.866 261.361 308.062 262.896 310.159C260.685 308.229 258.226 306.604 255.584 305.327C254.469 304.665 253.199 304.313 251.903 304.308C250.013 304.473 249.701 305.607 247.466 304.933C245.822 304.44 242.273 302.517 240.892 304.768C239.512 307.02 242.716 309.978 244.245 311.227Z" fill="#1047F7"/>
<g style="mix-blend-mode:multiply" opacity="0.1">
<path d="M244.245 311.227C252.034 317.537 262.075 320.955 270.538 326.263C272.46 327.479 274.334 328.777 276.191 330.108C276.751 330.565 277.338 330.987 277.949 331.374C278.33 331.606 278.768 331.725 279.214 331.719C279.404 331.732 279.595 331.704 279.773 331.637C280.091 331.516 280.376 331.323 280.604 331.071C280.832 330.82 280.998 330.518 281.088 330.19C281.502 328.834 281.691 327.418 281.646 326C282.041 324.537 282.55 323.091 282.928 321.81C283.476 319.914 284.068 318.041 284.703 316.189C286.067 312.229 287.792 308.449 289.518 304.686C291.112 301.506 292.22 298.105 292.805 294.596C293.051 292.723 293.413 289.206 291.983 287.694C290.553 286.183 289.436 287.152 288.696 288.418C287.957 289.683 287.661 291.113 287.053 292.345C286.034 294.235 284.818 294.218 283.273 295.237C282.333 295.984 281.562 296.923 281.012 297.992C280.463 299.06 280.147 300.233 280.085 301.433C279.855 303.339 279.74 305.278 279.658 307.201C279.395 305.393 279.066 303.618 278.705 301.86C278.064 298.705 277.571 294.81 275.78 292C275.218 291.088 274.453 290.317 273.545 289.749C271.556 288.78 269.857 287.307 268.615 285.476C267.383 283.52 265.969 280.135 263.225 280.07C260.481 280.004 260.283 282.748 259.758 284.72C258.772 288.385 255.37 289.864 255.354 294.038C255.354 297.439 257.128 300.693 258.722 303.585C259.966 305.866 261.361 308.062 262.896 310.159C260.685 308.229 258.226 306.604 255.584 305.327C254.469 304.665 253.199 304.313 251.903 304.308C250.013 304.473 249.701 305.607 247.466 304.933C245.822 304.44 242.273 302.517 240.892 304.768C239.512 307.02 242.716 309.978 244.245 311.227Z" fill="#222221"/>
</g>
<path d="M286.511 303.93C286.511 303.93 286.511 304.045 286.511 304.028C286.511 304.012 286.445 303.897 286.511 303.93Z" fill="#F1D1C5"/>
<path d="M251.393 312.147C258.936 319.032 273.923 320.676 277.998 330.913V331.373C278.379 331.605 278.818 331.725 279.264 331.719C281.12 328.728 281.137 325.03 281.63 321.563C282.251 316.3 283.538 311.137 285.459 306.198C285.459 306.067 285.327 305.984 285.245 306.116C283.372 309.853 282.039 313.836 281.285 317.948C280.447 322.072 280.693 327.347 278.754 331.226C278.746 331.083 278.746 330.941 278.754 330.798C279.609 326.066 278.524 320.938 277.341 316.452C275.813 310.586 273.528 304.949 271.491 299.28C271.491 299.05 271.08 299.28 271.146 299.444C272.789 304.982 274.613 310.52 276.076 316.107C277.082 319.519 277.764 323.018 278.113 326.559C275.254 314.809 263.619 306.247 261.68 294.153C261.667 294.104 261.638 294.061 261.598 294.031C261.558 294 261.509 293.983 261.458 293.983C261.408 293.983 261.359 294 261.319 294.031C261.279 294.061 261.25 294.104 261.236 294.153C263.143 306.987 274.909 316.009 277.67 328.416C277.065 327.331 276.307 326.341 275.418 325.474C273.713 323.059 271.658 320.91 269.322 319.098C265.509 316.14 261.105 314.267 257.473 311.046C257.342 310.914 257.145 311.046 257.26 311.276C259.905 314.562 263.833 316.206 267.202 318.539C269.243 319.925 271.127 321.528 272.822 323.321C271.73 322.549 270.595 321.841 269.42 321.201C263.537 317.915 257.21 315.68 251.623 311.752C251.597 311.737 251.569 311.727 251.539 311.723C251.509 311.719 251.479 311.721 251.45 311.729C251.391 311.744 251.341 311.782 251.311 311.835C251.28 311.887 251.272 311.949 251.287 312.008C251.303 312.066 251.341 312.116 251.393 312.147Z" fill="white"/>
<path d="M288.253 297.455C288.261 298.787 287.945 300.101 287.333 301.284C287.333 301.383 287.119 301.284 287.152 301.284C287.534 300.067 287.777 298.81 287.875 297.537C287.908 297.258 288.236 297.225 288.253 297.455Z" fill="white"/>
<path d="M261.598 290.012C261.598 290.735 261.483 291.474 261.483 292.214C261.483 292.444 261.138 292.427 261.089 292.214C260.885 291.467 260.914 290.676 261.171 289.946C261.253 289.782 261.582 289.765 261.598 290.012Z" fill="white"/>
<path d="M248.534 308.925C248.865 309.183 249.178 309.463 249.471 309.763C249.49 309.789 249.501 309.82 249.504 309.852C249.506 309.884 249.499 309.916 249.483 309.944C249.467 309.971 249.444 309.994 249.415 310.009C249.387 310.024 249.354 310.03 249.323 310.026C248.871 309.919 248.477 309.642 248.222 309.254C248.057 309.057 248.337 308.745 248.534 308.925Z" fill="white"/>
<path d="M283.191 326.377C282.32 329.664 280.94 332.95 281.992 336.5C282.09 336.796 281.778 337.009 281.614 336.746C280.299 334.725 270.406 328.694 271.212 326.985C271.688 325.95 274.4 327.84 275.073 326.377C275.244 325.487 275.244 324.572 275.073 323.682C275.073 322.778 274.958 321.858 274.975 320.954C274.991 320.05 275.188 319.065 275.961 318.884C276.733 318.703 277.604 319.886 278.031 320.691C278.459 321.497 278.705 322.055 279.034 322.746C279.362 323.436 279.839 324.915 280.677 323.912C281.515 322.91 281.778 321.891 282.731 321.316C284.785 320.001 283.454 325.391 283.191 326.377Z" fill="#455A64"/>
<path d="M292.114 353.64C291.441 354.018 290.767 354.429 290.11 354.84L290.011 354.593C287.825 349.663 285.196 344.832 282.978 339.803C280.892 335.005 279.44 329.956 278.656 324.784C278.656 324.784 278.656 324.701 278.656 324.784C280.299 333.97 286.297 342.4 290.52 350.551C291.112 351.537 291.638 352.588 292.114 353.64Z" fill="#455A64"/>
<path d="M288.959 351.537C288.959 351.537 287.645 337.437 289.929 330.174C292.213 322.91 300.183 313.133 300.183 313.133C302.078 319.944 302.031 327.149 300.047 333.935C298.064 340.721 294.224 346.818 288.959 351.537Z" fill="#455A64"/>
<path d="M491.924 573.859C494.948 574.861 580.975 574.615 584.245 572.528C585.478 571.755 586.184 559.217 586.595 544.049C586.683 540.763 586.754 537.399 586.809 533.959C586.809 529.884 586.924 525.743 586.94 521.766C587.055 503.805 586.809 487.979 586.809 487.979H530.788V521.766V533.959L531.084 544.049C531.084 544.049 498.218 558.839 494.833 561.55C491.447 564.262 488.999 572.873 491.924 573.859Z" fill="#F7A9A0"/>
<path d="M586.677 540.746C586.677 541.864 586.677 542.965 586.595 544.033C586.184 559.2 585.478 571.739 584.245 572.511C580.959 574.598 494.948 574.845 491.924 573.842C488.901 572.84 491.563 564.196 494.882 561.534C496.673 560.104 506.928 555.191 516.064 550.935C513.287 553.432 509.491 557.228 510.543 558.576C513.304 562.224 569.012 554.583 584.114 542.439C584.904 541.783 585.764 541.215 586.677 540.746Z" fill="#263238"/>
<path d="M605.477 249.322C605.477 249.322 590.342 399.028 589.997 400.917C589.997 401.164 589.832 404.056 589.685 408.74C588.863 434.523 586.858 514.881 586.858 514.881H525.152C525.152 514.881 529.178 419.7 531.495 397.499C534.437 369.169 553.022 249.322 553.022 249.322H605.477Z" fill="#37474F"/>
<path d="M582.668 406.127C584.574 373.688 587.439 341.326 591.262 309.04C593.431 290.865 596.044 272.739 598.641 254.597C598.641 254.449 598.904 254.449 598.887 254.597C594.105 286.872 590.671 319.393 587.811 351.881C584.952 384.369 582.881 416.857 581.534 449.395C580.778 467.849 580.203 486.304 579.611 504.742C579.611 504.833 579.575 504.921 579.51 504.986C579.445 505.05 579.358 505.087 579.266 505.087C579.174 505.087 579.087 505.05 579.022 504.986C578.957 504.921 578.921 504.833 578.921 504.742C579.743 471.859 580.696 438.993 582.668 406.127Z" fill="#263238"/>
<path d="M528.997 504.923C530.641 504.709 549.407 504.43 556.621 504.43C562.784 504.43 582.125 504.923 584.245 504.906C584.41 504.906 584.393 505.071 584.245 505.103C581.715 505.498 570.704 505.794 558.889 505.794C551.691 505.794 529.934 505.284 528.997 505.169C528.972 505.16 528.95 505.143 528.935 505.121C528.92 505.099 528.912 505.073 528.912 505.046C528.912 505.019 528.92 504.993 528.935 504.971C528.95 504.949 528.972 504.932 528.997 504.923Z" fill="#263238"/>
<path d="M605.477 249.322C605.477 249.322 590.342 399.028 589.997 400.917C589.997 401.164 589.832 404.056 589.684 408.74L560.565 249.339L605.477 249.322Z" fill="#263238"/>
<path d="M609.289 574.434C612.461 574.614 695.481 552.068 698.028 549.209C699.03 548.124 696.385 535.849 692.917 521.092C692.161 517.904 691.488 514.519 690.502 511.232C689.269 507.107 687.987 503.015 686.689 499.022C681.151 481.817 675.81 467.569 675.81 467.569L623.225 481.685L632.591 512.908L636.42 525.726L639.313 535.405C639.313 535.405 611.376 558.247 608.846 561.698C606.315 565.149 606.134 574.236 609.289 574.434Z" fill="#F7A9A0"/>
<path d="M698.093 549.21C695.48 552.069 612.46 574.615 609.272 574.434C606.084 574.254 606.429 565.199 608.944 561.764C610.488 559.677 621.351 550.442 629.666 543.524C627.267 546.35 623.52 551.165 624.736 552.43C627.924 555.569 679.639 540.927 694.314 526.976C697.14 538.988 698.948 548.273 698.093 549.21Z" fill="#263238"/>
<path d="M552.973 249.322C552.973 249.322 557.049 270.931 572.134 281.941C572.134 281.941 593.382 398.764 596.061 411.976C601.254 437.661 623.126 510.969 623.126 510.969L686.196 491.71C686.196 491.71 658.983 403.234 655.335 393.949C653.346 388.888 638.097 292.064 638.409 289.78C642.123 262.123 628.993 249.174 628.993 249.174L552.973 249.322Z" fill="#37474F"/>
<path d="M602.979 254.137C604.236 258.486 606.893 262.298 610.538 264.983C614.561 267.843 619.328 269.476 624.26 269.682C625.082 269.682 625.147 271.013 624.26 271.013C614.203 271.013 604.014 264.637 602.552 254.202C602.535 253.956 602.913 253.907 602.979 254.137Z" fill="#263238"/>
<path d="M562.471 275.089C566.123 276.558 569.61 278.409 572.873 280.611C576.324 282.747 579.446 285.245 582.864 287.562C582.883 287.583 582.894 287.61 582.896 287.637C582.898 287.665 582.892 287.693 582.877 287.717C582.862 287.741 582.841 287.759 582.815 287.77C582.789 287.781 582.76 287.782 582.733 287.776C579.249 285.771 575.601 284.012 572.134 281.942C568.656 280.051 565.356 277.851 562.274 275.369C562.208 275.254 562.323 275.04 562.471 275.089Z" fill="#263238"/>
<path d="M561.058 254.104C561.6 256.405 562.258 258.672 562.866 260.973C563.474 263.274 563.884 265.311 564.509 267.431C565.076 269.487 566.216 271.339 567.796 272.772C568.683 273.511 569.652 274.169 570.589 274.859L572.232 275.943C572.232 275.648 572.085 275.335 572.002 275.023C571.805 274.152 571.624 273.265 571.427 272.394C571.016 270.455 570.606 268.499 570.228 266.544C569.455 262.715 568.732 258.837 567.763 255.041C567.763 255.01 567.775 254.981 567.796 254.959C567.818 254.938 567.847 254.926 567.878 254.926C567.908 254.926 567.937 254.938 567.959 254.959C567.981 254.981 567.993 255.01 567.993 255.041C569.127 258.787 570.359 262.485 571.378 266.264C571.871 268.105 573.761 277.291 573.859 277.948C573.958 278.606 574.04 279.296 574.089 279.97C574.212 280.653 574.245 281.349 574.188 282.04C574.188 282.221 573.958 282.204 573.876 282.04C573.568 281.414 573.342 280.751 573.202 280.068C573.005 279.411 572.824 278.753 572.676 278.08L572.528 277.357C571.592 276.831 570.704 276.141 569.833 275.565C568.962 274.99 567.927 274.333 567.023 273.643C565.357 272.362 564.115 270.61 563.457 268.614C562.803 266.467 562.336 264.268 562.06 262.041C561.65 259.428 561.321 256.799 560.828 254.202C560.795 254.005 561.025 253.94 561.058 254.104Z" fill="#263238"/>
<path d="M625.278 497.725C626.774 497.051 644.669 491.316 651.571 489.212C657.487 487.421 676.122 482.245 678.144 481.62C678.291 481.62 678.341 481.735 678.144 481.801C675.843 482.918 665.408 486.402 654.102 489.837C647.2 491.94 626.248 497.807 625.311 497.971C625.284 497.966 625.26 497.952 625.241 497.932C625.222 497.912 625.21 497.887 625.207 497.86C625.203 497.832 625.208 497.805 625.221 497.781C625.234 497.756 625.254 497.737 625.278 497.725Z" fill="#263238"/>
<path d="M659.394 432.715C656.896 425.452 654.365 418.205 651.917 410.925C649.497 403.781 647.548 396.485 646.083 389.086C643.076 374 640.479 358.799 638.031 343.599C636.804 335.93 635.637 328.217 634.531 320.461C634.005 316.649 633.484 312.814 632.969 308.958C632.476 305.244 631.868 301.547 631.671 297.8C630.915 283.963 635.845 269.338 629.831 256.126C629.157 254.652 628.331 253.253 627.366 251.952C627.284 251.837 627.086 251.952 627.169 252.083C635.188 264.621 630.784 279.855 630.554 293.675C630.701 301.248 631.443 308.797 632.772 316.254C633.868 323.813 635.002 331.362 636.174 338.899C638.507 354.028 641.082 369.125 643.897 384.189C645.128 391.596 646.807 398.923 648.926 406.127C651.21 413.39 653.856 420.555 656.321 427.753C661.382 442.296 674.397 478.695 675.038 480.536C675.038 480.684 675.35 480.618 675.285 480.454C670.355 465.861 664.422 447.341 659.394 432.715Z" fill="#263238"/>
<path d="M578.428 169.03C563.967 184.296 528.849 201.272 517.264 201.272C504.117 201.272 481.867 182.949 465.171 167.502C461.506 164.117 484.086 130.889 488.177 134.373C498.284 143.099 521.947 166.927 525.612 167.502C530.969 168.34 552.562 162.572 569.669 157.741C588.633 152.334 585.773 161.274 578.428 169.03Z" fill="#F7A9A0"/>
<path d="M476.986 170.805C481.703 170.805 493.765 142.179 491.382 137.939C490.447 136.606 489.342 135.402 488.095 134.356C485.185 128.315 483.17 121.883 482.114 115.261C481.111 107.307 480.552 95.3935 476.247 95.7715C469.986 96.2973 468.901 111.465 468.803 120.207C464.695 117.825 460.931 116.165 458.384 116.001C449.921 115.458 442.707 152.926 449.083 158.727C455.459 164.527 472.27 170.821 476.986 170.805Z" fill="#F7A9A0"/>
<path d="M439.848 165.891C439.848 165.891 449.198 167.534 453.8 162.719C468.162 147.699 451.877 100.783 443.94 102.689C436.003 104.595 428.345 134.29 428.345 134.29L439.848 165.891ZM440.209 161.306L431.253 136.656C431.253 136.656 437.597 110.807 443.759 109.328C449.921 107.849 462.246 147.124 451.055 158.808C447.473 162.604 440.209 161.273 440.209 161.273V161.306Z" fill="#37474F"/>
<path d="M361.675 142.523L364.551 157.1L352.095 164.347L361.675 142.523Z" fill="#455A64"/>
<path d="M408.921 200.055L457.776 178.43L417.795 109.641L386.572 123.79L408.921 200.055Z" fill="#455A64"/>
<path d="M417.794 109.641L420.457 102.147L380.212 119.468L386.572 123.79L417.794 109.641Z" fill="#37474F"/>
<path d="M397.779 162.013L403.021 179.925L361.495 158.842L363.91 153.764L397.779 162.013Z" fill="#37474F"/>
<path d="M357.534 149.162C352.949 144.725 343.024 144.348 342.975 148.554C342.975 150.871 346.524 151.529 350.862 149.885C352.99 149.087 355.285 148.838 357.534 149.162Z" fill="#EBEBEB"/>
<path d="M350.764 164.083C347.083 165.726 344.454 171.33 346.87 172.3C348.217 172.875 349.466 170.968 349.565 168.06C349.628 166.655 350.04 165.288 350.764 164.083Z" fill="#EBEBEB"/>
<path d="M352.177 156.343C349.771 155.867 347.292 155.894 344.896 156.423C342.5 156.951 340.24 157.971 338.258 159.416C333.082 163.163 330.042 170.92 334.972 172.842C336.878 173.647 339.573 172.021 341.66 168.964C344.832 164.248 346.639 158.184 352.177 156.343Z" fill="#EBEBEB"/>
<path d="M471.235 119.402C472.5 123.625 466.798 122.688 466.798 122.688C466.798 122.688 474.669 125.975 474.275 130.905C473.881 135.835 467.044 134.192 466.551 134.192C466.979 134.372 474.127 137.626 473.24 142.408C472.352 147.19 465.664 144.873 465.237 144.709C465.582 145.005 469.986 148.949 468.523 152.465C465.911 158.513 454.358 148.735 449.067 149.409C449.067 149.409 449.182 158.496 449.067 158.759C449.067 158.759 437.892 149.688 437.383 142.49C437.301 141.438 437.583 140.389 438.181 139.519C438.779 138.648 439.657 138.01 440.669 137.708C440.669 137.708 436.742 135.194 437.383 131.349C437.679 129.393 441.097 128.062 441.097 128.062C440.239 127.444 439.568 126.602 439.156 125.628C438.745 124.655 438.609 123.586 438.763 122.541C439.338 119.846 442.691 118.991 442.691 118.991C442.691 118.991 440.702 115.557 442.181 112.993C445.057 107.817 468.556 110.331 471.235 119.402Z" fill="#F7A9A0"/>
<path d="M443.069 118.778C443.069 118.778 442.987 118.663 443.069 118.663C451.307 117.537 459.693 118.947 467.11 122.705C467.34 122.837 467.242 123.264 466.962 123.182C459.254 120.561 451.205 119.078 443.069 118.778Z" fill="#263238"/>
<path d="M440.867 127.997C440.867 127.997 440.867 127.849 440.867 127.833C449.963 126.688 459.168 128.839 466.815 133.896C467.077 134.077 467.143 134.504 466.815 134.307C461.474 131.119 448.508 128.178 440.867 127.997Z" fill="#263238"/>
<path d="M465.648 145.202C458.121 140.272 449.79 138.366 440.998 137.577C440.883 137.577 440.9 137.413 440.998 137.396C445.435 136.607 451.022 137.692 455.295 138.908C459.283 139.962 462.926 142.042 465.861 144.939C465.993 145.054 465.812 145.301 465.648 145.202Z" fill="#263238"/>
<path d="M466.929 122.623C467.209 122.771 466.683 123.017 466.929 123.182C468.08 123.839 474.669 128.49 473.782 131.218C473.075 133.403 469.624 133.962 468.228 133.666L464.694 132.91L467.751 134.849C469.115 135.697 470.331 136.763 471.35 138.004C471.853 138.552 472.234 139.199 472.469 139.905C472.704 140.61 472.788 141.357 472.714 142.096C472.644 142.786 472.338 143.43 471.846 143.919C471.355 144.407 470.709 144.71 470.019 144.775C468.475 144.901 466.925 144.629 465.516 143.986L461.556 142.343L464.744 145.169C465.632 145.954 466.416 146.848 467.077 147.831C467.742 148.741 468.119 149.828 468.162 150.954C468.165 151.458 468.027 151.954 467.763 152.384C467.498 152.814 467.118 153.161 466.666 153.386C465.576 153.742 464.407 153.776 463.298 153.484C460.891 152.902 458.534 152.133 456.248 151.184C455.081 150.74 453.898 150.296 452.698 149.902C451.517 149.443 450.249 149.246 448.984 149.327C450.232 149.389 451.454 149.696 452.583 150.231C453.734 150.707 454.867 151.233 456.001 151.759C458.269 152.899 460.641 153.818 463.084 154.503C464.397 154.898 465.797 154.898 467.11 154.503C467.806 154.213 468.401 153.726 468.822 153.1C469.242 152.475 469.47 151.74 469.476 150.987C469.457 149.593 469.022 148.237 468.228 147.092C467.511 145.984 466.655 144.973 465.68 144.085L464.908 145.268C466.565 146.061 468.402 146.401 470.232 146.254C471.242 146.151 472.184 145.698 472.895 144.972C473.569 144.237 474.004 143.314 474.143 142.326C474.246 141.388 474.144 140.438 473.847 139.542C473.549 138.646 473.062 137.824 472.418 137.133C471.276 135.784 469.922 134.63 468.408 133.715L467.932 134.899C469.723 135.227 473.634 135.014 475.162 131.76C476.559 127.241 468.474 123.248 466.929 122.623Z" fill="#263238"/>
<path d="M466.798 122.688C467.705 122.662 468.603 122.496 469.46 122.195C469.806 122.083 470.117 121.881 470.359 121.61C470.602 121.338 470.768 121.007 470.84 120.651C470.877 119.848 470.689 119.052 470.298 118.35C469.887 117.545 469.427 116.707 468.918 115.918C469.778 116.398 470.529 117.053 471.12 117.841C471.818 118.68 472.154 119.761 472.056 120.848C471.935 121.434 471.644 121.971 471.218 122.393C470.795 122.765 470.278 123.015 469.723 123.116C468.727 123.288 467.703 123.138 466.798 122.688Z" fill="#263238"/>
<path d="M490.954 135.293L476.165 188.306C476.165 188.306 503.936 202.373 515.703 202.619C527.469 202.866 561.304 187.205 579.66 168.964C586.743 161.915 587.877 152.285 570.573 156.525C553.269 160.764 529.408 165.628 527.6 165.267C525.792 164.905 490.954 135.293 490.954 135.293Z" fill="#EBEBEB"/>
<path d="M499.319 144.134C497.988 147.848 497.018 151.726 496.032 155.522C495.046 159.318 493.962 163.147 492.976 167.025C491.037 174.683 489.295 182.406 487.619 190.13C487.628 190.155 487.645 190.177 487.667 190.192C487.689 190.207 487.715 190.216 487.742 190.216C487.769 190.216 487.795 190.207 487.817 190.192C487.839 190.177 487.856 190.155 487.865 190.13C490.116 182.538 492.286 174.929 494.258 167.271C495.244 163.448 496.18 159.614 497.068 155.768C497.955 151.923 498.974 148.061 499.582 144.166C499.584 144.149 499.583 144.132 499.578 144.115C499.574 144.098 499.566 144.082 499.555 144.069C499.544 144.055 499.531 144.043 499.516 144.035C499.501 144.026 499.484 144.021 499.467 144.019C499.45 144.016 499.432 144.018 499.415 144.022C499.399 144.027 499.383 144.035 499.369 144.045C499.355 144.056 499.344 144.069 499.335 144.085C499.327 144.1 499.321 144.116 499.319 144.134Z" fill="#A6A6A6"/>
<path d="M554.173 216.867L550.311 257.013C550.311 257.013 618.065 254.663 634.12 252.74C634.12 252.74 614.597 179.005 596.324 161.011C587.187 152.022 577.031 153.221 570.869 160.123C569.226 161.865 550.968 188.717 549.391 198.708C548.06 207.533 554.173 216.867 554.173 216.867Z" fill="#1047F7"/>
<path d="M589.734 105.664C591.87 108.803 607.975 116.428 616.388 102.673C624.802 88.9186 607.383 71.631 593.826 81.31C584.705 87.8011 585.215 98.9921 589.734 105.664Z" fill="#263238"/>
<path d="M588.468 158.513C588.025 159.844 580.712 168.11 574.5 167.255C572.479 166.959 573.531 155.867 573.531 155.867L573.432 155.029L571.904 143.296L586.184 135.868L588.238 134.898C588.238 134.898 588.452 138.185 588.666 142.162C588.666 142.359 588.666 142.54 588.666 142.737V143.394L588.764 145.218C588.764 145.695 588.764 146.139 588.764 146.632C588.764 147.125 588.764 147.601 588.764 148.094C588.906 151.57 588.807 155.051 588.468 158.513Z" fill="#F7A9A0"/>
<path d="M588.666 142.162C587.213 145.284 585.098 148.052 582.467 150.274C579.836 152.497 576.753 154.119 573.432 155.029L571.904 143.296L586.184 135.868L588.238 134.898C588.238 134.898 588.452 138.136 588.666 142.162Z" fill="#263238"/>
<path d="M558.018 123.478C554.271 143.888 566.07 148.439 570.474 149.245C574.467 149.968 588.156 151.94 594.006 132.039C599.857 112.139 591.541 103.922 582.503 101.77C573.465 99.6168 561.683 103.101 558.018 123.478Z" fill="#F7A9A0"/>
<path d="M561.568 120.306C562.029 120.291 562.49 120.252 562.948 120.19C563.459 120.208 563.961 120.058 564.378 119.763C564.489 119.646 564.558 119.496 564.576 119.336C564.594 119.176 564.559 119.014 564.476 118.876C564.269 118.624 563.998 118.434 563.691 118.324C563.385 118.214 563.054 118.189 562.734 118.251C562.064 118.27 561.425 118.54 560.943 119.007C560.845 119.124 560.782 119.266 560.763 119.417C560.743 119.568 560.768 119.722 560.834 119.859C560.9 119.996 561.005 120.112 561.135 120.191C561.265 120.27 561.415 120.31 561.568 120.306Z" fill="#263238"/>
<path d="M575.256 122.328C574.78 122.212 574.369 122.032 573.892 121.867C573.391 121.778 572.934 121.523 572.594 121.144C572.511 121.005 572.477 120.842 572.498 120.681C572.519 120.52 572.593 120.37 572.709 120.257C572.968 120.059 573.275 119.934 573.598 119.893C573.922 119.853 574.25 119.899 574.549 120.027C575.193 120.198 575.749 120.602 576.111 121.161C576.188 121.293 576.225 121.446 576.217 121.599C576.209 121.752 576.156 121.9 576.066 122.024C575.975 122.148 575.85 122.243 575.706 122.297C575.562 122.35 575.406 122.361 575.256 122.328Z" fill="#263238"/>
<path d="M571.707 126.616C571.707 126.616 571.805 126.616 571.805 126.748C571.559 128.144 571.526 129.788 572.725 130.429C571.164 130.051 571.263 127.898 571.707 126.616Z" fill="#263238"/>
<path d="M573.153 125.318C575.437 125.465 574.993 130.001 572.89 129.87C570.786 129.738 571.246 125.203 573.153 125.318Z" fill="#263238"/>
<path d="M574.024 125.646C574.402 125.942 574.747 126.435 575.223 126.534C575.7 126.632 576.226 126.205 576.637 125.778C576.637 126.649 576.144 127.421 575.207 127.536C574.27 127.651 573.81 126.747 573.679 125.893C573.712 125.762 573.876 125.531 574.024 125.646Z" fill="#263238"/>
<path d="M563.934 125.334C563.934 125.334 563.819 125.334 563.819 125.449C563.819 126.862 563.408 128.473 562.175 128.736C563.671 128.818 564.082 126.764 563.934 125.334Z" fill="#263238"/>
<path d="M562.817 123.757C560.565 123.379 559.974 127.914 562.061 128.259C564.148 128.604 564.69 124.069 562.817 123.757Z" fill="#263238"/>
<path d="M561.83 123.937C561.436 124.118 561.025 124.512 560.598 124.496C560.17 124.479 559.792 123.921 559.546 123.411C559.546 123.411 559.546 123.411 559.464 123.411C559.332 124.266 559.464 125.202 560.302 125.482C561.14 125.761 561.699 125.054 561.945 124.216C562.077 124.118 561.978 123.855 561.83 123.937Z" fill="#263238"/>
<path d="M570.951 137.545C570.605 137.857 570.244 138.3 569.718 138.317C569.195 138.281 568.686 138.135 568.223 137.89C568.413 138.176 568.676 138.407 568.985 138.557C569.294 138.707 569.638 138.772 569.981 138.744C570.271 138.684 570.536 138.54 570.744 138.33C570.952 138.119 571.092 137.851 571.148 137.561C571.148 137.561 571 137.512 570.951 137.545Z" fill="#263238"/>
<path d="M565.626 131.842C565.626 131.842 565.117 133.896 565.002 134.898C565.002 134.898 565.232 135.063 565.561 135.112C566.392 135.358 567.275 135.37 568.113 135.147C568.951 134.924 569.711 134.474 570.31 133.847C570.392 133.847 570.31 133.65 570.178 133.699C568.826 134.423 567.276 134.694 565.758 134.471C565.758 134.192 566.76 130.954 566.596 130.922C565.82 130.909 565.046 131.003 564.295 131.201C565.248 126.863 566.892 122.705 567.779 118.383C567.78 118.352 567.772 118.321 567.754 118.296C567.737 118.27 567.712 118.25 567.683 118.239C567.654 118.228 567.622 118.227 567.592 118.235C567.562 118.243 567.536 118.26 567.516 118.285C565.628 122.677 564.18 127.246 563.194 131.924C563.096 132.483 565.216 131.957 565.626 131.842Z" fill="#263238"/>
<path d="M565.725 134.356C566.139 135.263 566.785 136.046 567.598 136.624C568.044 136.925 568.573 137.08 569.11 137.067C570.293 137.067 570.556 136.016 570.556 135.079C570.541 134.591 570.475 134.107 570.359 133.633C568.93 134.358 567.307 134.611 565.725 134.356Z" fill="#263238"/>
<path d="M567.599 136.624C568.044 136.925 568.573 137.08 569.11 137.067C570.294 137.067 570.557 136.016 570.557 135.079C569.962 134.967 569.346 135.058 568.81 135.338C568.273 135.619 567.847 136.071 567.599 136.624Z" fill="#FF9ABB"/>
<path d="M593.727 132.236C592.426 131.542 591.328 130.52 590.541 129.273C589.755 128.025 589.307 126.594 589.241 125.121C585.708 123.428 582.69 120.825 580.498 117.578C580.63 118.005 581.517 121.095 582.01 122.656C578.401 121.988 575.006 120.46 572.113 118.2C569.221 115.939 566.917 113.015 565.396 109.674C562.823 111.877 560.783 114.636 559.431 117.742C559.431 117.742 559.678 109.805 563.901 104.596C578.116 86.8974 593.743 105.828 593.743 105.828C593.743 105.828 598.986 108.803 599.692 114.045C601.073 124.48 593.727 132.236 593.727 132.236Z" fill="#263238"/>
<path d="M572.183 120.19C574.229 121.405 576.445 122.307 578.757 122.869C575.13 121.753 571.89 119.64 569.406 116.772C568.35 115.546 567.45 114.194 566.728 112.746C565.886 111.222 565.355 109.547 565.166 107.816C565.166 107.685 564.969 107.701 564.969 107.816C564.964 109.577 565.253 111.327 565.824 112.993C566.468 114.613 567.398 116.104 568.568 117.397C569.626 118.529 570.838 119.508 572.167 120.305" fill="#263238"/>
<path d="M590.391 131.25C590.391 131.25 595.518 125.235 598.279 127.125C601.04 129.015 596.767 138.037 593.218 138.99C592.769 139.142 592.294 139.202 591.822 139.166C591.35 139.131 590.89 139 590.469 138.782C590.049 138.564 589.677 138.264 589.375 137.898C589.074 137.533 588.849 137.111 588.715 136.656L590.391 131.25Z" fill="#F7A9A0"/>
<path d="M596.997 129.673C596.997 129.673 596.997 129.673 596.997 129.771C595.839 130.218 594.788 130.902 593.911 131.779C593.033 132.657 592.349 133.708 591.903 134.866C592.067 134.639 592.278 134.45 592.521 134.311C592.764 134.173 593.035 134.088 593.314 134.063C593.593 134.039 593.874 134.074 594.138 134.167C594.402 134.26 594.643 134.409 594.844 134.603C594.844 134.603 594.844 134.751 594.762 134.734C594.352 134.559 593.898 134.516 593.462 134.61C593.027 134.704 592.631 134.931 592.33 135.26C591.823 135.809 591.382 136.416 591.015 137.068C590.884 137.265 590.506 137.068 590.605 136.871C590.884 133.748 593.661 129.673 596.997 129.673Z" fill="#263238"/>
<path d="M588.945 155.916C588.945 155.916 583.21 183.721 586.579 222.142C592.922 294.595 610.9 401.64 615.222 408.739C621.795 419.634 690.715 426.635 690.715 426.635C676.457 366.018 658.55 306.318 637.094 247.859C637.094 247.859 622.962 207.072 617.95 196.194C599.101 155.44 588.945 155.916 588.945 155.916Z" fill="#EBEBEB"/>
<path d="M653.494 307.281C647.17 309.227 640.733 310.786 634.218 311.948C625.098 313.427 615.879 314.002 613.266 314.38C613.02 314.38 613.036 315.202 613.266 315.202C616.734 315.087 627.382 314.446 634.35 313.329C640.721 312.235 646.984 310.585 653.067 308.399C653.346 310.338 653.577 311.85 653.889 313.772C647.661 316.057 635.582 320.214 615.09 320.871C614.909 320.066 614.318 315.744 613.956 314.594C613.956 314.413 613.151 314.512 613.168 314.791C613.168 315.974 614.384 326.393 614.712 328.496C615.518 333.689 618.213 348.216 619.954 350.911C623.915 356.86 636.388 354.855 639.888 354.329C643.388 353.803 654.562 352.341 658.096 347.592C659.969 345.044 658.539 333.098 656.452 322.663C655.499 317.733 653.807 307.331 653.494 307.281ZM640.611 352.916C629.551 354.707 624.375 353.179 622.304 351.141C619.872 348.775 619.018 344.108 617.966 338.964C617.194 334.922 615.287 322.17 615.222 321.907C628.473 322.128 641.646 319.825 654.037 315.12C655.039 321.151 655.828 325.966 656.814 332.013C657.52 336.384 658.457 343.746 656.617 346.655C655.105 349.087 648.597 351.618 640.611 352.916Z" fill="#A6A6A6"/>
<path d="M635.796 310.814C637.85 316.796 635.598 326.393 640.315 326.245C644.521 326.113 645.425 319.31 645.425 319.31C645.425 319.31 646.871 327.313 651.341 325.883C655.811 324.454 655.302 316.796 655.302 316.796C655.302 316.796 656.205 323.501 660.56 321.726C664.915 319.951 665.671 313.394 665.671 313.394C665.671 313.394 667.314 315.136 669.779 312.523C673.394 308.777 671.85 297.635 669.681 291.998C667.511 286.362 655.334 267.349 653.412 264.506L617.177 278.211C617.177 278.211 616.454 290.01 616.799 296.041C617.144 302.072 623.849 321.611 628.811 320.28C633.774 318.949 628.812 305.227 628.335 301.595C627.858 297.964 628.614 297.241 630.093 298.72C631.063 299.673 634.892 308.119 635.796 310.814Z" fill="#F7A9A0"/>
<path d="M645.311 319.031C645.919 309.467 644.522 305.178 640.003 296.912C639.921 296.748 640.134 296.584 640.249 296.732C645.409 304.439 647.923 309.566 645.771 319.081C645.672 319.458 645.278 319.393 645.311 319.031Z" fill="#263238"/>
<path d="M655.186 317.157C654.94 307.182 653.543 302.515 649.369 293.51C649.369 293.379 649.533 293.264 649.599 293.395C654.365 301.891 656.748 307.067 655.679 317.075C655.63 317.519 655.186 317.617 655.186 317.157Z" fill="#263238"/>
<path d="M665.589 313.295C664.669 303.649 663.272 298.506 658.178 290.289C658.159 290.27 658.145 290.247 658.136 290.222C658.128 290.197 658.125 290.17 658.127 290.144C658.13 290.118 658.139 290.092 658.153 290.07C658.166 290.047 658.185 290.027 658.207 290.013C658.229 289.998 658.254 289.988 658.28 289.984C658.307 289.98 658.333 289.982 658.359 289.99C658.384 289.997 658.408 290.011 658.427 290.028C658.447 290.046 658.463 290.068 658.473 290.092C664.488 297.98 666.263 304.438 665.885 313.295C665.852 313.838 665.655 313.903 665.589 313.295Z" fill="#263238"/>
<path d="M601.681 167.698C623.175 196.867 651.423 258.458 655.121 268.318C657.635 274.99 619.527 288.547 618.492 283.749C617.193 277.619 597.046 200.68 591.673 172.168C588.715 156.458 596.373 160.484 601.681 167.698Z" fill="#F7A9A0"/>
<path d="M610.604 273.018L655.203 261.86C655.203 261.86 614.367 182.439 603.094 167.633C591.591 152.58 589.52 161.059 591.591 177.197C593.941 194.616 610.604 273.018 610.604 273.018Z" fill="#EBEBEB"/>
<path d="M649.139 257.013C646.099 257.374 643.075 258.179 640.085 258.82C637.094 259.461 634.07 260.135 631.079 260.825C625.081 262.206 619.083 263.619 613.167 265.295C613.142 265.304 613.12 265.321 613.105 265.343C613.09 265.365 613.082 265.391 613.082 265.418C613.082 265.445 613.09 265.471 613.105 265.493C613.12 265.515 613.142 265.532 613.167 265.541C619.231 264.49 625.246 263.142 631.244 261.762C634.185 261.088 637.11 260.381 640.035 259.675C642.96 258.968 646.198 258.327 649.156 257.325C649.188 257.313 649.216 257.29 649.235 257.261C649.254 257.232 649.263 257.198 649.261 257.163C649.259 257.128 649.246 257.095 649.225 257.068C649.203 257.041 649.173 257.022 649.139 257.013Z" fill="#A6A6A6"/>
<path d="M615.403 271.803C614.564 271.803 611.163 272.181 611.031 272.23C611.031 271.803 608.813 257.605 608.221 254.663C607.071 248.912 605.838 243.16 604.639 237.425C602.19 225.807 599.594 214.221 597.063 202.62C595.634 196.046 594.155 189.588 592.561 183.097C592.561 182.949 592.298 183.015 592.314 183.179C592.988 186.975 593.694 190.755 594.434 194.551C593.727 192.908 592.988 191.264 592.347 189.621C592.347 189.473 592.035 189.621 592.1 189.621C592.774 191.264 593.349 193.088 593.974 194.814C594.302 195.734 594.664 196.638 595.042 197.525C596.389 204.378 597.803 211.214 599.2 218.05C601.566 229.685 603.899 241.336 606.463 252.938C607.17 256.126 610.259 273.15 610.374 273.117C610.489 273.085 614.729 272.181 615.518 271.852C615.534 271.951 615.534 271.786 615.403 271.803Z" fill="#A6A6A6"/>
<path d="M573.054 158.085C573.054 158.085 560.812 174.222 557.213 225.017C553.318 279.821 545.003 398.567 544.362 402.774C543.721 406.98 526.565 416.807 526.565 416.807L552.973 217.047C552.973 217.047 548.043 207.187 548.93 199.94C550.015 190.277 568.321 160.238 573.054 158.085Z" fill="#EBEBEB"/>
<path d="M560.154 175.636C558.922 177.279 557.821 179.202 556.736 181.042L556.933 180.385C557.246 179.432 557.492 178.446 557.722 177.46C557.722 177.46 557.64 177.361 557.607 177.46C557.262 178.413 556.917 179.382 556.654 180.352L556.161 181.995C555.504 183.08 553.4 187.698 552.874 188.799C552.792 188.947 553.039 189.078 553.105 188.93C553.63 187.796 556.243 183.441 556.818 182.357C557.952 180.106 559.234 177.92 560.368 175.652L560.154 175.636Z" fill="#A6A6A6"/>
<path d="M573.054 158.085C569.011 163.355 564.942 168.608 560.844 173.844V173.417L564.016 176.26L564.262 176.49L564.032 176.753L557.459 184.214L557.558 183.967C557.558 190.803 557.558 197.656 557.558 204.492C557.558 211.328 557.393 218.181 557.213 225.017C557.015 218.181 556.917 211.328 556.851 204.492C556.785 197.656 556.769 190.803 556.851 183.967V183.819L556.933 183.704L563.506 176.293V176.769L560.401 173.877L560.187 173.68L560.368 173.45C564.564 168.29 568.792 163.168 573.054 158.085Z" fill="#A6A6A6"/>
<path d="M588.912 155.867C591.103 162.177 593.261 168.504 595.387 174.847L595.502 175.176H595.157L589.011 176.376L589.241 176.063L592.724 184.658V184.773C591.854 191.346 590.851 198.084 589.898 204.723C588.945 211.362 587.877 218.017 586.759 224.656C587.515 217.973 588.331 211.301 589.208 204.641C590.112 197.969 590.983 191.313 591.969 184.658V184.855L588.55 176.244L588.386 175.833H588.813L594.976 174.699L594.729 175.11C592.79 168.669 590.884 162.26 588.912 155.867Z" fill="#A6A6A6"/>
<path d="M693.936 622.222H501.242V646.756H693.936V622.222Z" fill="#455A64"/>
<path d="M658.835 574.434H492.499V598.968H658.835V574.434Z" fill="#455A64"/>
<path d="M501.735 665.901H487.602L502.178 598.969H530.903L501.735 665.901Z" fill="#455A64"/>
<path d="M502.195 598.952H530.904L523.607 615.697H498.547L502.195 598.952Z" fill="#37474F"/>
<path d="M649.632 665.901H663.765L649.172 598.969H620.447L649.632 665.901Z" fill="#455A64"/>
<path d="M652.82 615.697H627.744L620.447 598.952H649.172L652.82 615.697Z" fill="#37474F"/>
</svg>
