<svg width="705" height="700" viewBox="0 0 705 700" fill="none" xmlns="http://www.w3.org/2000/svg">
<path d="M396.11 350.186H625.664V0.0168152H396.11L396.11 350.186Z" fill="#EBEBEB"/>
<path d="M516.202 169.778H613.23V14.0203H516.202V169.778Z" fill="white"/>
<path d="M408.544 169.778H505.572V14.0203H408.544V169.778Z" fill="white"/>
<path d="M516.202 336.148H613.23V180.39H516.202V336.148Z" fill="white"/>
<path d="M408.544 336.148H505.572V180.39H408.544V336.148Z" fill="white"/>
<path d="M484.669 0H396.11V500.967H447.366L411.581 246.054L484.669 0Z" fill="#DBDBDB"/>
<path d="M469.315 13.5479L455.278 71.7715L440.988 129.945L412.408 246.257L412.424 245.97L425.652 367.53L432.249 428.318L438.592 489.123L431.422 428.402L424.521 367.648L410.754 246.156L410.737 246.004L410.771 245.852L439.908 129.675L454.485 71.5859L469.315 13.5479Z" fill="#EBEBEB"/>
<path d="M401.374 23.8223L401.796 74.0657L402.032 124.309L402.217 224.796L402.032 325.266L401.796 375.509L401.374 425.753L400.969 375.509L400.733 325.266L400.53 224.796L400.733 124.309L400.969 74.0657L401.374 23.8223Z" fill="#EBEBEB"/>
<path d="M417.925 33.2373L415.175 86.6357L412.189 140.034L406.182 246.797C406.773 266.638 407.144 286.462 407.633 306.286L409.051 365.775L410.451 425.264L411.564 484.77L409.675 425.231L407.988 365.758L406.3 306.286C405.761 286.445 405.103 266.621 404.613 246.797L411.159 140.051L414.449 86.6863L417.925 33.2373Z" fill="#EBEBEB"/>
<path d="M429.448 476.992L423.661 419.359L418.11 361.692C414.517 323.242 410.771 284.808 407.312 246.341V246.24V246.122L423.728 156.349L432.046 111.487L440.482 66.6426L432.738 111.622L424.859 156.551L408.865 246.392V246.173C412.526 284.623 415.934 323.09 419.477 361.557L424.538 419.258L429.448 476.992Z" fill="#EBEBEB"/>
<path d="M396.11 253.528H416.103V241.853H396.11V253.528Z" fill="#DBDBDB"/>
<path d="M571.574 500.983H625.664L625.664 0.0168762H571.574L571.574 500.983Z" fill="#DBDBDB"/>
<path d="M581.832 23.8223L582.237 77.9968L582.389 132.154L582.675 240.487L582.389 348.819L582.237 402.993L581.832 457.151L581.427 402.993L581.275 348.819L580.988 240.487L581.275 132.154L581.427 77.9968L581.832 23.8223Z" fill="#EBEBEB"/>
<path d="M606.667 36.3916L607.072 84.7454L607.308 133.116L607.51 229.841L607.308 326.582L607.072 374.936L606.667 423.306L606.262 374.936L606.026 326.582L605.823 229.841L606.026 133.116L606.262 84.7454L606.667 36.3916Z" fill="#EBEBEB"/>
<path d="M594.249 47.7969L594.654 104.435L594.806 161.072L595.093 274.331L594.806 387.607L594.654 444.227L594.249 500.865L593.828 444.227L593.693 387.607L593.406 274.331L593.693 161.072L593.844 104.435L594.249 47.7969Z" fill="#EBEBEB"/>
<path d="M615.912 26.6738L616.317 85.9604L616.469 145.23L616.739 263.77L616.469 382.326L616.317 441.596L615.912 500.865L615.49 441.596L615.338 382.326L615.068 263.77L615.338 145.23L615.49 85.9604L615.912 26.6738Z" fill="#EBEBEB"/>
<path d="M26.0664 126.976L307.197 126.976V114.642L26.0664 114.642V126.976Z" fill="#EBEBEB"/>
<path d="M291.422 126.992H279.089V167.771H291.422V126.992Z" fill="#EBEBEB"/>
<path d="M291.422 126.992H279.089V139.595H291.422V126.992Z" fill="#DBDBDB"/>
<path d="M54.1407 126.992H41.8076V167.771H54.1407V126.992Z" fill="#EBEBEB"/>
<path d="M54.1407 126.992H41.8076V139.595H54.1407V126.992Z" fill="#DBDBDB"/>
<path d="M254.709 114.659V36.0879H234.919V114.659H254.709Z" fill="#C7C7C7"/>
<path d="M254.709 40.525V31.8867H234.919V40.525H254.709Z" fill="#DBDBDB"/>
<path d="M254.709 54.7818V51.5762H234.919V54.7818H254.709Z" fill="#DBDBDB"/>
<path d="M254.709 104.35V95.7119H232.456V104.35H254.709Z" fill="#DBDBDB"/>
<path d="M234.919 114.659V22.9961H221.085V114.659H234.919Z" fill="#DBDBDB"/>
<path d="M232.22 66.8618V31.6172H223.919V66.8618H232.22Z" fill="#EBEBEB"/>
<path d="M132.448 114.691L197.636 50.25L187.91 40.4112L122.722 104.852L132.448 114.691Z" fill="#C7C7C7"/>
<path d="M145.76 97.5707L170.825 72.793L164.99 66.8897L139.925 91.6675L145.76 97.5707Z" fill="#DBDBDB"/>
<path d="M221.102 114.659V45.0469H197.616V114.659H221.102Z" fill="#A6A6A6"/>
<path d="M221.102 107.303V100.808H197.616V107.303H221.102Z" fill="#C7C7C7"/>
<path d="M221.102 96.5393V94.0254H197.616V96.5393H221.102Z" fill="#C7C7C7"/>
<path d="M270.94 114.676V49.248H254.726V114.676H270.94Z" fill="#A6A6A6"/>
<path d="M270.94 107.724V101.634H254.726V107.724H270.94Z" fill="#C7C7C7"/>
<path d="M270.94 68.8191V62.7285H254.726V68.8191H270.94Z" fill="#C7C7C7"/>
<path d="M270.923 75.365V73.0029H254.709V75.365H270.923Z" fill="#C7C7C7"/>
<path d="M82.907 30.8415C96.7416 44.3387 99.0699 65.3606 96.1511 83.7169C96.1511 84.1218 95.4257 84.0206 95.4257 83.6156C95.4257 79.4484 95.5606 75.298 95.5438 71.1813C95.5438 70.9789 95.4088 70.8102 95.3244 70.6246C91.5963 68.1683 88.5124 64.853 86.3319 60.9572C84.0205 56.4187 83.1094 51.2898 81.3548 46.532C81.1861 46.0765 81.6754 46.2114 81.979 46.4476C90.4148 52.6564 93.0805 59.3375 95.4763 68.2625C95.421 63.5929 94.9296 58.9386 94.0085 54.3604C92.4017 45.7309 88.4299 37.7172 82.5358 31.2127C82.5042 31.161 82.4908 31.1001 82.498 31.0399C82.5051 30.9797 82.5323 30.9237 82.5752 30.8808C82.618 30.838 82.6741 30.8108 82.7342 30.8036C82.7944 30.7965 82.8553 30.8098 82.907 30.8415Z" fill="#A6A6A6"/>
<path d="M80.3083 32.427C77.9125 32.427 76.4278 36.3075 74.5719 37.4885C74.3766 37.647 74.1501 37.7626 73.9071 37.8277C73.6641 37.8927 73.4101 37.9058 73.1617 37.866C72.9133 37.8262 72.6761 37.7344 72.4656 37.5967C72.255 37.4589 72.076 37.2783 71.94 37.0667C70.101 34.5022 72.6317 31.3472 74.9937 29.5757C73.4294 30.4525 71.7784 31.165 70.0672 31.7015C69.8335 31.7837 69.5846 31.8135 69.3381 31.7886C69.0916 31.7637 68.8536 31.6849 68.641 31.5577C68.4284 31.4304 68.2464 31.2579 68.108 31.0525C67.9696 30.847 67.8782 30.6135 67.8402 30.3687C67.0304 26.8763 71.417 25.3072 74.437 25.3072C72.9692 24.2949 68.785 21.5449 71.0627 20.2458C73.3403 18.9467 78.2331 22.8271 79.819 24.1262C82.181 26.0327 84.9817 28.9009 85.0998 31.8871C85.1841 35.2952 82.1304 33.1525 80.3083 32.427Z" fill="#DBDBDB"/>
<path d="M80.9833 33.0178C77.9464 31.6175 72.092 33.6252 71.6028 32.4611C70.5905 30.1159 75.2639 28.5131 77.7946 28.1926C75.4663 27.5683 71.046 26.5054 71.1472 24.329C71.3159 21.5958 77.9802 23.941 81.3545 26.5223C85.5893 29.7785 85.5724 32.9335 84.8638 33.5577C83.9021 34.4182 81.4895 33.2372 80.9833 33.0178Z" fill="#EBEBEB"/>
<path d="M114.423 29.5082C100.082 42.5162 96.961 63.3694 99.2386 81.81C99.2386 82.2318 99.9472 82.1474 99.9641 81.81C100.116 77.6427 100.15 73.4924 100.318 69.3757L100.555 68.8189C104.374 66.5185 107.58 63.3292 109.901 59.5227C112.398 55.0686 113.495 49.9734 115.435 45.3C115.621 44.8445 115.132 44.9626 114.811 45.1819C106.156 51.0701 103.22 57.65 100.47 66.4738C100.7 61.8102 101.367 57.1784 102.461 52.6391C104.403 44.0676 108.691 36.205 114.845 29.93C114.901 29.8741 114.932 29.7982 114.932 29.7191C114.932 29.64 114.901 29.5642 114.845 29.5082C114.789 29.4523 114.713 29.4209 114.634 29.4209C114.555 29.4209 114.479 29.4523 114.423 29.5082Z" fill="#A6A6A6"/>
<path d="M116.954 31.1782C119.332 31.3469 120.682 35.2105 122.487 36.3915C122.677 36.5579 122.899 36.6824 123.139 36.757C123.38 36.8316 123.634 36.8545 123.884 36.8242C124.134 36.794 124.375 36.7112 124.59 36.5814C124.806 36.4516 124.992 36.2776 125.136 36.0709C127.076 33.5739 124.664 30.3177 122.369 28.4619C123.895 29.4455 125.518 30.2708 127.211 30.9251C127.442 31.0164 127.69 31.0557 127.937 31.0403C128.185 31.0249 128.426 30.9551 128.644 30.8359C128.861 30.7167 129.05 30.551 129.196 30.3506C129.342 30.1502 129.442 29.9201 129.489 29.6766C130.417 26.2011 126.115 24.4802 123.095 24.2946C124.579 23.3329 128.865 20.7347 126.705 19.2331C124.546 17.7316 119.484 21.5783 117.797 22.8436C115.368 24.6658 112.466 27.4158 112.246 30.3852C111.976 33.8607 115.098 31.8362 116.954 31.1782Z" fill="#DBDBDB"/>
<path d="M116.245 31.7019C119.349 30.4365 125.102 32.6467 125.642 31.5163C126.739 29.2218 122.133 27.4334 119.636 27.0285C121.981 26.4886 126.384 25.645 126.384 23.4011C126.384 20.6679 119.636 22.76 116.11 25.2232C111.757 28.3107 111.656 31.4488 112.33 32.1068C113.275 33.0347 115.739 31.955 116.245 31.7019Z" fill="#EBEBEB"/>
<path d="M99.7443 63.8751C98.7839 70.8337 97.2949 77.709 95.2902 84.4415C95.2633 84.5735 95.1852 84.6894 95.0728 84.7637C94.9605 84.8381 94.8232 84.8648 94.6912 84.8379C94.5592 84.8111 94.4433 84.7329 94.369 84.6206C94.2946 84.5083 94.2679 84.371 94.2948 84.239C95.2396 77.8953 96.9605 71.6697 97.8884 65.3429C98.9248 58.9252 99.2979 52.4179 99.0019 45.9237C98.3945 35.2441 95.4926 23.8726 88.5247 15.555C88.3729 15.3525 88.6934 15.0826 88.8452 15.2513C102.815 31.5323 100.655 51.4914 100.655 53.2797C102.629 46.5311 104.671 38.8208 112.145 31.9541C112.465 31.6504 112.718 31.8023 112.668 32.3084C111.335 44.7934 107.859 51.3226 100.605 58.0038C100.318 59.944 100.065 61.918 99.7443 63.8751Z" fill="#A6A6A6"/>
<path d="M88.39 17.3945C85.8762 16.281 82.4175 19.4697 79.9542 19.689C79.6776 19.7553 79.3902 19.7636 79.1102 19.7132C78.8302 19.6629 78.5637 19.555 78.3275 19.3965C78.0913 19.2379 77.8905 19.0322 77.7378 18.7921C77.5851 18.5521 77.4839 18.283 77.4404 18.0019C76.8161 14.4251 81.034 12.4005 84.3746 11.7594C82.2657 11.6244 80.1905 12.1981 78.1153 11.6413C77.8294 11.6081 77.5542 11.5132 77.3085 11.3634C77.0629 11.2135 76.8526 11.0122 76.6923 10.7732C76.5319 10.5343 76.4253 10.2635 76.3797 9.97933C76.334 9.69521 76.3506 9.40457 76.4281 9.12745C77.356 5.09516 82.6874 5.75315 85.8593 7.11974C84.847 5.43259 81.8945 0.371125 84.8807 0.0843085C87.867 -0.202508 91.022 6.36052 92.0174 8.52008C93.5021 11.6919 94.9868 16.0617 93.5865 19.2166C92.0174 22.8271 89.9253 19.0648 88.39 17.3945Z" fill="#DBDBDB"/>
<path d="M88.8116 18.3398C86.3484 15.3873 79.2792 14.5099 79.3467 13.059C79.4816 10.1233 85.1336 10.7982 87.9174 11.743C85.8253 9.92088 81.7087 6.68155 82.9741 4.38702C84.5262 1.63696 90.2457 7.42389 92.4559 11.8105C95.2228 17.3275 93.6031 20.5668 92.5571 20.8705C91.123 21.2754 89.2165 18.8459 88.8116 18.3398Z" fill="#EBEBEB"/>
<path d="M108.94 67.6209L115.098 114.659H77.626C78.4021 110.491 85.37 67.5703 85.37 67.5703L108.94 67.6209Z" fill="#DBDBDB"/>
<path d="M0 593.17L88.0863 592.765L176.156 592.613L352.311 592.326L528.467 592.613L616.553 592.765L704.623 593.17L616.553 593.575L528.467 593.726L352.311 594.013L176.156 593.726L88.0863 593.575L0 593.17Z" fill="#263238"/>
<path d="M352.311 699.999C538.744 699.999 689.877 679.227 689.877 653.603C689.877 627.979 538.744 607.206 352.311 607.206C165.879 607.206 14.7456 627.979 14.7456 653.603C14.7456 679.227 165.879 699.999 352.311 699.999Z" fill="#EBEBEB"/>
<path d="M683.989 580.161H569.549V593.169H683.989V580.161Z" fill="#455A64"/>
<path d="M633.56 176.459H619.995V580.144H633.56V176.459Z" fill="#455A64"/>
<path d="M633.56 176.459H619.995V245.16H633.56V176.459Z" fill="#263238"/>
<path d="M698.549 216.242H554.989L565.416 181.959L565.804 180.745L596.156 81H657.383L687.768 180.761V180.795L688.089 181.926L698.549 216.242Z" fill="#1047F7"/>
<path d="M601.234 104.047C601.23 104.3 601.127 104.543 600.948 104.722C600.768 104.901 600.526 105.004 600.272 105.008C600.017 105.008 599.773 104.907 599.592 104.727C599.412 104.546 599.311 104.302 599.311 104.047C599.308 103.92 599.332 103.794 599.379 103.676C599.427 103.558 599.498 103.451 599.587 103.362C599.677 103.272 599.784 103.201 599.902 103.154C600.019 103.106 600.145 103.083 600.272 103.085C600.527 103.085 600.772 103.186 600.952 103.367C601.133 103.547 601.234 103.792 601.234 104.047Z" fill="white"/>
<path d="M618.882 104.047C618.851 104.282 618.735 104.498 618.557 104.654C618.378 104.811 618.149 104.897 617.911 104.897C617.674 104.897 617.445 104.811 617.267 104.654C617.088 104.498 616.973 104.282 616.941 104.047C616.973 103.811 617.088 103.595 617.267 103.439C617.445 103.283 617.674 103.196 617.911 103.196C618.149 103.196 618.378 103.283 618.557 103.439C618.735 103.595 618.851 103.811 618.882 104.047Z" fill="white"/>
<path d="M636.58 104.047C636.58 104.302 636.479 104.546 636.298 104.727C636.118 104.907 635.873 105.008 635.618 105.008C635.365 105.004 635.123 104.901 634.943 104.722C634.764 104.543 634.661 104.3 634.657 104.047C634.657 103.792 634.758 103.547 634.938 103.367C635.119 103.186 635.363 103.085 635.618 103.085C635.745 103.083 635.871 103.106 635.989 103.154C636.107 103.201 636.214 103.272 636.304 103.362C636.393 103.451 636.464 103.558 636.512 103.676C636.559 103.794 636.582 103.92 636.58 104.047Z" fill="white"/>
<path d="M654.312 104.047C654.307 104.3 654.205 104.543 654.025 104.722C653.846 104.901 653.604 105.004 653.35 105.008C653.095 105.008 652.85 104.907 652.67 104.727C652.49 104.546 652.388 104.302 652.388 104.047C652.386 103.92 652.409 103.794 652.457 103.676C652.504 103.558 652.575 103.451 652.665 103.362C652.755 103.272 652.862 103.201 652.979 103.154C653.097 103.106 653.223 103.083 653.35 103.085C653.605 103.085 653.85 103.186 654.03 103.367C654.21 103.547 654.312 103.792 654.312 104.047Z" fill="white"/>
<path d="M610.075 91.663C610.078 91.8579 610.023 92.0494 609.917 92.2129C609.811 92.3764 609.658 92.5044 609.478 92.5805C609.299 92.6567 609.101 92.6775 608.909 92.6403C608.718 92.6031 608.542 92.5095 608.404 92.3717C608.266 92.2338 608.173 92.0579 608.136 91.8665C608.098 91.6751 608.119 91.477 608.195 91.2975C608.272 91.1181 608.4 90.9654 608.563 90.8592C608.727 90.7529 608.918 90.698 609.113 90.7013C609.368 90.7013 609.613 90.8026 609.793 90.983C609.973 91.1633 610.075 91.4079 610.075 91.663Z" fill="white"/>
<path d="M627.739 91.663C627.742 91.7899 627.718 91.916 627.671 92.0337C627.623 92.1514 627.552 92.2583 627.463 92.3481C627.373 92.4379 627.266 92.5086 627.148 92.5561C627.031 92.6037 626.905 92.627 626.778 92.6247C626.523 92.6247 626.278 92.5234 626.098 92.343C625.917 92.1627 625.816 91.9181 625.816 91.663C625.816 91.4079 625.917 91.1633 626.098 90.983C626.278 90.8026 626.523 90.7013 626.778 90.7013C626.905 90.699 627.031 90.7223 627.148 90.7699C627.266 90.8174 627.373 90.8881 627.463 90.9779C627.552 91.0677 627.623 91.1746 627.671 91.2923C627.718 91.41 627.742 91.5361 627.739 91.663Z" fill="white"/>
<path d="M645.42 91.663C645.42 91.8532 645.364 92.0391 645.258 92.1973C645.153 92.3554 645.003 92.4787 644.827 92.5515C644.651 92.6243 644.458 92.6433 644.271 92.6062C644.085 92.5691 643.913 92.4775 643.779 92.343C643.644 92.2085 643.553 92.0372 643.516 91.8506C643.478 91.6641 643.497 91.4707 643.57 91.295C643.643 91.1193 643.766 90.9691 643.924 90.8634C644.083 90.7577 644.269 90.7013 644.459 90.7013C644.586 90.699 644.712 90.7223 644.829 90.7699C644.947 90.8174 645.054 90.8881 645.144 90.9779C645.234 91.0677 645.304 91.1746 645.352 91.2923C645.399 91.41 645.423 91.5361 645.42 91.663Z" fill="white"/>
<path d="M583.553 129.742C583.553 129.932 583.496 130.118 583.391 130.276C583.285 130.434 583.135 130.558 582.959 130.63C582.783 130.703 582.59 130.722 582.403 130.685C582.217 130.648 582.046 130.556 581.911 130.422C581.777 130.287 581.685 130.116 581.648 129.93C581.611 129.743 581.63 129.55 581.703 129.374C581.775 129.198 581.899 129.048 582.057 128.942C582.215 128.837 582.401 128.78 582.591 128.78C582.846 128.78 583.091 128.882 583.271 129.062C583.451 129.242 583.553 129.487 583.553 129.742Z" fill="white"/>
<path d="M601.234 129.742C601.234 129.999 601.133 130.245 600.953 130.428C600.773 130.611 600.529 130.716 600.272 130.721C600.078 130.724 599.887 130.669 599.724 130.564C599.561 130.459 599.433 130.307 599.356 130.128C599.28 129.95 599.258 129.753 599.294 129.562C599.329 129.371 599.421 129.195 599.557 129.056C599.694 128.918 599.868 128.823 600.058 128.784C600.248 128.745 600.446 128.763 600.626 128.837C600.806 128.91 600.96 129.035 601.068 129.197C601.176 129.358 601.234 129.548 601.234 129.742Z" fill="white"/>
<path d="M618.882 129.742C618.885 129.936 618.831 130.127 618.725 130.29C618.62 130.453 618.468 130.581 618.29 130.658C618.111 130.735 617.914 130.756 617.723 130.721C617.532 130.685 617.356 130.593 617.217 130.457C617.079 130.321 616.984 130.146 616.945 129.956C616.906 129.766 616.924 129.568 616.998 129.388C617.071 129.209 617.197 129.055 617.358 128.946C617.519 128.838 617.709 128.78 617.903 128.78C618.16 128.78 618.406 128.881 618.589 129.061C618.772 129.241 618.877 129.485 618.882 129.742Z" fill="white"/>
<path d="M636.58 129.742C636.582 129.87 636.559 129.997 636.511 130.115C636.464 130.234 636.393 130.342 636.304 130.433C636.214 130.524 636.108 130.596 635.99 130.646C635.872 130.695 635.746 130.721 635.618 130.721C635.383 130.689 635.167 130.574 635.01 130.395C634.854 130.217 634.768 129.988 634.768 129.75C634.768 129.513 634.854 129.284 635.01 129.105C635.167 128.927 635.383 128.811 635.618 128.78C635.873 128.78 636.118 128.882 636.298 129.062C636.478 129.242 636.58 129.487 636.58 129.742Z" fill="white"/>
<path d="M654.312 129.742C654.312 129.999 654.211 130.245 654.031 130.428C653.852 130.611 653.607 130.716 653.35 130.721C653.156 130.724 652.965 130.669 652.802 130.564C652.639 130.459 652.511 130.307 652.434 130.128C652.358 129.95 652.336 129.753 652.372 129.562C652.408 129.371 652.499 129.195 652.636 129.056C652.772 128.918 652.946 128.823 653.136 128.784C653.327 128.745 653.524 128.763 653.704 128.837C653.884 128.91 654.038 129.035 654.146 129.197C654.254 129.358 654.312 129.548 654.312 129.742Z" fill="white"/>
<path d="M671.943 129.742C671.946 129.937 671.891 130.129 671.785 130.292C671.679 130.456 671.526 130.584 671.347 130.66C671.167 130.736 670.969 130.757 670.778 130.719C670.586 130.682 670.41 130.589 670.272 130.451C670.135 130.313 670.041 130.137 670.004 129.946C669.967 129.754 669.987 129.556 670.064 129.377C670.14 129.197 670.268 129.045 670.431 128.938C670.595 128.832 670.786 128.777 670.981 128.78C671.235 128.785 671.477 128.887 671.656 129.067C671.836 129.246 671.938 129.488 671.943 129.742Z" fill="white"/>
<path d="M592.393 117.375C592.389 117.629 592.286 117.871 592.107 118.05C591.927 118.23 591.685 118.332 591.431 118.337C591.196 118.306 590.98 118.19 590.824 118.012C590.667 117.833 590.581 117.604 590.581 117.367C590.581 117.129 590.667 116.9 590.824 116.722C590.98 116.543 591.196 116.428 591.431 116.396C591.688 116.401 591.933 116.506 592.112 116.689C592.292 116.872 592.393 117.118 592.393 117.375Z" fill="white"/>
<path d="M610.075 117.375C610.075 117.569 610.017 117.759 609.909 117.921C609.8 118.082 609.646 118.207 609.467 118.281C609.287 118.354 609.089 118.373 608.899 118.334C608.709 118.294 608.534 118.199 608.398 118.061C608.262 117.922 608.17 117.746 608.134 117.556C608.099 117.365 608.12 117.167 608.197 116.989C608.274 116.81 608.402 116.659 608.565 116.553C608.728 116.448 608.919 116.393 609.113 116.397C609.37 116.401 609.614 116.506 609.794 116.689C609.974 116.872 610.075 117.119 610.075 117.375Z" fill="white"/>
<path d="M627.739 117.375C627.739 117.63 627.638 117.875 627.458 118.055C627.277 118.236 627.033 118.337 626.778 118.337C626.583 118.34 626.391 118.285 626.228 118.179C626.064 118.073 625.936 117.92 625.86 117.741C625.784 117.561 625.763 117.363 625.8 117.172C625.837 116.98 625.931 116.804 626.069 116.666C626.207 116.529 626.383 116.435 626.574 116.398C626.765 116.361 626.963 116.381 627.143 116.458C627.322 116.534 627.475 116.662 627.581 116.825C627.688 116.989 627.743 117.18 627.739 117.375Z" fill="white"/>
<path d="M645.421 117.375C645.417 117.564 645.358 117.749 645.251 117.905C645.143 118.061 644.992 118.181 644.816 118.251C644.64 118.322 644.447 118.338 644.261 118.299C644.076 118.26 643.906 118.167 643.773 118.032C643.641 117.897 643.551 117.726 643.515 117.54C643.479 117.354 643.499 117.161 643.572 116.986C643.646 116.812 643.769 116.662 643.927 116.557C644.084 116.453 644.27 116.397 644.459 116.396C644.587 116.396 644.713 116.422 644.831 116.471C644.949 116.521 645.056 116.593 645.145 116.684C645.235 116.775 645.305 116.883 645.352 117.002C645.4 117.12 645.423 117.247 645.421 117.375Z" fill="white"/>
<path d="M663.102 117.375C663.098 117.629 662.995 117.871 662.816 118.05C662.636 118.23 662.394 118.332 662.14 118.337C661.905 118.306 661.689 118.19 661.533 118.012C661.376 117.833 661.29 117.604 661.29 117.367C661.29 117.129 661.376 116.9 661.533 116.722C661.689 116.543 661.905 116.428 662.14 116.396C662.397 116.401 662.642 116.506 662.821 116.689C663.001 116.872 663.102 117.118 663.102 117.375Z" fill="white"/>
<path d="M583.553 155.454C583.553 155.709 583.451 155.954 583.271 156.134C583.091 156.314 582.846 156.416 582.591 156.416C582.336 156.416 582.091 156.314 581.911 156.134C581.731 155.954 581.629 155.709 581.629 155.454C581.629 155.199 581.731 154.954 581.911 154.774C582.091 154.594 582.336 154.492 582.591 154.492C582.846 154.492 583.091 154.594 583.271 154.774C583.451 154.954 583.553 155.199 583.553 155.454Z" fill="white"/>
<path d="M601.234 155.454C601.23 155.708 601.127 155.95 600.948 156.129C600.768 156.309 600.526 156.411 600.272 156.416C600.017 156.416 599.773 156.314 599.592 156.134C599.412 155.954 599.311 155.709 599.311 155.454C599.308 155.327 599.332 155.201 599.379 155.083C599.427 154.966 599.498 154.859 599.587 154.769C599.677 154.679 599.784 154.608 599.902 154.561C600.019 154.513 600.145 154.49 600.272 154.492C600.527 154.492 600.772 154.594 600.952 154.774C601.133 154.954 601.234 155.199 601.234 155.454Z" fill="white"/>
<path d="M618.882 155.455C618.851 155.69 618.735 155.906 618.557 156.062C618.378 156.219 618.149 156.305 617.911 156.305C617.674 156.305 617.445 156.219 617.267 156.062C617.088 155.906 616.973 155.69 616.941 155.455C616.973 155.22 617.088 155.004 617.267 154.847C617.445 154.691 617.674 154.604 617.911 154.604C618.149 154.604 618.378 154.691 618.557 154.847C618.735 155.004 618.851 155.22 618.882 155.455Z" fill="white"/>
<path d="M636.58 155.454C636.58 155.709 636.479 155.954 636.298 156.134C636.118 156.314 635.873 156.416 635.618 156.416C635.365 156.411 635.123 156.309 634.943 156.129C634.764 155.95 634.661 155.708 634.657 155.454C634.657 155.199 634.758 154.954 634.938 154.774C635.119 154.594 635.363 154.492 635.618 154.492C635.745 154.49 635.871 154.513 635.989 154.561C636.107 154.608 636.214 154.679 636.304 154.769C636.393 154.859 636.464 154.966 636.512 155.083C636.559 155.201 636.582 155.327 636.58 155.454Z" fill="white"/>
<path d="M654.312 155.454C654.307 155.708 654.205 155.95 654.025 156.129C653.846 156.309 653.604 156.411 653.35 156.416C653.095 156.416 652.85 156.314 652.67 156.134C652.49 155.954 652.388 155.709 652.388 155.454C652.386 155.327 652.409 155.201 652.457 155.083C652.504 154.966 652.575 154.859 652.665 154.769C652.755 154.679 652.862 154.608 652.979 154.561C653.097 154.513 653.223 154.49 653.35 154.492C653.605 154.492 653.85 154.594 654.03 154.774C654.21 154.954 654.312 155.199 654.312 155.454Z" fill="white"/>
<path d="M671.943 155.454C671.946 155.649 671.891 155.84 671.785 156.004C671.679 156.167 671.526 156.295 671.347 156.372C671.167 156.448 670.969 156.469 670.778 156.431C670.586 156.394 670.41 156.301 670.272 156.163C670.135 156.025 670.041 155.849 670.004 155.658C669.967 155.466 669.987 155.268 670.064 155.089C670.14 154.909 670.268 154.756 670.431 154.65C670.595 154.544 670.786 154.489 670.981 154.492C671.236 154.492 671.481 154.594 671.661 154.774C671.841 154.954 671.943 155.199 671.943 155.454Z" fill="white"/>
<path d="M592.393 143.053C592.393 143.309 592.292 143.553 592.111 143.733C591.931 143.914 591.686 144.015 591.431 144.015C591.305 144.015 591.18 143.99 591.063 143.942C590.947 143.894 590.841 143.823 590.751 143.733C590.662 143.644 590.591 143.538 590.543 143.421C590.495 143.305 590.47 143.18 590.47 143.053C590.47 142.927 590.495 142.802 590.543 142.685C590.591 142.569 590.662 142.463 590.751 142.373C590.841 142.284 590.947 142.213 591.063 142.165C591.18 142.117 591.305 142.092 591.431 142.092C591.686 142.092 591.931 142.193 592.111 142.373C592.292 142.554 592.393 142.798 592.393 143.053Z" fill="white"/>
<path d="M610.075 143.054C610.078 143.249 610.023 143.44 609.917 143.604C609.811 143.767 609.658 143.895 609.478 143.971C609.299 144.047 609.101 144.068 608.909 144.031C608.718 143.994 608.542 143.9 608.404 143.762C608.266 143.624 608.173 143.449 608.136 143.257C608.098 143.066 608.119 142.868 608.195 142.688C608.272 142.509 608.4 142.356 608.563 142.25C608.727 142.144 608.918 142.089 609.113 142.092C609.368 142.092 609.613 142.193 609.793 142.374C609.973 142.554 610.075 142.799 610.075 143.054Z" fill="white"/>
<path d="M626.778 144.032C627.309 144.032 627.739 143.601 627.739 143.07C627.739 142.539 627.309 142.108 626.778 142.108C626.246 142.108 625.816 142.539 625.816 143.07C625.816 143.601 626.246 144.032 626.778 144.032Z" fill="white"/>
<path d="M645.42 143.054C645.42 143.244 645.364 143.43 645.258 143.588C645.153 143.746 645.003 143.869 644.827 143.942C644.651 144.015 644.458 144.034 644.271 143.997C644.085 143.96 643.913 143.868 643.779 143.734C643.644 143.599 643.553 143.428 643.516 143.241C643.478 143.055 643.497 142.861 643.57 142.686C643.643 142.51 643.766 142.36 643.924 142.254C644.083 142.148 644.269 142.092 644.459 142.092C644.586 142.09 644.712 142.113 644.829 142.161C644.947 142.208 645.054 142.279 645.144 142.369C645.234 142.458 645.304 142.565 645.352 142.683C645.399 142.801 645.423 142.927 645.42 143.054Z" fill="white"/>
<path d="M662.14 144.032C662.672 144.032 663.102 143.601 663.102 143.07C663.102 142.539 662.672 142.108 662.14 142.108C661.609 142.108 661.179 142.539 661.179 143.07C661.179 143.601 661.609 144.032 662.14 144.032Z" fill="white"/>
<path d="M565.888 181.149C565.89 181.314 565.848 181.477 565.764 181.619C565.681 181.762 565.561 181.879 565.416 181.959L565.804 180.744C565.864 180.87 565.893 181.009 565.888 181.149Z" fill="white"/>
<path d="M583.553 181.149C583.553 181.339 583.496 181.525 583.391 181.683C583.285 181.842 583.135 181.965 582.959 182.038C582.783 182.11 582.59 182.13 582.403 182.092C582.217 182.055 582.046 181.964 581.911 181.829C581.777 181.695 581.685 181.523 581.648 181.337C581.611 181.15 581.63 180.957 581.703 180.781C581.775 180.605 581.899 180.455 582.057 180.35C582.215 180.244 582.401 180.187 582.591 180.188C582.846 180.188 583.091 180.289 583.271 180.469C583.451 180.65 583.553 180.894 583.553 181.149Z" fill="white"/>
<path d="M601.234 181.149C601.234 181.406 601.133 181.652 600.953 181.835C600.773 182.018 600.529 182.123 600.272 182.128C600.078 182.131 599.887 182.077 599.724 181.971C599.561 181.866 599.433 181.714 599.356 181.536C599.28 181.357 599.258 181.16 599.294 180.969C599.329 180.778 599.421 180.602 599.557 180.464C599.694 180.325 599.868 180.23 600.058 180.191C600.248 180.152 600.446 180.17 600.626 180.244C600.806 180.317 600.96 180.443 601.068 180.604C601.176 180.765 601.234 180.955 601.234 181.149Z" fill="white"/>
<path d="M618.882 181.149C618.885 181.343 618.831 181.534 618.725 181.697C618.62 181.86 618.468 181.989 618.29 182.065C618.111 182.142 617.914 182.164 617.723 182.128C617.532 182.092 617.356 182 617.217 181.864C617.079 181.728 616.984 181.554 616.945 181.363C616.906 181.173 616.924 180.975 616.998 180.796C617.071 180.616 617.197 180.462 617.358 180.354C617.519 180.245 617.709 180.188 617.903 180.188C618.16 180.187 618.406 180.288 618.589 180.468C618.772 180.648 618.877 180.893 618.882 181.149Z" fill="white"/>
<path d="M636.58 181.149C636.582 181.277 636.559 181.404 636.511 181.522C636.464 181.641 636.393 181.749 636.304 181.84C636.214 181.931 636.108 182.004 635.99 182.053C635.872 182.102 635.746 182.128 635.618 182.128C635.383 182.097 635.167 181.981 635.01 181.803C634.854 181.624 634.768 181.395 634.768 181.158C634.768 180.92 634.854 180.691 635.01 180.513C635.167 180.334 635.383 180.219 635.618 180.188C635.873 180.188 636.118 180.289 636.298 180.469C636.478 180.65 636.58 180.894 636.58 181.149Z" fill="white"/>
<path d="M654.312 181.149C654.312 181.406 654.211 181.652 654.031 181.835C653.852 182.018 653.607 182.123 653.35 182.128C653.156 182.131 652.965 182.077 652.802 181.971C652.639 181.866 652.511 181.714 652.434 181.536C652.358 181.357 652.336 181.16 652.372 180.969C652.408 180.778 652.499 180.602 652.636 180.464C652.772 180.325 652.946 180.23 653.136 180.191C653.327 180.152 653.524 180.17 653.704 180.244C653.884 180.317 654.038 180.443 654.146 180.604C654.254 180.765 654.312 180.955 654.312 181.149Z" fill="white"/>
<path d="M670.981 182.111C671.512 182.111 671.942 181.68 671.942 181.149C671.942 180.618 671.512 180.188 670.981 180.188C670.45 180.188 670.019 180.618 670.019 181.149C670.019 181.68 670.45 182.111 670.981 182.111Z" fill="white"/>
<path d="M688.055 181.858C687.932 181.77 687.832 181.653 687.765 181.518C687.697 181.383 687.664 181.233 687.667 181.082C687.64 180.965 687.64 180.844 687.667 180.728L688.055 181.858Z" fill="white"/>
<path d="M574.712 168.782C574.712 169.037 574.611 169.282 574.43 169.462C574.25 169.643 574.005 169.744 573.75 169.744C573.555 169.747 573.364 169.692 573.2 169.586C573.037 169.48 572.909 169.327 572.833 169.148C572.756 168.968 572.736 168.77 572.773 168.579C572.81 168.387 572.904 168.212 573.041 168.074C573.179 167.936 573.355 167.842 573.547 167.805C573.738 167.768 573.936 167.789 574.116 167.865C574.295 167.941 574.448 168.069 574.554 168.232C574.66 168.396 574.715 168.587 574.712 168.782Z" fill="white"/>
<path d="M592.393 168.782C592.389 169.036 592.286 169.278 592.107 169.457C591.927 169.637 591.685 169.74 591.431 169.744C591.196 169.713 590.98 169.597 590.824 169.419C590.667 169.24 590.581 169.011 590.581 168.774C590.581 168.536 590.667 168.307 590.824 168.129C590.98 167.95 591.196 167.835 591.431 167.804C591.688 167.808 591.933 167.913 592.112 168.096C592.292 168.279 592.393 168.526 592.393 168.782Z" fill="white"/>
<path d="M610.075 168.782C610.075 168.977 610.017 169.167 609.909 169.328C609.8 169.489 609.646 169.614 609.467 169.688C609.287 169.762 609.089 169.78 608.899 169.741C608.709 169.702 608.534 169.607 608.398 169.468C608.262 169.33 608.17 169.154 608.134 168.963C608.099 168.772 608.12 168.575 608.197 168.396C608.274 168.218 608.402 168.066 608.565 167.961C608.728 167.855 608.919 167.801 609.113 167.804C609.37 167.808 609.614 167.913 609.794 168.096C609.974 168.279 610.075 168.526 610.075 168.782Z" fill="white"/>
<path d="M627.739 168.782C627.739 169.037 627.638 169.282 627.458 169.462C627.277 169.643 627.033 169.744 626.778 169.744C626.583 169.747 626.391 169.692 626.228 169.586C626.064 169.48 625.936 169.327 625.86 169.148C625.784 168.968 625.763 168.77 625.8 168.579C625.837 168.387 625.931 168.212 626.069 168.074C626.207 167.936 626.383 167.842 626.574 167.805C626.765 167.768 626.963 167.789 627.143 167.865C627.322 167.941 627.475 168.069 627.581 168.232C627.688 168.396 627.743 168.587 627.739 168.782Z" fill="white"/>
<path d="M645.421 168.782C645.417 168.972 645.358 169.156 645.251 169.312C645.143 169.468 644.992 169.588 644.816 169.659C644.64 169.729 644.447 169.745 644.261 169.706C644.076 169.668 643.906 169.575 643.773 169.439C643.641 169.304 643.551 169.133 643.515 168.947C643.479 168.761 643.499 168.568 643.572 168.394C643.646 168.219 643.769 168.07 643.927 167.965C644.084 167.86 644.27 167.804 644.459 167.804C644.587 167.804 644.713 167.829 644.831 167.878C644.949 167.928 645.056 168 645.145 168.091C645.235 168.182 645.305 168.29 645.352 168.409C645.4 168.528 645.423 168.655 645.421 168.782Z" fill="white"/>
<path d="M663.102 168.782C663.098 169.036 662.995 169.278 662.816 169.457C662.636 169.637 662.394 169.74 662.14 169.744C661.905 169.713 661.689 169.597 661.533 169.419C661.376 169.24 661.29 169.011 661.29 168.774C661.29 168.536 661.376 168.307 661.533 168.129C661.689 167.95 661.905 167.835 662.14 167.804C662.397 167.808 662.642 167.913 662.821 168.096C663.001 168.279 663.102 168.526 663.102 168.782Z" fill="white"/>
<path d="M680.783 168.782C680.783 168.976 680.726 169.165 680.618 169.326C680.511 169.487 680.358 169.612 680.179 169.686C680 169.76 679.804 169.78 679.614 169.742C679.424 169.704 679.25 169.611 679.113 169.474C678.976 169.337 678.883 169.163 678.845 168.973C678.807 168.783 678.827 168.587 678.901 168.408C678.975 168.229 679.1 168.076 679.261 167.969C679.422 167.861 679.611 167.804 679.805 167.804C680.064 167.804 680.313 167.907 680.497 168.09C680.68 168.274 680.783 168.523 680.783 168.782Z" fill="white"/>
<path d="M565.871 206.861C565.871 207.116 565.77 207.361 565.589 207.541C565.409 207.722 565.164 207.823 564.909 207.823C564.656 207.819 564.414 207.716 564.234 207.536C564.055 207.357 563.952 207.115 563.948 206.861C563.948 206.606 564.049 206.362 564.229 206.181C564.41 206.001 564.654 205.9 564.909 205.9C565.036 205.897 565.162 205.921 565.28 205.968C565.398 206.016 565.505 206.086 565.595 206.176C565.684 206.266 565.755 206.373 565.803 206.491C565.85 206.608 565.873 206.734 565.871 206.861Z" fill="white"/>
<path d="M583.553 206.862C583.553 207.117 583.451 207.362 583.271 207.542C583.091 207.722 582.846 207.824 582.591 207.824C582.336 207.824 582.091 207.722 581.911 207.542C581.731 207.362 581.629 207.117 581.629 206.862C581.629 206.607 581.731 206.362 581.911 206.182C582.091 206.002 582.336 205.9 582.591 205.9C582.846 205.9 583.091 206.002 583.271 206.182C583.451 206.362 583.553 206.607 583.553 206.862Z" fill="white"/>
<path d="M601.234 206.861C601.23 207.115 601.127 207.357 600.948 207.536C600.768 207.716 600.526 207.819 600.272 207.823C600.017 207.823 599.773 207.722 599.592 207.541C599.412 207.361 599.311 207.116 599.311 206.861C599.308 206.734 599.332 206.608 599.379 206.491C599.427 206.373 599.498 206.266 599.587 206.176C599.677 206.086 599.784 206.016 599.902 205.968C600.019 205.921 600.145 205.897 600.272 205.9C600.527 205.9 600.772 206.001 600.952 206.181C601.133 206.362 601.234 206.606 601.234 206.861Z" fill="white"/>
<path d="M618.882 206.862C618.851 207.097 618.735 207.313 618.557 207.47C618.378 207.626 618.149 207.712 617.911 207.712C617.674 207.712 617.445 207.626 617.267 207.47C617.088 207.313 616.973 207.097 616.941 206.862C616.973 206.627 617.088 206.411 617.267 206.254C617.445 206.098 617.674 206.012 617.911 206.012C618.149 206.012 618.378 206.098 618.557 206.254C618.735 206.411 618.851 206.627 618.882 206.862Z" fill="white"/>
<path d="M636.58 206.861C636.58 207.116 636.479 207.361 636.298 207.541C636.118 207.722 635.873 207.823 635.618 207.823C635.365 207.819 635.123 207.716 634.943 207.536C634.764 207.357 634.661 207.115 634.657 206.861C634.657 206.606 634.758 206.362 634.938 206.181C635.119 206.001 635.363 205.9 635.618 205.9C635.745 205.897 635.871 205.921 635.989 205.968C636.107 206.016 636.214 206.086 636.304 206.176C636.393 206.266 636.464 206.373 636.512 206.491C636.559 206.608 636.582 206.734 636.58 206.861Z" fill="white"/>
<path d="M654.312 206.861C654.307 207.115 654.205 207.357 654.025 207.536C653.846 207.716 653.604 207.819 653.35 207.823C653.095 207.823 652.85 207.722 652.67 207.541C652.49 207.361 652.388 207.116 652.388 206.861C652.386 206.734 652.409 206.608 652.457 206.491C652.504 206.373 652.575 206.266 652.665 206.176C652.755 206.086 652.862 206.016 652.979 205.968C653.097 205.921 653.223 205.897 653.35 205.9C653.605 205.9 653.85 206.001 654.03 206.181C654.21 206.362 654.312 206.606 654.312 206.861Z" fill="white"/>
<path d="M670.981 207.824C671.512 207.824 671.942 207.393 671.942 206.862C671.942 206.331 671.512 205.9 670.981 205.9C670.45 205.9 670.019 206.331 670.019 206.862C670.019 207.393 670.45 207.824 670.981 207.824Z" fill="white"/>
<path d="M689.624 206.862C689.593 207.097 689.477 207.313 689.299 207.47C689.12 207.626 688.891 207.712 688.654 207.712C688.416 207.712 688.187 207.626 688.009 207.47C687.83 207.313 687.715 207.097 687.684 206.862C687.715 206.627 687.83 206.411 688.009 206.254C688.187 206.098 688.416 206.012 688.654 206.012C688.891 206.012 689.12 206.098 689.299 206.254C689.477 206.411 689.593 206.627 689.624 206.862Z" fill="white"/>
<path d="M574.712 194.478C574.714 194.605 574.691 194.731 574.643 194.849C574.596 194.967 574.525 195.074 574.435 195.164C574.346 195.253 574.239 195.324 574.121 195.372C574.003 195.419 573.877 195.442 573.75 195.44C573.495 195.44 573.251 195.339 573.07 195.158C572.89 194.978 572.789 194.733 572.789 194.478C572.789 194.223 572.89 193.979 573.07 193.798C573.251 193.618 573.495 193.517 573.75 193.517C573.877 193.514 574.003 193.538 574.121 193.585C574.239 193.633 574.346 193.704 574.435 193.793C574.525 193.883 574.596 193.99 574.643 194.108C574.691 194.225 574.714 194.352 574.712 194.478Z" fill="white"/>
<path d="M592.393 194.478C592.393 194.733 592.292 194.978 592.111 195.158C591.931 195.339 591.686 195.44 591.431 195.44C591.176 195.44 590.932 195.339 590.751 195.158C590.571 194.978 590.47 194.733 590.47 194.478C590.47 194.223 590.571 193.979 590.751 193.798C590.932 193.618 591.176 193.517 591.431 193.517C591.686 193.517 591.931 193.618 592.111 193.798C592.292 193.979 592.393 194.223 592.393 194.478Z" fill="white"/>
<path d="M610.075 194.478C610.078 194.673 610.023 194.865 609.917 195.028C609.811 195.192 609.658 195.32 609.478 195.396C609.299 195.472 609.101 195.493 608.909 195.456C608.718 195.418 608.542 195.325 608.404 195.187C608.266 195.049 608.173 194.873 608.136 194.682C608.098 194.491 608.119 194.292 608.195 194.113C608.272 193.933 608.4 193.781 608.563 193.675C608.727 193.568 608.918 193.513 609.113 193.517C609.368 193.517 609.613 193.618 609.793 193.798C609.973 193.979 610.075 194.223 610.075 194.478Z" fill="white"/>
<path d="M627.739 194.478C627.742 194.605 627.718 194.731 627.671 194.849C627.623 194.967 627.552 195.074 627.463 195.164C627.373 195.253 627.266 195.324 627.148 195.372C627.031 195.419 626.905 195.442 626.778 195.44C626.523 195.44 626.278 195.339 626.098 195.158C625.917 194.978 625.816 194.733 625.816 194.478C625.816 194.223 625.917 193.979 626.098 193.798C626.278 193.618 626.523 193.517 626.778 193.517C626.905 193.514 627.031 193.538 627.148 193.585C627.266 193.633 627.373 193.704 627.463 193.793C627.552 193.883 627.623 193.99 627.671 194.108C627.718 194.225 627.742 194.352 627.739 194.478Z" fill="white"/>
<path d="M645.42 194.478C645.42 194.669 645.364 194.855 645.258 195.013C645.153 195.171 645.003 195.294 644.827 195.367C644.651 195.44 644.458 195.459 644.271 195.422C644.085 195.385 643.913 195.293 643.779 195.158C643.644 195.024 643.553 194.853 643.516 194.666C643.478 194.479 643.497 194.286 643.57 194.11C643.643 193.935 643.766 193.784 643.924 193.679C644.083 193.573 644.269 193.517 644.459 193.517C644.586 193.514 644.712 193.538 644.829 193.585C644.947 193.633 645.054 193.704 645.144 193.793C645.234 193.883 645.304 193.99 645.352 194.108C645.399 194.225 645.423 194.352 645.42 194.478Z" fill="white"/>
<path d="M663.102 194.478C663.102 194.733 663.001 194.978 662.82 195.158C662.64 195.339 662.395 195.44 662.14 195.44C661.885 195.44 661.641 195.339 661.46 195.158C661.28 194.978 661.179 194.733 661.179 194.478C661.179 194.223 661.28 193.979 661.46 193.798C661.641 193.618 661.885 193.517 662.14 193.517C662.395 193.517 662.64 193.618 662.82 193.798C663.001 193.979 663.102 194.223 663.102 194.478Z" fill="white"/>
<path d="M680.783 194.478C680.786 194.673 680.732 194.863 680.626 195.027C680.521 195.19 680.369 195.318 680.191 195.394C680.012 195.471 679.815 195.493 679.624 195.457C679.433 195.421 679.257 195.329 679.119 195.193C678.98 195.057 678.885 194.883 678.846 194.693C678.807 194.502 678.825 194.305 678.899 194.125C678.973 193.945 679.098 193.791 679.259 193.683C679.42 193.575 679.61 193.517 679.805 193.517C679.932 193.515 680.059 193.538 680.178 193.585C680.296 193.632 680.404 193.703 680.496 193.792C680.587 193.882 680.659 193.989 680.708 194.106C680.758 194.224 680.783 194.351 680.783 194.478Z" fill="white"/>
<path d="M103.473 630.54L426.495 631.94C505.015 570.275 513.114 478.932 457.117 423.577C423.205 390.087 380.166 396.836 339.168 391.521H339.05C324.777 389.665 310.773 386.341 297.479 379.323C255.3 357.052 231.477 304.531 195.963 260.345C191.542 254.811 186.908 249.44 182.06 244.232C152.873 213.054 94.7503 212.042 64.3477 255.874C-12.8901 367.209 22.4895 532.989 103.473 630.54Z" fill="#C7C7C7"/>
<path d="M96.3028 375.713C104.739 508.239 257.814 557.706 353.408 518.007C436.534 483.488 409.32 404.698 339.169 391.471H339.05C324.777 389.615 310.774 386.291 297.479 379.273C255.3 357.002 231.478 304.481 195.963 260.295C143.104 232.845 90.0941 278.668 96.3028 375.713Z" fill="#A6A6A6"/>
<path d="M635.754 648.457C630.22 648.592 486.963 604.304 482.577 599.175C482.104 598.601 484.5 592.426 488.195 575.555C488.364 574.745 486.221 570.595 482.712 564.588C469.518 542.014 437.159 492.817 437.159 492.817L529.463 456.965L573.616 548.442L585.088 572.231C585.088 572.231 632.885 620.281 637.12 626.439C641.355 632.598 641.338 648.339 635.754 648.457Z" fill="#AD6359"/>
<path d="M635.754 648.473C630.237 648.592 486.963 604.321 482.577 599.175C482.104 598.618 484.5 592.426 488.212 575.555C512.085 585.374 612.268 626.169 619.27 621.108C623.437 618.122 619.945 610.192 615.66 603.308C625.968 613.954 635.349 623.824 637.103 626.405C641.355 632.597 641.338 648.338 635.754 648.473Z" fill="#263238"/>
<path d="M560.017 508.238L544.731 516.673L495.365 544.09L468.371 559.072C468.371 559.072 421.856 466.278 399.468 441.224C398.216 439.784 396.851 438.447 395.385 437.225C393.072 436.183 390.593 435.56 388.062 435.386C358.048 431.742 257.004 441.561 187.19 437.074L219.803 393.494L234.211 374.193C312.866 365.218 409.388 333.061 452.95 354.909C500.174 378.58 560.017 508.238 560.017 508.238Z" fill="#37474F"/>
<path d="M544.647 497.609C529.21 505.657 533.546 503.143 518.193 511.359C510.685 515.375 472.893 535.469 466.515 540.378C466.485 540.404 466.464 540.439 466.458 540.479C466.451 540.518 466.458 540.559 466.478 540.593C466.499 540.627 466.53 540.653 466.568 540.667C466.606 540.68 466.647 540.679 466.684 540.665C474.259 537.949 511.596 517.045 518.986 512.894C534.17 504.459 529.733 506.686 544.833 498.031C544.876 497.999 544.907 497.953 544.921 497.901C544.935 497.85 544.93 497.795 544.909 497.746C544.887 497.696 544.85 497.656 544.802 497.631C544.755 497.607 544.7 497.599 544.647 497.609Z" fill="#263238"/>
<path d="M495.366 544.14L468.371 559.122C468.371 559.122 421.856 466.329 399.468 441.274L495.366 544.14Z" fill="#263238"/>
<path d="M477.802 546.401C466.313 527.201 414.011 432.366 403.568 428.637C394.086 425.263 204.483 429.177 201.649 429.211C201.446 429.211 201.43 429.515 201.649 429.515C224.105 429.228 397.359 428.603 402.42 430.561C412.695 434.627 475.255 544.629 476.79 546.974C477.161 547.531 478.207 547.058 477.802 546.401Z" fill="#263238"/>
<path d="M134.028 397.374C134.028 397.374 128.039 454.569 157.058 482.997C191.779 517.044 420.911 508.44 456.426 496.967C491.941 485.494 493.054 428.182 454.233 414.904C417.301 402.284 253.58 395.012 249.699 393.477C245.819 391.942 234.515 373.805 234.515 373.805L134.028 397.374Z" fill="#37474F"/>
<path d="M182.533 395.772C182.533 395.502 182.061 395.586 182.061 395.772C182.052 403.179 179.436 410.346 174.671 416.018C169.239 422.294 161.174 425.82 153.953 429.515C153.244 429.869 153.784 430.949 154.51 430.747C158.971 429.369 163.27 427.514 167.332 425.213C171.059 423.217 174.343 420.485 176.983 417.182C179.336 414.19 181.044 410.743 181.999 407.058C182.955 403.373 183.136 399.53 182.533 395.772Z" fill="#263238"/>
<path d="M248.13 389.901C246.443 387.842 244.756 385.869 243.069 383.861C239.07 379.086 235.055 374.312 230.854 369.722C230.466 369.284 229.689 369.891 230.044 370.38C232.878 374.075 235.864 377.635 238.8 381.246L243.338 386.763C244.932 388.41 246.356 390.213 247.59 392.145C248.687 394.186 247.236 395.941 245.127 396.16C243.263 396.2 241.454 395.53 240.065 394.287C236.894 391.47 233.99 388.363 231.393 385.008C229.706 383.118 228.019 381.234 226.332 379.356C224.51 377.365 222.57 375.476 220.764 373.485C220.738 373.453 220.699 373.434 220.658 373.431C220.617 373.428 220.576 373.441 220.545 373.468C220.514 373.495 220.494 373.533 220.491 373.574C220.488 373.615 220.501 373.656 220.528 373.687C222.114 375.847 223.565 378.124 225.168 380.301C226.771 382.477 228.357 384.637 229.993 386.78C231.63 388.922 233.148 390.778 234.802 392.718C236.177 394.432 237.824 395.908 239.677 397.088C242.714 398.876 247.995 399.265 249.615 395.401C249.887 394.436 249.893 393.414 249.632 392.446C249.37 391.477 248.851 390.598 248.13 389.901Z" fill="#263238"/>
<path d="M451.567 497.186C439.335 497.406 427.12 498.114 414.888 498.384C402.657 498.654 390.644 498.705 378.513 498.587C354.151 498.373 329.805 497.428 305.477 495.752C280.912 494.065 254.423 491.602 230.027 488.228C218.352 486.54 206.525 485.258 194.985 482.778C184.609 480.816 175.012 475.922 167.332 468.674C151.541 453.354 145.399 430.814 142.869 409.286C142.531 406.401 142.244 403.499 142.008 400.614C142.008 400.411 141.705 400.411 141.721 400.614C143.139 422.699 146.58 445.711 160.466 463.46C166.326 471.196 174.125 477.249 183.074 481.007C194.006 485.393 206.137 486.422 217.66 487.975C242.158 491.349 268.764 493.863 293.396 495.786C318.029 497.709 343.049 498.907 367.918 499.279C392.787 499.65 417.655 499.279 442.49 498.064C445.527 497.912 448.547 497.743 451.584 497.473C451.753 497.439 451.753 497.17 451.567 497.186Z" fill="#263238"/>
<path d="M484.214 443.738C481.881 434.155 476.034 425.797 467.831 420.32C459.041 414.314 448.514 411.581 438.087 410.063C426.277 408.375 414.366 407.481 402.505 406.317C378.187 403.955 353.847 401.773 329.485 399.771C305.139 397.78 252.719 393.697 249.767 393.579C249.514 393.579 249.463 394.018 249.767 394.035C273.269 396.65 294.645 398.894 318.181 401.036C341.717 403.179 365.506 405.44 389.143 407.785C400.919 408.91 412.695 410.096 424.472 411.345C435.387 412.475 446.607 413.589 456.848 417.807C465.621 421.417 473.517 427.238 478.005 435.775C482.168 444.192 483.402 453.757 481.514 462.955C479.88 471.51 475.949 479.459 470.143 485.951C464.565 492.347 457.126 496.836 448.868 498.79C446.708 499.262 444.11 499.6 442.119 499.988C441.967 499.988 441.816 500.342 441.967 500.342C459.564 500.781 475.845 487.925 482.189 471.863C485.72 462.915 486.426 453.1 484.214 443.738Z" fill="#263238"/>
<path d="M190.919 287.541C230.348 311.803 310.858 336.081 320.83 319.159C333.129 298.339 309.846 248.703 307.653 242.005C305.291 234.835 247.793 259.45 252.939 265.625C255.975 269.303 258.405 273.589 257.14 273.589C253.192 273.589 242.883 269.742 202.56 264.191C180.222 261.154 164.818 271.48 190.919 287.541Z" fill="#AD6359"/>
<path d="M244.722 268.695L236.371 287.355L225.86 310.824C225.86 310.824 199.017 299.604 184.491 287.355C173.828 278.346 169.846 268.797 175.144 264.258C177.067 262.571 180.205 261.626 184.592 261.542C209.882 261.154 244.722 268.695 244.722 268.695Z" fill="#1047F7"/>
<path d="M235.443 268.307C231.95 275.41 219.465 301.578 219.162 305.425C219.162 305.509 219.415 305.627 219.465 305.56C222.064 302.759 232.963 275.917 235.881 268.442C235.898 268.358 235.51 268.173 235.443 268.307Z" fill="#263238"/>
<path d="M236.371 287.356L225.86 310.824C225.86 310.824 199.017 299.605 184.491 287.356C173.828 278.347 169.846 268.797 175.144 264.259L236.371 287.356Z" fill="#263238"/>
<path d="M295.489 210.826C303.165 220.696 310.96 247.015 310.403 254.085C309.846 261.154 265.525 275.899 259.485 271.833C253.445 267.767 230.179 232.556 230.364 219.802C230.55 207.047 287.542 200.602 295.489 210.826Z" fill="#AD6359"/>
<path d="M230.28 190.985C226.416 186.666 211.62 175.801 207.891 179.175C204.162 182.549 212.565 192.503 216.108 196.418C223.396 204.482 228.795 218.519 231.292 225.352C233.789 232.185 246.982 219.295 246.982 219.295C246.982 219.295 240.301 202.188 230.28 190.985Z" fill="#AD6359"/>
<path d="M239.458 233.198C239.458 233.198 243.541 245.379 250.863 245.362C257.915 245.362 256.65 234.918 256.566 234.159C256.785 234.8 260.817 245.969 268.173 245.126C275.816 244.316 272.745 234.075 272.543 233.417C272.948 233.957 278.347 241.026 283.796 239.17C293.16 235.964 279.848 217.507 281.468 209.662C281.468 209.662 295.083 210.876 295.488 210.826C295.488 210.826 283.189 193.01 272.476 191.424C270.922 191.165 269.327 191.446 267.955 192.22C266.583 192.993 265.517 194.212 264.934 195.675C264.934 195.675 261.56 189.5 255.79 189.922C252.82 190.158 250.526 195.135 250.526 195.135C250.526 195.135 247.658 190.293 242.512 191.002C238.395 191.542 236.202 196.586 235.898 198.543C233.637 213.643 239.458 233.198 239.458 233.198Z" fill="#AD6359"/>
<path d="M236.371 197.194C236.371 197.076 236.202 197.043 236.185 197.194C233.546 209.415 234.687 222.149 239.458 233.704C239.61 234.059 240.268 233.957 240.167 233.536C237.15 221.669 235.871 209.428 236.371 197.194Z" fill="#263238"/>
<path d="M250.442 194.95C250.442 194.815 250.222 194.799 250.205 194.95C247.691 207.081 249.092 222.485 256.245 234.565C256.482 234.97 257.123 235.105 256.886 234.565C252.77 226.213 249.817 206.423 250.442 194.95Z" fill="#263238"/>
<path d="M273.336 234.16C266.925 222.349 264.9 209.595 264.799 196.249C264.799 196.08 264.546 196.097 264.512 196.249C262.825 202.812 263.787 211.299 265.12 217.845C266.224 223.949 268.912 229.656 272.914 234.396C273.015 234.497 273.471 234.345 273.336 234.16Z" fill="#263238"/>
<path d="M239.458 233.198C240.455 235.463 241.658 237.632 243.052 239.676C244.327 241.71 246.113 243.374 248.231 244.502C249.234 244.953 250.368 245.025 251.42 244.704C252.481 244.356 253.434 243.74 254.187 242.916C254.87 242.043 255.362 241.036 255.629 239.96C255.896 238.884 255.934 237.764 255.739 236.673L255.014 231.291L257.578 236.083C258.695 238.224 260.147 240.172 261.88 241.853C262.646 242.67 263.575 243.317 264.607 243.753C265.638 244.189 266.75 244.404 267.87 244.384C268.91 244.349 269.907 243.958 270.693 243.276C271.479 242.594 272.007 241.663 272.189 240.638C272.565 238.336 272.338 235.976 271.531 233.788L269.54 227.681L273.42 232.742C274.49 234.166 275.737 235.448 277.132 236.555C278.422 237.654 280.006 238.352 281.687 238.563C282.446 238.618 283.204 238.463 283.88 238.114C284.556 237.766 285.122 237.238 285.517 236.589C286.171 234.986 286.358 233.232 286.057 231.527C285.462 227.853 284.576 224.231 283.408 220.696C282.885 218.891 282.362 217.069 281.924 215.23C281.378 213.41 281.223 211.495 281.468 209.611C281.427 211.484 281.753 213.347 282.43 215.095C283.003 216.883 283.661 218.638 284.319 220.392C285.752 223.925 286.848 227.586 287.592 231.325C288.034 233.345 287.876 235.45 287.137 237.382C286.616 238.387 285.813 239.219 284.828 239.776C283.842 240.333 282.716 240.592 281.586 240.52C279.497 240.326 277.512 239.515 275.884 238.192C274.316 236.976 272.905 235.57 271.683 234.008L273.555 232.995C274.536 235.569 274.833 238.354 274.416 241.077C274.132 242.583 273.333 243.943 272.155 244.923C270.978 245.849 269.549 246.396 268.055 246.493C266.639 246.527 265.231 246.26 263.926 245.71C262.62 245.161 261.446 244.341 260.48 243.304C258.59 241.434 257.017 239.268 255.823 236.893L257.662 236.302C257.852 237.669 257.741 239.06 257.339 240.38C256.937 241.699 256.253 242.916 255.334 243.945C254.342 244.907 253.124 245.603 251.791 245.969C250.433 246.32 248.993 246.164 247.742 245.531C245.513 244.201 243.697 242.28 242.495 239.98C241.24 237.836 240.222 235.562 239.458 233.198Z" fill="#263238"/>
<path d="M254.457 266.536C254.457 266.536 208.06 240.908 226.99 227.63C232.608 223.716 260.396 214.285 262.42 219.835C265.002 226.989 254.153 233.08 246.73 235.83C246.73 235.83 263.736 242.342 262.724 255.536C262.499 257.955 261.607 260.264 260.147 262.206C258.688 264.148 256.718 265.647 254.457 266.536Z" fill="#AD6359"/>
<path d="M225.488 228.828C227.51 227.029 229.783 225.534 232.237 224.391C234.661 223.184 237.164 222.141 239.728 221.27C244.846 219.448 250.113 218.076 255.469 217.17C256.897 216.932 258.351 216.898 259.788 217.069C260.612 217.163 261.403 217.446 262.1 217.895C262.484 218.135 262.827 218.437 263.112 218.79C263.391 219.147 263.613 219.545 263.77 219.971C264.3 221.515 264.252 223.2 263.635 224.711C263.068 226.085 262.263 227.348 261.256 228.44C259.304 230.469 257.022 232.152 254.507 233.417C252.09 234.7 249.581 235.8 246.999 236.707V235.02C248.913 235.835 250.749 236.823 252.483 237.973C254.2 239.116 255.799 240.427 257.257 241.887C258.705 243.386 259.921 245.092 260.868 246.948C261.802 248.761 262.375 250.738 262.555 252.769C262.095 250.82 261.314 248.961 260.244 247.269C259.163 245.611 257.857 244.112 256.363 242.815C254.896 241.494 253.296 240.33 251.589 239.339C249.906 238.351 248.139 237.515 246.308 236.842L244.03 236.049L246.291 235.088C248.741 234.12 251.125 232.993 253.428 231.713C255.691 230.506 257.747 228.946 259.518 227.09C261.205 225.285 262.319 222.856 261.593 220.915C260.868 218.975 258.219 219.144 255.655 219.431C253.09 219.718 250.458 220.291 247.86 220.848C245.262 221.405 242.647 222.029 240.099 222.771C235.088 224.188 229.909 225.724 225.488 228.828Z" fill="#263238"/>
<path d="M257.19 273.656L260.817 277.857L264.377 282.092L271.514 290.528C273.893 293.328 276.289 296.112 278.735 298.845C279.967 300.229 281.181 301.596 282.464 302.911C283.746 304.227 285.028 305.543 286.31 306.893C283.308 304.749 280.487 302.362 277.874 299.757C275.192 297.192 272.729 294.425 270.299 291.624C267.87 288.824 265.609 285.905 263.449 282.902C261.29 279.899 259.08 276.845 257.19 273.656Z" fill="#263238"/>
<path d="M252.871 385.228C251.285 390.812 166.488 421.417 124.647 412.897C124.647 412.897 118.658 334.664 154.392 274.01C162.945 259.501 183.293 259.113 194.343 265.575C198.279 268.094 202.013 270.914 205.512 274.01C216.209 283.222 235.341 306.657 238.074 313.49C242.562 324.777 234.7 339.523 234.7 339.523L252.871 385.228Z" fill="#1047F7"/>
<path d="M143.864 285.145C117.764 320.575 92.3214 386.374 109.311 398.404C132.189 414.583 202.762 423.863 258.455 422.665C266.166 422.496 257.747 364.222 249.513 363.986C239.121 363.665 160.094 361.151 158.07 359.009C156.383 357.17 161.748 327.678 164.397 296.837C167.501 260.782 151.321 275.005 143.864 285.145Z" fill="#AD6359"/>
<path d="M247.894 363.919C247.894 363.919 271.312 362.232 286.698 361.776C295.269 361.54 309.998 362.451 316.375 365.15C325.908 369.2 363.194 392.246 357.812 401.407C352.919 409.708 323.411 385.835 323.411 385.835C323.411 385.835 355.315 407.279 347.605 416.204C339.894 425.129 310.133 393.714 310.133 393.714C310.133 393.714 342.425 416.49 333.011 424.403C325.908 430.393 297.344 403.482 297.344 403.482C297.344 403.482 324.98 423.239 317.928 429.718C310.133 436.871 282.211 413.673 282.211 413.673C261.526 427.17 246.19 425.044 235.443 422.294C232.811 421.619 247.894 363.919 247.894 363.919Z" fill="#AD6359"/>
<path d="M312.798 377.719C316.645 380.115 320.543 382.494 324.17 385.21C327.797 387.927 331.307 390.778 334.647 393.815C339.105 397.698 343.097 402.086 346.542 406.89C339.793 398.826 327.004 388.905 323.394 386.172C319.783 383.439 316.308 380.571 312.697 377.854C312.613 377.787 312.714 377.669 312.798 377.719Z" fill="#263238"/>
<path d="M302.76 390.61C307.535 393.866 312.394 396.92 317.016 400.378C321.639 403.837 325.688 407.515 330.058 411.277C330.379 411.564 330.058 411.649 329.771 411.379C325.267 407.785 320.829 404.832 316.274 401.256C311.719 397.679 307.332 394.018 302.676 390.677C302.591 390.66 302.692 390.559 302.76 390.61Z" fill="#263238"/>
<path d="M292.148 400.107C299.582 404.926 306.502 410.495 312.799 416.726C313.119 417.03 312.799 417.097 312.428 416.81C305.679 411.158 300.398 406.687 291.979 400.361C291.861 400.259 291.979 400.006 292.148 400.107Z" fill="#263238"/>
<path d="M114.085 330.327L165.358 328.893C165.358 328.893 168.732 304.277 168.209 287.17C167.855 275.95 166.522 265.557 165.105 265.017C163.249 264.309 155.859 268.476 149.094 276.018C134.645 292.17 122.831 310.498 114.085 330.327Z" fill="#1047F7"/>
<path d="M163.351 320.93C155.455 320.492 133.96 319.935 119.957 321.403C119.957 321.403 119.957 321.723 119.957 321.74C131.767 322.28 155.387 321.74 163.351 321.403C163.486 321.403 163.486 320.93 163.351 320.93Z" fill="#263238"/>
<path d="M169.289 304.26C168.834 305.475 168.429 306.69 168.058 307.922C168.058 308.09 167.956 308.276 167.889 308.445C168.108 305.323 168.26 302.202 168.226 299.081C168.226 299.081 168.091 298.963 168.075 299.081C167.417 303.94 164.582 328.42 164.582 328.42C164.144 328.42 161.073 329.011 160.87 328.994C160.668 328.977 160.702 329.298 160.87 329.247C161.039 329.197 164.785 329.247 165.797 329.146C166.276 326.815 166.586 324.452 166.725 322.077C166.995 319.495 167.214 317.015 167.417 314.35C167.518 313.185 167.602 312.021 167.687 310.874C167.771 309.727 168.142 308.917 168.412 307.955C168.682 306.994 169.121 305.543 169.509 304.345C169.593 304.159 169.34 304.109 169.289 304.26Z" fill="#263238"/>
<path d="M152.131 272.964C152.131 272.964 181.066 289.295 193.196 282.26C199.489 278.616 198.477 262.014 198.477 262.014C189.344 259.371 179.658 259.3 170.487 261.812C163.539 263.951 157.231 267.783 152.131 272.964Z" fill="#AD6359"/>
<path d="M159.791 250.66C188.648 250.66 212.042 226.36 212.042 196.384C212.042 166.408 188.648 142.108 159.791 142.108C130.933 142.108 107.54 166.408 107.54 196.384C107.54 226.36 130.933 250.66 159.791 250.66Z" fill="#263238"/>
<path d="M134.77 235.441C134.773 236.867 134.353 238.263 133.563 239.45C132.773 240.637 131.648 241.563 130.331 242.111C129.014 242.658 127.564 242.802 126.165 242.525C124.766 242.247 123.48 241.561 122.472 240.552C121.463 239.544 120.777 238.258 120.499 236.859C120.222 235.46 120.366 234.01 120.913 232.693C121.461 231.376 122.387 230.251 123.574 229.461C124.761 228.671 126.157 228.251 127.583 228.254C129.488 228.258 131.313 229.017 132.66 230.364C134.007 231.711 134.766 233.536 134.77 235.441Z" fill="#263238"/>
<path d="M211.114 224.66C211.114 226.082 210.693 227.473 209.904 228.656C209.116 229.839 207.994 230.762 206.682 231.31C205.37 231.857 203.925 232.003 202.529 231.731C201.133 231.458 199.85 230.779 198.839 229.778C197.829 228.777 197.138 227.5 196.852 226.107C196.567 224.714 196.7 223.268 197.235 221.95C197.77 220.633 198.683 219.503 199.858 218.703C201.034 217.903 202.42 217.47 203.842 217.456C204.794 217.447 205.738 217.627 206.62 217.985C207.502 218.343 208.304 218.873 208.98 219.542C209.656 220.212 210.193 221.009 210.559 221.888C210.925 222.766 211.114 223.709 211.114 224.66Z" fill="#263238"/>
<path d="M218.318 191.069C218.318 192.494 217.895 193.887 217.104 195.072C216.312 196.257 215.187 197.18 213.871 197.725C212.554 198.27 211.106 198.413 209.708 198.135C208.311 197.857 207.027 197.171 206.02 196.163C205.012 195.156 204.326 193.872 204.048 192.475C203.77 191.077 203.913 189.629 204.458 188.312C205.003 186.996 205.927 185.871 207.111 185.079C208.296 184.288 209.689 183.865 211.114 183.865C213.024 183.865 214.857 184.624 216.208 185.975C217.559 187.326 218.318 189.159 218.318 191.069Z" fill="#263238"/>
<path d="M118.32 184.523C118.324 185.949 117.904 187.343 117.114 188.53C116.325 189.717 115.201 190.643 113.885 191.191C112.569 191.739 111.12 191.884 109.721 191.608C108.323 191.332 107.037 190.647 106.028 189.64C105.019 188.633 104.331 187.35 104.052 185.952C103.772 184.554 103.914 183.104 104.459 181.787C105.004 180.47 105.927 179.344 107.112 178.551C108.297 177.759 109.691 177.336 111.116 177.336C113.024 177.336 114.854 178.093 116.204 179.44C117.555 180.787 118.316 182.615 118.32 184.523Z" fill="#263238"/>
<path d="M127.583 165.154C127.583 166.579 127.16 167.972 126.368 169.157C125.577 170.341 124.452 171.265 123.135 171.81C121.819 172.355 120.37 172.498 118.973 172.22C117.576 171.942 116.292 171.256 115.284 170.248C114.277 169.241 113.591 167.957 113.313 166.56C113.035 165.162 113.177 163.714 113.723 162.397C114.268 161.081 115.191 159.956 116.376 159.164C117.561 158.373 118.954 157.95 120.378 157.95C122.289 157.95 124.122 158.709 125.473 160.06C126.824 161.411 127.583 163.244 127.583 165.154Z" fill="#263238"/>
<path d="M136.356 157.006C136.359 158.431 135.94 159.826 135.15 161.013C134.361 162.2 133.237 163.126 131.921 163.673C130.604 164.221 129.155 164.366 127.757 164.09C126.358 163.814 125.073 163.129 124.064 162.123C123.055 161.116 122.367 159.832 122.087 158.434C121.808 157.036 121.95 155.587 122.495 154.27C123.039 152.952 123.963 151.826 125.148 151.034C126.333 150.241 127.726 149.818 129.152 149.818C131.06 149.818 132.889 150.575 134.24 151.922C135.591 153.27 136.352 155.098 136.356 157.006Z" fill="#263238"/>
<path d="M144.994 148.115C144.998 149.541 144.577 150.936 143.787 152.124C142.997 153.311 141.872 154.237 140.555 154.784C139.238 155.332 137.788 155.476 136.389 155.198C134.99 154.921 133.705 154.234 132.696 153.226C131.687 152.217 131.001 150.932 130.724 149.533C130.446 148.134 130.59 146.684 131.138 145.367C131.685 144.05 132.611 142.925 133.798 142.135C134.985 141.345 136.381 140.924 137.807 140.928C139.712 140.932 141.537 141.691 142.884 143.038C144.231 144.385 144.99 146.21 144.994 148.115Z" fill="#263238"/>
<path d="M156.382 146.765C156.386 148.191 155.966 149.585 155.176 150.772C154.387 151.959 153.263 152.885 151.947 153.433C150.631 153.981 149.182 154.126 147.783 153.85C146.385 153.574 145.099 152.889 144.09 151.882C143.081 150.875 142.393 149.592 142.114 148.194C141.834 146.796 141.976 145.347 142.521 144.029C143.066 142.712 143.989 141.586 145.174 140.793C146.359 140.001 147.753 139.578 149.178 139.578C151.086 139.578 152.916 140.335 154.266 141.682C155.617 143.03 156.378 144.858 156.382 146.765Z" fill="#263238"/>
<path d="M189.737 146.765C189.741 148.191 189.321 149.585 188.531 150.772C187.742 151.959 186.618 152.885 185.302 153.433C183.986 153.981 182.537 154.126 181.138 153.85C179.74 153.574 178.454 152.889 177.445 151.882C176.436 150.875 175.748 149.592 175.469 148.194C175.189 146.796 175.331 145.347 175.876 144.029C176.421 142.712 177.344 141.586 178.529 140.793C179.714 140.001 181.108 139.578 182.533 139.578C184.441 139.578 186.271 140.335 187.621 141.682C188.972 143.03 189.733 144.858 189.737 146.765Z" fill="#263238"/>
<path d="M205.681 160.903C205.681 162.328 205.259 163.721 204.467 164.906C203.676 166.09 202.55 167.014 201.234 167.559C199.918 168.104 198.469 168.247 197.072 167.969C195.674 167.691 194.391 167.005 193.383 165.997C192.375 164.99 191.689 163.706 191.411 162.309C191.133 160.911 191.276 159.463 191.821 158.146C192.367 156.83 193.29 155.705 194.475 154.913C195.659 154.122 197.052 153.699 198.477 153.699C200.388 153.699 202.22 154.458 203.571 155.809C204.922 157.16 205.681 158.993 205.681 160.903Z" fill="#263238"/>
<path d="M114.744 223.361C118.722 223.361 121.948 220.136 121.948 216.157C121.948 212.179 118.722 208.953 114.744 208.953C110.765 208.953 107.54 212.179 107.54 216.157C107.54 220.136 110.765 223.361 114.744 223.361Z" fill="#263238"/>
<path d="M153.751 245.075C153.754 246.501 153.334 247.895 152.545 249.082C151.755 250.269 150.631 251.195 149.315 251.743C147.999 252.291 146.55 252.436 145.151 252.16C143.753 251.884 142.468 251.199 141.458 250.192C140.449 249.185 139.761 247.901 139.482 246.504C139.203 245.106 139.344 243.656 139.889 242.339C140.434 241.021 141.357 239.895 142.542 239.103C143.727 238.311 145.121 237.888 146.546 237.888C148.454 237.888 150.284 238.644 151.635 239.992C152.985 241.339 153.746 243.167 153.751 245.075Z" fill="#263238"/>
<path d="M163.958 245.177C163.958 246.602 163.535 247.996 162.743 249.181C161.95 250.366 160.824 251.289 159.507 251.834C158.19 252.379 156.74 252.521 155.342 252.241C153.944 251.962 152.661 251.274 151.654 250.265C150.647 249.256 149.962 247.97 149.686 246.572C149.41 245.173 149.555 243.724 150.103 242.408C150.651 241.092 151.577 239.968 152.764 239.179C153.951 238.389 155.345 237.969 156.771 237.973C157.716 237.973 158.652 238.159 159.525 238.521C160.398 238.884 161.191 239.415 161.859 240.084C162.527 240.753 163.056 241.547 163.416 242.421C163.776 243.295 163.96 244.232 163.958 245.177Z" fill="#263238"/>
<path d="M118.32 205.612C118.32 207.037 117.898 208.43 117.106 209.615C116.315 210.799 115.19 211.723 113.873 212.268C112.557 212.813 111.108 212.956 109.711 212.678C108.313 212.4 107.03 211.714 106.022 210.706C105.015 209.699 104.329 208.415 104.051 207.018C103.773 205.62 103.915 204.172 104.46 202.855C105.006 201.539 105.929 200.414 107.114 199.622C108.299 198.831 109.691 198.408 111.116 198.408C113.027 198.408 114.859 199.167 116.21 200.518C117.561 201.869 118.32 203.702 118.32 205.612Z" fill="#263238"/>
<path d="M119.636 233.248C123.242 233.248 126.165 230.325 126.165 226.719C126.165 223.113 123.242 220.189 119.636 220.189C116.03 220.189 113.107 223.113 113.107 226.719C113.107 230.325 116.03 233.248 119.636 233.248Z" fill="#263238"/>
<path d="M166.978 143.272C166.981 144.569 166.6 145.837 165.882 146.916C165.164 147.995 164.142 148.836 162.945 149.334C161.748 149.832 160.43 149.963 159.159 149.711C157.888 149.458 156.72 148.835 155.803 147.918C154.887 147.002 154.263 145.834 154.011 144.562C153.759 143.291 153.89 141.973 154.387 140.776C154.885 139.58 155.726 138.557 156.806 137.839C157.885 137.121 159.153 136.74 160.449 136.743C162.179 136.748 163.837 137.437 165.061 138.66C166.284 139.884 166.974 141.542 166.978 143.272Z" fill="#263238"/>
<path d="M117.662 195.101C117.672 196.395 117.299 197.663 116.588 198.745C115.878 199.826 114.863 200.673 113.672 201.178C112.481 201.684 111.166 201.824 109.895 201.583C108.624 201.341 107.453 200.729 106.53 199.822C105.606 198.915 104.973 197.755 104.708 196.489C104.444 195.222 104.561 193.905 105.045 192.705C105.528 191.505 106.357 190.475 107.425 189.745C108.494 189.016 109.755 188.619 111.049 188.606C111.91 188.597 112.764 188.758 113.563 189.08C114.362 189.402 115.089 189.878 115.703 190.481C116.318 191.085 116.807 191.803 117.143 192.596C117.479 193.389 117.656 194.24 117.662 195.101Z" fill="#263238"/>
<path d="M114.744 181.166C118.35 181.166 121.273 178.243 121.273 174.637C121.273 171.031 118.35 168.107 114.744 168.107C111.138 168.107 108.214 171.031 108.214 174.637C108.214 178.243 111.138 181.166 114.744 181.166Z" fill="#263238"/>
<path d="M171.044 150.578C174.65 150.578 177.573 147.655 177.573 144.049C177.573 140.443 174.65 137.52 171.044 137.52C167.438 137.52 164.515 140.443 164.515 144.049C164.515 147.655 167.438 150.578 171.044 150.578Z" fill="#263238"/>
<path d="M143.678 241.076C143.678 242.372 143.294 243.638 142.574 244.715C141.854 245.792 140.83 246.631 139.633 247.126C138.436 247.621 137.119 247.75 135.849 247.496C134.579 247.242 133.412 246.616 132.497 245.699C131.582 244.782 130.96 243.614 130.71 242.343C130.459 241.072 130.591 239.755 131.089 238.56C131.587 237.364 132.429 236.343 133.508 235.625C134.586 234.908 135.854 234.527 137.149 234.53C138.008 234.53 138.858 234.7 139.652 235.029C140.445 235.358 141.165 235.841 141.772 236.449C142.378 237.057 142.859 237.779 143.186 238.573C143.513 239.367 143.68 240.218 143.678 241.076Z" fill="#263238"/>
<path d="M173.474 247.657C173.477 248.953 173.096 250.22 172.379 251.299C171.661 252.377 170.64 253.219 169.444 253.717C168.248 254.215 166.932 254.347 165.661 254.097C164.39 253.846 163.222 253.224 162.305 252.309C161.387 251.394 160.762 250.228 160.508 248.957C160.254 247.687 160.383 246.37 160.878 245.173C161.373 243.976 162.212 242.952 163.289 242.232C164.366 241.512 165.632 241.128 166.927 241.128C168.661 241.128 170.323 241.815 171.55 243.039C172.778 244.263 173.469 245.924 173.474 247.657Z" fill="#263238"/>
<path d="M178.67 251.706C182.276 251.706 185.199 248.783 185.199 245.177C185.199 241.571 182.276 238.647 178.67 238.647C175.064 238.647 172.141 241.571 172.141 245.177C172.141 248.783 175.064 251.706 178.67 251.706Z" fill="#263238"/>
<path d="M187.882 245.16C191.488 245.16 194.411 242.237 194.411 238.631C194.411 235.025 191.488 232.102 187.882 232.102C184.276 232.102 181.353 235.025 181.353 238.631C181.353 242.237 184.276 245.16 187.882 245.16Z" fill="#263238"/>
<path d="M205.023 234.159C205.027 235.455 204.646 236.722 203.928 237.801C203.211 238.879 202.19 239.721 200.994 240.219C199.798 240.717 198.482 240.849 197.211 240.598C195.94 240.348 194.772 239.726 193.854 238.811C192.937 237.896 192.312 236.73 192.058 235.459C191.804 234.189 191.933 232.872 192.428 231.675C192.923 230.478 193.762 229.454 194.839 228.734C195.916 228.014 197.182 227.63 198.477 227.63C200.211 227.63 201.873 228.317 203.1 229.541C204.327 230.765 205.019 232.426 205.023 234.159Z" fill="#263238"/>
<path d="M216.614 215.432C216.607 216.726 216.217 217.989 215.493 219.062C214.769 220.134 213.743 220.968 212.545 221.458C211.348 221.948 210.032 222.071 208.764 221.814C207.496 221.556 206.332 220.928 205.421 220.01C204.51 219.091 203.891 217.923 203.643 216.653C203.395 215.383 203.529 214.068 204.028 212.874C204.527 211.68 205.369 210.661 206.447 209.945C207.524 209.229 208.79 208.849 210.084 208.853C210.945 208.855 211.798 209.027 212.592 209.359C213.387 209.691 214.108 210.177 214.714 210.788C215.321 211.399 215.801 212.124 216.127 212.921C216.453 213.718 216.618 214.571 216.614 215.432Z" fill="#263238"/>
<path d="M216.614 203.369C216.617 204.665 216.236 205.933 215.518 207.012C214.8 208.091 213.777 208.933 212.581 209.431C211.384 209.928 210.066 210.059 208.795 209.807C207.523 209.555 206.355 208.931 205.439 208.015C204.522 207.098 203.898 205.93 203.646 204.659C203.394 203.388 203.525 202.07 204.023 200.873C204.521 199.676 205.362 198.654 206.441 197.936C207.52 197.218 208.788 196.837 210.084 196.84C211.815 196.844 213.473 197.534 214.696 198.757C215.92 199.981 216.609 201.639 216.614 203.369Z" fill="#263238"/>
<path d="M198.477 151.489C198.48 152.785 198.099 154.053 197.381 155.132C196.663 156.212 195.641 157.053 194.444 157.551C193.247 158.048 191.929 158.179 190.658 157.927C189.387 157.675 188.219 157.051 187.302 156.135C186.386 155.218 185.762 154.05 185.51 152.779C185.258 151.508 185.389 150.19 185.886 148.993C186.384 147.796 187.226 146.774 188.305 146.056C189.384 145.338 190.652 144.957 191.948 144.96C193.678 144.964 195.336 145.654 196.56 146.877C197.783 148.101 198.473 149.759 198.477 151.489Z" fill="#263238"/>
<path d="M207.099 175.784C210.705 175.784 213.628 172.861 213.628 169.255C213.628 165.649 210.705 162.726 207.099 162.726C203.493 162.726 200.569 165.649 200.569 169.255C200.569 172.861 203.493 175.784 207.099 175.784Z" fill="#263238"/>
<path d="M208.532 186.144C212.138 186.144 215.061 183.22 215.061 179.614C215.061 176.008 212.138 173.085 208.532 173.085C204.926 173.085 202.003 176.008 202.003 179.614C202.003 183.22 204.926 186.144 208.532 186.144Z" fill="#263238"/>
<path d="M166.725 266.215C167.771 268.341 181.909 280.472 192.032 277.637C195.406 276.693 191.054 258.404 191.054 258.404V256.987L190.936 237.061L165.409 227.9L161.765 226.753C161.765 226.753 162.153 232.202 162.709 238.968C162.709 239.288 162.709 239.592 162.709 239.93C162.709 240.267 162.709 240.689 162.709 241.043C162.709 242.055 162.861 243.085 162.946 244.114C163.03 245.143 163.081 245.666 163.182 246.476C163.283 247.286 163.367 248.163 163.452 248.939C164.152 254.765 165.245 260.537 166.725 266.215Z" fill="#AD6359"/>
<path d="M162.76 238.934C165.895 243.813 170.054 247.952 174.949 251.063C179.843 254.175 185.356 256.184 191.104 256.953L190.986 237.027L165.46 227.866L161.815 226.719C161.815 226.719 162.203 232.168 162.76 238.934Z" fill="#263238"/>
<path d="M212.767 198.729C225.084 231.443 206.879 242.511 199.827 245.16C193.416 247.556 171.314 254.928 155.674 223.665C140.034 192.403 151.372 176.341 165.797 170.065C180.222 163.788 200.468 165.965 212.767 198.729Z" fill="#AD6359"/>
<path d="M204.939 196.3C204.129 196.452 203.353 196.469 202.543 196.553C201.709 196.753 200.833 196.676 200.046 196.334C199.821 196.176 199.654 195.948 199.572 195.686C199.49 195.424 199.496 195.141 199.591 194.883C199.842 194.388 200.223 193.97 200.692 193.673C201.161 193.376 201.701 193.212 202.256 193.196C203.372 193.014 204.515 193.255 205.462 193.871C205.695 194.013 205.878 194.224 205.986 194.475C206.094 194.726 206.121 195.004 206.063 195.271C206.006 195.538 205.867 195.781 205.665 195.965C205.464 196.15 205.21 196.267 204.939 196.3Z" fill="#263238"/>
<path d="M181.909 200.416C182.63 200.06 183.329 199.66 184.001 199.219C184.815 198.891 185.494 198.296 185.924 197.531C186.014 197.271 186.017 196.989 185.932 196.727C185.846 196.465 185.678 196.238 185.452 196.08C184.956 195.842 184.406 195.74 183.857 195.785C183.309 195.829 182.782 196.018 182.331 196.334C181.323 196.823 180.535 197.671 180.121 198.712C180.014 198.96 179.985 199.234 180.039 199.497C180.092 199.761 180.225 200.003 180.42 200.188C180.615 200.374 180.863 200.496 181.129 200.536C181.395 200.577 181.667 200.535 181.909 200.416Z" fill="#263238"/>
<path d="M189.096 207.435C189.096 207.435 188.961 207.603 188.995 207.688C189.839 209.915 190.429 212.614 188.658 214.065C188.658 214.065 188.658 214.217 188.658 214.183C191.087 212.968 190.345 209.409 189.096 207.435Z" fill="#263238"/>
<path d="M186.279 205.781C182.567 206.76 184.778 214.116 188.219 213.205C191.661 212.294 189.383 204.971 186.279 205.781Z" fill="#263238"/>
<path d="M184.946 206.608C184.44 207.215 184.018 208.143 183.259 208.447C182.5 208.751 181.471 208.244 180.661 207.688C180.661 207.688 180.543 207.688 180.576 207.806C180.981 209.223 181.96 210.505 183.529 210.252C185.098 209.999 185.57 208.481 185.503 206.878C185.503 206.675 185.149 206.355 184.946 206.608Z" fill="#263238"/>
<path d="M201.936 202.491C201.936 202.491 202.138 202.491 202.172 202.643C202.762 204.938 203.859 207.485 206.137 207.705C206.137 207.705 206.137 207.823 206.137 207.839C203.521 208.16 202.155 204.769 201.936 202.491Z" fill="#263238"/>
<path d="M203.268 199.505C206.862 198.155 209.308 205.427 205.985 206.692C202.661 207.958 200.265 200.652 203.268 199.505Z" fill="#263238"/>
<path d="M204.956 199.471C205.664 199.673 206.457 200.18 207.166 199.994C207.874 199.808 208.296 198.796 208.566 197.868C208.566 197.767 208.667 197.868 208.701 197.868C209.207 199.252 209.224 200.854 207.993 201.563C206.761 202.272 205.546 201.327 204.753 200.062C204.601 199.859 204.669 199.404 204.956 199.471Z" fill="#263238"/>
<path d="M194.377 224.981C195.015 225.521 195.819 225.824 196.655 225.842C197.513 225.605 198.312 225.191 199 224.627C199 224.627 199.152 224.627 199.118 224.728C198.904 225.263 198.549 225.73 198.092 226.08C197.635 226.431 197.092 226.651 196.52 226.719C196.016 226.716 195.524 226.564 195.107 226.282C194.689 226 194.365 225.6 194.175 225.133C194.107 225.015 194.276 224.914 194.377 224.981Z" fill="#263238"/>
<path d="M201.278 213.779C201.278 213.779 202.965 217.558 203.488 219.161C200.174 219.698 196.916 220.533 193.753 221.658C193.568 221.658 193.281 221.438 193.753 221.101C196.233 219.161 201.902 218.182 201.902 218.182C200.938 216.379 200.081 214.52 199.338 212.614C200.613 212.345 201.916 212.237 203.218 212.294C200.215 205.545 196.149 199.151 193.247 192.284C193.247 192.031 193.5 191.846 193.635 192.048C198.376 198.358 202.071 206.153 205.293 213.154C205.681 214.015 202.003 213.914 201.278 213.779Z" fill="#263238"/>
<path d="M158.289 223.429C164.751 224.61 159.976 214.993 159.976 214.993C159.976 214.993 164.464 210.843 160.263 204.196C160.263 204.196 167.838 204.769 166.438 194.528C166.438 194.528 172.444 192.723 170.487 185.856C170.487 185.856 179.851 188.708 181.588 180.137C181.588 180.137 189.113 185.569 192.488 177.876C192.488 177.876 195.862 181.993 200.434 179.378C200.434 179.378 202.307 184.068 206.187 184.861C206.187 184.861 188.523 151.945 159.47 171.077C132.526 188.792 150.697 222.046 158.289 223.429Z" fill="#263238"/>
<path d="M161.815 224.172C161.815 224.172 151.523 215.736 147.491 219.684C143.459 223.632 153.261 237.315 159.436 237.838C160.223 237.956 161.025 237.914 161.795 237.715C162.565 237.515 163.287 237.162 163.917 236.677C164.548 236.192 165.073 235.584 165.463 234.891C165.853 234.197 166.098 233.432 166.185 232.641L161.815 224.172Z" fill="#AD6359"/>
<path d="M150.41 223.531C150.388 223.531 150.366 223.54 150.35 223.555C150.335 223.571 150.326 223.593 150.326 223.615C150.326 223.637 150.335 223.659 150.35 223.675C150.366 223.691 150.388 223.699 150.41 223.699C154.78 224.189 157.867 227.242 160.381 230.617C160.044 230.286 159.638 230.033 159.193 229.875C158.748 229.717 158.274 229.657 157.804 229.701C157.334 229.744 156.879 229.889 156.47 230.126C156.061 230.363 155.709 230.686 155.438 231.072C155.353 231.174 155.438 231.308 155.606 231.241C156.234 230.831 156.973 230.625 157.723 230.652C158.472 230.679 159.194 230.938 159.791 231.393C160.788 232.157 161.699 233.028 162.507 233.991C162.794 234.295 163.384 233.991 163.131 233.552C161.765 228.44 155.91 222.535 150.41 223.531Z" fill="#263238"/>
<path d="M138.229 200.163L136.677 204.246L150.427 212.412L153.717 203.234L138.229 200.163ZM149.145 208.464L139.714 203.571L140.051 202.609L150.376 205.258L149.145 208.464Z" fill="#1047F7"/>
<path d="M139.208 194.123L139.309 198.476L155.117 200.872L154.712 191.137L139.208 194.123ZM152.452 197.7L141.856 196.721V195.709L152.418 194.258L152.452 197.7Z" fill="#1047F7"/>
<path d="M377.18 558.381H95.4932V577.412H377.18V558.381Z" fill="#455A64"/>
<path d="M153.362 577.411L146.31 594.603L111.875 678.742H103.051L126.216 594.603L130.94 577.411H153.362Z" fill="#455A64"/>
<path d="M130.94 577.411H153.363L146.31 594.603H126.216L130.94 577.411Z" fill="#263238"/>
<path d="M369.605 678.742H360.798L326.363 594.603L319.328 577.411H341.733L346.457 594.603L369.605 678.742Z" fill="#455A64"/>
<path d="M346.457 594.603H326.363L319.328 577.411H341.733L346.457 594.603Z" fill="#263238"/>
<path d="M177.843 553.994H149.751V558.381H177.843V553.994Z" fill="#1047F7"/>
<path opacity="0.1" d="M177.843 553.994H149.751V556.879H177.843V553.994Z" fill="black"/>
<path d="M116.397 542.201C118.11 544.725 120.513 546.703 123.318 547.899C126.124 549.096 129.215 549.46 132.222 548.95C133.197 548.766 134.152 548.489 135.073 548.123C136.473 547.579 137.808 546.883 139.055 546.048L135.478 540.75C134.814 541.214 134.108 541.615 133.369 541.948C131.326 542.911 129.003 543.099 126.831 542.478C124.659 541.858 122.786 540.471 121.559 538.574C117.713 533.158 116.329 520.791 120.226 516.033C120.496 515.679 121.61 515.122 126.148 516.033C126.975 516.219 127.836 516.438 129 516.725C129.829 517.013 130.69 517.2 131.564 517.282L131.682 514.11L131.986 510.938C131.699 510.938 131.244 510.753 130.653 510.584C128.56 509.975 126.422 509.535 124.259 509.268C120.884 508.914 117.51 509.268 115.3 511.951C109.007 519.711 111.571 535.419 116.397 542.201Z" fill="#1047F7"/>
<path opacity="0.1" d="M135.479 540.767C134.814 541.231 134.108 541.632 133.37 541.964L135.057 548.139C136.456 547.596 137.791 546.9 139.038 546.064L135.479 540.767Z" fill="black"/>
<path opacity="0.1" d="M124.309 509.268L126.199 516.016C127.025 516.202 127.886 516.421 129.05 516.708C129.879 516.996 130.74 517.183 131.614 517.265L131.733 514.093L132.036 510.921C131.749 510.921 131.294 510.735 130.703 510.567C128.61 509.963 126.472 509.529 124.309 509.268Z" fill="black"/>
<path d="M201.176 500.967C201.176 500.967 197.802 529.648 191.981 541.678C186.16 553.707 178.028 555.057 172.984 555.057H154.611C149.549 555.057 141.451 553.707 135.63 541.678C129.809 529.648 126.435 500.967 126.435 500.967H201.176Z" fill="#1047F7"/>
<path opacity="0.1" d="M197.566 523.001L196.756 526.645H130.839C130.586 525.414 130.316 524.216 130.046 523.001H197.566Z" fill="black"/>
<path opacity="0.1" d="M195.861 530.289C195.153 532.989 194.394 535.587 193.55 537.881H134.044C133.217 535.587 132.441 532.989 131.75 530.289H195.861Z" fill="black"/>
<path d="M273.673 141.199C273.907 143.905 273.333 146.619 272.023 148.999C270.714 151.379 268.729 153.317 266.318 154.569C263.907 155.82 261.179 156.328 258.48 156.029C255.78 155.731 253.229 154.638 251.151 152.889C249.072 151.141 247.559 148.816 246.802 146.207C246.044 143.598 246.078 140.824 246.898 138.234C247.718 135.645 249.287 133.357 251.407 131.659C253.527 129.961 256.103 128.93 258.81 128.697C260.607 128.539 262.417 128.738 264.138 129.282C265.858 129.825 267.454 130.703 268.835 131.864C270.216 133.025 271.354 134.447 272.184 136.049C273.014 137.651 273.52 139.401 273.673 141.199Z" fill="white"/>
<path d="M273.673 141.198C273.895 143.081 273.735 144.989 273.205 146.809C272.675 148.63 271.784 150.325 270.587 151.794C269.389 153.264 267.908 154.477 266.232 155.364C264.556 156.25 262.719 156.79 260.83 156.953C258.941 157.116 257.039 156.898 255.236 156.311C253.433 155.725 251.767 154.782 250.335 153.539C248.903 152.296 247.736 150.779 246.902 149.076C246.068 147.373 245.585 145.521 245.481 143.628C245.31 141.74 245.522 139.837 246.104 138.032C246.686 136.228 247.625 134.559 248.866 133.126C250.107 131.693 251.624 130.525 253.327 129.691C255.029 128.858 256.883 128.376 258.776 128.275C262.449 128.081 266.054 129.32 268.833 131.73C271.611 134.14 273.346 137.534 273.673 141.198ZM273.673 141.198C273.523 139.42 273.016 137.689 272.182 136.111C271.349 134.532 270.206 133.138 268.822 132.011C267.438 130.883 265.841 130.046 264.127 129.549C262.413 129.052 260.616 128.906 258.843 129.118C255.326 129.431 252.078 131.129 249.812 133.837C247.547 136.546 246.45 140.043 246.763 143.56C247.076 147.077 248.774 150.326 251.482 152.591C254.191 154.857 257.688 155.953 261.205 155.64C262.987 155.545 264.732 155.092 266.335 154.309C267.939 153.525 269.368 152.427 270.537 151.079C271.707 149.731 272.594 148.162 273.144 146.464C273.694 144.767 273.897 142.976 273.741 141.198H273.673Z" fill="#263238"/>
<path d="M243.945 166.489C244.077 167.996 243.758 169.507 243.03 170.832C242.302 172.158 241.198 173.237 239.856 173.935C238.514 174.632 236.996 174.916 235.493 174.75C233.99 174.584 232.57 173.976 231.413 173.003C230.255 172.03 229.413 170.735 228.991 169.283C228.57 167.831 228.589 166.286 229.045 164.845C229.502 163.403 230.376 162.13 231.557 161.185C232.737 160.241 234.172 159.667 235.678 159.538C236.678 159.45 237.685 159.56 238.642 159.862C239.599 160.164 240.486 160.652 241.254 161.298C242.022 161.944 242.655 162.735 243.117 163.625C243.579 164.516 243.86 165.489 243.945 166.489Z" fill="white"/>
<path d="M243.945 166.489C244.125 168.547 243.508 170.597 242.221 172.213C240.934 173.83 239.075 174.891 237.028 175.177C235.955 175.304 234.868 175.214 233.83 174.912C232.793 174.61 231.827 174.103 230.989 173.42C230.151 172.738 229.459 171.894 228.954 170.939C228.449 169.984 228.141 168.937 228.048 167.86C227.956 166.784 228.08 165.7 228.415 164.672C228.749 163.645 229.286 162.695 229.995 161.88C230.703 161.064 231.569 160.399 232.539 159.924C233.51 159.449 234.566 159.174 235.645 159.116C237.709 159.048 239.721 159.775 241.266 161.146C242.81 162.518 243.769 164.43 243.945 166.489ZM243.945 166.489C243.798 164.842 243.089 163.296 241.937 162.11C240.785 160.925 239.26 160.171 237.619 159.977C235.977 159.782 234.319 160.158 232.921 161.041C231.524 161.924 230.472 163.261 229.944 164.827C229.415 166.394 229.442 168.094 230.018 169.643C230.595 171.193 231.687 172.497 233.111 173.336C234.535 174.176 236.204 174.5 237.839 174.255C239.474 174.01 240.975 173.209 242.09 171.989C242.76 171.248 243.271 170.378 243.59 169.432C243.909 168.486 244.03 167.484 243.945 166.489Z" fill="#263238"/>
<path d="M376.337 77.357C377.184 84.3305 376.185 91.4044 373.438 97.87C370.691 104.336 366.293 109.966 360.685 114.196C355.077 118.427 348.456 121.11 341.485 121.976C334.513 122.842 327.437 121.861 320.964 119.131C317.816 123.24 313.761 126.568 309.117 128.854C304.472 131.14 299.362 132.324 294.185 132.312C289.008 132.301 283.904 131.095 279.269 128.788C274.635 126.481 270.595 123.136 267.465 119.013C265.999 119.458 264.497 119.775 262.977 119.958C257.749 120.586 252.452 119.689 247.723 117.374C242.994 115.059 239.036 111.425 236.327 106.91C233.618 102.396 232.272 97.1939 232.454 91.932C232.635 86.67 234.335 81.573 237.349 77.2557C231.426 69.7406 228.386 60.3546 228.779 50.7939C229.172 41.2331 232.972 32.1284 239.493 25.125C246.013 18.1217 254.824 13.6818 264.332 12.6076C273.84 11.5335 283.419 13.896 291.338 19.2683C295.043 14.6361 299.907 11.066 305.437 8.91981C310.967 6.77364 316.966 6.12775 322.826 7.0476C328.686 7.96745 334.199 10.4203 338.805 14.1576C343.411 17.8949 346.948 22.7836 349.055 28.3283C350.457 27.8538 351.905 27.5259 353.374 27.3497C357.846 26.7681 362.388 27.5787 366.382 29.6713C370.376 31.7638 373.629 35.0366 375.696 39.0439C377.763 43.0513 378.545 47.5984 377.935 52.0661C377.325 56.5338 375.353 60.705 372.287 64.0116C374.422 68.1829 375.794 72.7026 376.337 77.357Z" fill="white"/>
<path d="M376.337 77.3565C377.163 84.3295 376.169 91.3977 373.452 97.8723L372.372 100.268C371.967 101.044 371.511 101.786 371.09 102.546C370.199 104.056 369.225 105.515 368.171 106.915L366.484 108.906L365.623 109.885L364.678 110.796L362.772 112.685L360.714 114.373C355.091 118.621 348.454 121.323 341.462 122.211C334.471 123.099 327.369 122.142 320.863 119.434H321.15C316.375 125.716 309.565 130.142 301.885 131.955C294.206 133.768 286.135 132.855 279.055 129.371C274.353 127.03 270.236 123.663 267.009 119.518L267.633 119.721C264.9 120.548 262.053 120.941 259.197 120.885C256.326 120.872 253.476 120.387 250.762 119.451C245.246 117.59 240.449 114.051 237.045 109.328C235.374 106.973 234.056 104.387 233.131 101.652C232.69 100.279 232.357 98.8746 232.136 97.4505C231.866 96.0322 231.731 94.5918 231.731 93.1483C231.682 87.3215 233.452 81.6247 236.792 76.8504V77.7952C230.724 70.1433 227.627 60.5563 228.07 50.8007C228.474 41.0579 232.352 31.7816 239.002 24.6498C245.678 17.5663 254.641 13.0672 264.31 11.9456C273.918 10.9123 283.582 13.3281 291.574 18.7617L290.815 18.8798C294.596 14.1862 299.558 10.5829 305.191 8.43935C310.824 6.29579 316.926 5.68915 322.871 6.68163C325.823 7.14781 328.696 8.02226 331.408 9.27985C334.13 10.4877 336.668 12.0722 338.949 13.987C343.565 17.7835 347.097 22.7301 349.19 28.3278L348.971 28.2266C351.283 27.4645 353.707 27.0994 356.141 27.1468C358.575 27.1472 360.989 27.5696 363.278 28.3953C365.564 29.2088 367.706 30.382 369.622 31.8708C372.009 33.7457 373.983 36.0932 375.42 38.7662C376.858 41.4392 377.729 44.3803 377.977 47.4052C378.226 50.4302 377.847 53.4739 376.865 56.3458C375.883 59.2177 374.319 61.856 372.27 64.0955C374.404 68.2386 375.781 72.7294 376.337 77.3565ZM376.337 77.3565C375.778 72.7302 374.401 68.24 372.27 64.0955C375.532 60.4999 377.508 55.924 377.89 51.0848C378.271 46.2455 377.037 41.4164 374.379 37.3541C373.048 35.3492 371.415 33.5622 369.537 32.0564C367.627 30.6036 365.497 29.4645 363.227 28.6821C358.658 27.1048 353.692 27.1048 349.123 28.6821H348.954V28.5303C346.834 23.0275 343.302 18.1803 338.713 14.4763C336.445 12.6192 333.929 11.0861 331.239 9.92097C328.551 8.72552 325.713 7.90246 322.803 7.4746C317.01 6.60849 311.09 7.26553 305.628 9.38108C300.191 11.5264 295.414 15.064 291.776 19.639L291.456 20.0439L291.017 19.7571C283.206 14.5106 273.771 12.2417 264.428 13.3628C255.111 14.4704 246.487 18.8393 240.082 25.6959C233.74 32.5887 230.051 41.5086 229.671 50.8672C229.291 60.2257 232.245 69.4154 238.007 76.7997L238.361 77.2553L238.024 77.7445C234.851 82.2391 233.164 87.6133 233.198 93.1145C233.181 94.4783 233.3 95.8404 233.553 97.1805C233.76 98.535 234.07 99.8717 234.481 101.179C235.357 103.77 236.595 106.224 238.159 108.468C241.391 112.932 245.913 116.3 251.116 118.118C253.705 119.046 256.431 119.537 259.181 119.569C261.929 119.659 264.674 119.312 267.313 118.54L267.701 118.422L267.937 118.742C271.02 122.793 274.976 126.097 279.511 128.41C284.075 130.713 289.11 131.931 294.222 131.969C299.335 132.007 304.387 130.864 308.985 128.629C313.608 126.387 317.65 123.108 320.795 119.046L320.914 118.911H321.082C327.512 121.663 334.552 122.675 341.497 121.847C348.443 120.969 355.042 118.3 360.646 114.103L362.687 112.416L364.594 110.627L365.539 109.716L366.399 108.738L368.086 106.764C369.146 105.378 370.12 103.93 371.005 102.428C371.444 101.668 371.899 100.926 372.304 100.15L373.384 97.7711C376.114 91.3352 377.131 84.3021 376.337 77.3565Z" fill="#263238"/>
<path d="M324.49 76.2602L323.225 82.3339C323.115 82.9434 322.883 83.5243 322.541 84.0409C322.2 84.5575 321.757 84.999 321.239 85.3385C320.721 85.678 320.139 85.9083 319.529 86.0154C318.919 86.1225 318.294 86.1041 317.691 85.9613C316.478 85.7057 315.415 84.98 314.735 83.943C314.056 82.906 313.814 81.642 314.064 80.4274L316.088 70.7094C316.088 70.6251 316.206 70.7094 316.223 70.5407C316.24 70.372 316.139 70.4226 316.223 70.3382C316.506 69.1402 317.238 68.0962 318.267 67.4213C319.297 66.7465 320.546 66.4922 321.757 66.7109C323.148 67.0395 324.59 67.0862 325.999 66.848C327.409 66.6099 328.756 66.0919 329.961 65.3244C331.167 64.557 332.206 63.5558 333.018 62.38C333.831 61.2041 334.399 59.8774 334.69 58.4783C334.981 57.0791 334.988 55.6358 334.712 54.2337C334.436 52.8316 333.881 51.499 333.082 50.3147C332.282 49.1304 331.253 48.1184 330.055 47.3383C328.858 46.5583 327.517 46.0262 326.11 45.7733C324.297 45.3848 322.413 45.483 320.65 46.0579C318.887 46.6327 317.307 47.6638 316.071 49.0464C315.656 49.5191 315.15 49.904 314.583 50.1784C314.016 50.4528 313.4 50.6112 312.772 50.6442C312.143 50.6772 311.514 50.5842 310.922 50.3707C310.329 50.1571 309.786 49.8273 309.323 49.4007C308.411 48.5633 307.869 47.3984 307.815 46.1616C307.761 44.9248 308.2 43.7172 309.036 42.8039C311.254 40.3239 314.054 38.4341 317.184 37.3045C320.314 36.175 323.676 35.841 326.967 36.3327C330.258 36.8245 333.375 38.1264 336.038 40.1215C338.701 42.1166 340.826 44.7424 342.223 47.7625C343.62 50.7827 344.244 54.1027 344.039 57.4239C343.834 60.7451 342.808 63.9633 341.051 66.7893C339.294 69.6152 336.862 71.9602 333.975 73.6134C331.087 75.2666 327.834 76.1761 324.507 76.2602H324.49ZM320.256 96.7422L319.901 98.4294C319.794 99.04 319.563 99.6222 319.222 100.14C318.881 100.658 318.438 101.101 317.919 101.44C317.401 101.78 316.818 102.01 316.207 102.116C315.596 102.222 314.97 102.202 314.367 102.057C313.154 101.801 312.091 101.075 311.412 100.038C310.732 99.0014 310.49 97.7374 310.74 96.5229L311.094 94.8357C311.362 93.629 312.09 92.5746 313.124 91.897C314.157 91.2194 315.415 90.9723 316.628 91.2083C317.233 91.3266 317.809 91.5647 318.32 91.9086C318.832 92.2526 319.27 92.6954 319.608 93.211C319.946 93.7267 320.177 94.3047 320.288 94.9112C320.4 95.5176 320.389 96.1402 320.256 96.7422Z" fill="#1047F7"/>
<path d="M275.866 63.9264L275.107 57.7683C275.015 57.1566 275.048 56.5325 275.205 55.9341C275.362 55.3357 275.639 54.7755 276.019 54.2877C276.4 53.7999 276.876 53.3947 277.418 53.0968C277.96 52.7989 278.557 52.6145 279.173 52.555C279.782 52.4795 280.401 52.5247 280.992 52.6882C281.584 52.8517 282.138 53.1302 282.622 53.5078C283.106 53.8854 283.511 54.3547 283.814 54.8889C284.117 55.4231 284.311 56.0117 284.386 56.6211L285.601 66.474C285.601 66.474 285.601 66.5753 285.601 66.6765C285.601 66.7777 285.719 66.6765 285.719 66.8452C285.837 68.0712 285.482 69.2959 284.726 70.2683C283.97 71.2407 282.87 71.8872 281.653 72.0754C280.234 72.2169 278.857 72.6409 277.604 73.3223C276.351 74.0037 275.247 74.9288 274.357 76.0432C273.467 77.1575 272.809 78.4387 272.421 79.8113C272.033 81.1838 271.924 82.6201 272.099 84.0355C272.275 85.4509 272.732 86.817 273.443 88.0532C274.154 89.2895 275.106 90.3711 276.241 91.2343C277.376 92.0975 278.673 92.7249 280.054 93.0796C281.436 93.4343 282.874 93.5092 284.285 93.2998C286.124 93.0735 287.87 92.3685 289.351 91.2552C290.831 90.1419 291.993 88.6595 292.721 86.9561C292.962 86.3802 293.315 85.8581 293.76 85.42C294.204 84.9819 294.732 84.6366 295.311 84.4042C295.89 84.1719 296.51 84.0571 297.134 84.0665C297.758 84.0759 298.374 84.2093 298.947 84.4591C299.509 84.7027 300.018 85.0554 300.443 85.4967C300.868 85.938 301.202 86.4592 301.425 87.0303C301.647 87.6013 301.755 88.2108 301.741 88.8235C301.727 89.4363 301.591 90.0402 301.342 90.6003C300.038 93.6518 297.996 96.332 295.401 98.4006C292.806 100.469 289.738 101.862 286.473 102.453C283.207 103.045 279.846 102.817 276.69 101.79C273.534 100.763 270.683 98.9694 268.39 96.5695C266.098 94.1695 264.437 91.2384 263.556 88.0388C262.676 84.8391 262.602 81.4709 263.343 78.236C264.084 75.001 265.616 72.0004 267.801 69.5031C269.987 67.0057 272.758 65.0896 275.866 63.9264ZM273.302 43.1744L273.082 41.4873C272.993 40.875 273.028 40.2508 273.185 39.6524C273.343 39.0539 273.62 38.4936 274 38.005C274.38 37.5164 274.855 37.1097 275.396 36.8093C275.937 36.5089 276.533 36.3211 277.149 36.2571C278.383 36.1092 279.625 36.4554 280.605 37.2204C281.585 37.9853 282.223 39.1068 282.379 40.34L282.581 42.0272C282.716 43.2545 282.366 44.4859 281.607 45.4595C280.847 46.4331 279.738 47.0721 278.515 47.2405C277.905 47.323 277.284 47.2827 276.689 47.122C276.095 46.9613 275.538 46.6833 275.053 46.3046C274.567 45.9258 274.162 45.4538 273.861 44.9162C273.561 44.3787 273.37 43.7865 273.302 43.1744Z" fill="#1047F7"/>
</svg>
