<svg width="1336" height="729" viewBox="0 0 1336 729" fill="none" xmlns="http://www.w3.org/2000/svg">
<path d="M379.513 209.101H68.9507V418.384H379.513V209.101Z" fill="white"/>
<path d="M380.506 419.397H67.938V208.088H380.506V419.397ZM69.9636 417.371H378.48V210.113H69.9636V417.371Z" fill="#EBEBEB"/>
<path d="M98.9495 224.94C98.9495 226.355 98.5302 227.737 97.7445 228.913C96.9588 230.089 95.8421 231.005 94.5355 231.546C93.229 232.088 91.7913 232.229 90.4043 231.953C89.0172 231.677 87.7432 230.996 86.7432 229.996C85.7432 228.996 85.0622 227.722 84.7863 226.335C84.5104 224.948 84.652 223.511 85.1932 222.204C85.7344 220.897 86.6509 219.781 87.8267 218.995C89.0026 218.209 90.385 217.79 91.7992 217.79C93.6956 217.79 95.5143 218.543 96.8553 219.884C98.1962 221.225 98.9495 223.044 98.9495 224.94Z" fill="#37474F"/>
<path d="M128.159 224.94C128.159 226.355 127.739 227.737 126.953 228.913C126.168 230.089 125.051 231.005 123.745 231.546C122.438 232.088 121 232.229 119.613 231.953C118.226 231.677 116.952 230.996 115.952 229.996C114.952 228.996 114.271 227.722 113.995 226.335C113.719 224.948 113.861 223.511 114.402 222.204C114.943 220.897 115.86 219.781 117.036 218.995C118.212 218.209 119.594 217.79 121.008 217.79C122.905 217.79 124.723 218.543 126.064 219.884C127.405 221.225 128.159 223.044 128.159 224.94Z" fill="#EBEBEB"/>
<path d="M157.388 224.94C157.392 226.36 156.974 227.749 156.188 228.932C155.401 230.114 154.282 231.036 152.971 231.581C151.66 232.127 150.216 232.27 148.823 231.994C147.43 231.718 146.151 231.035 145.147 230.031C144.143 229.027 143.459 227.747 143.183 226.355C142.907 224.962 143.051 223.518 143.596 222.207C144.142 220.896 145.064 219.776 146.246 218.99C147.428 218.204 148.818 217.786 150.237 217.79C152.134 217.79 153.953 218.543 155.293 219.884C156.634 221.225 157.388 223.044 157.388 224.94Z" fill="#1047F7"/>
<path d="M379.513 239.626H68.9507V241.652H379.513V239.626Z" fill="#EBEBEB"/>
<path d="M1315.31 355.104H1004.75V564.388H1315.31V355.104Z" fill="white"/>
<path d="M1316.32 565.4H1003.74V354.091H1316.32V565.4ZM1005.76 563.374H1314.3V356.116H1005.76V563.374Z" fill="#EBEBEB"/>
<path d="M1034.75 370.944C1034.75 372.358 1034.33 373.741 1033.54 374.917C1032.76 376.093 1031.64 377.009 1030.33 377.55C1029.03 378.091 1027.59 378.233 1026.2 377.957C1024.82 377.681 1023.54 377 1022.54 376C1021.54 375 1020.86 373.726 1020.59 372.339C1020.31 370.952 1020.45 369.514 1020.99 368.208C1021.53 366.901 1022.45 365.785 1023.63 364.999C1024.8 364.213 1026.18 363.794 1027.6 363.794C1029.49 363.794 1031.31 364.547 1032.65 365.888C1034 367.229 1034.75 369.048 1034.75 370.944Z" fill="#37474F"/>
<path d="M1063.96 370.945C1063.96 372.356 1063.54 373.736 1062.76 374.911C1061.97 376.085 1060.86 377.002 1059.56 377.544C1058.25 378.087 1056.82 378.233 1055.43 377.962C1054.05 377.691 1052.77 377.016 1051.77 376.022C1050.77 375.028 1050.08 373.759 1049.8 372.376C1049.52 370.993 1049.65 369.558 1050.18 368.25C1050.72 366.942 1051.62 365.822 1052.79 365.029C1053.96 364.236 1055.33 363.806 1056.75 363.794C1057.69 363.786 1058.63 363.965 1059.5 364.321C1060.38 364.677 1061.17 365.202 1061.84 365.867C1062.51 366.532 1063.04 367.323 1063.41 368.194C1063.77 369.066 1063.96 370 1063.96 370.945Z" fill="#EBEBEB"/>
<path d="M1093.21 370.944C1093.21 372.358 1092.79 373.741 1092 374.917C1091.22 376.093 1090.1 377.009 1088.79 377.55C1087.49 378.091 1086.05 378.233 1084.66 377.957C1083.27 377.681 1082 377 1081 376C1080 375 1079.32 373.726 1079.04 372.339C1078.77 370.952 1078.91 369.514 1079.45 368.208C1079.99 366.901 1080.91 365.785 1082.08 364.999C1083.26 364.213 1084.64 363.794 1086.06 363.794C1087.95 363.794 1089.77 364.547 1091.11 365.888C1092.45 367.229 1093.21 369.048 1093.21 370.944Z" fill="#1047F7"/>
<path d="M1315.31 385.63H1004.75V387.655H1315.31V385.63Z" fill="#EBEBEB"/>
<path d="M287.187 414.495C287.19 418.813 286.341 423.089 284.69 427.079C283.039 431.068 280.617 434.694 277.564 437.747C274.511 440.8 270.885 443.222 266.896 444.873C262.906 446.524 258.63 447.372 254.312 447.37C253.724 447.37 253.177 447.37 252.631 447.37L194.132 447.491C185.551 447.278 177.394 443.72 171.401 437.576C165.407 431.432 162.052 423.189 162.052 414.606C162.052 406.023 165.407 397.78 171.401 391.636C177.394 385.492 185.551 381.934 194.132 381.721H252.084C252.833 381.721 253.562 381.721 254.312 381.721C263.012 381.726 271.355 385.177 277.516 391.32C283.678 397.462 287.155 405.795 287.187 414.495Z" fill="#A6A6A6"/>
<path d="M194.497 415.568C194.556 414.342 194.956 413.156 195.651 412.145C195.935 411.679 196.259 411.233 196.563 410.788L198.588 408.762C199.338 408.215 200.107 407.628 200.877 407.121C204.053 405.097 207.599 403.72 211.309 403.07C219.854 401.369 228.651 401.369 237.196 403.07C240.85 403.74 244.338 405.116 247.466 407.121C248.296 407.668 249.066 408.276 249.856 408.843L251.881 410.747C252.388 411.484 252.855 412.248 253.279 413.036C253.61 413.84 253.888 414.666 254.109 415.507H253.522H237.176C237.033 415.556 236.879 415.556 236.736 415.508C236.594 415.461 236.47 415.368 236.386 415.244C235.928 414.347 235.241 413.588 234.394 413.043C233.547 412.499 232.571 412.189 231.565 412.145C226.641 411.831 221.702 411.831 216.778 412.145C215.771 412.185 214.793 412.493 213.946 413.038C213.098 413.583 212.411 414.344 211.957 415.244C211.815 415.467 211.714 415.629 211.39 415.629H194.517L194.497 415.568Z" fill="white"/>
<path d="M194.476 425.129V419.295C194.476 419.153 194.476 419.011 194.476 418.91H211.228C211.228 419.275 211.228 419.7 211.228 420.126C211.228 421.766 211.228 423.407 211.228 425.048C211.273 425.337 211.248 425.633 211.157 425.912C211.066 426.19 210.911 426.443 210.704 426.651C210.497 426.858 210.244 427.013 209.965 427.104C209.686 427.195 209.39 427.219 209.101 427.175H196.623C196.34 427.22 196.05 427.199 195.776 427.114C195.501 427.029 195.251 426.882 195.043 426.684C194.835 426.486 194.676 426.242 194.577 425.972C194.479 425.703 194.444 425.414 194.476 425.129Z" fill="white"/>
<path d="M237.135 425.21C237.135 423.184 237.135 421.017 237.297 418.931H253.806C253.806 419.032 253.806 419.174 253.806 419.295C253.806 421.321 253.806 423.205 253.806 425.169C253.838 425.443 253.808 425.721 253.718 425.982C253.628 426.242 253.479 426.479 253.284 426.674C253.089 426.869 252.853 427.017 252.592 427.107C252.331 427.198 252.054 427.228 251.78 427.195H239.14C238.871 427.227 238.598 427.198 238.341 427.11C238.085 427.022 237.852 426.877 237.659 426.686C237.466 426.495 237.319 426.263 237.228 426.008C237.138 425.752 237.106 425.48 237.135 425.21Z" fill="white"/>
<path d="M1297.57 361.626C1296.69 360.187 1296.22 358.533 1296.22 356.846C1296.22 355.159 1296.69 353.505 1297.57 352.066C1298.05 351.276 1298.52 350.445 1298.97 349.615C1299.41 348.784 1299.84 347.933 1300.24 347.083C1300.94 345.554 1302.04 344.247 1303.43 343.307C1304.82 342.367 1306.44 341.83 1308.12 341.755L1319.87 341.391L1318.67 303.148L1306.86 303.492C1305.2 303.517 1303.56 303.08 1302.13 302.228C1300.7 301.377 1299.53 300.146 1298.76 298.671C1297.87 297.04 1296.89 295.458 1295.83 293.931C1294.85 292.549 1294.27 290.924 1294.15 289.235C1294.03 287.545 1294.38 285.855 1295.16 284.35L1300.71 274.02L1266.96 255.911L1261.43 266.242C1260.61 267.729 1259.4 268.96 1257.92 269.8C1256.44 270.64 1254.76 271.056 1253.07 271.002C1251.21 270.961 1249.35 271.022 1247.5 271.184C1245.84 271.36 1244.16 271.075 1242.65 270.36C1241.14 269.646 1239.86 268.529 1238.95 267.133L1232.71 257.005L1200.18 277.261L1206.4 287.389C1207.27 288.794 1207.73 290.415 1207.73 292.068C1207.73 293.721 1207.27 295.341 1206.4 296.747C1205.89 297.598 1205.4 298.448 1204.94 299.34C1204.47 300.231 1204.01 301.102 1203.6 301.993C1202.9 303.502 1201.8 304.787 1200.41 305.702C1199.02 306.618 1197.4 307.13 1195.74 307.179L1183.99 307.543L1185.17 345.806L1196.9 345.422C1198.54 345.381 1200.17 345.792 1201.59 346.61C1203.02 347.428 1204.2 348.621 1205 350.06C1205.97 351.845 1207.04 353.576 1208.2 355.246C1209.14 356.605 1209.69 358.2 1209.78 359.853C1209.87 361.506 1209.5 363.151 1208.71 364.604L1203.18 374.934L1237.02 392.84L1242.55 382.51C1243.37 381.023 1244.59 379.793 1246.07 378.957C1247.54 378.12 1249.22 377.709 1250.92 377.77C1252.78 377.811 1254.65 377.75 1256.51 377.588C1258.18 377.422 1259.86 377.723 1261.37 378.456C1262.88 379.189 1264.16 380.326 1265.06 381.74L1271.28 391.767L1303.81 371.511L1297.57 361.626ZM1240.85 353.727C1234.74 351.391 1229.51 347.202 1225.89 341.745C1222.28 336.288 1220.47 329.838 1220.7 323.298C1220.94 316.757 1223.22 310.455 1227.22 305.275C1231.22 300.094 1236.74 296.294 1243 294.408C1249.27 292.522 1255.97 292.645 1262.16 294.758C1268.36 296.871 1273.74 300.869 1277.54 306.192C1281.35 311.516 1283.4 317.897 1283.39 324.441C1283.39 330.986 1281.34 337.366 1277.53 342.687C1273.5 348.311 1267.72 352.443 1261.09 354.44C1254.46 356.437 1247.36 356.186 1240.89 353.727H1240.85Z" fill="#EBEBEB"/>
<path d="M1162.28 248.478C1161.26 247.876 1160.44 247.004 1159.89 245.96C1159.34 244.917 1159.08 243.741 1159.16 242.563C1159.16 241.895 1159.16 241.247 1159.16 240.538C1159.16 239.829 1159.16 239.201 1159.16 238.512C1159.08 237.339 1159.33 236.166 1159.87 235.125C1160.42 234.084 1161.25 233.216 1162.26 232.618L1169.39 228.567L1156 205.353L1148.87 209.405C1147.84 209.984 1146.67 210.269 1145.49 210.226C1144.31 210.183 1143.17 209.814 1142.19 209.162C1141.07 208.424 1139.91 207.747 1138.72 207.136C1137.67 206.614 1136.78 205.808 1136.16 204.81C1135.53 203.812 1135.2 202.661 1135.2 201.485V193.261H1108.38V201.485C1108.37 202.661 1108.04 203.812 1107.42 204.81C1106.8 205.808 1105.91 206.614 1104.85 207.136C1103.67 207.743 1102.52 208.419 1101.41 209.162C1100.42 209.818 1099.28 210.189 1098.09 210.232C1096.91 210.275 1095.74 209.988 1094.71 209.405L1087.6 205.353L1074.19 228.587L1081.34 232.638C1082.35 233.236 1083.18 234.103 1083.73 235.144C1084.28 236.184 1084.53 237.358 1084.46 238.532C1084.46 239.181 1084.46 239.829 1084.46 240.558C1084.46 241.287 1084.46 241.875 1084.46 242.584C1084.53 243.764 1084.28 244.942 1083.72 245.986C1083.17 247.03 1082.34 247.9 1081.32 248.498L1074.19 252.55L1087.6 275.763L1094.69 271.712C1095.71 271.124 1096.88 270.834 1098.06 270.873C1099.24 270.913 1100.39 271.28 1101.37 271.934C1102.5 272.668 1103.66 273.344 1104.85 273.96C1105.91 274.488 1106.79 275.297 1107.42 276.298C1108.04 277.299 1108.37 278.453 1108.38 279.632V287.835H1135.2V279.53C1135.2 278.352 1135.54 277.198 1136.16 276.197C1136.78 275.195 1137.67 274.386 1138.72 273.859C1139.92 273.247 1141.08 272.571 1142.21 271.833C1143.19 271.179 1144.34 270.811 1145.52 270.772C1146.7 270.733 1147.86 271.023 1148.89 271.61L1156 275.661L1169.39 252.448L1162.28 248.478ZM1121.77 262.657C1117.43 262.637 1113.19 261.334 1109.6 258.911C1106 256.489 1103.2 253.055 1101.54 249.043C1099.89 245.032 1099.47 240.621 1100.32 236.367C1101.17 232.114 1103.26 228.207 1106.33 225.139C1109.4 222.072 1113.3 219.981 1117.56 219.13C1121.81 218.278 1126.22 218.705 1130.23 220.356C1134.24 222.007 1137.68 224.808 1140.1 228.407C1142.52 232.005 1143.83 236.24 1143.85 240.578C1143.85 243.47 1143.28 246.332 1142.17 249.003C1141.06 251.673 1139.43 254.099 1137.39 256.14C1135.34 258.182 1132.91 259.8 1130.24 260.9C1127.56 262.001 1124.7 262.564 1121.81 262.556L1121.77 262.657Z" fill="#EBEBEB"/>
<path d="M189.534 186.353L202.923 209.566L210.033 205.515C211.061 204.935 212.229 204.651 213.409 204.694C214.589 204.737 215.734 205.105 216.717 205.758C217.841 206.496 219.004 207.172 220.201 207.784C221.253 208.308 222.14 209.114 222.762 210.111C223.384 211.109 223.718 212.259 223.726 213.435V221.659H250.564V213.435C250.572 212.259 250.906 211.109 251.528 210.111C252.15 209.114 253.037 208.308 254.089 207.784C255.284 207.168 256.447 206.492 257.573 205.758C258.556 205.105 259.701 204.737 260.881 204.694C262.061 204.651 263.229 204.935 264.257 205.515L271.367 209.566L284.736 186.353L277.606 182.302C276.56 181.692 275.709 180.796 275.153 179.72C274.597 178.644 274.359 177.432 274.466 176.225C274.466 175.557 274.466 174.909 274.466 174.2C274.466 173.491 274.466 172.883 274.466 172.174C274.39 170.999 274.641 169.826 275.192 168.785C275.742 167.745 276.571 166.877 277.586 166.28L284.736 162.228L271.347 138.995L264.217 143.046C263.189 143.626 262.02 143.91 260.84 143.867C259.661 143.824 258.516 143.456 257.532 142.803C256.416 142.065 255.259 141.389 254.069 140.778C253.016 140.253 252.13 139.448 251.508 138.45C250.885 137.452 250.552 136.302 250.544 135.126V126.902H223.726V135.126C223.718 136.302 223.384 137.452 222.762 138.45C222.14 139.448 221.253 140.253 220.201 140.778C219.01 141.389 217.854 142.065 216.737 142.803C215.754 143.456 214.609 143.824 213.429 143.867C212.25 143.91 211.081 143.626 210.053 143.046L202.923 138.995L189.534 162.228L196.664 166.28C197.676 166.878 198.502 167.746 199.05 168.787C199.597 169.828 199.844 171.001 199.763 172.174C199.763 172.822 199.763 173.491 199.763 174.2C199.763 174.909 199.763 175.516 199.763 176.225C199.839 177.403 199.587 178.579 199.037 179.622C198.486 180.666 197.658 181.537 196.644 182.14L189.534 186.353ZM215.157 174.2C215.157 169.852 216.447 165.602 218.863 161.987C221.278 158.373 224.712 155.556 228.729 153.893C232.746 152.23 237.166 151.796 241.43 152.646C245.694 153.496 249.61 155.591 252.683 158.666C255.755 161.742 257.847 165.66 258.693 169.924C259.538 174.189 259.1 178.609 257.434 182.624C255.767 186.64 252.947 190.071 249.33 192.483C245.713 194.896 241.462 196.181 237.115 196.177C234.229 196.177 231.373 195.609 228.707 194.504C226.042 193.399 223.62 191.78 221.581 189.739C219.542 187.698 217.925 185.275 216.823 182.609C215.721 179.942 215.155 177.085 215.157 174.2Z" fill="#EBEBEB"/>
<path d="M724.565 207.509C740.459 143.667 701.589 79.0281 637.747 63.1342C573.905 47.2403 509.267 86.1098 493.373 149.952C477.479 213.794 516.348 278.432 580.19 294.326C644.032 310.22 708.671 271.351 724.565 207.509Z" fill="#EBEBEB"/>
<path d="M697.088 200.74C709.288 152.026 679.687 102.646 630.973 90.4459C582.259 78.246 532.879 107.846 520.679 156.56C508.479 205.274 538.08 254.655 586.793 266.855C635.507 279.055 684.888 249.454 697.088 200.74Z" fill="white"/>
<path d="M671.972 194.599C680.746 159.8 659.648 124.478 624.849 115.705C590.05 106.932 554.727 128.03 545.954 162.829C537.181 197.628 558.279 232.95 593.078 241.723C627.877 250.496 663.199 229.398 671.972 194.599Z" fill="#EBEBEB"/>
<path d="M643.731 187.512C648.61 168.286 636.98 148.746 617.755 143.867C598.53 138.988 578.99 150.618 574.111 169.843C569.232 189.068 580.861 208.609 600.086 213.487C619.312 218.366 638.852 206.737 643.731 187.512Z" fill="white"/>
<path d="M624.711 182.737C626.929 174.043 621.679 165.198 612.985 162.98C604.292 160.763 595.446 166.013 593.229 174.706C591.011 183.4 596.261 192.245 604.955 194.463C613.648 196.68 622.493 191.43 624.711 182.737Z" fill="#EBEBEB"/>
<path d="M753.132 31.2018L616.677 167.657L619.957 170.937L756.412 34.4817L753.132 31.2018Z" fill="#C7C7C7"/>
<path d="M626.756 173.916L608.931 178.696L613.691 160.851L626.756 173.916Z" fill="#A6A6A6"/>
<path d="M777.601 23.9621L752.018 49.5452L731.944 55.6625L738.061 35.6092L763.665 10.0059L757.527 30.0794L777.601 23.9621Z" fill="#A6A6A6"/>
<path d="M0 666.457L166.969 665.971L333.917 665.789L667.834 665.444L1001.75 665.789L1168.7 665.971L1335.67 666.457L1168.7 666.964L1001.75 667.126L667.834 667.47L333.917 667.126L166.969 666.943L0 666.457Z" fill="#263238"/>
<path d="M422.496 678.408H143.351L121.738 488.813H400.883L422.496 678.408Z" fill="#37474F"/>
<path d="M407.284 665.687H155.666L136.95 501.534H388.568L407.284 665.687Z" fill="white"/>
<path d="M580.289 665.688H293.77V678.408H580.289V665.688Z" fill="#37474F"/>
<path d="M580.269 665.688H436.067V678.408H580.269V665.688Z" fill="#263238"/>
<path d="M318.401 501.534L155.524 664.411L150.663 621.813L270.922 501.534H318.401Z" fill="#EBEBEB"/>
<path d="M403.03 628.295L365.638 665.687H318.158L398.169 585.677L403.03 628.295Z" fill="#EBEBEB"/>
<path d="M168.124 501.534L140.15 529.507L138.489 514.984L151.939 501.534H168.124Z" fill="#EBEBEB"/>
<path d="M395.049 558.291L287.653 665.687H271.448L393.388 543.747L395.049 558.291Z" fill="#EBEBEB"/>
<path d="M189.23 501.534L142.297 548.467L141.892 544.821L185.179 501.534H189.23Z" fill="#EBEBEB"/>
<path d="M341.675 501.534L177.522 665.687H173.471L337.624 501.534H341.675Z" fill="#EBEBEB"/>
<path d="M392.315 534.288L260.915 665.687H256.864L391.91 530.642L392.315 534.288Z" fill="#EBEBEB"/>
<path d="M911.512 678.408H1190.68L1212.27 488.813H933.125L911.512 678.408Z" fill="#37474F"/>
<path d="M926.724 665.687H1178.36L1197.06 501.534H945.441L926.724 665.687Z" fill="white"/>
<path d="M1040.26 665.688H753.74V678.408H1040.26V665.688Z" fill="#37474F"/>
<path d="M897.941 665.688H753.74V678.408H897.941V665.688Z" fill="#263238"/>
<path d="M1189.83 565.117L1183.71 618.714L1136.74 665.687H1089.26L1189.83 565.117Z" fill="#EBEBEB"/>
<path d="M1100.6 501.534L936.467 665.687H926.724L931.586 623.089L1053.14 501.534H1100.6Z" fill="#EBEBEB"/>
<path d="M993.67 501.534L939.242 555.962L941.329 537.671L977.465 501.534H993.67Z" fill="#EBEBEB"/>
<path d="M1172.71 501.534L1008.56 665.687H992.353L1156.51 501.534H1172.71Z" fill="#EBEBEB"/>
<path d="M1192.16 544.659L1191.65 549.237L1075.2 665.688H1071.15L1192.16 544.659Z" fill="#EBEBEB"/>
<path d="M1189.71 501.534L1025.57 665.687H1021.52L1185.67 501.534H1189.71Z" fill="#EBEBEB"/>
<path d="M1036.81 501.534L933.672 604.677L934.199 600.099L1032.76 501.534H1036.81Z" fill="#EBEBEB"/>
<path d="M402.726 392.963C437.343 462.866 488.611 532.728 502.344 545.813C539.25 581.22 637.775 606.682 666.822 607.492C679.36 607.837 696.699 524.545 687.442 514.842C678.185 505.14 556.549 478.665 550.027 473.682C545.51 470.138 487.558 414.981 449.072 382.227C401.207 341.533 393.631 374.53 402.726 392.963Z" fill="#F7A9A0"/>
<path d="M660.583 503.195L629.166 602.347C629.166 602.347 526.226 575.265 498.678 548.771C471.13 522.276 414.069 427.438 402.929 396.163C391.788 364.888 399.04 340.196 449.517 380.769C499.995 421.341 542.795 462.845 551.728 469.53C560.661 476.214 660.583 503.195 660.583 503.195Z" fill="#455A64"/>
<path d="M628.7 507.165C628.852 508.155 629.294 509.078 629.971 509.817C630.647 510.556 631.528 511.077 632.501 511.315C633.474 511.554 634.495 511.498 635.437 511.156C636.378 510.813 637.197 510.199 637.789 509.392C638.382 508.584 638.721 507.618 638.765 506.618C638.808 505.617 638.554 504.626 638.035 503.769C637.515 502.913 636.753 502.23 635.845 501.807C634.937 501.384 633.924 501.239 632.934 501.392C631.607 501.597 630.416 502.32 629.622 503.402C628.828 504.485 628.497 505.838 628.7 507.165Z" fill="#263238"/>
<path d="M603.482 499.893C603.63 500.885 604.069 501.81 604.744 502.552C605.418 503.294 606.298 503.819 607.271 504.06C608.245 504.301 609.268 504.248 610.211 503.908C611.154 503.567 611.974 502.954 612.569 502.146C613.163 501.339 613.504 500.373 613.549 499.371C613.594 498.37 613.34 497.377 612.82 496.52C612.301 495.662 611.538 494.979 610.629 494.555C609.72 494.131 608.706 493.987 607.715 494.141C607.059 494.24 606.429 494.467 605.861 494.81C605.293 495.153 604.798 495.604 604.405 496.139C604.012 496.673 603.728 497.28 603.569 497.924C603.411 498.568 603.381 499.238 603.482 499.893Z" fill="#263238"/>
<path d="M553.227 577.776C530.682 569.026 509.191 558.837 498.678 548.77C471.13 522.437 414.07 427.438 402.929 396.163C395.799 376.17 396.184 358.872 410.565 359.581L553.227 577.776Z" fill="#263238"/>
<path d="M238.533 665.646H498.415C499.468 656.146 445.993 391.342 420.531 358.143C415.082 351.033 397.115 349.068 381.863 350.972C377.878 351.425 373.94 352.225 370.094 353.362C369.971 353.418 369.842 353.458 369.709 353.484C366.6 354.376 363.672 355.809 361.06 357.717C318.584 391.686 236.487 663.317 238.533 665.646Z" fill="#455A64"/>
<path d="M399.384 418.06L410.444 396.548L424.704 412.104L421.22 427.6L407.122 429.403L399.384 418.06Z" fill="#263238"/>
<path d="M407.122 429.403L400.397 587.662L430.051 640.003L445.446 581.099L421.22 427.601L407.122 429.403Z" fill="#263238"/>
<path d="M406.717 393.672C402.666 393.51 375.482 372.282 367.137 355.733C366.57 354.598 368.676 342.931 370.56 328.61C371.654 319.92 372.586 310.218 372.991 301.305C372.991 299.462 379.169 303.047 379.169 303.047L390.613 306.207L428.492 316.76C428.492 316.76 422.415 335.274 421.929 350.831C421.911 352.065 421.999 353.298 422.192 354.517C422.206 354.72 422.206 354.923 422.192 355.125C423.164 362.113 413.421 393.935 406.717 393.672Z" fill="#F7A9A0"/>
<path d="M422.192 354.477C422.206 354.679 422.206 354.882 422.192 355.084C420.28 355.273 418.357 355.307 416.44 355.186C378.784 353.16 375.685 305.032 375.685 305.032L390.553 306.167L428.431 316.72C428.431 316.72 422.354 335.234 421.868 350.79C421.871 352.026 421.979 353.259 422.192 354.477Z" fill="#263238"/>
<path d="M364.2 235.757C358.508 255.709 370.094 312.851 384.456 325.369C405.258 343.599 438.802 344.652 454.075 319.738C468.882 295.613 452.495 221.416 436.493 210.093C412.956 193.422 372.586 206.264 364.2 235.757Z" fill="#F7A9A0"/>
<path d="M420.713 269.017C420.713 268.875 420.45 269.26 420.491 269.402C421.362 273.23 421.747 277.768 418.465 279.733C418.364 279.733 418.465 279.996 418.465 279.955C422.739 278.497 422.233 272.501 420.713 269.017Z" fill="#263238"/>
<path d="M416.541 265.675C410.261 266.424 412.226 278.942 418.04 278.254C423.853 277.565 421.807 265.026 416.541 265.675Z" fill="#263238"/>
<path d="M443.339 266.121C443.339 265.959 443.663 266.242 443.684 266.404C444.17 270.314 445.385 274.689 449.092 275.418C449.213 275.418 449.234 275.641 449.092 275.641C444.717 275.722 443.177 269.888 443.339 266.121Z" fill="#263238"/>
<path d="M446.155 261.523C452.232 260.065 454.784 272.502 449.072 273.839C443.36 275.175 440.969 262.738 446.155 261.523Z" fill="#263238"/>
<path d="M410.707 260.713C412.279 259.977 413.807 259.152 415.285 258.241C417.02 257.6 418.494 256.404 419.478 254.838C419.689 254.285 419.712 253.678 419.544 253.111C419.375 252.543 419.025 252.047 418.546 251.699C417.494 251.155 416.316 250.902 415.134 250.966C413.952 251.03 412.808 251.409 411.821 252.063C409.622 253.084 407.876 254.88 406.919 257.107C406.731 257.629 406.698 258.194 406.826 258.733C406.953 259.273 407.235 259.764 407.636 260.146C408.038 260.529 408.542 260.786 409.087 260.886C409.633 260.987 410.195 260.927 410.707 260.713Z" fill="#263238"/>
<path d="M450.003 254.454C448.221 254.454 446.58 254.129 444.838 253.947C442.987 254.026 441.162 253.484 439.653 252.408C439.237 251.987 438.974 251.438 438.908 250.851C438.842 250.263 438.976 249.669 439.288 249.167C440.048 248.26 441.036 247.572 442.15 247.173C443.265 246.774 444.465 246.679 445.628 246.898C448.054 246.988 450.362 247.968 452.11 249.653C452.48 250.064 452.724 250.574 452.812 251.12C452.9 251.666 452.829 252.226 452.606 252.733C452.384 253.24 452.02 253.672 451.558 253.977C451.097 254.282 450.557 254.448 450.003 254.454Z" fill="#263238"/>
<path d="M422.84 305.579C423.914 306.329 425.048 307.443 426.466 307.341C427.918 307.091 429.3 306.531 430.517 305.701C430.543 305.691 430.57 305.689 430.597 305.695C430.623 305.701 430.648 305.714 430.667 305.733C430.686 305.753 430.699 305.777 430.705 305.803C430.711 305.83 430.709 305.858 430.7 305.883C430.268 306.731 429.614 307.447 428.808 307.953C428.002 308.46 427.073 308.738 426.122 308.759C425.296 308.676 424.514 308.351 423.872 307.825C423.231 307.299 422.759 306.595 422.516 305.802C422.415 305.599 422.739 305.458 422.84 305.579Z" fill="#263238"/>
<path d="M437.627 296.038C436.322 298.429 434.425 300.445 432.117 301.892C430.84 302.642 429.358 302.969 427.884 302.824C424.643 302.5 424.137 299.684 424.319 297.152C424.427 295.816 424.692 294.497 425.109 293.223C428.876 295.469 433.261 296.455 437.627 296.038Z" fill="white"/>
<path d="M425.109 293.324C426.347 294.697 427.854 295.8 429.538 296.563C431.221 297.326 433.044 297.734 434.893 297.76C436.511 297.81 438.128 297.626 439.693 297.213C439.998 297.163 440.297 297.082 440.584 296.97C440.848 296.97 441.111 296.828 441.415 296.707C441.614 296.632 441.782 296.495 441.896 296.316C442.009 296.137 442.061 295.926 442.043 295.714C442.031 295.581 441.997 295.451 441.942 295.329V294.985C441.557 291.987 440.544 287.49 440.544 287.49C441.719 287.875 447.674 289.516 447.35 287.956C444.555 275.155 441.435 260.935 435.946 248.782C435.908 248.701 435.843 248.636 435.761 248.601C435.679 248.565 435.588 248.561 435.503 248.588C435.418 248.615 435.346 248.673 435.301 248.75C435.256 248.826 435.24 248.917 435.257 249.004C437.445 261.401 441.82 273.311 444.251 285.769C442.124 285.154 439.922 284.84 437.708 284.837C437.303 285.039 439.734 293.506 439.875 294.864V295.005C434.953 296.443 430.922 295.512 425.534 292.98C425.089 292.737 424.765 293.04 425.109 293.324Z" fill="#263238"/>
<path d="M370.925 280.32C384.557 278.295 383.585 253.117 383.585 253.117C383.585 253.117 406.453 245.845 407.284 227.716C407.284 227.716 431.591 238.674 448.16 229.742C464.729 220.809 458.167 201.606 455.614 197.656C453.062 193.707 444.514 202.984 444.514 202.984C444.514 202.984 441.759 191.944 438.62 191.235C435.48 190.526 433.191 197.778 433.191 197.778C433.191 197.778 409.553 193.524 389.195 197.089C368.838 200.654 361.729 222.814 361.729 222.814C361.729 222.814 351.135 226.724 348.724 234.968C346.314 243.212 362.215 281.556 370.925 280.32Z" fill="#263238"/>
<path d="M378.176 254.088C396.65 253.845 406.919 240.051 407.021 222.307C407.033 222.271 407.056 222.24 407.087 222.218C407.118 222.196 407.155 222.185 407.193 222.185C407.231 222.185 407.267 222.196 407.298 222.218C407.329 222.24 407.352 222.271 407.365 222.307C409.188 238.512 396.731 258.767 378.115 254.939C377.589 254.818 377.609 254.088 378.176 254.088Z" fill="#263238"/>
<path d="M362.174 222.368C362.217 222.359 362.262 222.364 362.302 222.382C362.342 222.401 362.375 222.432 362.395 222.471C362.416 222.51 362.423 222.555 362.416 222.598C362.409 222.642 362.388 222.682 362.356 222.712C357.617 225.811 352.066 228.404 349.17 233.549C345.686 239.767 347.671 246.958 350.223 253.076C354.133 262.535 361.08 274.567 370.702 279.064C371.269 279.327 370.844 280.137 370.297 279.915C358.832 275.235 350.284 259.557 347.144 248.194C343.62 235.473 350.608 226.865 362.174 222.368Z" fill="#263238"/>
<path d="M427.884 229.883C436.574 233.529 448.444 231.909 455.472 225.386C464.02 217.284 460.395 206.65 454.926 198.082C454.662 197.676 455.25 197.089 455.614 197.474C462.44 204.705 464.689 216.879 457.903 224.941C451.117 233.003 436.857 235.069 427.276 231.018C426.486 230.754 427.074 229.539 427.884 229.883Z" fill="#263238"/>
<path d="M417.554 291.683C414.408 291.805 411.291 291.042 408.558 289.479C405.826 287.917 403.586 285.619 402.095 282.846C400.604 280.074 399.922 276.939 400.125 273.797C400.329 270.656 401.41 267.635 403.246 265.078C405.082 262.521 407.599 260.53 410.511 259.334C413.422 258.137 416.611 257.782 419.715 258.308C422.818 258.835 425.712 260.222 428.066 262.312C430.419 264.403 432.139 267.112 433.029 270.131C434.285 274.405 433.794 279.002 431.663 282.914C429.533 286.825 425.937 289.732 421.665 290.995C420.328 291.391 418.947 291.622 417.554 291.683ZM416.358 260.327C415.152 260.386 413.955 260.583 412.793 260.915C409.245 261.965 406.231 264.329 404.364 267.524C402.498 270.72 401.919 274.506 402.747 278.113C403.575 281.72 405.746 284.875 408.819 286.937C411.892 288.999 415.635 289.812 419.287 289.21C422.938 288.609 426.223 286.638 428.472 283.699C430.721 280.76 431.765 277.075 431.392 273.393C431.018 269.711 429.256 266.311 426.463 263.883C423.67 261.455 420.056 260.184 416.358 260.327Z" fill="#455A64"/>
<path d="M455.614 285.606C449.193 285.849 443.116 279.53 441.759 270.84C441.047 266.71 441.641 262.461 443.461 258.686C444.197 257.049 445.318 255.613 446.729 254.502C448.14 253.391 449.798 252.638 451.563 252.306C453.339 252.08 455.143 252.29 456.82 252.918C458.496 253.547 459.994 254.574 461.185 255.911C464.062 258.958 465.923 262.822 466.512 266.971C467.93 276.127 463.555 284.452 456.749 285.505C456.374 285.571 455.995 285.605 455.614 285.606ZM452.738 254.433H451.887C450.482 254.725 449.166 255.348 448.05 256.249C446.933 257.151 446.047 258.306 445.466 259.618C443.862 262.976 443.345 266.75 443.987 270.415C445.223 278.335 450.753 284.087 456.364 283.216C461.975 282.345 465.499 275.114 464.263 267.234C463.761 263.554 462.125 260.12 459.584 257.41C458.71 256.468 457.65 255.716 456.473 255.2C455.295 254.684 454.024 254.416 452.738 254.412V254.433Z" fill="#455A64"/>
<path d="M432.867 272.197L431.186 270.719C433.373 268.207 438.741 264.46 443.481 268.167L442.104 269.929C437.769 266.607 432.968 271.975 432.867 272.197Z" fill="#455A64"/>
<path d="M359.46 287.996L357.434 287.288C357.758 286.295 360.817 277.544 365.537 275.965C370.256 274.385 400.255 272.643 401.531 272.562L401.673 274.81C393.004 275.337 369.73 276.957 366.246 278.091C362.762 279.226 360.27 285.606 359.46 287.996Z" fill="#455A64"/>
<path d="M379.594 282.852C379.594 282.852 365.921 264.824 357.677 269.787C349.433 274.75 360.25 301.204 370.276 304.506C371.533 305.002 372.876 305.241 374.227 305.21C375.577 305.179 376.908 304.878 378.14 304.325C379.373 303.772 380.482 302.978 381.403 301.99C382.324 301.002 383.039 299.839 383.503 298.571L379.594 282.852Z" fill="#F7A9A0"/>
<path d="M360.979 277.302C360.817 277.302 360.797 277.504 360.979 277.565C368.028 280.097 371.917 286.376 374.733 292.919C372.565 290.448 369.709 289.151 366.367 291.724C366.338 291.758 366.32 291.801 366.315 291.846C366.311 291.891 366.32 291.937 366.342 291.976C366.364 292.016 366.398 292.048 366.438 292.068C366.479 292.088 366.525 292.095 366.57 292.089C367.774 291.656 369.082 291.607 370.315 291.948C371.548 292.289 372.645 293.003 373.457 293.993C374.808 295.647 375.97 297.447 376.92 299.36C377.285 299.968 378.379 299.583 378.115 298.874V298.732C377.812 289.901 370.479 277.808 360.979 277.302Z" fill="#263238"/>
<path d="M422.395 355.854L408.864 389.054L367.866 347.124L356.178 360.554C356.178 360.554 396.244 427.114 396.487 424.116L410.18 395.637L429.808 415.508L428.33 365.719L422.395 355.854Z" fill="#455A64"/>
<path d="M430.477 390.937C429.95 382.714 429.646 374.429 428.755 366.266C428.755 365.962 428.269 365.841 428.188 366.266C426.527 374.186 428.694 405.582 428.633 413.097C427.823 412.247 410.403 395.617 410.261 395.88C407.304 400.397 397.257 421.139 396.568 423.023C390.228 412.449 365.962 374.004 358.447 363.997C358.405 363.942 358.344 363.905 358.277 363.891C358.209 363.878 358.138 363.89 358.079 363.924C358.019 363.959 357.974 364.015 357.952 364.08C357.931 364.146 357.934 364.217 357.961 364.281C363.551 375.462 395.677 427.216 396.184 427.074C401.46 417.291 406.233 407.244 410.484 396.974C413.421 400.579 430.963 419.255 431.024 418.121C431.323 409.056 431.14 399.982 430.477 390.937Z" fill="#263238"/>
<path d="M507.347 702.188L304.972 722.221L304.323 565.339L506.699 545.286L507.347 702.188Z" fill="#1047F7"/>
<path d="M370.378 541.438L304.141 548L304.323 565.339L375.199 558.311L370.378 541.438Z" fill="#1047F7"/>
<g opacity="0.1">
<path opacity="0.1" d="M507.348 702.188L304.972 722.221L304.323 565.339L506.699 545.286L507.348 702.188Z" fill="black"/>
<path opacity="0.1" d="M370.378 541.438L304.141 548L304.323 565.339L375.199 558.311L370.378 541.438Z" fill="black"/>
</g>
<path d="M507.206 702.209L312.021 721.533L284.108 564.206L492.156 546.745L507.206 702.209Z" fill="#EBEBEB"/>
<path d="M507.206 702.208L307.058 722.018L277.14 570.808L487.537 549.985L507.206 702.208Z" fill="white"/>
<path d="M506.841 702.248L304.04 722.322L274.426 574.373L477.247 554.3L506.841 702.248Z" fill="#1047F7"/>
<path d="M333.856 381.417C264.683 444.21 214.752 552.376 216.373 581.524C218.398 620.01 288.159 685.882 333.593 704.943C345.078 709.764 389.519 615.696 372.707 610.794C354.963 605.628 313.965 568.439 311.94 566.737C307.686 563.132 340.743 480.832 354.578 430.881C370.074 374.469 362.964 355.003 333.856 381.417Z" fill="#F7A9A0"/>
<path d="M307.828 690.561C351.844 722.322 411.639 729.209 421.949 728.156C430.76 727.285 435.277 726.758 435.277 726.758C451.097 725.523 456.769 718.028 456.769 718.028C456.769 718.028 475.485 721.958 479.739 711.06C484.56 698.907 457.336 695.686 443.44 684.728C411.578 659.793 373.254 615.432 364.787 607.33L307.828 690.561Z" fill="#F7A9A0"/>
<path d="M391.687 682.135C401.207 689.285 410.383 696.557 420.815 702.391C432.279 708.771 444.372 713.005 456.586 717.623C456.652 717.659 456.703 717.715 456.731 717.784C456.76 717.853 456.763 717.93 456.742 718.001C456.721 718.072 456.676 718.134 456.614 718.176C456.552 718.218 456.478 718.237 456.404 718.231C431.802 712.659 409.196 700.456 391.039 682.945C390.613 682.621 391.201 681.79 391.687 682.135Z" fill="#263238"/>
<path d="M373.841 699.19C383.483 705.632 400.518 716.853 435.379 726.394C435.5 726.394 435.48 726.617 435.379 726.596C412.623 723.748 391.108 714.631 373.234 700.264C372.646 699.737 373.193 698.826 373.841 699.19Z" fill="#263238"/>
<path d="M406.939 652.339C404.083 647.437 406.636 645.897 415.994 649.584C425.352 653.27 459.362 675.916 466.228 663.317C473.095 650.718 424.765 619.666 408.56 614.724C392.355 609.781 364.747 607.411 364.747 607.411C372.991 615.372 391.039 636.539 406.939 652.339Z" fill="#F7A9A0"/>
<path d="M309.408 697.631L364.524 605.123C364.524 605.123 312.952 568.946 312.709 565.34C312.466 561.735 348.947 462.035 359.966 412.976C370.985 363.916 365.537 340.521 317.247 395.211C268.957 449.902 207.035 541.924 210.316 581.363C213.598 620.801 309.408 697.631 309.408 697.631Z" fill="#455A64"/>
<path d="M350.811 459.806C348.785 463.311 346.658 466.754 344.855 470.36C344.248 471.535 343.66 472.709 343.073 473.884C343.518 472.466 343.984 471.069 344.45 469.651C347.266 460.758 350 451.826 352.391 442.792C352.409 442.741 352.407 442.684 352.384 442.635C352.362 442.585 352.32 442.547 352.269 442.528C352.218 442.509 352.162 442.512 352.112 442.535C352.063 442.557 352.024 442.599 352.006 442.65C345.645 457.963 340.379 473.742 335.153 489.481C329.927 505.22 325.025 521.283 320.245 537.285C317.611 546.238 314.897 555.232 312.831 564.327C312.842 564.358 312.863 564.384 312.89 564.403C312.917 564.422 312.95 564.432 312.983 564.432C313.016 564.432 313.048 564.422 313.075 564.403C313.103 564.384 313.123 564.358 313.135 564.327C316.173 556.528 318.746 548.527 321.379 540.587C324.012 532.646 326.686 524.726 329.258 516.786C333.31 504.106 337.361 491.419 341.412 478.725C343.144 476.347 344.624 473.794 345.828 471.109C347.711 467.423 349.21 463.574 350.871 459.806H350.811Z" fill="#263238"/>
<path d="M299.624 674.398C299.313 675.35 299.291 676.373 299.561 677.338C299.831 678.302 300.381 679.165 301.142 679.817C301.903 680.469 302.84 680.881 303.835 681C304.829 681.119 305.837 680.94 306.73 680.487C307.624 680.033 308.362 679.325 308.853 678.451C309.343 677.577 309.564 676.578 309.486 675.579C309.408 674.58 309.036 673.627 308.416 672.84C307.797 672.052 306.957 671.467 306.005 671.157C304.729 670.747 303.342 670.857 302.148 671.464C300.953 672.071 300.046 673.125 299.624 674.398Z" fill="#263238"/>
<path d="M280.361 656.592C280.053 657.545 280.035 658.567 280.308 659.531C280.582 660.494 281.135 661.355 281.897 662.004C282.659 662.653 283.597 663.061 284.592 663.178C285.586 663.294 286.593 663.113 287.484 662.657C288.376 662.201 289.113 661.492 289.601 660.617C290.089 659.743 290.307 658.744 290.228 657.746C290.148 656.748 289.775 655.795 289.154 655.01C288.533 654.224 287.694 653.64 286.741 653.331C286.108 653.126 285.441 653.047 284.778 653.1C284.114 653.153 283.468 653.336 282.875 653.639C282.283 653.942 281.755 654.358 281.324 654.865C280.893 655.372 280.565 655.959 280.361 656.592Z" fill="#263238"/>
<path d="M245.723 638.342C252.104 643.77 258.1 649.604 263.954 655.478C266.911 658.436 269.848 661.393 272.745 664.391C275.641 667.389 278.497 670.468 281.353 673.526C274.758 668.429 268.53 662.871 262.718 656.896C256.717 651.027 251.044 644.833 245.723 638.342Z" fill="#263238"/>
<path d="M951.416 220.788C955.751 206.852 974.71 176.225 1005.32 185.442C1048.89 198.608 1047.23 285.019 1066.87 313.965C1102.44 366.225 1099.28 414.312 1065.58 418.87C1027.88 423.954 995.736 380.991 1005.2 295.471C1011.11 241.996 998.248 216.838 987.431 217.425C976.614 218.013 969.444 230.916 969.444 230.916L951.416 220.788Z" fill="#263238"/>
<path d="M953.3 215.542C956.127 209.126 959.725 203.079 964.015 197.534C968.326 191.823 973.784 187.076 980.038 183.598C986.48 180.064 993.871 178.646 1001.16 179.547C1008.44 180.438 1015.39 183.079 1021.42 187.244C1027.24 191.529 1032.07 197.006 1035.6 203.307C1039.08 209.494 1041.84 216.059 1043.82 222.874C1047.53 236.368 1049.7 250.236 1050.3 264.217C1048.19 250.496 1045.05 236.953 1040.91 223.705C1038.72 217.24 1035.87 211.016 1032.42 205.13C1029.05 199.322 1024.51 194.284 1019.07 190.344C1013.6 186.524 1007.31 184.053 1000.7 183.133C994.116 182.163 987.394 183.23 981.435 186.191C975.368 189.268 969.954 193.492 965.494 198.628C963.17 201.199 960.999 203.905 958.992 206.731C956.993 209.634 955.096 212.571 953.3 215.542Z" fill="#263238"/>
<path d="M1007.69 265.837C1007.34 274.385 1006.05 282.852 1005.09 291.319C1004.14 299.786 1002.95 308.212 1002.14 316.659C1001.33 325.105 1000.8 333.572 1000.86 342.019C1000.77 350.424 1001.51 358.816 1003.07 367.076C1004.5 375.264 1007.47 383.107 1011.82 390.187C1016.43 397.111 1022.23 403.171 1028.94 408.094C1035.65 413.093 1043.45 416.431 1051.7 417.837C1055.85 418.559 1060.07 418.737 1064.26 418.363C1066.36 418.167 1068.45 417.829 1070.5 417.35C1072.61 416.927 1074.66 416.211 1076.58 415.224C1072.85 417.426 1068.72 418.846 1064.42 419.396C1060.14 420.075 1055.79 420.198 1051.48 419.761C1047.14 419.259 1042.89 418.232 1038.8 416.702C1034.72 415.121 1030.83 413.082 1027.21 410.626C1023.58 408.174 1020.19 405.379 1017.09 402.28L1014.84 399.91L1012.67 397.459C1011.2 395.805 1009.85 394.052 1008.62 392.213C1003.93 384.792 1000.7 376.541 999.118 367.906C995.878 350.749 996.87 333.329 999.017 316.395C1000.09 307.888 1001.57 299.462 1003.07 291.076C1004.57 282.69 1006.47 274.284 1007.69 265.837Z" fill="#263238"/>
<path d="M948.742 220.788C948.621 216.737 951.517 211.612 954.11 210.903C956.703 210.194 975.905 218.438 977.566 223.381C979.227 228.323 970.659 232.658 970.659 232.658L948.742 220.788Z" fill="#455A64"/>
<path d="M963.569 397.621C952.145 422.455 867.233 539.189 825.08 542.369C780.963 545.711 675.187 473.621 665.059 467.605C637.248 451.157 714.808 375.238 728.217 388.607C750.62 411.152 804.197 453.608 817.343 450.752C844.891 444.675 902.235 396.548 942.929 371.471C967.317 356.502 976.189 370.134 963.569 397.621Z" fill="#AD6359"/>
<path d="M671.643 471.474C666.862 468.294 628.255 446.843 613.772 426.182C606.115 415.244 588.432 382.835 594.508 377.244C600.058 372.221 607.087 379.938 607.087 379.938C607.087 379.938 599.41 365.334 607.209 358.447C615.007 351.56 626.209 365.192 626.209 365.192C626.209 365.192 619.423 349.615 627.687 343.316C635.952 337.016 644.905 352.572 644.905 352.572C644.905 352.572 638.038 338.636 647.032 336.368C657.869 333.552 667.632 360.675 678.124 371.127C680.494 373.497 729.838 415.69 729.838 415.69L671.643 471.474Z" fill="#AD6359"/>
<path d="M645.553 352.572C652.784 372.504 659.388 379.978 675.937 392.78C676.261 393.023 675.937 393.57 675.592 393.327C658.314 382.267 648.672 374.084 644.621 352.815C644.338 351.823 645.168 351.62 645.553 352.572Z" fill="#263238"/>
<path d="M626.816 365.091C636.114 385.144 643.224 393.307 659.509 407.992C659.732 408.195 659.408 408.6 659.165 408.418C641.968 395.353 632.549 386.987 625.864 365.719C625.561 364.767 626.391 364.179 626.816 365.091Z" fill="#263238"/>
<path d="M607.897 380.626C618.309 399.383 625.702 408.681 643.345 420.895C643.434 420.949 643.497 421.035 643.522 421.136C643.547 421.237 643.53 421.343 643.477 421.432C643.423 421.52 643.336 421.584 643.236 421.609C643.135 421.633 643.029 421.617 642.94 421.563C623.737 410.848 614.42 399.282 607.351 381.052C606.885 379.755 607.249 379.431 607.897 380.626Z" fill="#263238"/>
<path d="M746.548 409.552C746.548 409.552 735.61 385.347 728.44 375.766C721.269 366.185 681.487 340.338 675.41 348.623C667.571 359.298 687.564 378.764 698.664 387.008C698.664 387.008 680.433 411.72 691.858 428.795C703.282 445.871 746.548 409.552 746.548 409.552Z" fill="#AD6359"/>
<path d="M674.215 352.248C674.093 367.156 689.306 377.061 699.434 385.852C699.594 385.973 699.723 386.132 699.808 386.314C699.892 386.496 699.93 386.697 699.918 386.898C699.906 387.099 699.844 387.293 699.739 387.464C699.633 387.635 699.486 387.777 699.312 387.878C692.405 398.755 685.801 416.094 691.027 428.653C691.065 428.725 691.072 428.81 691.048 428.888C691.023 428.966 690.968 429.031 690.896 429.068C690.823 429.106 690.739 429.113 690.661 429.088C690.583 429.064 690.518 429.009 690.48 428.936C683.047 416.236 688.131 398.674 696.557 387.25C686.024 378.398 671.197 367.804 674.154 352.268C674.093 352.167 674.215 352.167 674.215 352.248Z" fill="#263238"/>
<path d="M962.415 404.671C949.188 431.003 872.094 543.443 830.448 545.226C788.802 547.008 701.581 511.48 701.581 511.48L766.197 413.056C766.197 413.056 810.942 445.344 817.971 445.587C824.999 445.83 919.007 383.787 940.883 370.134C962.759 356.482 983.825 361.809 962.415 404.671Z" fill="#1047F7"/>
<path d="M760.586 512.208C760.274 509.213 760.349 506.191 760.809 503.215C761.182 500.229 761.931 497.303 763.037 494.505C763.349 497.5 763.274 500.523 762.814 503.498C762.436 506.483 761.687 509.409 760.586 512.208Z" fill="white"/>
<path d="M889.23 492.5C888.929 489.504 889.004 486.483 889.453 483.506C889.824 480.518 890.58 477.59 891.702 474.796C892.213 480.808 891.368 486.857 889.23 492.5Z" fill="white"/>
<path d="M896.361 417.614C893.365 417.919 890.342 417.837 887.367 417.37C884.379 417.012 881.45 416.263 878.657 415.142C881.652 414.841 884.674 414.915 887.651 415.365C890.638 415.738 893.566 416.494 896.361 417.614Z" fill="white"/>
<path d="M792.671 451.583C789.682 451.878 786.667 451.796 783.698 451.34C780.709 450.986 777.78 450.236 774.988 449.111C777.976 448.809 780.991 448.884 783.961 449.334C786.949 449.705 789.877 450.461 792.671 451.583Z" fill="white"/>
<path d="M807.802 543.018C807.685 543.182 807.557 543.337 807.417 543.483H806.891L807.802 543.018Z" fill="white"/>
<path d="M734.679 476.862C738.547 472.263 743.391 468.582 748.858 466.086C746.955 468.42 744.763 470.503 742.335 472.284C739.99 474.132 737.417 475.671 734.679 476.862Z" fill="white"/>
<path d="M842.5 454.5C844.409 452.171 846.6 450.089 849.023 448.301C851.398 446.455 853.998 444.916 856.761 443.724C854.863 446.062 852.67 448.146 850.238 449.922C847.863 451.769 845.263 453.307 842.5 454.5Z" fill="white"/>
<path d="M806.729 485.369C811.354 489.213 815.04 494.063 817.505 499.548C812.891 495.693 809.208 490.846 806.729 485.369Z" fill="white"/>
<path d="M909.102 439.207C913.709 443.063 917.386 447.91 919.857 453.386C917.525 451.495 915.449 449.31 913.679 446.884C911.834 444.53 910.296 441.95 909.102 439.207Z" fill="white"/>
<path d="M780.194 429.039C772.091 443.765 764.212 458.632 755.421 472.974C746.924 487.295 737.675 501.156 727.711 514.498C727.665 514.54 727.608 514.566 727.546 514.572C727.485 514.578 727.423 514.564 727.371 514.532C727.318 514.5 727.277 514.452 727.255 514.394C727.232 514.337 727.228 514.274 727.245 514.214C735.023 499.529 743.915 485.35 752.565 471.171C761.214 456.992 770.572 442.934 779.262 428.634C779.606 428.066 780.497 428.471 780.194 429.039Z" fill="#263238"/>
<path d="M962.415 404.67C949.188 431.003 872.094 543.443 830.448 545.226C820.32 545.651 807.539 543.889 793.988 540.952C826.397 506.334 916.88 408.701 958.789 363.511C971.49 362.741 977.749 374.246 962.415 404.67Z" fill="#263238"/>
<path d="M885.585 665.647H1130.01C1130.01 665.647 1034.97 425.028 984.352 376.616C970.598 363.47 936.609 364.463 919.959 386.643C906.306 404.873 868.408 477.267 866.686 503.337C864.964 529.406 885.402 555.111 885.402 555.111L885.585 665.647Z" fill="#1047F7"/>
<path d="M916.819 575.488C916.517 572.499 916.592 569.485 917.042 566.515C917.413 563.527 918.168 560.599 919.29 557.805C919.596 560.794 919.514 563.81 919.047 566.778C918.674 569.763 917.925 572.69 916.819 575.488Z" fill="white"/>
<path d="M1084.78 620.78C1084.51 617.76 1084.61 614.718 1085.1 611.726C1085.48 608.737 1086.23 605.81 1087.35 603.016C1087.66 606.011 1087.58 609.034 1087.11 612.009C1086.71 615.02 1085.93 617.967 1084.78 620.78Z" fill="white"/>
<path d="M979.328 660.34C979.026 657.351 979.101 654.336 979.551 651.366C979.922 648.378 980.678 645.451 981.8 642.656C982.105 645.645 982.024 648.661 981.557 651.63C981.183 654.615 980.435 657.542 979.328 660.34Z" fill="white"/>
<path d="M955.021 478.725C954.726 475.736 954.808 472.721 955.265 469.752C955.619 466.763 956.368 463.834 957.493 461.042C958.028 467.048 957.183 473.096 955.021 478.725Z" fill="white"/>
<path d="M1019.98 551.869C1019.7 548.864 1019.81 545.835 1020.29 542.855C1020.65 539.868 1021.4 536.941 1022.51 534.146C1023.05 540.158 1022.21 546.214 1020.04 551.849L1019.98 551.869Z" fill="white"/>
<path d="M889.23 492.5C888.929 489.504 889.004 486.483 889.453 483.506C889.824 480.518 890.58 477.59 891.702 474.796C892.213 480.808 891.368 486.857 889.23 492.5Z" fill="white"/>
<path d="M975.196 564.408C969.186 564.939 963.133 564.101 957.493 561.957C960.488 561.645 963.51 561.72 966.486 562.18C969.471 562.556 972.397 563.305 975.196 564.408Z" fill="white"/>
<path d="M1048.93 494.505C1045.93 494.806 1042.91 494.732 1039.93 494.282C1036.95 493.911 1034.02 493.155 1031.22 492.034C1037.24 491.523 1043.29 492.367 1048.93 494.505Z" fill="white"/>
<path d="M917.366 646.627C914.376 646.922 911.362 646.84 908.393 646.383C905.404 646.029 902.475 645.28 899.683 644.155C902.671 643.853 905.686 643.928 908.656 644.378C911.644 644.749 914.572 645.505 917.366 646.627Z" fill="white"/>
<path d="M1054.52 586.062C1051.52 586.374 1048.5 586.299 1045.52 585.839C1042.54 585.463 1039.61 584.714 1036.81 583.611C1039.81 583.299 1042.83 583.374 1045.81 583.834C1048.79 584.21 1051.72 584.958 1054.52 586.062Z" fill="white"/>
<path d="M938.797 619.281C940.705 616.958 942.896 614.883 945.319 613.103C947.689 611.249 950.29 609.71 953.057 608.525C949.194 613.125 944.348 616.801 938.878 619.281H938.797Z" fill="white"/>
<path d="M1031.22 636.944C1033.12 634.606 1035.31 632.522 1037.75 630.746C1040.12 628.899 1042.72 627.361 1045.48 626.168C1041.63 630.781 1036.78 634.465 1031.3 636.944H1031.22Z" fill="white"/>
<path d="M1055.69 550.472C1057.6 548.149 1059.79 546.073 1062.22 544.294C1064.59 542.439 1067.19 540.901 1069.95 539.716C1068.06 542.053 1065.87 544.13 1063.43 545.894C1061.06 547.748 1058.46 549.287 1055.69 550.472Z" fill="white"/>
<path d="M909.75 519.399C911.658 517.07 913.849 514.988 916.272 513.201C918.647 511.354 921.247 509.816 924.01 508.623C922.112 510.962 919.92 513.045 917.487 514.821C915.112 516.668 912.512 518.206 909.75 519.399Z" fill="white"/>
<path d="M1004.26 459.806C1006.17 457.477 1008.36 455.395 1010.79 453.608C1013.16 451.761 1015.76 450.223 1018.52 449.03C1016.63 451.369 1014.43 453.452 1012 455.229C1009.63 457.075 1007.03 458.614 1004.26 459.806Z" fill="white"/>
<path d="M891.884 590.578C890.007 592.865 887.85 594.907 885.463 596.655V594.184C887.456 592.736 889.611 591.526 891.884 590.578Z" fill="white"/>
<path d="M956.115 421.766C958.023 419.437 960.214 417.355 962.638 415.568C965.013 413.721 967.613 412.183 970.375 410.99C966.52 415.604 961.673 419.287 956.196 421.766H956.115Z" fill="white"/>
<path d="M875.517 531.735C877.846 533.644 879.929 535.835 881.716 538.258C883.563 540.633 885.101 543.233 886.294 545.995C881.68 542.14 877.997 537.293 875.517 531.816V531.735Z" fill="white"/>
<path d="M909.102 439.207C913.709 443.063 917.386 447.91 919.857 453.386C917.525 451.495 915.449 449.31 913.679 446.884C911.834 444.53 910.296 441.95 909.102 439.207Z" fill="white"/>
<path d="M993.953 588.837C998.553 592.7 1002.23 597.545 1004.71 603.016C1002.42 601.106 1000.38 598.915 998.632 596.494C996.749 594.154 995.176 591.58 993.953 588.837Z" fill="white"/>
<path d="M1081.86 647.599C1084.19 649.507 1086.27 651.698 1088.06 654.121C1089.91 656.496 1091.45 659.096 1092.64 661.859C1090.3 659.966 1088.21 657.773 1086.44 655.336C1084.59 652.964 1083.05 650.363 1081.86 647.599Z" fill="white"/>
<path d="M992.232 395.515C996.839 399.371 1000.52 404.218 1002.99 409.694C998.38 405.838 994.703 400.991 992.232 395.515Z" fill="white"/>
<path d="M976.452 509.555C978.791 511.453 980.874 513.645 982.65 516.077C984.508 518.445 986.047 521.047 987.228 523.815C982.615 519.96 978.931 515.113 976.452 509.636V509.555Z" fill="white"/>
<path d="M968.107 378.946C966.77 382.571 945.825 404.427 928.952 401.409C923.443 400.417 927.494 370.134 927.494 370.134L927.291 367.825L924.354 335.578L964.238 316.72L969.97 314.289C969.97 314.289 970.193 323.161 970.355 334.221C970.355 334.747 970.355 335.254 970.355 335.801C970.355 336.348 970.355 337.016 970.355 337.604C970.355 339.244 970.355 340.946 970.355 342.627C970.355 343.903 970.355 345.139 970.355 346.496V350.547C970.271 360.054 969.52 369.544 968.107 378.946Z" fill="#AD6359"/>
<path d="M970.355 334.221C966.049 342.614 959.965 349.968 952.528 355.771C945.091 361.574 936.479 365.688 927.291 367.825L924.354 335.578L964.238 316.72L969.97 314.289C969.97 314.289 970.193 323.161 970.355 334.221Z" fill="#263238"/>
<path d="M883.316 288.058C878.819 344.774 912.241 353.829 924.476 354.781C935.556 355.652 973.454 357.212 983.785 301.305C994.115 245.399 969.201 225.407 943.942 222.065C918.683 218.722 887.833 231.382 883.316 288.058Z" fill="#AD6359"/>
<path d="M892.877 276.005C894.173 275.821 895.458 275.564 896.725 275.236C898.118 275.16 899.445 274.617 900.493 273.696C900.766 273.342 900.913 272.908 900.913 272.461C900.913 272.014 900.766 271.579 900.493 271.225C899.855 270.602 899.063 270.161 898.197 269.948C897.332 269.734 896.425 269.755 895.571 270.01C893.755 270.266 892.097 271.182 890.912 272.582C890.659 272.918 890.511 273.32 890.485 273.74C890.459 274.159 890.556 274.577 890.766 274.941C890.975 275.306 891.286 275.601 891.662 275.79C892.037 275.979 892.459 276.054 892.877 276.005Z" fill="#263238"/>
<path d="M930.593 276.815C929.276 276.653 928.061 276.269 926.765 275.985C925.371 275.871 924.055 275.302 923.017 274.365C922.745 274.01 922.597 273.576 922.597 273.129C922.597 272.682 922.745 272.247 923.017 271.893C923.67 271.281 924.474 270.855 925.347 270.659C926.219 270.463 927.129 270.504 927.98 270.779C929.788 271.051 931.429 271.991 932.578 273.412C932.817 273.752 932.953 274.153 932.97 274.567C932.988 274.981 932.886 275.392 932.677 275.751C932.468 276.109 932.16 276.4 931.791 276.588C931.422 276.777 931.006 276.856 930.593 276.815Z" fill="#263238"/>
<path d="M921.721 291.117C921.721 290.954 922.025 291.299 922.005 291.461C921.762 295.33 922.126 299.786 925.59 301.184C925.691 301.184 925.59 301.427 925.59 301.406C921.296 300.657 920.87 294.722 921.721 291.117Z" fill="#263238"/>
<path d="M925.306 287.186C931.545 286.903 931.626 299.34 925.853 299.664C920.08 299.988 920.08 287.409 925.306 287.186Z" fill="#263238"/>
<path d="M927.757 287.835C928.871 288.524 929.945 289.86 931.261 289.86C932.578 289.86 933.915 288.686 934.907 287.43C934.907 287.308 935.11 287.43 935.13 287.572C935.13 289.962 934.259 292.433 931.707 292.798C929.155 293.162 927.656 291.035 927.048 288.625C926.947 288.199 927.332 287.632 927.757 287.835Z" fill="#263238"/>
<path d="M900.23 290.245C900.23 290.104 899.946 290.448 899.946 290.61C900.128 294.479 899.683 298.935 896.199 300.272C896.077 300.272 896.097 300.495 896.199 300.475C900.493 299.786 901.02 293.891 900.23 290.245Z" fill="#263238"/>
<path d="M896.725 286.255C890.487 285.87 890.183 298.408 895.956 298.732C901.729 299.056 901.951 286.579 896.725 286.255Z" fill="#263238"/>
<path d="M894.092 287.024C893.1 287.652 892.066 288.827 890.912 288.888C889.757 288.949 888.562 287.551 887.732 286.234C887.63 286.113 887.529 286.234 887.529 286.376C887.408 288.766 888.137 291.258 890.405 291.785C892.674 292.311 894.072 290.245 894.7 287.875C894.821 287.45 894.497 286.761 894.092 287.024Z" fill="#263238"/>
<path d="M922.005 321.743C921.134 322.695 920.263 323.992 918.865 324.174C917.43 324.219 916.002 323.963 914.672 323.424C914.645 323.417 914.617 323.418 914.591 323.427C914.565 323.436 914.542 323.452 914.525 323.473C914.508 323.494 914.497 323.52 914.495 323.548C914.492 323.575 914.497 323.603 914.51 323.627C915.102 324.355 915.879 324.91 916.759 325.235C917.639 325.559 918.591 325.64 919.513 325.47C920.299 325.234 920.995 324.765 921.509 324.125C922.023 323.485 922.33 322.704 922.39 321.885C922.43 321.662 922.126 321.601 922.005 321.743Z" fill="#263238"/>
<path d="M905.901 307.645C905.901 307.645 905.071 313.438 905.05 316.152C905.05 316.416 905.719 316.537 906.63 316.598C906.63 316.598 906.63 316.598 906.752 316.598C909.087 317.042 911.499 316.832 913.722 315.992C915.945 315.152 917.893 313.715 919.351 311.838C919.38 311.784 919.392 311.722 919.383 311.661C919.374 311.601 919.346 311.545 919.303 311.501C919.259 311.458 919.203 311.43 919.142 311.421C919.082 311.412 919.02 311.424 918.966 311.453C915.47 313.809 911.307 314.974 907.096 314.775C906.914 314.025 908.858 304.931 908.413 304.89C906.296 305.08 904.212 305.543 902.215 306.267C903.612 294.114 906.914 282.426 908.109 270.374C908.133 270.28 908.119 270.18 908.07 270.097C908.02 270.013 907.94 269.953 907.846 269.929C907.752 269.904 907.652 269.919 907.568 269.968C907.485 270.017 907.424 270.098 907.4 270.192C903.065 282.345 901.161 296.14 899.419 308.678C899.176 310.136 904.828 308.111 905.901 307.645Z" fill="#263238"/>
<path d="M907.218 315.99C908.854 318.171 911.023 319.894 913.517 320.994C914.887 321.549 916.395 321.662 917.832 321.318C920.992 320.528 921.093 317.651 920.546 315.241C920.241 313.93 919.785 312.659 919.189 311.453C915.786 314.206 911.591 315.796 907.218 315.99Z" fill="#263238"/>
<path d="M913.517 321.034C914.887 321.589 916.395 321.702 917.832 321.358C920.992 320.568 921.093 317.692 920.546 315.281C917.184 315.524 913.842 317.773 913.517 321.034Z" fill="#EB9481"/>
<path d="M981.273 306.956C977.647 305.178 974.546 302.488 972.273 299.15C970 295.812 968.635 291.941 968.309 287.916C958.436 283.546 949.911 276.615 943.618 267.842C943.982 269.017 946.676 277.443 948.195 281.697C912.343 274.83 901.364 247.262 901.364 247.262C889.676 258.828 887.327 266.242 885.625 269.928C885.625 269.928 885.463 247.931 896.847 233.245C910.783 215.258 957.614 210.599 979.106 234.238C1002.3 259.78 981.273 306.956 981.273 306.956Z" fill="#263238"/>
<path d="M921.032 275.641C926.782 278.819 932.974 281.12 939.404 282.467C929.3 279.687 920.177 274.129 913.072 266.424C910.055 263.147 907.469 259.499 905.375 255.567C902.921 251.357 901.324 246.704 900.675 241.874C900.675 241.799 900.645 241.727 900.592 241.674C900.539 241.621 900.467 241.591 900.392 241.591C900.316 241.591 900.244 241.621 900.191 241.674C900.138 241.727 900.108 241.799 900.108 241.874C900.24 246.724 901.185 251.517 902.903 256.053C904.784 260.479 907.469 264.518 910.823 267.964C913.82 271.005 917.229 273.61 920.951 275.702" fill="#263238"/>
<path d="M974.447 304.951C974.447 304.951 986.722 287.105 994.703 291.481C1002.68 295.856 993.629 321.642 984.21 325.227C983.032 325.769 981.756 326.068 980.459 326.105C979.162 326.141 977.872 325.915 976.664 325.44C975.457 324.965 974.358 324.251 973.434 323.341C972.51 322.431 971.78 321.343 971.287 320.143L974.447 304.951Z" fill="#AD6359"/>
<path d="M991.928 298.813C992.09 298.813 992.11 298.996 991.928 299.057C985.324 301.791 981.8 307.969 979.47 314.35C981.496 311.878 984.109 310.521 987.411 312.851C987.573 312.972 987.411 313.236 987.228 313.195C986.068 312.821 984.82 312.816 983.656 313.178C982.493 313.541 981.469 314.254 980.726 315.221C979.525 316.875 978.494 318.647 977.647 320.507C977.343 321.115 976.27 320.791 976.493 320.123V319.961C976.452 311.595 982.934 299.786 991.928 298.813Z" fill="#263238"/>
<path d="M976.412 323.931C976.412 324.732 976.649 325.516 977.094 326.182C977.54 326.848 978.172 327.367 978.913 327.674C979.653 327.98 980.467 328.061 981.253 327.904C982.039 327.748 982.761 327.362 983.327 326.796C983.894 326.229 984.28 325.507 984.436 324.721C984.592 323.936 984.512 323.121 984.206 322.381C983.899 321.64 983.38 321.008 982.714 320.563C982.047 320.117 981.264 319.88 980.463 319.88C979.397 319.906 978.381 320.341 977.627 321.095C976.872 321.849 976.437 322.865 976.412 323.931Z" fill="white"/>
<path d="M909.061 390.511C909.061 390.511 897.475 423.447 918.44 425.777C939.404 428.106 994.156 387.615 994.156 387.615C994.156 387.615 978.964 363.024 954.697 365.657C934.543 367.825 909.061 390.511 909.061 390.511Z" fill="#AD6359"/>
<path d="M1008.13 429.078C1008.13 469.752 984.757 591.713 962.314 608.14C917.406 641.015 812.096 638.747 783.05 639.253C770.511 639.455 754.043 555.981 763.381 546.38C772.719 536.779 901.121 533.214 907.603 528.292C912.16 524.868 948.377 465.498 969.342 427.337C997.619 375.745 1008.13 408.58 1008.13 429.078Z" fill="#AD6359"/>
<path d="M785.662 541.924C785.662 541.924 747.764 537.731 722.869 536.171C708.954 535.28 684.991 535.908 674.478 539.918C658.76 545.995 596.878 581.179 605.082 596.371C612.516 610.105 631.414 594.913 631.414 594.913C631.414 594.913 609.133 609.578 620.76 620.962C632.387 632.346 655.195 610.226 655.195 610.226C655.195 610.226 630.503 624.162 644.013 635.141C655.742 644.641 684.667 621.914 684.667 621.914C684.667 621.914 657.16 633.723 668.219 644.641C680.373 656.794 728.075 628.072 728.075 628.072C759.087 638.402 779.1 640.407 802.839 638.909C807.134 638.645 785.662 541.924 785.662 541.924Z" fill="#AD6359"/>
<path d="M648.227 615.23L653.838 610.287C657.41 606.993 661.17 603.909 665.1 601.051C668.989 598.316 672.979 595.784 677.051 593.374C681.122 590.963 685.943 588.674 690.177 586.001C690.209 585.976 690.245 585.959 690.284 585.95C690.324 585.941 690.364 585.94 690.404 585.948C690.443 585.956 690.48 585.972 690.513 585.995C690.546 586.018 690.573 586.048 690.594 586.083C690.614 586.118 690.627 586.156 690.631 586.196C690.635 586.236 690.631 586.277 690.618 586.315C690.605 586.353 690.585 586.388 690.557 586.418C690.53 586.447 690.497 586.471 690.46 586.487C686.254 589.079 682.196 591.906 678.307 594.954C674.397 597.81 670.508 600.727 666.619 603.623C662.73 606.52 658.881 609.031 655.013 611.725C652.987 613.083 651.204 614.541 649.341 615.979C647.649 617.481 645.833 618.836 643.912 620.03C643.73 620.132 643.548 619.868 643.669 619.706C645.029 618.06 646.556 616.56 648.227 615.23Z" fill="#263238"/>
<path d="M626.837 598.053C629.409 594.711 643.568 583.165 647.356 580.43C654.678 575.108 662.515 570.534 670.751 566.778C670.811 566.761 670.874 566.765 670.931 566.788C670.988 566.81 671.037 566.851 671.069 566.904C671.101 566.956 671.115 567.018 671.109 567.079C671.103 567.141 671.077 567.198 671.035 567.244C663.722 572.591 656.329 577.817 648.936 583.063C645.31 585.616 629.267 597.749 627.424 598.802C626.978 599.066 626.573 598.417 626.837 598.053Z" fill="#263238"/>
<path d="M667.834 631.981C673.997 626.151 680.54 620.737 687.422 615.777C694.893 611.35 702.687 607.491 710.736 604.231C711.04 604.13 711.283 604.535 711.02 604.697C703.566 609.133 696.071 613.407 688.738 618.187C685.214 620.517 671.724 630.624 668.159 632.549C667.997 632.65 667.672 632.184 667.834 631.981Z" fill="#263238"/>
<path d="M811.225 645.39L776.588 535.32C776.588 535.32 902.62 527.218 906.711 525.192C910.803 523.167 955.73 443.703 973.555 412.833C991.381 381.963 1018.85 394.603 1008.58 464.344C998.268 534.408 986.924 588.856 971.226 605.061C952.105 624.668 882.425 644.924 811.225 645.39Z" fill="#1047F7"/>
<path d="M916.819 575.488C916.517 572.499 916.592 569.485 917.042 566.515C917.413 563.527 918.168 560.599 919.29 557.805C919.596 560.794 919.514 563.81 919.047 566.778C918.674 569.763 917.925 572.69 916.819 575.488Z" fill="white"/>
<path d="M847.18 638.484C846.868 635.489 846.942 632.466 847.402 629.49C847.781 626.506 848.529 623.58 849.63 620.78C849.943 623.775 849.868 626.798 849.408 629.774C849.034 632.759 848.286 635.686 847.18 638.484Z" fill="white"/>
<path d="M955.021 478.725C954.726 475.736 954.808 472.721 955.265 469.752C955.619 466.763 956.368 463.834 957.493 461.042C958.028 467.048 957.183 473.096 955.021 478.725Z" fill="white"/>
<path d="M975.196 564.408C969.186 564.939 963.133 564.101 957.493 561.957C960.488 561.645 963.51 561.72 966.486 562.18C969.471 562.556 972.397 563.305 975.196 564.408Z" fill="white"/>
<path d="M854.188 567.871C851.193 568.183 848.17 568.108 845.194 567.648C842.209 567.275 839.282 566.526 836.484 565.42C839.479 565.108 842.502 565.183 845.478 565.643C848.463 566.021 851.388 566.77 854.188 567.871Z" fill="white"/>
<path d="M938.797 619.281C940.705 616.958 942.896 614.883 945.319 613.103C947.689 611.249 950.29 609.71 953.057 608.525C949.194 613.125 944.348 616.801 938.878 619.281H938.797Z" fill="white"/>
<path d="M793.542 553.773C795.451 551.451 797.642 549.375 800.064 547.595C802.435 545.741 805.036 544.203 807.802 543.018C805.909 545.355 803.716 547.432 801.28 549.196C798.909 551.05 796.308 552.589 793.542 553.773Z" fill="white"/>
<path d="M924.01 508.623C922.112 510.962 919.92 513.045 917.487 514.821C915.65 516.218 913.699 517.458 911.654 518.528C912.282 517.556 912.97 516.503 913.679 515.328C914.51 514.599 915.381 513.89 916.252 513.302C918.628 511.418 921.235 509.846 924.01 508.623Z" fill="white"/>
<path d="M1009.73 454.521C1009.73 455.371 1009.57 456.222 1009.47 457.093C1007.83 458.199 1006.09 459.135 1004.26 459.888C1005.88 457.9 1007.71 456.099 1009.73 454.521Z" fill="white"/>
<path d="M877.624 601.354C879.532 599.025 881.723 596.943 884.146 595.156C886.522 593.309 889.122 591.771 891.884 590.578C889.986 592.917 887.794 595 885.362 596.776C882.986 598.623 880.386 600.162 877.624 601.354Z" fill="white"/>
<path d="M875.517 531.735C877.846 533.644 879.929 535.835 881.716 538.258C883.563 540.633 885.101 543.233 886.294 545.995C881.68 542.14 877.997 537.293 875.517 531.816V531.735Z" fill="white"/>
<path d="M1002.99 409.755C1000.66 407.858 998.584 405.673 996.809 403.253C995.293 401.289 993.977 399.178 992.88 396.953C993.251 396.932 993.623 396.932 993.994 396.953C995.598 398.499 997.075 400.172 998.409 401.956C1000.26 404.348 1001.8 406.969 1002.99 409.755Z" fill="white"/>
<path d="M976.452 509.555C978.791 511.453 980.874 513.645 982.65 516.077C984.508 518.445 986.047 521.047 987.228 523.815C982.615 519.96 978.931 515.113 976.452 509.636V509.555Z" fill="white"/>
<path d="M946.17 459.361C942.119 465.438 938.25 471.879 934.462 478.219L934.138 478.746C934.32 478.26 934.523 477.773 934.705 477.308C935.941 474.148 937.034 470.927 938.371 467.828C938.371 467.645 938.189 467.483 938.108 467.666C936.731 470.724 935.211 473.743 933.915 476.801C933.044 478.827 932.254 480.994 931.505 483.121C928.689 487.82 925.873 492.52 923.098 497.3C919.371 503.66 915.665 510.061 911.917 516.422C910.985 517.981 910.094 519.541 909.142 521.101C908.475 522.482 907.31 523.56 905.881 524.119C904.187 524.521 902.456 524.752 900.716 524.807C898.872 524.99 897.029 525.213 895.186 525.435C886.8 526.468 878.475 527.846 870.089 528.94C869.886 528.94 869.886 529.284 870.089 529.264C877.786 528.676 885.504 528.393 893.201 527.765C897.009 527.461 900.817 527.198 904.585 526.711C906.043 526.635 907.448 526.143 908.636 525.294C909.679 524.346 910.538 523.212 911.168 521.951C918.797 508.745 926.427 495.531 934.057 482.311C938.371 474.816 942.747 467.362 946.717 459.685C946.76 459.612 946.772 459.526 946.751 459.444C946.73 459.362 946.678 459.292 946.605 459.249C946.533 459.207 946.446 459.194 946.364 459.215C946.283 459.236 946.213 459.288 946.17 459.361Z" fill="#263238"/>
<path d="M1008.76 488.753C1008.37 491.277 1007.77 493.764 1006.96 496.186C1006.35 498.354 1005.76 500.521 1005.11 502.668C1004.47 504.815 1003.51 507.509 1002.68 509.92C1004.39 499.198 1005.74 488.395 1006.73 477.51C1006.73 477.186 1006.21 477.126 1006.15 477.51C1004.12 492.642 1001.35 507.712 998.167 522.62C994.986 537.529 991.138 552.417 986.783 567.062C984.636 574.273 982.367 581.463 979.855 588.553C977.892 594.763 974.907 600.603 971.024 605.831C966.43 611.05 960.68 615.122 954.232 617.721C947.517 620.811 940.633 623.516 933.611 625.824C917.65 631.05 901.202 634.372 884.876 638.281C884.693 638.281 884.734 638.625 884.876 638.605C899.858 636.511 914.699 633.508 929.317 629.611C936.721 627.639 943.993 625.203 951.092 622.319C957.594 619.605 964.299 616.668 969.545 611.847C974.347 607.117 978.053 601.392 980.402 595.075C983.137 588.452 985.284 581.565 987.411 574.819C992.07 559.871 995.959 544.8 999.139 529.467C1000.04 525.024 1000.89 520.574 1001.67 516.118C1003.49 511.882 1004.97 507.506 1006.09 503.033C1006.69 500.703 1007.28 498.374 1007.75 496.004C1008.21 493.634 1008.36 491.163 1009.02 488.874C1009.12 488.57 1008.78 488.509 1008.76 488.753Z" fill="#263238"/>
<path d="M833.142 636.519C827.43 620.699 821.394 605.001 816.391 588.958C811.203 573.129 806.856 557.037 803.366 540.749C803.367 540.687 803.388 540.628 803.426 540.579C803.464 540.53 803.516 540.496 803.576 540.479C803.636 540.463 803.699 540.467 803.756 540.49C803.813 540.513 803.861 540.554 803.893 540.607C809.828 556.123 814.649 572.146 819.632 587.986C824.615 603.826 829.03 620.132 834.074 636.093C834.256 636.701 833.385 637.126 833.142 636.519Z" fill="#263238"/>
<path d="M811.914 532.728C808.898 532.566 805.876 532.566 802.86 532.728C799.842 532.728 796.783 532.931 793.805 533.052C787.729 533.315 781.753 533.761 775.737 534.267C775.619 534.272 775.504 534.303 775.4 534.359C775.297 534.415 775.207 534.493 775.139 534.589C775.07 534.685 775.025 534.795 775.005 534.912C774.986 535.028 774.994 535.147 775.028 535.26C775.761 537.491 776.797 539.611 778.107 541.56C778.209 541.661 778.411 541.56 778.411 541.458C778.146 539.485 777.615 537.556 776.831 535.726C782.584 535.341 788.336 534.997 794.089 534.551L803.123 533.903C806.06 533.66 809.058 533.579 811.975 533.113C812.218 533.113 812.117 532.728 811.914 532.728Z" fill="#263238"/>
<path d="M675.937 509.15C683.452 512.877 717.785 514.295 727.792 526.611C734.456 534.713 733.868 543.079 737.677 567.528C741.059 588.756 723.497 583.732 718.413 572.835C710.473 555.759 703.647 537.043 703.647 537.043C697.786 536.752 691.914 536.84 686.065 537.306L675.937 509.15Z" fill="#F7A9A0"/>
<path d="M700.608 589.444C712.499 581.908 750.519 629.955 731.519 642.615C712.519 655.275 687.138 597.951 700.608 589.444Z" fill="#F7A9A0"/>
<path d="M681.345 599.572C693.215 592.036 731.255 640.083 712.255 652.743C693.255 665.403 667.834 608.18 681.345 599.572Z" fill="#F7A9A0"/>
<path d="M667.693 601.598C679.542 596.392 707.434 645.31 688.394 654.263C669.354 663.216 654.283 607.411 667.693 601.598Z" fill="#F7A9A0"/>
<path d="M653.655 600.18C666.113 598.701 678.226 651.974 658.031 654.87C637.835 657.767 639.618 601.861 653.655 600.18Z" fill="#F7A9A0"/>
<path d="M697.894 606.034C700.075 608.439 702.053 611.02 703.809 613.751C705.834 616.607 707.718 619.504 709.42 622.542C711.078 625.437 712.566 628.427 713.876 631.495C715.213 634.756 716.145 638.24 717.583 641.461C717.601 641.496 717.611 641.535 717.613 641.575C717.615 641.614 717.609 641.654 717.594 641.691C717.58 641.728 717.558 641.762 717.53 641.79C717.502 641.818 717.468 641.839 717.431 641.854C717.394 641.868 717.355 641.874 717.315 641.872C717.276 641.87 717.237 641.86 717.202 641.842C717.166 641.824 717.135 641.799 717.11 641.768C717.085 641.737 717.066 641.702 717.056 641.664C715.671 638.526 714.06 635.493 712.235 632.589C710.554 629.652 709.035 626.634 707.394 623.676C705.753 620.719 704.275 617.883 702.634 615.027C700.993 612.171 699.028 609.335 697.509 606.317C697.484 606.266 697.478 606.208 697.492 606.153C697.505 606.097 697.538 606.049 697.584 606.015C697.629 605.981 697.685 605.965 697.742 605.968C697.799 605.972 697.853 605.995 697.894 606.034Z" fill="#263238"/>
<path d="M678.104 605.771C679.32 609.376 683.411 623.15 684.789 626.715C686.166 630.28 687.685 633.845 689.245 637.37C690.805 640.894 692.141 644.723 694.167 648.186C694.184 648.248 694.18 648.314 694.155 648.373C694.13 648.432 694.085 648.481 694.029 648.512C693.972 648.542 693.907 648.553 693.844 648.541C693.781 648.53 693.723 648.498 693.681 648.45C691.777 645.006 689.63 641.806 687.807 638.322C685.984 634.838 684.545 631.252 683.148 627.606C680.848 620.503 678.988 613.265 677.577 605.933C677.476 605.487 677.962 605.467 678.104 605.771Z" fill="#263238"/>
<path d="M663.176 609.194C664.128 614.339 664.755 619.544 665.728 624.689C666.194 627.221 666.7 629.753 667.166 632.305C667.389 633.521 667.591 634.756 667.814 635.992C667.932 637.42 668.197 638.832 668.604 640.205C668.746 640.55 668.098 640.712 668.057 640.205C667.685 638.665 667.197 637.155 666.599 635.688C666.254 634.493 665.91 633.318 665.606 632.103C664.978 629.591 664.472 627.079 664.067 624.507C663.156 619.463 662.628 614.358 662.487 609.234C662.487 608.91 663.115 608.809 663.176 609.194Z" fill="#263238"/>
<path d="M848.537 268.572C853.553 261.12 856.265 252.357 856.335 243.374C856.335 211.451 821.272 185.584 778.067 185.584C734.861 185.584 699.859 211.451 699.859 243.374C699.859 275.297 734.861 301.164 778.067 301.164C799.031 301.164 818.011 295.087 832.048 285.182L859.009 292.028L848.537 268.572Z" fill="#1047F7"/>
<path d="M749.931 243.374C749.931 244.976 749.456 246.543 748.566 247.875C747.676 249.208 746.41 250.246 744.93 250.859C743.449 251.473 741.82 251.633 740.248 251.32C738.677 251.008 737.233 250.236 736.1 249.103C734.967 247.97 734.195 246.526 733.882 244.955C733.57 243.383 733.73 241.754 734.343 240.273C734.957 238.793 735.995 237.527 737.328 236.637C738.66 235.747 740.227 235.271 741.829 235.271C743.978 235.271 746.039 236.125 747.558 237.645C749.078 239.164 749.931 241.225 749.931 243.374Z" fill="#263238"/>
<path d="M778.087 251.496C782.573 251.496 786.21 247.86 786.21 243.374C786.21 238.888 782.573 235.251 778.087 235.251C773.601 235.251 769.964 238.888 769.964 243.374C769.964 247.86 773.601 251.496 778.087 251.496Z" fill="#263238"/>
<path d="M822.447 243.374C822.447 244.976 821.972 246.543 821.082 247.875C820.191 249.208 818.926 250.246 817.445 250.859C815.965 251.473 814.336 251.633 812.764 251.32C811.192 251.008 809.749 250.236 808.616 249.103C807.482 247.97 806.711 246.526 806.398 244.955C806.085 243.383 806.246 241.754 806.859 240.273C807.472 238.793 808.511 237.527 809.843 236.637C811.176 235.747 812.742 235.271 814.345 235.271C816.494 235.271 818.554 236.125 820.074 237.645C821.593 239.164 822.447 241.225 822.447 243.374Z" fill="#263238"/>
<path d="M566.09 95.2024C561.573 132.979 537.286 139.765 533.194 149.893C531.129 156.233 529.425 162.685 528.09 169.217H488.591C487.28 162.681 485.583 156.228 483.507 149.893C479.455 139.765 455.148 132.797 450.895 94.9796C448.039 70.1459 466.816 30.9712 508.604 31.0725C550.391 31.1737 569.027 70.389 566.09 95.2024Z" fill="#1047F7"/>
<path d="M488.056 108.758L486.064 109.125L497.633 171.976L499.625 171.609L488.056 108.758Z" fill="white"/>
<path d="M528.886 108.83L517.032 171.628L519.022 172.004L530.877 109.206L528.886 108.83Z" fill="white"/>
<path d="M508.462 129.88C505.363 129.88 502.243 127.409 499.691 122.932C499.569 122.73 499.448 122.527 499.347 122.324C498.94 122.848 498.429 123.282 497.847 123.599C497.265 123.916 496.624 124.11 495.964 124.168C490.049 124.168 487.7 112.014 487.619 111.427L488.611 111.245C488.611 111.366 490.88 123.135 495.964 123.155C496.543 123.074 497.099 122.872 497.595 122.561C498.09 122.25 498.515 121.838 498.84 121.352C496.349 116.207 494.951 109.482 496.815 106.424C497.081 105.933 497.477 105.524 497.959 105.242C498.441 104.96 498.991 104.815 499.549 104.823C500.212 104.802 500.868 104.965 501.443 105.294C502.019 105.623 502.492 106.105 502.81 106.687C504.593 109.786 503.276 116.187 500.927 120.218C500.678 120.65 500.407 121.069 500.116 121.474C500.278 121.798 500.461 122.122 500.643 122.426C502.02 124.836 504.876 128.867 508.543 128.867C510.994 128.867 513.445 126.842 515.47 123.459C515.648 123.17 515.81 122.873 515.956 122.568C515.43 121.94 514.969 121.262 514.579 120.542C512.128 116.288 511.642 109.989 513.505 106.788C513.802 106.19 514.258 105.685 514.822 105.327C515.386 104.97 516.038 104.775 516.706 104.763C517.223 104.764 517.73 104.908 518.169 105.18C518.609 105.452 518.965 105.84 519.197 106.302C520.939 109.341 519.967 116.572 517.172 122.264C517.703 122.795 518.335 123.216 519.031 123.501C519.726 123.786 520.471 123.93 521.223 123.925C524.828 123.925 528.049 115.316 528.981 111.994L529.953 112.257C529.811 112.784 526.327 124.937 521.223 124.937C519.588 124.934 518.013 124.32 516.807 123.216L516.443 123.864C514.701 126.659 512.067 129.88 508.462 129.88ZM516.564 105.877C516.075 105.886 515.598 106.03 515.186 106.295C514.775 106.56 514.445 106.934 514.235 107.376C512.574 110.252 513.08 116.207 515.308 120.117C515.599 120.633 515.938 121.122 516.321 121.575C518.792 116.268 519.724 109.604 518.185 106.91C518.039 106.602 517.81 106.342 517.523 106.159C517.237 105.977 516.904 105.879 516.564 105.877ZM499.387 105.877C499.005 105.865 498.627 105.961 498.297 106.154C497.968 106.348 497.699 106.631 497.524 106.971C496.126 109.401 497.037 115.316 499.448 120.461L499.894 119.752C502.041 116.045 503.337 109.989 501.777 107.234C501.548 106.805 501.202 106.45 500.779 106.209C500.356 105.969 499.873 105.854 499.387 105.877Z" fill="white"/>
<path d="M532.699 167.642L483.984 167.523L483.96 177.044L532.676 177.163L532.699 167.642Z" fill="#455A64"/>
<path d="M532.651 178.702L483.936 178.583L483.913 188.103L532.628 188.222L532.651 178.702Z" fill="#455A64"/>
<path d="M532.68 189.673L483.965 189.562L483.943 199.083L532.658 199.193L532.68 189.673Z" fill="#455A64"/>
<path d="M510.487 0C511.758 5.18016 511.675 10.6003 510.244 15.7388C508.974 10.5585 509.058 5.13857 510.487 0Z" fill="#263238"/>
<path d="M466.309 10.8164C468.184 12.7028 469.774 14.8522 471.029 17.197C472.361 19.5014 473.356 21.9841 473.986 24.5701C472.136 22.692 470.567 20.5566 469.327 18.23C467.968 15.9181 466.951 13.4208 466.309 10.8164Z" fill="#263238"/>
<path d="M433.475 42.2539C438.603 43.7399 443.259 46.5317 446.985 50.3562C444.416 49.6482 441.96 48.5774 439.693 47.1761C437.395 45.8427 435.3 44.1849 433.475 42.2539Z" fill="#263238"/>
<path d="M420.714 85.8849C425.894 84.6146 431.314 84.6983 436.452 86.1279C431.272 87.3982 425.852 87.3145 420.714 85.8849Z" fill="#263238"/>
<path d="M431.53 130.063C433.416 128.188 435.566 126.598 437.911 125.343C440.21 124.006 442.695 123.016 445.284 122.406C441.424 126.085 436.69 128.72 431.53 130.063Z" fill="#263238"/>
<path d="M583.611 133.426C578.491 131.919 573.841 129.13 570.1 125.323C575.229 126.809 579.884 129.601 583.611 133.426Z" fill="#263238"/>
<path d="M596.352 89.7742C593.773 90.4408 591.114 90.7408 588.452 90.6655C585.797 90.6763 583.156 90.294 580.613 89.5311C583.183 88.8556 585.837 88.5554 588.493 88.6399C591.152 88.6491 593.798 89.031 596.352 89.7742Z" fill="#263238"/>
<path d="M585.555 45.6162C583.663 47.4783 581.514 49.0608 579.175 50.3156C576.875 51.6558 574.39 52.6521 571.802 53.2729C573.692 51.4197 575.841 49.8505 578.182 48.6141C580.484 47.2677 582.967 46.2582 585.555 45.6162Z" fill="#263238"/>
<path d="M554.118 12.7607C552.632 17.8896 549.841 22.5449 546.016 26.2714C546.724 23.7083 547.795 21.2596 549.196 18.9995C550.534 16.6981 552.192 14.5977 554.118 12.7607Z" fill="#263238"/>
</svg>
