<svg width="879" height="922" viewBox="0 0 879 922" fill="none" xmlns="http://www.w3.org/2000/svg">
<path d="M38.7364 404.391C34.5069 393.029 33.7422 380.668 36.539 368.871C39.3359 357.075 45.5687 346.373 54.449 338.12C63.3292 329.866 74.4579 324.432 86.4272 322.504C98.3965 320.577 110.669 322.242 121.691 327.291C132.713 332.339 141.991 340.543 148.35 350.865C154.709 361.187 157.863 373.163 157.414 385.279C156.966 397.394 152.934 409.104 145.828 418.927C138.723 428.75 128.864 436.246 117.499 440.465C102.27 446.117 85.42 445.493 70.6513 438.729C55.8826 431.965 44.4035 419.614 38.7364 404.391Z" fill="#EBEBEB"/>
<path d="M128.107 387.02C121.07 406.653 100.487 420.199 100.487 420.199C100.487 420.199 77.2406 411.746 65.9979 394.29C56.5304 379.708 59.4256 362.443 71.0909 357.371C87.7859 350.101 95.7741 379.75 95.7741 379.75C95.7741 379.75 96.6828 349.065 114.646 352.278C127.156 354.518 133.961 370.579 128.107 387.02Z" fill="white"/>
<path d="M795.229 573.687C789.502 576.601 783.345 578.577 776.992 579.541C761.751 581.901 746.181 578.429 733.387 569.817C720.593 561.204 711.517 548.085 707.969 533.076C704.421 518.068 706.663 502.273 714.246 488.844C721.829 475.415 734.196 465.338 748.881 460.625C763.565 455.911 779.487 456.908 793.469 463.415C807.452 469.922 818.467 481.462 824.316 495.732C830.166 510.002 830.421 525.953 825.029 540.402C819.638 554.851 808.997 566.737 795.229 573.687Z" fill="#EBEBEB"/>
<path d="M786.776 513.626C786.456 517.301 785.053 520.798 782.745 523.675C780.436 526.551 777.326 528.679 773.808 529.787C770.29 530.895 766.523 530.935 762.982 529.901C759.441 528.867 756.287 526.806 753.919 523.979C751.55 521.151 750.074 517.684 749.676 514.017C749.279 510.351 749.978 506.648 751.686 503.379C753.394 500.11 756.033 497.421 759.27 495.652C762.507 493.884 766.196 493.115 769.87 493.444C774.785 493.885 779.326 496.257 782.495 500.04C785.665 503.823 787.204 508.709 786.776 513.626Z" fill="white"/>
<path d="M795.884 566.016L795.229 573.687C789.502 576.601 783.345 578.577 776.992 579.541C768.964 580.803 760.766 580.445 752.879 578.489C744.992 576.533 737.577 573.018 731.07 568.151L731.725 560.501C732.087 556.286 733.276 552.185 735.223 548.43C737.17 544.675 739.838 541.341 743.074 538.617C746.31 535.893 750.051 533.834 754.083 532.555C758.115 531.277 762.359 530.806 766.573 531.168C770.787 531.53 774.889 532.719 778.644 534.666C782.398 536.614 785.733 539.281 788.456 542.517C791.18 545.753 793.24 549.494 794.518 553.526C795.796 557.558 796.268 561.802 795.905 566.016H795.884Z" fill="white"/>
<path d="M765.617 150.226C799.818 135.659 815.734 96.1256 801.167 61.9252C786.601 27.7248 747.067 11.8084 712.867 26.375C678.667 40.9415 662.75 80.4749 677.317 114.675C691.883 148.876 731.417 164.792 765.617 150.226Z" fill="#EBEBEB"/>
<path fill-rule="evenodd" clip-rule="evenodd" d="M730.035 115.039C728.259 113.919 726.717 112.292 724.329 112.524C723.42 112.524 723.61 111.848 723.61 111.362C723.61 102.38 723.61 93.4411 723.61 84.4597C723.61 83.8257 723.61 83.2762 724.371 82.917C731.218 79.4723 734.177 72.6675 738.382 66.8771C740.532 63.9912 742.08 60.7023 742.933 57.2062C743.786 53.7101 743.927 50.078 743.348 46.5262C743.052 44.5186 744.003 43.6099 745.821 43.1872C746.736 42.8803 747.724 42.8725 748.644 43.1651C749.563 43.4576 750.366 44.0353 750.935 44.8144C752.904 48.4773 754.226 52.4521 754.845 56.5643C755.246 59.9455 754.02 63.2634 753.598 66.6235C753.281 69.0961 752.71 71.5263 752.245 74.02C752.837 74.4427 753.534 74.2313 754.189 74.2313H776.907C780.098 74.2313 781.662 75.1401 782.106 77.2533C782.348 78.5585 782.157 79.9071 781.562 81.0936C780.967 82.2802 780 83.2396 778.809 83.8257C778.239 84.1004 777.203 83.8257 777.14 84.7344C777.076 85.6431 778.133 85.5374 778.661 85.9178C781.387 87.7987 780.88 91.666 777.71 93.906C776.95 94.4555 775.47 94.2019 775.428 95.3219C775.386 96.442 776.802 96.2095 777.436 96.8224C779.549 98.9357 778.534 103.162 775.322 104.747C774.869 104.891 774.425 105.06 773.991 105.254C773.611 105.508 773.251 105.804 773.991 106.311C777.267 108.657 777.203 111.911 773.991 114.299L772.998 114.997C771.801 115.726 770.396 116.038 769.004 115.884C757.127 115.884 745.25 115.884 733.374 115.884C732.789 115.986 732.189 115.963 731.614 115.817C731.039 115.671 730.501 115.406 730.035 115.039Z" fill="white"/>
<path fill-rule="evenodd" clip-rule="evenodd" d="M696.285 99.2321C696.285 93.5262 696.285 87.8415 696.285 82.1356C696.285 80.9944 696.391 80.4238 697.807 80.4238C704.76 80.4238 711.691 80.4238 718.644 80.4238C720.017 80.4238 720.229 80.8676 720.208 82.0722C720.208 93.5544 720.208 105.022 720.208 116.476C720.208 117.935 719.806 118.336 718.348 118.315C711.614 118.231 704.879 118.231 698.145 118.315C696.454 118.315 696.222 117.744 696.243 116.202C696.327 110.644 696.285 104.938 696.285 99.2321Z" fill="white"/>
<path d="M150.614 720.518C154.143 743.067 141.463 766.884 141.463 766.884C141.463 766.884 114.751 770.857 94.6962 759.952C77.8745 750.971 71.7248 732.712 80.1779 721.744C92.4773 706.021 115.639 730.409 115.639 730.409C115.639 730.409 100.487 700.379 119.464 694.102C132.714 689.686 147.803 701.71 150.614 720.518Z" fill="#EBEBEB"/>
<path d="M197.233 665C187.131 678.42 168.048 684.02 168.048 684.02C168.048 684.02 152.241 671.995 147.676 655.829C143.872 642.346 150.233 629.73 160.356 628.631C174.959 627.025 174.008 651.75 174.008 651.75C174.008 651.75 182.038 628.356 195.141 635.118C204.27 639.747 205.644 653.758 197.233 665Z" fill="#EBEBEB"/>
<path d="M439.437 921.344C624.334 921.344 774.223 901.276 774.223 876.521C774.223 851.766 624.334 831.698 439.437 831.698C254.539 831.698 104.65 851.766 104.65 876.521C104.65 901.276 254.539 921.344 439.437 921.344Z" fill="#EBEBEB"/>
<path d="M10.3972 837.953L117.668 837.446L224.917 837.256L439.436 836.896L653.956 837.256L761.205 837.446L868.455 837.953L761.205 838.46L653.956 838.65L439.436 839.01L224.917 838.65L117.668 838.46L10.3972 837.953Z" fill="#263238"/>
<path d="M618.03 53.416H260.885C256.093 53.4575 251.356 54.4427 246.945 56.3155C242.535 58.1883 238.536 60.9118 235.178 64.3306C231.82 67.7494 229.169 71.7963 227.375 76.2401C225.582 80.684 224.682 85.4376 224.727 90.2294V825.653C224.642 835.329 228.404 844.642 235.184 851.545C241.965 858.449 251.209 862.377 260.885 862.466H618.03C627.712 862.383 636.964 858.457 643.752 851.554C650.541 844.651 654.31 835.334 654.231 825.653V90.2294C654.273 85.4348 653.369 80.679 651.572 76.2337C649.776 71.7884 647.12 67.7407 643.758 64.3219C640.397 60.9031 636.394 58.1803 631.98 56.3091C627.565 54.4378 622.825 53.4547 618.03 53.416ZM631.619 802.935C631.619 822.293 617.122 837.952 599.264 837.952H279.651C261.709 837.952 247.233 822.293 247.233 802.935V118.104C247.233 78.6698 261.709 76.7467 279.651 76.7467H343.662C347.382 76.7467 350.425 80.9733 350.425 86.2142V88.4754C350.425 100.754 357.145 100.796 365.408 100.796H513.338C521.791 100.796 528.321 100.796 528.321 88.4754V86.2142C528.321 80.9733 531.322 76.7467 535.126 76.7467H599.159C617.016 76.7467 631.513 81.9876 631.513 118.104L631.619 802.935Z" fill="#263238"/>
<path d="M459.618 85.4542H419.234C418.572 85.4542 417.938 85.1914 417.47 84.7238C417.003 84.2561 416.74 83.6218 416.74 82.9605C416.74 82.2991 417.003 81.6648 417.47 81.1972C417.938 80.7295 418.572 80.4668 419.234 80.4668H459.618C460.28 80.4668 460.914 80.7295 461.382 81.1972C461.849 81.6648 462.112 82.2991 462.112 82.9605C462.112 83.6218 461.849 84.2561 461.382 84.7238C460.914 85.1914 460.28 85.4542 459.618 85.4542Z" fill="white"/>
<path d="M631.619 118.104V802.935C631.619 822.293 617.122 837.953 599.264 837.953H279.651C261.709 837.953 247.233 822.293 247.233 802.935V118.104C247.233 78.6702 261.709 76.7471 279.651 76.7471H343.662C347.382 76.7471 350.425 80.9736 350.425 86.2146V88.4758C350.425 100.754 357.145 100.796 365.408 100.796H513.338C521.791 100.796 528.321 100.796 528.321 88.4758V86.2146C528.321 80.9736 531.322 76.7471 535.126 76.7471H599.159C617.121 76.8316 631.619 81.988 631.619 118.104Z" fill="white"/>
<path d="M631.619 118.104V169.203H247.127V118.104C247.127 78.6702 261.709 76.8316 279.63 76.8316H343.662C347.382 76.8316 350.425 81.0582 350.425 86.2991V88.5603C350.425 100.839 357.145 100.881 365.387 100.881H513.401C521.728 100.881 528.406 100.881 528.406 88.5603V86.2146C528.406 80.9736 531.407 76.7471 535.189 76.7471H599.201C617.121 76.8316 631.619 81.988 631.619 118.104Z" fill="#1047F7"/>
<path d="M283.645 144.267L272.297 133.616L283.645 122.965L285.399 124.846L276.058 133.616L285.399 142.386L283.645 144.267Z" fill="white"/>
<path d="M596.749 145.007H589.142V142.344C589.139 142.225 589.104 142.11 589.041 142.009C588.978 141.908 588.888 141.827 588.782 141.773C588.487 141.626 588.212 141.456 587.937 141.287C587.835 141.226 587.718 141.193 587.599 141.193C587.48 141.193 587.363 141.226 587.261 141.287L584.978 142.598L581.175 136.025L583.478 134.694C583.579 134.634 583.66 134.546 583.713 134.441C583.765 134.337 583.786 134.219 583.774 134.102C583.763 133.94 583.763 133.778 583.774 133.616C583.763 133.454 583.763 133.292 583.774 133.13C583.786 133.014 583.765 132.896 583.713 132.791C583.66 132.686 583.579 132.598 583.478 132.538L581.175 131.207L584.978 124.635L587.261 125.945C587.363 126.006 587.48 126.039 587.599 126.039C587.718 126.039 587.835 126.006 587.937 125.945C588.212 125.776 588.487 125.607 588.782 125.459C588.888 125.405 588.978 125.324 589.041 125.223C589.104 125.123 589.139 125.007 589.142 124.888V122.226H596.749V124.867C596.752 124.986 596.787 125.102 596.85 125.202C596.913 125.303 597.003 125.384 597.109 125.438L597.954 125.924C598.056 125.985 598.173 126.018 598.292 126.018C598.411 126.018 598.528 125.985 598.63 125.924L600.913 124.614L604.695 131.186L602.413 132.517C602.31 132.576 602.226 132.663 602.17 132.768C602.114 132.872 602.088 132.991 602.096 133.109C602.107 133.271 602.107 133.433 602.096 133.595V134.06C602.076 134.18 602.094 134.304 602.147 134.413C602.2 134.523 602.286 134.614 602.392 134.673L604.674 136.004L600.891 142.577L598.588 141.266C598.49 141.204 598.376 141.171 598.26 141.171C598.144 141.171 598.031 141.204 597.933 141.266L597.088 141.752C596.982 141.806 596.892 141.887 596.829 141.988C596.766 142.088 596.731 142.204 596.728 142.323L596.749 145.007ZM590.727 143.422H595.165V142.344C595.164 141.934 595.277 141.533 595.489 141.182C595.702 140.832 596.006 140.547 596.369 140.358C596.62 140.245 596.86 140.11 597.088 139.956C597.433 139.729 597.837 139.608 598.25 139.608C598.663 139.608 599.067 139.729 599.412 139.956L600.321 140.484L602.54 136.638L601.61 136.11C601.24 135.906 600.939 135.595 600.747 135.219C600.554 134.842 600.48 134.416 600.532 133.997V133.194C600.482 132.772 600.56 132.344 600.756 131.967C600.952 131.59 601.257 131.281 601.631 131.08L602.54 130.552L600.321 126.706L599.412 127.234C599.067 127.461 598.663 127.582 598.25 127.582C597.837 127.582 597.433 127.461 597.088 127.234C596.865 127.084 596.632 126.95 596.39 126.833C596.021 126.648 595.712 126.364 595.495 126.013C595.279 125.663 595.164 125.258 595.165 124.846V123.789H590.727V124.846C590.727 125.258 590.613 125.663 590.396 126.013C590.18 126.364 589.87 126.648 589.501 126.833C589.257 126.946 589.024 127.08 588.803 127.234C588.458 127.461 588.054 127.582 587.641 127.582C587.228 127.582 586.824 127.461 586.479 127.234L585.57 126.706L583.457 130.552L584.366 131.08C584.74 131.281 585.045 131.59 585.241 131.967C585.437 132.344 585.515 132.772 585.465 133.194C585.436 133.46 585.436 133.73 585.465 133.997C585.515 134.418 585.437 134.846 585.241 135.223C585.045 135.6 584.74 135.909 584.366 136.11L583.457 136.638L585.57 140.484L586.479 139.956C586.824 139.729 587.228 139.608 587.641 139.608C588.054 139.608 588.458 139.729 588.803 139.956C589.027 140.106 589.26 140.24 589.501 140.358C589.87 140.542 590.18 140.826 590.396 141.177C590.613 141.527 590.727 141.932 590.727 142.344V143.422ZM592.946 139.322C591.811 139.326 590.701 138.993 589.756 138.366C588.811 137.738 588.073 136.844 587.637 135.796C587.201 134.749 587.086 133.596 587.306 132.483C587.527 131.37 588.073 130.348 588.875 129.545C589.677 128.743 590.699 128.197 591.812 127.977C592.925 127.757 594.078 127.872 595.126 128.308C596.173 128.744 597.067 129.481 597.695 130.427C598.323 131.372 598.656 132.482 598.651 133.616C598.646 135.128 598.043 136.576 596.974 137.645C595.905 138.714 594.457 139.316 592.946 139.322ZM592.946 129.474C592.105 129.453 591.278 129.683 590.569 130.135C589.86 130.586 589.302 131.239 588.966 132.009C588.63 132.779 588.531 133.632 588.682 134.459C588.833 135.285 589.227 136.048 589.814 136.65C590.4 137.252 591.153 137.665 591.976 137.837C592.798 138.009 593.653 137.931 594.432 137.615C595.21 137.298 595.877 136.757 596.346 136.059C596.815 135.362 597.066 134.541 597.066 133.701C597.067 132.598 596.636 131.538 595.866 130.749C595.096 129.959 594.048 129.502 592.946 129.474Z" fill="white"/>
<path d="M332.61 92.1319L331.997 92.7448C331.87 92.7448 331.765 92.9773 331.638 93.1041C330.862 92.3123 329.934 91.6852 328.91 91.2604C327.886 90.8356 326.787 90.6217 325.678 90.6315C324.569 90.6168 323.468 90.8284 322.444 91.2535C321.419 91.6787 320.492 92.3083 319.719 93.1041L319.381 92.7448L318.768 92.1319L319.55 91.4557C320.104 90.9933 320.715 90.6028 321.367 90.2934C322.121 89.913 322.925 89.6425 323.755 89.4903C324.157 89.4903 324.558 89.4904 324.96 89.3213H326.016H326.819C327.542 89.4161 328.251 89.5933 328.933 89.8496C329.452 90.0388 329.954 90.2721 330.433 90.547C330.934 90.8342 331.408 91.1666 331.849 91.5402L332.504 92.1319H332.61Z" fill="white"/>
<path d="M321.663 95.0496C321.346 94.7115 321.029 94.3945 320.691 94.0775C321.343 93.4213 322.119 92.9005 322.973 92.5452C323.827 92.1898 324.743 92.0068 325.668 92.0068C326.593 92.0068 327.509 92.1898 328.363 92.5452C329.217 92.9005 329.993 93.4213 330.645 94.0775L329.673 95.0496C328.611 93.9875 327.17 93.3909 325.668 93.3909C324.166 93.3909 322.725 93.9875 321.663 95.0496Z" fill="white"/>
<path d="M328.7 96.0215L327.728 96.9936C327.456 96.711 327.127 96.4895 326.762 96.3438C326.398 96.198 326.007 96.1314 325.615 96.1483C325.224 96.1367 324.834 96.2057 324.47 96.3511C324.107 96.4965 323.777 96.7153 323.502 96.9936L322.53 96.0215C322.925 95.5993 323.403 95.2626 323.933 95.0325C324.464 94.8023 325.036 94.6836 325.615 94.6836C326.193 94.6836 326.766 94.8023 327.296 95.0325C327.827 95.2626 328.305 95.5993 328.7 96.0215Z" fill="white"/>
<path d="M326.545 97.9645C326.545 98.1943 326.453 98.4147 326.291 98.5772C326.129 98.7397 325.908 98.831 325.678 98.831C325.552 98.8507 325.422 98.8428 325.299 98.8078C325.176 98.7728 325.062 98.7115 324.964 98.6281C324.867 98.5448 324.789 98.4414 324.735 98.325C324.682 98.2087 324.654 98.0821 324.654 97.954C324.654 97.8259 324.682 97.6993 324.735 97.5829C324.789 97.4665 324.867 97.3631 324.964 97.2798C325.062 97.1965 325.176 97.1352 325.299 97.1002C325.422 97.0652 325.552 97.0573 325.678 97.077C325.794 97.0769 325.908 97.1 326.015 97.1449C326.121 97.1897 326.218 97.2555 326.299 97.3382C326.379 97.4209 326.443 97.5189 326.485 97.6265C326.527 97.7341 326.548 97.849 326.545 97.9645Z" fill="white"/>
<path d="M272.276 93.9907C272.276 93.4849 272.426 92.9905 272.707 92.57C272.988 92.1495 273.387 91.8218 273.854 91.6282C274.321 91.4347 274.836 91.3841 275.332 91.4827C275.828 91.5814 276.283 91.8249 276.641 92.1826C276.998 92.5402 277.242 92.9958 277.341 93.4918C277.439 93.9878 277.389 94.502 277.195 94.9692C277.002 95.4365 276.674 95.8358 276.253 96.1168C275.833 96.3978 275.338 96.5477 274.833 96.5477C274.155 96.5477 273.504 96.2783 273.025 95.7988C272.545 95.3193 272.276 94.6689 272.276 93.9907Z" fill="white"/>
<path d="M280.306 93.9907C280.306 93.4849 280.456 92.9905 280.737 92.57C281.018 92.1495 281.417 91.8218 281.885 91.6282C282.352 91.4347 282.866 91.3841 283.362 91.4827C283.858 91.5814 284.314 91.8249 284.671 92.1826C285.029 92.5402 285.273 92.9958 285.371 93.4918C285.47 93.9878 285.419 94.502 285.226 94.9692C285.032 95.4365 284.704 95.8358 284.284 96.1168C283.863 96.3978 283.369 96.5477 282.863 96.5477C282.527 96.5477 282.195 96.4816 281.885 96.3531C281.574 96.2246 281.293 96.0362 281.055 95.7988C280.818 95.5614 280.629 95.2795 280.501 94.9692C280.372 94.659 280.306 94.3265 280.306 93.9907Z" fill="white"/>
<path d="M288.337 93.9925C288.337 93.4859 288.487 92.9907 288.769 92.5697C289.051 92.1488 289.452 91.8211 289.92 91.6282C290.388 91.4352 290.904 91.3859 291.4 91.4863C291.897 91.5866 292.352 91.8323 292.709 92.192C293.066 92.5517 293.308 93.0093 293.404 93.5067C293.5 94.0042 293.447 94.519 293.25 94.9858C293.053 95.4527 292.722 95.8506 292.299 96.129C291.876 96.4074 291.379 96.5538 290.872 96.5496C290.538 96.5496 290.206 96.4833 289.897 96.3546C289.588 96.2258 289.308 96.0371 289.072 95.7994C288.836 95.5617 288.65 95.2796 288.523 94.9695C288.397 94.6594 288.334 94.3273 288.337 93.9925Z" fill="white"/>
<path d="M296.367 93.9925C296.367 93.4859 296.518 92.9907 296.799 92.5697C297.081 92.1488 297.482 91.8211 297.95 91.6282C298.419 91.4352 298.934 91.3859 299.431 91.4863C299.927 91.5866 300.383 91.8323 300.74 92.192C301.096 92.5517 301.338 93.0093 301.435 93.5067C301.531 94.0042 301.477 94.519 301.28 94.9858C301.084 95.4527 300.753 95.8506 300.329 96.129C299.906 96.4074 299.41 96.5538 298.903 96.5496C298.568 96.5496 298.237 96.4833 297.928 96.3546C297.619 96.2258 297.338 96.0371 297.102 95.7994C296.867 95.5617 296.68 95.2796 296.554 94.9695C296.428 94.6594 296.364 94.3273 296.367 93.9925Z" fill="white"/>
<path d="M304.376 93.9907C304.376 93.4849 304.526 92.9905 304.807 92.57C305.088 92.1495 305.488 91.8218 305.955 91.6282C306.422 91.4347 306.936 91.3841 307.432 91.4827C307.928 91.5814 308.384 91.8249 308.742 92.1826C309.099 92.5402 309.343 92.9958 309.441 93.4918C309.54 93.9878 309.489 94.502 309.296 94.9692C309.102 95.4365 308.775 95.8358 308.354 96.1168C307.934 96.3978 307.439 96.5477 306.933 96.5477C306.255 96.5477 305.605 96.2783 305.125 95.7988C304.646 95.3193 304.376 94.6689 304.376 93.9907Z" fill="white"/>
<path d="M602.793 99.5494H582.041V89.9551H602.793V99.5494ZM583.098 98.4928H601.737V91.0117H583.14L583.098 98.4928Z" fill="white"/>
<path d="M597.151 91.582H583.774V97.9219H597.151V91.582Z" fill="white"/>
<path d="M604.632 92.1963H602.793V97.3316H604.632V92.1963Z" fill="white"/>
<path d="M305.623 796.088H302.707V809.508H297.255V802.661H287.576V809.508H282.123V796.088H279.186L292.415 782.437L305.623 796.088Z" fill="#EBEBEB"/>
<path d="M599.687 782.437H567.819V786.98H599.687V782.437Z" fill="#EBEBEB"/>
<path d="M599.687 793.701H567.819V798.245H599.687V793.701Z" fill="#EBEBEB"/>
<path d="M599.687 804.964H567.819V809.507H599.687V804.964Z" fill="#EBEBEB"/>
<path d="M305.01 236.427C303.099 237.62 301.009 238.498 298.818 239.026C293.566 240.315 288.02 239.576 283.288 236.956C278.556 234.337 274.986 230.03 273.29 224.894C271.594 219.758 271.896 214.172 274.137 209.249C276.377 204.327 280.392 200.43 285.379 198.336C290.366 196.243 295.958 196.107 301.041 197.955C306.124 199.803 310.324 203.5 312.802 208.307C315.279 213.115 315.853 218.68 314.409 223.892C312.965 229.104 309.609 233.58 305.01 236.427Z" fill="#DBDBDB"/>
<path d="M300.256 215.738C300.256 217.03 299.873 218.292 299.155 219.366C298.438 220.44 297.418 221.277 296.224 221.771C295.031 222.265 293.718 222.395 292.452 222.143C291.185 221.891 290.021 221.269 289.108 220.356C288.195 219.442 287.573 218.279 287.321 217.012C287.069 215.745 287.198 214.432 287.692 213.239C288.187 212.046 289.024 211.026 290.098 210.309C291.171 209.591 292.434 209.208 293.725 209.208C295.457 209.208 297.118 209.896 298.343 211.121C299.568 212.345 300.256 214.006 300.256 215.738Z" fill="white"/>
<path d="M305.01 233.744V236.428C303.099 237.621 301.008 238.499 298.818 239.027C296.056 239.704 293.187 239.823 290.378 239.377C287.569 238.93 284.878 237.928 282.461 236.428V233.744C282.396 232.222 282.638 230.703 283.175 229.278C283.712 227.852 284.532 226.551 285.585 225.451C286.639 224.35 287.904 223.475 289.305 222.877C290.705 222.279 292.213 221.971 293.736 221.971C295.259 221.971 296.766 222.279 298.167 222.877C299.568 223.475 300.833 224.35 301.886 225.451C302.94 226.551 303.76 227.852 304.296 229.278C304.833 230.703 305.076 232.222 305.01 233.744Z" fill="white"/>
<path d="M478.406 197.964H342.078V209.207H478.406V197.964Z" fill="#EBEBEB"/>
<path d="M461.077 216.71H342.078V224.149H461.077V216.71Z" fill="#EBEBEB"/>
<path d="M538.846 231.059H342.078V238.497H538.846V231.059Z" fill="#EBEBEB"/>
<path d="M247.212 526.539H631.555V257.391L247.212 257.391L247.212 526.539Z" fill="#EBEBEB"/>
<path d="M292.141 333.914C292.141 340.212 294.008 346.37 297.508 351.607C301.007 356.844 305.981 360.926 311.8 363.337C317.62 365.747 324.023 366.378 330.201 365.149C336.379 363.92 342.053 360.887 346.507 356.433C350.961 351.979 353.994 346.304 355.223 340.127C356.452 333.949 355.821 327.546 353.411 321.726C351 315.907 346.918 310.933 341.681 307.434C336.444 303.934 330.286 302.066 323.988 302.066C315.541 302.066 307.441 305.422 301.468 311.394C295.496 317.367 292.141 325.467 292.141 333.914Z" fill="#DBDBDB"/>
<path d="M417.881 468H631.619L524.75 323.155L417.881 468Z" fill="#C7C7C7"/>
<path d="M334.11 468.698H510.57L422.34 374.361L334.11 468.698Z" fill="#DBDBDB"/>
<path d="M631.576 468.571H247.233V526.56H631.576V468.571Z" fill="#DBDBDB"/>
<path d="M305.01 668.552C303.094 669.73 301.004 670.6 298.818 671.13C294.701 672.129 290.38 671.885 286.401 670.429C282.423 668.973 278.965 666.37 276.465 662.949C273.966 659.528 272.536 655.443 272.357 651.21C272.178 646.977 273.258 642.786 275.461 639.167C277.663 635.547 280.889 632.662 284.73 630.875C288.572 629.089 292.857 628.481 297.044 629.129C301.231 629.777 305.132 631.652 308.254 634.516C311.376 637.38 313.578 641.106 314.584 645.222C315.649 649.623 315.298 654.249 313.579 658.439C311.859 662.628 308.861 666.168 305.01 668.552Z" fill="#DBDBDB"/>
<path d="M300.256 647.779C300.256 649.071 299.873 650.333 299.155 651.407C298.438 652.481 297.418 653.318 296.224 653.812C295.031 654.306 293.718 654.436 292.452 654.184C291.185 653.932 290.021 653.31 289.108 652.397C288.195 651.483 287.573 650.32 287.321 649.053C287.069 647.786 287.198 646.473 287.692 645.28C288.187 644.087 289.024 643.067 290.098 642.35C291.171 641.632 292.434 641.249 293.725 641.249C295.457 641.249 297.118 641.937 298.343 643.162C299.568 644.386 300.256 646.047 300.256 647.779Z" fill="white"/>
<path d="M305.01 665.783V668.551C303.094 669.729 301.004 670.599 298.818 671.13C296.057 671.812 293.186 671.933 290.377 671.486C287.567 671.04 284.876 670.035 282.461 668.53V665.846C282.396 664.325 282.638 662.806 283.175 661.38C283.712 659.955 284.532 658.653 285.585 657.553C286.639 656.453 287.904 655.578 289.305 654.98C290.705 654.382 292.213 654.073 293.736 654.073C295.259 654.073 296.766 654.382 298.167 654.98C299.568 655.578 300.833 656.453 301.886 657.553C302.94 658.653 303.76 659.955 304.296 661.38C304.833 662.806 305.076 664.325 305.01 665.846V665.783Z" fill="white"/>
<path d="M517.417 630.006H342.078V641.248H517.417V630.006Z" fill="#EBEBEB"/>
<path d="M565.896 648.752H342.078V656.191H565.896V648.752Z" fill="#EBEBEB"/>
<path d="M418.325 663.1H342.078V670.538H418.325V663.1Z" fill="#EBEBEB"/>
<path d="M631.576 689.453H247.233V755.197H631.576V689.453Z" fill="#EBEBEB"/>
<path d="M353.954 755.196H294.021C296.241 749.027 300.31 743.694 305.673 739.924C311.036 736.154 317.432 734.131 323.988 734.131C330.543 734.131 336.939 736.154 342.302 739.924C347.666 743.694 351.735 749.027 353.954 755.196Z" fill="#DBDBDB"/>
<path d="M285.399 567.791C292.425 567.791 298.121 562.095 298.121 555.069C298.121 548.042 292.425 542.347 285.399 542.347C278.373 542.347 272.677 548.042 272.677 555.069C272.677 562.095 278.373 567.791 285.399 567.791Z" fill="#EBEBEB"/>
<path fill-rule="evenodd" clip-rule="evenodd" d="M283.666 560.14C283.328 559.929 283.032 559.612 282.588 559.654C282.144 559.696 282.461 559.548 282.461 559.443C282.461 557.752 282.461 556.061 282.461 554.371C282.451 554.312 282.459 554.252 282.486 554.198C282.513 554.145 282.556 554.102 282.609 554.075C283.898 553.42 284.469 552.131 285.272 551.032C285.676 550.485 285.966 549.863 286.126 549.203C286.285 548.542 286.311 547.856 286.202 547.186C286.202 546.805 286.329 546.636 286.667 546.552C286.842 546.495 287.03 546.494 287.205 546.551C287.379 546.608 287.531 546.72 287.639 546.869C288.011 547.561 288.261 548.311 288.379 549.088C288.364 549.728 288.286 550.365 288.146 550.99C288.146 551.455 287.977 551.919 287.893 552.384C287.998 552.384 288.125 552.384 288.252 552.384H292.478C293.091 552.384 293.387 552.553 293.472 552.955C293.519 553.204 293.483 553.461 293.368 553.687C293.253 553.913 293.067 554.094 292.838 554.202C292.732 554.202 292.542 554.202 292.521 554.371C292.499 554.54 292.711 554.519 292.816 554.603C293.324 554.941 293.239 555.681 292.626 556.104C292.499 556.209 292.204 556.104 292.204 556.378C292.204 556.653 292.457 556.548 292.584 556.653C292.676 556.773 292.739 556.913 292.768 557.062C292.797 557.21 292.79 557.364 292.749 557.509C292.708 557.655 292.634 557.789 292.532 557.901C292.43 558.013 292.303 558.099 292.161 558.154C292.073 558.18 291.988 558.215 291.908 558.259C291.908 558.259 291.781 558.259 291.908 558.449C292.051 558.519 292.171 558.627 292.256 558.761C292.34 558.896 292.385 559.051 292.385 559.21C292.385 559.369 292.34 559.525 292.256 559.659C292.171 559.794 292.051 559.902 291.908 559.971L291.739 560.098C291.51 560.235 291.243 560.295 290.978 560.267H284.237C284.037 560.294 283.835 560.249 283.666 560.14Z" fill="white"/>
<path fill-rule="evenodd" clip-rule="evenodd" d="M277.284 557.16V553.927C277.284 553.695 277.284 553.589 277.58 553.589H281.511C281.764 553.589 281.806 553.589 281.806 553.906V560.415C281.806 560.689 281.806 560.774 281.468 560.753H277.643C277.326 560.753 277.284 560.647 277.284 560.351C277.305 559.295 277.284 558.238 277.284 557.16Z" fill="white"/>
<path d="M299.769 558.091C299.184 555.657 299.332 553.104 300.196 550.753C301.059 548.403 302.599 546.361 304.621 544.885C306.644 543.409 309.058 542.564 311.559 542.458C314.061 542.351 316.538 542.988 318.678 544.288C320.818 545.587 322.526 547.491 323.586 549.759C324.645 552.028 325.01 554.559 324.633 557.035C324.256 559.51 323.155 561.818 321.468 563.668C319.781 565.519 317.584 566.828 315.154 567.432C313.53 567.835 311.843 567.913 310.189 567.661C308.535 567.409 306.947 566.833 305.517 565.964C304.087 565.096 302.843 563.954 301.856 562.602C300.87 561.251 300.161 559.718 299.769 558.091Z" fill="#1047F7"/>
<path d="M318.62 556.675C317.073 559.295 314.827 561.432 312.132 562.846C309.429 561.436 307.175 559.299 305.623 556.675C304.038 553.442 305.053 549.933 307.568 549.173C311.202 548.074 312.132 554.393 312.132 554.393C312.132 554.393 313.062 548.053 316.676 549.173C319.212 549.933 320.226 553.442 318.62 556.675Z" fill="white"/>
<path d="M524.771 553.42H344.191V560.774H524.771V553.42Z" fill="#EBEBEB"/>
<path d="M247.212 597.27L295.268 596.89L343.303 596.742L439.394 596.488L535.485 596.742L583.52 596.89L631.576 597.27L583.52 597.651L535.485 597.799L439.394 598.073L343.303 597.799L295.268 597.651L247.212 597.27Z" fill="#EBEBEB"/>
<path d="M172.39 464.407L42.7268 498.98L77.3003 628.644L206.964 594.07L172.39 464.407Z" fill="#455A64"/>
<path d="M116.442 563.458L99.0707 568.087C97.2533 561.303 95.5415 554.9 93.7452 548.137L110.799 543.594C110.461 542.051 110.25 540.846 109.954 539.663C108.665 534.38 107.059 529.096 106.15 523.834C104.185 512.084 109.045 502.131 119.971 497.545C126.776 494.671 134.299 493.53 141.675 491.564C143.344 497.756 144.844 503.399 146.535 509.718C143.894 510.415 141.252 511.07 138.653 511.831C136.293 512.389 133.993 513.175 131.784 514.177C130.325 514.806 129.137 515.934 128.432 517.358C127.728 518.783 127.553 520.412 127.938 521.954C129.079 527.11 130.601 532.182 132.165 537.719L151.987 532.414C152.875 539.177 153.784 545.432 154.46 551.709C154.46 552.321 153.213 553.463 152.347 553.822C147.592 555.238 142.795 556.442 137.554 557.816C142.118 574.997 146.62 591.882 151.205 609.042L130.073 614.663C125.571 597.63 121.049 580.745 116.442 563.458Z" fill="white"/>
<path d="M812.751 617.893L678.854 604.623L665.584 738.52L799.481 751.79L812.751 617.893Z" fill="#1047F7"/>
<path d="M791.172 655.871C792.44 642.473 784.832 632.963 771.645 631.526C753.33 629.512 734.944 627.687 716.488 626.053C703.47 624.912 694.193 632.689 692.714 645.643C691.678 654.815 690.875 664.007 689.967 673.116C689.058 682.224 688.128 691.079 687.304 700.06C686.057 713.775 693.644 723.306 707.105 724.849C725.28 726.835 743.468 728.639 761.67 730.259C774.984 731.421 784.388 723.518 785.762 710.288C787.664 692.156 789.467 674.017 791.172 655.871ZM776.949 709.633C776.02 718.086 770.99 722.313 762.516 721.552C744.313 719.862 726.125 718.058 707.951 716.142C699.497 715.255 695.271 710.119 696.074 701.687C697.807 683.372 699.624 665.022 701.526 646.636C702.393 638.183 707.57 633.957 715.981 634.654C734.183 636.33 752.372 638.127 770.546 640.043C778.999 640.952 783.226 646.214 782.402 654.603C781.599 663.775 780.626 672.947 779.718 682.076C778.809 691.205 777.964 700.419 776.949 709.591V709.633Z" fill="white"/>
<path d="M741.848 652.322C736.77 651.796 731.65 652.784 727.133 655.162C722.616 657.54 718.904 661.201 716.463 665.685C714.022 670.168 712.963 675.274 713.418 680.358C713.874 685.442 715.823 690.278 719.021 694.257C722.219 698.236 726.523 701.179 731.391 702.717C736.259 704.254 741.473 704.317 746.376 702.897C751.279 701.478 755.653 698.639 758.946 694.738C762.239 690.838 764.305 686.05 764.882 680.978C765.272 677.581 764.984 674.14 764.034 670.855C763.084 667.569 761.492 664.505 759.35 661.84C757.207 659.174 754.557 656.961 751.552 655.327C748.548 653.693 745.249 652.672 741.848 652.322ZM737.262 695.159C732.829 694.587 728.783 692.338 725.957 688.875C723.131 685.413 721.739 680.998 722.067 676.541C722.291 674.284 722.956 672.094 724.026 670.095C725.096 668.096 726.549 666.327 728.302 664.89C730.056 663.453 732.075 662.375 734.245 661.718C736.415 661.061 738.693 660.837 740.949 661.061C743.206 661.284 745.396 661.95 747.395 663.02C749.394 664.089 751.163 665.543 752.6 667.296C754.037 669.049 755.115 671.069 755.772 673.239C756.429 675.409 756.653 677.687 756.429 679.943C755.867 684.486 753.544 688.626 749.958 691.472C746.373 694.318 741.814 695.642 737.262 695.159Z" fill="white"/>
<path d="M775.301 655.005C775.23 655.78 774.992 656.53 774.604 657.204C774.215 657.877 773.686 658.459 773.051 658.909C772.417 659.359 771.692 659.666 770.928 659.809C770.164 659.952 769.377 659.928 768.623 659.739C767.799 659.703 766.993 659.479 766.268 659.085C765.543 658.69 764.918 658.136 764.439 657.464C763.96 656.792 763.641 656.019 763.505 655.205C763.37 654.391 763.422 653.556 763.657 652.765C764.291 649.194 766.806 647.757 770.419 647.905C774.012 648.877 775.956 651.18 775.301 655.005Z" fill="white"/>
<path d="M794.92 325.397L700.648 291.847L667.098 386.119L761.37 419.669L794.92 325.397Z" fill="#455A64"/>
<path d="M686.839 366.353C694.238 369.37 702.456 369.722 710.085 367.346C702.351 361.641 699.836 357.752 700.322 352.384L706.239 354.16C700.343 349.109 697.955 343.086 700.089 335.394L705.52 339.092C702.055 328.969 702.963 322.397 708.733 317.959C710.934 323.844 714.321 329.214 718.683 333.736C723.045 338.258 728.29 341.836 734.092 344.248C734.388 343.255 734.578 342.494 734.811 341.755C735.565 338.737 737.236 336.028 739.594 334C741.952 331.971 744.88 330.723 747.976 330.427C751.066 329.961 754.225 330.457 757.022 331.849C759.82 333.24 762.122 335.459 763.615 338.204C763.877 338.784 764.307 339.271 764.85 339.603C765.393 339.934 766.022 340.095 766.658 340.064C769.321 340.064 771.962 340.064 774.857 340.064C772.723 342.665 769.813 344.516 766.552 345.347C766.563 345.509 766.563 345.671 766.552 345.833L774.392 346.531L774.583 346.932C772.068 348.137 769.574 349.447 766.996 350.504C766.371 350.704 765.801 351.047 765.332 351.505C764.862 351.964 764.506 352.525 764.291 353.145C760.61 363.713 753.092 372.512 743.228 377.797C733.363 383.081 721.873 384.465 711.036 381.675C702.08 379.484 694.006 374.61 687.896 367.706C687.558 367.22 687.198 366.755 686.839 366.353Z" fill="white"/>
<path d="M748.5 133.139L666.003 160.646L693.51 243.142L776.007 215.635L748.5 133.139Z" fill="#1047F7"/>
<path d="M700.427 228.989C700.153 223.812 699.857 219.015 699.709 214.196C699.705 213.485 699.555 212.782 699.268 212.131C698.981 211.48 698.562 210.896 698.039 210.414C694.707 206.918 692.205 202.717 690.718 198.122C689.231 193.527 688.799 188.656 689.452 183.871C690.105 179.085 691.827 174.509 694.491 170.48C697.155 166.452 700.692 163.075 704.839 160.6C708.986 158.125 713.638 156.616 718.448 156.185C723.258 155.754 728.104 156.411 732.625 158.109C737.147 159.806 741.228 162.5 744.566 165.99C747.904 169.481 750.413 173.678 751.907 178.271C754.12 185.974 753.401 194.224 749.889 201.429C746.376 208.633 740.319 214.281 732.887 217.282C727.771 219.255 722.258 219.979 716.805 219.395C715.76 219.332 714.72 219.59 713.825 220.135C709.409 223.03 705.119 225.862 700.427 228.989ZM705.436 219.332C708.183 217.557 710.486 215.972 712.896 214.556C713.755 214.091 714.735 213.899 715.706 214.006C720.166 214.77 724.743 214.466 729.062 213.119C744.87 208.152 752.647 189.344 744.553 175.079C742.228 170.399 738.5 166.562 733.89 164.103C729.279 161.644 724.015 160.687 718.834 161.364C713.483 161.645 708.356 163.606 704.183 166.967C700.01 170.328 697.002 174.919 695.588 180.088C692.122 190.929 695.081 200.354 703.449 208.11C704.214 208.88 704.698 209.885 704.823 210.963C705.224 213.605 705.267 216.31 705.436 219.247V219.332Z" fill="white"/>
<path d="M703.597 180.025C704.738 176.538 707.718 176.157 710.191 178.757C711.163 179.771 711.438 180.13 712.452 181.335C713.167 181.953 713.636 182.806 713.776 183.74C713.915 184.675 713.716 185.628 713.213 186.428C712.431 187.759 712.832 188.541 713.952 189.45C717.368 192.133 721.484 193.776 725.808 194.184C726.081 194.256 726.367 194.273 726.647 194.233C726.927 194.193 727.196 194.097 727.438 193.952C727.681 193.806 727.891 193.613 728.058 193.384C728.224 193.155 728.343 192.895 728.407 192.62C730.013 188.541 730.077 188.562 734.451 189.069L735.952 189.26C736.653 189.243 737.346 189.424 737.95 189.782C738.554 190.14 739.045 190.66 739.367 191.284C739.688 191.908 739.828 192.61 739.77 193.31C739.712 194.009 739.458 194.678 739.037 195.24C738.3 196.696 737.181 197.923 735.8 198.79C734.419 199.658 732.828 200.133 731.197 200.164C722.715 200.652 714.377 197.817 707.951 192.261C705.797 190.76 704.177 188.614 703.323 186.132C702.829 184.112 702.924 181.992 703.597 180.025Z" fill="white"/>
<path d="M414.922 516.077C414.922 516.077 399.981 563.415 381.11 625.038C360.146 693.53 334.322 779.625 318.81 837.931H459.978C462.344 828.548 464.923 818.404 467.649 807.626L479.568 761.134C490.853 717.199 503.279 669.164 514.12 627.384C530.371 564.767 543.051 516.141 543.051 516.141L414.922 516.077Z" fill="#455A64"/>
<path d="M515.684 550.441C512.641 561.282 508.816 571.933 505.455 582.648C502.095 593.362 498.63 604.605 495.248 615.594C488.542 637.361 481.892 659.134 475.299 680.915C462.07 724.463 448.883 768.039 435.738 811.643C433.097 820.413 430.328 829.162 427.602 837.932H431.829C436.886 821.139 441.944 804.331 447.002 787.509C460.273 743.257 473.496 698.984 486.668 654.689C493.262 632.444 499.82 610.177 506.343 587.888C509.619 576.625 512.683 565.34 515.959 554.076C517.628 548.455 516.909 545.982 515.684 550.441Z" fill="#263238"/>
<path d="M429.483 516.077C438.38 584.907 455.328 713.986 467.691 807.711C496.622 694.248 543.093 516.077 543.093 516.077H429.483Z" fill="#263238"/>
<path d="M479.589 761.07C480.286 786.979 480.984 814.093 481.533 837.931H611.247C608.605 779.012 604.062 695.854 600.258 628.821C596.665 565.148 593.706 516.077 593.706 516.077H419.065C419.065 516.077 422.023 577.362 435.971 625.968C437.091 629.983 438.317 633.935 439.648 637.718C452.513 642.923 464.878 649.289 476.588 656.737C476.588 656.737 478.152 706.04 479.589 761.07Z" fill="#455A64"/>
<path d="M590.769 837.931H592.882C592.023 822.321 591.234 806.718 590.515 791.122C586.754 706.802 583.795 622.418 581.005 538.077C581.005 537.401 579.949 537.337 579.97 538.077C581.386 585.774 582.633 633.492 584.196 681.189C586.014 733.345 588.205 785.592 590.769 837.931Z" fill="#263238"/>
<path d="M433.435 634.062C448.476 640.348 462.943 647.928 476.673 656.717C476.77 656.789 476.838 656.893 476.864 657.011C476.891 657.129 476.875 657.252 476.819 657.359C476.763 657.466 476.671 657.55 476.559 657.595C476.447 657.64 476.322 657.643 476.208 657.604C461.626 650.504 446.727 643.678 432.547 635.816C432.352 635.679 432.213 635.476 432.155 635.245C432.097 635.013 432.125 634.768 432.232 634.556C432.34 634.343 432.521 634.176 432.742 634.085C432.962 633.994 433.209 633.986 433.435 634.062Z" fill="#263238"/>
<path d="M424.39 566.226C425.594 572.713 427.158 579.138 428.616 585.583C429.927 591.627 430.878 597.798 432.484 603.757C433.775 609.551 436.71 614.848 440.937 619.015C443.304 621.129 445.924 623.242 448.46 625.186C449.813 626.264 451.292 627.3 452.687 628.42C452.496 627.574 452.349 626.687 452.201 625.82C451.757 623.348 451.355 620.896 450.933 618.445C450.024 612.971 449.136 607.498 448.312 602.025C446.664 591.268 445.142 580.406 442.902 569.755C442.902 569.675 442.929 569.597 442.978 569.534C443.028 569.47 443.097 569.426 443.174 569.406C443.252 569.387 443.334 569.394 443.407 569.426C443.48 569.459 443.541 569.515 443.578 569.586C446.262 580.152 449.221 590.592 451.545 601.285C452.687 606.505 456.786 632.287 456.956 634.104C457.125 635.922 457.294 637.866 457.378 639.768C457.621 641.69 457.621 643.636 457.378 645.558C457.272 646.023 456.702 645.939 456.491 645.558C455.713 643.766 455.16 641.885 454.842 639.958C454.377 638.12 453.955 636.26 453.638 634.379C453.511 633.703 453.426 633.026 453.321 632.266C450.785 630.723 448.418 628.694 446.051 626.961C443.684 625.228 440.895 623.305 438.464 621.277C434 617.495 430.775 612.459 429.208 606.822C427.653 600.746 426.641 594.543 426.186 588.288C425.362 580.976 424.77 573.601 423.735 566.31C423.65 565.972 424.305 565.782 424.39 566.226Z" fill="#263238"/>
<path d="M447.509 345.726C438.845 414.788 423.714 530.617 399.221 539.979C394.994 541.606 376.947 545.178 364.626 531.315C343.853 507.942 307.927 429.074 297.846 403.693C293.387 392.451 366.718 355.764 372.995 367.07C381.786 382.899 391.021 406.737 392.754 405.934C395.691 404.602 400.679 375.206 420.227 333.913C444.635 282.602 450.743 320.05 447.509 345.726Z" fill="#AD6359"/>
<path d="M276.587 376.432C283.814 391.943 310.991 417.873 319.951 421.614C328.912 425.354 374.538 380.637 373.375 370.726C372.213 360.815 343.789 310.518 328.214 302.763C312.639 295.007 269.127 360.371 276.587 376.432Z" fill="#AD6359"/>
<path d="M370.057 361.321C370.057 361.321 368.557 339.111 373.819 320.239C378.257 304.368 386.647 281.291 378.193 278.586C360.865 273.028 339.985 330.573 339.985 330.573C339.985 330.573 334.829 357.433 351.524 364.386C354.595 365.633 357.952 366.006 361.222 365.466C364.493 364.925 367.551 363.491 370.057 361.321Z" fill="#AD6359"/>
<path d="M323.607 379.665L297.889 375.143L311.012 300.649L343.557 306.376L323.607 379.665Z" fill="#1047F7"/>
<path d="M343.557 306.376L335.949 334.335L323.607 379.686L297.867 375.143L311.012 300.649L343.557 306.376Z" fill="#1047F7"/>
<path opacity="0.1" d="M343.557 306.376L335.949 334.335L306.004 329.052L311.012 300.649L343.557 306.376Z" fill="black"/>
<path d="M350.037 287.185L309.537 280.044L304.113 310.804L344.613 317.945L350.037 287.185Z" fill="#1047F7"/>
<path d="M379.187 280.68L347.17 278.27L355.941 228.481L386.837 237.188L379.187 280.68Z" fill="#1047F7"/>
<path d="M341.486 215.78L328.552 289.259L274.643 286.279L143.936 309.8L175.043 133.341L289.816 200.163L341.486 215.78Z" fill="#1047F7"/>
<path d="M185.121 226.135C193.755 177.171 187.998 135.228 172.263 132.453C156.527 129.679 136.772 167.123 128.138 216.088C119.505 265.052 125.262 306.995 140.997 309.77C156.732 312.544 176.487 275.1 185.121 226.135Z" fill="#1047F7"/>
<path opacity="0.2" d="M178.763 223.441C186.428 179.971 182.197 142.889 169.312 140.617C156.427 138.345 139.768 171.743 132.103 215.214C124.438 258.684 128.67 295.766 141.555 298.038C154.439 300.309 171.098 266.911 178.763 223.441Z" fill="black"/>
<path d="M174.959 222.649C173.923 228.439 172.846 234.039 171.43 239.407C168.477 241.047 165.121 241.817 161.749 241.628C158.377 241.439 155.128 240.299 152.377 238.34C149.627 236.381 147.487 233.683 146.206 230.558C144.925 227.433 144.556 224.009 145.14 220.683L146.599 212.357C147.176 209.04 148.68 205.954 150.937 203.454C153.193 200.955 156.111 199.145 159.352 198.233C162.593 197.32 166.026 197.343 169.255 198.298C172.484 199.252 175.377 201.101 177.6 203.629C176.988 209.842 176.1 216.309 174.959 222.649Z" fill="#1047F7"/>
<path d="M356.3 298.348L294.381 293.698L311.35 197.417L371.135 214.218L356.3 298.348Z" fill="#1047F7"/>
<path opacity="0.2" d="M356.3 298.348L294.381 293.698L311.35 197.417L371.135 214.218L356.3 298.348Z" fill="black"/>
<path opacity="0.2" d="M181.172 146.888C184.423 152.835 186.571 159.322 187.512 166.034C188.578 172.715 189.108 179.471 189.097 186.237C189.097 189.618 188.991 193 188.886 196.36C188.78 199.72 188.442 203.101 188.082 206.461C187.723 209.821 187.364 213.181 186.857 216.52C186.35 219.859 185.864 223.198 185.272 226.516C182.95 239.837 179.414 252.916 174.705 265.591C172.322 271.926 169.38 278.036 165.914 283.85C162.549 289.742 157.976 294.855 152.495 298.854C157.734 294.619 162.05 289.354 165.174 283.385C168.449 277.539 171.2 271.414 173.395 265.084C177.824 252.422 181.168 239.407 183.391 226.178C185.906 213.005 187.319 199.645 187.618 186.237C187.801 179.535 187.455 172.829 186.582 166.182C185.907 159.486 184.076 152.958 181.172 146.888Z" fill="black"/>
<path d="M116.801 131.565C120.457 134.461 123.986 137.546 127.368 140.631C130.749 143.717 134.257 146.971 137.638 150.099C141.02 153.227 144.337 156.566 147.592 159.926L152.431 164.955C153.995 166.688 155.622 168.379 157.144 170.154C155.284 168.717 153.53 167.195 151.713 165.716L146.451 161.088C142.964 158.024 139.561 154.748 136.18 151.621C132.799 148.493 129.481 145.154 126.248 141.794C123.014 138.434 119.866 135.095 116.801 131.565Z" fill="#263238"/>
<path d="M142.795 267.914C137.702 269.245 132.545 270.344 127.41 271.401C122.275 272.458 117.097 273.514 111.92 274.338C106.742 275.163 101.564 276.092 96.3446 276.811L88.5255 277.868C85.9261 278.142 83.3057 278.481 80.6852 278.692C83.2211 278.016 85.7993 277.466 88.3564 276.832L96.0699 275.205C101.205 274.106 106.383 273.092 111.56 272.267C116.738 271.443 121.915 270.513 127.135 269.816C132.355 269.119 137.554 268.379 142.795 267.914Z" fill="#263238"/>
<path d="M46.0062 249.593C53.7197 249.001 61.4332 248.62 69.2524 248.282C77.0715 247.944 84.6793 247.712 92.3928 247.522C100.106 247.331 107.841 247.226 115.639 247.247H127.22C131.087 247.247 134.954 247.247 138.822 247.522C134.954 247.839 131.108 248.029 127.241 248.282L115.66 248.853C107.947 249.212 100.233 249.402 92.414 249.614C84.5948 249.825 76.9659 249.888 69.1678 249.867C61.3698 249.846 53.7408 249.867 46.0062 249.593Z" fill="#263238"/>
<path d="M73.6691 133.108C80.2625 137.335 86.7292 141.773 93.1747 146.232C99.6202 150.691 106.002 155.235 112.363 159.799C118.724 164.364 125.043 169.013 131.256 173.768L140.597 180.89C143.661 183.341 146.768 185.708 149.811 188.202C146.493 186.088 143.26 183.975 139.984 181.735L130.305 175.078C123.838 170.64 117.477 166.076 111.116 161.511C104.755 156.946 98.4368 152.276 92.2237 147.542C86.0107 142.808 79.7553 138.117 73.6691 133.108Z" fill="#263238"/>
<path d="M141.759 217.746C132.799 216.52 123.86 215.062 114.941 213.519C106.023 211.976 97.1265 210.349 88.2296 208.785C79.3326 207.221 70.4568 205.383 61.6022 203.544L48.3096 200.776C43.914 199.762 39.4761 198.832 35.0804 197.754C39.5606 198.367 44.0408 199.085 48.4998 199.74L61.898 201.854C70.8161 203.333 79.713 205.024 88.61 206.587C97.5069 208.151 106.383 209.99 115.237 211.828C124.092 213.667 133.01 215.653 141.759 217.746Z" fill="#263238"/>
<path d="M349.897 319.521C348.903 328.524 338.844 322.226 338.844 322.226C338.844 322.226 351.143 334.779 346.537 343.697C342.077 352.256 330.201 344.205 329.334 343.697C329.989 344.374 340.979 356.208 335.442 364.682C329.905 373.157 319.127 363.351 318.535 362.696C318.937 363.52 324.178 374.509 318.535 379.983C308.772 389.387 294.634 361.639 284.068 358.702C284.068 358.702 277.031 376.031 276.714 376.496C276.714 376.496 262.724 350.397 267.5 336.343C268.159 334.292 269.498 332.527 271.297 331.339C273.095 330.152 275.244 329.614 277.39 329.813C277.39 329.813 271.959 321.909 276.101 315.02C278.214 311.533 285.737 311.85 285.737 311.85C285.737 311.85 281.638 305.32 285.737 299.509C288.971 294.859 295.966 295.895 295.966 295.895C295.966 295.895 294.93 287.822 299.791 284.124C309.406 276.727 351.968 300.227 349.897 319.521Z" fill="#AD6359"/>
<path d="M296.959 295.938C296.936 295.928 296.917 295.911 296.903 295.891C296.89 295.87 296.883 295.846 296.883 295.821C296.883 295.797 296.89 295.772 296.903 295.752C296.917 295.731 296.936 295.715 296.959 295.705C312.851 299.932 328.975 309.61 339.372 322.502C339.711 322.924 339.161 323.664 338.696 323.262C326.174 312.189 312.116 302.985 296.959 295.938Z" fill="#263238"/>
<path d="M285.441 311.682C285.272 311.682 285.441 311.323 285.589 311.386C301.925 315.909 319.782 327.236 329.968 343.487C330.306 344.058 330.074 344.903 329.609 344.29C322.065 333.999 299.791 318.086 285.441 311.682Z" fill="#263238"/>
<path d="M318.768 364.005C308.35 348.79 294.106 338.435 277.96 329.918C277.749 329.918 277.96 329.517 278.13 329.58C287.153 331.693 296.895 338.033 304.038 343.802C310.777 348.964 316.039 355.808 319.296 363.646C319.423 363.963 318.979 364.238 318.768 364.005Z" fill="#263238"/>
<path d="M339.161 322.204C339.563 322.711 338.379 322.754 338.76 323.261C340.429 325.374 349.22 339.491 345.374 343.971C342.289 347.564 335.315 345.894 332.906 344.203L326.798 339.977L331.025 346.084C332.911 348.783 334.339 351.775 335.252 354.939C335.775 356.377 335.987 357.91 335.874 359.437C335.761 360.963 335.326 362.448 334.596 363.794C333.908 365.04 332.812 366.011 331.492 366.546C330.173 367.081 328.71 367.146 327.348 366.731C324.323 365.731 321.598 363.987 319.423 361.659L313.231 355.319L317.014 363.223C318.077 365.419 318.858 367.741 319.338 370.133C319.876 372.382 319.751 374.738 318.979 376.917C318.571 377.877 317.905 378.706 317.054 379.31C316.204 379.915 315.202 380.271 314.161 380.341C311.822 380.144 309.586 379.287 307.715 377.868C303.609 374.841 299.744 371.499 296.156 367.872C294.296 366.097 292.415 364.322 290.45 362.631C288.569 360.832 286.329 359.449 283.878 358.574C286.184 359.695 288.25 361.252 289.964 363.16C291.781 364.977 293.493 366.879 295.226 368.781C298.631 372.734 302.403 376.357 306.49 379.601C308.673 381.41 311.341 382.535 314.161 382.834C315.707 382.824 317.217 382.365 318.507 381.514C319.798 380.662 320.813 379.454 321.431 378.037C322.513 375.355 322.763 372.41 322.149 369.584C321.67 366.911 320.846 364.311 319.698 361.849L317.289 363.498C319.81 366.306 323.023 368.404 326.608 369.584C328.615 370.179 330.766 370.059 332.694 369.246C334.553 368.381 336.113 366.984 337.175 365.231C338.098 363.525 338.648 361.643 338.79 359.708C338.932 357.774 338.663 355.831 337.999 354.009C336.919 350.541 335.269 347.277 333.117 344.351L331.257 346.211C334.427 348.324 341.993 350.966 347.487 346C353.764 338.603 341.57 324.592 339.161 322.204Z" fill="#263238"/>
<path d="M338.844 322.227C340.591 322.891 342.43 323.283 344.296 323.39C345.043 323.452 345.792 323.314 346.468 322.991C347.144 322.668 347.722 322.171 348.142 321.551C348.86 320.061 349.132 318.395 348.924 316.754C348.798 314.937 348.565 313.035 348.248 311.069C349.504 312.656 350.405 314.494 350.89 316.458C351.216 317.52 351.33 318.636 351.225 319.742C351.12 320.848 350.798 321.922 350.277 322.904C349.6 323.934 348.617 324.725 347.466 325.165C346.371 325.538 345.194 325.603 344.064 325.355C342.036 324.894 340.207 323.798 338.844 322.227Z" fill="#263238"/>
<path d="M292.141 428.587L372.297 364.238C372.297 364.238 391.719 404.39 392.86 404.221C394.001 404.052 406.723 350.776 427.813 317.576C448.904 284.377 453.976 320.408 449.496 347.796C445.016 375.185 423.925 526.982 404.969 540.887C386.013 554.793 368.198 537.379 360.59 530.004C349.96 519.712 292.141 428.587 292.141 428.587Z" fill="#1047F7"/>
<path d="M307.568 435.836C310.082 433.258 335.273 413.605 340.831 409.463L357.568 397.036C363.316 392.81 369.001 388.14 375.087 384.357C375.113 384.336 375.144 384.321 375.176 384.311C375.208 384.302 375.242 384.3 375.275 384.304C375.309 384.307 375.341 384.318 375.37 384.334C375.4 384.351 375.425 384.373 375.446 384.399C375.467 384.425 375.482 384.456 375.492 384.488C375.501 384.52 375.503 384.554 375.5 384.587C375.496 384.621 375.485 384.653 375.469 384.682C375.452 384.712 375.43 384.737 375.404 384.758C370.121 389.619 364.161 393.845 358.498 398.262C352.834 402.679 347.361 407.011 341.782 411.343C336.203 415.676 310.843 434.59 307.8 436.259C307.546 436.386 307.398 436.09 307.568 435.836Z" fill="#263238"/>
<path d="M392.944 404.117C395.057 408.851 397.171 413.712 398.946 418.572C400.721 423.433 402.496 428.399 404.081 433.365C405.666 438.331 407.103 443.361 408.308 448.454C409.569 453.529 410.536 458.673 411.203 463.86C410.421 461.345 409.787 458.83 409.09 456.358C408.392 453.885 407.61 451.37 406.828 448.877L402.179 434.084L397.53 419.291L395.057 411.64C394.339 409.126 393.557 406.632 392.944 404.117Z" fill="#263238"/>
<path d="M393.24 569.46C396.706 572.905 609.831 561.62 610.908 560.246C613.719 556.485 537.493 329.666 487.535 293.782C476.799 286.069 447.932 296.403 440.514 303.841C435.865 308.512 425.721 337.992 419.128 362.358C405.814 411.175 390.218 566.438 393.24 569.46Z" fill="white"/>
<path d="M444.846 294.268C436.393 300.608 429.927 332.962 449.242 337.336C468.557 341.711 486.478 311.216 489.12 301.411C491.761 291.605 463.126 280.7 444.846 294.268Z" fill="#1047F7"/>
<path d="M450.637 332.9C462.619 334.443 480.815 314.472 487.218 299.087C487.662 298.031 485.105 287.739 482.442 275.059C480.899 267.367 479.378 258.766 478.532 250.799L429.927 268.149C429.927 268.149 436.584 284.316 437.957 298.2C438.063 299.296 438.063 300.4 437.957 301.497C437.957 301.644 437.957 301.835 437.957 302.046C437.556 308.407 439.056 331.421 450.637 332.9Z" fill="#AD6359"/>
<path d="M476.229 251.685C475.722 261.786 471.897 298.177 443.071 301.854C441.361 302.069 439.638 302.154 437.915 302.108C437.881 301.926 437.881 301.74 437.915 301.558C437.999 300.461 437.999 299.359 437.915 298.261C436.52 284.398 429.863 268.232 429.863 268.232L476.229 251.685Z" fill="#263238"/>
<path d="M479.356 191.244C486.436 208.446 481.956 260.476 470.459 273.092C453.764 291.372 423.967 295.789 407.885 275.205C392.247 255.235 399.284 187.504 412.365 175.881C431.617 158.531 468.874 165.843 479.356 191.244Z" fill="#AD6359"/>
<path d="M433.393 227.191C433.393 227.065 433.667 227.382 433.646 227.53C433.245 231.038 433.393 235.095 436.457 236.511C436.457 236.511 436.457 236.743 436.457 236.722C432.589 235.856 432.463 230.446 433.393 227.191Z" fill="#263238"/>
<path d="M436.837 223.789C442.501 223.789 442.036 235.159 436.837 235.137C431.638 235.116 432.082 223.768 436.837 223.789Z" fill="#263238"/>
<path d="M413.718 226.473C413.718 226.347 413.443 226.642 413.443 226.769C413.443 230.298 412.767 234.314 409.534 235.349V235.56C413.464 235.18 414.246 229.812 413.718 226.473Z" fill="#263238"/>
<path d="M410.738 222.649C405.096 221.994 404.187 233.215 409.407 233.934C414.627 234.652 415.451 223.24 410.738 222.649Z" fill="#263238"/>
<path d="M441.55 218.781C440.073 218.288 438.627 217.709 437.217 217.048C435.609 216.653 434.176 215.739 433.139 214.449C432.892 213.978 432.808 213.439 432.9 212.915C432.991 212.391 433.254 211.913 433.646 211.554C434.527 210.963 435.55 210.619 436.609 210.555C437.667 210.492 438.724 210.713 439.669 211.194C441.734 211.876 443.473 213.299 444.55 215.188C444.771 215.633 444.857 216.132 444.799 216.625C444.741 217.118 444.54 217.583 444.222 217.964C443.904 218.345 443.482 218.625 443.007 218.77C442.533 218.915 442.026 218.919 441.55 218.781Z" fill="#263238"/>
<path d="M406.596 216.773C408.16 216.583 409.597 216.139 411.14 215.801C412.797 215.684 414.367 215.014 415.599 213.899C415.921 213.481 416.095 212.968 416.095 212.441C416.095 211.913 415.921 211.4 415.599 210.983C414.828 210.248 413.875 209.733 412.838 209.491C411.801 209.25 410.718 209.29 409.702 209.609C407.557 209.934 405.608 211.04 404.229 212.716C403.942 213.12 403.778 213.598 403.755 214.093C403.733 214.588 403.854 215.079 404.104 215.508C404.354 215.936 404.722 216.283 405.164 216.507C405.606 216.732 406.103 216.824 406.596 216.773Z" fill="#263238"/>
<path d="M437.894 260.117C437.027 260.898 436.14 261.997 434.851 262.04C433.544 261.97 432.267 261.616 431.11 261.004C431.088 260.999 431.064 261 431.042 261.007C431.02 261.014 431 261.026 430.985 261.044C430.97 261.061 430.96 261.083 430.956 261.105C430.952 261.128 430.954 261.152 430.962 261.173C431.426 261.895 432.08 262.474 432.852 262.847C433.624 263.22 434.484 263.372 435.337 263.286C436.061 263.134 436.723 262.769 437.239 262.239C437.755 261.708 438.101 261.035 438.232 260.307C438.295 260.074 438.021 259.99 437.894 260.117Z" fill="#263238"/>
<path d="M434.639 249.424C433.695 250.78 432.478 251.924 431.066 252.782C429.654 253.641 428.078 254.196 426.44 254.411C425.038 254.613 423.615 254.613 422.213 254.411C421.935 254.393 421.66 254.35 421.389 254.284L420.628 254.136C420.44 254.094 420.271 253.99 420.148 253.84C420.026 253.691 419.957 253.505 419.952 253.312C419.942 253.193 419.942 253.072 419.952 252.953V252.636C419.952 249.931 420.438 245.831 420.438 245.831C419.424 246.275 414.288 248.346 414.415 246.93C415.62 235.243 416.93 222.268 420.586 211.004C420.692 210.624 421.283 210.729 421.22 211.004C420.523 222.289 417.839 233.342 416.993 244.648C418.816 243.891 420.737 243.4 422.699 243.189C423.08 243.316 421.727 251.093 421.812 252.319C421.807 252.361 421.807 252.403 421.812 252.446C426.334 253.228 429.821 251.981 434.344 249.128C434.597 248.916 434.872 249.149 434.639 249.424Z" fill="#263238"/>
<path d="M424.136 253.756C425.693 255.61 427.702 257.029 429.969 257.877C431.227 258.28 432.579 258.28 433.836 257.877C436.584 257.01 436.52 254.453 435.95 252.298C435.605 251.148 435.13 250.042 434.534 249.001C431.668 251.661 428.023 253.328 424.136 253.756Z" fill="#263238"/>
<path d="M429.969 257.877C431.227 258.28 432.579 258.28 433.836 257.877C436.584 257.01 436.52 254.453 435.95 252.298C434.468 252.411 433.068 253.026 431.982 254.039C430.895 255.053 430.185 256.406 429.969 257.877Z" fill="#F392B9"/>
<path d="M480.477 234.4C481.745 229.856 493.473 180.87 492.184 175.523C491.001 170.663 485.675 172.649 485.612 172.375C485.549 172.1 485.358 167.662 482.611 166.035C481.674 165.628 480.663 165.418 479.642 165.418C478.62 165.418 477.61 165.628 476.673 166.035C476.673 166.035 475.849 161.364 472.911 160.097C471.927 159.785 470.879 159.736 469.871 159.955C468.863 160.174 467.929 160.652 467.163 161.343C466.893 160.102 466.324 158.946 465.507 157.974C464.69 157.002 463.648 156.243 462.471 155.764C461.422 155.461 460.304 155.502 459.28 155.883C458.257 156.263 457.382 156.962 456.787 157.878C456.787 157.878 455.54 153.419 452.56 152.552C449.58 151.686 446.854 155.003 446.854 155.003C446.414 153.879 445.679 152.893 444.728 152.15C443.776 151.406 442.642 150.932 441.444 150.777C440.28 150.856 439.166 151.281 438.244 151.996C437.322 152.711 436.633 153.684 436.267 154.792C436.267 154.792 434.153 150.861 430.561 150.756C426.968 150.65 425.869 154.982 425.869 154.982C425.869 154.982 424.432 151.094 421.136 151.348C417.839 151.601 417.078 156.208 417.078 156.208C417.078 156.208 415.239 151.982 411.351 153.186C405.413 155.109 404.673 183.512 403.321 195.853C403.321 195.853 404.969 189.957 407.547 189.746C410.125 189.535 411.943 193.529 416.655 194.585C423.354 196.065 434.513 188.245 443.748 190.169C452.983 192.092 459.365 201.517 462.598 215.528C466.127 231.779 477.476 245.177 480.477 234.4Z" fill="#263238"/>
<path d="M435.59 244.586C431.8 243.892 428.439 241.722 426.248 238.551C424.057 235.381 423.213 231.471 423.904 227.68C424.389 225.015 425.612 222.541 427.433 220.537C429.255 218.533 431.602 217.08 434.208 216.344C436.814 215.607 439.574 215.616 442.175 216.37C444.776 217.124 447.113 218.592 448.921 220.608C450.73 222.623 451.936 225.106 452.404 227.773C452.872 230.441 452.582 233.186 451.567 235.696C450.553 238.207 448.855 240.383 446.666 241.977C444.476 243.571 441.884 244.519 439.183 244.713C437.985 244.817 436.778 244.774 435.59 244.586ZM425.806 228.102C425.365 230.546 425.658 233.065 426.648 235.341C427.639 237.618 429.282 239.55 431.371 240.892C433.46 242.235 435.899 242.928 438.382 242.884C440.864 242.84 443.278 242.061 445.317 240.645C447.357 239.229 448.931 237.24 449.84 234.93C450.749 232.619 450.953 230.091 450.425 227.665C449.897 225.239 448.662 223.024 446.875 221.3C445.089 219.576 442.831 218.42 440.387 217.98C439.364 217.788 438.319 217.731 437.281 217.811C434.495 218.002 431.853 219.119 429.774 220.983C427.695 222.848 426.298 225.353 425.806 228.102Z" fill="#1047F7"/>
<path d="M405.032 243.063C399.094 242.788 394.571 236.068 394.931 228.101C395.037 224.489 396.271 221.001 398.46 218.126C399.324 216.836 400.507 215.791 401.894 215.092C403.281 214.393 404.825 214.063 406.376 214.136C407.927 214.208 409.434 214.679 410.75 215.504C412.065 216.329 413.146 217.48 413.887 218.845C415.798 221.907 416.7 225.492 416.465 229.094C416.127 236.66 411.499 242.662 405.899 243.063H405.032ZM399.96 219.331C398.032 221.888 396.953 224.984 396.875 228.186C396.558 235.096 400.256 240.865 405.117 241.14C409.977 241.415 414.225 235.92 414.542 229.01C414.743 225.813 413.953 222.633 412.281 219.902C411.66 218.83 410.79 217.923 409.746 217.258C408.702 216.592 407.513 216.187 406.279 216.076H405.624C404.505 216.194 403.424 216.545 402.448 217.105C401.473 217.666 400.625 218.424 399.96 219.331Z" fill="#1047F7"/>
<path d="M424.305 229.454L425.616 228.017C423.502 226.073 418.557 223.368 414.838 226.982L416.19 228.355C419.508 225.122 424.115 229.264 424.305 229.454Z" fill="#1047F7"/>
<path d="M488.591 236.151L490.367 235.348C489.986 234.524 486.542 227.297 482.273 226.409C478.004 225.521 452.222 226.789 451.102 226.853V228.776C458.562 228.417 478.575 227.656 481.766 228.29C484.957 228.924 487.683 234.165 488.591 236.151Z" fill="#1047F7"/>
<path d="M469.022 232.602C469.022 232.602 479.378 215.168 487.197 218.739C495.016 222.311 488.105 246.973 479.525 250.925C478.46 251.508 477.288 251.87 476.079 251.987C474.87 252.105 473.65 251.976 472.493 251.608C471.335 251.241 470.264 250.643 469.344 249.849C468.425 249.056 467.675 248.085 467.142 246.994L469.022 232.602Z" fill="#AD6359"/>
<path d="M484.957 225.755C484.979 225.765 484.999 225.781 485.012 225.802C485.026 225.822 485.033 225.846 485.033 225.871C485.033 225.896 485.026 225.92 485.012 225.941C484.999 225.961 484.979 225.977 484.957 225.987C478.955 228.967 476.123 234.948 474.285 241.076C475.954 238.646 478.363 237.188 481.597 239.153C481.628 239.178 481.65 239.212 481.661 239.251C481.671 239.29 481.669 239.331 481.655 239.368C481.641 239.405 481.616 239.437 481.582 239.46C481.549 239.482 481.51 239.493 481.47 239.491C480.355 239.232 479.186 239.322 478.124 239.749C477.062 240.176 476.157 240.92 475.531 241.879C474.502 243.494 473.652 245.216 472.995 247.015C472.742 247.585 471.727 247.374 471.875 246.719C471.885 246.67 471.885 246.62 471.875 246.571C471.241 238.688 476.546 227.192 484.957 225.755Z" fill="#263238"/>
<path d="M517.628 308.617C586.585 356.039 636.352 430.384 641.15 445.98C652.752 484.02 670.059 551.011 672.722 581.104C673.715 592.241 587.958 590.17 586.521 578.314C582.062 541.163 566.086 460.351 565.684 458.977C562.831 449.193 538.486 406.863 513.465 360.815C488.444 314.767 488.549 288.646 517.628 308.617Z" fill="#AD6359"/>
<path d="M593.326 695.688C602.075 698.689 607.76 690.954 607.76 690.954C610.675 694.526 614.75 696.964 619.277 697.843C627.329 699.027 632.696 686.918 632.696 686.918C636.502 689.984 641.139 691.84 646.01 692.243C653.829 692.581 660.972 681.148 660.972 681.148C666.027 682.015 671.225 681.056 675.638 678.443C683.056 673.667 686.712 650.02 686.585 636.706C686.458 623.392 673.631 585.776 671.919 578.337H586.479C586.479 578.337 570.059 638.164 572.447 653.802C574.433 667.053 583.499 692.328 593.326 695.688Z" fill="#AD6359"/>
<path d="M606.386 690.382C600.913 676.878 599.708 662.508 597.7 648.222C597.7 648.155 597.727 648.091 597.775 648.043C597.822 647.995 597.887 647.969 597.954 647.969C598.021 647.969 598.086 647.995 598.133 648.043C598.181 648.091 598.208 648.155 598.208 648.222C600.025 662.445 604.653 676.139 607.062 690.256C607.054 690.332 607.021 690.404 606.969 690.461C606.916 690.518 606.847 690.556 606.771 690.57C606.695 690.585 606.617 690.574 606.548 690.54C606.478 690.506 606.422 690.451 606.386 690.382Z" fill="#263238"/>
<path d="M631.577 686.641C630.632 683.455 630.106 680.158 630.013 676.836C629.689 673.328 629.435 669.806 629.252 666.269C628.85 659.232 628.597 652.195 628.576 645.137C628.576 644.82 629.041 644.735 629.062 645.137C629.484 652.153 629.992 659.148 630.689 666.121C631.048 669.63 631.429 673.116 631.83 676.688C632.431 679.955 632.665 683.28 632.528 686.599C632.496 686.698 632.435 686.785 632.353 686.848C632.27 686.911 632.17 686.947 632.067 686.952C631.963 686.957 631.861 686.929 631.773 686.874C631.685 686.818 631.617 686.737 631.577 686.641Z" fill="#263238"/>
<path d="M660.951 680.85C660.133 677.953 659.819 674.936 660.021 671.932C659.894 668.741 659.768 665.592 659.62 662.317C659.324 655.977 659.007 649.51 658.479 643.107C658.479 643.04 658.505 642.975 658.553 642.928C658.6 642.88 658.665 642.854 658.732 642.854C658.799 642.854 658.864 642.88 658.911 642.928C658.959 642.975 658.986 643.04 658.986 643.107C659.535 649.595 660.19 656.083 660.719 662.592L661.416 672.165C661.886 675.06 661.836 678.015 661.268 680.893C661.252 680.924 661.227 680.95 661.196 680.967C661.165 680.983 661.129 680.989 661.094 680.985C661.06 680.98 661.027 680.965 661.001 680.941C660.976 680.916 660.958 680.885 660.951 680.85Z" fill="#263238"/>
<path d="M582.4 579.349L676.124 571.784C676.124 571.784 655.477 470.832 644.277 443.55C633.077 416.267 577.307 348.959 519.149 309.06C479.589 281.947 482.04 305.066 500.32 340.992C518.6 376.918 561.605 459.146 563.719 465.676C565.832 472.206 582.4 579.349 582.4 579.349Z" fill="#1047F7"/>
<path d="M584.048 560.013C587.557 559.189 619.361 556.273 626.314 555.787L647.088 554.35C654.252 553.863 661.522 553.039 668.707 553.124C668.745 553.113 668.785 553.11 668.823 553.117C668.862 553.124 668.899 553.14 668.931 553.164C668.962 553.187 668.988 553.218 669.006 553.253C669.024 553.288 669.033 553.327 669.033 553.367C669.033 553.406 669.024 553.445 669.006 553.481C668.988 553.516 668.962 553.547 668.931 553.57C668.899 553.594 668.862 553.61 668.823 553.617C668.785 553.623 668.745 553.621 668.707 553.61C661.648 554.857 654.336 555.216 647.215 555.892L626.082 557.879C619.023 558.513 587.514 560.711 584.027 560.478C583.753 560.457 583.816 560.077 584.048 560.013Z" fill="#263238"/>
</svg>
