<svg width="104" height="104" viewBox="0 0 104 104" fill="none" xmlns="http://www.w3.org/2000/svg">
<rect width="104" height="104" rx="10" fill="white"/>
<mask id="path-2-inside-1" fill="white">
<path fill-rule="evenodd" clip-rule="evenodd" d="M34.8095 38.5397C34.5516 37.7438 34.4122 36.8945 34.4122 36.0127C34.4122 31.4899 38.0786 27.8235 42.6014 27.8235C43.0861 27.8235 43.5609 27.8656 44.0224 27.9463C44.5085 24.0367 48.1174 21 52.4972 21C56.8503 21 60.4418 23.9998 60.9627 27.875C62.8111 28.0752 64.4364 28.8459 65.5597 29.9611C66.5509 29.4676 67.6785 29.1885 68.8744 29.1885C72.8319 29.1885 76.04 32.2439 76.04 36.0129C76.04 36.6295 75.9542 37.2269 75.7932 37.795C78.3931 39.1634 80.1352 41.6739 80.1352 44.5444C80.1352 48.3904 77.0078 51.5902 72.88 52.2624C72.5831 52.3467 72.2699 52.3918 71.946 52.3918H71.3723C71.3361 52.3922 71.2998 52.3924 71.2635 52.3924C71.2272 52.3924 71.1909 52.3922 71.1547 52.3918H40.554C40.3755 52.3918 40.2001 52.3781 40.029 52.3517C39.7529 52.3774 39.4727 52.3907 39.1892 52.3907C34.6664 52.3907 31 49.0298 31 44.8839C31 42.2146 32.5198 39.8707 34.8095 38.5397Z"/>
</mask>
<path d="M34.8095 38.5397L35.8146 40.2688C36.6286 39.7956 37.0024 38.8188 36.7121 37.9231L34.8095 38.5397ZM44.0224 27.9463L43.6777 29.9164C44.2172 30.0108 44.7717 29.8798 45.2119 29.5542C45.6521 29.2285 45.9396 28.7365 46.0071 28.1931L44.0224 27.9463ZM60.9627 27.875L58.9805 28.1414C59.1031 29.0536 59.8323 29.7643 60.7473 29.8634L60.9627 27.875ZM65.5597 29.9611L64.1506 31.3804C64.7587 31.9841 65.6839 32.1334 66.451 31.7515L65.5597 29.9611ZM75.7932 37.795L73.8689 37.2499C73.6113 38.1592 74.0254 39.1247 74.8617 39.5649L75.7932 37.795ZM72.88 52.2624L72.5585 50.2884C72.4827 50.3008 72.4076 50.3175 72.3337 50.3385L72.88 52.2624ZM71.3723 52.3918V50.3918C71.3652 50.3918 71.3581 50.3919 71.351 50.3919L71.3723 52.3918ZM71.1547 52.3918L71.176 50.3919C71.1689 50.3919 71.1618 50.3918 71.1547 50.3918V52.3918ZM40.029 52.3517L40.3343 50.3751C40.1718 50.35 40.0068 50.345 39.843 50.3603L40.029 52.3517ZM36.7121 37.9231C36.5179 37.324 36.4122 36.6826 36.4122 36.0127H32.4122C32.4122 37.1064 32.5852 38.1637 32.9069 39.1563L36.7121 37.9231ZM36.4122 36.0127C36.4122 32.5945 39.1832 29.8235 42.6014 29.8235V25.8235C36.9741 25.8235 32.4122 30.3854 32.4122 36.0127H36.4122ZM42.6014 29.8235C42.97 29.8235 43.3295 29.8555 43.6777 29.9164L44.3671 25.9763C43.7922 25.8757 43.2021 25.8235 42.6014 25.8235V29.8235ZM46.0071 28.1931C46.3545 25.3994 49.0067 23 52.4972 23V19C47.228 19 42.6626 22.6739 42.0377 27.6996L46.0071 28.1931ZM52.4972 23C55.9655 23 58.6081 25.3704 58.9805 28.1414L62.9449 27.6086C62.2756 22.6292 57.7351 19 52.4972 19V23ZM60.7473 29.8634C62.1862 30.0192 63.3776 30.6129 64.1506 31.3804L66.9688 28.5418C65.4953 27.0788 63.4359 26.1312 61.178 25.8866L60.7473 29.8634ZM66.451 31.7515C67.169 31.394 67.9918 31.1885 68.8744 31.1885V27.1885C67.3651 27.1885 65.9329 27.5412 64.6684 28.1707L66.451 31.7515ZM68.8744 31.1885C71.8204 31.1885 74.04 33.4393 74.04 36.0129H78.04C78.04 31.0485 73.8434 27.1885 68.8744 27.1885V31.1885ZM74.04 36.0129C74.04 36.4428 73.9803 36.8569 73.8689 37.2499L77.7175 38.3402C77.928 37.5969 78.04 36.8161 78.04 36.0129H74.04ZM74.8617 39.5649C76.9129 40.6445 78.1352 42.5315 78.1352 44.5444H82.1352C82.1352 40.8163 79.8733 37.6824 76.7247 36.0252L74.8617 39.5649ZM78.1352 44.5444C78.1352 47.2218 75.9168 49.7415 72.5585 50.2884L73.2014 54.2364C78.0988 53.4389 82.1352 49.559 82.1352 44.5444H78.1352ZM72.3337 50.3385C72.2128 50.3728 72.0833 50.3918 71.946 50.3918V54.3918C72.4564 54.3918 72.9535 54.3206 73.4262 54.1864L72.3337 50.3385ZM71.946 50.3918H71.3723V54.3918H71.946V50.3918ZM71.351 50.3919C71.3219 50.3922 71.2928 50.3924 71.2635 50.3924V54.3924C71.3069 54.3924 71.3503 54.3922 71.3936 54.3917L71.351 50.3919ZM71.2635 50.3924C71.2343 50.3924 71.2051 50.3922 71.176 50.3919L71.1334 54.3917C71.1768 54.3922 71.2201 54.3924 71.2635 54.3924V50.3924ZM71.1547 50.3918H40.554V54.3918H71.1547V50.3918ZM40.554 50.3918C40.478 50.3918 40.4047 50.386 40.3343 50.3751L39.7237 54.3282C39.9955 54.3702 40.2729 54.3918 40.554 54.3918V50.3918ZM39.843 50.3603C39.6287 50.3803 39.4106 50.3907 39.1892 50.3907V54.3907C39.5349 54.3907 39.8771 54.3745 40.2149 54.343L39.843 50.3603ZM39.1892 50.3907C35.6036 50.3907 33 47.7649 33 44.8839H29C29 50.2946 33.7292 54.3907 39.1892 54.3907V50.3907ZM33 44.8839C33 43.0114 34.0643 41.2863 35.8146 40.2688L33.8044 36.8106C30.9754 38.4552 29 41.4178 29 44.8839H33Z" fill="black" mask="url(#path-2-inside-1)"/>
<path d="M44.08 54.4844V70.7037H37.2783" stroke="black" stroke-width="2" stroke-linecap="round" stroke-linejoin="round"/>
<path d="M66.578 54.4844V70.7037H70.7637" stroke="black" stroke-width="2" stroke-linecap="round" stroke-linejoin="round"/>
<path d="M51.9282 54.4844V73.3197" stroke="black" stroke-width="2" stroke-linecap="round" stroke-linejoin="round"/>
<path d="M59.2524 54.4844V77.1128" stroke="black" stroke-width="2" stroke-linecap="round" stroke-linejoin="round"/>
<circle cx="34.1392" cy="70.1802" r="2.13923" stroke="black" stroke-width="2"/>
<circle cx="73.9029" cy="70.1802" r="2.13923" stroke="black" stroke-width="2"/>
<path d="M54.2413 76.0143C54.2413 77.1957 53.2835 78.1535 52.1021 78.1535C50.9206 78.1535 49.9629 77.1957 49.9629 76.0143C49.9629 74.8328 50.9206 73.875 52.1021 73.875C53.2835 73.875 54.2413 74.8328 54.2413 76.0143Z" stroke="black" stroke-width="2"/>
<path d="M61.4352 79.8618C61.4352 81.0433 60.4774 82.0011 59.2959 82.0011C58.1145 82.0011 57.1567 81.0433 57.1567 79.8618C57.1567 78.6804 58.1145 77.7226 59.2959 77.7226C60.4774 77.7226 61.4352 78.6804 61.4352 79.8618Z" stroke="black" stroke-width="2"/>
<path d="M46.5576 33.7361C46.5576 33.7361 45.0076 32.7021 42.9409 34.2526C40.8743 35.8031 41.3909 37.8694 41.3909 37.8694" stroke="black" stroke-width="2" stroke-linecap="round" stroke-linejoin="round"/>
</svg>
