<svg width="104" height="104" viewBox="0 0 104 104" fill="none" xmlns="http://www.w3.org/2000/svg">
<rect width="104" height="104" rx="10" fill="white"/>
<path d="M65.7143 76.5714V82C65.7143 84.2091 63.9234 86 61.7143 86H32C29.7909 86 28 84.2091 28 82V24C28 21.7909 29.7909 20 32 20H61.7143C63.9234 20 65.7143 21.7909 65.7143 24V45.9286" stroke="black" stroke-width="2" stroke-linecap="round" stroke-linejoin="round"/>
<path d="M28 27.543H65.7143" stroke="black" stroke-width="2" stroke-linecap="round"/>
<path d="M44.0283 22.7715C43.476 22.7715 43.0283 23.2192 43.0283 23.7715C43.0283 24.3238 43.476 24.7715 44.0283 24.7715V22.7715ZM49.6855 24.7715C50.2377 24.7715 50.6855 24.3238 50.6855 23.7715C50.6855 23.2192 50.2377 22.7715 49.6855 22.7715V24.7715ZM44.0283 24.7715H49.6855V22.7715H44.0283V24.7715Z" fill="black"/>
<path d="M31.7715 76.5703L65.7144 76.5703" stroke="black" stroke-width="2" stroke-linecap="round"/>
<circle cx="46.8574" cy="80.3427" r="1.88571" fill="black"/>
<path d="M58.4661 52.2591L75.3211 51.305C78.0025 51.1532 80.0686 53.6345 79.4339 56.244L77.6753 63.4737C77.2392 65.2664 75.6336 66.5283 73.7886 66.5283H61.2962C59.6003 66.5283 58.0887 65.4589 57.5242 63.8596L54.3718 54.9278C53.8074 53.3285 52.2958 52.2591 50.5999 52.2591H41.6787C40.7516 52.2591 40 53.0107 40 53.9378V53.9378" stroke="black" stroke-width="2" stroke-linecap="round" stroke-linejoin="round"/>
<path d="M74.0519 70.0311C74.0432 71.4217 72.9087 72.5421 71.5181 72.5333C70.1274 72.5246 69.0071 71.3902 69.0158 69.9995" stroke="black" stroke-width="2" stroke-linecap="round" stroke-linejoin="round"/>
<path d="M65.0519 70.0311C65.0432 71.4217 63.9087 72.5421 62.5181 72.5333C61.1274 72.5246 60.0071 71.3902 60.0158 69.9995" stroke="black" stroke-width="2" stroke-linecap="round" stroke-linejoin="round"/>
</svg>
