<svg width="104" height="104" viewBox="0 0 104 104" fill="none" xmlns="http://www.w3.org/2000/svg">
<rect width="104" height="104" rx="10" fill="white"/>
<path d="M66.7143 76.5714V82C66.7143 84.2091 64.9234 86 62.7143 86H33C30.7909 86 29 84.2091 29 82V24C29 21.7909 30.7909 20 33 20H62.7143C64.9234 20 66.7143 21.7909 66.7143 24V45.9286" stroke="black" stroke-width="2" stroke-linecap="round" stroke-linejoin="round"/>
<path d="M29 27.543H66.7143" stroke="black" stroke-width="2" stroke-linecap="round"/>
<path d="M45.0283 22.7715C44.476 22.7715 44.0283 23.2192 44.0283 23.7715C44.0283 24.3238 44.476 24.7715 45.0283 24.7715V22.7715ZM50.6855 24.7715C51.2377 24.7715 51.6855 24.3238 51.6855 23.7715C51.6855 23.2192 51.2377 22.7715 50.6855 22.7715V24.7715ZM45.0283 24.7715H50.6855V22.7715H45.0283V24.7715Z" fill="black"/>
<path d="M32.7715 76.5703L66.7144 76.5703" stroke="black" stroke-width="2" stroke-linecap="round"/>
<circle cx="47.8574" cy="80.3427" r="1.88571" fill="black"/>
<path d="M42.6878 57.7709L41.9928 69.5758C41.9141 70.9118 42.9764 72.0383 44.3147 72.0382C45.6904 72.038 46.7653 70.8502 46.6286 69.4813L46.465 67.8431M46.0447 57.769L46.465 65.325M48.1437 49.377V56.0919C48.1437 57.0191 47.3921 57.7706 46.4649 57.7706M40.5894 49.377V56.0919C40.5894 57.0191 41.341 57.7706 42.2681 57.7706M44.3665 49.377V53.5738" stroke="black" stroke-width="2" stroke-linecap="round" stroke-linejoin="round"/>
<path d="M74.0814 60.2919L73.5009 69.6726C73.4214 70.9572 74.4419 72.0426 75.7289 72.0425V72.0425C77.0084 72.0424 78.026 70.9689 77.9576 69.6912L77.8587 67.8425M77.439 60.2882L77.6893 65.3244" stroke="black" stroke-width="2" stroke-linecap="round" stroke-linejoin="round"/>
<path d="M74.0814 60.2919L73.5009 69.6726C73.4214 70.9572 74.4419 72.0426 75.7289 72.0425V72.0425C77.0084 72.0424 78.026 70.9689 77.9576 69.6912L77.8587 67.8425M77.439 60.2882L77.6893 65.3244" stroke="black" stroke-width="2" stroke-linecap="round" stroke-linejoin="round"/>
<path d="M77.4395 60.2888V60.2888C77.954 60.0315 78.2789 59.5058 78.2789 58.9306V50.0395C78.2789 49.6736 77.9823 49.377 77.6163 49.377V49.377C74.8718 49.377 72.647 51.6018 72.647 54.3463V57.7825C72.647 58.3166 72.8377 58.8331 73.1847 59.239L74.0821 60.2888" stroke="black" stroke-width="2" stroke-linecap="round" stroke-linejoin="round"/>
<circle cx="60.0568" cy="61.9684" r="9.91181" stroke="black" stroke-width="2"/>
<path d="M62.9839 56.1489C62.0317 55.5833 60.9487 55.2751 59.8414 55.2546C58.7341 55.234 57.6404 55.5018 56.6679 56.0317C55.6953 56.5616 54.8773 57.3354 54.2942 58.2769C53.7111 59.2185 53.3829 60.2956 53.3418 61.4023" stroke="black" stroke-width="2" stroke-linecap="round" stroke-linejoin="round"/>
</svg>
