<svg width="104" height="104" viewBox="0 0 104 104" fill="none" xmlns="http://www.w3.org/2000/svg">
<rect width="104" height="104" rx="10" fill="white"/>
<path d="M46.8 55.1427H51.1739C52.537 55.1427 53.642 54.0377 53.642 52.6745V52.6172C53.642 52.353 53.7267 52.0957 53.8836 51.8831L57.6223 46.8178C62.2151 40.5953 59.1851 31.701 51.7488 29.5763V29.5763C49.8593 29.0365 47.8597 29.0087 45.9558 29.4958V29.4958C38.3799 31.4338 35.1297 40.3913 39.7028 46.7346L43.2479 51.652C43.5096 52.015 43.6505 52.4512 43.6505 52.8988V56.075C43.6505 57.1796 44.5459 58.075 45.6505 58.075H52.1759C52.9856 58.075 53.642 58.7314 53.642 59.5412V59.5412C53.642 60.3509 52.9856 61.0073 52.1759 61.0073H45.8226C45.0128 61.0073 44.3564 61.6637 44.3564 62.4735V62.4735C44.3564 63.2832 45.0128 63.9396 45.8226 63.9396H50.221" stroke="black" stroke-width="2" stroke-linecap="round" stroke-linejoin="round"/>
<path d="M28.1317 74.8215L27.7756 73.0689C27.4809 71.6187 28.3678 70.1901 29.7982 69.8109V69.8109C31.2902 69.4154 32.8203 70.3042 33.2159 71.7962L34.3087 75.9182C34.6929 77.3677 33.8294 78.8542 32.38 79.2385L32.1176 79.308C30.8131 79.6539 29.4752 78.8767 29.1294 77.5722V77.5722" stroke="black" stroke-width="2" stroke-linecap="round" stroke-linejoin="round"/>
<path d="M47.0725 79.2262L39.3257 78.6926C38.5239 78.6374 37.8331 78.1075 37.5718 77.3475L35.4298 71.1163C34.3229 67.8962 37.4892 64.8537 40.6626 66.0881L48.3939 69.0953V69.0953C51.0573 70.6934 54.4232 70.5197 56.908 68.6561L63.37 63.8096L64.2971 63.144C66.6327 61.4673 69.5397 64.3054 67.9196 66.6805V66.6805C67.8232 66.8219 67.7162 66.9559 67.5998 67.0813L57.5093 77.948C56.7525 78.7631 55.6904 79.2262 54.5781 79.2262H50" stroke="black" stroke-width="2" stroke-linecap="round" stroke-linejoin="round"/>
<path d="M48.7544 18V22.8872" stroke="black" stroke-width="2" stroke-linecap="round" stroke-linejoin="round"/>
<path d="M62.5977 23.0215L59.3174 26.6442" stroke="black" stroke-width="2" stroke-linecap="round" stroke-linejoin="round"/>
<path d="M70.1128 33.6387L65.3296 34.6414" stroke="black" stroke-width="2" stroke-linecap="round" stroke-linejoin="round"/>
<path d="M68.9512 45.1777L64.3935 43.4136" stroke="black" stroke-width="2" stroke-linecap="round" stroke-linejoin="round"/>
<path d="M28.2285 45.1777L32.7862 43.4136" stroke="black" stroke-width="2" stroke-linecap="round" stroke-linejoin="round"/>
<path d="M27.25 33.6387L32.0332 34.6414" stroke="black" stroke-width="2" stroke-linecap="round" stroke-linejoin="round"/>
<path d="M36.0479 22.8887L39.3281 26.5114" stroke="black" stroke-width="2" stroke-linecap="round" stroke-linejoin="round"/>
<path d="M41.7862 66.4512C41.7862 66.4512 52.5337 69.975 51.4766 72.6178C50.4195 75.2606 41.3457 70.4154 41.3457 70.4154" stroke="black" stroke-width="2" stroke-linecap="round" stroke-linejoin="round"/>
<path d="M41.5312 37.375C41.5312 37.375 41.5313 36.4063 42.5 35.4375C43.4688 34.4688 43.9531 34.4688 43.9531 34.4688" stroke="black" stroke-width="2" stroke-linecap="round" stroke-linejoin="round"/>
</svg>
