<svg width="98" height="78" viewBox="0 0 98 78" fill="none" xmlns="http://www.w3.org/2000/svg">
<path d="M48.007 14.7436C47.5048 15.1529 47.0882 15.6571 46.781 16.2275L46.6817 16.4116C46.2881 17.1226 45.6906 17.6994 44.9661 18.0676C44.2416 18.4358 43.4235 18.5785 42.6172 18.4773C41.8026 18.4271 41.022 18.133 40.3768 17.6332C39.7316 17.1334 39.2517 16.4511 38.9995 15.6749L38.9359 15.4624C38.5609 14.2098 37.7038 13.1575 36.5529 12.5369C35.4021 11.9163 34.0519 11.7783 32.7993 12.1532C31.5467 12.5281 30.4943 13.3853 29.8737 14.5361C29.2531 15.6869 29.1151 17.0372 29.4901 18.2898L29.6102 18.6912C29.8346 19.452 29.8317 20.2618 29.6018 21.0209C29.3718 21.7801 28.9249 22.4554 28.3161 22.9638C27.6979 23.4914 26.9359 23.8216 26.1283 23.912C25.3207 24.0024 24.5045 23.8488 23.785 23.471L23.6009 23.3717C23.0308 23.0639 22.4057 22.8714 21.7612 22.8054C21.1167 22.7393 20.4655 22.8009 19.8448 22.9867C19.2242 23.1725 18.6462 23.4788 18.144 23.8881C17.6418 24.2974 17.2252 24.8016 16.918 25.3721C16.6102 25.9421 16.4177 26.5673 16.3517 27.2118C16.2856 27.8563 16.3472 28.5075 16.533 29.1281C16.7188 29.7488 17.0251 30.3267 17.4344 30.8289C17.8437 31.3312 18.3479 31.7478 18.9183 32.055L19.1024 32.1542C19.8134 32.5478 20.3902 33.1454 20.7584 33.8698C21.1266 34.5943 21.2693 35.4125 21.1682 36.2188C21.1179 37.0334 20.8238 37.814 20.324 38.4592C19.8242 39.1044 19.1419 39.5843 18.3658 39.8365L18.1532 39.9001C16.9006 40.275 15.8483 41.1322 15.2277 42.283C14.6071 43.4339 14.4691 44.7841 14.844 46.0367C15.2189 47.2893 16.0761 48.3416 17.2269 48.9622C18.3778 49.5828 19.728 49.7208 20.9806 49.3459L21.382 49.2257C22.1428 49.0013 22.9526 49.0043 23.7118 49.2342C24.4709 49.4641 25.1462 49.911 25.6547 50.5199C26.1822 51.138 26.5124 51.9001 26.6028 52.7077C26.6932 53.5153 26.5396 54.3315 26.1618 55.051L26.0625 55.2351C25.7547 55.8051 25.5623 56.4303 25.4962 57.0748C25.4301 57.7193 25.4918 58.3705 25.6775 58.9911C25.8633 59.6118 26.1696 60.1897 26.5789 60.692C26.9882 61.1942 27.4925 61.6108 28.0629 61.918C28.633 62.2258 29.2581 62.4182 29.9026 62.4843C30.5471 62.5504 31.1983 62.4887 31.8189 62.3029C32.4396 62.1172 33.0176 61.8109 33.5198 61.4016C34.022 60.9923 34.4386 60.488 34.7458 59.9176L34.8451 59.7335C35.2386 59.0225 35.8362 58.4458 36.5607 58.0776C37.2851 57.7094 38.1033 57.5666 38.9096 57.6678C39.6977 57.7581 40.4421 58.0768 41.0513 58.5848C41.6605 59.0928 42.1079 59.7678 42.3384 60.5268L42.402 60.7393C42.7769 61.9919 43.6341 63.0442 44.7849 63.6648C45.9358 64.2854 47.286 64.4234 48.5386 64.0485C49.7912 63.6736 50.8435 62.8164 51.4641 61.6656C52.0847 60.5147 52.2227 59.1645 51.8478 57.9119L51.7277 57.5105C51.5032 56.7497 51.5062 55.9399 51.7361 55.1808C51.966 54.4216 52.4129 53.7463 53.0218 53.2379L53.2107 53.1813C53.8288 52.6538 54.5909 52.3235 55.3985 52.2331C56.2061 52.1427 57.0223 52.2963 57.7418 52.6742L57.9259 52.7734C58.4959 53.0813 59.1211 53.2737 59.7656 53.3398C60.4101 53.4058 61.0613 53.3442 61.6819 53.1584C62.3026 52.9726 62.8806 52.6664 63.3828 52.2571C63.885 51.8478 64.3016 51.3435 64.6088 50.7731C64.9166 50.203 65.1091 49.5779 65.1751 48.9334C65.2412 48.2889 65.1795 47.6377 64.9938 47.017C64.808 46.3964 64.5017 45.8184 64.0924 45.3162" stroke="black" stroke-width="2" stroke-linecap="round" stroke-linejoin="round"/>
<path d="M48.0995 41.5073C43.4942 48.9904 35.2682 45.5836 33.3798 41.5073C31.4913 37.431 33.3798 29.5455 41.9592 29.5459" stroke="black" stroke-width="2" stroke-linecap="round" stroke-linejoin="round"/>
<path d="M64.065 38.3317L74.2534 52.641C74.9042 53.555 75.7734 54.3823 76.8948 54.4221C77.717 54.4513 78.7317 54.2421 79.6616 53.3623C80.5661 52.5066 80.8811 51.5589 80.954 50.7751C81.0571 49.6662 80.3372 48.7159 79.5075 47.9734L72.9935 42.1442M66.6253 35.8359L71.167 40.4535" stroke="black" stroke-width="2" stroke-linecap="round" stroke-linejoin="round"/>
<mask id="path-4-inside-1" fill="white">
<path fill-rule="evenodd" clip-rule="evenodd" d="M45.2686 20.7796C41.9286 26.4946 43.4187 33.9205 48.898 37.8711C54.7218 42.0701 62.8468 40.7529 67.0458 34.9292C71.2448 29.1054 69.9277 20.9803 64.1039 16.7813C60.5829 14.2426 56.2207 13.7203 52.3936 14.9911L59.9314 23.6834C60.4572 24.2898 60.5696 25.1518 60.2168 25.8728L58.6673 29.0394L55.1444 30.2542C54.3725 30.5204 53.5163 30.2907 52.9814 29.6738L45.2686 20.7796Z"/>
</mask>
<path d="M48.898 37.8711L50.0677 36.2488L48.898 37.8711ZM45.2686 20.7796L46.7796 19.4693L44.9505 17.3601L43.5418 19.7705L45.2686 20.7796ZM64.1039 16.7813L62.9342 18.4036L64.1039 16.7813ZM52.3936 14.9911L51.7633 13.093L48.9193 14.0374L50.8826 16.3014L52.3936 14.9911ZM59.9314 23.6834L58.4204 24.9937L59.9314 23.6834ZM60.2168 25.8728L58.4204 24.9937L58.4204 24.9937L60.2168 25.8728ZM58.6673 29.0394L59.3193 30.9302L60.1005 30.6608L60.4637 29.9185L58.6673 29.0394ZM55.1444 30.2542L54.4924 28.3635L55.1444 30.2542ZM52.9814 29.6738L51.4704 30.9841L52.9814 29.6738ZM50.0677 36.2488C45.4323 32.9067 44.1703 26.6226 46.9953 21.7888L43.5418 19.7705C39.687 26.3665 41.4051 34.9343 47.7283 39.4934L50.0677 36.2488ZM65.4235 33.7595C61.8705 38.6873 54.9955 39.8018 50.0677 36.2488L47.7283 39.4934C54.448 44.3384 63.8231 42.8186 68.6681 36.0988L65.4235 33.7595ZM62.9342 18.4036C67.862 21.9566 68.9766 28.8316 65.4235 33.7595L68.6681 36.0988C73.5131 29.3791 71.9933 20.004 65.2736 15.159L62.9342 18.4036ZM53.0239 16.8892C56.2677 15.812 59.9561 16.2564 62.9342 18.4036L65.2736 15.159C61.2097 12.2289 56.1737 11.6285 51.7633 13.093L53.0239 16.8892ZM50.8826 16.3014L58.4204 24.9937L61.4423 22.3731L53.9046 13.6808L50.8826 16.3014ZM58.4204 24.9937L62.0133 26.7518C62.7188 25.3099 62.494 23.5859 61.4423 22.3731L58.4204 24.9937ZM58.4204 24.9937L56.8708 28.1604L60.4637 29.9185L62.0133 26.7518L58.4204 24.9937ZM58.0153 27.1487L54.4924 28.3635L55.7964 32.145L59.3193 30.9302L58.0153 27.1487ZM54.4924 28.3635L51.4704 30.9841C52.5403 32.2178 54.2526 32.6773 55.7964 32.145L54.4924 28.3635ZM54.4924 28.3635L46.7796 19.4693L43.7576 22.0899L51.4704 30.9841L54.4924 28.3635Z" fill="black" mask="url(#path-4-inside-1)"/>
</svg>
