<svg width="104" height="104" viewBox="0 0 104 104" fill="none" xmlns="http://www.w3.org/2000/svg">
<rect width="104" height="104" rx="10" fill="white"/>
<path d="M65.7143 76.5714V82C65.7143 84.2091 63.9234 86 61.7143 86H32C29.7909 86 28 84.2091 28 82V24C28 21.7909 29.7909 20 32 20H61.7143C63.9234 20 65.7143 21.7909 65.7143 24V45.9286" stroke="black" stroke-width="2" stroke-linecap="round" stroke-linejoin="round"/>
<path d="M28 27.543H65.7143" stroke="black" stroke-width="2" stroke-linecap="round"/>
<path d="M44.0283 22.7715C43.476 22.7715 43.0283 23.2192 43.0283 23.7715C43.0283 24.3238 43.476 24.7715 44.0283 24.7715V22.7715ZM49.6855 24.7715C50.2377 24.7715 50.6855 24.3238 50.6855 23.7715C50.6855 23.2192 50.2377 22.7715 49.6855 22.7715V24.7715ZM44.0283 24.7715H49.6855V22.7715H44.0283V24.7715Z" fill="black"/>
<path d="M31.7715 76.5703L65.7144 76.5703" stroke="black" stroke-width="2" stroke-linecap="round"/>
<circle cx="46.8574" cy="80.3427" r="1.88571" fill="black"/>
<path d="M76.8745 53.8462C76.515 54.5882 75.4626 54.601 75.0853 53.8679L72.1629 48.1895C71.5881 47.0725 71.474 45.7746 71.8452 44.5744C73.0774 40.5902 78.7634 40.6365 79.9378 44.671C80.2709 45.8154 80.1683 47.0457 79.6494 48.1171L76.8745 53.8462Z" fill="white" stroke="black" stroke-width="2"/>
<path d="M71.6659 71.2303C71.656 72.621 70.5206 73.7422 69.1299 73.7345C67.7392 73.7269 66.6199 72.5933 66.6298 71.2027" stroke="black" stroke-width="2" stroke-linecap="round" stroke-linejoin="round"/>
<path d="M52.3598 71.2303C52.3499 72.621 51.2144 73.7422 49.8237 73.7345C48.433 73.7269 47.3137 72.5933 47.3237 71.2027" stroke="black" stroke-width="2" stroke-linecap="round" stroke-linejoin="round"/>
<path d="M50.3517 63.443H78.8806C79.9851 63.443 80.8806 64.3384 80.8806 65.443V65.4785V65.4785C80.8806 67.2485 79.4457 68.6834 77.6757 68.6834H43.2451C41.3156 68.6834 39.7515 67.1193 39.7515 65.1898V65.1898C39.7515 64.2251 40.5335 63.443 41.4983 63.443H42.9828C44.3307 63.443 45.5131 62.5441 45.8735 61.2452L47.416 55.6873C47.8558 54.1022 49.2213 52.948 50.8575 52.7783L64.9768 51.3133C66.4916 51.1562 67.9642 51.8728 68.7752 53.1617L74.9444 62.9666" stroke="black" stroke-width="2" stroke-linecap="round" stroke-linejoin="round"/>
</svg>
