<svg width="104" height="104" viewBox="0 0 104 104" fill="none" xmlns="http://www.w3.org/2000/svg">
<rect width="104" height="104" rx="10" fill="white"/>
<path d="M36.7497 46.89L30.7428 68.8642C30.5737 69.4829 30.264 70.0652 29.7332 70.4251C28.819 71.0449 27.1415 71.7899 25.09 70.9086C23.0616 70.0373 22.3639 68.427 22.1241 67.3994C21.981 66.786 22.1515 66.1616 22.4446 65.6041L28.0823 54.879M32.7278 45.0908L29.1858 51.7751" stroke="black" stroke-width="2" stroke-linecap="round" stroke-linejoin="round"/>
<path d="M36.9812 46.8192C40.3025 47.2068 44.1793 45.5207 46.9123 43.594C49.6453 41.6674 51.5717 38.8005 52.3227 35.5421C53.0737 32.2836 52.5965 28.8627 50.9825 25.9342C49.3686 23.0056 46.7311 20.7753 43.5752 19.6701C40.4193 18.5649 36.9666 18.6625 33.8782 19.9442C30.7898 21.226 28.2826 23.6018 26.8366 26.6168C25.3907 29.6318 25.1075 33.0743 26.0414 36.285C26.9753 39.4958 30.0944 43.0186 32.9319 44.7877" stroke="black" stroke-width="2" stroke-linecap="round" stroke-linejoin="round"/>
<path d="M29.7456 28.1406C28.6197 30.5753 28.4313 33.3397 29.2165 35.9047C30.0017 38.4696 31.821 40.7493 34.1169 42.1364" stroke="black" stroke-width="2" stroke-linecap="round" stroke-linejoin="round"/>
<path d="M43.437 77.0007L43.4947 76.6159C44.3355 71.0106 43.9754 65.2906 42.4384 59.835L39.6275 49.8581M66.9923 77.0007V71.4452C66.9923 70.3406 67.8877 69.4452 68.9923 69.4452H71.7568C74.1759 69.4452 76.0414 67.3145 75.7217 64.9165L74.8497 58.3764C74.6898 57.1774 75.6225 56.112 76.8321 56.112H80.1639C81.6594 56.112 82.6259 54.5306 81.9437 53.1997L77.6965 44.9138C76.7954 43.156 76.3255 41.209 76.3255 39.2336V39.2336C76.3255 30.6369 69.3565 23.668 60.7599 23.668H53.9131" stroke="black" stroke-width="2" stroke-linecap="round" stroke-linejoin="round"/>
<mask id="path-6-inside-1" fill="white">
<path fill-rule="evenodd" clip-rule="evenodd" d="M69.563 35.6178C70.4404 36.4396 70.9756 37.5496 70.968 38.7683C70.9529 41.1517 68.8668 43.0936 66.2271 43.2685C64.926 44.7089 63.0989 45.5998 61.0805 45.5871C59.3179 45.576 57.7098 44.8776 56.4762 43.7307C56.2014 43.7779 55.9212 43.8014 55.6366 43.7996C54.6097 43.7931 53.6425 43.458 52.7905 42.8694L48.7916 42.8442C47.5177 44.2951 45.7041 45.1968 43.6967 45.1841C39.8724 45.16 36.7931 41.8265 36.8189 37.7385C36.8316 35.7143 37.6033 33.8847 38.8434 32.5562C38.7652 32.0574 38.7258 31.5431 38.7291 31.0177C38.758 26.4333 42.0226 22.7373 46.0208 22.7624C49.083 22.7817 51.6874 24.9783 52.726 28.0654C53.6236 27.4184 54.6515 27.0538 55.7421 27.0607C56.8544 27.0677 57.8967 27.4603 58.7984 28.143C59.4586 27.7923 60.2501 27.5905 61.1 27.5959C62.8194 27.6067 64.2892 28.4625 64.9114 29.6727C67.6563 30.2714 69.6731 32.3213 69.6578 34.7452C69.656 35.0427 69.6235 35.3343 69.563 35.6178Z"/>
</mask>
<path d="M69.563 35.6178L67.6071 35.2002C67.4607 35.886 67.6841 36.5983 68.1959 37.0776L69.563 35.6178ZM66.2271 43.2685L66.0949 41.2729C65.5763 41.3072 65.0914 41.5421 64.7429 41.9279L66.2271 43.2685ZM56.4762 43.7307L57.838 42.266C57.3812 41.8413 56.7524 41.654 56.1377 41.7596L56.4762 43.7307ZM52.7905 42.8694L53.9274 41.2239C53.5968 40.9955 53.205 40.872 52.8031 40.8694L52.7905 42.8694ZM48.7916 42.8442L48.8042 40.8442C48.2243 40.8406 47.6713 41.0888 47.2887 41.5246L48.7916 42.8442ZM38.8434 32.5562L40.3054 33.9209C40.7251 33.4713 40.9146 32.8537 40.8192 32.2462L38.8434 32.5562ZM52.726 28.0654L50.8304 28.7031C51.0329 29.3052 51.5094 29.7752 52.1142 29.9695C52.719 30.1638 53.3801 30.0593 53.8954 29.6879L52.726 28.0654ZM58.7984 28.143L57.591 29.7375C58.2118 30.2076 59.049 30.2746 59.7367 29.9093L58.7984 28.143ZM64.9114 29.6727L63.1327 30.5871C63.4057 31.1182 63.9017 31.4995 64.4851 31.6267L64.9114 29.6727ZM72.9679 38.7809C72.9795 36.944 72.168 35.3173 70.9301 34.158L68.1959 37.0776C68.7129 37.5618 68.9718 38.1553 68.968 38.7557L72.9679 38.7809ZM66.3593 45.2641C69.8243 45.0346 72.945 42.4204 72.9679 38.7809L68.968 38.7557C68.9609 39.8831 67.9093 41.1527 66.0949 41.2729L66.3593 45.2641ZM61.0679 47.587C63.7033 47.6036 66.0607 46.4364 67.7113 44.6091L64.7429 41.9279C63.7913 42.9814 62.4944 43.5959 61.0931 43.5871L61.0679 47.587ZM55.1144 45.1954C56.6882 46.6587 58.7693 47.5725 61.0679 47.587L61.0931 43.5871C59.8666 43.5794 58.7314 43.0965 57.838 42.266L55.1144 45.1954ZM55.624 45.7996C56.0273 45.8021 56.4251 45.7688 56.8147 45.7019L56.1377 41.7596C55.9777 41.787 55.815 41.8007 55.6492 41.7996L55.624 45.7996ZM51.6536 44.5148C52.8012 45.3077 54.1546 45.7903 55.624 45.7996L55.6492 41.7996C55.0648 41.796 54.4839 41.6084 53.9274 41.2239L51.6536 44.5148ZM48.779 44.8441L52.7779 44.8693L52.8031 40.8694L48.8042 40.8442L48.779 44.8441ZM47.2887 41.5246C46.3644 42.5773 45.0885 43.1929 43.7093 43.1842L43.6841 47.1841C46.3196 47.2007 48.6709 46.0129 50.2945 44.1638L47.2887 41.5246ZM43.7093 43.1842C41.1131 43.1678 38.7992 40.8623 38.8188 37.7511L34.8189 37.7259C34.787 42.7907 38.6317 47.1523 43.6841 47.1841L43.7093 43.1842ZM38.8188 37.7511C38.8284 36.2315 39.4065 34.8839 40.3054 33.9209L37.3814 31.1914C35.8001 32.8855 34.8348 35.1972 34.8189 37.7259L38.8188 37.7511ZM36.7292 31.0051C36.7252 31.6386 36.7726 32.2607 36.8676 32.8661L40.8192 32.2462C40.7577 31.854 40.7265 31.4476 40.7291 31.0303L36.7292 31.0051ZM46.0334 20.7625C40.6824 20.7288 36.7633 25.5819 36.7292 31.0051L40.7291 31.0303C40.7527 27.2846 43.3628 24.7457 46.0082 24.7624L46.0334 20.7625ZM54.6215 27.4276C53.3667 23.6978 50.1133 20.7882 46.0334 20.7625L46.0082 24.7624C48.0526 24.7753 50.008 26.2589 50.8304 28.7031L54.6215 27.4276ZM55.7547 25.0607C54.1926 25.0509 52.7576 25.5772 51.5565 26.4429L53.8954 29.6879C54.4895 29.2596 55.1104 29.0567 55.7295 29.0606L55.7547 25.0607ZM60.0058 26.5486C58.802 25.6371 57.3484 25.0708 55.7547 25.0607L55.7295 29.0606C56.3604 29.0646 56.9915 29.2835 57.591 29.7375L60.0058 26.5486ZM61.1126 25.5959C59.9407 25.5885 58.8213 25.8662 57.8601 26.3768L59.7367 29.9093C60.0959 29.7185 60.5594 29.5925 61.0874 29.5958L61.1126 25.5959ZM66.6901 28.7582C65.6666 26.7674 63.434 25.6105 61.1126 25.5959L61.0874 29.5958C62.2047 29.6029 62.9118 30.1576 63.1327 30.5871L66.6901 28.7582ZM71.6578 34.7578C71.6808 31.1138 68.7074 28.4536 65.3376 27.7186L64.4851 31.6267C66.6052 32.0892 67.6655 33.5289 67.6579 34.7326L71.6578 34.7578ZM71.5189 36.0355C71.6076 35.6202 71.6551 35.193 71.6578 34.7578L67.6579 34.7326C67.6569 34.8925 67.6395 35.0483 67.6071 35.2002L71.5189 36.0355Z" fill="black" mask="url(#path-6-inside-1)"/>
<path d="M44.0559 32.6489C44.0559 32.6489 49.3637 36.0967 55.2131 36.5969C61.0626 37.0971 65.818 35.0959 65.818 35.0959" stroke="black" stroke-width="2" stroke-linecap="round" stroke-linejoin="round"/>
<path d="M63.4194 33.3756C63.4194 33.3756 64.1995 34.7984 64.147 35.8919C64.0945 36.9855 63.8057 38.3336 63.8057 38.3336" stroke="black" stroke-width="2" stroke-linecap="round" stroke-linejoin="round"/>
<path d="M60.5476 34.1481C60.5476 34.1481 59.7971 35.4397 59.9023 36.3743C60.0075 37.3089 60.5627 38.8482 60.5627 38.8482" stroke="black" stroke-width="2" stroke-linecap="round" stroke-linejoin="round"/>
<path d="M56.678 34.1481C56.678 34.1481 55.9486 35.3969 56.065 36.3089C56.1815 37.2208 56.7528 38.7276 56.7528 38.7276" stroke="black" stroke-width="2" stroke-linecap="round" stroke-linejoin="round"/>
<path d="M47.4265 29.3863C47.4265 29.3863 45.9256 32.195 45.6325 33.9347C45.3394 35.6744 45.3239 38.3674 45.3239 38.3674" stroke="black" stroke-width="2" stroke-linecap="round" stroke-linejoin="round"/>
<path d="M51.0563 31.2869C51.0563 31.2869 50.6634 33.4229 50.1039 35.096C49.5443 36.7692 49.1514 38.9059 49.1514 38.9059" stroke="black" stroke-width="2" stroke-linecap="round" stroke-linejoin="round"/>
</svg>
