<svg width="45" height="40" viewBox="0 0 45 40" fill="none" xmlns="http://www.w3.org/2000/svg">
<rect x="0.5" y="0.5" width="19" height="39" rx="1.5" fill="white" stroke="black"/>
<path d="M0 4H19" stroke="black"/>
<path d="M0.5 35H19" stroke="black"/>
<circle cx="10" cy="37" r="0.5" stroke="black"/>
<rect x="8" y="2" width="4" height="1" rx="0.5" fill="black"/>
<circle cx="19.5" cy="19.5" r="12" fill="white" stroke="black"/>
<circle cx="19.5" cy="19.5" r="10" fill="white" stroke="black"/>
<mask id="path-8-inside-1" fill="white">
<path fill-rule="evenodd" clip-rule="evenodd" d="M28.1807 27.4257C27.8641 27.8783 27.9743 28.5018 28.4269 28.8184L29.9381 29.8756C30.2037 30.0613 30.5281 30.1001 30.8148 30.009C30.9369 30.6049 31.2785 31.1568 31.8164 31.5327L40.9355 37.9046C42.0501 38.6834 43.5849 38.4112 44.3637 37.2967C45.1425 36.1822 44.8703 34.6473 43.7558 33.8685L34.6367 27.4965C34.1131 27.1307 33.4968 26.9968 32.9096 27.0732C32.9144 26.7526 32.7653 26.4355 32.4829 26.2379L30.9716 25.1807C30.5191 24.8641 29.8956 24.9743 29.579 25.4269L28.1807 27.4257Z"/>
</mask>
<path d="M28.4269 28.8184L27.8536 29.6378H27.8536L28.4269 28.8184ZM28.1807 27.4257L27.3613 26.8525L27.3613 26.8525L28.1807 27.4257ZM29.9381 29.8756L29.3649 30.695L29.3649 30.695L29.9381 29.8756ZM30.8148 30.009L31.7945 29.8084L31.5714 28.7194L30.512 29.056L30.8148 30.009ZM31.8164 31.5327L31.2437 32.3524L31.8164 31.5327ZM40.9355 37.9046L40.3628 38.7243L40.3628 38.7243L40.9355 37.9046ZM44.3637 37.2967L43.544 36.7239L44.3637 37.2967ZM43.7558 33.8685L44.3285 33.0488L43.7558 33.8685ZM34.6367 27.4965L34.0639 28.3163H34.0639L34.6367 27.4965ZM32.9096 27.0732L31.9097 27.0582L31.8924 28.2139L33.0386 28.0648L32.9096 27.0732ZM32.4829 26.2379L31.9096 27.0573H31.9096L32.4829 26.2379ZM30.9716 25.1807L30.3984 26.0001V26.0001L30.9716 25.1807ZM29.579 25.4269L30.3984 26.0001V26.0001L29.579 25.4269ZM29.0001 27.999L29.0001 27.999L27.3613 26.8525C26.7281 27.7576 26.9486 29.0046 27.8536 29.6378L29.0001 27.999ZM30.5113 29.0562L29.0001 27.999L27.8536 29.6378L29.3649 30.695L30.5113 29.0562ZM30.512 29.056L30.5113 29.0562L29.3649 30.695C29.8965 31.0668 30.5468 31.1434 31.1176 30.9621L30.512 29.056ZM32.3892 30.713C32.0694 30.4895 31.8672 30.1634 31.7945 29.8084L29.8351 30.2097C30.0065 31.0463 30.4877 31.8241 31.2437 32.3524L32.3892 30.713ZM41.5083 37.0849L32.3892 30.713L31.2437 32.3524L40.3628 38.7243L41.5083 37.0849ZM43.544 36.7239C43.0815 37.3857 42.1701 37.5474 41.5083 37.0849L40.3628 38.7243C41.93 39.8195 44.0883 39.4367 45.1834 37.8695L43.544 36.7239ZM43.183 34.6882C43.8448 35.1507 44.0065 36.0621 43.544 36.7239L45.1834 37.8695C46.2785 36.3022 45.8958 34.1439 44.3285 33.0488L43.183 34.6882ZM34.0639 28.3163L43.183 34.6882L44.3285 33.0488L35.2095 26.6768L34.0639 28.3163ZM33.0386 28.0648C33.3883 28.0193 33.7525 28.0987 34.0639 28.3163L35.2095 26.6768C34.4737 26.1627 33.6052 25.9742 32.7806 26.0815L33.0386 28.0648ZM31.9096 27.0573L31.9097 27.0582L33.9095 27.0882C33.9191 26.4501 33.6218 25.8142 33.0561 25.4185L31.9096 27.0573ZM30.3984 26.0001L31.9096 27.0573L33.0561 25.4185L31.5449 24.3613L30.3984 26.0001ZM30.3984 26.0001L30.3984 26.0001L31.5449 24.3613C30.6398 23.7281 29.3928 23.9486 28.7596 24.8536L30.3984 26.0001ZM29.0001 27.999L30.3984 26.0001L28.7596 24.8536L27.3613 26.8525L29.0001 27.999Z" fill="black" mask="url(#path-8-inside-1)"/>
<path d="M30.5 15L32.5 13.5L40 22" stroke="black"/>
<path d="M21.5 23.5L29 16" stroke="black"/>
<circle cx="4.5" cy="27.5" r="1.5" fill="black"/>
<circle cx="14.5" cy="18.5" r="1.5" fill="black"/>
<circle cx="21.5" cy="23.5" r="1.5" fill="black"/>
<circle cx="32.5" cy="13.5" r="1.5" fill="black"/>
<circle cx="40.5" cy="22.5" r="1.5" fill="black"/>
<path d="M4 28L14.5 18.5L21.5 23.5" stroke="black"/>
</svg>
