<svg width="48" height="34" viewBox="0 0 48 34" fill="none" xmlns="http://www.w3.org/2000/svg">
<path d="M1 6L39 6" stroke="black"/>
<circle cx="5" cy="4" r="1" fill="black"/>
<circle cx="9" cy="4" r="1" fill="black"/>
<circle cx="13" cy="4" r="1" fill="black"/>
<path d="M39 21.5V31C39 32.1046 38.1046 33 37 33H3C1.89543 33 1 32.1046 1 31V3C1 1.89543 1.89543 1 3 1H37C38.1046 1 39 1.89543 39 3V10" stroke="black" stroke-linecap="round"/>
<path d="M27.7763 21.8916L40.181 11.2196L42.8962 8.88363C43.3149 8.52344 43.9463 8.57084 44.3065 8.98951L46.4172 11.4429C46.7774 11.8615 46.73 12.4929 46.3113 12.8531L43.596 15.1891L31.1914 25.8611L25.5143 27.2914L27.7763 21.8916Z" fill="white"/>
<path d="M27.7763 21.8916L40.181 11.2196M27.7763 21.8916L31.1914 25.8611M27.7763 21.8916L25.5143 27.2914L31.1914 25.8611M40.181 11.2196L43.596 15.1891M40.181 11.2196L42.8962 8.88363C43.3149 8.52344 43.9463 8.57084 44.3065 8.98951L46.4172 11.4429C46.7774 11.8615 46.73 12.4929 46.3113 12.8531L43.596 15.1891M43.596 15.1891L31.1914 25.8611" stroke="black"/>
<path d="M5 11L34 11" stroke="black" stroke-linecap="round"/>
<path d="M5 15L32 15" stroke="black" stroke-linecap="round"/>
<path d="M5 19H28" stroke="black" stroke-linecap="round"/>
<path d="M5 24H25" stroke="black" stroke-linecap="round"/>
</svg>
