<svg width="45" height="40" viewBox="0 0 45 40" fill="none" xmlns="http://www.w3.org/2000/svg">
<path d="M25.0052 39.0312L25.0437 34.9998L26.0436 35.0093L26.0052 39.0408L25.0052 39.0312Z" fill="black"/>
<path d="M20 39.9639L20.049 34.8232L21.0489 34.8327L21 39.9734L20 39.9639Z" fill="black"/>
<rect x="0.5" y="5.5" width="44" height="29" rx="1.5" stroke="black"/>
<path d="M13 40C13 39.4477 13.4477 39 14 39H32C32.5523 39 33 39.4477 33 40H13Z" fill="black"/>
<path d="M17.5 22.5L15.2506 29.5469L22.5 26.5001" stroke="black"/>
<path d="M36.7305 1.07632C36.9163 0.871966 37.2325 0.856859 37.4368 1.04258L41.5832 4.81078C41.7875 4.9965 41.8026 5.31272 41.6169 5.51708L22.5088 26.5426C22.3231 26.747 22.0068 26.7621 21.8025 26.5764L17.6562 22.8082C17.4518 22.6224 17.4367 22.3062 17.6224 22.1019L36.7305 1.07632Z" fill="white" stroke="black"/>
<path d="M34.0165 4.45117L38.5176 8.54182" stroke="black"/>
</svg>
