<svg width="53" height="41" viewBox="0 0 53 41" fill="none" xmlns="http://www.w3.org/2000/svg">
<path d="M18 15H42.5" stroke="black" stroke-linecap="round"/>
<path d="M18 20H39" stroke="black" stroke-linecap="round"/>
<path d="M18 25H36" stroke="black" stroke-linecap="round"/>
<path d="M4 30H32" stroke="black" stroke-linecap="round"/>
<path d="M1 9L46 9" stroke="black"/>
<path d="M46.5 20V6.5C46.5 5.39543 45.6046 4.5 44.5 4.5H26.9721C26.6616 4.5 26.3554 4.42771 26.0777 4.28885L19.9223 1.21115C19.6446 1.07229 19.3384 1 19.0279 1H3C1.89543 1 1 1.89543 1 3V33.5C1 34.6046 1.89543 35.5 3 35.5H28.6157" stroke="black" stroke-linecap="round" stroke-linejoin="round"/>
<circle cx="5.75" cy="4.75" r="0.75" fill="black"/>
<circle cx="8.75" cy="4.75" r="0.75" fill="black"/>
<circle cx="11.75" cy="4.75" r="0.75" fill="black"/>
<rect x="4.5" y="15.5" width="9" height="9" rx="0.5" stroke="black"/>
<path d="M44.5 27.625C45.6736 27.625 46.625 26.6736 46.625 25.5C46.625 24.3264 45.6736 23.375 44.5 23.375C43.3264 23.375 42.375 24.3264 42.375 25.5C42.375 26.6736 43.3264 27.625 44.5 27.625Z" stroke="black" stroke-linecap="round" stroke-linejoin="round"/>
<path d="M49.7417 27.6247C49.6474 27.8383 49.6193 28.0753 49.661 28.3051C49.7026 28.5349 49.8122 28.7469 49.9755 28.9138L50.018 28.9563C50.1497 29.0879 50.2542 29.2442 50.3255 29.4161C50.3968 29.5881 50.4334 29.7725 50.4334 29.9586C50.4334 30.1448 50.3968 30.3292 50.3255 30.5011C50.2542 30.6731 50.1497 30.8294 50.018 30.9609C49.8864 31.0926 49.7301 31.1971 49.5582 31.2684C49.3862 31.3397 49.2018 31.3764 49.0157 31.3764C48.8295 31.3764 48.6451 31.3397 48.4732 31.2684C48.3012 31.1971 48.1449 31.0926 48.0134 30.9609L47.9709 30.9184C47.8039 30.7551 47.5919 30.6456 47.3621 30.6039C47.1323 30.5623 46.8954 30.5904 46.6817 30.6847C46.4722 30.7745 46.2935 30.9236 46.1677 31.1136C46.0418 31.3036 45.9743 31.5263 45.9734 31.7543V31.8747C45.9734 32.2504 45.8241 32.6107 45.5584 32.8764C45.2928 33.1421 44.9324 33.2913 44.5567 33.2913C44.181 33.2913 43.8206 33.1421 43.555 32.8764C43.2893 32.6107 43.14 32.2504 43.14 31.8747V31.8109C43.1346 31.5765 43.0587 31.3491 42.9222 31.1583C42.7858 30.9676 42.5951 30.8223 42.375 30.7413C42.1614 30.6471 41.9244 30.6189 41.6946 30.6606C41.4648 30.7023 41.2528 30.8118 41.0859 30.9751L41.0434 31.0176C40.9118 31.1493 40.7556 31.2538 40.5836 31.3251C40.4116 31.3964 40.2273 31.4331 40.0411 31.4331C39.8549 31.4331 39.6706 31.3964 39.4986 31.3251C39.3266 31.2538 39.1704 31.1493 39.0388 31.0176C38.9071 30.886 38.8026 30.7298 38.7313 30.5578C38.66 30.3858 38.6233 30.2015 38.6233 30.0153C38.6233 29.8291 38.66 29.6448 38.7313 29.4728C38.8026 29.3008 38.9071 29.1446 39.0388 29.013L39.0813 28.9705C39.2446 28.8036 39.3541 28.5915 39.3958 28.3618C39.4375 28.132 39.4093 27.895 39.315 27.6813C39.2253 27.4718 39.0762 27.2932 38.8861 27.1673C38.6961 27.0415 38.4734 26.9739 38.2455 26.973H38.125C37.7493 26.973 37.389 26.8238 37.1233 26.5581C36.8576 26.2924 36.7084 25.9321 36.7084 25.5563C36.7084 25.1806 36.8576 24.8203 37.1233 24.5546C37.389 24.2889 37.7493 24.1397 38.125 24.1397H38.1888C38.4232 24.1342 38.6506 24.0583 38.8414 23.9219C39.0321 23.7854 39.1774 23.5948 39.2584 23.3747C39.3527 23.161 39.3808 22.924 39.3391 22.6943C39.2975 22.4645 39.1879 22.2524 39.0246 22.0855L38.9821 22.043C38.8504 21.9114 38.7459 21.7552 38.6746 21.5832C38.6033 21.4112 38.5666 21.2269 38.5666 21.0407C38.5666 20.8545 38.6033 20.6702 38.6746 20.4982C38.7459 20.3262 38.8504 20.17 38.9821 20.0384C39.1137 19.9067 39.2699 19.8022 39.4419 19.7309C39.6139 19.6596 39.7982 19.6229 39.9844 19.6229C40.1706 19.6229 40.3549 19.6596 40.5269 19.7309C40.6989 19.8022 40.8551 19.9067 40.9867 20.0384L41.0292 20.0809C41.1961 20.2442 41.4082 20.3538 41.638 20.3954C41.8677 20.4371 42.1047 20.409 42.3184 20.3147H42.375C42.5845 20.2249 42.7632 20.0758 42.8891 19.8858C43.0149 19.6957 43.0825 19.473 43.0834 19.2451V19.1247C43.0834 18.749 43.2326 18.3886 43.4983 18.1229C43.764 17.8573 44.1243 17.708 44.5 17.708C44.8758 17.708 45.2361 17.8573 45.5018 18.1229C45.7675 18.3886 45.9167 18.749 45.9167 19.1247V19.1884C45.9176 19.4164 45.9852 19.639 46.111 19.8291C46.2369 20.0191 46.4155 20.1682 46.625 20.258C46.8387 20.3523 47.0757 20.3804 47.3055 20.3388C47.5352 20.2971 47.7473 20.1876 47.9142 20.0243L47.9567 19.9818C48.0883 19.85 48.2445 19.7455 48.4165 19.6743C48.5885 19.603 48.7728 19.5663 48.959 19.5663C49.1452 19.5663 49.3295 19.603 49.5015 19.6743C49.6735 19.7455 49.8297 19.85 49.9613 19.9818C50.093 20.1133 50.1975 20.2696 50.2688 20.4416C50.3401 20.6135 50.3768 20.7979 50.3768 20.984C50.3768 21.1702 50.3401 21.3546 50.2688 21.5265C50.1975 21.6985 50.093 21.8548 49.9613 21.9863L49.9188 22.0288C49.7555 22.1958 49.646 22.4078 49.6043 22.6376C49.5626 22.8674 49.5908 23.1044 49.685 23.318V23.3747C49.7748 23.5842 49.9239 23.7629 50.114 23.8887C50.304 24.0146 50.5267 24.0821 50.7546 24.083H50.875C51.2508 24.083 51.6111 24.2323 51.8768 24.4979C52.1425 24.7636 52.2917 25.124 52.2917 25.4997C52.2917 25.8754 52.1425 26.2357 51.8768 26.5014C51.6111 26.7671 51.2508 26.9163 50.875 26.9163H50.8113C50.5834 26.9173 50.3607 26.9848 50.1706 27.1106C49.9806 27.2365 49.8315 27.4152 49.7417 27.6247V27.6247Z" stroke="black" stroke-linecap="round" stroke-linejoin="round"/>
<g clip-path="url(#clip0)">
<path d="M34.3671 35.9663C35.4529 35.7636 36.1687 34.719 35.966 33.6332C35.7633 32.5474 34.7187 31.8315 33.6329 32.0343C32.5471 32.237 31.8312 33.2816 32.034 34.3674C32.2367 35.4532 33.2813 36.1691 34.3671 35.9663Z" stroke="black" stroke-linecap="round" stroke-linejoin="round"/>
<path d="M37.9124 34.795C37.8746 34.9555 37.8858 35.1236 37.9445 35.2776C38.0032 35.4317 38.1067 35.5646 38.2416 35.6593L38.2766 35.6833C38.385 35.7575 38.4778 35.8524 38.5495 35.9625C38.6213 36.0726 38.6706 36.1957 38.6948 36.3249C38.7189 36.4541 38.7173 36.5868 38.6901 36.7153C38.6629 36.8439 38.6107 36.9659 38.5363 37.0742C38.4621 37.1827 38.3672 37.2754 38.2571 37.3472C38.147 37.4189 38.0238 37.4683 37.8947 37.4924C37.7655 37.5165 37.6328 37.5149 37.5042 37.4877C37.3757 37.4605 37.2537 37.4083 37.1453 37.3339L37.1103 37.31C36.9734 37.2183 36.812 37.1697 36.6472 37.1706C36.4824 37.1715 36.3216 37.2217 36.1855 37.3148C36.0518 37.4042 35.9471 37.5308 35.8844 37.679C35.8217 37.8272 35.8037 37.9904 35.8326 38.1487L35.8482 38.2323C35.8969 38.493 35.84 38.7624 35.6901 38.9811C35.5401 39.1999 35.3094 39.3502 35.0487 39.3988C34.788 39.4475 34.5186 39.3906 34.2999 39.2407C34.0811 39.0908 33.9308 38.8601 33.8822 38.5994L33.8739 38.5551C33.8397 38.3932 33.7576 38.2452 33.6382 38.1305C33.5188 38.0158 33.3677 37.9397 33.2045 37.9121C33.044 37.8743 32.876 37.8855 32.7219 37.9442C32.5679 38.0029 32.4349 38.1064 32.3403 38.2413L32.3163 38.2763C32.242 38.3847 32.1472 38.4775 32.0371 38.5492C31.927 38.621 31.8038 38.6703 31.6746 38.6945C31.5454 38.7186 31.4128 38.717 31.2842 38.6898C31.1556 38.6626 31.0337 38.6104 30.9253 38.536C30.8169 38.4618 30.7241 38.3669 30.6524 38.2568C30.5806 38.1467 30.5313 38.0235 30.5071 37.8944C30.483 37.7652 30.4846 37.6325 30.5118 37.5039C30.539 37.3754 30.5912 37.2534 30.6656 37.145L30.6896 37.11C30.7813 36.9731 30.8298 36.8117 30.8289 36.6469C30.8281 36.4821 30.7779 36.3213 30.6848 36.1852C30.5953 36.0515 30.4687 35.9468 30.3205 35.8841C30.1724 35.8214 30.0091 35.8034 29.8508 35.8323L29.7672 35.8479C29.5065 35.8966 29.2372 35.8397 29.0184 35.6898C28.7996 35.5398 28.6494 35.3091 28.6007 35.0484C28.552 34.7877 28.6089 34.5183 28.7588 34.2996C28.9088 34.0808 29.1395 33.9305 29.4002 33.8819L29.4444 33.8736C29.6064 33.8394 29.7543 33.7573 29.869 33.6379C29.9837 33.5185 30.0598 33.3674 30.0875 33.2042C30.1252 33.0437 30.114 32.8757 30.0553 32.7216C29.9967 32.5676 29.8932 32.4346 29.7582 32.34L29.7232 32.316C29.6148 32.2417 29.522 32.1469 29.4503 32.0368C29.3785 31.9267 29.3292 31.8035 29.3051 31.6743C29.281 31.5451 29.2825 31.4125 29.3097 31.2839C29.3369 31.1553 29.3892 31.0334 29.4635 30.925C29.5378 30.8166 29.6326 30.7238 29.7427 30.6521C29.8528 30.5803 29.976 30.531 30.1052 30.5068C30.2344 30.4827 30.367 30.4843 30.4956 30.5115C30.6242 30.5387 30.7461 30.5909 30.8545 30.6653L30.8895 30.6893C31.0265 30.781 31.1878 30.8295 31.3526 30.8286C31.5175 30.8278 31.6783 30.7776 31.8143 30.6844L31.8536 30.6771C31.9874 30.5877 32.092 30.4611 32.1547 30.3129C32.2174 30.1647 32.2355 30.0014 32.2066 29.8432L32.191 29.7596C32.1423 29.4989 32.1992 29.2295 32.3491 29.0108C32.499 28.792 32.7297 28.6417 32.9904 28.593C33.2511 28.5444 33.5205 28.6013 33.7393 28.7512C33.958 28.9011 34.1083 29.1318 34.157 29.3925L34.1652 29.4368C34.1954 29.5948 34.2711 29.7406 34.3831 29.8561C34.495 29.9717 34.6383 30.052 34.7953 30.0872C34.9558 30.1249 35.1239 30.1137 35.2779 30.055C35.432 29.9964 35.5649 29.8929 35.6596 29.7579L35.6836 29.7229C35.7578 29.6145 35.8527 29.5217 35.9628 29.45C36.0729 29.3782 36.196 29.3289 36.3252 29.3048C36.4544 29.2807 36.5871 29.2822 36.7156 29.3094C36.8442 29.3366 36.9662 29.3889 37.0745 29.4632C37.183 29.5375 37.2757 29.6323 37.3475 29.7424C37.4192 29.8525 37.4686 29.9757 37.4927 30.1049C37.5168 30.2341 37.5152 30.3667 37.488 30.4953C37.4609 30.6239 37.4086 30.7458 37.3342 30.8542L37.3103 30.8892C37.2186 31.0262 37.17 31.1875 37.1709 31.3523C37.1718 31.5172 37.222 31.678 37.3151 31.814L37.3224 31.8533C37.4119 31.9871 37.5385 32.0917 37.6866 32.1544C37.8348 32.2171 37.9981 32.2352 38.1564 32.2063L38.2399 32.1907C38.5006 32.142 38.77 32.1989 38.9888 32.3488C39.2075 32.4987 39.3578 32.7294 39.4065 32.9901C39.4552 33.2508 39.3983 33.5202 39.2483 33.739C39.0984 33.9577 38.8677 34.108 38.607 34.1567L38.5628 34.1649C38.4047 34.1951 38.259 34.2708 38.1434 34.3828C38.0278 34.4947 37.9475 34.638 37.9124 34.795V34.795Z" stroke="black" stroke-linecap="round" stroke-linejoin="round"/>
</g>
<defs>
<clipPath id="clip0">
<rect width="12" height="12" fill="white" transform="translate(27.0006 29.2031) rotate(-10.5762)"/>
</clipPath>
</defs>
</svg>
