<svg width="36" height="51" viewBox="0 0 36 51" fill="none" xmlns="http://www.w3.org/2000/svg">
<rect x="0.5" y="11.5" width="19" height="39" rx="1.5" stroke="black"/>
<path d="M0 15H19" stroke="black"/>
<path d="M0.5 46H19" stroke="black"/>
<circle cx="10" cy="48" r="0.5" stroke="black"/>
<rect x="8" y="13" width="4" height="1" rx="0.5" fill="black"/>
<circle cx="22.5" cy="30.1875" r="12" fill="white" stroke="black"/>
<path d="M33.5316 19.7051L29.7513 29.9593L26.2723 19.5773C25.9196 18.5249 25.8782 17.3866 26.1509 16.3097C27.1347 12.4248 32.6202 12.3473 33.6787 16.1722C34.0008 17.3362 33.9494 18.572 33.5316 19.7051Z" fill="white" stroke="black"/>
<path d="M13 33.1875V31.4418C13 30.9953 13.296 30.6029 13.7253 30.4803L16.1028 29.801C16.3572 29.7283 16.5724 29.5578 16.7013 29.3268L17.7139 27.5126C17.8905 27.1961 18.2246 27 18.5871 27H24.9129C25.2754 27 25.6095 27.1961 25.7861 27.5126L26.7891 29.3097C26.9237 29.5508 27.1519 29.7255 27.4198 29.7924L30.2425 30.4981C30.6877 30.6094 31 31.0094 31 31.4683V33.1875C31 33.7398 30.5523 34.1875 30 34.1875H14C13.4477 34.1875 13 33.7398 13 33.1875Z" fill="white" stroke="black"/>
<circle cx="17.5" cy="34.5" r="2" fill="white" stroke="black"/>
<circle cx="26.5" cy="34.1875" r="2" fill="white" stroke="black"/>
<circle cx="30" cy="17.6875" r="1.5" fill="white" stroke="black"/>
</svg>
