<svg width="32" height="40" viewBox="0 0 32 40" fill="none" xmlns="http://www.w3.org/2000/svg">
<rect x="0.5" y="0.5" width="19" height="39" rx="1.5" stroke="black"/>
<path d="M0 4H19" stroke="black"/>
<path d="M0.5 35H19" stroke="black"/>
<circle cx="10" cy="37" r="0.5" stroke="black"/>
<rect x="8" y="2" width="4" height="1" rx="0.5" fill="black"/>
<circle cx="19.5" cy="18.5" r="12" fill="white" stroke="black"/>
<rect x="22.5" y="15.5" width="1" height="9" rx="0.5" fill="#C7C7C7" stroke="black"/>
<path d="M21 14.0444C21 13.1714 21.3878 12.3435 22.0584 11.7846C22.6039 11.3301 23.3961 11.3301 23.9416 11.7846C24.6122 12.3435 25 13.1714 25 14.0444V14.2789C25 15.2294 24.2294 16 23.2789 16H23H22.7211C21.7706 16 21 15.2294 21 14.2789V14.0444Z" fill="black"/>
<rect x="15.5" y="15.5" width="1" height="9" rx="0.5" fill="#C7C7C7" stroke="black"/>
<rect x="14" y="12" width="4" height="4" rx="1" fill="black"/>
<path d="M15 12V15" stroke="white" stroke-width="0.5" stroke-linecap="round"/>
<path d="M16 12V15" stroke="white" stroke-width="0.5" stroke-linecap="round"/>
<path d="M17 12V15" stroke="white" stroke-width="0.5" stroke-linecap="round"/>
</svg>
