<svg width="38" height="32" viewBox="0 0 38 32" fill="none" xmlns="http://www.w3.org/2000/svg">
<circle cx="12.5" cy="12.5" r="12" fill="white" stroke="black"/>
<circle cx="12.5" cy="12.5" r="10" fill="white" stroke="black"/>
<mask id="path-3-inside-1" fill="white">
<path fill-rule="evenodd" clip-rule="evenodd" d="M21.1807 20.4257C20.8641 20.8783 20.9743 21.5018 21.4269 21.8184L22.9381 22.8756C23.2037 23.0613 23.5281 23.1001 23.8148 23.009C23.9369 23.6049 24.2785 24.1568 24.8164 24.5327L33.9355 30.9046C35.0501 31.6834 36.5849 31.4112 37.3637 30.2967C38.1425 29.1822 37.8703 27.6473 36.7558 26.8685L27.6367 20.4965C27.1131 20.1307 26.4968 19.9968 25.9096 20.0732C25.9144 19.7526 25.7653 19.4355 25.4829 19.2379L23.9716 18.1807C23.5191 17.8641 22.8956 17.9743 22.579 18.4269L21.1807 20.4257Z"/>
</mask>
<path d="M21.4269 21.8184L20.8536 22.6378H20.8536L21.4269 21.8184ZM21.1807 20.4257L20.3613 19.8525L20.3613 19.8525L21.1807 20.4257ZM22.9381 22.8756L22.3649 23.695L22.3649 23.695L22.9381 22.8756ZM23.8148 23.009L24.7945 22.8084L24.5714 21.7194L23.512 22.056L23.8148 23.009ZM24.8164 24.5327L24.2437 25.3524L24.8164 24.5327ZM33.9355 30.9046L33.3628 31.7243L33.3628 31.7243L33.9355 30.9046ZM37.3637 30.2967L36.544 29.7239L37.3637 30.2967ZM36.7558 26.8685L37.3285 26.0488L36.7558 26.8685ZM27.6367 20.4965L27.0639 21.3163H27.0639L27.6367 20.4965ZM25.9096 20.0732L24.9097 20.0582L24.8924 21.2139L26.0386 21.0648L25.9096 20.0732ZM25.4829 19.2379L24.9096 20.0573H24.9096L25.4829 19.2379ZM23.9716 18.1807L23.3984 19.0001V19.0001L23.9716 18.1807ZM22.579 18.4269L23.3984 19.0001V19.0001L22.579 18.4269ZM22.0001 20.999L22.0001 20.999L20.3613 19.8525C19.7281 20.7576 19.9486 22.0046 20.8536 22.6378L22.0001 20.999ZM23.5113 22.0562L22.0001 20.999L20.8536 22.6378L22.3649 23.695L23.5113 22.0562ZM23.512 22.056L23.5113 22.0562L22.3649 23.695C22.8965 24.0668 23.5468 24.1434 24.1176 23.9621L23.512 22.056ZM25.3892 23.713C25.0694 23.4895 24.8672 23.1634 24.7945 22.8084L22.8351 23.2097C23.0065 24.0463 23.4877 24.8241 24.2437 25.3524L25.3892 23.713ZM34.5083 30.0849L25.3892 23.713L24.2437 25.3524L33.3628 31.7243L34.5083 30.0849ZM36.544 29.7239C36.0815 30.3857 35.1701 30.5474 34.5083 30.0849L33.3628 31.7243C34.93 32.8195 37.0883 32.4367 38.1834 30.8695L36.544 29.7239ZM36.183 27.6882C36.8448 28.1507 37.0065 29.0621 36.544 29.7239L38.1834 30.8695C39.2785 29.3022 38.8958 27.1439 37.3285 26.0488L36.183 27.6882ZM27.0639 21.3163L36.183 27.6882L37.3285 26.0488L28.2095 19.6768L27.0639 21.3163ZM26.0386 21.0648C26.3883 21.0193 26.7525 21.0987 27.0639 21.3163L28.2095 19.6768C27.4737 19.1627 26.6052 18.9742 25.7806 19.0815L26.0386 21.0648ZM24.9096 20.0573L24.9097 20.0582L26.9095 20.0882C26.9191 19.4501 26.6218 18.8142 26.0561 18.4185L24.9096 20.0573ZM23.3984 19.0001L24.9096 20.0573L26.0561 18.4185L24.5449 17.3613L23.3984 19.0001ZM23.3984 19.0001L23.3984 19.0001L24.5449 17.3613C23.6398 16.7281 22.3928 16.9486 21.7596 17.8536L23.3984 19.0001ZM22.0001 20.999L23.3984 19.0001L21.7596 17.8536L20.3613 19.8525L22.0001 20.999Z" fill="black" mask="url(#path-3-inside-1)"/>
<circle cx="15" cy="10" r="1.5" stroke="black"/>
<path d="M13.5 11L7 16" stroke="black" stroke-linecap="round"/>
<path d="M7.5 15.75L9 17.5" stroke="black" stroke-linecap="round"/>
<path d="M9 14.75L10 16" stroke="black" stroke-linecap="round"/>
</svg>
