<svg width="29" height="47" viewBox="0 0 29 47" fill="none" xmlns="http://www.w3.org/2000/svg">
<path d="M8.07947 34.1449V10.7792C8.07947 10.4044 8.18481 10.0371 8.38347 9.7192L12.762 2.71359C13.5453 1.46026 15.3706 1.46026 16.154 2.71359L20.5325 9.7192C20.7311 10.0371 20.8365 10.4044 20.8365 10.7792V34.1449C20.8365 35.2494 19.941 36.1449 18.8365 36.1449H10.0795C8.9749 36.1449 8.07947 35.2494 8.07947 34.1449Z" stroke="black"/>
<path d="M4.25237 35.5115V34.5376C4.25237 32.2469 5.84334 30.2636 8.07947 29.7667V26.79C3.36004 28.5288 0.483841 33.3146 1.1634 38.298L1.24177 38.8727C1.25503 38.97 1.37661 39.0065 1.44126 38.9326L4.11513 35.8768C4.2036 35.7757 4.25237 35.6459 4.25237 35.5115Z" stroke="black"/>
<path d="M24.6635 35.5115V34.5376C24.6635 32.2469 23.0726 30.2636 20.8364 29.7667V26.79C25.5559 28.5288 28.4321 33.3146 27.7525 38.298L27.6741 38.8727C27.6609 38.97 27.5393 39.0065 27.4746 38.9326L24.8008 35.8768C24.7123 35.7757 24.6635 35.6459 24.6635 35.5115Z" stroke="black"/>
<path d="M11.9065 36.1445V38.5464C11.9065 39.0987 12.3542 39.5464 12.9065 39.5464H15.5841C16.1363 39.5464 16.5841 39.0987 16.5841 38.5464V36.1445" stroke="black"/>
<circle cx="14.4579" cy="13.1823" r="2.0514" stroke="black"/>
<circle cx="14.4579" cy="18.2849" r="1.20093" stroke="black"/>
<rect x="15" y="42" width="1" height="4" rx="0.5" fill="black"/>
<rect x="17" y="43" width="1" height="4" rx="0.5" fill="black"/>
<rect x="13" y="43" width="1" height="4" rx="0.5" fill="black"/>
</svg>
