<svg width="45" height="34" viewBox="0 0 45 34" fill="none" xmlns="http://www.w3.org/2000/svg">
<path d="M14.5 18.125C16.502 18.125 18.125 16.502 18.125 14.5C18.125 12.498 16.502 10.875 14.5 10.875C12.498 10.875 10.875 12.498 10.875 14.5C10.875 16.502 12.498 18.125 14.5 18.125Z" stroke="black" stroke-linecap="round" stroke-linejoin="round"/>
<path d="M23.4417 18.1247C23.2809 18.4891 23.2329 18.8934 23.304 19.2854C23.375 19.6774 23.5619 20.0391 23.8405 20.3238L23.913 20.3963C24.1377 20.6208 24.3159 20.8873 24.4375 21.1807C24.5591 21.4741 24.6217 21.7885 24.6217 22.1061C24.6217 22.4237 24.5591 22.7382 24.4375 23.0316C24.3159 23.325 24.1377 23.5915 23.913 23.8159C23.6885 24.0406 23.422 24.2189 23.1286 24.3405C22.8352 24.4621 22.5208 24.5247 22.2032 24.5247C21.8856 24.5247 21.5711 24.4621 21.2777 24.3405C20.9843 24.2189 20.7178 24.0406 20.4934 23.8159L20.4209 23.7434C20.1361 23.4649 19.7744 23.278 19.3824 23.2069C18.9904 23.1358 18.5862 23.1838 18.2217 23.3447C17.8643 23.4978 17.5595 23.7522 17.3448 24.0764C17.1301 24.4005 17.0149 24.7804 17.0134 25.1693V25.3747C17.0134 26.0156 16.7588 26.6303 16.3055 27.0835C15.8523 27.5367 15.2376 27.7913 14.5967 27.7913C13.9558 27.7913 13.3411 27.5367 12.8879 27.0835C12.4347 26.6303 12.18 26.0156 12.18 25.3747V25.2659C12.1707 24.866 12.0412 24.4781 11.8085 24.1527C11.5758 23.8273 11.2505 23.5794 10.875 23.4413C10.5106 23.2805 10.1063 23.2325 9.71433 23.3036C9.32235 23.3747 8.96065 23.5615 8.67587 23.8401L8.60337 23.9126C8.37893 24.1373 8.1124 24.3155 7.81902 24.4372C7.52564 24.5588 7.21117 24.6214 6.89358 24.6214C6.576 24.6214 6.26152 24.5588 5.96814 24.4372C5.67476 24.3155 5.40823 24.1373 5.18379 23.9126C4.9591 23.6881 4.78085 23.4216 4.65923 23.1282C4.53761 22.8349 4.47501 22.5204 4.47501 22.2028C4.47501 21.8852 4.53761 21.5707 4.65923 21.2774C4.78085 20.984 4.9591 20.7175 5.18379 20.493L5.25629 20.4205C5.53486 20.1357 5.72172 19.774 5.7928 19.3821C5.86387 18.9901 5.81589 18.5858 5.65504 18.2213C5.50187 17.864 5.24754 17.5592 4.92335 17.3445C4.59917 17.1298 4.21928 17.0146 3.83046 17.013H3.62504C2.9841 17.013 2.36941 16.7584 1.9162 16.3052C1.46299 15.852 1.20837 15.2373 1.20837 14.5963C1.20837 13.9554 1.46299 13.3407 1.9162 12.8875C2.36941 12.4343 2.9841 12.1797 3.62504 12.1797H3.73379C4.13374 12.1703 4.52163 12.0409 4.84703 11.8081C5.17242 11.5754 5.42028 11.2501 5.55837 10.8747C5.71922 10.5102 5.7672 10.1059 5.69613 9.71396C5.62506 9.32199 5.43819 8.96029 5.15962 8.67551L5.08712 8.60301C4.86243 8.37856 4.68418 8.11203 4.56256 7.81866C4.44095 7.52528 4.37835 7.2108 4.37835 6.89322C4.37835 6.57563 4.44095 6.26116 4.56256 5.96778C4.68418 5.6744 4.86243 5.40787 5.08712 5.18342C5.31157 4.95873 5.5781 4.78048 5.87148 4.65886C6.16486 4.53725 6.47933 4.47465 6.79692 4.47465C7.1145 4.47465 7.42898 4.53725 7.72235 4.65886C8.01573 4.78048 8.28226 4.95873 8.50671 5.18342L8.57921 5.25592C8.86399 5.53449 9.22569 5.72136 9.61766 5.79243C10.0096 5.8635 10.4139 5.81552 10.7784 5.65467H10.875C11.2324 5.5015 11.5372 5.24717 11.7519 4.92299C11.9666 4.5988 12.0818 4.21892 12.0834 3.83009V3.62467C12.0834 2.98373 12.338 2.36905 12.7912 1.91583C13.2444 1.46262 13.8591 1.20801 14.5 1.20801C15.141 1.20801 15.7557 1.46262 16.2089 1.91583C16.6621 2.36905 16.9167 2.98373 16.9167 3.62467V3.73342C16.9183 4.12225 17.0335 4.50214 17.2482 4.82632C17.4629 5.1505 17.7677 5.40484 18.125 5.55801C18.4895 5.71886 18.8938 5.76684 19.2858 5.69576C19.6777 5.62469 20.0394 5.43782 20.3242 5.15926L20.3967 5.08676C20.6212 4.86206 20.8877 4.68381 21.1811 4.5622C21.4744 4.44058 21.7889 4.37798 22.1065 4.37798C22.4241 4.37798 22.7386 4.44058 23.0319 4.5622C23.3253 4.68381 23.5918 4.86206 23.8163 5.08676C24.041 5.3112 24.2192 5.57773 24.3409 5.87111C24.4625 6.16449 24.5251 6.47896 24.5251 6.79655C24.5251 7.11414 24.4625 7.42861 24.3409 7.72199C24.2192 8.01537 24.041 8.2819 23.8163 8.50634L23.7438 8.57884C23.4652 8.86362 23.2784 9.22532 23.2073 9.6173C23.1362 10.0093 23.1842 10.4136 23.345 10.778V10.8747C23.4982 11.2321 23.7525 11.5369 24.0767 11.7516C24.4009 11.9662 24.7808 12.0815 25.1696 12.083H25.375C26.016 12.083 26.6307 12.3376 27.0839 12.7908C27.5371 13.244 27.7917 13.8587 27.7917 14.4997C27.7917 15.1406 27.5371 15.7553 27.0839 16.2085C26.6307 16.6617 26.016 16.9163 25.375 16.9163H25.2663C24.8775 16.9179 24.4976 17.0331 24.1734 17.2478C23.8492 17.4625 23.5949 17.7673 23.4417 18.1247V18.1247Z" stroke="black" stroke-linecap="round" stroke-linejoin="round"/>
<circle cx="26.2121" cy="17.1974" r="7.93928" transform="rotate(13.6953 26.2121 17.1974)" fill="white" stroke="black"/>
<circle cx="26.2125" cy="17.1977" r="6.58899" transform="rotate(13.6953 26.2125 17.1977)" fill="white" stroke="black"/>
<mask id="path-5-inside-1" fill="white">
<path fill-rule="evenodd" clip-rule="evenodd" d="M30.8827 23.5688C30.468 23.9335 30.4275 24.5654 30.7922 24.9801L31.1854 25.4273C31.3895 25.6593 31.6773 25.7742 31.9638 25.7665C31.9111 26.2183 32.0429 26.6898 32.3672 27.0581L37.3303 32.6954C37.9369 33.3844 38.9872 33.4512 39.6762 32.8446C40.3652 32.238 40.432 31.1877 39.8254 30.4987L34.8623 24.8614C34.5463 24.5025 34.11 24.3125 33.667 24.2984C33.7236 24.0051 33.6487 23.6896 33.4361 23.4479L33.0429 23.0008C32.6782 22.586 32.0463 22.5455 31.6316 22.9102L30.8827 23.5688Z"/>
</mask>
<path fill-rule="evenodd" clip-rule="evenodd" d="M30.8827 23.5688C30.468 23.9335 30.4275 24.5654 30.7922 24.9801L31.1854 25.4273C31.3895 25.6593 31.6773 25.7742 31.9638 25.7665C31.9111 26.2183 32.0429 26.6898 32.3672 27.0581L37.3303 32.6954C37.9369 33.3844 38.9872 33.4512 39.6762 32.8446C40.3652 32.238 40.432 31.1877 39.8254 30.4987L34.8623 24.8614C34.5463 24.5025 34.11 24.3125 33.667 24.2984C33.7236 24.0051 33.6487 23.6896 33.4361 23.4479L33.0429 23.0008C32.6782 22.586 32.0463 22.5455 31.6316 22.9102L30.8827 23.5688Z" fill="white"/>
<path d="M30.7922 24.9801L30.0413 25.6405L30.0413 25.6405L30.7922 24.9801ZM30.8827 23.5688L31.5431 24.3197L30.8827 23.5688ZM31.1854 25.4273L31.9363 24.7669L31.9363 24.7669L31.1854 25.4273ZM31.9638 25.7665L32.9571 25.8825L33.091 24.7358L31.9369 24.7669L31.9638 25.7665ZM32.3672 27.0581L33.1177 26.3973L33.1177 26.3973L32.3672 27.0581ZM37.3303 32.6954L36.5797 33.3562L36.5797 33.3562L37.3303 32.6954ZM39.6762 32.8446L40.337 33.5952L40.337 33.5952L39.6762 32.8446ZM39.8254 30.4987L40.5759 29.8379L39.8254 30.4987ZM34.8623 24.8614L35.6128 24.2006L34.8623 24.8614ZM33.667 24.2984L32.6851 24.109L32.4629 25.2608L33.6354 25.2979L33.667 24.2984ZM33.4361 23.4479L32.6852 24.1083L33.4361 23.4479ZM33.0429 23.0008L33.7938 22.3404L33.7938 22.3404L33.0429 23.0008ZM31.6316 22.9102L30.9712 22.1593L30.9712 22.1593L31.6316 22.9102ZM31.5431 24.3197L31.5431 24.3197L30.2223 22.8179C29.3929 23.5473 29.3118 24.8111 30.0413 25.6405L31.5431 24.3197ZM31.9363 24.7669L31.5431 24.3197L30.0413 25.6405L30.4345 26.0876L31.9363 24.7669ZM31.9369 24.7669L31.9363 24.7669L30.4345 26.0876C30.8429 26.5521 31.4202 26.7815 31.9908 26.7661L31.9369 24.7669ZM33.1177 26.3973C32.9886 26.2507 32.9358 26.0645 32.9571 25.8825L30.9706 25.6506C30.8864 26.3721 31.0973 27.129 31.6166 27.7189L33.1177 26.3973ZM38.0809 32.0346L33.1177 26.3973L31.6166 27.7189L36.5797 33.3562L38.0809 32.0346ZM39.0154 32.0941C38.7409 32.3357 38.3225 32.3091 38.0809 32.0346L36.5797 33.3562C37.5513 34.4597 39.2334 34.5667 40.337 33.5952L39.0154 32.0941ZM39.0748 31.1595C39.3165 31.434 39.2898 31.8524 39.0154 32.0941L40.337 33.5952C41.4405 32.6236 41.5475 30.9415 40.5759 29.8379L39.0748 31.1595ZM34.1117 25.5222L39.0748 31.1595L40.5759 29.8379L35.6128 24.2006L34.1117 25.5222ZM33.6354 25.2979C33.8137 25.3036 33.9858 25.3792 34.1117 25.5222L35.6128 24.2006C35.1068 23.6259 34.4062 23.3214 33.6987 23.2989L33.6354 25.2979ZM32.6852 24.1083L32.6851 24.109L34.6489 24.4879C34.7616 23.9039 34.6126 23.2714 34.187 22.7875L32.6852 24.1083ZM32.292 23.6612L32.6852 24.1083L34.187 22.7875L33.7938 22.3404L32.292 23.6612ZM32.292 23.6612L32.292 23.6612L33.7938 22.3404C33.0644 21.5109 31.8006 21.4299 30.9712 22.1593L32.292 23.6612ZM31.5431 24.3197L32.292 23.6612L30.9712 22.1593L30.2223 22.8179L31.5431 24.3197Z" fill="black" mask="url(#path-5-inside-1)"/>
</svg>
