<svg width="41" height="34" viewBox="0 0 41 34" fill="none" xmlns="http://www.w3.org/2000/svg">
<path d="M27.5 2V30.5C27.5 31.0523 27.0523 31.5 26.5 31.5H2C1.44772 31.5 1 31.0523 1 30.5V2C1 1.44772 1.44771 1 2 1H24.5C25.0523 1 25.5 1.44772 25.5 2V5C25.5 5.55228 25.0523 6 24.5 6V6C23.9477 6 23.5 5.55228 23.5 5V2C23.5 1.44772 23.9477 1 24.5 1H26.5C27.0523 1 27.5 1.44772 27.5 2Z" stroke="black"/>
<path d="M4 6.5H18.5" stroke="black" stroke-linecap="round" stroke-linejoin="round"/>
<path d="M4 11H22" stroke="black" stroke-linecap="round" stroke-linejoin="round"/>
<path d="M4 16H24" stroke="black" stroke-linecap="round" stroke-linejoin="round"/>
<path d="M4 21H24" stroke="black" stroke-linecap="round" stroke-linejoin="round"/>
<circle cx="22.2121" cy="17.1974" r="7.93928" transform="rotate(13.6953 22.2121 17.1974)" fill="white" stroke="black"/>
<circle cx="22.2125" cy="17.1977" r="6.58899" transform="rotate(13.6953 22.2125 17.1977)" fill="white" stroke="black"/>
<mask id="path-8-inside-1" fill="white">
<path fill-rule="evenodd" clip-rule="evenodd" d="M26.8827 23.5688C26.468 23.9335 26.4275 24.5654 26.7922 24.9801L27.1854 25.4273C27.3895 25.6593 27.6773 25.7742 27.9638 25.7665C27.9111 26.2183 28.0429 26.6898 28.3672 27.0581L33.3303 32.6954C33.9369 33.3844 34.9872 33.4512 35.6762 32.8446C36.3652 32.238 36.432 31.1877 35.8254 30.4987L30.8623 24.8614C30.5463 24.5025 30.11 24.3125 29.667 24.2984C29.7236 24.0051 29.6487 23.6896 29.4361 23.4479L29.0429 23.0008C28.6782 22.586 28.0463 22.5455 27.6316 22.9102L26.8827 23.5688Z"/>
</mask>
<path fill-rule="evenodd" clip-rule="evenodd" d="M26.8827 23.5688C26.468 23.9335 26.4275 24.5654 26.7922 24.9801L27.1854 25.4273C27.3895 25.6593 27.6773 25.7742 27.9638 25.7665C27.9111 26.2183 28.0429 26.6898 28.3672 27.0581L33.3303 32.6954C33.9369 33.3844 34.9872 33.4512 35.6762 32.8446C36.3652 32.238 36.432 31.1877 35.8254 30.4987L30.8623 24.8614C30.5463 24.5025 30.11 24.3125 29.667 24.2984C29.7236 24.0051 29.6487 23.6896 29.4361 23.4479L29.0429 23.0008C28.6782 22.586 28.0463 22.5455 27.6316 22.9102L26.8827 23.5688Z" fill="white"/>
<path d="M26.7922 24.9801L26.0413 25.6405L26.0413 25.6405L26.7922 24.9801ZM26.8827 23.5688L27.5431 24.3197L26.8827 23.5688ZM27.1854 25.4273L27.9363 24.7669L27.9363 24.7669L27.1854 25.4273ZM27.9638 25.7665L28.9571 25.8825L29.091 24.7358L27.9369 24.7669L27.9638 25.7665ZM28.3672 27.0581L29.1177 26.3973L28.3672 27.0581ZM33.3303 32.6954L32.5797 33.3562L32.5797 33.3562L33.3303 32.6954ZM35.6762 32.8446L36.337 33.5952L35.6762 32.8446ZM35.8254 30.4987L36.5759 29.8379L36.5759 29.8379L35.8254 30.4987ZM30.8623 24.8614L31.6128 24.2006L31.6128 24.2006L30.8623 24.8614ZM29.667 24.2984L28.6851 24.109L28.4629 25.2608L29.6354 25.2979L29.667 24.2984ZM29.4361 23.4479L28.6852 24.1083L28.6852 24.1083L29.4361 23.4479ZM29.0429 23.0008L29.7938 22.3404L29.7938 22.3404L29.0429 23.0008ZM27.6316 22.9102L26.9712 22.1593L26.9712 22.1593L27.6316 22.9102ZM27.5431 24.3197L27.5431 24.3197L26.2223 22.8179C25.3929 23.5473 25.3118 24.8111 26.0413 25.6405L27.5431 24.3197ZM27.9363 24.7669L27.5431 24.3197L26.0413 25.6405L26.4345 26.0876L27.9363 24.7669ZM27.9369 24.7669L27.9363 24.7669L26.4345 26.0876C26.8429 26.5521 27.4202 26.7815 27.9908 26.7661L27.9369 24.7669ZM29.1177 26.3973C28.9886 26.2507 28.9358 26.0645 28.9571 25.8825L26.9706 25.6506C26.8864 26.3721 27.0973 27.129 27.6166 27.7189L29.1177 26.3973ZM34.0809 32.0346L29.1177 26.3973L27.6166 27.7189L32.5797 33.3562L34.0809 32.0346ZM35.0154 32.0941C34.7409 32.3357 34.3225 32.3091 34.0809 32.0346L32.5797 33.3562C33.5513 34.4597 35.2334 34.5667 36.337 33.5952L35.0154 32.0941ZM35.0748 31.1595C35.3165 31.434 35.2898 31.8524 35.0154 32.0941L36.337 33.5952C37.4405 32.6236 37.5475 30.9415 36.5759 29.8379L35.0748 31.1595ZM30.1117 25.5222L35.0748 31.1595L36.5759 29.8379L31.6128 24.2006L30.1117 25.5222ZM29.6354 25.2979C29.8137 25.3036 29.9858 25.3792 30.1117 25.5222L31.6128 24.2006C31.1068 23.6259 30.4062 23.3214 29.6987 23.2989L29.6354 25.2979ZM28.6852 24.1083L28.6851 24.109L30.6489 24.4879C30.7616 23.9039 30.6126 23.2714 30.187 22.7875L28.6852 24.1083ZM28.292 23.6612L28.6852 24.1083L30.187 22.7875L29.7938 22.3404L28.292 23.6612ZM28.292 23.6612L28.292 23.6612L29.7938 22.3404C29.0644 21.5109 27.8006 21.4299 26.9712 22.1593L28.292 23.6612ZM27.5431 24.3197L28.292 23.6612L26.9712 22.1593L26.2223 22.8179L27.5431 24.3197Z" fill="black" mask="url(#path-8-inside-1)"/>
<path d="M4 26H24" stroke="black" stroke-linecap="round" stroke-linejoin="round"/>
</svg>
