<svg width="32" height="42" viewBox="0 0 32 42" fill="none" xmlns="http://www.w3.org/2000/svg">
<path d="M8.77783 7.77778V5.88889C8.77783 5.3366 9.22555 4.88889 9.77783 4.88889H11.1112C11.6635 4.88889 12.1183 4.43798 12.25 3.90162C12.5328 2.74948 13.3917 1 16.0001 1C18.6084 1 19.4673 2.74948 19.7501 3.90162C19.8818 4.43798 20.3367 4.88889 20.8889 4.88889H22.2223C22.7746 4.88889 23.2223 5.3366 23.2223 5.88889V7.77778C23.2223 8.33006 22.7746 8.77778 22.2223 8.77778H9.77783C9.22555 8.77778 8.77783 8.33006 8.77783 7.77778Z" fill="white" stroke="black"/>
<path d="M23.5 6.55566H29C30.1046 6.55566 31 7.45109 31 8.55566V39.0001C31 40.1047 30.1046 41.0001 29 41.0001H3C1.89543 41.0001 1 40.1047 1 39.0001V8.55566C1 7.45109 1.89543 6.55566 3 6.55566H8.77778" stroke="black"/>
<path d="M13.2222 13.2227L15.4444 15.4449" stroke="black" stroke-linecap="round"/>
<path d="M15.4444 13.2227L13.2222 15.4449" stroke="black" stroke-linecap="round"/>
<path d="M24.3334 16.5557L26.5556 18.7779" stroke="black" stroke-linecap="round"/>
<path d="M26.5556 16.5557L24.3334 18.7779" stroke="black" stroke-linecap="round"/>
<path d="M7.66663 24.333L9.88885 26.5552" stroke="black" stroke-linecap="round"/>
<path d="M9.88885 24.333L7.66663 26.5552" stroke="black" stroke-linecap="round"/>
<path d="M25.4445 31L27.6667 33.2222" stroke="black" stroke-linecap="round"/>
<path d="M27.6667 31L25.4445 33.2222" stroke="black" stroke-linecap="round"/>
<circle cx="10.4445" cy="33.7782" r="1.05556" stroke="black"/>
<path d="M11.4014 33.9115C11.4014 33.9115 17.0708 34.8882 19.3333 29.8887C21.5959 24.8891 16.5554 17.1111 16.5554 17.1111M16.5554 17.1111L15.9999 18.778L18.2221 17.6669L16.5554 17.1111Z" stroke="black" stroke-linejoin="round"/>
</svg>
