<svg width="45" height="34" viewBox="0 0 45 34" fill="none" xmlns="http://www.w3.org/2000/svg">
<rect x="0.5" y="0.5" width="44" height="29" rx="1.5" stroke="black"/>
<path d="M13 34C13 33.4477 13.4477 33 14 33H32C32.5523 33 33 33.4477 33 34H13Z" fill="black"/>
<path d="M23.0737 33.2549L23.1047 29.9992L24.1047 30.0087L24.0737 33.2644L23.0737 33.2549Z" fill="black"/>
<path d="M31.913 8.5V6C31.913 4.89543 31.0176 4 29.913 4H11C9.89543 4 9 4.89543 9 6V22.6957C9 23.8002 9.89543 24.6957 11 24.6957H20.4565H24.5" stroke="black" stroke-linecap="round" stroke-linejoin="round"/>
<path d="M31.5 20.625C32.6736 20.625 33.625 19.6736 33.625 18.5C33.625 17.3264 32.6736 16.375 31.5 16.375C30.3264 16.375 29.375 17.3264 29.375 18.5C29.375 19.6736 30.3264 20.625 31.5 20.625Z" stroke="black" stroke-linecap="round" stroke-linejoin="round"/>
<path d="M36.7417 20.6247C36.6474 20.8383 36.6193 21.0753 36.661 21.3051C36.7026 21.5349 36.8122 21.7469 36.9755 21.9138L37.018 21.9563C37.1497 22.0879 37.2542 22.2442 37.3255 22.4161C37.3968 22.5881 37.4334 22.7725 37.4334 22.9586C37.4334 23.1448 37.3968 23.3292 37.3255 23.5011C37.2542 23.6731 37.1497 23.8294 37.018 23.9609C36.8864 24.0926 36.7301 24.1971 36.5582 24.2684C36.3862 24.3397 36.2018 24.3764 36.0157 24.3764C35.8295 24.3764 35.6451 24.3397 35.4732 24.2684C35.3012 24.1971 35.1449 24.0926 35.0134 23.9609L34.9709 23.9184C34.8039 23.7551 34.5919 23.6456 34.3621 23.6039C34.1323 23.5623 33.8954 23.5904 33.6817 23.6847C33.4722 23.7745 33.2935 23.9236 33.1677 24.1136C33.0418 24.3036 32.9743 24.5263 32.9734 24.7543V24.8747C32.9734 25.2504 32.8241 25.6107 32.5584 25.8764C32.2928 26.1421 31.9324 26.2913 31.5567 26.2913C31.181 26.2913 30.8206 26.1421 30.555 25.8764C30.2893 25.6107 30.14 25.2504 30.14 24.8747V24.8109C30.1346 24.5765 30.0587 24.3491 29.9222 24.1583C29.7858 23.9676 29.5951 23.8223 29.375 23.7413C29.1614 23.6471 28.9244 23.6189 28.6946 23.6606C28.4648 23.7023 28.2528 23.8118 28.0859 23.9751L28.0434 24.0176C27.9118 24.1493 27.7556 24.2538 27.5836 24.3251C27.4116 24.3964 27.2273 24.4331 27.0411 24.4331C26.8549 24.4331 26.6706 24.3964 26.4986 24.3251C26.3266 24.2538 26.1704 24.1493 26.0388 24.0176C25.9071 23.886 25.8026 23.7298 25.7313 23.5578C25.66 23.3858 25.6233 23.2015 25.6233 23.0153C25.6233 22.8291 25.66 22.6448 25.7313 22.4728C25.8026 22.3008 25.9071 22.1446 26.0388 22.013L26.0813 21.9705C26.2446 21.8036 26.3541 21.5915 26.3958 21.3618C26.4375 21.132 26.4093 20.895 26.315 20.6813C26.2253 20.4718 26.0762 20.2932 25.8861 20.1673C25.6961 20.0415 25.4734 19.9739 25.2455 19.973H25.125C24.7493 19.973 24.389 19.8238 24.1233 19.5581C23.8576 19.2924 23.7084 18.9321 23.7084 18.5563C23.7084 18.1806 23.8576 17.8203 24.1233 17.5546C24.389 17.2889 24.7493 17.1397 25.125 17.1397H25.1888C25.4232 17.1342 25.6506 17.0583 25.8414 16.9219C26.0321 16.7854 26.1774 16.5948 26.2584 16.3747C26.3527 16.161 26.3808 15.924 26.3391 15.6943C26.2975 15.4645 26.1879 15.2524 26.0246 15.0855L25.9821 15.043C25.8504 14.9114 25.7459 14.7552 25.6746 14.5832C25.6033 14.4112 25.5666 14.2269 25.5666 14.0407C25.5666 13.8545 25.6033 13.6702 25.6746 13.4982C25.7459 13.3262 25.8504 13.17 25.9821 13.0384C26.1137 12.9067 26.2699 12.8022 26.4419 12.7309C26.6139 12.6596 26.7982 12.6229 26.9844 12.6229C27.1706 12.6229 27.3549 12.6596 27.5269 12.7309C27.6989 12.8022 27.8551 12.9067 27.9867 13.0384L28.0292 13.0809C28.1961 13.2442 28.4082 13.3538 28.638 13.3954C28.8677 13.4371 29.1047 13.409 29.3184 13.3147H29.375C29.5845 13.2249 29.7632 13.0758 29.8891 12.8858C30.0149 12.6957 30.0825 12.473 30.0834 12.2451V12.1247C30.0834 11.749 30.2326 11.3886 30.4983 11.1229C30.764 10.8573 31.1243 10.708 31.5 10.708C31.8758 10.708 32.2361 10.8573 32.5018 11.1229C32.7675 11.3886 32.9167 11.749 32.9167 12.1247V12.1884C32.9176 12.4164 32.9852 12.639 33.111 12.8291C33.2369 13.0191 33.4155 13.1682 33.625 13.258C33.8387 13.3523 34.0757 13.3804 34.3055 13.3388C34.5352 13.2971 34.7473 13.1876 34.9142 13.0243L34.9567 12.9818C35.0883 12.85 35.2445 12.7455 35.4165 12.6743C35.5885 12.603 35.7728 12.5663 35.959 12.5663C36.1452 12.5663 36.3295 12.603 36.5015 12.6743C36.6735 12.7455 36.8297 12.85 36.9613 12.9818C37.093 13.1133 37.1975 13.2696 37.2688 13.4416C37.3401 13.6135 37.3768 13.7979 37.3768 13.984C37.3768 14.1702 37.3401 14.3546 37.2688 14.5265C37.1975 14.6985 37.093 14.8548 36.9613 14.9863L36.9188 15.0288C36.7555 15.1958 36.646 15.4078 36.6043 15.6376C36.5626 15.8674 36.5908 16.1044 36.685 16.318V16.3747C36.7748 16.5842 36.9239 16.7629 37.114 16.8887C37.304 17.0146 37.5267 17.0821 37.7546 17.083H37.875C38.2508 17.083 38.6111 17.2323 38.8768 17.4979C39.1425 17.7636 39.2917 18.124 39.2917 18.4997C39.2917 18.8754 39.1425 19.2357 38.8768 19.5014C38.6111 19.7671 38.2508 19.9163 37.875 19.9163H37.8113C37.5834 19.9173 37.3607 19.9848 37.1706 20.1106C36.9806 20.2365 36.8315 20.4152 36.7417 20.6247V20.6247Z" stroke="black" stroke-linecap="round" stroke-linejoin="round"/>
</svg>
