<svg width="43" height="40" viewBox="0 0 43 40" fill="none" xmlns="http://www.w3.org/2000/svg">
<rect x="0.5" y="0.5" width="19" height="39" rx="1.5" fill="white" stroke="black"/>
<path d="M0 4H19" stroke="black"/>
<path d="M0.5 35H19" stroke="black"/>
<circle cx="10" cy="37" r="0.5" stroke="black"/>
<rect x="8" y="2" width="4" height="1" rx="0.5" fill="black"/>
<circle cx="17.5" cy="19.5" r="12" fill="white" stroke="black"/>
<circle cx="17.5" cy="19.5" r="10" fill="white" stroke="black"/>
<mask id="path-8-inside-1" fill="white">
<path fill-rule="evenodd" clip-rule="evenodd" d="M26.1807 27.4257C25.8641 27.8783 25.9743 28.5018 26.4269 28.8184L27.9381 29.8756C28.2037 30.0613 28.5281 30.1001 28.8148 30.009C28.9369 30.6049 29.2785 31.1568 29.8164 31.5327L38.9355 37.9046C40.0501 38.6834 41.5849 38.4112 42.3637 37.2967C43.1425 36.1822 42.8703 34.6473 41.7558 33.8685L32.6367 27.4965C32.1131 27.1307 31.4968 26.9968 30.9096 27.0732C30.9144 26.7526 30.7653 26.4355 30.4829 26.2379L28.9716 25.1807C28.5191 24.8641 27.8956 24.9743 27.579 25.4269L26.1807 27.4257Z"/>
</mask>
<path d="M26.4269 28.8184L25.8536 29.6378H25.8536L26.4269 28.8184ZM26.1807 27.4257L25.3613 26.8525L25.3613 26.8525L26.1807 27.4257ZM27.9381 29.8756L28.5113 29.0562H28.5113L27.9381 29.8756ZM28.8148 30.009L29.7945 29.8084L29.5714 28.7194L28.512 29.056L28.8148 30.009ZM29.8164 31.5327L29.2437 32.3524L29.8164 31.5327ZM38.9355 37.9046L39.5083 37.0849L38.9355 37.9046ZM42.3637 37.2967L41.544 36.7239V36.7239L42.3637 37.2967ZM41.7558 33.8685L41.183 34.6882L41.7558 33.8685ZM32.6367 27.4965L32.0639 28.3163H32.0639L32.6367 27.4965ZM30.9096 27.0732L29.9097 27.0582L29.8924 28.2139L31.0386 28.0648L30.9096 27.0732ZM30.4829 26.2379L29.9096 27.0573H29.9096L30.4829 26.2379ZM28.9716 25.1807L28.3984 26.0001V26.0001L28.9716 25.1807ZM27.579 25.4269L28.3984 26.0001V26.0001L27.579 25.4269ZM27.0001 27.999L27.0001 27.999L25.3613 26.8525C24.7281 27.7576 24.9486 29.0046 25.8536 29.6378L27.0001 27.999ZM28.5113 29.0562L27.0001 27.999L25.8536 29.6378L27.3649 30.695L28.5113 29.0562ZM28.512 29.056L28.5113 29.0562L27.3649 30.695C27.8965 31.0668 28.5468 31.1434 29.1176 30.9621L28.512 29.056ZM30.3892 30.713C30.0694 30.4895 29.8672 30.1634 29.7945 29.8084L27.8352 30.2097C28.0065 31.0463 28.4877 31.8241 29.2437 32.3524L30.3892 30.713ZM39.5083 37.0849L30.3892 30.713L29.2437 32.3524L38.3628 38.7243L39.5083 37.0849ZM41.544 36.7239C41.0815 37.3857 40.1701 37.5474 39.5083 37.0849L38.3628 38.7243C39.93 39.8195 42.0883 39.4367 43.1834 37.8695L41.544 36.7239ZM41.183 34.6882C41.8448 35.1507 42.0065 36.0621 41.544 36.7239L43.1834 37.8695C44.2785 36.3022 43.8958 34.1439 42.3285 33.0488L41.183 34.6882ZM32.0639 28.3163L41.183 34.6882L42.3286 33.0488L33.2095 26.6768L32.0639 28.3163ZM31.0386 28.0648C31.3883 28.0193 31.7525 28.0987 32.0639 28.3163L33.2095 26.6768C32.4737 26.1627 31.6052 25.9742 30.7806 26.0815L31.0386 28.0648ZM29.9096 27.0573L29.9097 27.0582L31.9095 27.0882C31.9191 26.4501 31.6218 25.8142 31.0561 25.4185L29.9096 27.0573ZM28.3984 26.0001L29.9096 27.0573L31.0561 25.4185L29.5449 24.3613L28.3984 26.0001ZM28.3984 26.0001L28.3984 26.0001L29.5449 24.3613C28.6398 23.7281 27.3928 23.9486 26.7596 24.8536L28.3984 26.0001ZM27.0001 27.999L28.3984 26.0001L26.7596 24.8536L25.3613 26.8525L27.0001 27.999Z" fill="black" mask="url(#path-8-inside-1)"/>
<circle cx="20" cy="17" r="1.5" stroke="black"/>
<path d="M18.5 18L12 23" stroke="black" stroke-linecap="round"/>
<path d="M12.5 22.75L14 24.5" stroke="black" stroke-linecap="round"/>
<path d="M14 21.75L15 23" stroke="black" stroke-linecap="round"/>
</svg>
