<svg width="46" height="52" viewBox="0 0 46 52" fill="none" xmlns="http://www.w3.org/2000/svg">
<path d="M4 28.5L15.6685 24.1243C15.883 24.0439 16.1186 24.0395 16.3359 24.112L29.5 28.5" stroke="black" stroke-linecap="round" stroke-linejoin="round"/>
<mask id="path-2-inside-1" fill="white">
<path fill-rule="evenodd" clip-rule="evenodd" d="M20.3709 5.38768C20.3713 5.36326 20.3714 5.33879 20.3714 5.31429C20.3714 2.37929 17.9921 0 15.0571 0C12.3155 0 10.0588 2.07605 9.77333 4.74184C9.21067 4.53908 8.60396 4.42857 7.97143 4.42857C5.03643 4.42857 2.65714 6.80786 2.65714 9.74286C2.65714 9.97527 2.67206 10.2042 2.70099 10.4287C1.0884 11.3412 0 13.0721 0 15.0571C0 17.9921 2.37929 20.3714 5.31429 20.3714H10.6286H15.5H21.4786H25.6857C28.6207 20.3714 31 17.9921 31 15.0571C31 13.7596 30.535 12.5708 29.7626 11.648C29.9898 11.0566 30.1143 10.4143 30.1143 9.74286C30.1143 6.80786 27.735 4.42857 24.8 4.42857C23.5025 4.42857 22.3136 4.89356 21.3909 5.66599C21.0651 5.54085 20.7239 5.44687 20.3709 5.38768Z"/>
</mask>
<path fill-rule="evenodd" clip-rule="evenodd" d="M20.3709 5.38768C20.3713 5.36326 20.3714 5.33879 20.3714 5.31429C20.3714 2.37929 17.9921 0 15.0571 0C12.3155 0 10.0588 2.07605 9.77333 4.74184C9.21067 4.53908 8.60396 4.42857 7.97143 4.42857C5.03643 4.42857 2.65714 6.80786 2.65714 9.74286C2.65714 9.97527 2.67206 10.2042 2.70099 10.4287C1.0884 11.3412 0 13.0721 0 15.0571C0 17.9921 2.37929 20.3714 5.31429 20.3714H10.6286H15.5H21.4786H25.6857C28.6207 20.3714 31 17.9921 31 15.0571C31 13.7596 30.535 12.5708 29.7626 11.648C29.9898 11.0566 30.1143 10.4143 30.1143 9.74286C30.1143 6.80786 27.735 4.42857 24.8 4.42857C23.5025 4.42857 22.3136 4.89356 21.3909 5.66599C21.0651 5.54085 20.7239 5.44687 20.3709 5.38768Z" fill="white"/>
<path d="M20.3709 5.38768L19.371 5.37417L19.3594 6.23204L20.2056 6.37391L20.3709 5.38768ZM9.77333 4.74184L9.4343 5.68262L10.6321 6.11425L10.7676 4.84833L9.77333 4.74184ZM2.70099 10.4287L3.19346 11.2991L3.77874 10.9679L3.69279 10.3009L2.70099 10.4287ZM29.7626 11.648L28.8291 11.2894L28.6181 11.8387L28.9958 12.2899L29.7626 11.648ZM21.3909 5.66599L21.0323 6.59948L21.5816 6.81049L22.0328 6.43279L21.3909 5.66599ZM19.3714 5.31429C19.3714 5.33428 19.3713 5.35424 19.371 5.37417L21.3708 5.40119C21.3712 5.37227 21.3714 5.3433 21.3714 5.31429H19.3714ZM15.0571 1C17.4399 1 19.3714 2.93157 19.3714 5.31429H21.3714C21.3714 1.827 18.5444 -1 15.0571 -1V1ZM10.7676 4.84833C10.9993 2.68524 12.8321 1 15.0571 1V-1C11.799 -1 9.11836 1.46687 8.77902 4.63535L10.7676 4.84833ZM7.97143 5.42857C8.48673 5.42857 8.97883 5.51848 9.4343 5.68262L10.1124 3.80106C9.44252 3.55968 8.72118 3.42857 7.97143 3.42857V5.42857ZM3.65714 9.74286C3.65714 7.36014 5.58871 5.42857 7.97143 5.42857V3.42857C4.48415 3.42857 1.65714 6.25557 1.65714 9.74286H3.65714ZM3.69279 10.3009C3.66931 10.1187 3.65714 9.93243 3.65714 9.74286H1.65714C1.65714 10.0181 1.67482 10.2897 1.70919 10.5565L3.69279 10.3009ZM1 15.0571C1 13.4469 1.88171 12.0413 3.19346 11.2991L2.20853 9.55839C0.295089 10.6411 -1 12.6972 -1 15.0571H1ZM5.31429 19.3714C2.93157 19.3714 1 17.4399 1 15.0571H-1C-1 18.5444 1.827 21.3714 5.31429 21.3714V19.3714ZM10.6286 19.3714H5.31429V21.3714H10.6286V19.3714ZM15.5 19.3714H10.6286V21.3714H15.5V19.3714ZM21.4786 19.3714H15.5V21.3714H21.4786V19.3714ZM25.6857 19.3714H21.4786V21.3714H25.6857V19.3714ZM30 15.0571C30 17.4399 28.0684 19.3714 25.6857 19.3714V21.3714C29.173 21.3714 32 18.5444 32 15.0571H30ZM28.9958 12.2899C29.6232 13.0394 30 14.003 30 15.0571H32C32 13.5163 31.4468 12.1021 30.5294 11.0061L28.9958 12.2899ZM29.1143 9.74286C29.1143 10.2898 29.013 10.8106 28.8291 11.2894L30.6961 12.0066C30.9665 11.3026 31.1143 10.5388 31.1143 9.74286H29.1143ZM24.8 5.42857C27.1827 5.42857 29.1143 7.36014 29.1143 9.74286H31.1143C31.1143 6.25557 28.2873 3.42857 24.8 3.42857V5.42857ZM22.0328 6.43279C22.7822 5.80539 23.7458 5.42857 24.8 5.42857V3.42857C23.2592 3.42857 21.845 3.98173 20.749 4.89919L22.0328 6.43279ZM20.2056 6.37391C20.4918 6.42191 20.7683 6.49809 21.0323 6.59948L21.7495 4.7325C21.3619 4.58362 20.956 4.47182 20.5363 4.40145L20.2056 6.37391Z" fill="black" mask="url(#path-2-inside-1)"/>
<path d="M14.6538 21.9041V32.5C14.6538 32.7761 14.8777 33 15.1538 33H17.8462C18.1223 33 18.3462 32.7761 18.3462 32.5V21.9041C18.3462 21.6043 18.6083 21.3719 18.906 21.4077L20.9608 21.6553C21.3782 21.7056 21.6675 21.2497 21.4444 20.8935L16.9237 13.6765C16.7278 13.3637 16.2722 13.3637 16.0763 13.6765L11.5556 20.8935C11.3325 21.2497 11.6218 21.7056 12.0392 21.6553L14.094 21.4077C14.3917 21.3719 14.6538 21.6043 14.6538 21.9041Z" fill="white" stroke="black" stroke-linecap="round"/>
<rect x="0.433013" y="0.75" width="15" height="15" rx="0.5" transform="matrix(0.866025 0.5 -2.20305e-08 1 3.05801 27.7835)" fill="white" stroke="black"/>
<rect x="0.433013" y="0.25" width="15" height="15" rx="0.5" transform="matrix(0.866025 -0.5 2.20305e-08 1 16.058 36.2165)" stroke="black"/>
<path d="M29.2871 29.0563C29.8057 28.7704 30.5604 28.6815 31.2233 28.8283L41.3564 31.073C42.5758 31.3431 42.9117 32.2461 41.997 32.7949L30.6946 39.5758C30.1795 39.8849 29.3976 39.988 28.7098 39.8376L17.8273 37.4573C16.5713 37.1826 16.2544 36.2427 17.2354 35.7018L29.2871 29.0563Z" fill="white" stroke="black"/>
</svg>
