<svg width="43" height="31" viewBox="0 0 43 31" fill="none" xmlns="http://www.w3.org/2000/svg">
<path d="M3 1H40C41.1046 1 42 1.89543 42 3V28C42 29.1046 41.1046 30 40 30H3C1.89543 30 1 29.1046 1 28V3C1 1.89543 1.89543 1 3 1Z" stroke="black"/>
<path d="M1 6H42" stroke="black"/>
<rect x="5.5" y="13.5" width="9" height="7" rx="0.5" stroke="black"/>
<rect x="23.5" y="9.5" width="11" height="3" rx="0.5" stroke="black"/>
<rect x="23.5" y="15.5" width="11" height="3" rx="0.5" stroke="black"/>
<rect x="23.5" y="21.5" width="11" height="3" rx="0.5" stroke="black"/>
<path d="M15 17H23" stroke="black"/>
<path d="M19 17V15.5C19 13.0147 21.0147 11 23.5 11V11" stroke="black"/>
<path d="M19 17.5V19C19 21.2091 20.7909 23 23 23V23M3 3.5H32.5" stroke="black" stroke-linecap="round"/>
<circle cx="35.5" cy="3.5" r="0.5" fill="black"/>
<circle cx="37.5" cy="3.5" r="0.5" fill="black"/>
<circle cx="39.5" cy="3.5" r="0.5" fill="black"/>
</svg>
