<svg width="48" height="36" viewBox="0 0 48 36" fill="none" xmlns="http://www.w3.org/2000/svg">
<path d="M3 1H40C41.1046 1 42 1.89543 42 3V28C42 29.1046 41.1046 30 40 30H3C1.89543 30 1 29.1046 1 28V3C1 1.89543 1.89543 1 3 1Z" stroke="black"/>
<path d="M0.5 7H41.5" stroke="black"/>
<circle cx="11.0001" cy="17.5001" r="6.00012" stroke="black"/>
<path d="M11.0001 11V23.3502" stroke="black"/>
<path d="M11.6501 11.6484L12.3691 12.2955C15.4587 15.0762 15.4587 19.9209 12.3691 22.7016L11.6501 23.3486" stroke="black"/>
<path d="M10.3501 11.6484L9.44975 12.5488C6.71608 15.2825 6.71608 19.7146 9.44975 22.4483L10.3501 23.3486" stroke="black"/>
<path d="M5.80005 14.9004L8.57479 15.5941C10.1672 15.9922 11.8331 15.9922 13.4255 15.5941L16.2002 14.9004" stroke="black"/>
<path d="M5.35608 19.4502L8.78074 20.239C10.2416 20.5755 11.7594 20.5793 13.2218 20.25L16.7741 19.4502" stroke="black"/>
<path d="M32.7108 32.1136L32.0762 22.0833C32.034 21.4162 32.6456 20.8962 33.2972 21.0453L42.7185 23.2011C43.6904 23.4235 43.7739 24.7755 42.8369 25.1159L37.7294 26.9711C37.4917 27.0575 37.2955 27.2307 37.1804 27.4559L34.5992 32.5056C34.1365 33.4109 32.775 33.1282 32.7108 32.1136Z" fill="white" stroke="black"/>
<circle cx="5" cy="4" r="1" fill="black"/>
<circle cx="8" cy="4" r="1" fill="black"/>
<circle cx="11" cy="4" r="1" fill="black"/>
</svg>
