<svg width="104" height="104" viewBox="0 0 104 104" fill="none" xmlns="http://www.w3.org/2000/svg">
<rect width="104" height="104" rx="10" fill="white"/>
<path d="M44.6753 12V18.2898" stroke="black" stroke-width="2" stroke-linecap="round" stroke-linejoin="round"/>
<path d="M62.4895 18.4648L58.2678 23.1273" stroke="black" stroke-width="2" stroke-linecap="round" stroke-linejoin="round"/>
<path d="M72.1631 32.127L66.0071 33.4175" stroke="black" stroke-width="2" stroke-linecap="round" stroke-linejoin="round"/>
<path d="M70.6694 46.9766L64.8037 44.7061" stroke="black" stroke-width="2" stroke-linecap="round" stroke-linejoin="round"/>
<path d="M18.2588 46.9766L24.1245 44.7061" stroke="black" stroke-width="2" stroke-linecap="round" stroke-linejoin="round"/>
<path d="M17 32.127L23.156 33.4175" stroke="black" stroke-width="2" stroke-linecap="round" stroke-linejoin="round"/>
<path d="M28.321 18.2891L32.5428 22.9515" stroke="black" stroke-width="2" stroke-linecap="round" stroke-linejoin="round"/>
<path d="M43.5409 62.4734H49.2718C51.0579 62.4734 52.5058 61.0255 52.5058 59.2394V59.1643C52.5058 58.8181 52.6167 58.481 52.8223 58.2024L57.721 51.5656C63.7387 43.4125 59.7687 31.7586 50.0252 28.9747V28.9747C47.5493 28.2673 44.9294 28.231 42.4348 28.8691V28.8691C32.5084 31.4084 28.2498 43.1452 34.2417 51.4566L38.8868 57.8996C39.2297 58.3753 39.4142 58.9468 39.4142 59.5332V64.3154C39.4142 65.42 40.3096 66.3154 41.4142 66.3154H50.5847C51.6457 66.3154 52.5058 67.1755 52.5058 68.2365V68.2365C52.5058 69.2975 51.6457 70.1575 50.5847 70.1575H42.2602C41.1992 70.1575 40.3392 71.0176 40.3392 72.0786V72.0786C40.3392 73.1396 41.1992 73.9996 42.2602 73.9996H48.0233" stroke="black" stroke-width="2" stroke-linecap="round" stroke-linejoin="round"/>
<path d="M37.6675 39.0263C37.6675 39.0263 37.6675 37.4365 39.2573 35.8467C40.8471 34.2568 41.6421 34.2568 41.6421 34.2568" stroke="black" stroke-width="2" stroke-linecap="round" stroke-linejoin="round"/>
</svg>
