<svg width="104" height="104" viewBox="0 0 104 104" fill="none" xmlns="http://www.w3.org/2000/svg">
<rect width="104" height="104" rx="10" fill="white"/>
<path d="M29.0393 56.2396L29.2937 49.1951C29.3518 47.5861 30.6697 46.3098 32.2798 46.3034L34.7201 46.2938C36.3769 46.2872 37.7253 47.625 37.7319 49.2819L37.7951 65.2444C37.8017 66.9012 36.4638 68.2497 34.807 68.2562L32.4846 68.2654C30.8278 68.272 29.4793 66.9342 29.4727 65.2773L29.4629 62.7867" stroke="black" stroke-width="2" stroke-linecap="round" stroke-linejoin="round"/>
<path d="M44.6315 44.2888C44.6315 44.2888 52.6654 27.7467 57.0872 27.7454C61.5089 27.744 57.0873 38.4196 57.0873 38.4196" stroke="black" stroke-width="2" stroke-linecap="round" stroke-linejoin="round"/>
<path d="M73.9395 58.4047V60.3266M73.9395 54.3922V52.4622M73.9395 64.2588V64.2588C73.9395 67.9817 70.9215 70.9997 67.1986 70.9997H50.4819C46.0637 70.9997 42.4819 67.418 42.4819 62.9997V49.7891C42.4819 45.3708 46.0637 41.7891 50.4819 41.7891H67.7604C71.173 41.7891 73.9395 44.5556 73.9395 47.9682V47.9682" stroke="black" stroke-width="2" stroke-linecap="round" stroke-linejoin="round"/>
<path d="M73.9394 54.71H60.4575" stroke="black" stroke-width="2" stroke-linecap="round" stroke-linejoin="round"/>
<path d="M73.9394 48.5312H60.4575" stroke="black" stroke-width="2" stroke-linecap="round" stroke-linejoin="round"/>
<path d="M73.9394 60.3271H60.4575" stroke="black" stroke-width="2" stroke-linecap="round" stroke-linejoin="round"/>
</svg>
