<svg width="67" height="66" viewBox="0 0 67 66" fill="none" xmlns="http://www.w3.org/2000/svg">
<path d="M33.043 33.0454L32.6569 31.5431L31.9967 33.9558L34.4434 34.1263L33.043 33.0454ZM33.043 33.0454L59.3648 15.2148M59.3648 15.2148L57.8297 14.6657L61.9824 10.7421L61.9824 13.1942L64.2063 14.1563L59.3648 16.6278L59.3648 15.2148Z" stroke="black" stroke-width="2" stroke-linecap="round" stroke-linejoin="round"/>
<path d="M54.8378 21.8378C57.6769 27.3922 58.2928 33.8197 56.5601 39.8121C54.8275 45.8045 50.8765 50.9116 45.5113 54.0938C40.1462 57.276 33.7701 58.2942 27.6807 56.9413C21.5913 55.5883 16.2462 51.9658 12.7334 46.811C9.2206 41.6563 7.80401 35.3567 8.77195 29.1943C9.73988 23.032 13.0196 17.4701 17.9436 13.6405C22.8676 9.81095 29.0659 8.0016 35.2768 8.58069C41.4878 9.15979 47.2447 12.0838 51.3759 16.7576" stroke="black" stroke-width="2" stroke-linecap="round" stroke-linejoin="round"/>
<path d="M37.9442 33.6594C37.7247 34.7795 37.1215 35.788 36.2384 36.5112C35.3554 37.2344 34.2477 37.627 33.1063 37.6214C31.9649 37.6157 30.8612 37.2121 29.9853 36.4802C29.1095 35.7483 28.5163 34.7338 28.308 33.6116C28.0997 32.4893 28.2893 31.3296 28.8441 30.3321C29.399 29.3346 30.2843 28.5618 31.3476 28.1469C32.411 27.732 33.5857 27.7009 34.6695 28.059" stroke="black" stroke-width="2" stroke-linecap="round" stroke-linejoin="round"/>
<path d="M42.2669 30.0019C42.9634 32.2592 42.8219 34.6921 41.8684 36.8534C40.915 39.0148 39.2136 40.7595 37.077 41.7671C34.9403 42.7746 32.5118 42.9773 30.2377 42.3379C27.9635 41.6985 25.9965 40.26 24.6979 38.2866C23.3994 36.3132 22.8565 33.9375 23.1691 31.596C23.4817 29.2544 24.6287 27.1043 26.3994 25.5406C28.1702 23.977 30.4457 23.1048 32.8079 23.0843C35.1701 23.0639 37.4604 23.8965 39.258 25.4293" stroke="black" stroke-width="2" stroke-linecap="round" stroke-linejoin="round"/>
<path d="M46.6696 27.2865C48.1398 30.6415 48.3059 34.4242 47.1354 37.895C45.9648 41.3659 43.5419 44.2755 40.3402 46.0549C37.1385 47.8343 33.3882 48.3556 29.8226 47.5169C26.2569 46.6782 23.1323 44.5398 21.0595 41.5198C18.9867 38.4997 18.1147 34.8152 18.6142 31.1864C19.1136 27.5577 20.9484 24.2457 23.76 21.8978C26.5716 19.55 30.1577 18.3352 33.8173 18.4909C37.477 18.6466 40.947 20.1616 43.549 22.7398" stroke="black" stroke-width="2" stroke-linecap="round" stroke-linejoin="round"/>
<path d="M50.82 24.8043C52.8803 29.2909 53.1733 34.3894 51.6407 39.0826C50.1081 43.7758 46.8625 47.7187 42.5513 50.1247C38.2401 52.5306 33.1803 53.2228 28.3814 52.0632C23.5824 50.9035 19.397 47.9772 16.6602 43.8681C13.9234 39.759 12.8364 34.7691 13.6159 29.8939C14.3955 25.0188 16.9844 20.6167 20.8661 17.5659C24.7478 14.5152 29.637 13.04 34.5583 13.4346C39.4796 13.8293 44.0712 16.0648 47.4172 19.6952" stroke="black" stroke-width="2" stroke-linecap="round" stroke-linejoin="round"/>
</svg>
