<svg width="66" height="38" viewBox="0 0 66 38" fill="none" xmlns="http://www.w3.org/2000/svg">
<path d="M22.1173 5.53191C18.6438 4.68519 14.9768 5.23024 11.8996 7.05062C8.82246 8.87101 6.57905 11.8224 5.64855 15.2745C4.71805 18.7266 5.17422 22.4057 6.91963 25.526C8.66504 28.6463 11.5613 30.9604 14.9899 31.9742C18.4184 32.9879 22.1075 32.6209 25.2691 30.9515C28.4307 29.2821 30.8143 26.4426 31.9106 23.0396C33.007 19.6365 32.7294 15.9397 31.1369 12.7386" stroke="black" stroke-width="2" stroke-linecap="round" stroke-linejoin="round"/>
<path d="M28.6502 9.25909C26.1448 6.70849 22.7414 5.23861 19.1669 5.16341C15.5924 5.08821 12.1301 6.41365 9.51967 8.85663C6.9092 11.2996 5.35742 14.6665 5.19577 18.2381C5.03411 21.8097 6.2754 25.303 8.65451 27.9718C11.0336 30.6406 14.362 32.2734 17.9286 32.5214C21.4953 32.7694 25.0176 31.613 27.7432 29.2992C30.4688 26.9853 32.1816 23.6975 32.5158 20.1378" stroke="black" stroke-width="2" stroke-linecap="round" stroke-linejoin="round"/>
<path d="M28.5128 9.50781L17.5552 19.5523" stroke="black" stroke-width="2" stroke-linecap="round" stroke-linejoin="round"/>
<path d="M31.0469 12.7832L12.0762 30.0525" stroke="black" stroke-width="2" stroke-linecap="round" stroke-linejoin="round"/>
<path d="M50.4245 5.53191C46.9509 4.68519 43.2839 5.23024 40.2067 7.05062C37.1296 8.87101 34.8862 11.8224 33.9557 15.2745C33.0252 18.7266 33.4814 22.4057 35.2268 25.526C36.9722 28.6463 39.8685 30.9604 43.297 31.9742C46.7256 32.9879 50.4146 32.6209 53.5762 30.9515C56.7378 29.2821 59.1214 26.4426 60.2178 23.0396C61.3142 19.6365 61.0365 15.9397 59.4441 12.7386" stroke="black" stroke-width="2" stroke-linecap="round" stroke-linejoin="round"/>
<path d="M56.9573 9.25909C54.4519 6.70849 51.0485 5.23861 47.474 5.16341C43.8995 5.08821 40.4373 6.41365 37.8268 8.85663C35.2163 11.2996 33.6645 14.6665 33.5029 18.2381C33.3412 21.8097 34.5825 25.303 36.9616 27.9718C39.3408 30.6406 42.6691 32.2734 46.2358 32.5214C49.8024 32.7694 53.3247 31.613 56.0503 29.2992C58.7759 26.9853 60.4887 23.6975 60.8229 20.1378" stroke="black" stroke-width="2" stroke-linecap="round" stroke-linejoin="round"/>
<path d="M56.8199 9.50781L45.8623 19.5523" stroke="black" stroke-width="2" stroke-linecap="round" stroke-linejoin="round"/>
<path d="M59.354 12.7832L40.3833 30.0525" stroke="black" stroke-width="2" stroke-linecap="round" stroke-linejoin="round"/>
</svg>
